G04 #@! TF.GenerationSoftware,KiCad,Pcbnew,7.0.5.1-1-g8f565ef7f0-dirty-deb11*
G04 #@! TF.CreationDate,2023-08-10T20:19:50+00:00*
G04 #@! TF.ProjectId,hakea-fillets,68616b65-612d-4666-996c-6c6574732e6b,1.0.1*
G04 #@! TF.SameCoordinates,Original*
G04 #@! TF.FileFunction,Soldermask,Bot*
G04 #@! TF.FilePolarity,Negative*
%FSLAX46Y46*%
G04 Gerber Fmt 4.6, Leading zero omitted, Abs format (unit mm)*
G04 Created by KiCad (PCBNEW 7.0.5.1-1-g8f565ef7f0-dirty-deb11) date 2023-08-10 20:19:50*
%MOMM*%
%LPD*%
G01*
G04 APERTURE LIST*
%ADD10C,0.300000*%
%ADD11C,1.750000*%
%ADD12C,3.000000*%
%ADD13C,3.987800*%
%ADD14R,2.350000X2.500000*%
%ADD15R,2.150000X2.500000*%
%ADD16O,1.000000X2.200000*%
%ADD17O,1.000000X1.800000*%
%ADD18R,2.000000X2.000000*%
%ADD19C,2.000000*%
%ADD20R,2.000000X3.200000*%
%ADD21R,1.700000X1.700000*%
%ADD22O,1.700000X1.700000*%
%ADD23C,3.500000*%
%ADD24C,1.500000*%
%ADD25C,1.600000*%
%ADD26R,0.700000X1.524000*%
%ADD27O,1.200000X1.750000*%
G04 APERTURE END LIST*
D10*
X103746714Y-115562528D02*
X103746714Y-114062528D01*
X103746714Y-114776814D02*
X102889571Y-114776814D01*
X102889571Y-115562528D02*
X102889571Y-114062528D01*
X101532428Y-115562528D02*
X101532428Y-114776814D01*
X101532428Y-114776814D02*
X101603856Y-114633957D01*
X101603856Y-114633957D02*
X101746713Y-114562528D01*
X101746713Y-114562528D02*
X102032428Y-114562528D01*
X102032428Y-114562528D02*
X102175285Y-114633957D01*
X101532428Y-115491100D02*
X101675285Y-115562528D01*
X101675285Y-115562528D02*
X102032428Y-115562528D01*
X102032428Y-115562528D02*
X102175285Y-115491100D01*
X102175285Y-115491100D02*
X102246713Y-115348242D01*
X102246713Y-115348242D02*
X102246713Y-115205385D01*
X102246713Y-115205385D02*
X102175285Y-115062528D01*
X102175285Y-115062528D02*
X102032428Y-114991100D01*
X102032428Y-114991100D02*
X101675285Y-114991100D01*
X101675285Y-114991100D02*
X101532428Y-114919671D01*
X100818142Y-115562528D02*
X100818142Y-114062528D01*
X100675285Y-114991100D02*
X100246713Y-115562528D01*
X100246713Y-114562528D02*
X100818142Y-115133957D01*
X99032427Y-115491100D02*
X99175284Y-115562528D01*
X99175284Y-115562528D02*
X99460999Y-115562528D01*
X99460999Y-115562528D02*
X99603856Y-115491100D01*
X99603856Y-115491100D02*
X99675284Y-115348242D01*
X99675284Y-115348242D02*
X99675284Y-114776814D01*
X99675284Y-114776814D02*
X99603856Y-114633957D01*
X99603856Y-114633957D02*
X99460999Y-114562528D01*
X99460999Y-114562528D02*
X99175284Y-114562528D01*
X99175284Y-114562528D02*
X99032427Y-114633957D01*
X99032427Y-114633957D02*
X98960999Y-114776814D01*
X98960999Y-114776814D02*
X98960999Y-114919671D01*
X98960999Y-114919671D02*
X99675284Y-115062528D01*
X97675285Y-115562528D02*
X97675285Y-114776814D01*
X97675285Y-114776814D02*
X97746713Y-114633957D01*
X97746713Y-114633957D02*
X97889570Y-114562528D01*
X97889570Y-114562528D02*
X98175285Y-114562528D01*
X98175285Y-114562528D02*
X98318142Y-114633957D01*
X97675285Y-115491100D02*
X97818142Y-115562528D01*
X97818142Y-115562528D02*
X98175285Y-115562528D01*
X98175285Y-115562528D02*
X98318142Y-115491100D01*
X98318142Y-115491100D02*
X98389570Y-115348242D01*
X98389570Y-115348242D02*
X98389570Y-115205385D01*
X98389570Y-115205385D02*
X98318142Y-115062528D01*
X98318142Y-115062528D02*
X98175285Y-114991100D01*
X98175285Y-114991100D02*
X97818142Y-114991100D01*
X97818142Y-114991100D02*
X97675285Y-114919671D01*
G36*
X106273600Y-117371966D02*
G01*
X105575100Y-117386100D01*
X105568478Y-118471950D01*
X105561855Y-119557800D01*
X105181400Y-119557800D01*
X105181400Y-117373400D01*
X104824640Y-117373400D01*
X104467879Y-117373399D01*
X104475390Y-117201950D01*
X104482900Y-117030500D01*
X106273600Y-117017150D01*
X106273600Y-117371966D01*
G37*
G36*
X101727000Y-122275600D02*
G01*
X101371400Y-122275600D01*
X101371400Y-121562130D01*
X101175361Y-121321965D01*
X101171699Y-121317482D01*
X101095633Y-121225794D01*
X101031332Y-121150874D01*
X100985477Y-121100337D01*
X100964744Y-121081800D01*
X100964423Y-121081897D01*
X100946567Y-121105575D01*
X100906659Y-121167055D01*
X100848168Y-121260721D01*
X100774564Y-121380960D01*
X100689315Y-121522157D01*
X100595891Y-121678700D01*
X100241614Y-122275600D01*
X100016390Y-122275600D01*
X99909686Y-122274159D01*
X99840912Y-122268821D01*
X99808235Y-122258389D01*
X99804186Y-122241668D01*
X99812428Y-122225853D01*
X99844346Y-122169693D01*
X99897071Y-122079014D01*
X99967452Y-121959172D01*
X100052342Y-121815525D01*
X100148589Y-121653429D01*
X100253045Y-121478241D01*
X100327377Y-121353353D01*
X100424641Y-121188399D01*
X100510533Y-121040937D01*
X100582077Y-120916168D01*
X100636301Y-120819294D01*
X100670231Y-120755515D01*
X100680891Y-120730032D01*
X100673254Y-120719123D01*
X100637568Y-120673327D01*
X100577006Y-120597603D01*
X100496150Y-120497635D01*
X100399587Y-120379107D01*
X100291900Y-120247705D01*
X100223770Y-120164578D01*
X100122349Y-120039940D01*
X100034903Y-119931383D01*
X99966034Y-119844672D01*
X99920343Y-119785571D01*
X99902434Y-119759846D01*
X99903715Y-119755710D01*
X99938323Y-119745328D01*
X100012623Y-119738647D01*
X100118334Y-119736560D01*
X100342700Y-119737520D01*
X100838000Y-120370958D01*
X100903019Y-120453906D01*
X101020111Y-120602210D01*
X101125502Y-120734319D01*
X101215308Y-120845442D01*
X101285641Y-120930789D01*
X101332617Y-120985571D01*
X101352350Y-121004998D01*
X101356604Y-120989067D01*
X101361387Y-120928797D01*
X101365462Y-120830022D01*
X101368625Y-120699536D01*
X101370673Y-120544131D01*
X101371400Y-120370600D01*
X101371400Y-119735600D01*
X101727000Y-119735600D01*
X101727000Y-122275600D01*
G37*
G36*
X96225454Y-117149860D02*
G01*
X96233090Y-117177430D01*
X96257360Y-117267227D01*
X96290188Y-117390552D01*
X96329619Y-117539890D01*
X96373697Y-117707729D01*
X96420466Y-117886555D01*
X96467969Y-118068854D01*
X96514252Y-118247114D01*
X96557358Y-118413821D01*
X96595331Y-118561461D01*
X96626215Y-118682522D01*
X96648054Y-118769489D01*
X96658893Y-118814850D01*
X96660437Y-118821827D01*
X96677259Y-118875416D01*
X96693469Y-118897365D01*
X96694918Y-118895848D01*
X96707068Y-118860691D01*
X96728190Y-118783626D01*
X96756748Y-118670829D01*
X96791208Y-118528477D01*
X96830036Y-118362746D01*
X96871698Y-118179815D01*
X96873142Y-118173387D01*
X96917444Y-117976309D01*
X96960752Y-117783855D01*
X97001040Y-117605013D01*
X97036282Y-117448773D01*
X97064452Y-117324122D01*
X97083523Y-117240050D01*
X97134152Y-117017800D01*
X97516254Y-117017800D01*
X97498398Y-117112982D01*
X97497094Y-117119502D01*
X97484508Y-117175699D01*
X97461531Y-117273864D01*
X97429590Y-117408053D01*
X97390112Y-117572319D01*
X97344526Y-117760718D01*
X97294258Y-117967304D01*
X97240736Y-118186132D01*
X97230970Y-118225961D01*
X97176776Y-118447171D01*
X97125193Y-118658000D01*
X97077804Y-118851955D01*
X97036194Y-119022545D01*
X97001946Y-119163277D01*
X96976645Y-119267660D01*
X96961873Y-119329200D01*
X96941678Y-119413182D01*
X96923468Y-119486193D01*
X96912706Y-119526050D01*
X96893636Y-119541500D01*
X96828474Y-119553787D01*
X96715462Y-119557800D01*
X96528329Y-119557800D01*
X96484160Y-119399050D01*
X96466839Y-119336640D01*
X96434070Y-119218149D01*
X96394030Y-119073028D01*
X96349026Y-118909676D01*
X96301367Y-118736495D01*
X96253363Y-118561884D01*
X96207323Y-118394243D01*
X96165555Y-118241973D01*
X96130369Y-118113473D01*
X96104074Y-118017144D01*
X96088978Y-117961386D01*
X96079409Y-117927930D01*
X96061059Y-117876726D01*
X96049171Y-117861162D01*
X96049143Y-117861192D01*
X96040387Y-117887610D01*
X96020545Y-117956376D01*
X95991427Y-118060778D01*
X95954841Y-118194106D01*
X95912595Y-118349650D01*
X95866498Y-118520699D01*
X95818359Y-118700542D01*
X95769986Y-118882470D01*
X95723187Y-119059770D01*
X95679771Y-119225734D01*
X95641547Y-119373650D01*
X95594349Y-119557800D01*
X95410974Y-119557800D01*
X95401201Y-119557773D01*
X95311607Y-119554857D01*
X95245348Y-119548069D01*
X95216150Y-119538750D01*
X95215790Y-119537883D01*
X95206638Y-119504834D01*
X95187068Y-119428935D01*
X95158493Y-119315919D01*
X95122326Y-119171517D01*
X95079980Y-119001463D01*
X95032869Y-118811489D01*
X94982405Y-118607326D01*
X94930002Y-118394709D01*
X94877073Y-118179368D01*
X94825030Y-117967036D01*
X94775288Y-117763446D01*
X94729258Y-117574330D01*
X94688354Y-117405420D01*
X94653990Y-117262449D01*
X94627578Y-117151150D01*
X94596270Y-117017800D01*
X94987386Y-117017800D01*
X95200291Y-117969135D01*
X95210276Y-118013679D01*
X95257365Y-118221794D01*
X95301095Y-118411934D01*
X95340203Y-118578829D01*
X95373427Y-118717205D01*
X95399505Y-118821790D01*
X95417175Y-118887310D01*
X95425173Y-118908493D01*
X95425716Y-118907559D01*
X95436351Y-118874343D01*
X95458035Y-118798185D01*
X95489298Y-118684519D01*
X95528669Y-118538782D01*
X95574679Y-118366411D01*
X95625858Y-118172841D01*
X95680734Y-117963508D01*
X95924319Y-117030500D01*
X96055975Y-117022860D01*
X96187632Y-117015220D01*
X96225454Y-117149860D01*
G37*
G36*
X108609264Y-118280975D02*
G01*
X108579664Y-118350516D01*
X108525379Y-118457499D01*
X108447802Y-118599183D01*
X108348328Y-118772828D01*
X108344679Y-118779092D01*
X108264417Y-118917111D01*
X108163960Y-119090239D01*
X108048205Y-119290015D01*
X107922047Y-119507983D01*
X107790382Y-119735684D01*
X107658107Y-119964659D01*
X107530116Y-120186450D01*
X107027016Y-121058773D01*
X106999086Y-121107200D01*
X105486993Y-121107286D01*
X103974900Y-121107373D01*
X103175481Y-122491586D01*
X102376062Y-123875800D01*
X99147437Y-123875800D01*
X98527508Y-122802650D01*
X98410623Y-122600266D01*
X98284359Y-122381537D01*
X98164105Y-122173120D01*
X98053099Y-121980625D01*
X97954574Y-121809666D01*
X97871766Y-121665852D01*
X97807909Y-121554796D01*
X97766240Y-121482111D01*
X97624900Y-121234722D01*
X94449370Y-121234200D01*
X94347322Y-121058549D01*
X97784275Y-121058549D01*
X98102077Y-121609924D01*
X98135064Y-121667156D01*
X98250988Y-121868273D01*
X98380229Y-122092487D01*
X98513667Y-122323976D01*
X98642183Y-122546920D01*
X98756657Y-122745500D01*
X98834044Y-122879567D01*
X98927368Y-123040797D01*
X99013747Y-123189558D01*
X99088586Y-123317958D01*
X99147294Y-123418103D01*
X99185276Y-123482100D01*
X99277119Y-123634500D01*
X102234009Y-123647608D01*
X102295719Y-123552154D01*
X102305031Y-123537082D01*
X102340406Y-123477679D01*
X102396618Y-123382021D01*
X102470727Y-123255187D01*
X102559791Y-123102253D01*
X102660872Y-122928297D01*
X102771028Y-122738395D01*
X102887321Y-122537626D01*
X103006810Y-122331067D01*
X103126555Y-122123794D01*
X103243616Y-121920885D01*
X103355054Y-121727418D01*
X103457927Y-121548469D01*
X103549296Y-121389116D01*
X103626222Y-121254436D01*
X103737673Y-121058773D01*
X103411787Y-120494365D01*
X103405387Y-120483282D01*
X103303723Y-120307246D01*
X103184122Y-120100207D01*
X103053580Y-119874270D01*
X102919091Y-119641541D01*
X102787650Y-119414125D01*
X102666254Y-119204129D01*
X102246607Y-118478300D01*
X100768051Y-118471745D01*
X99289496Y-118465191D01*
X99229961Y-118560645D01*
X99220886Y-118575622D01*
X99185194Y-118636062D01*
X99128012Y-118733853D01*
X99051906Y-118864572D01*
X98959443Y-119023798D01*
X98853189Y-119207107D01*
X98735712Y-119410080D01*
X98609577Y-119628293D01*
X98477351Y-119857324D01*
X97784275Y-121058549D01*
X94347322Y-121058549D01*
X94320249Y-121011950D01*
X94180329Y-120770896D01*
X94000595Y-120460612D01*
X93827430Y-120160965D01*
X93662561Y-119874980D01*
X93507715Y-119605681D01*
X93364619Y-119356090D01*
X93234999Y-119129233D01*
X93120584Y-118928131D01*
X93023099Y-118755810D01*
X92944271Y-118615292D01*
X92885828Y-118509602D01*
X92849495Y-118441764D01*
X92837151Y-118415124D01*
X93105515Y-118415124D01*
X93117026Y-118441797D01*
X93151608Y-118508251D01*
X93206712Y-118609758D01*
X93279777Y-118741814D01*
X93368241Y-118899913D01*
X93469542Y-119079553D01*
X93581116Y-119276229D01*
X93700403Y-119485436D01*
X93824840Y-119702670D01*
X93951864Y-119923427D01*
X94078914Y-120143203D01*
X94203427Y-120357493D01*
X94322842Y-120561793D01*
X94434595Y-120751600D01*
X94577287Y-120992900D01*
X97535105Y-121006008D01*
X97594640Y-120910554D01*
X97603659Y-120895672D01*
X97639298Y-120835322D01*
X97696433Y-120737613D01*
X97772496Y-120606970D01*
X97864919Y-120447814D01*
X97971135Y-120264570D01*
X98088576Y-120061661D01*
X98214675Y-119843511D01*
X98346865Y-119614542D01*
X99039556Y-118413984D01*
X98968009Y-118288375D01*
X102408743Y-118288375D01*
X102481365Y-118413984D01*
X102808751Y-118980237D01*
X102912159Y-119159071D01*
X103044728Y-119388290D01*
X103183013Y-119627348D01*
X103319229Y-119862788D01*
X103445593Y-120081157D01*
X103554320Y-120269000D01*
X103899881Y-120865900D01*
X105385191Y-120871953D01*
X106870500Y-120878007D01*
X107166268Y-120363953D01*
X107196034Y-120312235D01*
X107292206Y-120145275D01*
X107405546Y-119948671D01*
X107530006Y-119732906D01*
X107659536Y-119508466D01*
X107788088Y-119285835D01*
X107909613Y-119075497D01*
X107970962Y-118968870D01*
X108079158Y-118778117D01*
X108171628Y-118611374D01*
X108246290Y-118472551D01*
X108301062Y-118365557D01*
X108333860Y-118294303D01*
X108342602Y-118262697D01*
X108337150Y-118251875D01*
X108309116Y-118200984D01*
X108260073Y-118113894D01*
X108192883Y-117995578D01*
X108110408Y-117851011D01*
X108015510Y-117685168D01*
X107911050Y-117503025D01*
X107799889Y-117309554D01*
X107684890Y-117109732D01*
X107568915Y-116908532D01*
X107454824Y-116710930D01*
X107345480Y-116521901D01*
X107243744Y-116346418D01*
X107152478Y-116189457D01*
X107074544Y-116055993D01*
X107012803Y-115951000D01*
X106870107Y-115709700D01*
X103899094Y-115709700D01*
X103756779Y-115951000D01*
X103713148Y-116025486D01*
X103647612Y-116138059D01*
X103564040Y-116282027D01*
X103466059Y-116451112D01*
X103357295Y-116639034D01*
X103241373Y-116839515D01*
X103121919Y-117046276D01*
X103002560Y-117253039D01*
X102886922Y-117453525D01*
X102778629Y-117641454D01*
X102681310Y-117810549D01*
X102598589Y-117954530D01*
X102534092Y-118067119D01*
X102491446Y-118142037D01*
X102408743Y-118288375D01*
X98968009Y-118288375D01*
X98927663Y-118217542D01*
X98888564Y-118149006D01*
X98803561Y-118000519D01*
X98705681Y-117830065D01*
X98597863Y-117642719D01*
X98483047Y-117443559D01*
X98364173Y-117237661D01*
X98244180Y-117030103D01*
X98126007Y-116825960D01*
X98012596Y-116630309D01*
X97906884Y-116448228D01*
X97811813Y-116284792D01*
X97730321Y-116145080D01*
X97665348Y-116034166D01*
X97619834Y-115957129D01*
X97596719Y-115919045D01*
X97535009Y-115823591D01*
X96056148Y-115830145D01*
X94577287Y-115836700D01*
X94434659Y-116078000D01*
X94328541Y-116258269D01*
X94208987Y-116462806D01*
X94084303Y-116677392D01*
X93957047Y-116897530D01*
X93829775Y-117118723D01*
X93705044Y-117336477D01*
X93585411Y-117546294D01*
X93473433Y-117743678D01*
X93371668Y-117924134D01*
X93282671Y-118083165D01*
X93209001Y-118216276D01*
X93153213Y-118318970D01*
X93117866Y-118386752D01*
X93105515Y-118415124D01*
X92837151Y-118415124D01*
X92837000Y-118414799D01*
X92844256Y-118398151D01*
X92875024Y-118339848D01*
X92928317Y-118242968D01*
X93002409Y-118110536D01*
X93095573Y-117945573D01*
X93206082Y-117751105D01*
X93332209Y-117530154D01*
X93472227Y-117285745D01*
X93624410Y-117020900D01*
X93787031Y-116738645D01*
X93958362Y-116442003D01*
X94136677Y-116133996D01*
X94320249Y-115817649D01*
X94449370Y-115595399D01*
X96063293Y-115595400D01*
X97677217Y-115595400D01*
X98438459Y-116915870D01*
X99199700Y-118236340D01*
X100685600Y-118236650D01*
X102171500Y-118236959D01*
X102702928Y-117316229D01*
X102713305Y-117298251D01*
X102840803Y-117077385D01*
X102971259Y-116851448D01*
X103099948Y-116628619D01*
X103222146Y-116417076D01*
X103333128Y-116224997D01*
X103428170Y-116060562D01*
X103502548Y-115931950D01*
X103770742Y-115468400D01*
X106999020Y-115468400D01*
X107199323Y-115817650D01*
X107230680Y-115872272D01*
X107307216Y-116005211D01*
X107379267Y-116129873D01*
X107439925Y-116234316D01*
X107482278Y-116306600D01*
X107487891Y-116316122D01*
X107524779Y-116379278D01*
X107582931Y-116479342D01*
X107659070Y-116610657D01*
X107749921Y-116767567D01*
X107852208Y-116944416D01*
X107962656Y-117135545D01*
X108077988Y-117335300D01*
X108118847Y-117406065D01*
X108228818Y-117596181D01*
X108330379Y-117771270D01*
X108420709Y-117926497D01*
X108496987Y-118057030D01*
X108556388Y-118158035D01*
X108596093Y-118224679D01*
X108613279Y-118252128D01*
X108611808Y-118262697D01*
X108609264Y-118280975D01*
G37*
D11*
X194945000Y-52387500D03*
D12*
X196175000Y-49887500D03*
X197475000Y-47287500D03*
D13*
X200025000Y-52387500D03*
D12*
X202575000Y-47287500D03*
X203825000Y-49837500D03*
D11*
X205105000Y-52387500D03*
D14*
X192825000Y-49847500D03*
D15*
X206449600Y-47320200D03*
D11*
X137795000Y-76200000D03*
D12*
X139025000Y-73700000D03*
X140325000Y-71100000D03*
D13*
X142875000Y-76200000D03*
D12*
X145425000Y-71100000D03*
X146675000Y-73650000D03*
D11*
X147955000Y-76200000D03*
D14*
X135675000Y-73660000D03*
D15*
X149299600Y-71132700D03*
D11*
X213995000Y-52387500D03*
D12*
X215225000Y-49887500D03*
X216525000Y-47287500D03*
D13*
X219075000Y-52387500D03*
D12*
X221625000Y-47287500D03*
X222875000Y-49837500D03*
D11*
X224155000Y-52387500D03*
D14*
X211875000Y-49847500D03*
D15*
X225499600Y-47320200D03*
D16*
X98945700Y-24069400D03*
X110096300Y-24069400D03*
D17*
X98945700Y-27969400D03*
X110096300Y-27969400D03*
D18*
X100304600Y-108508800D03*
D19*
X105304600Y-108508800D03*
X102804600Y-108508800D03*
D20*
X97204600Y-101008800D03*
X108404600Y-101008800D03*
D19*
X105304600Y-94008800D03*
X100304600Y-94008800D03*
D11*
X137795000Y-114300000D03*
D12*
X139025000Y-111800000D03*
X140325000Y-109200000D03*
D13*
X142875000Y-114300000D03*
D12*
X145425000Y-109200000D03*
X146675000Y-111750000D03*
D11*
X147955000Y-114300000D03*
D14*
X135675000Y-111760000D03*
D15*
X149299600Y-109232700D03*
D11*
X90678000Y-77444600D03*
X90678000Y-82194600D03*
X93178000Y-76194600D03*
X93178000Y-83194600D03*
X118745000Y-80962500D03*
D12*
X119975000Y-78462500D03*
X121275000Y-75862500D03*
D13*
X123825000Y-80962500D03*
D12*
X126375000Y-75862500D03*
X127625000Y-78412500D03*
D11*
X128905000Y-80962500D03*
D14*
X116625000Y-78422500D03*
D15*
X130249600Y-75895200D03*
D11*
X156845000Y-52387500D03*
D12*
X158075000Y-49887500D03*
X159375000Y-47287500D03*
D13*
X161925000Y-52387500D03*
D12*
X164475000Y-47287500D03*
X165725000Y-49837500D03*
D11*
X167005000Y-52387500D03*
D14*
X154725000Y-49847500D03*
D15*
X168349600Y-47320200D03*
D21*
X97215800Y-80391400D03*
D22*
X99755800Y-80391400D03*
X102295800Y-80391400D03*
X104835800Y-80391400D03*
D11*
X175895000Y-95250000D03*
D12*
X177125000Y-92750000D03*
X178425000Y-90150000D03*
D13*
X180975000Y-95250000D03*
D12*
X183525000Y-90150000D03*
X184775000Y-92700000D03*
D11*
X186055000Y-95250000D03*
D14*
X173775000Y-92710000D03*
D15*
X187399600Y-90182700D03*
D23*
X104825800Y-127584200D03*
D11*
X175895000Y-76200000D03*
D12*
X177125000Y-73700000D03*
X178425000Y-71100000D03*
D13*
X180975000Y-76200000D03*
D12*
X183525000Y-71100000D03*
X184775000Y-73650000D03*
D11*
X186055000Y-76200000D03*
D14*
X173775000Y-73660000D03*
D15*
X187399600Y-71132700D03*
D11*
X118745000Y-100012500D03*
D12*
X119975000Y-97512500D03*
X121275000Y-94912500D03*
D13*
X123825000Y-100012500D03*
D12*
X126375000Y-94912500D03*
X127625000Y-97462500D03*
D11*
X128905000Y-100012500D03*
D14*
X116625000Y-97472500D03*
D15*
X130249600Y-94945200D03*
D11*
X175895000Y-38100000D03*
D12*
X177125000Y-35600000D03*
X178425000Y-33000000D03*
D13*
X180975000Y-38100000D03*
D12*
X183525000Y-33000000D03*
X184775000Y-35550000D03*
D11*
X186055000Y-38100000D03*
D14*
X173775000Y-35560000D03*
D15*
X187399600Y-33032700D03*
D24*
X95057700Y-106596900D03*
D25*
X95057700Y-96486900D03*
X95057700Y-99026900D03*
X95057700Y-101566900D03*
X95057700Y-104106900D03*
X93832700Y-94096900D03*
X95682700Y-94096900D03*
D11*
X213995000Y-71437500D03*
D12*
X215225000Y-68937500D03*
X216525000Y-66337500D03*
D13*
X219075000Y-71437500D03*
D12*
X221625000Y-66337500D03*
X222875000Y-68887500D03*
D11*
X224155000Y-71437500D03*
D14*
X211875000Y-68897500D03*
D15*
X225499600Y-66370200D03*
D23*
X209956400Y-38379400D03*
D11*
X156845000Y-90487500D03*
D12*
X158075000Y-87987500D03*
X159375000Y-85387500D03*
D13*
X161925000Y-90487500D03*
D12*
X164475000Y-85387500D03*
X165725000Y-87937500D03*
D11*
X167005000Y-90487500D03*
D14*
X154725000Y-87947500D03*
D15*
X168349600Y-85420200D03*
D21*
X89662000Y-37856000D03*
D22*
X89662000Y-40396000D03*
X89662000Y-42936000D03*
X89662000Y-45476000D03*
D11*
X213995000Y-109537500D03*
D12*
X215225000Y-107037500D03*
X216525000Y-104437500D03*
D13*
X219075000Y-109537500D03*
D12*
X221625000Y-104437500D03*
X222875000Y-106987500D03*
D11*
X224155000Y-109537500D03*
D14*
X211875000Y-106997500D03*
D15*
X225499600Y-104470200D03*
D11*
X194945000Y-109537500D03*
D12*
X196175000Y-107037500D03*
X197475000Y-104437500D03*
D13*
X200025000Y-109537500D03*
D12*
X202575000Y-104437500D03*
X203825000Y-106987500D03*
D11*
X205105000Y-109537500D03*
D14*
X192825000Y-106997500D03*
D15*
X206449600Y-104470200D03*
D11*
X156845000Y-71437500D03*
D12*
X158075000Y-68937500D03*
X159375000Y-66337500D03*
D13*
X161925000Y-71437500D03*
D12*
X164475000Y-66337500D03*
X165725000Y-68887500D03*
D11*
X167005000Y-71437500D03*
D14*
X154725000Y-68897500D03*
D15*
X168349600Y-66370200D03*
D11*
X118745000Y-61912500D03*
D12*
X119975000Y-59412500D03*
X121275000Y-56812500D03*
D13*
X123825000Y-61912500D03*
D12*
X126375000Y-56812500D03*
X127625000Y-59362500D03*
D11*
X128905000Y-61912500D03*
D14*
X116625000Y-59372500D03*
D15*
X130249600Y-56845200D03*
D26*
X95026600Y-65438600D03*
X96126600Y-65438600D03*
X97226600Y-65438600D03*
X98326600Y-65438600D03*
X99426600Y-65438600D03*
X100526600Y-65438600D03*
X101626600Y-65438600D03*
X102726600Y-65438600D03*
X103826600Y-65438600D03*
X95026600Y-56938600D03*
X96126600Y-56938600D03*
X97226600Y-56938600D03*
X98326600Y-56938600D03*
X99426600Y-56938600D03*
X100526600Y-56938600D03*
X101626600Y-56938600D03*
X102726600Y-56938600D03*
X103826600Y-56938600D03*
D11*
X118745000Y-42862500D03*
D12*
X119975000Y-40362500D03*
X121275000Y-37762500D03*
D13*
X123825000Y-42862500D03*
D12*
X126375000Y-37762500D03*
X127625000Y-40312500D03*
D11*
X128905000Y-42862500D03*
D14*
X116625000Y-40322500D03*
D15*
X130249600Y-37795200D03*
D11*
X137795000Y-57150000D03*
D12*
X139025000Y-54650000D03*
X140325000Y-52050000D03*
D13*
X142875000Y-57150000D03*
D12*
X145425000Y-52050000D03*
X146675000Y-54600000D03*
D11*
X147955000Y-57150000D03*
D14*
X135675000Y-54610000D03*
D15*
X149299600Y-52082700D03*
D11*
X137795000Y-38100000D03*
D12*
X139025000Y-35600000D03*
X140325000Y-33000000D03*
D13*
X142875000Y-38100000D03*
D12*
X145425000Y-33000000D03*
X146675000Y-35550000D03*
D11*
X147955000Y-38100000D03*
D14*
X135675000Y-35560000D03*
D15*
X149299600Y-33032700D03*
D11*
X156845000Y-109537500D03*
D12*
X158075000Y-107037500D03*
X159375000Y-104437500D03*
D13*
X161925000Y-109537500D03*
D12*
X164475000Y-104437500D03*
X165725000Y-106987500D03*
D11*
X167005000Y-109537500D03*
D14*
X154725000Y-106997500D03*
D15*
X168349600Y-104470200D03*
D11*
X213995000Y-90487500D03*
D12*
X215225000Y-87987500D03*
X216525000Y-85387500D03*
D13*
X219075000Y-90487500D03*
D12*
X221625000Y-85387500D03*
X222875000Y-87937500D03*
D11*
X224155000Y-90487500D03*
D14*
X211875000Y-87947500D03*
D15*
X225499600Y-85420200D03*
D11*
X175895000Y-57150000D03*
D12*
X177125000Y-54650000D03*
X178425000Y-52050000D03*
D13*
X180975000Y-57150000D03*
D12*
X183525000Y-52050000D03*
X184775000Y-54600000D03*
D11*
X186055000Y-57150000D03*
D14*
X173775000Y-54610000D03*
D15*
X187399600Y-52082700D03*
G36*
G01*
X117516600Y-24856600D02*
X117516600Y-23606600D01*
G75*
G02*
X117766600Y-23356600I250000J0D01*
G01*
X118466600Y-23356600D01*
G75*
G02*
X118716600Y-23606600I0J-250000D01*
G01*
X118716600Y-24856600D01*
G75*
G02*
X118466600Y-25106600I-250000J0D01*
G01*
X117766600Y-25106600D01*
G75*
G02*
X117516600Y-24856600I0J250000D01*
G01*
G37*
D27*
X120116600Y-24231600D03*
X122116600Y-24231600D03*
D11*
X175895000Y-114300000D03*
D12*
X177125000Y-111800000D03*
X178425000Y-109200000D03*
D13*
X180975000Y-114300000D03*
D12*
X183525000Y-109200000D03*
X184775000Y-111750000D03*
D11*
X186055000Y-114300000D03*
D14*
X173775000Y-111760000D03*
D15*
X187399600Y-109232700D03*
D11*
X137795000Y-95250000D03*
D12*
X139025000Y-92750000D03*
X140325000Y-90150000D03*
D13*
X142875000Y-95250000D03*
D12*
X145425000Y-90150000D03*
X146675000Y-92700000D03*
D11*
X147955000Y-95250000D03*
D14*
X135675000Y-92710000D03*
D15*
X149299600Y-90182700D03*
D11*
X156845000Y-33337500D03*
D12*
X158075000Y-30837500D03*
X159375000Y-28237500D03*
D13*
X161925000Y-33337500D03*
D12*
X164475000Y-28237500D03*
X165725000Y-30787500D03*
D11*
X167005000Y-33337500D03*
D14*
X154725000Y-30797500D03*
D15*
X168349600Y-28270200D03*
D23*
X190093600Y-122047000D03*
X142875000Y-27559000D03*
D11*
X194945000Y-71437500D03*
D12*
X196175000Y-68937500D03*
X197475000Y-66337500D03*
D13*
X200025000Y-71437500D03*
D12*
X202575000Y-66337500D03*
X203825000Y-68887500D03*
D11*
X205105000Y-71437500D03*
D14*
X192825000Y-68897500D03*
D15*
X206449600Y-66370200D03*
D11*
X194945000Y-90487500D03*
D12*
X196175000Y-87987500D03*
X197475000Y-85387500D03*
D13*
X200025000Y-90487500D03*
D12*
X202575000Y-85387500D03*
X203825000Y-87937500D03*
D11*
X205105000Y-90487500D03*
D14*
X192825000Y-87947500D03*
D15*
X206449600Y-85420200D03*
D11*
X113838097Y-125139801D03*
D12*
X114379138Y-122406639D03*
X114961912Y-119558767D03*
D13*
X118745000Y-123825000D03*
D12*
X119888134Y-118238790D03*
X121755530Y-120378377D03*
D11*
X123651903Y-122510199D03*
G36*
X111944373Y-121723526D02*
G01*
X112591421Y-124138341D01*
X110321495Y-124746566D01*
X109674447Y-122331751D01*
X111944373Y-121723526D01*
G37*
G36*
X122924327Y-118753193D02*
G01*
X122277279Y-116338378D01*
X124354019Y-115781917D01*
X125001067Y-118196732D01*
X122924327Y-118753193D01*
G37*
X86024591Y-135382000D03*
D12*
X85839802Y-132601936D03*
X85665635Y-129700270D03*
D13*
X90424000Y-132842000D03*
D12*
X90082365Y-127150270D03*
X92439897Y-128733635D03*
D11*
X94823409Y-130302000D03*
G36*
X83311197Y-132572263D02*
G01*
X84561197Y-134737327D01*
X82526037Y-135912327D01*
X81276037Y-133747263D01*
X83311197Y-132572263D01*
G37*
G36*
X93148240Y-126861321D02*
G01*
X91898240Y-124696257D01*
X93760194Y-123621257D01*
X95010194Y-125786321D01*
X93148240Y-126861321D01*
G37*
D23*
X91033600Y-86893400D03*
G36*
G01*
X192665000Y-57588000D02*
X193415000Y-57588000D01*
G75*
G02*
X193640000Y-57813000I0J-225000D01*
G01*
X193640000Y-58263000D01*
G75*
G02*
X193415000Y-58488000I-225000J0D01*
G01*
X192665000Y-58488000D01*
G75*
G02*
X192440000Y-58263000I0J225000D01*
G01*
X192440000Y-57813000D01*
G75*
G02*
X192665000Y-57588000I225000J0D01*
G01*
G37*
G36*
G01*
X192665000Y-54288000D02*
X193415000Y-54288000D01*
G75*
G02*
X193640000Y-54513000I0J-225000D01*
G01*
X193640000Y-54963000D01*
G75*
G02*
X193415000Y-55188000I-225000J0D01*
G01*
X192665000Y-55188000D01*
G75*
G02*
X192440000Y-54963000I0J225000D01*
G01*
X192440000Y-54513000D01*
G75*
G02*
X192665000Y-54288000I225000J0D01*
G01*
G37*
G36*
G01*
X192665000Y-96070000D02*
X193415000Y-96070000D01*
G75*
G02*
X193640000Y-96295000I0J-225000D01*
G01*
X193640000Y-96745000D01*
G75*
G02*
X193415000Y-96970000I-225000J0D01*
G01*
X192665000Y-96970000D01*
G75*
G02*
X192440000Y-96745000I0J225000D01*
G01*
X192440000Y-96295000D01*
G75*
G02*
X192665000Y-96070000I225000J0D01*
G01*
G37*
G36*
G01*
X192665000Y-92770000D02*
X193415000Y-92770000D01*
G75*
G02*
X193640000Y-92995000I0J-225000D01*
G01*
X193640000Y-93445000D01*
G75*
G02*
X193415000Y-93670000I-225000J0D01*
G01*
X192665000Y-93670000D01*
G75*
G02*
X192440000Y-93445000I0J225000D01*
G01*
X192440000Y-92995000D01*
G75*
G02*
X192665000Y-92770000I225000J0D01*
G01*
G37*
G36*
G01*
X211715000Y-96070000D02*
X212465000Y-96070000D01*
G75*
G02*
X212690000Y-96295000I0J-225000D01*
G01*
X212690000Y-96745000D01*
G75*
G02*
X212465000Y-96970000I-225000J0D01*
G01*
X211715000Y-96970000D01*
G75*
G02*
X211490000Y-96745000I0J225000D01*
G01*
X211490000Y-96295000D01*
G75*
G02*
X211715000Y-96070000I225000J0D01*
G01*
G37*
G36*
G01*
X211715000Y-92770000D02*
X212465000Y-92770000D01*
G75*
G02*
X212690000Y-92995000I0J-225000D01*
G01*
X212690000Y-93445000D01*
G75*
G02*
X212465000Y-93670000I-225000J0D01*
G01*
X211715000Y-93670000D01*
G75*
G02*
X211490000Y-93445000I0J225000D01*
G01*
X211490000Y-92995000D01*
G75*
G02*
X211715000Y-92770000I225000J0D01*
G01*
G37*
G36*
G01*
X211715000Y-77020000D02*
X212465000Y-77020000D01*
G75*
G02*
X212690000Y-77245000I0J-225000D01*
G01*
X212690000Y-77695000D01*
G75*
G02*
X212465000Y-77920000I-225000J0D01*
G01*
X211715000Y-77920000D01*
G75*
G02*
X211490000Y-77695000I0J225000D01*
G01*
X211490000Y-77245000D01*
G75*
G02*
X211715000Y-77020000I225000J0D01*
G01*
G37*
G36*
G01*
X211715000Y-73720000D02*
X212465000Y-73720000D01*
G75*
G02*
X212690000Y-73945000I0J-225000D01*
G01*
X212690000Y-74395000D01*
G75*
G02*
X212465000Y-74620000I-225000J0D01*
G01*
X211715000Y-74620000D01*
G75*
G02*
X211490000Y-74395000I0J225000D01*
G01*
X211490000Y-73945000D01*
G75*
G02*
X211715000Y-73720000I225000J0D01*
G01*
G37*
G36*
G01*
X192665000Y-115120000D02*
X193415000Y-115120000D01*
G75*
G02*
X193640000Y-115345000I0J-225000D01*
G01*
X193640000Y-115795000D01*
G75*
G02*
X193415000Y-116020000I-225000J0D01*
G01*
X192665000Y-116020000D01*
G75*
G02*
X192440000Y-115795000I0J225000D01*
G01*
X192440000Y-115345000D01*
G75*
G02*
X192665000Y-115120000I225000J0D01*
G01*
G37*
G36*
G01*
X192665000Y-111820000D02*
X193415000Y-111820000D01*
G75*
G02*
X193640000Y-112045000I0J-225000D01*
G01*
X193640000Y-112495000D01*
G75*
G02*
X193415000Y-112720000I-225000J0D01*
G01*
X192665000Y-112720000D01*
G75*
G02*
X192440000Y-112495000I0J225000D01*
G01*
X192440000Y-112045000D01*
G75*
G02*
X192665000Y-111820000I225000J0D01*
G01*
G37*
G36*
G01*
X135515000Y-62796000D02*
X136265000Y-62796000D01*
G75*
G02*
X136490000Y-63021000I0J-225000D01*
G01*
X136490000Y-63471000D01*
G75*
G02*
X136265000Y-63696000I-225000J0D01*
G01*
X135515000Y-63696000D01*
G75*
G02*
X135290000Y-63471000I0J225000D01*
G01*
X135290000Y-63021000D01*
G75*
G02*
X135515000Y-62796000I225000J0D01*
G01*
G37*
G36*
G01*
X135515000Y-59496000D02*
X136265000Y-59496000D01*
G75*
G02*
X136490000Y-59721000I0J-225000D01*
G01*
X136490000Y-60171000D01*
G75*
G02*
X136265000Y-60396000I-225000J0D01*
G01*
X135515000Y-60396000D01*
G75*
G02*
X135290000Y-60171000I0J225000D01*
G01*
X135290000Y-59721000D01*
G75*
G02*
X135515000Y-59496000I225000J0D01*
G01*
G37*
G36*
X102336600Y-77237000D02*
G01*
X101586600Y-76737000D01*
X101586600Y-75737000D01*
X103086600Y-75737000D01*
X103086600Y-76737000D01*
X102336600Y-77237000D01*
G37*
G36*
X101586600Y-78187000D02*
G01*
X101586600Y-77037000D01*
X102336600Y-77537000D01*
X103086600Y-77037000D01*
X103086600Y-78187000D01*
X101586600Y-78187000D01*
G37*
G36*
G01*
X116465000Y-86798000D02*
X117215000Y-86798000D01*
G75*
G02*
X117440000Y-87023000I0J-225000D01*
G01*
X117440000Y-87473000D01*
G75*
G02*
X117215000Y-87698000I-225000J0D01*
G01*
X116465000Y-87698000D01*
G75*
G02*
X116240000Y-87473000I0J225000D01*
G01*
X116240000Y-87023000D01*
G75*
G02*
X116465000Y-86798000I225000J0D01*
G01*
G37*
G36*
G01*
X116465000Y-83498000D02*
X117215000Y-83498000D01*
G75*
G02*
X117440000Y-83723000I0J-225000D01*
G01*
X117440000Y-84173000D01*
G75*
G02*
X117215000Y-84398000I-225000J0D01*
G01*
X116465000Y-84398000D01*
G75*
G02*
X116240000Y-84173000I0J225000D01*
G01*
X116240000Y-83723000D01*
G75*
G02*
X116465000Y-83498000I225000J0D01*
G01*
G37*
G36*
G01*
X154565000Y-96196000D02*
X155315000Y-96196000D01*
G75*
G02*
X155540000Y-96421000I0J-225000D01*
G01*
X155540000Y-96871000D01*
G75*
G02*
X155315000Y-97096000I-225000J0D01*
G01*
X154565000Y-97096000D01*
G75*
G02*
X154340000Y-96871000I0J225000D01*
G01*
X154340000Y-96421000D01*
G75*
G02*
X154565000Y-96196000I225000J0D01*
G01*
G37*
G36*
G01*
X154565000Y-92896000D02*
X155315000Y-92896000D01*
G75*
G02*
X155540000Y-93121000I0J-225000D01*
G01*
X155540000Y-93571000D01*
G75*
G02*
X155315000Y-93796000I-225000J0D01*
G01*
X154565000Y-93796000D01*
G75*
G02*
X154340000Y-93571000I0J225000D01*
G01*
X154340000Y-93121000D01*
G75*
G02*
X154565000Y-92896000I225000J0D01*
G01*
G37*
G36*
G01*
X116465000Y-67748000D02*
X117215000Y-67748000D01*
G75*
G02*
X117440000Y-67973000I0J-225000D01*
G01*
X117440000Y-68423000D01*
G75*
G02*
X117215000Y-68648000I-225000J0D01*
G01*
X116465000Y-68648000D01*
G75*
G02*
X116240000Y-68423000I0J225000D01*
G01*
X116240000Y-67973000D01*
G75*
G02*
X116465000Y-67748000I225000J0D01*
G01*
G37*
G36*
G01*
X116465000Y-64448000D02*
X117215000Y-64448000D01*
G75*
G02*
X117440000Y-64673000I0J-225000D01*
G01*
X117440000Y-65123000D01*
G75*
G02*
X117215000Y-65348000I-225000J0D01*
G01*
X116465000Y-65348000D01*
G75*
G02*
X116240000Y-65123000I0J225000D01*
G01*
X116240000Y-64673000D01*
G75*
G02*
X116465000Y-64448000I225000J0D01*
G01*
G37*
G36*
G01*
X173615000Y-81972000D02*
X174365000Y-81972000D01*
G75*
G02*
X174590000Y-82197000I0J-225000D01*
G01*
X174590000Y-82647000D01*
G75*
G02*
X174365000Y-82872000I-225000J0D01*
G01*
X173615000Y-82872000D01*
G75*
G02*
X173390000Y-82647000I0J225000D01*
G01*
X173390000Y-82197000D01*
G75*
G02*
X173615000Y-81972000I225000J0D01*
G01*
G37*
G36*
G01*
X173615000Y-78672000D02*
X174365000Y-78672000D01*
G75*
G02*
X174590000Y-78897000I0J-225000D01*
G01*
X174590000Y-79347000D01*
G75*
G02*
X174365000Y-79572000I-225000J0D01*
G01*
X173615000Y-79572000D01*
G75*
G02*
X173390000Y-79347000I0J225000D01*
G01*
X173390000Y-78897000D01*
G75*
G02*
X173615000Y-78672000I225000J0D01*
G01*
G37*
G36*
G01*
X154565000Y-115246000D02*
X155315000Y-115246000D01*
G75*
G02*
X155540000Y-115471000I0J-225000D01*
G01*
X155540000Y-115921000D01*
G75*
G02*
X155315000Y-116146000I-225000J0D01*
G01*
X154565000Y-116146000D01*
G75*
G02*
X154340000Y-115921000I0J225000D01*
G01*
X154340000Y-115471000D01*
G75*
G02*
X154565000Y-115246000I225000J0D01*
G01*
G37*
G36*
G01*
X154565000Y-111946000D02*
X155315000Y-111946000D01*
G75*
G02*
X155540000Y-112171000I0J-225000D01*
G01*
X155540000Y-112621000D01*
G75*
G02*
X155315000Y-112846000I-225000J0D01*
G01*
X154565000Y-112846000D01*
G75*
G02*
X154340000Y-112621000I0J225000D01*
G01*
X154340000Y-112171000D01*
G75*
G02*
X154565000Y-111946000I225000J0D01*
G01*
G37*
D24*
X111998458Y-106579200D03*
D25*
X111998458Y-96469200D03*
X111998458Y-99009200D03*
X111998458Y-101549200D03*
X111998458Y-104089200D03*
X113223458Y-94079200D03*
X111373458Y-94079200D03*
G36*
G01*
X135515000Y-100768000D02*
X136265000Y-100768000D01*
G75*
G02*
X136490000Y-100993000I0J-225000D01*
G01*
X136490000Y-101443000D01*
G75*
G02*
X136265000Y-101668000I-225000J0D01*
G01*
X135515000Y-101668000D01*
G75*
G02*
X135290000Y-101443000I0J225000D01*
G01*
X135290000Y-100993000D01*
G75*
G02*
X135515000Y-100768000I225000J0D01*
G01*
G37*
G36*
G01*
X135515000Y-97468000D02*
X136265000Y-97468000D01*
G75*
G02*
X136490000Y-97693000I0J-225000D01*
G01*
X136490000Y-98143000D01*
G75*
G02*
X136265000Y-98368000I-225000J0D01*
G01*
X135515000Y-98368000D01*
G75*
G02*
X135290000Y-98143000I0J225000D01*
G01*
X135290000Y-97693000D01*
G75*
G02*
X135515000Y-97468000I225000J0D01*
G01*
G37*
G36*
G01*
X154565000Y-77274000D02*
X155315000Y-77274000D01*
G75*
G02*
X155540000Y-77499000I0J-225000D01*
G01*
X155540000Y-77949000D01*
G75*
G02*
X155315000Y-78174000I-225000J0D01*
G01*
X154565000Y-78174000D01*
G75*
G02*
X154340000Y-77949000I0J225000D01*
G01*
X154340000Y-77499000D01*
G75*
G02*
X154565000Y-77274000I225000J0D01*
G01*
G37*
G36*
G01*
X154565000Y-73974000D02*
X155315000Y-73974000D01*
G75*
G02*
X155540000Y-74199000I0J-225000D01*
G01*
X155540000Y-74649000D01*
G75*
G02*
X155315000Y-74874000I-225000J0D01*
G01*
X154565000Y-74874000D01*
G75*
G02*
X154340000Y-74649000I0J225000D01*
G01*
X154340000Y-74199000D01*
G75*
G02*
X154565000Y-73974000I225000J0D01*
G01*
G37*
G36*
G01*
X92665200Y-112350400D02*
X93415200Y-112350400D01*
G75*
G02*
X93640200Y-112575400I0J-225000D01*
G01*
X93640200Y-113025400D01*
G75*
G02*
X93415200Y-113250400I-225000J0D01*
G01*
X92665200Y-113250400D01*
G75*
G02*
X92440200Y-113025400I0J225000D01*
G01*
X92440200Y-112575400D01*
G75*
G02*
X92665200Y-112350400I225000J0D01*
G01*
G37*
G36*
G01*
X92665200Y-109050400D02*
X93415200Y-109050400D01*
G75*
G02*
X93640200Y-109275400I0J-225000D01*
G01*
X93640200Y-109725400D01*
G75*
G02*
X93415200Y-109950400I-225000J0D01*
G01*
X92665200Y-109950400D01*
G75*
G02*
X92440200Y-109725400I0J225000D01*
G01*
X92440200Y-109275400D01*
G75*
G02*
X92665200Y-109050400I225000J0D01*
G01*
G37*
G36*
X104800400Y-77237000D02*
G01*
X104050400Y-76737000D01*
X104050400Y-75737000D01*
X105550400Y-75737000D01*
X105550400Y-76737000D01*
X104800400Y-77237000D01*
G37*
G36*
X104050400Y-78187000D02*
G01*
X104050400Y-77037000D01*
X104800400Y-77537000D01*
X105550400Y-77037000D01*
X105550400Y-78187000D01*
X104050400Y-78187000D01*
G37*
G36*
G01*
X90404600Y-112350400D02*
X91154600Y-112350400D01*
G75*
G02*
X91379600Y-112575400I0J-225000D01*
G01*
X91379600Y-113025400D01*
G75*
G02*
X91154600Y-113250400I-225000J0D01*
G01*
X90404600Y-113250400D01*
G75*
G02*
X90179600Y-113025400I0J225000D01*
G01*
X90179600Y-112575400D01*
G75*
G02*
X90404600Y-112350400I225000J0D01*
G01*
G37*
G36*
G01*
X90404600Y-109050400D02*
X91154600Y-109050400D01*
G75*
G02*
X91379600Y-109275400I0J-225000D01*
G01*
X91379600Y-109725400D01*
G75*
G02*
X91154600Y-109950400I-225000J0D01*
G01*
X90404600Y-109950400D01*
G75*
G02*
X90179600Y-109725400I0J225000D01*
G01*
X90179600Y-109275400D01*
G75*
G02*
X90404600Y-109050400I225000J0D01*
G01*
G37*
G36*
G01*
X112198000Y-114421000D02*
X112198000Y-113671000D01*
G75*
G02*
X112423000Y-113446000I225000J0D01*
G01*
X112873000Y-113446000D01*
G75*
G02*
X113098000Y-113671000I0J-225000D01*
G01*
X113098000Y-114421000D01*
G75*
G02*
X112873000Y-114646000I-225000J0D01*
G01*
X112423000Y-114646000D01*
G75*
G02*
X112198000Y-114421000I0J225000D01*
G01*
G37*
G36*
G01*
X108898000Y-114421000D02*
X108898000Y-113671000D01*
G75*
G02*
X109123000Y-113446000I225000J0D01*
G01*
X109573000Y-113446000D01*
G75*
G02*
X109798000Y-113671000I0J-225000D01*
G01*
X109798000Y-114421000D01*
G75*
G02*
X109573000Y-114646000I-225000J0D01*
G01*
X109123000Y-114646000D01*
G75*
G02*
X108898000Y-114421000I0J225000D01*
G01*
G37*
G36*
G01*
X173615000Y-43618000D02*
X174365000Y-43618000D01*
G75*
G02*
X174590000Y-43843000I0J-225000D01*
G01*
X174590000Y-44293000D01*
G75*
G02*
X174365000Y-44518000I-225000J0D01*
G01*
X173615000Y-44518000D01*
G75*
G02*
X173390000Y-44293000I0J225000D01*
G01*
X173390000Y-43843000D01*
G75*
G02*
X173615000Y-43618000I225000J0D01*
G01*
G37*
G36*
G01*
X173615000Y-40318000D02*
X174365000Y-40318000D01*
G75*
G02*
X174590000Y-40543000I0J-225000D01*
G01*
X174590000Y-40993000D01*
G75*
G02*
X174365000Y-41218000I-225000J0D01*
G01*
X173615000Y-41218000D01*
G75*
G02*
X173390000Y-40993000I0J225000D01*
G01*
X173390000Y-40543000D01*
G75*
G02*
X173615000Y-40318000I225000J0D01*
G01*
G37*
G36*
G01*
X116465000Y-48444000D02*
X117215000Y-48444000D01*
G75*
G02*
X117440000Y-48669000I0J-225000D01*
G01*
X117440000Y-49119000D01*
G75*
G02*
X117215000Y-49344000I-225000J0D01*
G01*
X116465000Y-49344000D01*
G75*
G02*
X116240000Y-49119000I0J225000D01*
G01*
X116240000Y-48669000D01*
G75*
G02*
X116465000Y-48444000I225000J0D01*
G01*
G37*
G36*
G01*
X116465000Y-45144000D02*
X117215000Y-45144000D01*
G75*
G02*
X117440000Y-45369000I0J-225000D01*
G01*
X117440000Y-45819000D01*
G75*
G02*
X117215000Y-46044000I-225000J0D01*
G01*
X116465000Y-46044000D01*
G75*
G02*
X116240000Y-45819000I0J225000D01*
G01*
X116240000Y-45369000D01*
G75*
G02*
X116465000Y-45144000I225000J0D01*
G01*
G37*
G36*
G01*
X192411000Y-77020000D02*
X193161000Y-77020000D01*
G75*
G02*
X193386000Y-77245000I0J-225000D01*
G01*
X193386000Y-77695000D01*
G75*
G02*
X193161000Y-77920000I-225000J0D01*
G01*
X192411000Y-77920000D01*
G75*
G02*
X192186000Y-77695000I0J225000D01*
G01*
X192186000Y-77245000D01*
G75*
G02*
X192411000Y-77020000I225000J0D01*
G01*
G37*
G36*
G01*
X192411000Y-73720000D02*
X193161000Y-73720000D01*
G75*
G02*
X193386000Y-73945000I0J-225000D01*
G01*
X193386000Y-74395000D01*
G75*
G02*
X193161000Y-74620000I-225000J0D01*
G01*
X192411000Y-74620000D01*
G75*
G02*
X192186000Y-74395000I0J225000D01*
G01*
X192186000Y-73945000D01*
G75*
G02*
X192411000Y-73720000I225000J0D01*
G01*
G37*
G36*
G01*
X154565000Y-57970000D02*
X155315000Y-57970000D01*
G75*
G02*
X155540000Y-58195000I0J-225000D01*
G01*
X155540000Y-58645000D01*
G75*
G02*
X155315000Y-58870000I-225000J0D01*
G01*
X154565000Y-58870000D01*
G75*
G02*
X154340000Y-58645000I0J225000D01*
G01*
X154340000Y-58195000D01*
G75*
G02*
X154565000Y-57970000I225000J0D01*
G01*
G37*
G36*
G01*
X154565000Y-54670000D02*
X155315000Y-54670000D01*
G75*
G02*
X155540000Y-54895000I0J-225000D01*
G01*
X155540000Y-55345000D01*
G75*
G02*
X155315000Y-55570000I-225000J0D01*
G01*
X154565000Y-55570000D01*
G75*
G02*
X154340000Y-55345000I0J225000D01*
G01*
X154340000Y-54895000D01*
G75*
G02*
X154565000Y-54670000I225000J0D01*
G01*
G37*
G36*
G01*
X173489000Y-62542000D02*
X174239000Y-62542000D01*
G75*
G02*
X174464000Y-62767000I0J-225000D01*
G01*
X174464000Y-63217000D01*
G75*
G02*
X174239000Y-63442000I-225000J0D01*
G01*
X173489000Y-63442000D01*
G75*
G02*
X173264000Y-63217000I0J225000D01*
G01*
X173264000Y-62767000D01*
G75*
G02*
X173489000Y-62542000I225000J0D01*
G01*
G37*
G36*
G01*
X173489000Y-59242000D02*
X174239000Y-59242000D01*
G75*
G02*
X174464000Y-59467000I0J-225000D01*
G01*
X174464000Y-59917000D01*
G75*
G02*
X174239000Y-60142000I-225000J0D01*
G01*
X173489000Y-60142000D01*
G75*
G02*
X173264000Y-59917000I0J225000D01*
G01*
X173264000Y-59467000D01*
G75*
G02*
X173489000Y-59242000I225000J0D01*
G01*
G37*
G36*
G01*
X135515000Y-119818000D02*
X136265000Y-119818000D01*
G75*
G02*
X136490000Y-120043000I0J-225000D01*
G01*
X136490000Y-120493000D01*
G75*
G02*
X136265000Y-120718000I-225000J0D01*
G01*
X135515000Y-120718000D01*
G75*
G02*
X135290000Y-120493000I0J225000D01*
G01*
X135290000Y-120043000D01*
G75*
G02*
X135515000Y-119818000I225000J0D01*
G01*
G37*
G36*
G01*
X135515000Y-116518000D02*
X136265000Y-116518000D01*
G75*
G02*
X136490000Y-116743000I0J-225000D01*
G01*
X136490000Y-117193000D01*
G75*
G02*
X136265000Y-117418000I-225000J0D01*
G01*
X135515000Y-117418000D01*
G75*
G02*
X135290000Y-117193000I0J225000D01*
G01*
X135290000Y-116743000D01*
G75*
G02*
X135515000Y-116518000I225000J0D01*
G01*
G37*
G36*
G01*
X135515000Y-81846000D02*
X136265000Y-81846000D01*
G75*
G02*
X136490000Y-82071000I0J-225000D01*
G01*
X136490000Y-82521000D01*
G75*
G02*
X136265000Y-82746000I-225000J0D01*
G01*
X135515000Y-82746000D01*
G75*
G02*
X135290000Y-82521000I0J225000D01*
G01*
X135290000Y-82071000D01*
G75*
G02*
X135515000Y-81846000I225000J0D01*
G01*
G37*
G36*
G01*
X135515000Y-78546000D02*
X136265000Y-78546000D01*
G75*
G02*
X136490000Y-78771000I0J-225000D01*
G01*
X136490000Y-79221000D01*
G75*
G02*
X136265000Y-79446000I-225000J0D01*
G01*
X135515000Y-79446000D01*
G75*
G02*
X135290000Y-79221000I0J225000D01*
G01*
X135290000Y-78771000D01*
G75*
G02*
X135515000Y-78546000I225000J0D01*
G01*
G37*
G36*
X97256600Y-77237000D02*
G01*
X96506600Y-76737000D01*
X96506600Y-75737000D01*
X98006600Y-75737000D01*
X98006600Y-76737000D01*
X97256600Y-77237000D01*
G37*
G36*
X96506600Y-78187000D02*
G01*
X96506600Y-77037000D01*
X97256600Y-77537000D01*
X98006600Y-77037000D01*
X98006600Y-78187000D01*
X96506600Y-78187000D01*
G37*
G36*
G01*
X116465000Y-105594000D02*
X117215000Y-105594000D01*
G75*
G02*
X117440000Y-105819000I0J-225000D01*
G01*
X117440000Y-106269000D01*
G75*
G02*
X117215000Y-106494000I-225000J0D01*
G01*
X116465000Y-106494000D01*
G75*
G02*
X116240000Y-106269000I0J225000D01*
G01*
X116240000Y-105819000D01*
G75*
G02*
X116465000Y-105594000I225000J0D01*
G01*
G37*
G36*
G01*
X116465000Y-102294000D02*
X117215000Y-102294000D01*
G75*
G02*
X117440000Y-102519000I0J-225000D01*
G01*
X117440000Y-102969000D01*
G75*
G02*
X117215000Y-103194000I-225000J0D01*
G01*
X116465000Y-103194000D01*
G75*
G02*
X116240000Y-102969000I0J225000D01*
G01*
X116240000Y-102519000D01*
G75*
G02*
X116465000Y-102294000I225000J0D01*
G01*
G37*
G36*
G01*
X211461000Y-115500000D02*
X212211000Y-115500000D01*
G75*
G02*
X212436000Y-115725000I0J-225000D01*
G01*
X212436000Y-116175000D01*
G75*
G02*
X212211000Y-116400000I-225000J0D01*
G01*
X211461000Y-116400000D01*
G75*
G02*
X211236000Y-116175000I0J225000D01*
G01*
X211236000Y-115725000D01*
G75*
G02*
X211461000Y-115500000I225000J0D01*
G01*
G37*
G36*
G01*
X211461000Y-112200000D02*
X212211000Y-112200000D01*
G75*
G02*
X212436000Y-112425000I0J-225000D01*
G01*
X212436000Y-112875000D01*
G75*
G02*
X212211000Y-113100000I-225000J0D01*
G01*
X211461000Y-113100000D01*
G75*
G02*
X211236000Y-112875000I0J225000D01*
G01*
X211236000Y-112425000D01*
G75*
G02*
X211461000Y-112200000I225000J0D01*
G01*
G37*
G36*
G01*
X154439000Y-38920000D02*
X155189000Y-38920000D01*
G75*
G02*
X155414000Y-39145000I0J-225000D01*
G01*
X155414000Y-39595000D01*
G75*
G02*
X155189000Y-39820000I-225000J0D01*
G01*
X154439000Y-39820000D01*
G75*
G02*
X154214000Y-39595000I0J225000D01*
G01*
X154214000Y-39145000D01*
G75*
G02*
X154439000Y-38920000I225000J0D01*
G01*
G37*
G36*
G01*
X154439000Y-35620000D02*
X155189000Y-35620000D01*
G75*
G02*
X155414000Y-35845000I0J-225000D01*
G01*
X155414000Y-36295000D01*
G75*
G02*
X155189000Y-36520000I-225000J0D01*
G01*
X154439000Y-36520000D01*
G75*
G02*
X154214000Y-36295000I0J225000D01*
G01*
X154214000Y-35845000D01*
G75*
G02*
X154439000Y-35620000I225000J0D01*
G01*
G37*
G36*
G01*
X135515000Y-43618000D02*
X136265000Y-43618000D01*
G75*
G02*
X136490000Y-43843000I0J-225000D01*
G01*
X136490000Y-44293000D01*
G75*
G02*
X136265000Y-44518000I-225000J0D01*
G01*
X135515000Y-44518000D01*
G75*
G02*
X135290000Y-44293000I0J225000D01*
G01*
X135290000Y-43843000D01*
G75*
G02*
X135515000Y-43618000I225000J0D01*
G01*
G37*
G36*
G01*
X135515000Y-40318000D02*
X136265000Y-40318000D01*
G75*
G02*
X136490000Y-40543000I0J-225000D01*
G01*
X136490000Y-40993000D01*
G75*
G02*
X136265000Y-41218000I-225000J0D01*
G01*
X135515000Y-41218000D01*
G75*
G02*
X135290000Y-40993000I0J225000D01*
G01*
X135290000Y-40543000D01*
G75*
G02*
X135515000Y-40318000I225000J0D01*
G01*
G37*
G36*
G01*
X173615000Y-100564800D02*
X174365000Y-100564800D01*
G75*
G02*
X174590000Y-100789800I0J-225000D01*
G01*
X174590000Y-101239800D01*
G75*
G02*
X174365000Y-101464800I-225000J0D01*
G01*
X173615000Y-101464800D01*
G75*
G02*
X173390000Y-101239800I0J225000D01*
G01*
X173390000Y-100789800D01*
G75*
G02*
X173615000Y-100564800I225000J0D01*
G01*
G37*
G36*
G01*
X173615000Y-97264800D02*
X174365000Y-97264800D01*
G75*
G02*
X174590000Y-97489800I0J-225000D01*
G01*
X174590000Y-97939800D01*
G75*
G02*
X174365000Y-98164800I-225000J0D01*
G01*
X173615000Y-98164800D01*
G75*
G02*
X173390000Y-97939800I0J225000D01*
G01*
X173390000Y-97489800D01*
G75*
G02*
X173615000Y-97264800I225000J0D01*
G01*
G37*
G36*
G01*
X173615000Y-119944000D02*
X174365000Y-119944000D01*
G75*
G02*
X174590000Y-120169000I0J-225000D01*
G01*
X174590000Y-120619000D01*
G75*
G02*
X174365000Y-120844000I-225000J0D01*
G01*
X173615000Y-120844000D01*
G75*
G02*
X173390000Y-120619000I0J225000D01*
G01*
X173390000Y-120169000D01*
G75*
G02*
X173615000Y-119944000I225000J0D01*
G01*
G37*
G36*
G01*
X173615000Y-116644000D02*
X174365000Y-116644000D01*
G75*
G02*
X174590000Y-116869000I0J-225000D01*
G01*
X174590000Y-117319000D01*
G75*
G02*
X174365000Y-117544000I-225000J0D01*
G01*
X173615000Y-117544000D01*
G75*
G02*
X173390000Y-117319000I0J225000D01*
G01*
X173390000Y-116869000D01*
G75*
G02*
X173615000Y-116644000I225000J0D01*
G01*
G37*
G36*
G01*
X211511800Y-57588000D02*
X212261800Y-57588000D01*
G75*
G02*
X212486800Y-57813000I0J-225000D01*
G01*
X212486800Y-58263000D01*
G75*
G02*
X212261800Y-58488000I-225000J0D01*
G01*
X211511800Y-58488000D01*
G75*
G02*
X211286800Y-58263000I0J225000D01*
G01*
X211286800Y-57813000D01*
G75*
G02*
X211511800Y-57588000I225000J0D01*
G01*
G37*
G36*
G01*
X211511800Y-54288000D02*
X212261800Y-54288000D01*
G75*
G02*
X212486800Y-54513000I0J-225000D01*
G01*
X212486800Y-54963000D01*
G75*
G02*
X212261800Y-55188000I-225000J0D01*
G01*
X211511800Y-55188000D01*
G75*
G02*
X211286800Y-54963000I0J225000D01*
G01*
X211286800Y-54513000D01*
G75*
G02*
X211511800Y-54288000I225000J0D01*
G01*
G37*
G36*
X99822000Y-77237000D02*
G01*
X99072000Y-76737000D01*
X99072000Y-75737000D01*
X100572000Y-75737000D01*
X100572000Y-76737000D01*
X99822000Y-77237000D01*
G37*
G36*
X99072000Y-78187000D02*
G01*
X99072000Y-77037000D01*
X99822000Y-77537000D01*
X100572000Y-77037000D01*
X100572000Y-78187000D01*
X99072000Y-78187000D01*
G37*
M02*
