M48
; DRILL file {KiCad 7.0.5.1-1-g8f565ef7f0-dirty-deb11} date Fri Aug 11 08:52:31 2023
; FORMAT={-:-/ absolute / metric / decimal}
; #@! TF.CreationDate,2023-08-11T08:52:31+00:00
; #@! TF.GenerationSoftware,Kicad,Pcbnew,7.0.5.1-1-g8f565ef7f0-dirty-deb11
; #@! TF.FileFunction,NonPlated,1,2,NPTH
FMAT,2
METRIC
; #@! TA.AperFunction,NonPlated,NPTH,ComponentDrill
T1C1.500
; #@! TA.AperFunction,NonPlated,NPTH,ComponentDrill
T2C1.750
; #@! TA.AperFunction,NonPlated,NPTH,ComponentDrill
T3C3.000
; #@! TA.AperFunction,NonPlated,NPTH,ComponentDrill
T4C3.988
%
G90
G05
T1
X95.058Y-106.597
X111.998Y-106.579
T2
X86.025Y-135.382
X94.823Y-130.302
X113.838Y-125.14
X118.745Y-42.862
X118.745Y-61.912
X118.745Y-80.962
X118.745Y-100.012
X123.652Y-122.51
X128.905Y-42.862
X128.905Y-61.912
X128.905Y-80.962
X128.905Y-100.012
X137.795Y-38.1
X137.795Y-57.15
X137.795Y-76.2
X137.795Y-95.25
X137.795Y-114.3
X147.955Y-38.1
X147.955Y-57.15
X147.955Y-76.2
X147.955Y-95.25
X147.955Y-114.3
X156.845Y-33.337
X156.845Y-52.387
X156.845Y-71.438
X156.845Y-90.487
X156.845Y-109.537
X167.005Y-33.337
X167.005Y-52.387
X167.005Y-71.438
X167.005Y-90.487
X167.005Y-109.537
X175.895Y-38.1
X175.895Y-57.15
X175.895Y-76.2
X175.895Y-95.25
X175.895Y-114.3
X186.055Y-38.1
X186.055Y-57.15
X186.055Y-76.2
X186.055Y-95.25
X186.055Y-114.3
X194.945Y-52.387
X194.945Y-71.438
X194.945Y-90.487
X194.945Y-109.537
X205.105Y-52.387
X205.105Y-71.438
X205.105Y-90.487
X205.105Y-109.537
X213.995Y-52.387
X213.995Y-71.438
X213.995Y-90.487
X213.995Y-109.537
X224.155Y-52.387
X224.155Y-71.438
X224.155Y-90.487
X224.155Y-109.537
T3
X85.666Y-129.7
X85.84Y-132.602
X90.082Y-127.15
X92.44Y-128.734
X114.379Y-122.407
X114.962Y-119.559
X119.888Y-118.239
X119.975Y-40.362
X119.975Y-59.412
X119.975Y-78.462
X119.975Y-97.512
X121.275Y-37.762
X121.275Y-56.812
X121.275Y-75.862
X121.275Y-94.912
X121.756Y-120.378
X126.375Y-37.762
X126.375Y-56.812
X126.375Y-75.862
X126.375Y-94.912
X127.625Y-40.312
X127.625Y-59.362
X127.625Y-78.412
X127.625Y-97.462
X139.025Y-35.6
X139.025Y-54.65
X139.025Y-73.7
X139.025Y-92.75
X139.025Y-111.8
X140.325Y-33.0
X140.325Y-52.05
X140.325Y-71.1
X140.325Y-90.15
X140.325Y-109.2
X145.425Y-33.0
X145.425Y-52.05
X145.425Y-71.1
X145.425Y-90.15
X145.425Y-109.2
X146.675Y-35.55
X146.675Y-54.6
X146.675Y-73.65
X146.675Y-92.7
X146.675Y-111.75
X158.075Y-30.837
X158.075Y-49.887
X158.075Y-68.938
X158.075Y-87.987
X158.075Y-107.037
X159.375Y-28.237
X159.375Y-47.287
X159.375Y-66.337
X159.375Y-85.388
X159.375Y-104.438
X164.475Y-28.237
X164.475Y-47.287
X164.475Y-66.337
X164.475Y-85.388
X164.475Y-104.438
X165.725Y-30.787
X165.725Y-49.837
X165.725Y-68.888
X165.725Y-87.938
X165.725Y-106.987
X177.125Y-35.6
X177.125Y-54.65
X177.125Y-73.7
X177.125Y-92.75
X177.125Y-111.8
X178.425Y-33.0
X178.425Y-52.05
X178.425Y-71.1
X178.425Y-90.15
X178.425Y-109.2
X183.525Y-33.0
X183.525Y-52.05
X183.525Y-71.1
X183.525Y-90.15
X183.525Y-109.2
X184.775Y-35.55
X184.775Y-54.6
X184.775Y-73.65
X184.775Y-92.7
X184.775Y-111.75
X196.175Y-49.887
X196.175Y-68.938
X196.175Y-87.987
X196.175Y-107.037
X197.475Y-47.287
X197.475Y-66.337
X197.475Y-85.388
X197.475Y-104.438
X202.575Y-47.287
X202.575Y-66.337
X202.575Y-85.388
X202.575Y-104.438
X203.825Y-49.837
X203.825Y-68.888
X203.825Y-87.938
X203.825Y-106.987
X215.225Y-49.887
X215.225Y-68.938
X215.225Y-87.987
X215.225Y-107.037
X216.525Y-47.287
X216.525Y-66.337
X216.525Y-85.388
X216.525Y-104.438
X221.625Y-47.287
X221.625Y-66.337
X221.625Y-85.388
X221.625Y-104.438
X222.875Y-49.837
X222.875Y-68.888
X222.875Y-87.938
X222.875Y-106.987
T4
X90.424Y-132.842
X118.745Y-123.825
X123.825Y-42.862
X123.825Y-61.912
X123.825Y-80.962
X123.825Y-100.012
X142.875Y-38.1
X142.875Y-57.15
X142.875Y-76.2
X142.875Y-95.25
X142.875Y-114.3
X161.925Y-33.337
X161.925Y-52.387
X161.925Y-71.438
X161.925Y-90.487
X161.925Y-109.537
X180.975Y-38.1
X180.975Y-57.15
X180.975Y-76.2
X180.975Y-95.25
X180.975Y-114.3
X200.025Y-52.387
X200.025Y-71.438
X200.025Y-90.487
X200.025Y-109.537
X219.075Y-52.387
X219.075Y-71.438
X219.075Y-90.487
X219.075Y-109.537
T0
M30
