%TF.GenerationSoftware,KiCad,Pcbnew,7.0.5.1-1-g8f565ef7f0-dirty-deb11*%
%TF.CreationDate,2023-08-11T09:30:17+00:00*%
%TF.ProjectId,hakea-fillets,68616b65-612d-4666-996c-6c6574732e6b,1.0.2*%
%TF.SameCoordinates,Original*%
%TF.FileFunction,Drillmap*%
%TF.FilePolarity,Positive*%
%FSLAX45Y45*%
G04 Gerber Fmt 4.5, Leading zero omitted, Abs format (unit mm)*
G04 Created by KiCad (PCBNEW 7.0.5.1-1-g8f565ef7f0-dirty-deb11) date 2023-08-11 09:30:17*
%MOMM*%
%LPD*%
G01*
G04 APERTURE LIST*
%ADD10C,0.050000*%
%ADD11C,0.200000*%
%ADD12C,0.150000*%
%ADD13C,0.175000*%
%ADD14C,0.300000*%
%ADD15C,0.398780*%
G04 APERTURE END LIST*
D10*
X12707620Y-2186940D02*
X12707620Y-2509520D01*
X13235940Y-2509520D01*
X13235940Y-2189480D01*
X15113000Y-2209800D01*
X16865600Y-2209800D01*
X19177000Y-2616200D01*
X22987000Y-4089400D01*
X23088600Y-11887200D01*
X19075400Y-12700000D01*
X16357600Y-12344400D01*
X13843000Y-12954000D01*
X11938000Y-13665200D01*
X8686800Y-14909800D01*
X7569200Y-12903200D01*
X8839200Y-10718800D01*
X8707120Y-7066280D01*
X9207401Y-7066314D01*
X9204861Y-5166394D01*
X8709517Y-5166360D01*
X8712200Y-3632200D01*
X9753600Y-2184400D01*
X9994900Y-2184400D01*
X9994900Y-2842260D01*
X10911840Y-2842260D01*
X10911840Y-2181860D01*
X12707620Y-2186940D01*
D11*
D12*
X9430770Y-10584690D02*
X9580770Y-10734690D01*
X9580770Y-10584690D02*
X9430770Y-10734690D01*
X11124846Y-10582920D02*
X11274846Y-10732920D01*
X11274846Y-10582920D02*
X11124846Y-10732920D01*
D13*
X8689959Y-13538200D02*
G75*
G03*
X8689959Y-13538200I-87500J0D01*
G01*
X9569841Y-13030200D02*
G75*
G03*
X9569841Y-13030200I-87500J0D01*
G01*
X11471310Y-12513980D02*
G75*
G03*
X11471310Y-12513980I-87500J0D01*
G01*
X11962000Y-4286250D02*
G75*
G03*
X11962000Y-4286250I-87500J0D01*
G01*
X11962000Y-6191250D02*
G75*
G03*
X11962000Y-6191250I-87500J0D01*
G01*
X11962000Y-8096250D02*
G75*
G03*
X11962000Y-8096250I-87500J0D01*
G01*
X11962000Y-10001250D02*
G75*
G03*
X11962000Y-10001250I-87500J0D01*
G01*
X12452690Y-12251020D02*
G75*
G03*
X12452690Y-12251020I-87500J0D01*
G01*
X12978000Y-4286250D02*
G75*
G03*
X12978000Y-4286250I-87500J0D01*
G01*
X12978000Y-6191250D02*
G75*
G03*
X12978000Y-6191250I-87500J0D01*
G01*
X12978000Y-8096250D02*
G75*
G03*
X12978000Y-8096250I-87500J0D01*
G01*
X12978000Y-10001250D02*
G75*
G03*
X12978000Y-10001250I-87500J0D01*
G01*
X13867000Y-3810000D02*
G75*
G03*
X13867000Y-3810000I-87500J0D01*
G01*
X13867000Y-5715000D02*
G75*
G03*
X13867000Y-5715000I-87500J0D01*
G01*
X13867000Y-7620000D02*
G75*
G03*
X13867000Y-7620000I-87500J0D01*
G01*
X13867000Y-9525000D02*
G75*
G03*
X13867000Y-9525000I-87500J0D01*
G01*
X13867000Y-11430000D02*
G75*
G03*
X13867000Y-11430000I-87500J0D01*
G01*
X14883000Y-3810000D02*
G75*
G03*
X14883000Y-3810000I-87500J0D01*
G01*
X14883000Y-5715000D02*
G75*
G03*
X14883000Y-5715000I-87500J0D01*
G01*
X14883000Y-7620000D02*
G75*
G03*
X14883000Y-7620000I-87500J0D01*
G01*
X14883000Y-9525000D02*
G75*
G03*
X14883000Y-9525000I-87500J0D01*
G01*
X14883000Y-11430000D02*
G75*
G03*
X14883000Y-11430000I-87500J0D01*
G01*
X15772000Y-3333750D02*
G75*
G03*
X15772000Y-3333750I-87500J0D01*
G01*
X15772000Y-5238750D02*
G75*
G03*
X15772000Y-5238750I-87500J0D01*
G01*
X15772000Y-7143750D02*
G75*
G03*
X15772000Y-7143750I-87500J0D01*
G01*
X15772000Y-9048750D02*
G75*
G03*
X15772000Y-9048750I-87500J0D01*
G01*
X15772000Y-10953750D02*
G75*
G03*
X15772000Y-10953750I-87500J0D01*
G01*
X16788000Y-3333750D02*
G75*
G03*
X16788000Y-3333750I-87500J0D01*
G01*
X16788000Y-5238750D02*
G75*
G03*
X16788000Y-5238750I-87500J0D01*
G01*
X16788000Y-7143750D02*
G75*
G03*
X16788000Y-7143750I-87500J0D01*
G01*
X16788000Y-9048750D02*
G75*
G03*
X16788000Y-9048750I-87500J0D01*
G01*
X16788000Y-10953750D02*
G75*
G03*
X16788000Y-10953750I-87500J0D01*
G01*
X17677000Y-3810000D02*
G75*
G03*
X17677000Y-3810000I-87500J0D01*
G01*
X17677000Y-5715000D02*
G75*
G03*
X17677000Y-5715000I-87500J0D01*
G01*
X17677000Y-7620000D02*
G75*
G03*
X17677000Y-7620000I-87500J0D01*
G01*
X17677000Y-9525000D02*
G75*
G03*
X17677000Y-9525000I-87500J0D01*
G01*
X17677000Y-11430000D02*
G75*
G03*
X17677000Y-11430000I-87500J0D01*
G01*
X18693000Y-3810000D02*
G75*
G03*
X18693000Y-3810000I-87500J0D01*
G01*
X18693000Y-5715000D02*
G75*
G03*
X18693000Y-5715000I-87500J0D01*
G01*
X18693000Y-7620000D02*
G75*
G03*
X18693000Y-7620000I-87500J0D01*
G01*
X18693000Y-9525000D02*
G75*
G03*
X18693000Y-9525000I-87500J0D01*
G01*
X18693000Y-11430000D02*
G75*
G03*
X18693000Y-11430000I-87500J0D01*
G01*
X19582000Y-5238750D02*
G75*
G03*
X19582000Y-5238750I-87500J0D01*
G01*
X19582000Y-7143750D02*
G75*
G03*
X19582000Y-7143750I-87500J0D01*
G01*
X19582000Y-9048750D02*
G75*
G03*
X19582000Y-9048750I-87500J0D01*
G01*
X19582000Y-10953750D02*
G75*
G03*
X19582000Y-10953750I-87500J0D01*
G01*
X20598000Y-5238750D02*
G75*
G03*
X20598000Y-5238750I-87500J0D01*
G01*
X20598000Y-7143750D02*
G75*
G03*
X20598000Y-7143750I-87500J0D01*
G01*
X20598000Y-9048750D02*
G75*
G03*
X20598000Y-9048750I-87500J0D01*
G01*
X20598000Y-10953750D02*
G75*
G03*
X20598000Y-10953750I-87500J0D01*
G01*
X21487000Y-5238750D02*
G75*
G03*
X21487000Y-5238750I-87500J0D01*
G01*
X21487000Y-7143750D02*
G75*
G03*
X21487000Y-7143750I-87500J0D01*
G01*
X21487000Y-9048750D02*
G75*
G03*
X21487000Y-9048750I-87500J0D01*
G01*
X21487000Y-10953750D02*
G75*
G03*
X21487000Y-10953750I-87500J0D01*
G01*
X22503000Y-5238750D02*
G75*
G03*
X22503000Y-5238750I-87500J0D01*
G01*
X22503000Y-7143750D02*
G75*
G03*
X22503000Y-7143750I-87500J0D01*
G01*
X22503000Y-9048750D02*
G75*
G03*
X22503000Y-9048750I-87500J0D01*
G01*
X22503000Y-10953750D02*
G75*
G03*
X22503000Y-10953750I-87500J0D01*
G01*
D14*
X8566564Y-12820027D02*
X8566564Y-13120027D01*
X8416564Y-12970027D02*
X8716564Y-12970027D01*
X8583980Y-13110194D02*
X8583980Y-13410194D01*
X8433980Y-13260194D02*
X8733980Y-13260194D01*
X9008237Y-12565027D02*
X9008237Y-12865027D01*
X8858237Y-12715027D02*
X9158237Y-12715027D01*
X9243990Y-12723363D02*
X9243990Y-13023363D01*
X9093990Y-12873363D02*
X9393990Y-12873363D01*
X11437914Y-12090664D02*
X11437914Y-12390664D01*
X11287914Y-12240664D02*
X11587914Y-12240664D01*
X11496191Y-11805877D02*
X11496191Y-12105877D01*
X11346191Y-11955877D02*
X11646191Y-11955877D01*
X11988813Y-11673879D02*
X11988813Y-11973879D01*
X11838813Y-11823879D02*
X12138813Y-11823879D01*
X11997500Y-3886250D02*
X11997500Y-4186250D01*
X11847500Y-4036250D02*
X12147500Y-4036250D01*
X11997500Y-5791250D02*
X11997500Y-6091250D01*
X11847500Y-5941250D02*
X12147500Y-5941250D01*
X11997500Y-7696250D02*
X11997500Y-7996250D01*
X11847500Y-7846250D02*
X12147500Y-7846250D01*
X11997500Y-9601250D02*
X11997500Y-9901250D01*
X11847500Y-9751250D02*
X12147500Y-9751250D01*
X12127500Y-3626250D02*
X12127500Y-3926250D01*
X11977500Y-3776250D02*
X12277500Y-3776250D01*
X12127500Y-5531250D02*
X12127500Y-5831250D01*
X11977500Y-5681250D02*
X12277500Y-5681250D01*
X12127500Y-7436250D02*
X12127500Y-7736250D01*
X11977500Y-7586250D02*
X12277500Y-7586250D01*
X12127500Y-9341250D02*
X12127500Y-9641250D01*
X11977500Y-9491250D02*
X12277500Y-9491250D01*
X12175553Y-11887838D02*
X12175553Y-12187838D01*
X12025553Y-12037838D02*
X12325553Y-12037838D01*
X12637500Y-3626250D02*
X12637500Y-3926250D01*
X12487500Y-3776250D02*
X12787500Y-3776250D01*
X12637500Y-5531250D02*
X12637500Y-5831250D01*
X12487500Y-5681250D02*
X12787500Y-5681250D01*
X12637500Y-7436250D02*
X12637500Y-7736250D01*
X12487500Y-7586250D02*
X12787500Y-7586250D01*
X12637500Y-9341250D02*
X12637500Y-9641250D01*
X12487500Y-9491250D02*
X12787500Y-9491250D01*
X12762500Y-3881250D02*
X12762500Y-4181250D01*
X12612500Y-4031250D02*
X12912500Y-4031250D01*
X12762500Y-5786250D02*
X12762500Y-6086250D01*
X12612500Y-5936250D02*
X12912500Y-5936250D01*
X12762500Y-7691250D02*
X12762500Y-7991250D01*
X12612500Y-7841250D02*
X12912500Y-7841250D01*
X12762500Y-9596250D02*
X12762500Y-9896250D01*
X12612500Y-9746250D02*
X12912500Y-9746250D01*
X13902500Y-3410000D02*
X13902500Y-3710000D01*
X13752500Y-3560000D02*
X14052500Y-3560000D01*
X13902500Y-5315000D02*
X13902500Y-5615000D01*
X13752500Y-5465000D02*
X14052500Y-5465000D01*
X13902500Y-7220000D02*
X13902500Y-7520000D01*
X13752500Y-7370000D02*
X14052500Y-7370000D01*
X13902500Y-9125000D02*
X13902500Y-9425000D01*
X13752500Y-9275000D02*
X14052500Y-9275000D01*
X13902500Y-11030000D02*
X13902500Y-11330000D01*
X13752500Y-11180000D02*
X14052500Y-11180000D01*
X14032500Y-3150000D02*
X14032500Y-3450000D01*
X13882500Y-3300000D02*
X14182500Y-3300000D01*
X14032500Y-5055000D02*
X14032500Y-5355000D01*
X13882500Y-5205000D02*
X14182500Y-5205000D01*
X14032500Y-6960000D02*
X14032500Y-7260000D01*
X13882500Y-7110000D02*
X14182500Y-7110000D01*
X14032500Y-8865000D02*
X14032500Y-9165000D01*
X13882500Y-9015000D02*
X14182500Y-9015000D01*
X14032500Y-10770000D02*
X14032500Y-11070000D01*
X13882500Y-10920000D02*
X14182500Y-10920000D01*
X14542500Y-3150000D02*
X14542500Y-3450000D01*
X14392500Y-3300000D02*
X14692500Y-3300000D01*
X14542500Y-5055000D02*
X14542500Y-5355000D01*
X14392500Y-5205000D02*
X14692500Y-5205000D01*
X14542500Y-6960000D02*
X14542500Y-7260000D01*
X14392500Y-7110000D02*
X14692500Y-7110000D01*
X14542500Y-8865000D02*
X14542500Y-9165000D01*
X14392500Y-9015000D02*
X14692500Y-9015000D01*
X14542500Y-10770000D02*
X14542500Y-11070000D01*
X14392500Y-10920000D02*
X14692500Y-10920000D01*
X14667500Y-3405000D02*
X14667500Y-3705000D01*
X14517500Y-3555000D02*
X14817500Y-3555000D01*
X14667500Y-5310000D02*
X14667500Y-5610000D01*
X14517500Y-5460000D02*
X14817500Y-5460000D01*
X14667500Y-7215000D02*
X14667500Y-7515000D01*
X14517500Y-7365000D02*
X14817500Y-7365000D01*
X14667500Y-9120000D02*
X14667500Y-9420000D01*
X14517500Y-9270000D02*
X14817500Y-9270000D01*
X14667500Y-11025000D02*
X14667500Y-11325000D01*
X14517500Y-11175000D02*
X14817500Y-11175000D01*
X15807500Y-2933750D02*
X15807500Y-3233750D01*
X15657500Y-3083750D02*
X15957500Y-3083750D01*
X15807500Y-4838750D02*
X15807500Y-5138750D01*
X15657500Y-4988750D02*
X15957500Y-4988750D01*
X15807500Y-6743750D02*
X15807500Y-7043750D01*
X15657500Y-6893750D02*
X15957500Y-6893750D01*
X15807500Y-8648750D02*
X15807500Y-8948750D01*
X15657500Y-8798750D02*
X15957500Y-8798750D01*
X15807500Y-10553750D02*
X15807500Y-10853750D01*
X15657500Y-10703750D02*
X15957500Y-10703750D01*
X15937500Y-2673750D02*
X15937500Y-2973750D01*
X15787500Y-2823750D02*
X16087500Y-2823750D01*
X15937500Y-4578750D02*
X15937500Y-4878750D01*
X15787500Y-4728750D02*
X16087500Y-4728750D01*
X15937500Y-6483750D02*
X15937500Y-6783750D01*
X15787500Y-6633750D02*
X16087500Y-6633750D01*
X15937500Y-8388750D02*
X15937500Y-8688750D01*
X15787500Y-8538750D02*
X16087500Y-8538750D01*
X15937500Y-10293750D02*
X15937500Y-10593750D01*
X15787500Y-10443750D02*
X16087500Y-10443750D01*
X16447500Y-2673750D02*
X16447500Y-2973750D01*
X16297500Y-2823750D02*
X16597500Y-2823750D01*
X16447500Y-4578750D02*
X16447500Y-4878750D01*
X16297500Y-4728750D02*
X16597500Y-4728750D01*
X16447500Y-6483750D02*
X16447500Y-6783750D01*
X16297500Y-6633750D02*
X16597500Y-6633750D01*
X16447500Y-8388750D02*
X16447500Y-8688750D01*
X16297500Y-8538750D02*
X16597500Y-8538750D01*
X16447500Y-10293750D02*
X16447500Y-10593750D01*
X16297500Y-10443750D02*
X16597500Y-10443750D01*
X16572500Y-2928750D02*
X16572500Y-3228750D01*
X16422500Y-3078750D02*
X16722500Y-3078750D01*
X16572500Y-4833750D02*
X16572500Y-5133750D01*
X16422500Y-4983750D02*
X16722500Y-4983750D01*
X16572500Y-6738750D02*
X16572500Y-7038750D01*
X16422500Y-6888750D02*
X16722500Y-6888750D01*
X16572500Y-8643750D02*
X16572500Y-8943750D01*
X16422500Y-8793750D02*
X16722500Y-8793750D01*
X16572500Y-10548750D02*
X16572500Y-10848750D01*
X16422500Y-10698750D02*
X16722500Y-10698750D01*
X17712500Y-3410000D02*
X17712500Y-3710000D01*
X17562500Y-3560000D02*
X17862500Y-3560000D01*
X17712500Y-5315000D02*
X17712500Y-5615000D01*
X17562500Y-5465000D02*
X17862500Y-5465000D01*
X17712500Y-7220000D02*
X17712500Y-7520000D01*
X17562500Y-7370000D02*
X17862500Y-7370000D01*
X17712500Y-9125000D02*
X17712500Y-9425000D01*
X17562500Y-9275000D02*
X17862500Y-9275000D01*
X17712500Y-11030000D02*
X17712500Y-11330000D01*
X17562500Y-11180000D02*
X17862500Y-11180000D01*
X17842500Y-3150000D02*
X17842500Y-3450000D01*
X17692500Y-3300000D02*
X17992500Y-3300000D01*
X17842500Y-5055000D02*
X17842500Y-5355000D01*
X17692500Y-5205000D02*
X17992500Y-5205000D01*
X17842500Y-6960000D02*
X17842500Y-7260000D01*
X17692500Y-7110000D02*
X17992500Y-7110000D01*
X17842500Y-8865000D02*
X17842500Y-9165000D01*
X17692500Y-9015000D02*
X17992500Y-9015000D01*
X17842500Y-10770000D02*
X17842500Y-11070000D01*
X17692500Y-10920000D02*
X17992500Y-10920000D01*
X18352500Y-3150000D02*
X18352500Y-3450000D01*
X18202500Y-3300000D02*
X18502500Y-3300000D01*
X18352500Y-5055000D02*
X18352500Y-5355000D01*
X18202500Y-5205000D02*
X18502500Y-5205000D01*
X18352500Y-6960000D02*
X18352500Y-7260000D01*
X18202500Y-7110000D02*
X18502500Y-7110000D01*
X18352500Y-8865000D02*
X18352500Y-9165000D01*
X18202500Y-9015000D02*
X18502500Y-9015000D01*
X18352500Y-10770000D02*
X18352500Y-11070000D01*
X18202500Y-10920000D02*
X18502500Y-10920000D01*
X18477500Y-3405000D02*
X18477500Y-3705000D01*
X18327500Y-3555000D02*
X18627500Y-3555000D01*
X18477500Y-5310000D02*
X18477500Y-5610000D01*
X18327500Y-5460000D02*
X18627500Y-5460000D01*
X18477500Y-7215000D02*
X18477500Y-7515000D01*
X18327500Y-7365000D02*
X18627500Y-7365000D01*
X18477500Y-9120000D02*
X18477500Y-9420000D01*
X18327500Y-9270000D02*
X18627500Y-9270000D01*
X18477500Y-11025000D02*
X18477500Y-11325000D01*
X18327500Y-11175000D02*
X18627500Y-11175000D01*
X19617500Y-4838750D02*
X19617500Y-5138750D01*
X19467500Y-4988750D02*
X19767500Y-4988750D01*
X19617500Y-6743750D02*
X19617500Y-7043750D01*
X19467500Y-6893750D02*
X19767500Y-6893750D01*
X19617500Y-8648750D02*
X19617500Y-8948750D01*
X19467500Y-8798750D02*
X19767500Y-8798750D01*
X19617500Y-10553750D02*
X19617500Y-10853750D01*
X19467500Y-10703750D02*
X19767500Y-10703750D01*
X19747500Y-4578750D02*
X19747500Y-4878750D01*
X19597500Y-4728750D02*
X19897500Y-4728750D01*
X19747500Y-6483750D02*
X19747500Y-6783750D01*
X19597500Y-6633750D02*
X19897500Y-6633750D01*
X19747500Y-8388750D02*
X19747500Y-8688750D01*
X19597500Y-8538750D02*
X19897500Y-8538750D01*
X19747500Y-10293750D02*
X19747500Y-10593750D01*
X19597500Y-10443750D02*
X19897500Y-10443750D01*
X20257500Y-4578750D02*
X20257500Y-4878750D01*
X20107500Y-4728750D02*
X20407500Y-4728750D01*
X20257500Y-6483750D02*
X20257500Y-6783750D01*
X20107500Y-6633750D02*
X20407500Y-6633750D01*
X20257500Y-8388750D02*
X20257500Y-8688750D01*
X20107500Y-8538750D02*
X20407500Y-8538750D01*
X20257500Y-10293750D02*
X20257500Y-10593750D01*
X20107500Y-10443750D02*
X20407500Y-10443750D01*
X20382500Y-4833750D02*
X20382500Y-5133750D01*
X20232500Y-4983750D02*
X20532500Y-4983750D01*
X20382500Y-6738750D02*
X20382500Y-7038750D01*
X20232500Y-6888750D02*
X20532500Y-6888750D01*
X20382500Y-8643750D02*
X20382500Y-8943750D01*
X20232500Y-8793750D02*
X20532500Y-8793750D01*
X20382500Y-10548750D02*
X20382500Y-10848750D01*
X20232500Y-10698750D02*
X20532500Y-10698750D01*
X21522500Y-4838750D02*
X21522500Y-5138750D01*
X21372500Y-4988750D02*
X21672500Y-4988750D01*
X21522500Y-6743750D02*
X21522500Y-7043750D01*
X21372500Y-6893750D02*
X21672500Y-6893750D01*
X21522500Y-8648750D02*
X21522500Y-8948750D01*
X21372500Y-8798750D02*
X21672500Y-8798750D01*
X21522500Y-10553750D02*
X21522500Y-10853750D01*
X21372500Y-10703750D02*
X21672500Y-10703750D01*
X21652500Y-4578750D02*
X21652500Y-4878750D01*
X21502500Y-4728750D02*
X21802500Y-4728750D01*
X21652500Y-6483750D02*
X21652500Y-6783750D01*
X21502500Y-6633750D02*
X21802500Y-6633750D01*
X21652500Y-8388750D02*
X21652500Y-8688750D01*
X21502500Y-8538750D02*
X21802500Y-8538750D01*
X21652500Y-10293750D02*
X21652500Y-10593750D01*
X21502500Y-10443750D02*
X21802500Y-10443750D01*
X22162500Y-4578750D02*
X22162500Y-4878750D01*
X22012500Y-4728750D02*
X22312500Y-4728750D01*
X22162500Y-6483750D02*
X22162500Y-6783750D01*
X22012500Y-6633750D02*
X22312500Y-6633750D01*
X22162500Y-8388750D02*
X22162500Y-8688750D01*
X22012500Y-8538750D02*
X22312500Y-8538750D01*
X22162500Y-10293750D02*
X22162500Y-10593750D01*
X22012500Y-10443750D02*
X22312500Y-10443750D01*
X22287500Y-4833750D02*
X22287500Y-5133750D01*
X22137500Y-4983750D02*
X22437500Y-4983750D01*
X22287500Y-6738750D02*
X22287500Y-7038750D01*
X22137500Y-6888750D02*
X22437500Y-6888750D01*
X22287500Y-8643750D02*
X22287500Y-8943750D01*
X22137500Y-8793750D02*
X22437500Y-8793750D01*
X22287500Y-10548750D02*
X22287500Y-10848750D01*
X22137500Y-10698750D02*
X22437500Y-10698750D01*
D15*
X9183391Y-13425191D02*
X9183391Y-13143209D01*
X8901409Y-13143209D01*
X8901409Y-13425191D01*
X9183391Y-13425191D01*
X12015491Y-12523491D02*
X12015491Y-12241509D01*
X11733509Y-12241509D01*
X11733509Y-12523491D01*
X12015491Y-12523491D01*
X12523491Y-4427241D02*
X12523491Y-4145259D01*
X12241509Y-4145259D01*
X12241509Y-4427241D01*
X12523491Y-4427241D01*
X12523491Y-6332241D02*
X12523491Y-6050259D01*
X12241509Y-6050259D01*
X12241509Y-6332241D01*
X12523491Y-6332241D01*
X12523491Y-8237241D02*
X12523491Y-7955259D01*
X12241509Y-7955259D01*
X12241509Y-8237241D01*
X12523491Y-8237241D01*
X12523491Y-10142241D02*
X12523491Y-9860259D01*
X12241509Y-9860259D01*
X12241509Y-10142241D01*
X12523491Y-10142241D01*
X14428491Y-3950991D02*
X14428491Y-3669009D01*
X14146509Y-3669009D01*
X14146509Y-3950991D01*
X14428491Y-3950991D01*
X14428491Y-5855991D02*
X14428491Y-5574009D01*
X14146509Y-5574009D01*
X14146509Y-5855991D01*
X14428491Y-5855991D01*
X14428491Y-7760991D02*
X14428491Y-7479009D01*
X14146509Y-7479009D01*
X14146509Y-7760991D01*
X14428491Y-7760991D01*
X14428491Y-9665991D02*
X14428491Y-9384009D01*
X14146509Y-9384009D01*
X14146509Y-9665991D01*
X14428491Y-9665991D01*
X14428491Y-11570991D02*
X14428491Y-11289009D01*
X14146509Y-11289009D01*
X14146509Y-11570991D01*
X14428491Y-11570991D01*
X16333491Y-3474741D02*
X16333491Y-3192759D01*
X16051509Y-3192759D01*
X16051509Y-3474741D01*
X16333491Y-3474741D01*
X16333491Y-5379741D02*
X16333491Y-5097759D01*
X16051509Y-5097759D01*
X16051509Y-5379741D01*
X16333491Y-5379741D01*
X16333491Y-7284741D02*
X16333491Y-7002759D01*
X16051509Y-7002759D01*
X16051509Y-7284741D01*
X16333491Y-7284741D01*
X16333491Y-9189741D02*
X16333491Y-8907759D01*
X16051509Y-8907759D01*
X16051509Y-9189741D01*
X16333491Y-9189741D01*
X16333491Y-11094741D02*
X16333491Y-10812759D01*
X16051509Y-10812759D01*
X16051509Y-11094741D01*
X16333491Y-11094741D01*
X18238491Y-3950991D02*
X18238491Y-3669009D01*
X17956509Y-3669009D01*
X17956509Y-3950991D01*
X18238491Y-3950991D01*
X18238491Y-5855991D02*
X18238491Y-5574009D01*
X17956509Y-5574009D01*
X17956509Y-5855991D01*
X18238491Y-5855991D01*
X18238491Y-7760991D02*
X18238491Y-7479009D01*
X17956509Y-7479009D01*
X17956509Y-7760991D01*
X18238491Y-7760991D01*
X18238491Y-9665991D02*
X18238491Y-9384009D01*
X17956509Y-9384009D01*
X17956509Y-9665991D01*
X18238491Y-9665991D01*
X18238491Y-11570991D02*
X18238491Y-11289009D01*
X17956509Y-11289009D01*
X17956509Y-11570991D01*
X18238491Y-11570991D01*
X20143491Y-5379741D02*
X20143491Y-5097759D01*
X19861509Y-5097759D01*
X19861509Y-5379741D01*
X20143491Y-5379741D01*
X20143491Y-7284741D02*
X20143491Y-7002759D01*
X19861509Y-7002759D01*
X19861509Y-7284741D01*
X20143491Y-7284741D01*
X20143491Y-9189741D02*
X20143491Y-8907759D01*
X19861509Y-8907759D01*
X19861509Y-9189741D01*
X20143491Y-9189741D01*
X20143491Y-11094741D02*
X20143491Y-10812759D01*
X19861509Y-10812759D01*
X19861509Y-11094741D01*
X20143491Y-11094741D01*
X22048491Y-5379741D02*
X22048491Y-5097759D01*
X21766509Y-5097759D01*
X21766509Y-5379741D01*
X22048491Y-5379741D01*
X22048491Y-7284741D02*
X22048491Y-7002759D01*
X21766509Y-7002759D01*
X21766509Y-7284741D01*
X22048491Y-7284741D01*
X22048491Y-9189741D02*
X22048491Y-8907759D01*
X21766509Y-8907759D01*
X21766509Y-9189741D01*
X22048491Y-9189741D01*
X22048491Y-11094741D02*
X22048491Y-10812759D01*
X21766509Y-10812759D01*
X21766509Y-11094741D01*
X22048491Y-11094741D01*
D11*
X7827477Y-15223784D02*
X7827477Y-15023784D01*
X7827477Y-15023784D02*
X7875096Y-15023784D01*
X7875096Y-15023784D02*
X7903667Y-15033308D01*
X7903667Y-15033308D02*
X7922715Y-15052355D01*
X7922715Y-15052355D02*
X7932239Y-15071403D01*
X7932239Y-15071403D02*
X7941762Y-15109498D01*
X7941762Y-15109498D02*
X7941762Y-15138069D01*
X7941762Y-15138069D02*
X7932239Y-15176165D01*
X7932239Y-15176165D02*
X7922715Y-15195212D01*
X7922715Y-15195212D02*
X7903667Y-15214260D01*
X7903667Y-15214260D02*
X7875096Y-15223784D01*
X7875096Y-15223784D02*
X7827477Y-15223784D01*
X8027477Y-15223784D02*
X8027477Y-15090450D01*
X8027477Y-15128546D02*
X8037001Y-15109498D01*
X8037001Y-15109498D02*
X8046524Y-15099974D01*
X8046524Y-15099974D02*
X8065572Y-15090450D01*
X8065572Y-15090450D02*
X8084620Y-15090450D01*
X8151286Y-15223784D02*
X8151286Y-15090450D01*
X8151286Y-15023784D02*
X8141762Y-15033308D01*
X8141762Y-15033308D02*
X8151286Y-15042831D01*
X8151286Y-15042831D02*
X8160810Y-15033308D01*
X8160810Y-15033308D02*
X8151286Y-15023784D01*
X8151286Y-15023784D02*
X8151286Y-15042831D01*
X8275096Y-15223784D02*
X8256048Y-15214260D01*
X8256048Y-15214260D02*
X8246524Y-15195212D01*
X8246524Y-15195212D02*
X8246524Y-15023784D01*
X8379858Y-15223784D02*
X8360810Y-15214260D01*
X8360810Y-15214260D02*
X8351286Y-15195212D01*
X8351286Y-15195212D02*
X8351286Y-15023784D01*
X8608429Y-15223784D02*
X8608429Y-15023784D01*
X8608429Y-15023784D02*
X8675096Y-15166641D01*
X8675096Y-15166641D02*
X8741763Y-15023784D01*
X8741763Y-15023784D02*
X8741763Y-15223784D01*
X8922715Y-15223784D02*
X8922715Y-15119022D01*
X8922715Y-15119022D02*
X8913191Y-15099974D01*
X8913191Y-15099974D02*
X8894144Y-15090450D01*
X8894144Y-15090450D02*
X8856048Y-15090450D01*
X8856048Y-15090450D02*
X8837001Y-15099974D01*
X8922715Y-15214260D02*
X8903667Y-15223784D01*
X8903667Y-15223784D02*
X8856048Y-15223784D01*
X8856048Y-15223784D02*
X8837001Y-15214260D01*
X8837001Y-15214260D02*
X8827477Y-15195212D01*
X8827477Y-15195212D02*
X8827477Y-15176165D01*
X8827477Y-15176165D02*
X8837001Y-15157117D01*
X8837001Y-15157117D02*
X8856048Y-15147593D01*
X8856048Y-15147593D02*
X8903667Y-15147593D01*
X8903667Y-15147593D02*
X8922715Y-15138069D01*
X9017953Y-15090450D02*
X9017953Y-15290450D01*
X9017953Y-15099974D02*
X9037001Y-15090450D01*
X9037001Y-15090450D02*
X9075096Y-15090450D01*
X9075096Y-15090450D02*
X9094144Y-15099974D01*
X9094144Y-15099974D02*
X9103667Y-15109498D01*
X9103667Y-15109498D02*
X9113191Y-15128546D01*
X9113191Y-15128546D02*
X9113191Y-15185688D01*
X9113191Y-15185688D02*
X9103667Y-15204736D01*
X9103667Y-15204736D02*
X9094144Y-15214260D01*
X9094144Y-15214260D02*
X9075096Y-15223784D01*
X9075096Y-15223784D02*
X9037001Y-15223784D01*
X9037001Y-15223784D02*
X9017953Y-15214260D01*
X9198905Y-15204736D02*
X9208429Y-15214260D01*
X9208429Y-15214260D02*
X9198905Y-15223784D01*
X9198905Y-15223784D02*
X9189382Y-15214260D01*
X9189382Y-15214260D02*
X9198905Y-15204736D01*
X9198905Y-15204736D02*
X9198905Y-15223784D01*
X9198905Y-15099974D02*
X9208429Y-15109498D01*
X9208429Y-15109498D02*
X9198905Y-15119022D01*
X9198905Y-15119022D02*
X9189382Y-15109498D01*
X9189382Y-15109498D02*
X9198905Y-15099974D01*
X9198905Y-15099974D02*
X9198905Y-15119022D01*
D12*
X7416700Y-15477300D02*
X7566700Y-15627300D01*
X7566700Y-15477300D02*
X7416700Y-15627300D01*
D11*
X7932239Y-15643784D02*
X7817953Y-15643784D01*
X7875096Y-15643784D02*
X7875096Y-15443784D01*
X7875096Y-15443784D02*
X7856048Y-15472355D01*
X7856048Y-15472355D02*
X7837001Y-15491403D01*
X7837001Y-15491403D02*
X7817953Y-15500927D01*
X8017953Y-15624736D02*
X8027477Y-15634260D01*
X8027477Y-15634260D02*
X8017953Y-15643784D01*
X8017953Y-15643784D02*
X8008429Y-15634260D01*
X8008429Y-15634260D02*
X8017953Y-15624736D01*
X8017953Y-15624736D02*
X8017953Y-15643784D01*
X8208429Y-15443784D02*
X8113191Y-15443784D01*
X8113191Y-15443784D02*
X8103667Y-15539022D01*
X8103667Y-15539022D02*
X8113191Y-15529498D01*
X8113191Y-15529498D02*
X8132239Y-15519974D01*
X8132239Y-15519974D02*
X8179858Y-15519974D01*
X8179858Y-15519974D02*
X8198905Y-15529498D01*
X8198905Y-15529498D02*
X8208429Y-15539022D01*
X8208429Y-15539022D02*
X8217953Y-15558069D01*
X8217953Y-15558069D02*
X8217953Y-15605688D01*
X8217953Y-15605688D02*
X8208429Y-15624736D01*
X8208429Y-15624736D02*
X8198905Y-15634260D01*
X8198905Y-15634260D02*
X8179858Y-15643784D01*
X8179858Y-15643784D02*
X8132239Y-15643784D01*
X8132239Y-15643784D02*
X8113191Y-15634260D01*
X8113191Y-15634260D02*
X8103667Y-15624736D01*
X8341762Y-15443784D02*
X8360810Y-15443784D01*
X8360810Y-15443784D02*
X8379858Y-15453308D01*
X8379858Y-15453308D02*
X8389382Y-15462831D01*
X8389382Y-15462831D02*
X8398905Y-15481879D01*
X8398905Y-15481879D02*
X8408429Y-15519974D01*
X8408429Y-15519974D02*
X8408429Y-15567593D01*
X8408429Y-15567593D02*
X8398905Y-15605688D01*
X8398905Y-15605688D02*
X8389382Y-15624736D01*
X8389382Y-15624736D02*
X8379858Y-15634260D01*
X8379858Y-15634260D02*
X8360810Y-15643784D01*
X8360810Y-15643784D02*
X8341762Y-15643784D01*
X8341762Y-15643784D02*
X8322715Y-15634260D01*
X8322715Y-15634260D02*
X8313191Y-15624736D01*
X8313191Y-15624736D02*
X8303667Y-15605688D01*
X8303667Y-15605688D02*
X8294143Y-15567593D01*
X8294143Y-15567593D02*
X8294143Y-15519974D01*
X8294143Y-15519974D02*
X8303667Y-15481879D01*
X8303667Y-15481879D02*
X8313191Y-15462831D01*
X8313191Y-15462831D02*
X8322715Y-15453308D01*
X8322715Y-15453308D02*
X8341762Y-15443784D01*
X8532239Y-15443784D02*
X8551286Y-15443784D01*
X8551286Y-15443784D02*
X8570334Y-15453308D01*
X8570334Y-15453308D02*
X8579858Y-15462831D01*
X8579858Y-15462831D02*
X8589382Y-15481879D01*
X8589382Y-15481879D02*
X8598905Y-15519974D01*
X8598905Y-15519974D02*
X8598905Y-15567593D01*
X8598905Y-15567593D02*
X8589382Y-15605688D01*
X8589382Y-15605688D02*
X8579858Y-15624736D01*
X8579858Y-15624736D02*
X8570334Y-15634260D01*
X8570334Y-15634260D02*
X8551286Y-15643784D01*
X8551286Y-15643784D02*
X8532239Y-15643784D01*
X8532239Y-15643784D02*
X8513191Y-15634260D01*
X8513191Y-15634260D02*
X8503667Y-15624736D01*
X8503667Y-15624736D02*
X8494144Y-15605688D01*
X8494144Y-15605688D02*
X8484620Y-15567593D01*
X8484620Y-15567593D02*
X8484620Y-15519974D01*
X8484620Y-15519974D02*
X8494144Y-15481879D01*
X8494144Y-15481879D02*
X8503667Y-15462831D01*
X8503667Y-15462831D02*
X8513191Y-15453308D01*
X8513191Y-15453308D02*
X8532239Y-15443784D01*
X8684620Y-15643784D02*
X8684620Y-15510450D01*
X8684620Y-15529498D02*
X8694144Y-15519974D01*
X8694144Y-15519974D02*
X8713191Y-15510450D01*
X8713191Y-15510450D02*
X8741763Y-15510450D01*
X8741763Y-15510450D02*
X8760810Y-15519974D01*
X8760810Y-15519974D02*
X8770334Y-15539022D01*
X8770334Y-15539022D02*
X8770334Y-15643784D01*
X8770334Y-15539022D02*
X8779858Y-15519974D01*
X8779858Y-15519974D02*
X8798905Y-15510450D01*
X8798905Y-15510450D02*
X8827477Y-15510450D01*
X8827477Y-15510450D02*
X8846525Y-15519974D01*
X8846525Y-15519974D02*
X8856048Y-15539022D01*
X8856048Y-15539022D02*
X8856048Y-15643784D01*
X8951286Y-15643784D02*
X8951286Y-15510450D01*
X8951286Y-15529498D02*
X8960810Y-15519974D01*
X8960810Y-15519974D02*
X8979858Y-15510450D01*
X8979858Y-15510450D02*
X9008429Y-15510450D01*
X9008429Y-15510450D02*
X9027477Y-15519974D01*
X9027477Y-15519974D02*
X9037001Y-15539022D01*
X9037001Y-15539022D02*
X9037001Y-15643784D01*
X9037001Y-15539022D02*
X9046525Y-15519974D01*
X9046525Y-15519974D02*
X9065572Y-15510450D01*
X9065572Y-15510450D02*
X9094144Y-15510450D01*
X9094144Y-15510450D02*
X9113191Y-15519974D01*
X9113191Y-15519974D02*
X9122715Y-15539022D01*
X9122715Y-15539022D02*
X9122715Y-15643784D01*
X9513191Y-15434260D02*
X9341763Y-15691403D01*
X9770334Y-15443784D02*
X9789382Y-15443784D01*
X9789382Y-15443784D02*
X9808429Y-15453308D01*
X9808429Y-15453308D02*
X9817953Y-15462831D01*
X9817953Y-15462831D02*
X9827477Y-15481879D01*
X9827477Y-15481879D02*
X9837001Y-15519974D01*
X9837001Y-15519974D02*
X9837001Y-15567593D01*
X9837001Y-15567593D02*
X9827477Y-15605688D01*
X9827477Y-15605688D02*
X9817953Y-15624736D01*
X9817953Y-15624736D02*
X9808429Y-15634260D01*
X9808429Y-15634260D02*
X9789382Y-15643784D01*
X9789382Y-15643784D02*
X9770334Y-15643784D01*
X9770334Y-15643784D02*
X9751287Y-15634260D01*
X9751287Y-15634260D02*
X9741763Y-15624736D01*
X9741763Y-15624736D02*
X9732239Y-15605688D01*
X9732239Y-15605688D02*
X9722715Y-15567593D01*
X9722715Y-15567593D02*
X9722715Y-15519974D01*
X9722715Y-15519974D02*
X9732239Y-15481879D01*
X9732239Y-15481879D02*
X9741763Y-15462831D01*
X9741763Y-15462831D02*
X9751287Y-15453308D01*
X9751287Y-15453308D02*
X9770334Y-15443784D01*
X9922715Y-15624736D02*
X9932239Y-15634260D01*
X9932239Y-15634260D02*
X9922715Y-15643784D01*
X9922715Y-15643784D02*
X9913191Y-15634260D01*
X9913191Y-15634260D02*
X9922715Y-15624736D01*
X9922715Y-15624736D02*
X9922715Y-15643784D01*
X10056048Y-15443784D02*
X10075096Y-15443784D01*
X10075096Y-15443784D02*
X10094144Y-15453308D01*
X10094144Y-15453308D02*
X10103668Y-15462831D01*
X10103668Y-15462831D02*
X10113191Y-15481879D01*
X10113191Y-15481879D02*
X10122715Y-15519974D01*
X10122715Y-15519974D02*
X10122715Y-15567593D01*
X10122715Y-15567593D02*
X10113191Y-15605688D01*
X10113191Y-15605688D02*
X10103668Y-15624736D01*
X10103668Y-15624736D02*
X10094144Y-15634260D01*
X10094144Y-15634260D02*
X10075096Y-15643784D01*
X10075096Y-15643784D02*
X10056048Y-15643784D01*
X10056048Y-15643784D02*
X10037001Y-15634260D01*
X10037001Y-15634260D02*
X10027477Y-15624736D01*
X10027477Y-15624736D02*
X10017953Y-15605688D01*
X10017953Y-15605688D02*
X10008429Y-15567593D01*
X10008429Y-15567593D02*
X10008429Y-15519974D01*
X10008429Y-15519974D02*
X10017953Y-15481879D01*
X10017953Y-15481879D02*
X10027477Y-15462831D01*
X10027477Y-15462831D02*
X10037001Y-15453308D01*
X10037001Y-15453308D02*
X10056048Y-15443784D01*
X10303668Y-15443784D02*
X10208429Y-15443784D01*
X10208429Y-15443784D02*
X10198906Y-15539022D01*
X10198906Y-15539022D02*
X10208429Y-15529498D01*
X10208429Y-15529498D02*
X10227477Y-15519974D01*
X10227477Y-15519974D02*
X10275096Y-15519974D01*
X10275096Y-15519974D02*
X10294144Y-15529498D01*
X10294144Y-15529498D02*
X10303668Y-15539022D01*
X10303668Y-15539022D02*
X10313191Y-15558069D01*
X10313191Y-15558069D02*
X10313191Y-15605688D01*
X10313191Y-15605688D02*
X10303668Y-15624736D01*
X10303668Y-15624736D02*
X10294144Y-15634260D01*
X10294144Y-15634260D02*
X10275096Y-15643784D01*
X10275096Y-15643784D02*
X10227477Y-15643784D01*
X10227477Y-15643784D02*
X10208429Y-15634260D01*
X10208429Y-15634260D02*
X10198906Y-15624736D01*
X10408429Y-15643784D02*
X10446525Y-15643784D01*
X10446525Y-15643784D02*
X10465572Y-15634260D01*
X10465572Y-15634260D02*
X10475096Y-15624736D01*
X10475096Y-15624736D02*
X10494144Y-15596165D01*
X10494144Y-15596165D02*
X10503668Y-15558069D01*
X10503668Y-15558069D02*
X10503668Y-15481879D01*
X10503668Y-15481879D02*
X10494144Y-15462831D01*
X10494144Y-15462831D02*
X10484620Y-15453308D01*
X10484620Y-15453308D02*
X10465572Y-15443784D01*
X10465572Y-15443784D02*
X10427477Y-15443784D01*
X10427477Y-15443784D02*
X10408429Y-15453308D01*
X10408429Y-15453308D02*
X10398906Y-15462831D01*
X10398906Y-15462831D02*
X10389382Y-15481879D01*
X10389382Y-15481879D02*
X10389382Y-15529498D01*
X10389382Y-15529498D02*
X10398906Y-15548546D01*
X10398906Y-15548546D02*
X10408429Y-15558069D01*
X10408429Y-15558069D02*
X10427477Y-15567593D01*
X10427477Y-15567593D02*
X10465572Y-15567593D01*
X10465572Y-15567593D02*
X10484620Y-15558069D01*
X10484620Y-15558069D02*
X10494144Y-15548546D01*
X10494144Y-15548546D02*
X10503668Y-15529498D01*
X10694144Y-15643784D02*
X10579858Y-15643784D01*
X10637001Y-15643784D02*
X10637001Y-15443784D01*
X10637001Y-15443784D02*
X10617953Y-15472355D01*
X10617953Y-15472355D02*
X10598906Y-15491403D01*
X10598906Y-15491403D02*
X10579858Y-15500927D01*
X10770334Y-15443784D02*
X10770334Y-15481879D01*
X10846525Y-15443784D02*
X10846525Y-15481879D01*
X11141763Y-15719974D02*
X11132239Y-15710450D01*
X11132239Y-15710450D02*
X11113191Y-15681879D01*
X11113191Y-15681879D02*
X11103668Y-15662831D01*
X11103668Y-15662831D02*
X11094144Y-15634260D01*
X11094144Y-15634260D02*
X11084620Y-15586641D01*
X11084620Y-15586641D02*
X11084620Y-15548546D01*
X11084620Y-15548546D02*
X11094144Y-15500927D01*
X11094144Y-15500927D02*
X11103668Y-15472355D01*
X11103668Y-15472355D02*
X11113191Y-15453308D01*
X11113191Y-15453308D02*
X11132239Y-15424736D01*
X11132239Y-15424736D02*
X11141763Y-15415212D01*
X11208429Y-15462831D02*
X11217953Y-15453308D01*
X11217953Y-15453308D02*
X11237001Y-15443784D01*
X11237001Y-15443784D02*
X11284620Y-15443784D01*
X11284620Y-15443784D02*
X11303668Y-15453308D01*
X11303668Y-15453308D02*
X11313191Y-15462831D01*
X11313191Y-15462831D02*
X11322715Y-15481879D01*
X11322715Y-15481879D02*
X11322715Y-15500927D01*
X11322715Y-15500927D02*
X11313191Y-15529498D01*
X11313191Y-15529498D02*
X11198906Y-15643784D01*
X11198906Y-15643784D02*
X11322715Y-15643784D01*
X11560810Y-15643784D02*
X11560810Y-15443784D01*
X11646525Y-15643784D02*
X11646525Y-15539022D01*
X11646525Y-15539022D02*
X11637001Y-15519974D01*
X11637001Y-15519974D02*
X11617953Y-15510450D01*
X11617953Y-15510450D02*
X11589382Y-15510450D01*
X11589382Y-15510450D02*
X11570334Y-15519974D01*
X11570334Y-15519974D02*
X11560810Y-15529498D01*
X11770334Y-15643784D02*
X11751287Y-15634260D01*
X11751287Y-15634260D02*
X11741763Y-15624736D01*
X11741763Y-15624736D02*
X11732239Y-15605688D01*
X11732239Y-15605688D02*
X11732239Y-15548546D01*
X11732239Y-15548546D02*
X11741763Y-15529498D01*
X11741763Y-15529498D02*
X11751287Y-15519974D01*
X11751287Y-15519974D02*
X11770334Y-15510450D01*
X11770334Y-15510450D02*
X11798906Y-15510450D01*
X11798906Y-15510450D02*
X11817953Y-15519974D01*
X11817953Y-15519974D02*
X11827477Y-15529498D01*
X11827477Y-15529498D02*
X11837001Y-15548546D01*
X11837001Y-15548546D02*
X11837001Y-15605688D01*
X11837001Y-15605688D02*
X11827477Y-15624736D01*
X11827477Y-15624736D02*
X11817953Y-15634260D01*
X11817953Y-15634260D02*
X11798906Y-15643784D01*
X11798906Y-15643784D02*
X11770334Y-15643784D01*
X11951287Y-15643784D02*
X11932239Y-15634260D01*
X11932239Y-15634260D02*
X11922715Y-15615212D01*
X11922715Y-15615212D02*
X11922715Y-15443784D01*
X12103668Y-15634260D02*
X12084620Y-15643784D01*
X12084620Y-15643784D02*
X12046525Y-15643784D01*
X12046525Y-15643784D02*
X12027477Y-15634260D01*
X12027477Y-15634260D02*
X12017953Y-15615212D01*
X12017953Y-15615212D02*
X12017953Y-15539022D01*
X12017953Y-15539022D02*
X12027477Y-15519974D01*
X12027477Y-15519974D02*
X12046525Y-15510450D01*
X12046525Y-15510450D02*
X12084620Y-15510450D01*
X12084620Y-15510450D02*
X12103668Y-15519974D01*
X12103668Y-15519974D02*
X12113191Y-15539022D01*
X12113191Y-15539022D02*
X12113191Y-15558069D01*
X12113191Y-15558069D02*
X12017953Y-15577117D01*
X12189382Y-15634260D02*
X12208430Y-15643784D01*
X12208430Y-15643784D02*
X12246525Y-15643784D01*
X12246525Y-15643784D02*
X12265572Y-15634260D01*
X12265572Y-15634260D02*
X12275096Y-15615212D01*
X12275096Y-15615212D02*
X12275096Y-15605688D01*
X12275096Y-15605688D02*
X12265572Y-15586641D01*
X12265572Y-15586641D02*
X12246525Y-15577117D01*
X12246525Y-15577117D02*
X12217953Y-15577117D01*
X12217953Y-15577117D02*
X12198906Y-15567593D01*
X12198906Y-15567593D02*
X12189382Y-15548546D01*
X12189382Y-15548546D02*
X12189382Y-15539022D01*
X12189382Y-15539022D02*
X12198906Y-15519974D01*
X12198906Y-15519974D02*
X12217953Y-15510450D01*
X12217953Y-15510450D02*
X12246525Y-15510450D01*
X12246525Y-15510450D02*
X12265572Y-15519974D01*
X12341763Y-15719974D02*
X12351287Y-15710450D01*
X12351287Y-15710450D02*
X12370334Y-15681879D01*
X12370334Y-15681879D02*
X12379858Y-15662831D01*
X12379858Y-15662831D02*
X12389382Y-15634260D01*
X12389382Y-15634260D02*
X12398906Y-15586641D01*
X12398906Y-15586641D02*
X12398906Y-15548546D01*
X12398906Y-15548546D02*
X12389382Y-15500927D01*
X12389382Y-15500927D02*
X12379858Y-15472355D01*
X12379858Y-15472355D02*
X12370334Y-15453308D01*
X12370334Y-15453308D02*
X12351287Y-15424736D01*
X12351287Y-15424736D02*
X12341763Y-15415212D01*
X12703668Y-15719974D02*
X12694144Y-15710450D01*
X12694144Y-15710450D02*
X12675096Y-15681879D01*
X12675096Y-15681879D02*
X12665572Y-15662831D01*
X12665572Y-15662831D02*
X12656049Y-15634260D01*
X12656049Y-15634260D02*
X12646525Y-15586641D01*
X12646525Y-15586641D02*
X12646525Y-15548546D01*
X12646525Y-15548546D02*
X12656049Y-15500927D01*
X12656049Y-15500927D02*
X12665572Y-15472355D01*
X12665572Y-15472355D02*
X12675096Y-15453308D01*
X12675096Y-15453308D02*
X12694144Y-15424736D01*
X12694144Y-15424736D02*
X12703668Y-15415212D01*
X12779858Y-15510450D02*
X12779858Y-15643784D01*
X12779858Y-15529498D02*
X12789382Y-15519974D01*
X12789382Y-15519974D02*
X12808430Y-15510450D01*
X12808430Y-15510450D02*
X12837001Y-15510450D01*
X12837001Y-15510450D02*
X12856049Y-15519974D01*
X12856049Y-15519974D02*
X12865572Y-15539022D01*
X12865572Y-15539022D02*
X12865572Y-15643784D01*
X12989382Y-15643784D02*
X12970334Y-15634260D01*
X12970334Y-15634260D02*
X12960811Y-15624736D01*
X12960811Y-15624736D02*
X12951287Y-15605688D01*
X12951287Y-15605688D02*
X12951287Y-15548546D01*
X12951287Y-15548546D02*
X12960811Y-15529498D01*
X12960811Y-15529498D02*
X12970334Y-15519974D01*
X12970334Y-15519974D02*
X12989382Y-15510450D01*
X12989382Y-15510450D02*
X13017953Y-15510450D01*
X13017953Y-15510450D02*
X13037001Y-15519974D01*
X13037001Y-15519974D02*
X13046525Y-15529498D01*
X13046525Y-15529498D02*
X13056049Y-15548546D01*
X13056049Y-15548546D02*
X13056049Y-15605688D01*
X13056049Y-15605688D02*
X13046525Y-15624736D01*
X13046525Y-15624736D02*
X13037001Y-15634260D01*
X13037001Y-15634260D02*
X13017953Y-15643784D01*
X13017953Y-15643784D02*
X12989382Y-15643784D01*
X13113192Y-15510450D02*
X13189382Y-15510450D01*
X13141763Y-15443784D02*
X13141763Y-15615212D01*
X13141763Y-15615212D02*
X13151287Y-15634260D01*
X13151287Y-15634260D02*
X13170334Y-15643784D01*
X13170334Y-15643784D02*
X13189382Y-15643784D01*
X13408430Y-15510450D02*
X13408430Y-15710450D01*
X13408430Y-15519974D02*
X13427477Y-15510450D01*
X13427477Y-15510450D02*
X13465573Y-15510450D01*
X13465573Y-15510450D02*
X13484620Y-15519974D01*
X13484620Y-15519974D02*
X13494144Y-15529498D01*
X13494144Y-15529498D02*
X13503668Y-15548546D01*
X13503668Y-15548546D02*
X13503668Y-15605688D01*
X13503668Y-15605688D02*
X13494144Y-15624736D01*
X13494144Y-15624736D02*
X13484620Y-15634260D01*
X13484620Y-15634260D02*
X13465573Y-15643784D01*
X13465573Y-15643784D02*
X13427477Y-15643784D01*
X13427477Y-15643784D02*
X13408430Y-15634260D01*
X13617953Y-15643784D02*
X13598906Y-15634260D01*
X13598906Y-15634260D02*
X13589382Y-15615212D01*
X13589382Y-15615212D02*
X13589382Y-15443784D01*
X13779858Y-15643784D02*
X13779858Y-15539022D01*
X13779858Y-15539022D02*
X13770334Y-15519974D01*
X13770334Y-15519974D02*
X13751287Y-15510450D01*
X13751287Y-15510450D02*
X13713192Y-15510450D01*
X13713192Y-15510450D02*
X13694144Y-15519974D01*
X13779858Y-15634260D02*
X13760811Y-15643784D01*
X13760811Y-15643784D02*
X13713192Y-15643784D01*
X13713192Y-15643784D02*
X13694144Y-15634260D01*
X13694144Y-15634260D02*
X13684620Y-15615212D01*
X13684620Y-15615212D02*
X13684620Y-15596165D01*
X13684620Y-15596165D02*
X13694144Y-15577117D01*
X13694144Y-15577117D02*
X13713192Y-15567593D01*
X13713192Y-15567593D02*
X13760811Y-15567593D01*
X13760811Y-15567593D02*
X13779858Y-15558069D01*
X13846525Y-15510450D02*
X13922715Y-15510450D01*
X13875096Y-15443784D02*
X13875096Y-15615212D01*
X13875096Y-15615212D02*
X13884620Y-15634260D01*
X13884620Y-15634260D02*
X13903668Y-15643784D01*
X13903668Y-15643784D02*
X13922715Y-15643784D01*
X14065573Y-15634260D02*
X14046525Y-15643784D01*
X14046525Y-15643784D02*
X14008430Y-15643784D01*
X14008430Y-15643784D02*
X13989382Y-15634260D01*
X13989382Y-15634260D02*
X13979858Y-15615212D01*
X13979858Y-15615212D02*
X13979858Y-15539022D01*
X13979858Y-15539022D02*
X13989382Y-15519974D01*
X13989382Y-15519974D02*
X14008430Y-15510450D01*
X14008430Y-15510450D02*
X14046525Y-15510450D01*
X14046525Y-15510450D02*
X14065573Y-15519974D01*
X14065573Y-15519974D02*
X14075096Y-15539022D01*
X14075096Y-15539022D02*
X14075096Y-15558069D01*
X14075096Y-15558069D02*
X13979858Y-15577117D01*
X14246525Y-15643784D02*
X14246525Y-15443784D01*
X14246525Y-15634260D02*
X14227477Y-15643784D01*
X14227477Y-15643784D02*
X14189382Y-15643784D01*
X14189382Y-15643784D02*
X14170334Y-15634260D01*
X14170334Y-15634260D02*
X14160811Y-15624736D01*
X14160811Y-15624736D02*
X14151287Y-15605688D01*
X14151287Y-15605688D02*
X14151287Y-15548546D01*
X14151287Y-15548546D02*
X14160811Y-15529498D01*
X14160811Y-15529498D02*
X14170334Y-15519974D01*
X14170334Y-15519974D02*
X14189382Y-15510450D01*
X14189382Y-15510450D02*
X14227477Y-15510450D01*
X14227477Y-15510450D02*
X14246525Y-15519974D01*
X14322715Y-15719974D02*
X14332239Y-15710450D01*
X14332239Y-15710450D02*
X14351287Y-15681879D01*
X14351287Y-15681879D02*
X14360811Y-15662831D01*
X14360811Y-15662831D02*
X14370334Y-15634260D01*
X14370334Y-15634260D02*
X14379858Y-15586641D01*
X14379858Y-15586641D02*
X14379858Y-15548546D01*
X14379858Y-15548546D02*
X14370334Y-15500927D01*
X14370334Y-15500927D02*
X14360811Y-15472355D01*
X14360811Y-15472355D02*
X14351287Y-15453308D01*
X14351287Y-15453308D02*
X14332239Y-15424736D01*
X14332239Y-15424736D02*
X14322715Y-15415212D01*
D13*
X7566700Y-15822300D02*
G75*
G03*
X7566700Y-15822300I-87500J0D01*
G01*
D11*
X7932239Y-15913784D02*
X7817953Y-15913784D01*
X7875096Y-15913784D02*
X7875096Y-15713784D01*
X7875096Y-15713784D02*
X7856048Y-15742355D01*
X7856048Y-15742355D02*
X7837001Y-15761403D01*
X7837001Y-15761403D02*
X7817953Y-15770927D01*
X8017953Y-15894736D02*
X8027477Y-15904260D01*
X8027477Y-15904260D02*
X8017953Y-15913784D01*
X8017953Y-15913784D02*
X8008429Y-15904260D01*
X8008429Y-15904260D02*
X8017953Y-15894736D01*
X8017953Y-15894736D02*
X8017953Y-15913784D01*
X8094143Y-15713784D02*
X8227477Y-15713784D01*
X8227477Y-15713784D02*
X8141762Y-15913784D01*
X8398905Y-15713784D02*
X8303667Y-15713784D01*
X8303667Y-15713784D02*
X8294143Y-15809022D01*
X8294143Y-15809022D02*
X8303667Y-15799498D01*
X8303667Y-15799498D02*
X8322715Y-15789974D01*
X8322715Y-15789974D02*
X8370334Y-15789974D01*
X8370334Y-15789974D02*
X8389382Y-15799498D01*
X8389382Y-15799498D02*
X8398905Y-15809022D01*
X8398905Y-15809022D02*
X8408429Y-15828069D01*
X8408429Y-15828069D02*
X8408429Y-15875688D01*
X8408429Y-15875688D02*
X8398905Y-15894736D01*
X8398905Y-15894736D02*
X8389382Y-15904260D01*
X8389382Y-15904260D02*
X8370334Y-15913784D01*
X8370334Y-15913784D02*
X8322715Y-15913784D01*
X8322715Y-15913784D02*
X8303667Y-15904260D01*
X8303667Y-15904260D02*
X8294143Y-15894736D01*
X8532239Y-15713784D02*
X8551286Y-15713784D01*
X8551286Y-15713784D02*
X8570334Y-15723308D01*
X8570334Y-15723308D02*
X8579858Y-15732831D01*
X8579858Y-15732831D02*
X8589382Y-15751879D01*
X8589382Y-15751879D02*
X8598905Y-15789974D01*
X8598905Y-15789974D02*
X8598905Y-15837593D01*
X8598905Y-15837593D02*
X8589382Y-15875688D01*
X8589382Y-15875688D02*
X8579858Y-15894736D01*
X8579858Y-15894736D02*
X8570334Y-15904260D01*
X8570334Y-15904260D02*
X8551286Y-15913784D01*
X8551286Y-15913784D02*
X8532239Y-15913784D01*
X8532239Y-15913784D02*
X8513191Y-15904260D01*
X8513191Y-15904260D02*
X8503667Y-15894736D01*
X8503667Y-15894736D02*
X8494144Y-15875688D01*
X8494144Y-15875688D02*
X8484620Y-15837593D01*
X8484620Y-15837593D02*
X8484620Y-15789974D01*
X8484620Y-15789974D02*
X8494144Y-15751879D01*
X8494144Y-15751879D02*
X8503667Y-15732831D01*
X8503667Y-15732831D02*
X8513191Y-15723308D01*
X8513191Y-15723308D02*
X8532239Y-15713784D01*
X8684620Y-15913784D02*
X8684620Y-15780450D01*
X8684620Y-15799498D02*
X8694144Y-15789974D01*
X8694144Y-15789974D02*
X8713191Y-15780450D01*
X8713191Y-15780450D02*
X8741763Y-15780450D01*
X8741763Y-15780450D02*
X8760810Y-15789974D01*
X8760810Y-15789974D02*
X8770334Y-15809022D01*
X8770334Y-15809022D02*
X8770334Y-15913784D01*
X8770334Y-15809022D02*
X8779858Y-15789974D01*
X8779858Y-15789974D02*
X8798905Y-15780450D01*
X8798905Y-15780450D02*
X8827477Y-15780450D01*
X8827477Y-15780450D02*
X8846525Y-15789974D01*
X8846525Y-15789974D02*
X8856048Y-15809022D01*
X8856048Y-15809022D02*
X8856048Y-15913784D01*
X8951286Y-15913784D02*
X8951286Y-15780450D01*
X8951286Y-15799498D02*
X8960810Y-15789974D01*
X8960810Y-15789974D02*
X8979858Y-15780450D01*
X8979858Y-15780450D02*
X9008429Y-15780450D01*
X9008429Y-15780450D02*
X9027477Y-15789974D01*
X9027477Y-15789974D02*
X9037001Y-15809022D01*
X9037001Y-15809022D02*
X9037001Y-15913784D01*
X9037001Y-15809022D02*
X9046525Y-15789974D01*
X9046525Y-15789974D02*
X9065572Y-15780450D01*
X9065572Y-15780450D02*
X9094144Y-15780450D01*
X9094144Y-15780450D02*
X9113191Y-15789974D01*
X9113191Y-15789974D02*
X9122715Y-15809022D01*
X9122715Y-15809022D02*
X9122715Y-15913784D01*
X9513191Y-15704260D02*
X9341763Y-15961403D01*
X9770334Y-15713784D02*
X9789382Y-15713784D01*
X9789382Y-15713784D02*
X9808429Y-15723308D01*
X9808429Y-15723308D02*
X9817953Y-15732831D01*
X9817953Y-15732831D02*
X9827477Y-15751879D01*
X9827477Y-15751879D02*
X9837001Y-15789974D01*
X9837001Y-15789974D02*
X9837001Y-15837593D01*
X9837001Y-15837593D02*
X9827477Y-15875688D01*
X9827477Y-15875688D02*
X9817953Y-15894736D01*
X9817953Y-15894736D02*
X9808429Y-15904260D01*
X9808429Y-15904260D02*
X9789382Y-15913784D01*
X9789382Y-15913784D02*
X9770334Y-15913784D01*
X9770334Y-15913784D02*
X9751287Y-15904260D01*
X9751287Y-15904260D02*
X9741763Y-15894736D01*
X9741763Y-15894736D02*
X9732239Y-15875688D01*
X9732239Y-15875688D02*
X9722715Y-15837593D01*
X9722715Y-15837593D02*
X9722715Y-15789974D01*
X9722715Y-15789974D02*
X9732239Y-15751879D01*
X9732239Y-15751879D02*
X9741763Y-15732831D01*
X9741763Y-15732831D02*
X9751287Y-15723308D01*
X9751287Y-15723308D02*
X9770334Y-15713784D01*
X9922715Y-15894736D02*
X9932239Y-15904260D01*
X9932239Y-15904260D02*
X9922715Y-15913784D01*
X9922715Y-15913784D02*
X9913191Y-15904260D01*
X9913191Y-15904260D02*
X9922715Y-15894736D01*
X9922715Y-15894736D02*
X9922715Y-15913784D01*
X10056048Y-15713784D02*
X10075096Y-15713784D01*
X10075096Y-15713784D02*
X10094144Y-15723308D01*
X10094144Y-15723308D02*
X10103668Y-15732831D01*
X10103668Y-15732831D02*
X10113191Y-15751879D01*
X10113191Y-15751879D02*
X10122715Y-15789974D01*
X10122715Y-15789974D02*
X10122715Y-15837593D01*
X10122715Y-15837593D02*
X10113191Y-15875688D01*
X10113191Y-15875688D02*
X10103668Y-15894736D01*
X10103668Y-15894736D02*
X10094144Y-15904260D01*
X10094144Y-15904260D02*
X10075096Y-15913784D01*
X10075096Y-15913784D02*
X10056048Y-15913784D01*
X10056048Y-15913784D02*
X10037001Y-15904260D01*
X10037001Y-15904260D02*
X10027477Y-15894736D01*
X10027477Y-15894736D02*
X10017953Y-15875688D01*
X10017953Y-15875688D02*
X10008429Y-15837593D01*
X10008429Y-15837593D02*
X10008429Y-15789974D01*
X10008429Y-15789974D02*
X10017953Y-15751879D01*
X10017953Y-15751879D02*
X10027477Y-15732831D01*
X10027477Y-15732831D02*
X10037001Y-15723308D01*
X10037001Y-15723308D02*
X10056048Y-15713784D01*
X10294144Y-15713784D02*
X10256048Y-15713784D01*
X10256048Y-15713784D02*
X10237001Y-15723308D01*
X10237001Y-15723308D02*
X10227477Y-15732831D01*
X10227477Y-15732831D02*
X10208429Y-15761403D01*
X10208429Y-15761403D02*
X10198906Y-15799498D01*
X10198906Y-15799498D02*
X10198906Y-15875688D01*
X10198906Y-15875688D02*
X10208429Y-15894736D01*
X10208429Y-15894736D02*
X10217953Y-15904260D01*
X10217953Y-15904260D02*
X10237001Y-15913784D01*
X10237001Y-15913784D02*
X10275096Y-15913784D01*
X10275096Y-15913784D02*
X10294144Y-15904260D01*
X10294144Y-15904260D02*
X10303668Y-15894736D01*
X10303668Y-15894736D02*
X10313191Y-15875688D01*
X10313191Y-15875688D02*
X10313191Y-15828069D01*
X10313191Y-15828069D02*
X10303668Y-15809022D01*
X10303668Y-15809022D02*
X10294144Y-15799498D01*
X10294144Y-15799498D02*
X10275096Y-15789974D01*
X10275096Y-15789974D02*
X10237001Y-15789974D01*
X10237001Y-15789974D02*
X10217953Y-15799498D01*
X10217953Y-15799498D02*
X10208429Y-15809022D01*
X10208429Y-15809022D02*
X10198906Y-15828069D01*
X10427477Y-15799498D02*
X10408429Y-15789974D01*
X10408429Y-15789974D02*
X10398906Y-15780450D01*
X10398906Y-15780450D02*
X10389382Y-15761403D01*
X10389382Y-15761403D02*
X10389382Y-15751879D01*
X10389382Y-15751879D02*
X10398906Y-15732831D01*
X10398906Y-15732831D02*
X10408429Y-15723308D01*
X10408429Y-15723308D02*
X10427477Y-15713784D01*
X10427477Y-15713784D02*
X10465572Y-15713784D01*
X10465572Y-15713784D02*
X10484620Y-15723308D01*
X10484620Y-15723308D02*
X10494144Y-15732831D01*
X10494144Y-15732831D02*
X10503668Y-15751879D01*
X10503668Y-15751879D02*
X10503668Y-15761403D01*
X10503668Y-15761403D02*
X10494144Y-15780450D01*
X10494144Y-15780450D02*
X10484620Y-15789974D01*
X10484620Y-15789974D02*
X10465572Y-15799498D01*
X10465572Y-15799498D02*
X10427477Y-15799498D01*
X10427477Y-15799498D02*
X10408429Y-15809022D01*
X10408429Y-15809022D02*
X10398906Y-15818546D01*
X10398906Y-15818546D02*
X10389382Y-15837593D01*
X10389382Y-15837593D02*
X10389382Y-15875688D01*
X10389382Y-15875688D02*
X10398906Y-15894736D01*
X10398906Y-15894736D02*
X10408429Y-15904260D01*
X10408429Y-15904260D02*
X10427477Y-15913784D01*
X10427477Y-15913784D02*
X10465572Y-15913784D01*
X10465572Y-15913784D02*
X10484620Y-15904260D01*
X10484620Y-15904260D02*
X10494144Y-15894736D01*
X10494144Y-15894736D02*
X10503668Y-15875688D01*
X10503668Y-15875688D02*
X10503668Y-15837593D01*
X10503668Y-15837593D02*
X10494144Y-15818546D01*
X10494144Y-15818546D02*
X10484620Y-15809022D01*
X10484620Y-15809022D02*
X10465572Y-15799498D01*
X10598906Y-15913784D02*
X10637001Y-15913784D01*
X10637001Y-15913784D02*
X10656049Y-15904260D01*
X10656049Y-15904260D02*
X10665572Y-15894736D01*
X10665572Y-15894736D02*
X10684620Y-15866165D01*
X10684620Y-15866165D02*
X10694144Y-15828069D01*
X10694144Y-15828069D02*
X10694144Y-15751879D01*
X10694144Y-15751879D02*
X10684620Y-15732831D01*
X10684620Y-15732831D02*
X10675096Y-15723308D01*
X10675096Y-15723308D02*
X10656049Y-15713784D01*
X10656049Y-15713784D02*
X10617953Y-15713784D01*
X10617953Y-15713784D02*
X10598906Y-15723308D01*
X10598906Y-15723308D02*
X10589382Y-15732831D01*
X10589382Y-15732831D02*
X10579858Y-15751879D01*
X10579858Y-15751879D02*
X10579858Y-15799498D01*
X10579858Y-15799498D02*
X10589382Y-15818546D01*
X10589382Y-15818546D02*
X10598906Y-15828069D01*
X10598906Y-15828069D02*
X10617953Y-15837593D01*
X10617953Y-15837593D02*
X10656049Y-15837593D01*
X10656049Y-15837593D02*
X10675096Y-15828069D01*
X10675096Y-15828069D02*
X10684620Y-15818546D01*
X10684620Y-15818546D02*
X10694144Y-15799498D01*
X10770334Y-15713784D02*
X10770334Y-15751879D01*
X10846525Y-15713784D02*
X10846525Y-15751879D01*
X11141763Y-15989974D02*
X11132239Y-15980450D01*
X11132239Y-15980450D02*
X11113191Y-15951879D01*
X11113191Y-15951879D02*
X11103668Y-15932831D01*
X11103668Y-15932831D02*
X11094144Y-15904260D01*
X11094144Y-15904260D02*
X11084620Y-15856641D01*
X11084620Y-15856641D02*
X11084620Y-15818546D01*
X11084620Y-15818546D02*
X11094144Y-15770927D01*
X11094144Y-15770927D02*
X11103668Y-15742355D01*
X11103668Y-15742355D02*
X11113191Y-15723308D01*
X11113191Y-15723308D02*
X11132239Y-15694736D01*
X11132239Y-15694736D02*
X11141763Y-15685212D01*
X11313191Y-15713784D02*
X11217953Y-15713784D01*
X11217953Y-15713784D02*
X11208429Y-15809022D01*
X11208429Y-15809022D02*
X11217953Y-15799498D01*
X11217953Y-15799498D02*
X11237001Y-15789974D01*
X11237001Y-15789974D02*
X11284620Y-15789974D01*
X11284620Y-15789974D02*
X11303668Y-15799498D01*
X11303668Y-15799498D02*
X11313191Y-15809022D01*
X11313191Y-15809022D02*
X11322715Y-15828069D01*
X11322715Y-15828069D02*
X11322715Y-15875688D01*
X11322715Y-15875688D02*
X11313191Y-15894736D01*
X11313191Y-15894736D02*
X11303668Y-15904260D01*
X11303668Y-15904260D02*
X11284620Y-15913784D01*
X11284620Y-15913784D02*
X11237001Y-15913784D01*
X11237001Y-15913784D02*
X11217953Y-15904260D01*
X11217953Y-15904260D02*
X11208429Y-15894736D01*
X11437001Y-15799498D02*
X11417953Y-15789974D01*
X11417953Y-15789974D02*
X11408429Y-15780450D01*
X11408429Y-15780450D02*
X11398906Y-15761403D01*
X11398906Y-15761403D02*
X11398906Y-15751879D01*
X11398906Y-15751879D02*
X11408429Y-15732831D01*
X11408429Y-15732831D02*
X11417953Y-15723308D01*
X11417953Y-15723308D02*
X11437001Y-15713784D01*
X11437001Y-15713784D02*
X11475096Y-15713784D01*
X11475096Y-15713784D02*
X11494144Y-15723308D01*
X11494144Y-15723308D02*
X11503668Y-15732831D01*
X11503668Y-15732831D02*
X11513191Y-15751879D01*
X11513191Y-15751879D02*
X11513191Y-15761403D01*
X11513191Y-15761403D02*
X11503668Y-15780450D01*
X11503668Y-15780450D02*
X11494144Y-15789974D01*
X11494144Y-15789974D02*
X11475096Y-15799498D01*
X11475096Y-15799498D02*
X11437001Y-15799498D01*
X11437001Y-15799498D02*
X11417953Y-15809022D01*
X11417953Y-15809022D02*
X11408429Y-15818546D01*
X11408429Y-15818546D02*
X11398906Y-15837593D01*
X11398906Y-15837593D02*
X11398906Y-15875688D01*
X11398906Y-15875688D02*
X11408429Y-15894736D01*
X11408429Y-15894736D02*
X11417953Y-15904260D01*
X11417953Y-15904260D02*
X11437001Y-15913784D01*
X11437001Y-15913784D02*
X11475096Y-15913784D01*
X11475096Y-15913784D02*
X11494144Y-15904260D01*
X11494144Y-15904260D02*
X11503668Y-15894736D01*
X11503668Y-15894736D02*
X11513191Y-15875688D01*
X11513191Y-15875688D02*
X11513191Y-15837593D01*
X11513191Y-15837593D02*
X11503668Y-15818546D01*
X11503668Y-15818546D02*
X11494144Y-15809022D01*
X11494144Y-15809022D02*
X11475096Y-15799498D01*
X11751287Y-15913784D02*
X11751287Y-15713784D01*
X11837001Y-15913784D02*
X11837001Y-15809022D01*
X11837001Y-15809022D02*
X11827477Y-15789974D01*
X11827477Y-15789974D02*
X11808430Y-15780450D01*
X11808430Y-15780450D02*
X11779858Y-15780450D01*
X11779858Y-15780450D02*
X11760810Y-15789974D01*
X11760810Y-15789974D02*
X11751287Y-15799498D01*
X11960810Y-15913784D02*
X11941763Y-15904260D01*
X11941763Y-15904260D02*
X11932239Y-15894736D01*
X11932239Y-15894736D02*
X11922715Y-15875688D01*
X11922715Y-15875688D02*
X11922715Y-15818546D01*
X11922715Y-15818546D02*
X11932239Y-15799498D01*
X11932239Y-15799498D02*
X11941763Y-15789974D01*
X11941763Y-15789974D02*
X11960810Y-15780450D01*
X11960810Y-15780450D02*
X11989382Y-15780450D01*
X11989382Y-15780450D02*
X12008430Y-15789974D01*
X12008430Y-15789974D02*
X12017953Y-15799498D01*
X12017953Y-15799498D02*
X12027477Y-15818546D01*
X12027477Y-15818546D02*
X12027477Y-15875688D01*
X12027477Y-15875688D02*
X12017953Y-15894736D01*
X12017953Y-15894736D02*
X12008430Y-15904260D01*
X12008430Y-15904260D02*
X11989382Y-15913784D01*
X11989382Y-15913784D02*
X11960810Y-15913784D01*
X12141763Y-15913784D02*
X12122715Y-15904260D01*
X12122715Y-15904260D02*
X12113191Y-15885212D01*
X12113191Y-15885212D02*
X12113191Y-15713784D01*
X12294144Y-15904260D02*
X12275096Y-15913784D01*
X12275096Y-15913784D02*
X12237001Y-15913784D01*
X12237001Y-15913784D02*
X12217953Y-15904260D01*
X12217953Y-15904260D02*
X12208430Y-15885212D01*
X12208430Y-15885212D02*
X12208430Y-15809022D01*
X12208430Y-15809022D02*
X12217953Y-15789974D01*
X12217953Y-15789974D02*
X12237001Y-15780450D01*
X12237001Y-15780450D02*
X12275096Y-15780450D01*
X12275096Y-15780450D02*
X12294144Y-15789974D01*
X12294144Y-15789974D02*
X12303668Y-15809022D01*
X12303668Y-15809022D02*
X12303668Y-15828069D01*
X12303668Y-15828069D02*
X12208430Y-15847117D01*
X12379858Y-15904260D02*
X12398906Y-15913784D01*
X12398906Y-15913784D02*
X12437001Y-15913784D01*
X12437001Y-15913784D02*
X12456049Y-15904260D01*
X12456049Y-15904260D02*
X12465572Y-15885212D01*
X12465572Y-15885212D02*
X12465572Y-15875688D01*
X12465572Y-15875688D02*
X12456049Y-15856641D01*
X12456049Y-15856641D02*
X12437001Y-15847117D01*
X12437001Y-15847117D02*
X12408430Y-15847117D01*
X12408430Y-15847117D02*
X12389382Y-15837593D01*
X12389382Y-15837593D02*
X12379858Y-15818546D01*
X12379858Y-15818546D02*
X12379858Y-15809022D01*
X12379858Y-15809022D02*
X12389382Y-15789974D01*
X12389382Y-15789974D02*
X12408430Y-15780450D01*
X12408430Y-15780450D02*
X12437001Y-15780450D01*
X12437001Y-15780450D02*
X12456049Y-15789974D01*
X12532239Y-15989974D02*
X12541763Y-15980450D01*
X12541763Y-15980450D02*
X12560811Y-15951879D01*
X12560811Y-15951879D02*
X12570334Y-15932831D01*
X12570334Y-15932831D02*
X12579858Y-15904260D01*
X12579858Y-15904260D02*
X12589382Y-15856641D01*
X12589382Y-15856641D02*
X12589382Y-15818546D01*
X12589382Y-15818546D02*
X12579858Y-15770927D01*
X12579858Y-15770927D02*
X12570334Y-15742355D01*
X12570334Y-15742355D02*
X12560811Y-15723308D01*
X12560811Y-15723308D02*
X12541763Y-15694736D01*
X12541763Y-15694736D02*
X12532239Y-15685212D01*
X12894144Y-15989974D02*
X12884620Y-15980450D01*
X12884620Y-15980450D02*
X12865572Y-15951879D01*
X12865572Y-15951879D02*
X12856049Y-15932831D01*
X12856049Y-15932831D02*
X12846525Y-15904260D01*
X12846525Y-15904260D02*
X12837001Y-15856641D01*
X12837001Y-15856641D02*
X12837001Y-15818546D01*
X12837001Y-15818546D02*
X12846525Y-15770927D01*
X12846525Y-15770927D02*
X12856049Y-15742355D01*
X12856049Y-15742355D02*
X12865572Y-15723308D01*
X12865572Y-15723308D02*
X12884620Y-15694736D01*
X12884620Y-15694736D02*
X12894144Y-15685212D01*
X12970334Y-15780450D02*
X12970334Y-15913784D01*
X12970334Y-15799498D02*
X12979858Y-15789974D01*
X12979858Y-15789974D02*
X12998906Y-15780450D01*
X12998906Y-15780450D02*
X13027477Y-15780450D01*
X13027477Y-15780450D02*
X13046525Y-15789974D01*
X13046525Y-15789974D02*
X13056049Y-15809022D01*
X13056049Y-15809022D02*
X13056049Y-15913784D01*
X13179858Y-15913784D02*
X13160811Y-15904260D01*
X13160811Y-15904260D02*
X13151287Y-15894736D01*
X13151287Y-15894736D02*
X13141763Y-15875688D01*
X13141763Y-15875688D02*
X13141763Y-15818546D01*
X13141763Y-15818546D02*
X13151287Y-15799498D01*
X13151287Y-15799498D02*
X13160811Y-15789974D01*
X13160811Y-15789974D02*
X13179858Y-15780450D01*
X13179858Y-15780450D02*
X13208430Y-15780450D01*
X13208430Y-15780450D02*
X13227477Y-15789974D01*
X13227477Y-15789974D02*
X13237001Y-15799498D01*
X13237001Y-15799498D02*
X13246525Y-15818546D01*
X13246525Y-15818546D02*
X13246525Y-15875688D01*
X13246525Y-15875688D02*
X13237001Y-15894736D01*
X13237001Y-15894736D02*
X13227477Y-15904260D01*
X13227477Y-15904260D02*
X13208430Y-15913784D01*
X13208430Y-15913784D02*
X13179858Y-15913784D01*
X13303668Y-15780450D02*
X13379858Y-15780450D01*
X13332239Y-15713784D02*
X13332239Y-15885212D01*
X13332239Y-15885212D02*
X13341763Y-15904260D01*
X13341763Y-15904260D02*
X13360811Y-15913784D01*
X13360811Y-15913784D02*
X13379858Y-15913784D01*
X13598906Y-15780450D02*
X13598906Y-15980450D01*
X13598906Y-15789974D02*
X13617953Y-15780450D01*
X13617953Y-15780450D02*
X13656049Y-15780450D01*
X13656049Y-15780450D02*
X13675096Y-15789974D01*
X13675096Y-15789974D02*
X13684620Y-15799498D01*
X13684620Y-15799498D02*
X13694144Y-15818546D01*
X13694144Y-15818546D02*
X13694144Y-15875688D01*
X13694144Y-15875688D02*
X13684620Y-15894736D01*
X13684620Y-15894736D02*
X13675096Y-15904260D01*
X13675096Y-15904260D02*
X13656049Y-15913784D01*
X13656049Y-15913784D02*
X13617953Y-15913784D01*
X13617953Y-15913784D02*
X13598906Y-15904260D01*
X13808430Y-15913784D02*
X13789382Y-15904260D01*
X13789382Y-15904260D02*
X13779858Y-15885212D01*
X13779858Y-15885212D02*
X13779858Y-15713784D01*
X13970334Y-15913784D02*
X13970334Y-15809022D01*
X13970334Y-15809022D02*
X13960811Y-15789974D01*
X13960811Y-15789974D02*
X13941763Y-15780450D01*
X13941763Y-15780450D02*
X13903668Y-15780450D01*
X13903668Y-15780450D02*
X13884620Y-15789974D01*
X13970334Y-15904260D02*
X13951287Y-15913784D01*
X13951287Y-15913784D02*
X13903668Y-15913784D01*
X13903668Y-15913784D02*
X13884620Y-15904260D01*
X13884620Y-15904260D02*
X13875096Y-15885212D01*
X13875096Y-15885212D02*
X13875096Y-15866165D01*
X13875096Y-15866165D02*
X13884620Y-15847117D01*
X13884620Y-15847117D02*
X13903668Y-15837593D01*
X13903668Y-15837593D02*
X13951287Y-15837593D01*
X13951287Y-15837593D02*
X13970334Y-15828069D01*
X14037001Y-15780450D02*
X14113192Y-15780450D01*
X14065573Y-15713784D02*
X14065573Y-15885212D01*
X14065573Y-15885212D02*
X14075096Y-15904260D01*
X14075096Y-15904260D02*
X14094144Y-15913784D01*
X14094144Y-15913784D02*
X14113192Y-15913784D01*
X14256049Y-15904260D02*
X14237001Y-15913784D01*
X14237001Y-15913784D02*
X14198906Y-15913784D01*
X14198906Y-15913784D02*
X14179858Y-15904260D01*
X14179858Y-15904260D02*
X14170334Y-15885212D01*
X14170334Y-15885212D02*
X14170334Y-15809022D01*
X14170334Y-15809022D02*
X14179858Y-15789974D01*
X14179858Y-15789974D02*
X14198906Y-15780450D01*
X14198906Y-15780450D02*
X14237001Y-15780450D01*
X14237001Y-15780450D02*
X14256049Y-15789974D01*
X14256049Y-15789974D02*
X14265573Y-15809022D01*
X14265573Y-15809022D02*
X14265573Y-15828069D01*
X14265573Y-15828069D02*
X14170334Y-15847117D01*
X14437001Y-15913784D02*
X14437001Y-15713784D01*
X14437001Y-15904260D02*
X14417954Y-15913784D01*
X14417954Y-15913784D02*
X14379858Y-15913784D01*
X14379858Y-15913784D02*
X14360811Y-15904260D01*
X14360811Y-15904260D02*
X14351287Y-15894736D01*
X14351287Y-15894736D02*
X14341763Y-15875688D01*
X14341763Y-15875688D02*
X14341763Y-15818546D01*
X14341763Y-15818546D02*
X14351287Y-15799498D01*
X14351287Y-15799498D02*
X14360811Y-15789974D01*
X14360811Y-15789974D02*
X14379858Y-15780450D01*
X14379858Y-15780450D02*
X14417954Y-15780450D01*
X14417954Y-15780450D02*
X14437001Y-15789974D01*
X14513192Y-15989974D02*
X14522715Y-15980450D01*
X14522715Y-15980450D02*
X14541763Y-15951879D01*
X14541763Y-15951879D02*
X14551287Y-15932831D01*
X14551287Y-15932831D02*
X14560811Y-15904260D01*
X14560811Y-15904260D02*
X14570334Y-15856641D01*
X14570334Y-15856641D02*
X14570334Y-15818546D01*
X14570334Y-15818546D02*
X14560811Y-15770927D01*
X14560811Y-15770927D02*
X14551287Y-15742355D01*
X14551287Y-15742355D02*
X14541763Y-15723308D01*
X14541763Y-15723308D02*
X14522715Y-15694736D01*
X14522715Y-15694736D02*
X14513192Y-15685212D01*
X7466700Y-16017300D02*
X7466700Y-16217300D01*
X7366700Y-16117300D02*
X7566700Y-16117300D01*
X7808429Y-16008784D02*
X7932239Y-16008784D01*
X7932239Y-16008784D02*
X7865572Y-16084974D01*
X7865572Y-16084974D02*
X7894143Y-16084974D01*
X7894143Y-16084974D02*
X7913191Y-16094498D01*
X7913191Y-16094498D02*
X7922715Y-16104022D01*
X7922715Y-16104022D02*
X7932239Y-16123069D01*
X7932239Y-16123069D02*
X7932239Y-16170688D01*
X7932239Y-16170688D02*
X7922715Y-16189736D01*
X7922715Y-16189736D02*
X7913191Y-16199260D01*
X7913191Y-16199260D02*
X7894143Y-16208784D01*
X7894143Y-16208784D02*
X7837001Y-16208784D01*
X7837001Y-16208784D02*
X7817953Y-16199260D01*
X7817953Y-16199260D02*
X7808429Y-16189736D01*
X8017953Y-16189736D02*
X8027477Y-16199260D01*
X8027477Y-16199260D02*
X8017953Y-16208784D01*
X8017953Y-16208784D02*
X8008429Y-16199260D01*
X8008429Y-16199260D02*
X8017953Y-16189736D01*
X8017953Y-16189736D02*
X8017953Y-16208784D01*
X8151286Y-16008784D02*
X8170334Y-16008784D01*
X8170334Y-16008784D02*
X8189382Y-16018308D01*
X8189382Y-16018308D02*
X8198905Y-16027831D01*
X8198905Y-16027831D02*
X8208429Y-16046879D01*
X8208429Y-16046879D02*
X8217953Y-16084974D01*
X8217953Y-16084974D02*
X8217953Y-16132593D01*
X8217953Y-16132593D02*
X8208429Y-16170688D01*
X8208429Y-16170688D02*
X8198905Y-16189736D01*
X8198905Y-16189736D02*
X8189382Y-16199260D01*
X8189382Y-16199260D02*
X8170334Y-16208784D01*
X8170334Y-16208784D02*
X8151286Y-16208784D01*
X8151286Y-16208784D02*
X8132239Y-16199260D01*
X8132239Y-16199260D02*
X8122715Y-16189736D01*
X8122715Y-16189736D02*
X8113191Y-16170688D01*
X8113191Y-16170688D02*
X8103667Y-16132593D01*
X8103667Y-16132593D02*
X8103667Y-16084974D01*
X8103667Y-16084974D02*
X8113191Y-16046879D01*
X8113191Y-16046879D02*
X8122715Y-16027831D01*
X8122715Y-16027831D02*
X8132239Y-16018308D01*
X8132239Y-16018308D02*
X8151286Y-16008784D01*
X8341762Y-16008784D02*
X8360810Y-16008784D01*
X8360810Y-16008784D02*
X8379858Y-16018308D01*
X8379858Y-16018308D02*
X8389382Y-16027831D01*
X8389382Y-16027831D02*
X8398905Y-16046879D01*
X8398905Y-16046879D02*
X8408429Y-16084974D01*
X8408429Y-16084974D02*
X8408429Y-16132593D01*
X8408429Y-16132593D02*
X8398905Y-16170688D01*
X8398905Y-16170688D02*
X8389382Y-16189736D01*
X8389382Y-16189736D02*
X8379858Y-16199260D01*
X8379858Y-16199260D02*
X8360810Y-16208784D01*
X8360810Y-16208784D02*
X8341762Y-16208784D01*
X8341762Y-16208784D02*
X8322715Y-16199260D01*
X8322715Y-16199260D02*
X8313191Y-16189736D01*
X8313191Y-16189736D02*
X8303667Y-16170688D01*
X8303667Y-16170688D02*
X8294143Y-16132593D01*
X8294143Y-16132593D02*
X8294143Y-16084974D01*
X8294143Y-16084974D02*
X8303667Y-16046879D01*
X8303667Y-16046879D02*
X8313191Y-16027831D01*
X8313191Y-16027831D02*
X8322715Y-16018308D01*
X8322715Y-16018308D02*
X8341762Y-16008784D01*
X8532239Y-16008784D02*
X8551286Y-16008784D01*
X8551286Y-16008784D02*
X8570334Y-16018308D01*
X8570334Y-16018308D02*
X8579858Y-16027831D01*
X8579858Y-16027831D02*
X8589382Y-16046879D01*
X8589382Y-16046879D02*
X8598905Y-16084974D01*
X8598905Y-16084974D02*
X8598905Y-16132593D01*
X8598905Y-16132593D02*
X8589382Y-16170688D01*
X8589382Y-16170688D02*
X8579858Y-16189736D01*
X8579858Y-16189736D02*
X8570334Y-16199260D01*
X8570334Y-16199260D02*
X8551286Y-16208784D01*
X8551286Y-16208784D02*
X8532239Y-16208784D01*
X8532239Y-16208784D02*
X8513191Y-16199260D01*
X8513191Y-16199260D02*
X8503667Y-16189736D01*
X8503667Y-16189736D02*
X8494144Y-16170688D01*
X8494144Y-16170688D02*
X8484620Y-16132593D01*
X8484620Y-16132593D02*
X8484620Y-16084974D01*
X8484620Y-16084974D02*
X8494144Y-16046879D01*
X8494144Y-16046879D02*
X8503667Y-16027831D01*
X8503667Y-16027831D02*
X8513191Y-16018308D01*
X8513191Y-16018308D02*
X8532239Y-16008784D01*
X8684620Y-16208784D02*
X8684620Y-16075450D01*
X8684620Y-16094498D02*
X8694144Y-16084974D01*
X8694144Y-16084974D02*
X8713191Y-16075450D01*
X8713191Y-16075450D02*
X8741763Y-16075450D01*
X8741763Y-16075450D02*
X8760810Y-16084974D01*
X8760810Y-16084974D02*
X8770334Y-16104022D01*
X8770334Y-16104022D02*
X8770334Y-16208784D01*
X8770334Y-16104022D02*
X8779858Y-16084974D01*
X8779858Y-16084974D02*
X8798905Y-16075450D01*
X8798905Y-16075450D02*
X8827477Y-16075450D01*
X8827477Y-16075450D02*
X8846525Y-16084974D01*
X8846525Y-16084974D02*
X8856048Y-16104022D01*
X8856048Y-16104022D02*
X8856048Y-16208784D01*
X8951286Y-16208784D02*
X8951286Y-16075450D01*
X8951286Y-16094498D02*
X8960810Y-16084974D01*
X8960810Y-16084974D02*
X8979858Y-16075450D01*
X8979858Y-16075450D02*
X9008429Y-16075450D01*
X9008429Y-16075450D02*
X9027477Y-16084974D01*
X9027477Y-16084974D02*
X9037001Y-16104022D01*
X9037001Y-16104022D02*
X9037001Y-16208784D01*
X9037001Y-16104022D02*
X9046525Y-16084974D01*
X9046525Y-16084974D02*
X9065572Y-16075450D01*
X9065572Y-16075450D02*
X9094144Y-16075450D01*
X9094144Y-16075450D02*
X9113191Y-16084974D01*
X9113191Y-16084974D02*
X9122715Y-16104022D01*
X9122715Y-16104022D02*
X9122715Y-16208784D01*
X9513191Y-15999260D02*
X9341763Y-16256403D01*
X9770334Y-16008784D02*
X9789382Y-16008784D01*
X9789382Y-16008784D02*
X9808429Y-16018308D01*
X9808429Y-16018308D02*
X9817953Y-16027831D01*
X9817953Y-16027831D02*
X9827477Y-16046879D01*
X9827477Y-16046879D02*
X9837001Y-16084974D01*
X9837001Y-16084974D02*
X9837001Y-16132593D01*
X9837001Y-16132593D02*
X9827477Y-16170688D01*
X9827477Y-16170688D02*
X9817953Y-16189736D01*
X9817953Y-16189736D02*
X9808429Y-16199260D01*
X9808429Y-16199260D02*
X9789382Y-16208784D01*
X9789382Y-16208784D02*
X9770334Y-16208784D01*
X9770334Y-16208784D02*
X9751287Y-16199260D01*
X9751287Y-16199260D02*
X9741763Y-16189736D01*
X9741763Y-16189736D02*
X9732239Y-16170688D01*
X9732239Y-16170688D02*
X9722715Y-16132593D01*
X9722715Y-16132593D02*
X9722715Y-16084974D01*
X9722715Y-16084974D02*
X9732239Y-16046879D01*
X9732239Y-16046879D02*
X9741763Y-16027831D01*
X9741763Y-16027831D02*
X9751287Y-16018308D01*
X9751287Y-16018308D02*
X9770334Y-16008784D01*
X9922715Y-16189736D02*
X9932239Y-16199260D01*
X9932239Y-16199260D02*
X9922715Y-16208784D01*
X9922715Y-16208784D02*
X9913191Y-16199260D01*
X9913191Y-16199260D02*
X9922715Y-16189736D01*
X9922715Y-16189736D02*
X9922715Y-16208784D01*
X10122715Y-16208784D02*
X10008429Y-16208784D01*
X10065572Y-16208784D02*
X10065572Y-16008784D01*
X10065572Y-16008784D02*
X10046525Y-16037355D01*
X10046525Y-16037355D02*
X10027477Y-16056403D01*
X10027477Y-16056403D02*
X10008429Y-16065927D01*
X10313191Y-16208784D02*
X10198906Y-16208784D01*
X10256048Y-16208784D02*
X10256048Y-16008784D01*
X10256048Y-16008784D02*
X10237001Y-16037355D01*
X10237001Y-16037355D02*
X10217953Y-16056403D01*
X10217953Y-16056403D02*
X10198906Y-16065927D01*
X10427477Y-16094498D02*
X10408429Y-16084974D01*
X10408429Y-16084974D02*
X10398906Y-16075450D01*
X10398906Y-16075450D02*
X10389382Y-16056403D01*
X10389382Y-16056403D02*
X10389382Y-16046879D01*
X10389382Y-16046879D02*
X10398906Y-16027831D01*
X10398906Y-16027831D02*
X10408429Y-16018308D01*
X10408429Y-16018308D02*
X10427477Y-16008784D01*
X10427477Y-16008784D02*
X10465572Y-16008784D01*
X10465572Y-16008784D02*
X10484620Y-16018308D01*
X10484620Y-16018308D02*
X10494144Y-16027831D01*
X10494144Y-16027831D02*
X10503668Y-16046879D01*
X10503668Y-16046879D02*
X10503668Y-16056403D01*
X10503668Y-16056403D02*
X10494144Y-16075450D01*
X10494144Y-16075450D02*
X10484620Y-16084974D01*
X10484620Y-16084974D02*
X10465572Y-16094498D01*
X10465572Y-16094498D02*
X10427477Y-16094498D01*
X10427477Y-16094498D02*
X10408429Y-16104022D01*
X10408429Y-16104022D02*
X10398906Y-16113546D01*
X10398906Y-16113546D02*
X10389382Y-16132593D01*
X10389382Y-16132593D02*
X10389382Y-16170688D01*
X10389382Y-16170688D02*
X10398906Y-16189736D01*
X10398906Y-16189736D02*
X10408429Y-16199260D01*
X10408429Y-16199260D02*
X10427477Y-16208784D01*
X10427477Y-16208784D02*
X10465572Y-16208784D01*
X10465572Y-16208784D02*
X10484620Y-16199260D01*
X10484620Y-16199260D02*
X10494144Y-16189736D01*
X10494144Y-16189736D02*
X10503668Y-16170688D01*
X10503668Y-16170688D02*
X10503668Y-16132593D01*
X10503668Y-16132593D02*
X10494144Y-16113546D01*
X10494144Y-16113546D02*
X10484620Y-16104022D01*
X10484620Y-16104022D02*
X10465572Y-16094498D01*
X10694144Y-16208784D02*
X10579858Y-16208784D01*
X10637001Y-16208784D02*
X10637001Y-16008784D01*
X10637001Y-16008784D02*
X10617953Y-16037355D01*
X10617953Y-16037355D02*
X10598906Y-16056403D01*
X10598906Y-16056403D02*
X10579858Y-16065927D01*
X10770334Y-16008784D02*
X10770334Y-16046879D01*
X10846525Y-16008784D02*
X10846525Y-16046879D01*
X11141763Y-16284974D02*
X11132239Y-16275450D01*
X11132239Y-16275450D02*
X11113191Y-16246879D01*
X11113191Y-16246879D02*
X11103668Y-16227831D01*
X11103668Y-16227831D02*
X11094144Y-16199260D01*
X11094144Y-16199260D02*
X11084620Y-16151641D01*
X11084620Y-16151641D02*
X11084620Y-16113546D01*
X11084620Y-16113546D02*
X11094144Y-16065927D01*
X11094144Y-16065927D02*
X11103668Y-16037355D01*
X11103668Y-16037355D02*
X11113191Y-16018308D01*
X11113191Y-16018308D02*
X11132239Y-15989736D01*
X11132239Y-15989736D02*
X11141763Y-15980212D01*
X11322715Y-16208784D02*
X11208429Y-16208784D01*
X11265572Y-16208784D02*
X11265572Y-16008784D01*
X11265572Y-16008784D02*
X11246525Y-16037355D01*
X11246525Y-16037355D02*
X11227477Y-16056403D01*
X11227477Y-16056403D02*
X11208429Y-16065927D01*
X11513191Y-16208784D02*
X11398906Y-16208784D01*
X11456048Y-16208784D02*
X11456048Y-16008784D01*
X11456048Y-16008784D02*
X11437001Y-16037355D01*
X11437001Y-16037355D02*
X11417953Y-16056403D01*
X11417953Y-16056403D02*
X11398906Y-16065927D01*
X11684620Y-16008784D02*
X11646525Y-16008784D01*
X11646525Y-16008784D02*
X11627477Y-16018308D01*
X11627477Y-16018308D02*
X11617953Y-16027831D01*
X11617953Y-16027831D02*
X11598906Y-16056403D01*
X11598906Y-16056403D02*
X11589382Y-16094498D01*
X11589382Y-16094498D02*
X11589382Y-16170688D01*
X11589382Y-16170688D02*
X11598906Y-16189736D01*
X11598906Y-16189736D02*
X11608429Y-16199260D01*
X11608429Y-16199260D02*
X11627477Y-16208784D01*
X11627477Y-16208784D02*
X11665572Y-16208784D01*
X11665572Y-16208784D02*
X11684620Y-16199260D01*
X11684620Y-16199260D02*
X11694144Y-16189736D01*
X11694144Y-16189736D02*
X11703668Y-16170688D01*
X11703668Y-16170688D02*
X11703668Y-16123069D01*
X11703668Y-16123069D02*
X11694144Y-16104022D01*
X11694144Y-16104022D02*
X11684620Y-16094498D01*
X11684620Y-16094498D02*
X11665572Y-16084974D01*
X11665572Y-16084974D02*
X11627477Y-16084974D01*
X11627477Y-16084974D02*
X11608429Y-16094498D01*
X11608429Y-16094498D02*
X11598906Y-16104022D01*
X11598906Y-16104022D02*
X11589382Y-16123069D01*
X11941763Y-16208784D02*
X11941763Y-16008784D01*
X12027477Y-16208784D02*
X12027477Y-16104022D01*
X12027477Y-16104022D02*
X12017953Y-16084974D01*
X12017953Y-16084974D02*
X11998906Y-16075450D01*
X11998906Y-16075450D02*
X11970334Y-16075450D01*
X11970334Y-16075450D02*
X11951287Y-16084974D01*
X11951287Y-16084974D02*
X11941763Y-16094498D01*
X12151287Y-16208784D02*
X12132239Y-16199260D01*
X12132239Y-16199260D02*
X12122715Y-16189736D01*
X12122715Y-16189736D02*
X12113191Y-16170688D01*
X12113191Y-16170688D02*
X12113191Y-16113546D01*
X12113191Y-16113546D02*
X12122715Y-16094498D01*
X12122715Y-16094498D02*
X12132239Y-16084974D01*
X12132239Y-16084974D02*
X12151287Y-16075450D01*
X12151287Y-16075450D02*
X12179858Y-16075450D01*
X12179858Y-16075450D02*
X12198906Y-16084974D01*
X12198906Y-16084974D02*
X12208430Y-16094498D01*
X12208430Y-16094498D02*
X12217953Y-16113546D01*
X12217953Y-16113546D02*
X12217953Y-16170688D01*
X12217953Y-16170688D02*
X12208430Y-16189736D01*
X12208430Y-16189736D02*
X12198906Y-16199260D01*
X12198906Y-16199260D02*
X12179858Y-16208784D01*
X12179858Y-16208784D02*
X12151287Y-16208784D01*
X12332239Y-16208784D02*
X12313191Y-16199260D01*
X12313191Y-16199260D02*
X12303668Y-16180212D01*
X12303668Y-16180212D02*
X12303668Y-16008784D01*
X12484620Y-16199260D02*
X12465572Y-16208784D01*
X12465572Y-16208784D02*
X12427477Y-16208784D01*
X12427477Y-16208784D02*
X12408430Y-16199260D01*
X12408430Y-16199260D02*
X12398906Y-16180212D01*
X12398906Y-16180212D02*
X12398906Y-16104022D01*
X12398906Y-16104022D02*
X12408430Y-16084974D01*
X12408430Y-16084974D02*
X12427477Y-16075450D01*
X12427477Y-16075450D02*
X12465572Y-16075450D01*
X12465572Y-16075450D02*
X12484620Y-16084974D01*
X12484620Y-16084974D02*
X12494144Y-16104022D01*
X12494144Y-16104022D02*
X12494144Y-16123069D01*
X12494144Y-16123069D02*
X12398906Y-16142117D01*
X12570334Y-16199260D02*
X12589382Y-16208784D01*
X12589382Y-16208784D02*
X12627477Y-16208784D01*
X12627477Y-16208784D02*
X12646525Y-16199260D01*
X12646525Y-16199260D02*
X12656049Y-16180212D01*
X12656049Y-16180212D02*
X12656049Y-16170688D01*
X12656049Y-16170688D02*
X12646525Y-16151641D01*
X12646525Y-16151641D02*
X12627477Y-16142117D01*
X12627477Y-16142117D02*
X12598906Y-16142117D01*
X12598906Y-16142117D02*
X12579858Y-16132593D01*
X12579858Y-16132593D02*
X12570334Y-16113546D01*
X12570334Y-16113546D02*
X12570334Y-16104022D01*
X12570334Y-16104022D02*
X12579858Y-16084974D01*
X12579858Y-16084974D02*
X12598906Y-16075450D01*
X12598906Y-16075450D02*
X12627477Y-16075450D01*
X12627477Y-16075450D02*
X12646525Y-16084974D01*
X12722715Y-16284974D02*
X12732239Y-16275450D01*
X12732239Y-16275450D02*
X12751287Y-16246879D01*
X12751287Y-16246879D02*
X12760811Y-16227831D01*
X12760811Y-16227831D02*
X12770334Y-16199260D01*
X12770334Y-16199260D02*
X12779858Y-16151641D01*
X12779858Y-16151641D02*
X12779858Y-16113546D01*
X12779858Y-16113546D02*
X12770334Y-16065927D01*
X12770334Y-16065927D02*
X12760811Y-16037355D01*
X12760811Y-16037355D02*
X12751287Y-16018308D01*
X12751287Y-16018308D02*
X12732239Y-15989736D01*
X12732239Y-15989736D02*
X12722715Y-15980212D01*
X13084620Y-16284974D02*
X13075096Y-16275450D01*
X13075096Y-16275450D02*
X13056049Y-16246879D01*
X13056049Y-16246879D02*
X13046525Y-16227831D01*
X13046525Y-16227831D02*
X13037001Y-16199260D01*
X13037001Y-16199260D02*
X13027477Y-16151641D01*
X13027477Y-16151641D02*
X13027477Y-16113546D01*
X13027477Y-16113546D02*
X13037001Y-16065927D01*
X13037001Y-16065927D02*
X13046525Y-16037355D01*
X13046525Y-16037355D02*
X13056049Y-16018308D01*
X13056049Y-16018308D02*
X13075096Y-15989736D01*
X13075096Y-15989736D02*
X13084620Y-15980212D01*
X13160811Y-16075450D02*
X13160811Y-16208784D01*
X13160811Y-16094498D02*
X13170334Y-16084974D01*
X13170334Y-16084974D02*
X13189382Y-16075450D01*
X13189382Y-16075450D02*
X13217953Y-16075450D01*
X13217953Y-16075450D02*
X13237001Y-16084974D01*
X13237001Y-16084974D02*
X13246525Y-16104022D01*
X13246525Y-16104022D02*
X13246525Y-16208784D01*
X13370334Y-16208784D02*
X13351287Y-16199260D01*
X13351287Y-16199260D02*
X13341763Y-16189736D01*
X13341763Y-16189736D02*
X13332239Y-16170688D01*
X13332239Y-16170688D02*
X13332239Y-16113546D01*
X13332239Y-16113546D02*
X13341763Y-16094498D01*
X13341763Y-16094498D02*
X13351287Y-16084974D01*
X13351287Y-16084974D02*
X13370334Y-16075450D01*
X13370334Y-16075450D02*
X13398906Y-16075450D01*
X13398906Y-16075450D02*
X13417953Y-16084974D01*
X13417953Y-16084974D02*
X13427477Y-16094498D01*
X13427477Y-16094498D02*
X13437001Y-16113546D01*
X13437001Y-16113546D02*
X13437001Y-16170688D01*
X13437001Y-16170688D02*
X13427477Y-16189736D01*
X13427477Y-16189736D02*
X13417953Y-16199260D01*
X13417953Y-16199260D02*
X13398906Y-16208784D01*
X13398906Y-16208784D02*
X13370334Y-16208784D01*
X13494144Y-16075450D02*
X13570334Y-16075450D01*
X13522715Y-16008784D02*
X13522715Y-16180212D01*
X13522715Y-16180212D02*
X13532239Y-16199260D01*
X13532239Y-16199260D02*
X13551287Y-16208784D01*
X13551287Y-16208784D02*
X13570334Y-16208784D01*
X13789382Y-16075450D02*
X13789382Y-16275450D01*
X13789382Y-16084974D02*
X13808430Y-16075450D01*
X13808430Y-16075450D02*
X13846525Y-16075450D01*
X13846525Y-16075450D02*
X13865573Y-16084974D01*
X13865573Y-16084974D02*
X13875096Y-16094498D01*
X13875096Y-16094498D02*
X13884620Y-16113546D01*
X13884620Y-16113546D02*
X13884620Y-16170688D01*
X13884620Y-16170688D02*
X13875096Y-16189736D01*
X13875096Y-16189736D02*
X13865573Y-16199260D01*
X13865573Y-16199260D02*
X13846525Y-16208784D01*
X13846525Y-16208784D02*
X13808430Y-16208784D01*
X13808430Y-16208784D02*
X13789382Y-16199260D01*
X13998906Y-16208784D02*
X13979858Y-16199260D01*
X13979858Y-16199260D02*
X13970334Y-16180212D01*
X13970334Y-16180212D02*
X13970334Y-16008784D01*
X14160811Y-16208784D02*
X14160811Y-16104022D01*
X14160811Y-16104022D02*
X14151287Y-16084974D01*
X14151287Y-16084974D02*
X14132239Y-16075450D01*
X14132239Y-16075450D02*
X14094144Y-16075450D01*
X14094144Y-16075450D02*
X14075096Y-16084974D01*
X14160811Y-16199260D02*
X14141763Y-16208784D01*
X14141763Y-16208784D02*
X14094144Y-16208784D01*
X14094144Y-16208784D02*
X14075096Y-16199260D01*
X14075096Y-16199260D02*
X14065573Y-16180212D01*
X14065573Y-16180212D02*
X14065573Y-16161165D01*
X14065573Y-16161165D02*
X14075096Y-16142117D01*
X14075096Y-16142117D02*
X14094144Y-16132593D01*
X14094144Y-16132593D02*
X14141763Y-16132593D01*
X14141763Y-16132593D02*
X14160811Y-16123069D01*
X14227477Y-16075450D02*
X14303668Y-16075450D01*
X14256049Y-16008784D02*
X14256049Y-16180212D01*
X14256049Y-16180212D02*
X14265573Y-16199260D01*
X14265573Y-16199260D02*
X14284620Y-16208784D01*
X14284620Y-16208784D02*
X14303668Y-16208784D01*
X14446525Y-16199260D02*
X14427477Y-16208784D01*
X14427477Y-16208784D02*
X14389382Y-16208784D01*
X14389382Y-16208784D02*
X14370334Y-16199260D01*
X14370334Y-16199260D02*
X14360811Y-16180212D01*
X14360811Y-16180212D02*
X14360811Y-16104022D01*
X14360811Y-16104022D02*
X14370334Y-16084974D01*
X14370334Y-16084974D02*
X14389382Y-16075450D01*
X14389382Y-16075450D02*
X14427477Y-16075450D01*
X14427477Y-16075450D02*
X14446525Y-16084974D01*
X14446525Y-16084974D02*
X14456049Y-16104022D01*
X14456049Y-16104022D02*
X14456049Y-16123069D01*
X14456049Y-16123069D02*
X14360811Y-16142117D01*
X14627477Y-16208784D02*
X14627477Y-16008784D01*
X14627477Y-16199260D02*
X14608430Y-16208784D01*
X14608430Y-16208784D02*
X14570334Y-16208784D01*
X14570334Y-16208784D02*
X14551287Y-16199260D01*
X14551287Y-16199260D02*
X14541763Y-16189736D01*
X14541763Y-16189736D02*
X14532239Y-16170688D01*
X14532239Y-16170688D02*
X14532239Y-16113546D01*
X14532239Y-16113546D02*
X14541763Y-16094498D01*
X14541763Y-16094498D02*
X14551287Y-16084974D01*
X14551287Y-16084974D02*
X14570334Y-16075450D01*
X14570334Y-16075450D02*
X14608430Y-16075450D01*
X14608430Y-16075450D02*
X14627477Y-16084974D01*
X14703668Y-16284974D02*
X14713192Y-16275450D01*
X14713192Y-16275450D02*
X14732239Y-16246879D01*
X14732239Y-16246879D02*
X14741763Y-16227831D01*
X14741763Y-16227831D02*
X14751287Y-16199260D01*
X14751287Y-16199260D02*
X14760811Y-16151641D01*
X14760811Y-16151641D02*
X14760811Y-16113546D01*
X14760811Y-16113546D02*
X14751287Y-16065927D01*
X14751287Y-16065927D02*
X14741763Y-16037355D01*
X14741763Y-16037355D02*
X14732239Y-16018308D01*
X14732239Y-16018308D02*
X14713192Y-15989736D01*
X14713192Y-15989736D02*
X14703668Y-15980212D01*
X7537411Y-16508011D02*
X7537411Y-16366589D01*
X7395989Y-16366589D01*
X7395989Y-16508011D01*
X7537411Y-16508011D01*
X7808429Y-16328784D02*
X7932239Y-16328784D01*
X7932239Y-16328784D02*
X7865572Y-16404974D01*
X7865572Y-16404974D02*
X7894143Y-16404974D01*
X7894143Y-16404974D02*
X7913191Y-16414498D01*
X7913191Y-16414498D02*
X7922715Y-16424022D01*
X7922715Y-16424022D02*
X7932239Y-16443069D01*
X7932239Y-16443069D02*
X7932239Y-16490688D01*
X7932239Y-16490688D02*
X7922715Y-16509736D01*
X7922715Y-16509736D02*
X7913191Y-16519260D01*
X7913191Y-16519260D02*
X7894143Y-16528784D01*
X7894143Y-16528784D02*
X7837001Y-16528784D01*
X7837001Y-16528784D02*
X7817953Y-16519260D01*
X7817953Y-16519260D02*
X7808429Y-16509736D01*
X8017953Y-16509736D02*
X8027477Y-16519260D01*
X8027477Y-16519260D02*
X8017953Y-16528784D01*
X8017953Y-16528784D02*
X8008429Y-16519260D01*
X8008429Y-16519260D02*
X8017953Y-16509736D01*
X8017953Y-16509736D02*
X8017953Y-16528784D01*
X8122715Y-16528784D02*
X8160810Y-16528784D01*
X8160810Y-16528784D02*
X8179858Y-16519260D01*
X8179858Y-16519260D02*
X8189382Y-16509736D01*
X8189382Y-16509736D02*
X8208429Y-16481165D01*
X8208429Y-16481165D02*
X8217953Y-16443069D01*
X8217953Y-16443069D02*
X8217953Y-16366879D01*
X8217953Y-16366879D02*
X8208429Y-16347831D01*
X8208429Y-16347831D02*
X8198905Y-16338308D01*
X8198905Y-16338308D02*
X8179858Y-16328784D01*
X8179858Y-16328784D02*
X8141762Y-16328784D01*
X8141762Y-16328784D02*
X8122715Y-16338308D01*
X8122715Y-16338308D02*
X8113191Y-16347831D01*
X8113191Y-16347831D02*
X8103667Y-16366879D01*
X8103667Y-16366879D02*
X8103667Y-16414498D01*
X8103667Y-16414498D02*
X8113191Y-16433546D01*
X8113191Y-16433546D02*
X8122715Y-16443069D01*
X8122715Y-16443069D02*
X8141762Y-16452593D01*
X8141762Y-16452593D02*
X8179858Y-16452593D01*
X8179858Y-16452593D02*
X8198905Y-16443069D01*
X8198905Y-16443069D02*
X8208429Y-16433546D01*
X8208429Y-16433546D02*
X8217953Y-16414498D01*
X8332239Y-16414498D02*
X8313191Y-16404974D01*
X8313191Y-16404974D02*
X8303667Y-16395450D01*
X8303667Y-16395450D02*
X8294143Y-16376403D01*
X8294143Y-16376403D02*
X8294143Y-16366879D01*
X8294143Y-16366879D02*
X8303667Y-16347831D01*
X8303667Y-16347831D02*
X8313191Y-16338308D01*
X8313191Y-16338308D02*
X8332239Y-16328784D01*
X8332239Y-16328784D02*
X8370334Y-16328784D01*
X8370334Y-16328784D02*
X8389382Y-16338308D01*
X8389382Y-16338308D02*
X8398905Y-16347831D01*
X8398905Y-16347831D02*
X8408429Y-16366879D01*
X8408429Y-16366879D02*
X8408429Y-16376403D01*
X8408429Y-16376403D02*
X8398905Y-16395450D01*
X8398905Y-16395450D02*
X8389382Y-16404974D01*
X8389382Y-16404974D02*
X8370334Y-16414498D01*
X8370334Y-16414498D02*
X8332239Y-16414498D01*
X8332239Y-16414498D02*
X8313191Y-16424022D01*
X8313191Y-16424022D02*
X8303667Y-16433546D01*
X8303667Y-16433546D02*
X8294143Y-16452593D01*
X8294143Y-16452593D02*
X8294143Y-16490688D01*
X8294143Y-16490688D02*
X8303667Y-16509736D01*
X8303667Y-16509736D02*
X8313191Y-16519260D01*
X8313191Y-16519260D02*
X8332239Y-16528784D01*
X8332239Y-16528784D02*
X8370334Y-16528784D01*
X8370334Y-16528784D02*
X8389382Y-16519260D01*
X8389382Y-16519260D02*
X8398905Y-16509736D01*
X8398905Y-16509736D02*
X8408429Y-16490688D01*
X8408429Y-16490688D02*
X8408429Y-16452593D01*
X8408429Y-16452593D02*
X8398905Y-16433546D01*
X8398905Y-16433546D02*
X8389382Y-16424022D01*
X8389382Y-16424022D02*
X8370334Y-16414498D01*
X8522715Y-16414498D02*
X8503667Y-16404974D01*
X8503667Y-16404974D02*
X8494144Y-16395450D01*
X8494144Y-16395450D02*
X8484620Y-16376403D01*
X8484620Y-16376403D02*
X8484620Y-16366879D01*
X8484620Y-16366879D02*
X8494144Y-16347831D01*
X8494144Y-16347831D02*
X8503667Y-16338308D01*
X8503667Y-16338308D02*
X8522715Y-16328784D01*
X8522715Y-16328784D02*
X8560810Y-16328784D01*
X8560810Y-16328784D02*
X8579858Y-16338308D01*
X8579858Y-16338308D02*
X8589382Y-16347831D01*
X8589382Y-16347831D02*
X8598905Y-16366879D01*
X8598905Y-16366879D02*
X8598905Y-16376403D01*
X8598905Y-16376403D02*
X8589382Y-16395450D01*
X8589382Y-16395450D02*
X8579858Y-16404974D01*
X8579858Y-16404974D02*
X8560810Y-16414498D01*
X8560810Y-16414498D02*
X8522715Y-16414498D01*
X8522715Y-16414498D02*
X8503667Y-16424022D01*
X8503667Y-16424022D02*
X8494144Y-16433546D01*
X8494144Y-16433546D02*
X8484620Y-16452593D01*
X8484620Y-16452593D02*
X8484620Y-16490688D01*
X8484620Y-16490688D02*
X8494144Y-16509736D01*
X8494144Y-16509736D02*
X8503667Y-16519260D01*
X8503667Y-16519260D02*
X8522715Y-16528784D01*
X8522715Y-16528784D02*
X8560810Y-16528784D01*
X8560810Y-16528784D02*
X8579858Y-16519260D01*
X8579858Y-16519260D02*
X8589382Y-16509736D01*
X8589382Y-16509736D02*
X8598905Y-16490688D01*
X8598905Y-16490688D02*
X8598905Y-16452593D01*
X8598905Y-16452593D02*
X8589382Y-16433546D01*
X8589382Y-16433546D02*
X8579858Y-16424022D01*
X8579858Y-16424022D02*
X8560810Y-16414498D01*
X8684620Y-16528784D02*
X8684620Y-16395450D01*
X8684620Y-16414498D02*
X8694144Y-16404974D01*
X8694144Y-16404974D02*
X8713191Y-16395450D01*
X8713191Y-16395450D02*
X8741763Y-16395450D01*
X8741763Y-16395450D02*
X8760810Y-16404974D01*
X8760810Y-16404974D02*
X8770334Y-16424022D01*
X8770334Y-16424022D02*
X8770334Y-16528784D01*
X8770334Y-16424022D02*
X8779858Y-16404974D01*
X8779858Y-16404974D02*
X8798905Y-16395450D01*
X8798905Y-16395450D02*
X8827477Y-16395450D01*
X8827477Y-16395450D02*
X8846525Y-16404974D01*
X8846525Y-16404974D02*
X8856048Y-16424022D01*
X8856048Y-16424022D02*
X8856048Y-16528784D01*
X8951286Y-16528784D02*
X8951286Y-16395450D01*
X8951286Y-16414498D02*
X8960810Y-16404974D01*
X8960810Y-16404974D02*
X8979858Y-16395450D01*
X8979858Y-16395450D02*
X9008429Y-16395450D01*
X9008429Y-16395450D02*
X9027477Y-16404974D01*
X9027477Y-16404974D02*
X9037001Y-16424022D01*
X9037001Y-16424022D02*
X9037001Y-16528784D01*
X9037001Y-16424022D02*
X9046525Y-16404974D01*
X9046525Y-16404974D02*
X9065572Y-16395450D01*
X9065572Y-16395450D02*
X9094144Y-16395450D01*
X9094144Y-16395450D02*
X9113191Y-16404974D01*
X9113191Y-16404974D02*
X9122715Y-16424022D01*
X9122715Y-16424022D02*
X9122715Y-16528784D01*
X9513191Y-16319260D02*
X9341763Y-16576403D01*
X9770334Y-16328784D02*
X9789382Y-16328784D01*
X9789382Y-16328784D02*
X9808429Y-16338308D01*
X9808429Y-16338308D02*
X9817953Y-16347831D01*
X9817953Y-16347831D02*
X9827477Y-16366879D01*
X9827477Y-16366879D02*
X9837001Y-16404974D01*
X9837001Y-16404974D02*
X9837001Y-16452593D01*
X9837001Y-16452593D02*
X9827477Y-16490688D01*
X9827477Y-16490688D02*
X9817953Y-16509736D01*
X9817953Y-16509736D02*
X9808429Y-16519260D01*
X9808429Y-16519260D02*
X9789382Y-16528784D01*
X9789382Y-16528784D02*
X9770334Y-16528784D01*
X9770334Y-16528784D02*
X9751287Y-16519260D01*
X9751287Y-16519260D02*
X9741763Y-16509736D01*
X9741763Y-16509736D02*
X9732239Y-16490688D01*
X9732239Y-16490688D02*
X9722715Y-16452593D01*
X9722715Y-16452593D02*
X9722715Y-16404974D01*
X9722715Y-16404974D02*
X9732239Y-16366879D01*
X9732239Y-16366879D02*
X9741763Y-16347831D01*
X9741763Y-16347831D02*
X9751287Y-16338308D01*
X9751287Y-16338308D02*
X9770334Y-16328784D01*
X9922715Y-16509736D02*
X9932239Y-16519260D01*
X9932239Y-16519260D02*
X9922715Y-16528784D01*
X9922715Y-16528784D02*
X9913191Y-16519260D01*
X9913191Y-16519260D02*
X9922715Y-16509736D01*
X9922715Y-16509736D02*
X9922715Y-16528784D01*
X10122715Y-16528784D02*
X10008429Y-16528784D01*
X10065572Y-16528784D02*
X10065572Y-16328784D01*
X10065572Y-16328784D02*
X10046525Y-16357355D01*
X10046525Y-16357355D02*
X10027477Y-16376403D01*
X10027477Y-16376403D02*
X10008429Y-16385927D01*
X10303668Y-16328784D02*
X10208429Y-16328784D01*
X10208429Y-16328784D02*
X10198906Y-16424022D01*
X10198906Y-16424022D02*
X10208429Y-16414498D01*
X10208429Y-16414498D02*
X10227477Y-16404974D01*
X10227477Y-16404974D02*
X10275096Y-16404974D01*
X10275096Y-16404974D02*
X10294144Y-16414498D01*
X10294144Y-16414498D02*
X10303668Y-16424022D01*
X10303668Y-16424022D02*
X10313191Y-16443069D01*
X10313191Y-16443069D02*
X10313191Y-16490688D01*
X10313191Y-16490688D02*
X10303668Y-16509736D01*
X10303668Y-16509736D02*
X10294144Y-16519260D01*
X10294144Y-16519260D02*
X10275096Y-16528784D01*
X10275096Y-16528784D02*
X10227477Y-16528784D01*
X10227477Y-16528784D02*
X10208429Y-16519260D01*
X10208429Y-16519260D02*
X10198906Y-16509736D01*
X10379858Y-16328784D02*
X10513191Y-16328784D01*
X10513191Y-16328784D02*
X10427477Y-16528784D01*
X10627477Y-16328784D02*
X10646525Y-16328784D01*
X10646525Y-16328784D02*
X10665572Y-16338308D01*
X10665572Y-16338308D02*
X10675096Y-16347831D01*
X10675096Y-16347831D02*
X10684620Y-16366879D01*
X10684620Y-16366879D02*
X10694144Y-16404974D01*
X10694144Y-16404974D02*
X10694144Y-16452593D01*
X10694144Y-16452593D02*
X10684620Y-16490688D01*
X10684620Y-16490688D02*
X10675096Y-16509736D01*
X10675096Y-16509736D02*
X10665572Y-16519260D01*
X10665572Y-16519260D02*
X10646525Y-16528784D01*
X10646525Y-16528784D02*
X10627477Y-16528784D01*
X10627477Y-16528784D02*
X10608429Y-16519260D01*
X10608429Y-16519260D02*
X10598906Y-16509736D01*
X10598906Y-16509736D02*
X10589382Y-16490688D01*
X10589382Y-16490688D02*
X10579858Y-16452593D01*
X10579858Y-16452593D02*
X10579858Y-16404974D01*
X10579858Y-16404974D02*
X10589382Y-16366879D01*
X10589382Y-16366879D02*
X10598906Y-16347831D01*
X10598906Y-16347831D02*
X10608429Y-16338308D01*
X10608429Y-16338308D02*
X10627477Y-16328784D01*
X10770334Y-16328784D02*
X10770334Y-16366879D01*
X10846525Y-16328784D02*
X10846525Y-16366879D01*
X11141763Y-16604974D02*
X11132239Y-16595450D01*
X11132239Y-16595450D02*
X11113191Y-16566879D01*
X11113191Y-16566879D02*
X11103668Y-16547831D01*
X11103668Y-16547831D02*
X11094144Y-16519260D01*
X11094144Y-16519260D02*
X11084620Y-16471641D01*
X11084620Y-16471641D02*
X11084620Y-16433546D01*
X11084620Y-16433546D02*
X11094144Y-16385927D01*
X11094144Y-16385927D02*
X11103668Y-16357355D01*
X11103668Y-16357355D02*
X11113191Y-16338308D01*
X11113191Y-16338308D02*
X11132239Y-16309736D01*
X11132239Y-16309736D02*
X11141763Y-16300212D01*
X11208429Y-16347831D02*
X11217953Y-16338308D01*
X11217953Y-16338308D02*
X11237001Y-16328784D01*
X11237001Y-16328784D02*
X11284620Y-16328784D01*
X11284620Y-16328784D02*
X11303668Y-16338308D01*
X11303668Y-16338308D02*
X11313191Y-16347831D01*
X11313191Y-16347831D02*
X11322715Y-16366879D01*
X11322715Y-16366879D02*
X11322715Y-16385927D01*
X11322715Y-16385927D02*
X11313191Y-16414498D01*
X11313191Y-16414498D02*
X11198906Y-16528784D01*
X11198906Y-16528784D02*
X11322715Y-16528784D01*
X11417953Y-16528784D02*
X11456048Y-16528784D01*
X11456048Y-16528784D02*
X11475096Y-16519260D01*
X11475096Y-16519260D02*
X11484620Y-16509736D01*
X11484620Y-16509736D02*
X11503668Y-16481165D01*
X11503668Y-16481165D02*
X11513191Y-16443069D01*
X11513191Y-16443069D02*
X11513191Y-16366879D01*
X11513191Y-16366879D02*
X11503668Y-16347831D01*
X11503668Y-16347831D02*
X11494144Y-16338308D01*
X11494144Y-16338308D02*
X11475096Y-16328784D01*
X11475096Y-16328784D02*
X11437001Y-16328784D01*
X11437001Y-16328784D02*
X11417953Y-16338308D01*
X11417953Y-16338308D02*
X11408429Y-16347831D01*
X11408429Y-16347831D02*
X11398906Y-16366879D01*
X11398906Y-16366879D02*
X11398906Y-16414498D01*
X11398906Y-16414498D02*
X11408429Y-16433546D01*
X11408429Y-16433546D02*
X11417953Y-16443069D01*
X11417953Y-16443069D02*
X11437001Y-16452593D01*
X11437001Y-16452593D02*
X11475096Y-16452593D01*
X11475096Y-16452593D02*
X11494144Y-16443069D01*
X11494144Y-16443069D02*
X11503668Y-16433546D01*
X11503668Y-16433546D02*
X11513191Y-16414498D01*
X11751287Y-16528784D02*
X11751287Y-16328784D01*
X11837001Y-16528784D02*
X11837001Y-16424022D01*
X11837001Y-16424022D02*
X11827477Y-16404974D01*
X11827477Y-16404974D02*
X11808430Y-16395450D01*
X11808430Y-16395450D02*
X11779858Y-16395450D01*
X11779858Y-16395450D02*
X11760810Y-16404974D01*
X11760810Y-16404974D02*
X11751287Y-16414498D01*
X11960810Y-16528784D02*
X11941763Y-16519260D01*
X11941763Y-16519260D02*
X11932239Y-16509736D01*
X11932239Y-16509736D02*
X11922715Y-16490688D01*
X11922715Y-16490688D02*
X11922715Y-16433546D01*
X11922715Y-16433546D02*
X11932239Y-16414498D01*
X11932239Y-16414498D02*
X11941763Y-16404974D01*
X11941763Y-16404974D02*
X11960810Y-16395450D01*
X11960810Y-16395450D02*
X11989382Y-16395450D01*
X11989382Y-16395450D02*
X12008430Y-16404974D01*
X12008430Y-16404974D02*
X12017953Y-16414498D01*
X12017953Y-16414498D02*
X12027477Y-16433546D01*
X12027477Y-16433546D02*
X12027477Y-16490688D01*
X12027477Y-16490688D02*
X12017953Y-16509736D01*
X12017953Y-16509736D02*
X12008430Y-16519260D01*
X12008430Y-16519260D02*
X11989382Y-16528784D01*
X11989382Y-16528784D02*
X11960810Y-16528784D01*
X12141763Y-16528784D02*
X12122715Y-16519260D01*
X12122715Y-16519260D02*
X12113191Y-16500212D01*
X12113191Y-16500212D02*
X12113191Y-16328784D01*
X12294144Y-16519260D02*
X12275096Y-16528784D01*
X12275096Y-16528784D02*
X12237001Y-16528784D01*
X12237001Y-16528784D02*
X12217953Y-16519260D01*
X12217953Y-16519260D02*
X12208430Y-16500212D01*
X12208430Y-16500212D02*
X12208430Y-16424022D01*
X12208430Y-16424022D02*
X12217953Y-16404974D01*
X12217953Y-16404974D02*
X12237001Y-16395450D01*
X12237001Y-16395450D02*
X12275096Y-16395450D01*
X12275096Y-16395450D02*
X12294144Y-16404974D01*
X12294144Y-16404974D02*
X12303668Y-16424022D01*
X12303668Y-16424022D02*
X12303668Y-16443069D01*
X12303668Y-16443069D02*
X12208430Y-16462117D01*
X12379858Y-16519260D02*
X12398906Y-16528784D01*
X12398906Y-16528784D02*
X12437001Y-16528784D01*
X12437001Y-16528784D02*
X12456049Y-16519260D01*
X12456049Y-16519260D02*
X12465572Y-16500212D01*
X12465572Y-16500212D02*
X12465572Y-16490688D01*
X12465572Y-16490688D02*
X12456049Y-16471641D01*
X12456049Y-16471641D02*
X12437001Y-16462117D01*
X12437001Y-16462117D02*
X12408430Y-16462117D01*
X12408430Y-16462117D02*
X12389382Y-16452593D01*
X12389382Y-16452593D02*
X12379858Y-16433546D01*
X12379858Y-16433546D02*
X12379858Y-16424022D01*
X12379858Y-16424022D02*
X12389382Y-16404974D01*
X12389382Y-16404974D02*
X12408430Y-16395450D01*
X12408430Y-16395450D02*
X12437001Y-16395450D01*
X12437001Y-16395450D02*
X12456049Y-16404974D01*
X12532239Y-16604974D02*
X12541763Y-16595450D01*
X12541763Y-16595450D02*
X12560811Y-16566879D01*
X12560811Y-16566879D02*
X12570334Y-16547831D01*
X12570334Y-16547831D02*
X12579858Y-16519260D01*
X12579858Y-16519260D02*
X12589382Y-16471641D01*
X12589382Y-16471641D02*
X12589382Y-16433546D01*
X12589382Y-16433546D02*
X12579858Y-16385927D01*
X12579858Y-16385927D02*
X12570334Y-16357355D01*
X12570334Y-16357355D02*
X12560811Y-16338308D01*
X12560811Y-16338308D02*
X12541763Y-16309736D01*
X12541763Y-16309736D02*
X12532239Y-16300212D01*
X12894144Y-16604974D02*
X12884620Y-16595450D01*
X12884620Y-16595450D02*
X12865572Y-16566879D01*
X12865572Y-16566879D02*
X12856049Y-16547831D01*
X12856049Y-16547831D02*
X12846525Y-16519260D01*
X12846525Y-16519260D02*
X12837001Y-16471641D01*
X12837001Y-16471641D02*
X12837001Y-16433546D01*
X12837001Y-16433546D02*
X12846525Y-16385927D01*
X12846525Y-16385927D02*
X12856049Y-16357355D01*
X12856049Y-16357355D02*
X12865572Y-16338308D01*
X12865572Y-16338308D02*
X12884620Y-16309736D01*
X12884620Y-16309736D02*
X12894144Y-16300212D01*
X12970334Y-16395450D02*
X12970334Y-16528784D01*
X12970334Y-16414498D02*
X12979858Y-16404974D01*
X12979858Y-16404974D02*
X12998906Y-16395450D01*
X12998906Y-16395450D02*
X13027477Y-16395450D01*
X13027477Y-16395450D02*
X13046525Y-16404974D01*
X13046525Y-16404974D02*
X13056049Y-16424022D01*
X13056049Y-16424022D02*
X13056049Y-16528784D01*
X13179858Y-16528784D02*
X13160811Y-16519260D01*
X13160811Y-16519260D02*
X13151287Y-16509736D01*
X13151287Y-16509736D02*
X13141763Y-16490688D01*
X13141763Y-16490688D02*
X13141763Y-16433546D01*
X13141763Y-16433546D02*
X13151287Y-16414498D01*
X13151287Y-16414498D02*
X13160811Y-16404974D01*
X13160811Y-16404974D02*
X13179858Y-16395450D01*
X13179858Y-16395450D02*
X13208430Y-16395450D01*
X13208430Y-16395450D02*
X13227477Y-16404974D01*
X13227477Y-16404974D02*
X13237001Y-16414498D01*
X13237001Y-16414498D02*
X13246525Y-16433546D01*
X13246525Y-16433546D02*
X13246525Y-16490688D01*
X13246525Y-16490688D02*
X13237001Y-16509736D01*
X13237001Y-16509736D02*
X13227477Y-16519260D01*
X13227477Y-16519260D02*
X13208430Y-16528784D01*
X13208430Y-16528784D02*
X13179858Y-16528784D01*
X13303668Y-16395450D02*
X13379858Y-16395450D01*
X13332239Y-16328784D02*
X13332239Y-16500212D01*
X13332239Y-16500212D02*
X13341763Y-16519260D01*
X13341763Y-16519260D02*
X13360811Y-16528784D01*
X13360811Y-16528784D02*
X13379858Y-16528784D01*
X13598906Y-16395450D02*
X13598906Y-16595450D01*
X13598906Y-16404974D02*
X13617953Y-16395450D01*
X13617953Y-16395450D02*
X13656049Y-16395450D01*
X13656049Y-16395450D02*
X13675096Y-16404974D01*
X13675096Y-16404974D02*
X13684620Y-16414498D01*
X13684620Y-16414498D02*
X13694144Y-16433546D01*
X13694144Y-16433546D02*
X13694144Y-16490688D01*
X13694144Y-16490688D02*
X13684620Y-16509736D01*
X13684620Y-16509736D02*
X13675096Y-16519260D01*
X13675096Y-16519260D02*
X13656049Y-16528784D01*
X13656049Y-16528784D02*
X13617953Y-16528784D01*
X13617953Y-16528784D02*
X13598906Y-16519260D01*
X13808430Y-16528784D02*
X13789382Y-16519260D01*
X13789382Y-16519260D02*
X13779858Y-16500212D01*
X13779858Y-16500212D02*
X13779858Y-16328784D01*
X13970334Y-16528784D02*
X13970334Y-16424022D01*
X13970334Y-16424022D02*
X13960811Y-16404974D01*
X13960811Y-16404974D02*
X13941763Y-16395450D01*
X13941763Y-16395450D02*
X13903668Y-16395450D01*
X13903668Y-16395450D02*
X13884620Y-16404974D01*
X13970334Y-16519260D02*
X13951287Y-16528784D01*
X13951287Y-16528784D02*
X13903668Y-16528784D01*
X13903668Y-16528784D02*
X13884620Y-16519260D01*
X13884620Y-16519260D02*
X13875096Y-16500212D01*
X13875096Y-16500212D02*
X13875096Y-16481165D01*
X13875096Y-16481165D02*
X13884620Y-16462117D01*
X13884620Y-16462117D02*
X13903668Y-16452593D01*
X13903668Y-16452593D02*
X13951287Y-16452593D01*
X13951287Y-16452593D02*
X13970334Y-16443069D01*
X14037001Y-16395450D02*
X14113192Y-16395450D01*
X14065573Y-16328784D02*
X14065573Y-16500212D01*
X14065573Y-16500212D02*
X14075096Y-16519260D01*
X14075096Y-16519260D02*
X14094144Y-16528784D01*
X14094144Y-16528784D02*
X14113192Y-16528784D01*
X14256049Y-16519260D02*
X14237001Y-16528784D01*
X14237001Y-16528784D02*
X14198906Y-16528784D01*
X14198906Y-16528784D02*
X14179858Y-16519260D01*
X14179858Y-16519260D02*
X14170334Y-16500212D01*
X14170334Y-16500212D02*
X14170334Y-16424022D01*
X14170334Y-16424022D02*
X14179858Y-16404974D01*
X14179858Y-16404974D02*
X14198906Y-16395450D01*
X14198906Y-16395450D02*
X14237001Y-16395450D01*
X14237001Y-16395450D02*
X14256049Y-16404974D01*
X14256049Y-16404974D02*
X14265573Y-16424022D01*
X14265573Y-16424022D02*
X14265573Y-16443069D01*
X14265573Y-16443069D02*
X14170334Y-16462117D01*
X14437001Y-16528784D02*
X14437001Y-16328784D01*
X14437001Y-16519260D02*
X14417954Y-16528784D01*
X14417954Y-16528784D02*
X14379858Y-16528784D01*
X14379858Y-16528784D02*
X14360811Y-16519260D01*
X14360811Y-16519260D02*
X14351287Y-16509736D01*
X14351287Y-16509736D02*
X14341763Y-16490688D01*
X14341763Y-16490688D02*
X14341763Y-16433546D01*
X14341763Y-16433546D02*
X14351287Y-16414498D01*
X14351287Y-16414498D02*
X14360811Y-16404974D01*
X14360811Y-16404974D02*
X14379858Y-16395450D01*
X14379858Y-16395450D02*
X14417954Y-16395450D01*
X14417954Y-16395450D02*
X14437001Y-16404974D01*
X14513192Y-16604974D02*
X14522715Y-16595450D01*
X14522715Y-16595450D02*
X14541763Y-16566879D01*
X14541763Y-16566879D02*
X14551287Y-16547831D01*
X14551287Y-16547831D02*
X14560811Y-16519260D01*
X14560811Y-16519260D02*
X14570334Y-16471641D01*
X14570334Y-16471641D02*
X14570334Y-16433546D01*
X14570334Y-16433546D02*
X14560811Y-16385927D01*
X14560811Y-16385927D02*
X14551287Y-16357355D01*
X14551287Y-16357355D02*
X14541763Y-16338308D01*
X14541763Y-16338308D02*
X14522715Y-16309736D01*
X14522715Y-16309736D02*
X14513192Y-16300212D01*
M02*
