M48
; DRILL file {KiCad 7.0.5.1-1-g8f565ef7f0-dirty-deb11} date Sat Aug 12 11:48:30 2023
; FORMAT={-:-/ absolute / metric / decimal}
; #@! TF.CreationDate,2023-08-12T11:48:30+00:00
; #@! TF.GenerationSoftware,Kicad,Pcbnew,7.0.5.1-1-g8f565ef7f0-dirty-deb11
; #@! TF.FileFunction,Plated,1,2,PTH
FMAT,2
METRIC
; #@! TA.AperFunction,Plated,PTH,ViaDrill
T1C0.300
; #@! TA.AperFunction,Plated,PTH,ComponentDrill
T2C0.300
; #@! TA.AperFunction,Plated,PTH,ViaDrill
T3C0.400
; #@! TA.AperFunction,Plated,PTH,ComponentDrill
T4C0.400
; #@! TA.AperFunction,Plated,PTH,ComponentDrill
T5C0.600
; #@! TA.AperFunction,Plated,PTH,ComponentDrill
T6C0.750
; #@! TA.AperFunction,Plated,PTH,ComponentDrill
T7C0.900
; #@! TA.AperFunction,Plated,PTH,ComponentDrill
T8C1.000
; #@! TA.AperFunction,Plated,PTH,ComponentDrill
T9C1.500
; #@! TA.AperFunction,Plated,PTH,ComponentDrill
T10C2.200
%
G90
G05
T1
X90.754Y-91.542
X95.098Y-50.8
X96.114Y-50.927
X96.291Y-71.907
X97.092Y-47.358
X97.206Y-51.308
X97.815Y-90.526
X98.146Y-47.269
X101.067Y-69.723
X101.575Y-47.625
X103.581Y-74.701
X104.216Y-29.769
X104.623Y-46.711
X105.486Y-30.455
X105.766Y-42.24
X107.188Y-52.807
X107.975Y-47.346
X109.941Y-70.401
X110.007Y-71.882
X110.509Y-73.279
X111.227Y-82.906
X111.658Y-66.802
X111.684Y-64.719
X111.708Y-72.202
X112.141Y-50.8
X112.809Y-51.067
X113.065Y-42.24
X113.276Y-51.587
X115.697Y-52.07
X115.77Y-53.219
X116.205Y-52.629
T2
X90.399Y-110.28
X91.161Y-112.039
X92.659Y-110.28
X93.421Y-112.039
X110.128Y-114.427
X111.887Y-113.665
X116.459Y-46.374
X116.459Y-65.678
X116.459Y-84.728
X116.459Y-103.524
X117.221Y-48.133
X117.221Y-67.437
X117.221Y-86.487
X117.221Y-105.283
X135.509Y-41.548
X135.509Y-60.726
X135.509Y-79.776
X135.509Y-98.698
X135.509Y-117.748
X136.271Y-43.307
X136.271Y-62.485
X136.271Y-81.535
X136.271Y-100.457
X136.271Y-119.507
X154.433Y-36.85
X154.559Y-55.9
X154.559Y-75.204
X154.559Y-94.126
X154.559Y-113.176
X155.195Y-38.609
X155.321Y-57.659
X155.321Y-76.963
X155.321Y-95.885
X155.321Y-114.935
X173.483Y-60.472
X173.609Y-41.548
X173.609Y-79.902
X173.609Y-98.495
X173.609Y-117.874
X174.245Y-62.231
X174.371Y-43.307
X174.371Y-81.661
X174.371Y-100.254
X174.371Y-119.633
X192.405Y-74.95
X192.659Y-55.518
X192.659Y-94.0
X192.659Y-113.05
X193.167Y-76.709
X193.421Y-57.277
X193.421Y-95.759
X193.421Y-114.809
X211.455Y-113.43
X211.506Y-55.518
X211.709Y-74.95
X211.709Y-94.0
X212.217Y-115.189
X212.268Y-57.277
X212.471Y-76.709
X212.471Y-95.759
T3
X88.258Y-111.372
X90.995Y-97.333
X91.719Y-99.568
X92.827Y-68.839
X93.927Y-53.374
X94.539Y-110.49
X94.539Y-113.792
X95.027Y-53.341
X96.127Y-53.391
X97.203Y-53.37
X97.227Y-68.936
X97.231Y-74.778
X98.323Y-53.391
X98.327Y-68.839
X99.085Y-45.974
X99.423Y-53.391
X99.427Y-68.839
X100.523Y-53.391
X100.787Y-29.312
X101.616Y-39.116
X101.623Y-53.391
X102.121Y-29.553
X102.123Y-33.005
X102.337Y-73.254
X102.362Y-45.466
X102.723Y-53.391
X102.852Y-47.432
X103.276Y-113.716
X103.823Y-53.391
X104.826Y-74.092
X104.927Y-68.789
X104.938Y-53.395
X105.893Y-34.315
X106.889Y-29.57
X108.255Y-29.312
X108.327Y-55.739
X108.327Y-56.839
X108.327Y-57.939
X108.327Y-62.339
X108.327Y-63.439
X108.327Y-66.739
X110.439Y-92.05
X110.49Y-44.45
X111.201Y-50.47
X115.519Y-43.536
X128.295Y-28.169
X182.372Y-100.076
T4
X80.946Y-130.395
X81.446Y-133.04
X82.156Y-129.697
X83.224Y-136.119
X83.267Y-130.046
X84.434Y-135.421
X91.581Y-125.246
X91.834Y-124.109
X93.044Y-123.41
X95.027Y-56.939
X95.027Y-65.439
X95.084Y-125.166
X95.652Y-128.944
X96.127Y-56.939
X96.127Y-65.439
X96.862Y-128.245
X97.227Y-56.939
X97.227Y-65.439
X98.327Y-56.939
X98.327Y-65.439
X99.427Y-56.939
X99.427Y-65.439
X100.527Y-56.939
X100.527Y-65.439
X101.627Y-56.939
X101.627Y-65.439
X102.727Y-56.939
X102.727Y-65.439
X103.827Y-56.939
X103.827Y-65.439
X110.022Y-121.692
X110.223Y-119.009
X110.942Y-125.127
X111.572Y-118.647
X112.291Y-124.765
X112.556Y-119.272
X115.951Y-38.544
X115.951Y-42.1
X115.951Y-57.594
X115.951Y-61.15
X115.951Y-76.644
X115.951Y-80.2
X115.951Y-95.694
X115.951Y-99.251
X116.84Y-36.005
X116.84Y-55.054
X116.84Y-74.105
X116.84Y-93.154
X117.348Y-42.1
X117.348Y-61.15
X117.348Y-80.2
X117.348Y-99.251
X118.237Y-36.005
X118.237Y-55.054
X118.237Y-74.105
X118.237Y-93.154
X119.025Y-36.862
X119.025Y-55.912
X119.025Y-74.962
X119.025Y-94.013
X121.829Y-116.787
X122.368Y-115.754
X123.717Y-115.393
X124.804Y-121.413
X125.233Y-117.616
X126.153Y-121.051
X128.625Y-36.862
X128.625Y-55.912
X128.625Y-74.962
X128.625Y-94.013
X129.413Y-36.005
X129.413Y-55.054
X129.413Y-74.105
X129.413Y-93.154
X130.302Y-42.1
X130.302Y-61.15
X130.302Y-80.2
X130.302Y-99.251
X130.81Y-36.005
X130.81Y-55.054
X130.81Y-74.105
X130.81Y-93.154
X131.699Y-38.544
X131.699Y-42.1
X131.699Y-57.594
X131.699Y-61.15
X131.699Y-76.644
X131.699Y-80.2
X131.699Y-95.694
X131.699Y-99.251
X135.001Y-33.782
X135.001Y-37.338
X135.001Y-52.832
X135.001Y-56.388
X135.001Y-71.882
X135.001Y-75.438
X135.001Y-90.932
X135.001Y-94.488
X135.001Y-109.982
X135.001Y-113.538
X135.89Y-31.242
X135.89Y-50.292
X135.89Y-69.342
X135.89Y-88.392
X135.89Y-107.442
X136.398Y-37.338
X136.398Y-56.388
X136.398Y-75.438
X136.398Y-94.488
X136.398Y-113.538
X137.287Y-31.242
X137.287Y-50.292
X137.287Y-69.342
X137.287Y-88.392
X137.287Y-107.442
X138.075Y-32.1
X138.075Y-51.15
X138.075Y-70.2
X138.075Y-89.25
X138.075Y-108.3
X147.675Y-32.1
X147.675Y-51.15
X147.675Y-70.2
X147.675Y-89.25
X147.675Y-108.3
X148.463Y-31.242
X148.463Y-50.292
X148.463Y-69.342
X148.463Y-88.392
X148.463Y-107.442
X149.352Y-37.338
X149.352Y-56.388
X149.352Y-75.438
X149.352Y-94.488
X149.352Y-113.538
X149.86Y-31.242
X149.86Y-50.292
X149.86Y-69.342
X149.86Y-88.392
X149.86Y-107.442
X150.749Y-33.782
X150.749Y-37.338
X150.749Y-52.832
X150.749Y-56.388
X150.749Y-71.882
X150.749Y-75.438
X150.749Y-90.932
X150.749Y-94.488
X150.749Y-109.982
X150.749Y-113.538
X154.051Y-29.019
X154.051Y-32.575
X154.051Y-48.069
X154.051Y-51.625
X154.051Y-67.12
X154.051Y-70.675
X154.051Y-86.169
X154.051Y-89.725
X154.051Y-105.219
X154.051Y-108.775
X154.94Y-26.479
X154.94Y-45.529
X154.94Y-64.579
X154.94Y-83.629
X154.94Y-102.679
X155.448Y-32.575
X155.448Y-51.625
X155.448Y-70.675
X155.448Y-89.725
X155.448Y-108.775
X156.337Y-26.479
X156.337Y-45.529
X156.337Y-64.579
X156.337Y-83.629
X156.337Y-102.679
X157.125Y-27.337
X157.125Y-46.387
X157.125Y-65.438
X157.125Y-84.487
X157.125Y-103.537
X166.725Y-27.337
X166.725Y-46.387
X166.725Y-65.438
X166.725Y-84.487
X166.725Y-103.537
X167.513Y-26.479
X167.513Y-45.529
X167.513Y-64.579
X167.513Y-83.629
X167.513Y-102.679
X168.402Y-32.575
X168.402Y-51.625
X168.402Y-70.675
X168.402Y-89.725
X168.402Y-108.775
X168.91Y-26.479
X168.91Y-45.529
X168.91Y-64.579
X168.91Y-83.629
X168.91Y-102.679
X169.799Y-29.019
X169.799Y-32.575
X169.799Y-48.069
X169.799Y-51.625
X169.799Y-67.12
X169.799Y-70.675
X169.799Y-86.169
X169.799Y-89.725
X169.799Y-105.219
X169.799Y-108.775
X173.101Y-33.782
X173.101Y-37.338
X173.101Y-52.832
X173.101Y-56.388
X173.101Y-71.882
X173.101Y-75.438
X173.101Y-90.932
X173.101Y-94.488
X173.101Y-109.982
X173.101Y-113.538
X173.99Y-31.242
X173.99Y-50.292
X173.99Y-69.342
X173.99Y-88.392
X173.99Y-107.442
X174.498Y-37.338
X174.498Y-56.388
X174.498Y-75.438
X174.498Y-94.488
X174.498Y-113.538
X175.387Y-31.242
X175.387Y-50.292
X175.387Y-69.342
X175.387Y-88.392
X175.387Y-107.442
X176.175Y-32.1
X176.175Y-51.15
X176.175Y-70.2
X176.175Y-89.25
X176.175Y-108.3
X185.775Y-32.1
X185.775Y-51.15
X185.775Y-70.2
X185.775Y-89.25
X185.775Y-108.3
X186.563Y-31.242
X186.563Y-50.292
X186.563Y-69.342
X186.563Y-88.392
X186.563Y-107.442
X187.452Y-37.338
X187.452Y-56.388
X187.452Y-75.438
X187.452Y-94.488
X187.452Y-113.538
X187.96Y-31.242
X187.96Y-50.292
X187.96Y-69.342
X187.96Y-88.392
X187.96Y-107.442
X188.849Y-33.782
X188.849Y-37.338
X188.849Y-52.832
X188.849Y-56.388
X188.849Y-71.882
X188.849Y-75.438
X188.849Y-90.932
X188.849Y-94.488
X188.849Y-109.982
X188.849Y-113.538
X192.151Y-48.069
X192.151Y-51.625
X192.151Y-67.12
X192.151Y-70.675
X192.151Y-86.169
X192.151Y-89.725
X192.151Y-105.219
X192.151Y-108.775
X193.04Y-45.529
X193.04Y-64.579
X193.04Y-83.629
X193.04Y-102.679
X193.548Y-51.625
X193.548Y-70.675
X193.548Y-89.725
X193.548Y-108.775
X194.437Y-45.529
X194.437Y-64.579
X194.437Y-83.629
X194.437Y-102.679
X195.225Y-46.387
X195.225Y-65.438
X195.225Y-84.487
X195.225Y-103.537
X204.825Y-46.387
X204.825Y-65.438
X204.825Y-84.487
X204.825Y-103.537
X205.613Y-45.529
X205.613Y-64.579
X205.613Y-83.629
X205.613Y-102.679
X206.502Y-51.625
X206.502Y-70.675
X206.502Y-89.725
X206.502Y-108.775
X207.01Y-45.529
X207.01Y-64.579
X207.01Y-83.629
X207.01Y-102.679
X207.899Y-48.069
X207.899Y-51.625
X207.899Y-67.12
X207.899Y-70.675
X207.899Y-86.169
X207.899Y-89.725
X207.899Y-105.219
X207.899Y-108.775
X211.201Y-48.069
X211.201Y-51.625
X211.201Y-67.12
X211.201Y-70.675
X211.201Y-86.169
X211.201Y-89.725
X211.201Y-105.219
X211.201Y-108.775
X212.09Y-45.529
X212.09Y-64.579
X212.09Y-83.629
X212.09Y-102.679
X212.598Y-51.625
X212.598Y-70.675
X212.598Y-89.725
X212.598Y-108.775
X213.487Y-45.529
X213.487Y-64.579
X213.487Y-83.629
X213.487Y-102.679
X214.275Y-46.387
X214.275Y-65.438
X214.275Y-84.487
X214.275Y-103.537
X223.875Y-46.387
X223.875Y-65.438
X223.875Y-84.487
X223.875Y-103.537
X224.663Y-45.529
X224.663Y-64.579
X224.663Y-83.629
X224.663Y-102.679
X225.552Y-51.625
X225.552Y-70.675
X225.552Y-89.725
X225.552Y-108.775
X226.06Y-45.529
X226.06Y-64.579
X226.06Y-83.629
X226.06Y-102.679
X226.949Y-48.069
X226.949Y-51.625
X226.949Y-67.12
X226.949Y-70.675
X226.949Y-86.169
X226.949Y-89.725
X226.949Y-105.219
X226.949Y-108.775
T6
X118.117Y-24.232
X120.117Y-24.232
X122.117Y-24.232
T7
X93.833Y-94.097
X95.058Y-96.487
X95.058Y-99.027
X95.058Y-101.567
X95.058Y-104.107
X95.683Y-94.097
X111.373Y-94.079
X111.998Y-96.469
X111.998Y-99.009
X111.998Y-101.549
X111.998Y-104.089
X113.223Y-94.079
T8
X89.662Y-37.856
X89.662Y-40.396
X89.662Y-42.936
X89.662Y-45.476
X90.678Y-77.445
X90.678Y-82.195
X93.178Y-76.195
X93.178Y-83.195
X97.216Y-80.391
X99.756Y-80.391
X100.305Y-94.009
X100.305Y-108.509
X102.296Y-80.391
X102.805Y-108.509
X104.836Y-80.391
X105.305Y-94.009
X105.305Y-108.509
T10
X91.034Y-86.893
X104.826Y-127.584
X142.875Y-27.559
X190.094Y-122.047
X209.956Y-38.379
T5
X98.946Y-23.469G85X98.946Y-24.669
G05
X98.946Y-27.569G85X98.946Y-28.369
G05
X110.096Y-23.469G85X110.096Y-24.669
G05
X110.096Y-27.619G85X110.096Y-28.319
G05
T9
X97.205Y-101.659G85X97.205Y-100.359
G05
X108.405Y-101.659G85X108.405Y-100.359
G05
T0
M30
