G04 #@! TF.GenerationSoftware,KiCad,Pcbnew,7.0.5.1-1-g8f565ef7f0-dirty-deb11*
G04 #@! TF.CreationDate,2023-08-12T11:25:40+00:00*
G04 #@! TF.ProjectId,hakea-fillets,68616b65-612d-4666-996c-6c6574732e6b,1.0.3*
G04 #@! TF.SameCoordinates,Original*
G04 #@! TF.FileFunction,Soldermask,Top*
G04 #@! TF.FilePolarity,Negative*
%FSLAX46Y46*%
G04 Gerber Fmt 4.6, Leading zero omitted, Abs format (unit mm)*
G04 Created by KiCad (PCBNEW 7.0.5.1-1-g8f565ef7f0-dirty-deb11) date 2023-08-12 11:25:40*
%MOMM*%
%LPD*%
G01*
G04 APERTURE LIST*
%ADD10C,0.300000*%
%ADD11C,1.750000*%
%ADD12C,3.000000*%
%ADD13C,3.987800*%
%ADD14R,2.150000X2.500000*%
%ADD15R,2.350000X2.500000*%
%ADD16R,0.540000X0.800000*%
%ADD17R,0.300000X0.800000*%
%ADD18O,1.000000X2.200000*%
%ADD19O,1.000000X1.800000*%
%ADD20R,2.000000X2.000000*%
%ADD21C,2.000000*%
%ADD22R,2.000000X3.200000*%
%ADD23R,1.700000X1.700000*%
%ADD24O,1.700000X1.700000*%
%ADD25C,3.500000*%
%ADD26C,1.500000*%
%ADD27C,1.600000*%
%ADD28R,1.400000X1.200000*%
%ADD29R,1.400000X1.000000*%
%ADD30R,0.700000X1.524000*%
%ADD31R,1.524000X0.700000*%
%ADD32R,1.000000X1.000000*%
%ADD33O,1.200000X1.750000*%
G04 APERTURE END LIST*
D10*
X97649885Y-115511728D02*
X97649885Y-114011728D01*
X97649885Y-114726014D02*
X98507028Y-114726014D01*
X98507028Y-115511728D02*
X98507028Y-114011728D01*
X99864172Y-115511728D02*
X99864172Y-114726014D01*
X99864172Y-114726014D02*
X99792743Y-114583157D01*
X99792743Y-114583157D02*
X99649886Y-114511728D01*
X99649886Y-114511728D02*
X99364172Y-114511728D01*
X99364172Y-114511728D02*
X99221314Y-114583157D01*
X99864172Y-115440300D02*
X99721314Y-115511728D01*
X99721314Y-115511728D02*
X99364172Y-115511728D01*
X99364172Y-115511728D02*
X99221314Y-115440300D01*
X99221314Y-115440300D02*
X99149886Y-115297442D01*
X99149886Y-115297442D02*
X99149886Y-115154585D01*
X99149886Y-115154585D02*
X99221314Y-115011728D01*
X99221314Y-115011728D02*
X99364172Y-114940300D01*
X99364172Y-114940300D02*
X99721314Y-114940300D01*
X99721314Y-114940300D02*
X99864172Y-114868871D01*
X100578457Y-115511728D02*
X100578457Y-114011728D01*
X100721315Y-114940300D02*
X101149886Y-115511728D01*
X101149886Y-114511728D02*
X100578457Y-115083157D01*
X102364172Y-115440300D02*
X102221315Y-115511728D01*
X102221315Y-115511728D02*
X101935601Y-115511728D01*
X101935601Y-115511728D02*
X101792743Y-115440300D01*
X101792743Y-115440300D02*
X101721315Y-115297442D01*
X101721315Y-115297442D02*
X101721315Y-114726014D01*
X101721315Y-114726014D02*
X101792743Y-114583157D01*
X101792743Y-114583157D02*
X101935601Y-114511728D01*
X101935601Y-114511728D02*
X102221315Y-114511728D01*
X102221315Y-114511728D02*
X102364172Y-114583157D01*
X102364172Y-114583157D02*
X102435601Y-114726014D01*
X102435601Y-114726014D02*
X102435601Y-114868871D01*
X102435601Y-114868871D02*
X101721315Y-115011728D01*
X103721315Y-115511728D02*
X103721315Y-114726014D01*
X103721315Y-114726014D02*
X103649886Y-114583157D01*
X103649886Y-114583157D02*
X103507029Y-114511728D01*
X103507029Y-114511728D02*
X103221315Y-114511728D01*
X103221315Y-114511728D02*
X103078457Y-114583157D01*
X103721315Y-115440300D02*
X103578457Y-115511728D01*
X103578457Y-115511728D02*
X103221315Y-115511728D01*
X103221315Y-115511728D02*
X103078457Y-115440300D01*
X103078457Y-115440300D02*
X103007029Y-115297442D01*
X103007029Y-115297442D02*
X103007029Y-115154585D01*
X103007029Y-115154585D02*
X103078457Y-115011728D01*
X103078457Y-115011728D02*
X103221315Y-114940300D01*
X103221315Y-114940300D02*
X103578457Y-114940300D01*
X103578457Y-114940300D02*
X103721315Y-114868871D01*
G36*
X96989900Y-117157500D02*
G01*
X96997410Y-117328950D01*
X97004921Y-117500399D01*
X96648160Y-117500400D01*
X96291400Y-117500400D01*
X96291400Y-119684800D01*
X95910945Y-119684800D01*
X95904322Y-118598950D01*
X95897700Y-117513100D01*
X95199200Y-117498966D01*
X95199200Y-117144150D01*
X96989900Y-117157500D01*
G37*
G36*
X100101400Y-120497600D02*
G01*
X100102127Y-120671131D01*
X100104175Y-120826536D01*
X100107338Y-120957022D01*
X100111413Y-121055797D01*
X100116196Y-121116067D01*
X100120450Y-121131998D01*
X100140183Y-121112571D01*
X100187159Y-121057789D01*
X100257492Y-120972442D01*
X100347298Y-120861319D01*
X100452689Y-120729210D01*
X100569781Y-120580906D01*
X100634800Y-120497958D01*
X101130100Y-119864520D01*
X101354466Y-119863560D01*
X101460177Y-119865647D01*
X101534477Y-119872328D01*
X101569085Y-119882710D01*
X101570366Y-119886846D01*
X101552457Y-119912571D01*
X101506766Y-119971672D01*
X101437897Y-120058383D01*
X101350451Y-120166940D01*
X101249030Y-120291578D01*
X101180900Y-120374705D01*
X101073213Y-120506107D01*
X100976650Y-120624635D01*
X100895794Y-120724603D01*
X100835232Y-120800327D01*
X100799546Y-120846123D01*
X100791909Y-120857032D01*
X100802569Y-120882515D01*
X100836499Y-120946294D01*
X100890723Y-121043168D01*
X100962267Y-121167937D01*
X101048159Y-121315399D01*
X101145423Y-121480353D01*
X101219755Y-121605241D01*
X101324211Y-121780429D01*
X101420458Y-121942525D01*
X101505348Y-122086172D01*
X101575729Y-122206014D01*
X101628454Y-122296693D01*
X101660372Y-122352853D01*
X101668614Y-122368668D01*
X101664565Y-122385389D01*
X101631888Y-122395821D01*
X101563114Y-122401159D01*
X101456410Y-122402600D01*
X101231186Y-122402600D01*
X100876909Y-121805700D01*
X100783485Y-121649157D01*
X100698236Y-121507960D01*
X100624632Y-121387721D01*
X100566141Y-121294055D01*
X100526233Y-121232575D01*
X100508377Y-121208897D01*
X100508056Y-121208800D01*
X100487323Y-121227337D01*
X100441468Y-121277874D01*
X100377167Y-121352794D01*
X100301101Y-121444482D01*
X100297439Y-121448965D01*
X100101400Y-121689130D01*
X100101400Y-122402600D01*
X99745800Y-122402600D01*
X99745800Y-119862600D01*
X100101400Y-119862600D01*
X100101400Y-120497600D01*
G37*
G36*
X105416825Y-117149860D02*
G01*
X105548481Y-117157500D01*
X105792066Y-118090508D01*
X105846942Y-118299841D01*
X105898121Y-118493411D01*
X105944131Y-118665782D01*
X105983502Y-118811519D01*
X106014765Y-118925185D01*
X106036449Y-119001343D01*
X106047084Y-119034559D01*
X106047627Y-119035493D01*
X106055625Y-119014310D01*
X106073295Y-118948790D01*
X106099373Y-118844205D01*
X106132597Y-118705829D01*
X106171705Y-118538934D01*
X106215435Y-118348794D01*
X106262524Y-118140679D01*
X106272509Y-118096135D01*
X106485414Y-117144800D01*
X106876530Y-117144800D01*
X106845222Y-117278150D01*
X106818810Y-117389449D01*
X106784446Y-117532420D01*
X106743542Y-117701330D01*
X106697512Y-117890446D01*
X106647770Y-118094036D01*
X106595727Y-118306368D01*
X106542798Y-118521709D01*
X106490395Y-118734326D01*
X106439931Y-118938489D01*
X106392820Y-119128463D01*
X106350474Y-119298517D01*
X106314307Y-119442919D01*
X106285732Y-119555935D01*
X106266162Y-119631834D01*
X106257010Y-119664883D01*
X106256650Y-119665750D01*
X106227452Y-119675069D01*
X106161193Y-119681857D01*
X106071599Y-119684773D01*
X106061826Y-119684800D01*
X105878451Y-119684800D01*
X105831253Y-119500650D01*
X105793029Y-119352734D01*
X105749613Y-119186770D01*
X105702814Y-119009470D01*
X105654441Y-118827542D01*
X105606302Y-118647699D01*
X105560205Y-118476650D01*
X105517959Y-118321106D01*
X105481373Y-118187778D01*
X105452255Y-118083376D01*
X105432413Y-118014610D01*
X105423657Y-117988192D01*
X105423629Y-117988162D01*
X105411741Y-118003726D01*
X105393391Y-118054930D01*
X105383822Y-118088386D01*
X105368726Y-118144144D01*
X105342431Y-118240473D01*
X105307245Y-118368973D01*
X105265477Y-118521243D01*
X105219437Y-118688884D01*
X105171433Y-118863495D01*
X105123774Y-119036676D01*
X105078770Y-119200028D01*
X105038730Y-119345149D01*
X105005961Y-119463640D01*
X104988640Y-119526050D01*
X104944471Y-119684800D01*
X104757338Y-119684800D01*
X104644326Y-119680787D01*
X104579164Y-119668500D01*
X104560094Y-119653050D01*
X104549332Y-119613193D01*
X104531122Y-119540182D01*
X104510927Y-119456200D01*
X104496155Y-119394660D01*
X104470854Y-119290277D01*
X104436606Y-119149545D01*
X104394996Y-118978955D01*
X104347607Y-118785000D01*
X104296024Y-118574171D01*
X104241830Y-118352961D01*
X104232064Y-118313132D01*
X104178542Y-118094304D01*
X104128274Y-117887718D01*
X104082688Y-117699319D01*
X104043210Y-117535053D01*
X104011269Y-117400864D01*
X103988292Y-117302699D01*
X103975706Y-117246502D01*
X103974402Y-117239982D01*
X103956546Y-117144800D01*
X104338648Y-117144800D01*
X104389277Y-117367050D01*
X104408348Y-117451122D01*
X104436518Y-117575773D01*
X104471760Y-117732013D01*
X104512048Y-117910855D01*
X104555356Y-118103309D01*
X104599658Y-118300387D01*
X104601102Y-118306815D01*
X104642764Y-118489746D01*
X104681592Y-118655477D01*
X104716052Y-118797829D01*
X104744610Y-118910626D01*
X104765732Y-118987691D01*
X104777882Y-119022848D01*
X104779331Y-119024365D01*
X104795541Y-119002416D01*
X104812363Y-118948827D01*
X104813907Y-118941850D01*
X104824746Y-118896489D01*
X104846585Y-118809522D01*
X104877469Y-118688461D01*
X104915442Y-118540821D01*
X104958548Y-118374114D01*
X105004831Y-118195854D01*
X105052334Y-118013555D01*
X105099103Y-117834729D01*
X105143181Y-117666890D01*
X105182612Y-117517552D01*
X105215440Y-117394227D01*
X105239710Y-117304430D01*
X105247346Y-117276860D01*
X105285168Y-117142220D01*
X105416825Y-117149860D01*
G37*
G36*
X97970252Y-116058950D02*
G01*
X98044630Y-116187562D01*
X98139672Y-116351997D01*
X98250654Y-116544076D01*
X98372852Y-116755619D01*
X98501541Y-116978448D01*
X98631997Y-117204385D01*
X98759495Y-117425251D01*
X98769872Y-117443229D01*
X99301300Y-118363959D01*
X100787200Y-118363650D01*
X102273100Y-118363340D01*
X103034341Y-117042870D01*
X103795583Y-115722400D01*
X105409507Y-115722400D01*
X107023430Y-115722399D01*
X107152551Y-115944649D01*
X107336123Y-116260996D01*
X107514438Y-116569003D01*
X107685769Y-116865645D01*
X107848390Y-117147900D01*
X108000573Y-117412745D01*
X108140591Y-117657154D01*
X108266718Y-117878105D01*
X108377227Y-118072573D01*
X108470391Y-118237536D01*
X108544483Y-118369968D01*
X108597776Y-118466848D01*
X108628544Y-118525151D01*
X108635800Y-118541799D01*
X108623305Y-118568764D01*
X108586972Y-118636602D01*
X108528529Y-118742292D01*
X108449701Y-118882810D01*
X108352216Y-119055131D01*
X108237801Y-119256233D01*
X108108181Y-119483090D01*
X107965085Y-119732681D01*
X107810239Y-120001980D01*
X107645370Y-120287965D01*
X107472205Y-120587612D01*
X107292471Y-120897896D01*
X107152551Y-121138950D01*
X107023430Y-121361200D01*
X103847900Y-121361722D01*
X103706560Y-121609111D01*
X103664891Y-121681796D01*
X103601034Y-121792852D01*
X103518226Y-121936666D01*
X103419701Y-122107625D01*
X103308695Y-122300120D01*
X103188441Y-122508537D01*
X103062177Y-122727266D01*
X102945292Y-122929650D01*
X102325363Y-124002800D01*
X99096738Y-124002800D01*
X98297319Y-122618586D01*
X97497900Y-121234373D01*
X95985807Y-121234286D01*
X94473714Y-121234200D01*
X94445784Y-121185773D01*
X97735127Y-121185773D01*
X97846578Y-121381436D01*
X97923504Y-121516116D01*
X98014873Y-121675469D01*
X98117746Y-121854418D01*
X98229184Y-122047885D01*
X98346245Y-122250794D01*
X98465990Y-122458067D01*
X98585479Y-122664626D01*
X98701772Y-122865395D01*
X98811928Y-123055297D01*
X98913009Y-123229253D01*
X99002073Y-123382187D01*
X99076182Y-123509021D01*
X99132394Y-123604679D01*
X99167769Y-123664082D01*
X99177081Y-123679154D01*
X99238791Y-123774608D01*
X102195681Y-123761500D01*
X102287524Y-123609100D01*
X102325506Y-123545103D01*
X102384214Y-123444958D01*
X102459053Y-123316558D01*
X102545432Y-123167797D01*
X102638756Y-123006567D01*
X102716143Y-122872500D01*
X102830617Y-122673920D01*
X102959133Y-122450976D01*
X103092571Y-122219487D01*
X103221812Y-121995273D01*
X103337736Y-121794156D01*
X103370723Y-121736924D01*
X103688525Y-121185549D01*
X102995449Y-119984324D01*
X102863223Y-119755293D01*
X102737088Y-119537080D01*
X102619611Y-119334107D01*
X102513357Y-119150798D01*
X102420894Y-118991572D01*
X102344788Y-118860853D01*
X102287606Y-118763062D01*
X102251914Y-118702622D01*
X102242839Y-118687645D01*
X102183304Y-118592191D01*
X100704749Y-118598745D01*
X99226193Y-118605300D01*
X98806546Y-119331129D01*
X98685150Y-119541125D01*
X98553709Y-119768541D01*
X98419220Y-120001270D01*
X98288678Y-120227207D01*
X98169077Y-120434246D01*
X98067413Y-120610282D01*
X98061013Y-120621365D01*
X97735127Y-121185773D01*
X94445784Y-121185773D01*
X93942684Y-120313450D01*
X93814693Y-120091659D01*
X93682418Y-119862684D01*
X93550753Y-119634983D01*
X93424595Y-119417015D01*
X93308840Y-119217239D01*
X93208383Y-119044111D01*
X93128121Y-118906092D01*
X93124472Y-118899828D01*
X93024998Y-118726183D01*
X92947421Y-118584499D01*
X92893136Y-118477516D01*
X92863536Y-118407975D01*
X92860992Y-118389697D01*
X93130198Y-118389697D01*
X93138940Y-118421303D01*
X93171738Y-118492557D01*
X93226510Y-118599551D01*
X93301172Y-118738374D01*
X93393642Y-118905117D01*
X93501838Y-119095870D01*
X93563187Y-119202497D01*
X93684712Y-119412835D01*
X93813264Y-119635466D01*
X93942794Y-119859906D01*
X94067254Y-120075671D01*
X94180594Y-120272275D01*
X94276766Y-120439235D01*
X94306532Y-120490953D01*
X94602300Y-121005007D01*
X96087609Y-120998953D01*
X97572919Y-120992900D01*
X97918480Y-120396000D01*
X98027207Y-120208157D01*
X98153571Y-119989788D01*
X98289787Y-119754348D01*
X98428072Y-119515290D01*
X98560641Y-119286071D01*
X98664049Y-119107237D01*
X98991435Y-118540984D01*
X102433244Y-118540984D01*
X103125935Y-119741542D01*
X103258125Y-119970511D01*
X103384224Y-120188661D01*
X103501665Y-120391570D01*
X103607881Y-120574814D01*
X103700304Y-120733970D01*
X103776367Y-120864613D01*
X103833502Y-120962322D01*
X103869141Y-121022672D01*
X103878160Y-121037554D01*
X103937695Y-121133008D01*
X106895513Y-121119900D01*
X107038205Y-120878600D01*
X107149958Y-120688793D01*
X107269373Y-120484493D01*
X107393886Y-120270203D01*
X107520936Y-120050427D01*
X107647960Y-119829670D01*
X107772397Y-119612436D01*
X107891684Y-119403229D01*
X108003258Y-119206553D01*
X108104559Y-119026913D01*
X108193023Y-118868814D01*
X108266088Y-118736758D01*
X108321192Y-118635251D01*
X108355774Y-118568797D01*
X108367285Y-118542124D01*
X108354934Y-118513752D01*
X108319587Y-118445970D01*
X108263799Y-118343276D01*
X108190129Y-118210165D01*
X108101132Y-118051134D01*
X107999367Y-117870678D01*
X107887389Y-117673294D01*
X107767756Y-117463477D01*
X107643025Y-117245723D01*
X107515753Y-117024530D01*
X107388497Y-116804392D01*
X107263813Y-116589806D01*
X107144259Y-116385269D01*
X107038141Y-116205000D01*
X106895513Y-115963700D01*
X105416652Y-115957145D01*
X103937791Y-115950591D01*
X103876081Y-116046045D01*
X103852966Y-116084129D01*
X103807452Y-116161166D01*
X103742479Y-116272080D01*
X103660987Y-116411792D01*
X103565916Y-116575228D01*
X103460204Y-116757309D01*
X103346793Y-116952960D01*
X103228620Y-117157103D01*
X103108627Y-117364661D01*
X102989753Y-117570559D01*
X102874937Y-117769719D01*
X102767119Y-117957065D01*
X102669239Y-118127519D01*
X102584236Y-118276006D01*
X102545137Y-118344542D01*
X102433244Y-118540984D01*
X98991435Y-118540984D01*
X99064057Y-118415375D01*
X98981354Y-118269037D01*
X98938708Y-118194119D01*
X98874211Y-118081530D01*
X98791490Y-117937549D01*
X98694171Y-117768454D01*
X98585878Y-117580525D01*
X98470240Y-117380039D01*
X98350881Y-117173276D01*
X98231427Y-116966515D01*
X98115505Y-116766034D01*
X98006741Y-116578112D01*
X97908760Y-116409027D01*
X97825188Y-116265059D01*
X97759652Y-116152486D01*
X97716021Y-116078000D01*
X97573706Y-115836700D01*
X94602693Y-115836700D01*
X94459997Y-116078000D01*
X94398256Y-116182993D01*
X94320322Y-116316457D01*
X94229056Y-116473418D01*
X94127320Y-116648901D01*
X94017976Y-116837930D01*
X93903885Y-117035532D01*
X93787910Y-117236732D01*
X93672911Y-117436554D01*
X93561750Y-117630025D01*
X93457290Y-117812168D01*
X93362392Y-117978011D01*
X93279917Y-118122578D01*
X93212727Y-118240894D01*
X93163684Y-118327984D01*
X93135650Y-118378875D01*
X93130198Y-118389697D01*
X92860992Y-118389697D01*
X92859521Y-118379128D01*
X92876707Y-118351679D01*
X92916412Y-118285035D01*
X92975813Y-118184030D01*
X93052091Y-118053497D01*
X93142421Y-117898270D01*
X93243982Y-117723181D01*
X93353953Y-117533065D01*
X93394812Y-117462300D01*
X93510144Y-117262545D01*
X93620592Y-117071416D01*
X93722879Y-116894567D01*
X93813730Y-116737657D01*
X93889869Y-116606342D01*
X93948021Y-116506278D01*
X93984909Y-116443122D01*
X93990522Y-116433600D01*
X94032875Y-116361316D01*
X94093533Y-116256873D01*
X94165584Y-116132211D01*
X94242120Y-115999272D01*
X94273477Y-115944650D01*
X94473780Y-115595400D01*
X97702058Y-115595400D01*
X97970252Y-116058950D01*
G37*
G36*
G01*
X97579600Y-30561100D02*
X96679600Y-30561100D01*
G75*
G02*
X96429600Y-30311100I0J250000D01*
G01*
X96429600Y-29786100D01*
G75*
G02*
X96679600Y-29536100I250000J0D01*
G01*
X97579600Y-29536100D01*
G75*
G02*
X97829600Y-29786100I0J-250000D01*
G01*
X97829600Y-30311100D01*
G75*
G02*
X97579600Y-30561100I-250000J0D01*
G01*
G37*
G36*
G01*
X97579600Y-28736100D02*
X96679600Y-28736100D01*
G75*
G02*
X96429600Y-28486100I0J250000D01*
G01*
X96429600Y-27961100D01*
G75*
G02*
X96679600Y-27711100I250000J0D01*
G01*
X97579600Y-27711100D01*
G75*
G02*
X97829600Y-27961100I0J-250000D01*
G01*
X97829600Y-28486100D01*
G75*
G02*
X97579600Y-28736100I-250000J0D01*
G01*
G37*
G36*
G01*
X104823600Y-39337000D02*
X104823600Y-38387000D01*
G75*
G02*
X105073600Y-38137000I250000J0D01*
G01*
X105573600Y-38137000D01*
G75*
G02*
X105823600Y-38387000I0J-250000D01*
G01*
X105823600Y-39337000D01*
G75*
G02*
X105573600Y-39587000I-250000J0D01*
G01*
X105073600Y-39587000D01*
G75*
G02*
X104823600Y-39337000I0J250000D01*
G01*
G37*
G36*
G01*
X106723600Y-39337000D02*
X106723600Y-38387000D01*
G75*
G02*
X106973600Y-38137000I250000J0D01*
G01*
X107473600Y-38137000D01*
G75*
G02*
X107723600Y-38387000I0J-250000D01*
G01*
X107723600Y-39337000D01*
G75*
G02*
X107473600Y-39587000I-250000J0D01*
G01*
X106973600Y-39587000D01*
G75*
G02*
X106723600Y-39337000I0J250000D01*
G01*
G37*
D11*
X194945000Y-52387500D03*
D12*
X196175000Y-49887500D03*
X197475000Y-47287500D03*
D13*
X200025000Y-52387500D03*
D12*
X202575000Y-47287500D03*
X203825000Y-49837500D03*
D11*
X205105000Y-52387500D03*
D14*
X193625800Y-47320200D03*
D15*
X207237000Y-49847500D03*
D11*
X137795000Y-76200000D03*
D12*
X139025000Y-73700000D03*
X140325000Y-71100000D03*
D13*
X142875000Y-76200000D03*
D12*
X145425000Y-71100000D03*
X146675000Y-73650000D03*
D11*
X147955000Y-76200000D03*
D14*
X136475800Y-71132700D03*
D15*
X150087000Y-73660000D03*
D11*
X213995000Y-52387500D03*
D12*
X215225000Y-49887500D03*
X216525000Y-47287500D03*
D13*
X219075000Y-52387500D03*
D12*
X221625000Y-47287500D03*
X222875000Y-49837500D03*
D11*
X224155000Y-52387500D03*
D14*
X212675800Y-47320200D03*
D15*
X226287000Y-49847500D03*
D16*
X101321000Y-28869400D03*
X107721000Y-28869400D03*
X102121000Y-28869400D03*
X106921000Y-28869400D03*
D17*
X105771000Y-28869400D03*
X104771000Y-28869400D03*
X104271000Y-28869400D03*
X103271000Y-28869400D03*
X102771000Y-28869400D03*
X103771000Y-28869400D03*
X105271000Y-28869400D03*
X106279000Y-28869400D03*
D18*
X98945700Y-24069400D03*
X110096300Y-24069400D03*
D19*
X98945700Y-27969400D03*
X110096300Y-27969400D03*
G36*
G01*
X110258000Y-47282000D02*
X110258000Y-47582000D01*
G75*
G02*
X110108000Y-47732000I-150000J0D01*
G01*
X109083000Y-47732000D01*
G75*
G02*
X108933000Y-47582000I0J150000D01*
G01*
X108933000Y-47282000D01*
G75*
G02*
X109083000Y-47132000I150000J0D01*
G01*
X110108000Y-47132000D01*
G75*
G02*
X110258000Y-47282000I0J-150000D01*
G01*
G37*
G36*
G01*
X110258000Y-46332000D02*
X110258000Y-46632000D01*
G75*
G02*
X110108000Y-46782000I-150000J0D01*
G01*
X109083000Y-46782000D01*
G75*
G02*
X108933000Y-46632000I0J150000D01*
G01*
X108933000Y-46332000D01*
G75*
G02*
X109083000Y-46182000I150000J0D01*
G01*
X110108000Y-46182000D01*
G75*
G02*
X110258000Y-46332000I0J-150000D01*
G01*
G37*
G36*
G01*
X110258000Y-45382000D02*
X110258000Y-45682000D01*
G75*
G02*
X110108000Y-45832000I-150000J0D01*
G01*
X109083000Y-45832000D01*
G75*
G02*
X108933000Y-45682000I0J150000D01*
G01*
X108933000Y-45382000D01*
G75*
G02*
X109083000Y-45232000I150000J0D01*
G01*
X110108000Y-45232000D01*
G75*
G02*
X110258000Y-45382000I0J-150000D01*
G01*
G37*
G36*
G01*
X107983000Y-45382000D02*
X107983000Y-45682000D01*
G75*
G02*
X107833000Y-45832000I-150000J0D01*
G01*
X106808000Y-45832000D01*
G75*
G02*
X106658000Y-45682000I0J150000D01*
G01*
X106658000Y-45382000D01*
G75*
G02*
X106808000Y-45232000I150000J0D01*
G01*
X107833000Y-45232000D01*
G75*
G02*
X107983000Y-45382000I0J-150000D01*
G01*
G37*
G36*
G01*
X107983000Y-47282000D02*
X107983000Y-47582000D01*
G75*
G02*
X107833000Y-47732000I-150000J0D01*
G01*
X106808000Y-47732000D01*
G75*
G02*
X106658000Y-47582000I0J150000D01*
G01*
X106658000Y-47282000D01*
G75*
G02*
X106808000Y-47132000I150000J0D01*
G01*
X107833000Y-47132000D01*
G75*
G02*
X107983000Y-47282000I0J-150000D01*
G01*
G37*
D20*
X100304600Y-108508800D03*
D21*
X105304600Y-108508800D03*
X102804600Y-108508800D03*
D22*
X97204600Y-101008800D03*
X108404600Y-101008800D03*
D21*
X105304600Y-94008800D03*
X100304600Y-94008800D03*
D11*
X137795000Y-114300000D03*
D12*
X139025000Y-111800000D03*
X140325000Y-109200000D03*
D13*
X142875000Y-114300000D03*
D12*
X145425000Y-109200000D03*
X146675000Y-111750000D03*
D11*
X147955000Y-114300000D03*
D14*
X136475800Y-109232700D03*
D15*
X150087000Y-111760000D03*
G36*
G01*
X100858500Y-44646000D02*
X100858500Y-43746000D01*
G75*
G02*
X101108500Y-43496000I250000J0D01*
G01*
X101633500Y-43496000D01*
G75*
G02*
X101883500Y-43746000I0J-250000D01*
G01*
X101883500Y-44646000D01*
G75*
G02*
X101633500Y-44896000I-250000J0D01*
G01*
X101108500Y-44896000D01*
G75*
G02*
X100858500Y-44646000I0J250000D01*
G01*
G37*
G36*
G01*
X102683500Y-44646000D02*
X102683500Y-43746000D01*
G75*
G02*
X102933500Y-43496000I250000J0D01*
G01*
X103458500Y-43496000D01*
G75*
G02*
X103708500Y-43746000I0J-250000D01*
G01*
X103708500Y-44646000D01*
G75*
G02*
X103458500Y-44896000I-250000J0D01*
G01*
X102933500Y-44896000D01*
G75*
G02*
X102683500Y-44646000I0J250000D01*
G01*
G37*
D11*
X90678000Y-77444600D03*
X90678000Y-82194600D03*
X93178000Y-76194600D03*
X93178000Y-83194600D03*
X118745000Y-80962500D03*
D12*
X119975000Y-78462500D03*
X121275000Y-75862500D03*
D13*
X123825000Y-80962500D03*
D12*
X126375000Y-75862500D03*
X127625000Y-78412500D03*
D11*
X128905000Y-80962500D03*
D14*
X117425800Y-75895200D03*
D15*
X131037000Y-78422500D03*
G36*
G01*
X130342800Y-26626000D02*
X130342800Y-25196000D01*
G75*
G02*
X130377800Y-25161000I35000J0D01*
G01*
X131007800Y-25161000D01*
G75*
G02*
X131042800Y-25196000I0J-35000D01*
G01*
X131042800Y-26626000D01*
G75*
G02*
X131007800Y-26661000I-35000J0D01*
G01*
X130377800Y-26661000D01*
G75*
G02*
X130342800Y-26626000I0J35000D01*
G01*
G37*
G36*
G01*
X129342800Y-26626000D02*
X129342800Y-25196000D01*
G75*
G02*
X129377800Y-25161000I35000J0D01*
G01*
X130007800Y-25161000D01*
G75*
G02*
X130042800Y-25196000I0J-35000D01*
G01*
X130042800Y-26626000D01*
G75*
G02*
X130007800Y-26661000I-35000J0D01*
G01*
X129377800Y-26661000D01*
G75*
G02*
X129342800Y-26626000I0J35000D01*
G01*
G37*
G36*
G01*
X128342800Y-26626000D02*
X128342800Y-25196000D01*
G75*
G02*
X128377800Y-25161000I35000J0D01*
G01*
X129007800Y-25161000D01*
G75*
G02*
X129042800Y-25196000I0J-35000D01*
G01*
X129042800Y-26626000D01*
G75*
G02*
X129007800Y-26661000I-35000J0D01*
G01*
X128377800Y-26661000D01*
G75*
G02*
X128342800Y-26626000I0J35000D01*
G01*
G37*
G36*
G01*
X133342800Y-24601000D02*
X133342800Y-25321000D01*
G75*
G02*
X133302800Y-25361000I-40000J0D01*
G01*
X132382800Y-25361000D01*
G75*
G02*
X132342800Y-25321000I0J40000D01*
G01*
X132342800Y-24601000D01*
G75*
G02*
X132382800Y-24561000I40000J0D01*
G01*
X133302800Y-24561000D01*
G75*
G02*
X133342800Y-24601000I0J-40000D01*
G01*
G37*
G36*
G01*
X133342800Y-22451000D02*
X133342800Y-23171000D01*
G75*
G02*
X133302800Y-23211000I-40000J0D01*
G01*
X132382800Y-23211000D01*
G75*
G02*
X132342800Y-23171000I0J40000D01*
G01*
X132342800Y-22451000D01*
G75*
G02*
X132382800Y-22411000I40000J0D01*
G01*
X133302800Y-22411000D01*
G75*
G02*
X133342800Y-22451000I0J-40000D01*
G01*
G37*
G36*
G01*
X127092800Y-24601000D02*
X127092800Y-25321000D01*
G75*
G02*
X127052800Y-25361000I-40000J0D01*
G01*
X126132800Y-25361000D01*
G75*
G02*
X126092800Y-25321000I0J40000D01*
G01*
X126092800Y-24601000D01*
G75*
G02*
X126132800Y-24561000I40000J0D01*
G01*
X127052800Y-24561000D01*
G75*
G02*
X127092800Y-24601000I0J-40000D01*
G01*
G37*
G36*
G01*
X127092800Y-22451000D02*
X127092800Y-23171000D01*
G75*
G02*
X127052800Y-23211000I-40000J0D01*
G01*
X126132800Y-23211000D01*
G75*
G02*
X126092800Y-23171000I0J40000D01*
G01*
X126092800Y-22451000D01*
G75*
G02*
X126132800Y-22411000I40000J0D01*
G01*
X127052800Y-22411000D01*
G75*
G02*
X127092800Y-22451000I0J-40000D01*
G01*
G37*
G36*
G01*
X93693400Y-74297600D02*
X92793400Y-74297600D01*
G75*
G02*
X92543400Y-74047600I0J250000D01*
G01*
X92543400Y-73522600D01*
G75*
G02*
X92793400Y-73272600I250000J0D01*
G01*
X93693400Y-73272600D01*
G75*
G02*
X93943400Y-73522600I0J-250000D01*
G01*
X93943400Y-74047600D01*
G75*
G02*
X93693400Y-74297600I-250000J0D01*
G01*
G37*
G36*
G01*
X93693400Y-72472600D02*
X92793400Y-72472600D01*
G75*
G02*
X92543400Y-72222600I0J250000D01*
G01*
X92543400Y-71697600D01*
G75*
G02*
X92793400Y-71447600I250000J0D01*
G01*
X93693400Y-71447600D01*
G75*
G02*
X93943400Y-71697600I0J-250000D01*
G01*
X93943400Y-72222600D01*
G75*
G02*
X93693400Y-72472600I-250000J0D01*
G01*
G37*
G36*
G01*
X109906500Y-30893600D02*
X109906500Y-31793600D01*
G75*
G02*
X109656500Y-32043600I-250000J0D01*
G01*
X109131500Y-32043600D01*
G75*
G02*
X108881500Y-31793600I0J250000D01*
G01*
X108881500Y-30893600D01*
G75*
G02*
X109131500Y-30643600I250000J0D01*
G01*
X109656500Y-30643600D01*
G75*
G02*
X109906500Y-30893600I0J-250000D01*
G01*
G37*
G36*
G01*
X108081500Y-30893600D02*
X108081500Y-31793600D01*
G75*
G02*
X107831500Y-32043600I-250000J0D01*
G01*
X107306500Y-32043600D01*
G75*
G02*
X107056500Y-31793600I0J250000D01*
G01*
X107056500Y-30893600D01*
G75*
G02*
X107306500Y-30643600I250000J0D01*
G01*
X107831500Y-30643600D01*
G75*
G02*
X108081500Y-30893600I0J-250000D01*
G01*
G37*
D11*
X156845000Y-52387500D03*
D12*
X158075000Y-49887500D03*
X159375000Y-47287500D03*
D13*
X161925000Y-52387500D03*
D12*
X164475000Y-47287500D03*
X165725000Y-49837500D03*
D11*
X167005000Y-52387500D03*
D14*
X155525800Y-47320200D03*
D15*
X169137000Y-49847500D03*
G36*
X97256600Y-77237000D02*
G01*
X96506600Y-76737000D01*
X96506600Y-75737000D01*
X98006600Y-75737000D01*
X98006600Y-76737000D01*
X97256600Y-77237000D01*
G37*
G36*
X96506600Y-78187000D02*
G01*
X96506600Y-77037000D01*
X97256600Y-77537000D01*
X98006600Y-77037000D01*
X98006600Y-78187000D01*
X96506600Y-78187000D01*
G37*
D23*
X97215800Y-80391400D03*
D24*
X99755800Y-80391400D03*
X102295800Y-80391400D03*
X104835800Y-80391400D03*
G36*
G01*
X97921000Y-34407000D02*
X97921000Y-33157000D01*
G75*
G02*
X98171000Y-32907000I250000J0D01*
G01*
X98921000Y-32907000D01*
G75*
G02*
X99171000Y-33157000I0J-250000D01*
G01*
X99171000Y-34407000D01*
G75*
G02*
X98921000Y-34657000I-250000J0D01*
G01*
X98171000Y-34657000D01*
G75*
G02*
X97921000Y-34407000I0J250000D01*
G01*
G37*
G36*
G01*
X100721000Y-34407000D02*
X100721000Y-33157000D01*
G75*
G02*
X100971000Y-32907000I250000J0D01*
G01*
X101721000Y-32907000D01*
G75*
G02*
X101971000Y-33157000I0J-250000D01*
G01*
X101971000Y-34407000D01*
G75*
G02*
X101721000Y-34657000I-250000J0D01*
G01*
X100971000Y-34657000D01*
G75*
G02*
X100721000Y-34407000I0J250000D01*
G01*
G37*
D11*
X175895000Y-95250000D03*
D12*
X177125000Y-92750000D03*
X178425000Y-90150000D03*
D13*
X180975000Y-95250000D03*
D12*
X183525000Y-90150000D03*
X184775000Y-92700000D03*
D11*
X186055000Y-95250000D03*
D14*
X174575800Y-90182700D03*
D15*
X188187000Y-92710000D03*
G36*
X102336600Y-77237000D02*
G01*
X101586600Y-76737000D01*
X101586600Y-75737000D01*
X103086600Y-75737000D01*
X103086600Y-76737000D01*
X102336600Y-77237000D01*
G37*
G36*
X101586600Y-78187000D02*
G01*
X101586600Y-77037000D01*
X102336600Y-77537000D01*
X103086600Y-77037000D01*
X103086600Y-78187000D01*
X101586600Y-78187000D01*
G37*
D25*
X104825800Y-127584200D03*
D11*
X175895000Y-76200000D03*
D12*
X177125000Y-73700000D03*
X178425000Y-71100000D03*
D13*
X180975000Y-76200000D03*
D12*
X183525000Y-71100000D03*
X184775000Y-73650000D03*
D11*
X186055000Y-76200000D03*
D14*
X174575800Y-71132700D03*
D15*
X188187000Y-73660000D03*
G36*
G01*
X96468250Y-40287000D02*
X95555750Y-40287000D01*
G75*
G02*
X95312000Y-40043250I0J243750D01*
G01*
X95312000Y-39555750D01*
G75*
G02*
X95555750Y-39312000I243750J0D01*
G01*
X96468250Y-39312000D01*
G75*
G02*
X96712000Y-39555750I0J-243750D01*
G01*
X96712000Y-40043250D01*
G75*
G02*
X96468250Y-40287000I-243750J0D01*
G01*
G37*
G36*
G01*
X96468250Y-38412000D02*
X95555750Y-38412000D01*
G75*
G02*
X95312000Y-38168250I0J243750D01*
G01*
X95312000Y-37680750D01*
G75*
G02*
X95555750Y-37437000I243750J0D01*
G01*
X96468250Y-37437000D01*
G75*
G02*
X96712000Y-37680750I0J-243750D01*
G01*
X96712000Y-38168250D01*
G75*
G02*
X96468250Y-38412000I-243750J0D01*
G01*
G37*
D11*
X118745000Y-100012500D03*
D12*
X119975000Y-97512500D03*
X121275000Y-94912500D03*
D13*
X123825000Y-100012500D03*
D12*
X126375000Y-94912500D03*
X127625000Y-97462500D03*
D11*
X128905000Y-100012500D03*
D14*
X117425800Y-94945200D03*
D15*
X131037000Y-97472500D03*
G36*
X99822000Y-77237000D02*
G01*
X99072000Y-76737000D01*
X99072000Y-75737000D01*
X100572000Y-75737000D01*
X100572000Y-76737000D01*
X99822000Y-77237000D01*
G37*
G36*
X99072000Y-78187000D02*
G01*
X99072000Y-77037000D01*
X99822000Y-77537000D01*
X100572000Y-77037000D01*
X100572000Y-78187000D01*
X99072000Y-78187000D01*
G37*
D11*
X175895000Y-38100000D03*
D12*
X177125000Y-35600000D03*
X178425000Y-33000000D03*
D13*
X180975000Y-38100000D03*
D12*
X183525000Y-33000000D03*
X184775000Y-35550000D03*
D11*
X186055000Y-38100000D03*
D14*
X174575800Y-33032700D03*
D15*
X188187000Y-35560000D03*
G36*
G01*
X100256000Y-43721000D02*
X100256000Y-44671000D01*
G75*
G02*
X100006000Y-44921000I-250000J0D01*
G01*
X99506000Y-44921000D01*
G75*
G02*
X99256000Y-44671000I0J250000D01*
G01*
X99256000Y-43721000D01*
G75*
G02*
X99506000Y-43471000I250000J0D01*
G01*
X100006000Y-43471000D01*
G75*
G02*
X100256000Y-43721000I0J-250000D01*
G01*
G37*
G36*
G01*
X98356000Y-43721000D02*
X98356000Y-44671000D01*
G75*
G02*
X98106000Y-44921000I-250000J0D01*
G01*
X97606000Y-44921000D01*
G75*
G02*
X97356000Y-44671000I0J250000D01*
G01*
X97356000Y-43721000D01*
G75*
G02*
X97606000Y-43471000I250000J0D01*
G01*
X98106000Y-43471000D01*
G75*
G02*
X98356000Y-43721000I0J-250000D01*
G01*
G37*
D26*
X95057700Y-106596900D03*
D27*
X95057700Y-96486900D03*
X95057700Y-99026900D03*
X95057700Y-101566900D03*
X95057700Y-104106900D03*
X93832700Y-94096900D03*
X95682700Y-94096900D03*
D11*
X213995000Y-71437500D03*
D12*
X215225000Y-68937500D03*
X216525000Y-66337500D03*
D13*
X219075000Y-71437500D03*
D12*
X221625000Y-66337500D03*
X222875000Y-68887500D03*
D11*
X224155000Y-71437500D03*
D14*
X212675800Y-66370200D03*
D15*
X226287000Y-68897500D03*
G36*
G01*
X95731650Y-74274500D02*
X94819150Y-74274500D01*
G75*
G02*
X94575400Y-74030750I0J243750D01*
G01*
X94575400Y-73543250D01*
G75*
G02*
X94819150Y-73299500I243750J0D01*
G01*
X95731650Y-73299500D01*
G75*
G02*
X95975400Y-73543250I0J-243750D01*
G01*
X95975400Y-74030750D01*
G75*
G02*
X95731650Y-74274500I-243750J0D01*
G01*
G37*
G36*
G01*
X95731650Y-72399500D02*
X94819150Y-72399500D01*
G75*
G02*
X94575400Y-72155750I0J243750D01*
G01*
X94575400Y-71668250D01*
G75*
G02*
X94819150Y-71424500I243750J0D01*
G01*
X95731650Y-71424500D01*
G75*
G02*
X95975400Y-71668250I0J-243750D01*
G01*
X95975400Y-72155750D01*
G75*
G02*
X95731650Y-72399500I-243750J0D01*
G01*
G37*
D28*
X105621000Y-32824800D03*
D29*
X105621000Y-31104800D03*
X103421000Y-31104800D03*
X103421000Y-33004800D03*
D25*
X209956400Y-38379400D03*
D11*
X156845000Y-90487500D03*
D12*
X158075000Y-87987500D03*
X159375000Y-85387500D03*
D13*
X161925000Y-90487500D03*
D12*
X164475000Y-85387500D03*
X165725000Y-87937500D03*
D11*
X167005000Y-90487500D03*
D14*
X155525800Y-85420200D03*
D15*
X169137000Y-87947500D03*
D23*
X89662000Y-37856000D03*
D24*
X89662000Y-40396000D03*
X89662000Y-42936000D03*
X89662000Y-45476000D03*
D11*
X213995000Y-109537500D03*
D12*
X215225000Y-107037500D03*
X216525000Y-104437500D03*
D13*
X219075000Y-109537500D03*
D12*
X221625000Y-104437500D03*
X222875000Y-106987500D03*
D11*
X224155000Y-109537500D03*
D14*
X212675800Y-104470200D03*
D15*
X226287000Y-106997500D03*
G36*
G01*
X99186300Y-31793600D02*
X99186300Y-30893600D01*
G75*
G02*
X99436300Y-30643600I250000J0D01*
G01*
X99961300Y-30643600D01*
G75*
G02*
X100211300Y-30893600I0J-250000D01*
G01*
X100211300Y-31793600D01*
G75*
G02*
X99961300Y-32043600I-250000J0D01*
G01*
X99436300Y-32043600D01*
G75*
G02*
X99186300Y-31793600I0J250000D01*
G01*
G37*
G36*
G01*
X101011300Y-31793600D02*
X101011300Y-30893600D01*
G75*
G02*
X101261300Y-30643600I250000J0D01*
G01*
X101786300Y-30643600D01*
G75*
G02*
X102036300Y-30893600I0J-250000D01*
G01*
X102036300Y-31793600D01*
G75*
G02*
X101786300Y-32043600I-250000J0D01*
G01*
X101261300Y-32043600D01*
G75*
G02*
X101011300Y-31793600I0J250000D01*
G01*
G37*
D11*
X194945000Y-109537500D03*
D12*
X196175000Y-107037500D03*
X197475000Y-104437500D03*
D13*
X200025000Y-109537500D03*
D12*
X202575000Y-104437500D03*
X203825000Y-106987500D03*
D11*
X205105000Y-109537500D03*
D14*
X193625800Y-104470200D03*
D15*
X207237000Y-106997500D03*
D11*
X156845000Y-71437500D03*
D12*
X158075000Y-68937500D03*
X159375000Y-66337500D03*
D13*
X161925000Y-71437500D03*
D12*
X164475000Y-66337500D03*
X165725000Y-68887500D03*
D11*
X167005000Y-71437500D03*
D14*
X155525800Y-66370200D03*
D15*
X169137000Y-68897500D03*
G36*
G01*
X104291000Y-39916000D02*
X104291000Y-40216000D01*
G75*
G02*
X104141000Y-40366000I-150000J0D01*
G01*
X102966000Y-40366000D01*
G75*
G02*
X102816000Y-40216000I0J150000D01*
G01*
X102816000Y-39916000D01*
G75*
G02*
X102966000Y-39766000I150000J0D01*
G01*
X104141000Y-39766000D01*
G75*
G02*
X104291000Y-39916000I0J-150000D01*
G01*
G37*
G36*
G01*
X104291000Y-38016000D02*
X104291000Y-38316000D01*
G75*
G02*
X104141000Y-38466000I-150000J0D01*
G01*
X102966000Y-38466000D01*
G75*
G02*
X102816000Y-38316000I0J150000D01*
G01*
X102816000Y-38016000D01*
G75*
G02*
X102966000Y-37866000I150000J0D01*
G01*
X104141000Y-37866000D01*
G75*
G02*
X104291000Y-38016000I0J-150000D01*
G01*
G37*
G36*
G01*
X102416000Y-38966000D02*
X102416000Y-39266000D01*
G75*
G02*
X102266000Y-39416000I-150000J0D01*
G01*
X101091000Y-39416000D01*
G75*
G02*
X100941000Y-39266000I0J150000D01*
G01*
X100941000Y-38966000D01*
G75*
G02*
X101091000Y-38816000I150000J0D01*
G01*
X102266000Y-38816000D01*
G75*
G02*
X102416000Y-38966000I0J-150000D01*
G01*
G37*
D11*
X118745000Y-61912500D03*
D12*
X119975000Y-59412500D03*
X121275000Y-56812500D03*
D13*
X123825000Y-61912500D03*
D12*
X126375000Y-56812500D03*
X127625000Y-59362500D03*
D11*
X128905000Y-61912500D03*
D14*
X117425800Y-56845200D03*
D15*
X131037000Y-59372500D03*
D30*
X92826600Y-67938600D03*
X93926600Y-67938600D03*
X95026600Y-67938600D03*
X96126600Y-67938600D03*
X97226600Y-67938600D03*
X98326600Y-67938600D03*
X99426600Y-67938600D03*
X100526600Y-67938600D03*
X101626600Y-67938600D03*
X102726600Y-67938600D03*
X103826600Y-67938600D03*
X104926600Y-67938600D03*
X106026600Y-67938600D03*
D31*
X107526600Y-66688600D03*
X107526600Y-65588600D03*
X107526600Y-64488600D03*
X107526600Y-63388600D03*
X107526600Y-62288600D03*
X107526600Y-61188600D03*
X107526600Y-60088600D03*
X107526600Y-58988600D03*
X107526600Y-57888600D03*
X107526600Y-56788600D03*
X107526600Y-55688600D03*
D30*
X106026600Y-54438600D03*
X104926600Y-54438600D03*
X103826600Y-54438600D03*
X102726600Y-54438600D03*
X101626600Y-54438600D03*
X100526600Y-54438600D03*
X99426600Y-54438600D03*
X98326600Y-54438600D03*
X97226600Y-54438600D03*
X96126600Y-54438600D03*
X95026600Y-54438600D03*
X93926600Y-54438600D03*
X92826600Y-54438600D03*
X95026600Y-65438600D03*
X96126600Y-65438600D03*
X97226600Y-65438600D03*
X98326600Y-65438600D03*
X99426600Y-65438600D03*
X100526600Y-65438600D03*
X101626600Y-65438600D03*
X102726600Y-65438600D03*
X103826600Y-65438600D03*
X95026600Y-56938600D03*
X96126600Y-56938600D03*
X97226600Y-56938600D03*
X98326600Y-56938600D03*
X99426600Y-56938600D03*
X100526600Y-56938600D03*
X101626600Y-56938600D03*
X102726600Y-56938600D03*
X103826600Y-56938600D03*
G36*
G01*
X112943400Y-31310800D02*
X111643400Y-31310800D01*
G75*
G02*
X111393400Y-31060800I0J250000D01*
G01*
X111393400Y-30410800D01*
G75*
G02*
X111643400Y-30160800I250000J0D01*
G01*
X112943400Y-30160800D01*
G75*
G02*
X113193400Y-30410800I0J-250000D01*
G01*
X113193400Y-31060800D01*
G75*
G02*
X112943400Y-31310800I-250000J0D01*
G01*
G37*
G36*
G01*
X112943400Y-28360800D02*
X111643400Y-28360800D01*
G75*
G02*
X111393400Y-28110800I0J250000D01*
G01*
X111393400Y-27460800D01*
G75*
G02*
X111643400Y-27210800I250000J0D01*
G01*
X112943400Y-27210800D01*
G75*
G02*
X113193400Y-27460800I0J-250000D01*
G01*
X113193400Y-28110800D01*
G75*
G02*
X112943400Y-28360800I-250000J0D01*
G01*
G37*
G36*
G01*
X97302500Y-36518000D02*
X97302500Y-35618000D01*
G75*
G02*
X97552500Y-35368000I250000J0D01*
G01*
X98077500Y-35368000D01*
G75*
G02*
X98327500Y-35618000I0J-250000D01*
G01*
X98327500Y-36518000D01*
G75*
G02*
X98077500Y-36768000I-250000J0D01*
G01*
X97552500Y-36768000D01*
G75*
G02*
X97302500Y-36518000I0J250000D01*
G01*
G37*
G36*
G01*
X99127500Y-36518000D02*
X99127500Y-35618000D01*
G75*
G02*
X99377500Y-35368000I250000J0D01*
G01*
X99902500Y-35368000D01*
G75*
G02*
X100152500Y-35618000I0J-250000D01*
G01*
X100152500Y-36518000D01*
G75*
G02*
X99902500Y-36768000I-250000J0D01*
G01*
X99377500Y-36768000D01*
G75*
G02*
X99127500Y-36518000I0J250000D01*
G01*
G37*
G36*
X104800400Y-77237000D02*
G01*
X104050400Y-76737000D01*
X104050400Y-75737000D01*
X105550400Y-75737000D01*
X105550400Y-76737000D01*
X104800400Y-77237000D01*
G37*
G36*
X104050400Y-78187000D02*
G01*
X104050400Y-77037000D01*
X104800400Y-77537000D01*
X105550400Y-77037000D01*
X105550400Y-78187000D01*
X104050400Y-78187000D01*
G37*
D11*
X118745000Y-42862500D03*
D12*
X119975000Y-40362500D03*
X121275000Y-37762500D03*
D13*
X123825000Y-42862500D03*
D12*
X126375000Y-37762500D03*
X127625000Y-40312500D03*
D11*
X128905000Y-42862500D03*
D14*
X117425800Y-37795200D03*
D15*
X131037000Y-40322500D03*
D11*
X137795000Y-57150000D03*
D12*
X139025000Y-54650000D03*
X140325000Y-52050000D03*
D13*
X142875000Y-57150000D03*
D12*
X145425000Y-52050000D03*
X146675000Y-54600000D03*
D11*
X147955000Y-57150000D03*
D14*
X136475800Y-52082700D03*
D15*
X150087000Y-54610000D03*
D11*
X137795000Y-38100000D03*
D12*
X139025000Y-35600000D03*
X140325000Y-33000000D03*
D13*
X142875000Y-38100000D03*
D12*
X145425000Y-33000000D03*
X146675000Y-35550000D03*
D11*
X147955000Y-38100000D03*
D14*
X136475800Y-33032700D03*
D15*
X150087000Y-35560000D03*
D11*
X156845000Y-109537500D03*
D12*
X158075000Y-107037500D03*
X159375000Y-104437500D03*
D13*
X161925000Y-109537500D03*
D12*
X164475000Y-104437500D03*
X165725000Y-106987500D03*
D11*
X167005000Y-109537500D03*
D14*
X155525800Y-104470200D03*
D15*
X169137000Y-106997500D03*
D32*
X107676000Y-42164000D03*
X105176000Y-42164000D03*
D11*
X213995000Y-90487500D03*
D12*
X215225000Y-87987500D03*
X216525000Y-85387500D03*
D13*
X219075000Y-90487500D03*
D12*
X221625000Y-85387500D03*
X222875000Y-87937500D03*
D11*
X224155000Y-90487500D03*
D14*
X212675800Y-85420200D03*
D15*
X226287000Y-87947500D03*
G36*
G01*
X103611500Y-41714000D02*
X103611500Y-42614000D01*
G75*
G02*
X103361500Y-42864000I-250000J0D01*
G01*
X102836500Y-42864000D01*
G75*
G02*
X102586500Y-42614000I0J250000D01*
G01*
X102586500Y-41714000D01*
G75*
G02*
X102836500Y-41464000I250000J0D01*
G01*
X103361500Y-41464000D01*
G75*
G02*
X103611500Y-41714000I0J-250000D01*
G01*
G37*
G36*
G01*
X101786500Y-41714000D02*
X101786500Y-42614000D01*
G75*
G02*
X101536500Y-42864000I-250000J0D01*
G01*
X101011500Y-42864000D01*
G75*
G02*
X100761500Y-42614000I0J250000D01*
G01*
X100761500Y-41714000D01*
G75*
G02*
X101011500Y-41464000I250000J0D01*
G01*
X101536500Y-41464000D01*
G75*
G02*
X101786500Y-41714000I0J-250000D01*
G01*
G37*
D11*
X175895000Y-57150000D03*
D12*
X177125000Y-54650000D03*
X178425000Y-52050000D03*
D13*
X180975000Y-57150000D03*
D12*
X183525000Y-52050000D03*
X184775000Y-54600000D03*
D11*
X186055000Y-57150000D03*
D14*
X174575800Y-52082700D03*
D15*
X188187000Y-54610000D03*
G36*
G01*
X96675000Y-35618000D02*
X96675000Y-36518000D01*
G75*
G02*
X96425000Y-36768000I-250000J0D01*
G01*
X95900000Y-36768000D01*
G75*
G02*
X95650000Y-36518000I0J250000D01*
G01*
X95650000Y-35618000D01*
G75*
G02*
X95900000Y-35368000I250000J0D01*
G01*
X96425000Y-35368000D01*
G75*
G02*
X96675000Y-35618000I0J-250000D01*
G01*
G37*
G36*
G01*
X94850000Y-35618000D02*
X94850000Y-36518000D01*
G75*
G02*
X94600000Y-36768000I-250000J0D01*
G01*
X94075000Y-36768000D01*
G75*
G02*
X93825000Y-36518000I0J250000D01*
G01*
X93825000Y-35618000D01*
G75*
G02*
X94075000Y-35368000I250000J0D01*
G01*
X94600000Y-35368000D01*
G75*
G02*
X94850000Y-35618000I0J-250000D01*
G01*
G37*
G36*
G01*
X117516600Y-24856600D02*
X117516600Y-23606600D01*
G75*
G02*
X117766600Y-23356600I250000J0D01*
G01*
X118466600Y-23356600D01*
G75*
G02*
X118716600Y-23606600I0J-250000D01*
G01*
X118716600Y-24856600D01*
G75*
G02*
X118466600Y-25106600I-250000J0D01*
G01*
X117766600Y-25106600D01*
G75*
G02*
X117516600Y-24856600I0J250000D01*
G01*
G37*
D33*
X120116600Y-24231600D03*
X122116600Y-24231600D03*
G36*
G01*
X94430000Y-40287000D02*
X93530000Y-40287000D01*
G75*
G02*
X93280000Y-40037000I0J250000D01*
G01*
X93280000Y-39512000D01*
G75*
G02*
X93530000Y-39262000I250000J0D01*
G01*
X94430000Y-39262000D01*
G75*
G02*
X94680000Y-39512000I0J-250000D01*
G01*
X94680000Y-40037000D01*
G75*
G02*
X94430000Y-40287000I-250000J0D01*
G01*
G37*
G36*
G01*
X94430000Y-38462000D02*
X93530000Y-38462000D01*
G75*
G02*
X93280000Y-38212000I0J250000D01*
G01*
X93280000Y-37687000D01*
G75*
G02*
X93530000Y-37437000I250000J0D01*
G01*
X94430000Y-37437000D01*
G75*
G02*
X94680000Y-37687000I0J-250000D01*
G01*
X94680000Y-38212000D01*
G75*
G02*
X94430000Y-38462000I-250000J0D01*
G01*
G37*
G36*
G01*
X100229000Y-41689000D02*
X100229000Y-42639000D01*
G75*
G02*
X99979000Y-42889000I-250000J0D01*
G01*
X99479000Y-42889000D01*
G75*
G02*
X99229000Y-42639000I0J250000D01*
G01*
X99229000Y-41689000D01*
G75*
G02*
X99479000Y-41439000I250000J0D01*
G01*
X99979000Y-41439000D01*
G75*
G02*
X100229000Y-41689000I0J-250000D01*
G01*
G37*
G36*
G01*
X98329000Y-41689000D02*
X98329000Y-42639000D01*
G75*
G02*
X98079000Y-42889000I-250000J0D01*
G01*
X97579000Y-42889000D01*
G75*
G02*
X97329000Y-42639000I0J250000D01*
G01*
X97329000Y-41689000D01*
G75*
G02*
X97579000Y-41439000I250000J0D01*
G01*
X98079000Y-41439000D01*
G75*
G02*
X98329000Y-41689000I0J-250000D01*
G01*
G37*
D11*
X175895000Y-114300000D03*
D12*
X177125000Y-111800000D03*
X178425000Y-109200000D03*
D13*
X180975000Y-114300000D03*
D12*
X183525000Y-109200000D03*
X184775000Y-111750000D03*
D11*
X186055000Y-114300000D03*
D14*
X174575800Y-109232700D03*
D15*
X188187000Y-111760000D03*
D11*
X137795000Y-95250000D03*
D12*
X139025000Y-92750000D03*
X140325000Y-90150000D03*
D13*
X142875000Y-95250000D03*
D12*
X145425000Y-90150000D03*
X146675000Y-92700000D03*
D11*
X147955000Y-95250000D03*
D14*
X136475800Y-90182700D03*
D15*
X150087000Y-92710000D03*
D11*
X156845000Y-33337500D03*
D12*
X158075000Y-30837500D03*
X159375000Y-28237500D03*
D13*
X161925000Y-33337500D03*
D12*
X164475000Y-28237500D03*
X165725000Y-30787500D03*
D11*
X167005000Y-33337500D03*
D14*
X155525800Y-28270200D03*
D15*
X169137000Y-30797500D03*
D25*
X190093600Y-122047000D03*
X142875000Y-27559000D03*
D11*
X194945000Y-71437500D03*
D12*
X196175000Y-68937500D03*
X197475000Y-66337500D03*
D13*
X200025000Y-71437500D03*
D12*
X202575000Y-66337500D03*
X203825000Y-68887500D03*
D11*
X205105000Y-71437500D03*
D14*
X193625800Y-66370200D03*
D15*
X207237000Y-68897500D03*
D11*
X194945000Y-90487500D03*
D12*
X196175000Y-87987500D03*
X197475000Y-85387500D03*
D13*
X200025000Y-90487500D03*
D12*
X202575000Y-85387500D03*
X203825000Y-87937500D03*
D11*
X205105000Y-90487500D03*
D14*
X193625800Y-85420200D03*
D15*
X207237000Y-87947500D03*
D11*
X113838097Y-125139801D03*
D12*
X114379138Y-122406639D03*
X114961912Y-119558767D03*
D13*
X118745000Y-123825000D03*
D12*
X119888134Y-118238790D03*
X121755530Y-120378377D03*
D11*
X123651903Y-122510199D03*
G36*
X111967180Y-119100961D02*
G01*
X112614228Y-121515776D01*
X110537488Y-122072237D01*
X109890440Y-119657422D01*
X111967180Y-119100961D01*
G37*
G36*
X124242418Y-121016465D02*
G01*
X123595370Y-118601650D01*
X125865296Y-117993425D01*
X126512344Y-120408240D01*
X124242418Y-121016465D01*
G37*
G36*
G01*
X98006000Y-40916000D02*
X97706000Y-40916000D01*
G75*
G02*
X97556000Y-40766000I0J150000D01*
G01*
X97556000Y-39741000D01*
G75*
G02*
X97706000Y-39591000I150000J0D01*
G01*
X98006000Y-39591000D01*
G75*
G02*
X98156000Y-39741000I0J-150000D01*
G01*
X98156000Y-40766000D01*
G75*
G02*
X98006000Y-40916000I-150000J0D01*
G01*
G37*
G36*
G01*
X98956000Y-40916000D02*
X98656000Y-40916000D01*
G75*
G02*
X98506000Y-40766000I0J150000D01*
G01*
X98506000Y-39741000D01*
G75*
G02*
X98656000Y-39591000I150000J0D01*
G01*
X98956000Y-39591000D01*
G75*
G02*
X99106000Y-39741000I0J-150000D01*
G01*
X99106000Y-40766000D01*
G75*
G02*
X98956000Y-40916000I-150000J0D01*
G01*
G37*
G36*
G01*
X99906000Y-40916000D02*
X99606000Y-40916000D01*
G75*
G02*
X99456000Y-40766000I0J150000D01*
G01*
X99456000Y-39741000D01*
G75*
G02*
X99606000Y-39591000I150000J0D01*
G01*
X99906000Y-39591000D01*
G75*
G02*
X100056000Y-39741000I0J-150000D01*
G01*
X100056000Y-40766000D01*
G75*
G02*
X99906000Y-40916000I-150000J0D01*
G01*
G37*
G36*
G01*
X99906000Y-38641000D02*
X99606000Y-38641000D01*
G75*
G02*
X99456000Y-38491000I0J150000D01*
G01*
X99456000Y-37466000D01*
G75*
G02*
X99606000Y-37316000I150000J0D01*
G01*
X99906000Y-37316000D01*
G75*
G02*
X100056000Y-37466000I0J-150000D01*
G01*
X100056000Y-38491000D01*
G75*
G02*
X99906000Y-38641000I-150000J0D01*
G01*
G37*
G36*
G01*
X98006000Y-38641000D02*
X97706000Y-38641000D01*
G75*
G02*
X97556000Y-38491000I0J150000D01*
G01*
X97556000Y-37466000D01*
G75*
G02*
X97706000Y-37316000I150000J0D01*
G01*
X98006000Y-37316000D01*
G75*
G02*
X98156000Y-37466000I0J-150000D01*
G01*
X98156000Y-38491000D01*
G75*
G02*
X98006000Y-38641000I-150000J0D01*
G01*
G37*
X86024591Y-135382000D03*
D12*
X85839802Y-132601936D03*
X85665635Y-129700270D03*
D13*
X90424000Y-132842000D03*
D12*
X90082365Y-127150270D03*
X92439897Y-128733635D03*
D11*
X94823409Y-130302000D03*
G36*
X82654457Y-130033157D02*
G01*
X83904457Y-132198221D01*
X82042503Y-133273221D01*
X80792503Y-131108157D01*
X82654457Y-130033157D01*
G37*
G36*
X95007195Y-128706327D02*
G01*
X93757195Y-126541263D01*
X95792355Y-125366263D01*
X97042355Y-127531327D01*
X95007195Y-128706327D01*
G37*
D25*
X91033600Y-86893400D03*
G36*
G01*
X192665000Y-57589000D02*
X193415000Y-57589000D01*
G75*
G02*
X193640000Y-57814000I0J-225000D01*
G01*
X193640000Y-58264000D01*
G75*
G02*
X193415000Y-58489000I-225000J0D01*
G01*
X192665000Y-58489000D01*
G75*
G02*
X192440000Y-58264000I0J225000D01*
G01*
X192440000Y-57814000D01*
G75*
G02*
X192665000Y-57589000I225000J0D01*
G01*
G37*
G36*
G01*
X192665000Y-54288000D02*
X193415000Y-54288000D01*
G75*
G02*
X193640000Y-54513000I0J-225000D01*
G01*
X193640000Y-54963000D01*
G75*
G02*
X193415000Y-55188000I-225000J0D01*
G01*
X192665000Y-55188000D01*
G75*
G02*
X192440000Y-54963000I0J225000D01*
G01*
X192440000Y-54513000D01*
G75*
G02*
X192665000Y-54288000I225000J0D01*
G01*
G37*
G36*
G01*
X192665000Y-96071000D02*
X193415000Y-96071000D01*
G75*
G02*
X193640000Y-96296000I0J-225000D01*
G01*
X193640000Y-96746000D01*
G75*
G02*
X193415000Y-96971000I-225000J0D01*
G01*
X192665000Y-96971000D01*
G75*
G02*
X192440000Y-96746000I0J225000D01*
G01*
X192440000Y-96296000D01*
G75*
G02*
X192665000Y-96071000I225000J0D01*
G01*
G37*
G36*
G01*
X192665000Y-92770000D02*
X193415000Y-92770000D01*
G75*
G02*
X193640000Y-92995000I0J-225000D01*
G01*
X193640000Y-93445000D01*
G75*
G02*
X193415000Y-93670000I-225000J0D01*
G01*
X192665000Y-93670000D01*
G75*
G02*
X192440000Y-93445000I0J225000D01*
G01*
X192440000Y-92995000D01*
G75*
G02*
X192665000Y-92770000I225000J0D01*
G01*
G37*
G36*
G01*
X211715000Y-96071000D02*
X212465000Y-96071000D01*
G75*
G02*
X212690000Y-96296000I0J-225000D01*
G01*
X212690000Y-96746000D01*
G75*
G02*
X212465000Y-96971000I-225000J0D01*
G01*
X211715000Y-96971000D01*
G75*
G02*
X211490000Y-96746000I0J225000D01*
G01*
X211490000Y-96296000D01*
G75*
G02*
X211715000Y-96071000I225000J0D01*
G01*
G37*
G36*
G01*
X211715000Y-92770000D02*
X212465000Y-92770000D01*
G75*
G02*
X212690000Y-92995000I0J-225000D01*
G01*
X212690000Y-93445000D01*
G75*
G02*
X212465000Y-93670000I-225000J0D01*
G01*
X211715000Y-93670000D01*
G75*
G02*
X211490000Y-93445000I0J225000D01*
G01*
X211490000Y-92995000D01*
G75*
G02*
X211715000Y-92770000I225000J0D01*
G01*
G37*
G36*
G01*
X211715000Y-77021000D02*
X212465000Y-77021000D01*
G75*
G02*
X212690000Y-77246000I0J-225000D01*
G01*
X212690000Y-77696000D01*
G75*
G02*
X212465000Y-77921000I-225000J0D01*
G01*
X211715000Y-77921000D01*
G75*
G02*
X211490000Y-77696000I0J225000D01*
G01*
X211490000Y-77246000D01*
G75*
G02*
X211715000Y-77021000I225000J0D01*
G01*
G37*
G36*
G01*
X211715000Y-73720000D02*
X212465000Y-73720000D01*
G75*
G02*
X212690000Y-73945000I0J-225000D01*
G01*
X212690000Y-74395000D01*
G75*
G02*
X212465000Y-74620000I-225000J0D01*
G01*
X211715000Y-74620000D01*
G75*
G02*
X211490000Y-74395000I0J225000D01*
G01*
X211490000Y-73945000D01*
G75*
G02*
X211715000Y-73720000I225000J0D01*
G01*
G37*
G36*
G01*
X192665000Y-115121000D02*
X193415000Y-115121000D01*
G75*
G02*
X193640000Y-115346000I0J-225000D01*
G01*
X193640000Y-115796000D01*
G75*
G02*
X193415000Y-116021000I-225000J0D01*
G01*
X192665000Y-116021000D01*
G75*
G02*
X192440000Y-115796000I0J225000D01*
G01*
X192440000Y-115346000D01*
G75*
G02*
X192665000Y-115121000I225000J0D01*
G01*
G37*
G36*
G01*
X192665000Y-111820000D02*
X193415000Y-111820000D01*
G75*
G02*
X193640000Y-112045000I0J-225000D01*
G01*
X193640000Y-112495000D01*
G75*
G02*
X193415000Y-112720000I-225000J0D01*
G01*
X192665000Y-112720000D01*
G75*
G02*
X192440000Y-112495000I0J225000D01*
G01*
X192440000Y-112045000D01*
G75*
G02*
X192665000Y-111820000I225000J0D01*
G01*
G37*
G36*
G01*
X135515000Y-62797000D02*
X136265000Y-62797000D01*
G75*
G02*
X136490000Y-63022000I0J-225000D01*
G01*
X136490000Y-63472000D01*
G75*
G02*
X136265000Y-63697000I-225000J0D01*
G01*
X135515000Y-63697000D01*
G75*
G02*
X135290000Y-63472000I0J225000D01*
G01*
X135290000Y-63022000D01*
G75*
G02*
X135515000Y-62797000I225000J0D01*
G01*
G37*
G36*
G01*
X135515000Y-59496000D02*
X136265000Y-59496000D01*
G75*
G02*
X136490000Y-59721000I0J-225000D01*
G01*
X136490000Y-60171000D01*
G75*
G02*
X136265000Y-60396000I-225000J0D01*
G01*
X135515000Y-60396000D01*
G75*
G02*
X135290000Y-60171000I0J225000D01*
G01*
X135290000Y-59721000D01*
G75*
G02*
X135515000Y-59496000I225000J0D01*
G01*
G37*
G36*
G01*
X116465000Y-86799000D02*
X117215000Y-86799000D01*
G75*
G02*
X117440000Y-87024000I0J-225000D01*
G01*
X117440000Y-87474000D01*
G75*
G02*
X117215000Y-87699000I-225000J0D01*
G01*
X116465000Y-87699000D01*
G75*
G02*
X116240000Y-87474000I0J225000D01*
G01*
X116240000Y-87024000D01*
G75*
G02*
X116465000Y-86799000I225000J0D01*
G01*
G37*
G36*
G01*
X116465000Y-83498000D02*
X117215000Y-83498000D01*
G75*
G02*
X117440000Y-83723000I0J-225000D01*
G01*
X117440000Y-84173000D01*
G75*
G02*
X117215000Y-84398000I-225000J0D01*
G01*
X116465000Y-84398000D01*
G75*
G02*
X116240000Y-84173000I0J225000D01*
G01*
X116240000Y-83723000D01*
G75*
G02*
X116465000Y-83498000I225000J0D01*
G01*
G37*
G36*
G01*
X154565000Y-96197000D02*
X155315000Y-96197000D01*
G75*
G02*
X155540000Y-96422000I0J-225000D01*
G01*
X155540000Y-96872000D01*
G75*
G02*
X155315000Y-97097000I-225000J0D01*
G01*
X154565000Y-97097000D01*
G75*
G02*
X154340000Y-96872000I0J225000D01*
G01*
X154340000Y-96422000D01*
G75*
G02*
X154565000Y-96197000I225000J0D01*
G01*
G37*
G36*
G01*
X154565000Y-92896000D02*
X155315000Y-92896000D01*
G75*
G02*
X155540000Y-93121000I0J-225000D01*
G01*
X155540000Y-93571000D01*
G75*
G02*
X155315000Y-93796000I-225000J0D01*
G01*
X154565000Y-93796000D01*
G75*
G02*
X154340000Y-93571000I0J225000D01*
G01*
X154340000Y-93121000D01*
G75*
G02*
X154565000Y-92896000I225000J0D01*
G01*
G37*
G36*
G01*
X116465000Y-67749000D02*
X117215000Y-67749000D01*
G75*
G02*
X117440000Y-67974000I0J-225000D01*
G01*
X117440000Y-68424000D01*
G75*
G02*
X117215000Y-68649000I-225000J0D01*
G01*
X116465000Y-68649000D01*
G75*
G02*
X116240000Y-68424000I0J225000D01*
G01*
X116240000Y-67974000D01*
G75*
G02*
X116465000Y-67749000I225000J0D01*
G01*
G37*
G36*
G01*
X116465000Y-64448000D02*
X117215000Y-64448000D01*
G75*
G02*
X117440000Y-64673000I0J-225000D01*
G01*
X117440000Y-65123000D01*
G75*
G02*
X117215000Y-65348000I-225000J0D01*
G01*
X116465000Y-65348000D01*
G75*
G02*
X116240000Y-65123000I0J225000D01*
G01*
X116240000Y-64673000D01*
G75*
G02*
X116465000Y-64448000I225000J0D01*
G01*
G37*
G36*
G01*
X173615000Y-81973000D02*
X174365000Y-81973000D01*
G75*
G02*
X174590000Y-82198000I0J-225000D01*
G01*
X174590000Y-82648000D01*
G75*
G02*
X174365000Y-82873000I-225000J0D01*
G01*
X173615000Y-82873000D01*
G75*
G02*
X173390000Y-82648000I0J225000D01*
G01*
X173390000Y-82198000D01*
G75*
G02*
X173615000Y-81973000I225000J0D01*
G01*
G37*
G36*
G01*
X173615000Y-78672000D02*
X174365000Y-78672000D01*
G75*
G02*
X174590000Y-78897000I0J-225000D01*
G01*
X174590000Y-79347000D01*
G75*
G02*
X174365000Y-79572000I-225000J0D01*
G01*
X173615000Y-79572000D01*
G75*
G02*
X173390000Y-79347000I0J225000D01*
G01*
X173390000Y-78897000D01*
G75*
G02*
X173615000Y-78672000I225000J0D01*
G01*
G37*
G36*
G01*
X154565000Y-115247000D02*
X155315000Y-115247000D01*
G75*
G02*
X155540000Y-115472000I0J-225000D01*
G01*
X155540000Y-115922000D01*
G75*
G02*
X155315000Y-116147000I-225000J0D01*
G01*
X154565000Y-116147000D01*
G75*
G02*
X154340000Y-115922000I0J225000D01*
G01*
X154340000Y-115472000D01*
G75*
G02*
X154565000Y-115247000I225000J0D01*
G01*
G37*
G36*
G01*
X154565000Y-111946000D02*
X155315000Y-111946000D01*
G75*
G02*
X155540000Y-112171000I0J-225000D01*
G01*
X155540000Y-112621000D01*
G75*
G02*
X155315000Y-112846000I-225000J0D01*
G01*
X154565000Y-112846000D01*
G75*
G02*
X154340000Y-112621000I0J225000D01*
G01*
X154340000Y-112171000D01*
G75*
G02*
X154565000Y-111946000I225000J0D01*
G01*
G37*
D26*
X111998458Y-106579200D03*
D27*
X111998458Y-96469200D03*
X111998458Y-99009200D03*
X111998458Y-101549200D03*
X111998458Y-104089200D03*
X113223458Y-94079200D03*
X111373458Y-94079200D03*
G36*
G01*
X135515000Y-100769000D02*
X136265000Y-100769000D01*
G75*
G02*
X136490000Y-100994000I0J-225000D01*
G01*
X136490000Y-101444000D01*
G75*
G02*
X136265000Y-101669000I-225000J0D01*
G01*
X135515000Y-101669000D01*
G75*
G02*
X135290000Y-101444000I0J225000D01*
G01*
X135290000Y-100994000D01*
G75*
G02*
X135515000Y-100769000I225000J0D01*
G01*
G37*
G36*
G01*
X135515000Y-97468000D02*
X136265000Y-97468000D01*
G75*
G02*
X136490000Y-97693000I0J-225000D01*
G01*
X136490000Y-98143000D01*
G75*
G02*
X136265000Y-98368000I-225000J0D01*
G01*
X135515000Y-98368000D01*
G75*
G02*
X135290000Y-98143000I0J225000D01*
G01*
X135290000Y-97693000D01*
G75*
G02*
X135515000Y-97468000I225000J0D01*
G01*
G37*
G36*
G01*
X154565000Y-77275000D02*
X155315000Y-77275000D01*
G75*
G02*
X155540000Y-77500000I0J-225000D01*
G01*
X155540000Y-77950000D01*
G75*
G02*
X155315000Y-78175000I-225000J0D01*
G01*
X154565000Y-78175000D01*
G75*
G02*
X154340000Y-77950000I0J225000D01*
G01*
X154340000Y-77500000D01*
G75*
G02*
X154565000Y-77275000I225000J0D01*
G01*
G37*
G36*
G01*
X154565000Y-73974000D02*
X155315000Y-73974000D01*
G75*
G02*
X155540000Y-74199000I0J-225000D01*
G01*
X155540000Y-74649000D01*
G75*
G02*
X155315000Y-74874000I-225000J0D01*
G01*
X154565000Y-74874000D01*
G75*
G02*
X154340000Y-74649000I0J225000D01*
G01*
X154340000Y-74199000D01*
G75*
G02*
X154565000Y-73974000I225000J0D01*
G01*
G37*
G36*
G01*
X92665200Y-112351400D02*
X93415200Y-112351400D01*
G75*
G02*
X93640200Y-112576400I0J-225000D01*
G01*
X93640200Y-113026400D01*
G75*
G02*
X93415200Y-113251400I-225000J0D01*
G01*
X92665200Y-113251400D01*
G75*
G02*
X92440200Y-113026400I0J225000D01*
G01*
X92440200Y-112576400D01*
G75*
G02*
X92665200Y-112351400I225000J0D01*
G01*
G37*
G36*
G01*
X92665200Y-109050400D02*
X93415200Y-109050400D01*
G75*
G02*
X93640200Y-109275400I0J-225000D01*
G01*
X93640200Y-109725400D01*
G75*
G02*
X93415200Y-109950400I-225000J0D01*
G01*
X92665200Y-109950400D01*
G75*
G02*
X92440200Y-109725400I0J225000D01*
G01*
X92440200Y-109275400D01*
G75*
G02*
X92665200Y-109050400I225000J0D01*
G01*
G37*
G36*
G01*
X90404600Y-112351400D02*
X91154600Y-112351400D01*
G75*
G02*
X91379600Y-112576400I0J-225000D01*
G01*
X91379600Y-113026400D01*
G75*
G02*
X91154600Y-113251400I-225000J0D01*
G01*
X90404600Y-113251400D01*
G75*
G02*
X90179600Y-113026400I0J225000D01*
G01*
X90179600Y-112576400D01*
G75*
G02*
X90404600Y-112351400I225000J0D01*
G01*
G37*
G36*
G01*
X90404600Y-109050400D02*
X91154600Y-109050400D01*
G75*
G02*
X91379600Y-109275400I0J-225000D01*
G01*
X91379600Y-109725400D01*
G75*
G02*
X91154600Y-109950400I-225000J0D01*
G01*
X90404600Y-109950400D01*
G75*
G02*
X90179600Y-109725400I0J225000D01*
G01*
X90179600Y-109275400D01*
G75*
G02*
X90404600Y-109050400I225000J0D01*
G01*
G37*
G36*
G01*
X112199000Y-114421000D02*
X112199000Y-113671000D01*
G75*
G02*
X112424000Y-113446000I225000J0D01*
G01*
X112874000Y-113446000D01*
G75*
G02*
X113099000Y-113671000I0J-225000D01*
G01*
X113099000Y-114421000D01*
G75*
G02*
X112874000Y-114646000I-225000J0D01*
G01*
X112424000Y-114646000D01*
G75*
G02*
X112199000Y-114421000I0J225000D01*
G01*
G37*
G36*
G01*
X108898000Y-114421000D02*
X108898000Y-113671000D01*
G75*
G02*
X109123000Y-113446000I225000J0D01*
G01*
X109573000Y-113446000D01*
G75*
G02*
X109798000Y-113671000I0J-225000D01*
G01*
X109798000Y-114421000D01*
G75*
G02*
X109573000Y-114646000I-225000J0D01*
G01*
X109123000Y-114646000D01*
G75*
G02*
X108898000Y-114421000I0J225000D01*
G01*
G37*
G36*
G01*
X173615000Y-43619000D02*
X174365000Y-43619000D01*
G75*
G02*
X174590000Y-43844000I0J-225000D01*
G01*
X174590000Y-44294000D01*
G75*
G02*
X174365000Y-44519000I-225000J0D01*
G01*
X173615000Y-44519000D01*
G75*
G02*
X173390000Y-44294000I0J225000D01*
G01*
X173390000Y-43844000D01*
G75*
G02*
X173615000Y-43619000I225000J0D01*
G01*
G37*
G36*
G01*
X173615000Y-40318000D02*
X174365000Y-40318000D01*
G75*
G02*
X174590000Y-40543000I0J-225000D01*
G01*
X174590000Y-40993000D01*
G75*
G02*
X174365000Y-41218000I-225000J0D01*
G01*
X173615000Y-41218000D01*
G75*
G02*
X173390000Y-40993000I0J225000D01*
G01*
X173390000Y-40543000D01*
G75*
G02*
X173615000Y-40318000I225000J0D01*
G01*
G37*
G36*
G01*
X116465000Y-48445000D02*
X117215000Y-48445000D01*
G75*
G02*
X117440000Y-48670000I0J-225000D01*
G01*
X117440000Y-49120000D01*
G75*
G02*
X117215000Y-49345000I-225000J0D01*
G01*
X116465000Y-49345000D01*
G75*
G02*
X116240000Y-49120000I0J225000D01*
G01*
X116240000Y-48670000D01*
G75*
G02*
X116465000Y-48445000I225000J0D01*
G01*
G37*
G36*
G01*
X116465000Y-45144000D02*
X117215000Y-45144000D01*
G75*
G02*
X117440000Y-45369000I0J-225000D01*
G01*
X117440000Y-45819000D01*
G75*
G02*
X117215000Y-46044000I-225000J0D01*
G01*
X116465000Y-46044000D01*
G75*
G02*
X116240000Y-45819000I0J225000D01*
G01*
X116240000Y-45369000D01*
G75*
G02*
X116465000Y-45144000I225000J0D01*
G01*
G37*
G36*
G01*
X192411000Y-77021000D02*
X193161000Y-77021000D01*
G75*
G02*
X193386000Y-77246000I0J-225000D01*
G01*
X193386000Y-77696000D01*
G75*
G02*
X193161000Y-77921000I-225000J0D01*
G01*
X192411000Y-77921000D01*
G75*
G02*
X192186000Y-77696000I0J225000D01*
G01*
X192186000Y-77246000D01*
G75*
G02*
X192411000Y-77021000I225000J0D01*
G01*
G37*
G36*
G01*
X192411000Y-73720000D02*
X193161000Y-73720000D01*
G75*
G02*
X193386000Y-73945000I0J-225000D01*
G01*
X193386000Y-74395000D01*
G75*
G02*
X193161000Y-74620000I-225000J0D01*
G01*
X192411000Y-74620000D01*
G75*
G02*
X192186000Y-74395000I0J225000D01*
G01*
X192186000Y-73945000D01*
G75*
G02*
X192411000Y-73720000I225000J0D01*
G01*
G37*
G36*
G01*
X154565000Y-57971000D02*
X155315000Y-57971000D01*
G75*
G02*
X155540000Y-58196000I0J-225000D01*
G01*
X155540000Y-58646000D01*
G75*
G02*
X155315000Y-58871000I-225000J0D01*
G01*
X154565000Y-58871000D01*
G75*
G02*
X154340000Y-58646000I0J225000D01*
G01*
X154340000Y-58196000D01*
G75*
G02*
X154565000Y-57971000I225000J0D01*
G01*
G37*
G36*
G01*
X154565000Y-54670000D02*
X155315000Y-54670000D01*
G75*
G02*
X155540000Y-54895000I0J-225000D01*
G01*
X155540000Y-55345000D01*
G75*
G02*
X155315000Y-55570000I-225000J0D01*
G01*
X154565000Y-55570000D01*
G75*
G02*
X154340000Y-55345000I0J225000D01*
G01*
X154340000Y-54895000D01*
G75*
G02*
X154565000Y-54670000I225000J0D01*
G01*
G37*
G36*
G01*
X173489000Y-62543000D02*
X174239000Y-62543000D01*
G75*
G02*
X174464000Y-62768000I0J-225000D01*
G01*
X174464000Y-63218000D01*
G75*
G02*
X174239000Y-63443000I-225000J0D01*
G01*
X173489000Y-63443000D01*
G75*
G02*
X173264000Y-63218000I0J225000D01*
G01*
X173264000Y-62768000D01*
G75*
G02*
X173489000Y-62543000I225000J0D01*
G01*
G37*
G36*
G01*
X173489000Y-59242000D02*
X174239000Y-59242000D01*
G75*
G02*
X174464000Y-59467000I0J-225000D01*
G01*
X174464000Y-59917000D01*
G75*
G02*
X174239000Y-60142000I-225000J0D01*
G01*
X173489000Y-60142000D01*
G75*
G02*
X173264000Y-59917000I0J225000D01*
G01*
X173264000Y-59467000D01*
G75*
G02*
X173489000Y-59242000I225000J0D01*
G01*
G37*
G36*
G01*
X135515000Y-119819000D02*
X136265000Y-119819000D01*
G75*
G02*
X136490000Y-120044000I0J-225000D01*
G01*
X136490000Y-120494000D01*
G75*
G02*
X136265000Y-120719000I-225000J0D01*
G01*
X135515000Y-120719000D01*
G75*
G02*
X135290000Y-120494000I0J225000D01*
G01*
X135290000Y-120044000D01*
G75*
G02*
X135515000Y-119819000I225000J0D01*
G01*
G37*
G36*
G01*
X135515000Y-116518000D02*
X136265000Y-116518000D01*
G75*
G02*
X136490000Y-116743000I0J-225000D01*
G01*
X136490000Y-117193000D01*
G75*
G02*
X136265000Y-117418000I-225000J0D01*
G01*
X135515000Y-117418000D01*
G75*
G02*
X135290000Y-117193000I0J225000D01*
G01*
X135290000Y-116743000D01*
G75*
G02*
X135515000Y-116518000I225000J0D01*
G01*
G37*
G36*
G01*
X135515000Y-81847000D02*
X136265000Y-81847000D01*
G75*
G02*
X136490000Y-82072000I0J-225000D01*
G01*
X136490000Y-82522000D01*
G75*
G02*
X136265000Y-82747000I-225000J0D01*
G01*
X135515000Y-82747000D01*
G75*
G02*
X135290000Y-82522000I0J225000D01*
G01*
X135290000Y-82072000D01*
G75*
G02*
X135515000Y-81847000I225000J0D01*
G01*
G37*
G36*
G01*
X135515000Y-78546000D02*
X136265000Y-78546000D01*
G75*
G02*
X136490000Y-78771000I0J-225000D01*
G01*
X136490000Y-79221000D01*
G75*
G02*
X136265000Y-79446000I-225000J0D01*
G01*
X135515000Y-79446000D01*
G75*
G02*
X135290000Y-79221000I0J225000D01*
G01*
X135290000Y-78771000D01*
G75*
G02*
X135515000Y-78546000I225000J0D01*
G01*
G37*
G36*
G01*
X116465000Y-105595000D02*
X117215000Y-105595000D01*
G75*
G02*
X117440000Y-105820000I0J-225000D01*
G01*
X117440000Y-106270000D01*
G75*
G02*
X117215000Y-106495000I-225000J0D01*
G01*
X116465000Y-106495000D01*
G75*
G02*
X116240000Y-106270000I0J225000D01*
G01*
X116240000Y-105820000D01*
G75*
G02*
X116465000Y-105595000I225000J0D01*
G01*
G37*
G36*
G01*
X116465000Y-102294000D02*
X117215000Y-102294000D01*
G75*
G02*
X117440000Y-102519000I0J-225000D01*
G01*
X117440000Y-102969000D01*
G75*
G02*
X117215000Y-103194000I-225000J0D01*
G01*
X116465000Y-103194000D01*
G75*
G02*
X116240000Y-102969000I0J225000D01*
G01*
X116240000Y-102519000D01*
G75*
G02*
X116465000Y-102294000I225000J0D01*
G01*
G37*
G36*
G01*
X211461000Y-115501000D02*
X212211000Y-115501000D01*
G75*
G02*
X212436000Y-115726000I0J-225000D01*
G01*
X212436000Y-116176000D01*
G75*
G02*
X212211000Y-116401000I-225000J0D01*
G01*
X211461000Y-116401000D01*
G75*
G02*
X211236000Y-116176000I0J225000D01*
G01*
X211236000Y-115726000D01*
G75*
G02*
X211461000Y-115501000I225000J0D01*
G01*
G37*
G36*
G01*
X211461000Y-112200000D02*
X212211000Y-112200000D01*
G75*
G02*
X212436000Y-112425000I0J-225000D01*
G01*
X212436000Y-112875000D01*
G75*
G02*
X212211000Y-113100000I-225000J0D01*
G01*
X211461000Y-113100000D01*
G75*
G02*
X211236000Y-112875000I0J225000D01*
G01*
X211236000Y-112425000D01*
G75*
G02*
X211461000Y-112200000I225000J0D01*
G01*
G37*
G36*
G01*
X154439000Y-38921000D02*
X155189000Y-38921000D01*
G75*
G02*
X155414000Y-39146000I0J-225000D01*
G01*
X155414000Y-39596000D01*
G75*
G02*
X155189000Y-39821000I-225000J0D01*
G01*
X154439000Y-39821000D01*
G75*
G02*
X154214000Y-39596000I0J225000D01*
G01*
X154214000Y-39146000D01*
G75*
G02*
X154439000Y-38921000I225000J0D01*
G01*
G37*
G36*
G01*
X154439000Y-35620000D02*
X155189000Y-35620000D01*
G75*
G02*
X155414000Y-35845000I0J-225000D01*
G01*
X155414000Y-36295000D01*
G75*
G02*
X155189000Y-36520000I-225000J0D01*
G01*
X154439000Y-36520000D01*
G75*
G02*
X154214000Y-36295000I0J225000D01*
G01*
X154214000Y-35845000D01*
G75*
G02*
X154439000Y-35620000I225000J0D01*
G01*
G37*
G36*
G01*
X135515000Y-43619000D02*
X136265000Y-43619000D01*
G75*
G02*
X136490000Y-43844000I0J-225000D01*
G01*
X136490000Y-44294000D01*
G75*
G02*
X136265000Y-44519000I-225000J0D01*
G01*
X135515000Y-44519000D01*
G75*
G02*
X135290000Y-44294000I0J225000D01*
G01*
X135290000Y-43844000D01*
G75*
G02*
X135515000Y-43619000I225000J0D01*
G01*
G37*
G36*
G01*
X135515000Y-40318000D02*
X136265000Y-40318000D01*
G75*
G02*
X136490000Y-40543000I0J-225000D01*
G01*
X136490000Y-40993000D01*
G75*
G02*
X136265000Y-41218000I-225000J0D01*
G01*
X135515000Y-41218000D01*
G75*
G02*
X135290000Y-40993000I0J225000D01*
G01*
X135290000Y-40543000D01*
G75*
G02*
X135515000Y-40318000I225000J0D01*
G01*
G37*
G36*
G01*
X173615000Y-100565800D02*
X174365000Y-100565800D01*
G75*
G02*
X174590000Y-100790800I0J-225000D01*
G01*
X174590000Y-101240800D01*
G75*
G02*
X174365000Y-101465800I-225000J0D01*
G01*
X173615000Y-101465800D01*
G75*
G02*
X173390000Y-101240800I0J225000D01*
G01*
X173390000Y-100790800D01*
G75*
G02*
X173615000Y-100565800I225000J0D01*
G01*
G37*
G36*
G01*
X173615000Y-97264800D02*
X174365000Y-97264800D01*
G75*
G02*
X174590000Y-97489800I0J-225000D01*
G01*
X174590000Y-97939800D01*
G75*
G02*
X174365000Y-98164800I-225000J0D01*
G01*
X173615000Y-98164800D01*
G75*
G02*
X173390000Y-97939800I0J225000D01*
G01*
X173390000Y-97489800D01*
G75*
G02*
X173615000Y-97264800I225000J0D01*
G01*
G37*
G36*
G01*
X173615000Y-119945000D02*
X174365000Y-119945000D01*
G75*
G02*
X174590000Y-120170000I0J-225000D01*
G01*
X174590000Y-120620000D01*
G75*
G02*
X174365000Y-120845000I-225000J0D01*
G01*
X173615000Y-120845000D01*
G75*
G02*
X173390000Y-120620000I0J225000D01*
G01*
X173390000Y-120170000D01*
G75*
G02*
X173615000Y-119945000I225000J0D01*
G01*
G37*
G36*
G01*
X173615000Y-116644000D02*
X174365000Y-116644000D01*
G75*
G02*
X174590000Y-116869000I0J-225000D01*
G01*
X174590000Y-117319000D01*
G75*
G02*
X174365000Y-117544000I-225000J0D01*
G01*
X173615000Y-117544000D01*
G75*
G02*
X173390000Y-117319000I0J225000D01*
G01*
X173390000Y-116869000D01*
G75*
G02*
X173615000Y-116644000I225000J0D01*
G01*
G37*
G36*
G01*
X211511800Y-57589000D02*
X212261800Y-57589000D01*
G75*
G02*
X212486800Y-57814000I0J-225000D01*
G01*
X212486800Y-58264000D01*
G75*
G02*
X212261800Y-58489000I-225000J0D01*
G01*
X211511800Y-58489000D01*
G75*
G02*
X211286800Y-58264000I0J225000D01*
G01*
X211286800Y-57814000D01*
G75*
G02*
X211511800Y-57589000I225000J0D01*
G01*
G37*
G36*
G01*
X211511800Y-54288000D02*
X212261800Y-54288000D01*
G75*
G02*
X212486800Y-54513000I0J-225000D01*
G01*
X212486800Y-54963000D01*
G75*
G02*
X212261800Y-55188000I-225000J0D01*
G01*
X211511800Y-55188000D01*
G75*
G02*
X211286800Y-54963000I0J225000D01*
G01*
X211286800Y-54513000D01*
G75*
G02*
X211511800Y-54288000I225000J0D01*
G01*
G37*
M02*
