G04 #@! TF.GenerationSoftware,KiCad,Pcbnew,7.0.5.1-1-g8f565ef7f0-dirty-deb11*
G04 #@! TF.CreationDate,2023-08-10T20:19:50+00:00*
G04 #@! TF.ProjectId,hakea-fillets,68616b65-612d-4666-996c-6c6574732e6b,1.0.1*
G04 #@! TF.SameCoordinates,Original*
G04 #@! TF.FileFunction,Profile,NP*
%FSLAX46Y46*%
G04 Gerber Fmt 4.6, Leading zero omitted, Abs format (unit mm)*
G04 Created by KiCad (PCBNEW 7.0.5.1-1-g8f565ef7f0-dirty-deb11) date 2023-08-10 20:19:50*
%MOMM*%
%LPD*%
G01*
G04 APERTURE LIST*
G04 #@! TA.AperFunction,Profile*
%ADD10C,0.050000*%
G04 #@! TD*
G04 APERTURE END LIST*
D10*
X127076200Y-21869400D02*
X127076200Y-25095200D01*
X132359400Y-25095200D01*
X132359400Y-21894800D01*
X151130000Y-22098000D01*
X168656000Y-22098000D01*
X191770000Y-26162000D01*
X229870000Y-40894000D01*
X230886000Y-118872000D01*
X190754000Y-127000000D01*
X163576000Y-123444000D01*
X138430000Y-129540000D01*
X119380000Y-136652000D01*
X86868000Y-149098000D01*
X75692000Y-129032000D01*
X88392000Y-107188000D01*
X87071200Y-70662800D01*
X92074014Y-70663141D01*
X92048614Y-51663941D01*
X87095168Y-51663602D01*
X87122000Y-36322000D01*
X97536000Y-21844000D01*
X99949000Y-21844000D01*
X99949000Y-28422600D01*
X109118400Y-28422600D01*
X109118400Y-21818600D01*
X127076200Y-21869400D01*
X108082700Y-93996900D02*
X108082700Y-107596900D01*
X108382700Y-107896900D02*
X110182700Y-107896900D01*
X110182700Y-93696900D02*
X108382700Y-93696900D01*
X110482700Y-107596900D02*
X110482700Y-93996900D01*
X108382700Y-93696900D02*
G75*
G03*
X108082700Y-93996900I0J-300000D01*
G01*
X108082700Y-107596900D02*
G75*
G03*
X108382700Y-107896900I300000J0D01*
G01*
X110482700Y-93996900D02*
G75*
G03*
X110182700Y-93696900I-300000J0D01*
G01*
X110182700Y-107896900D02*
G75*
G03*
X110482700Y-107596900I0J300000D01*
G01*
X98973458Y-93979200D02*
X98973458Y-107579200D01*
X98673458Y-107879200D02*
X96873458Y-107879200D01*
X96873458Y-93679200D02*
X98673458Y-93679200D01*
X96573458Y-107579200D02*
X96573458Y-93979200D01*
X98673458Y-107879200D02*
G75*
G03*
X98973458Y-107579200I0J300000D01*
G01*
X98973458Y-93979200D02*
G75*
G03*
X98673458Y-93679200I-300000J0D01*
G01*
X96573458Y-107579200D02*
G75*
G03*
X96873458Y-107879200I300000J0D01*
G01*
X96873458Y-93679200D02*
G75*
G03*
X96573458Y-93979200I0J-300000D01*
G01*
M02*
