  0
SECTION
  2
HEADER
  9
$ANGBASE
  50
0.0
  9
$ANGDIR
  70
1
  9
$MEASUREMENT
  70
1
  0
ENDSEC
  0
SECTION
  2
TABLES
  0
TABLE
  2
LTYPE
  70
4
  0
LTYPE
  5
40F
  2
CONTINUOUS
  70
0
  3
Solid line
  72
65
  73
0
  40
0.0
  0
LTYPE
  5
410
  2
DASHDOT
 70
0
  3
Dash Dot ____ _ ____ _
 72
65
 73
4
 40
2.0
 49
1.25
 49
-0.25
 49
0.25
 49
-0.25
  0
LTYPE
  5
411
  2
DASHED
 70
0
  3
Dashed __ __ __ __ __
 72
65
 73
2
 40
0.75
 49
0.5
 49
-0.25
  0
LTYPE
  5
43B
  2
DOTTED
 70
0
  3
Dotted .  .  .  .
 72
65
 73
2
 40
0.2
 49
0.0
 49
-0.2
  0
ENDTAB
  0
TABLE
  2
STYLE
  70
4
  0
STYLE
  2
KICAD
  70
0
  40
0
  41
1
  42
1
  50
0
  71
0
  3
isocp.shx
  0
STYLE
  2
KICADB
  70
0
  40
0
  41
1
  42
1
  50
0
  71
0
  3
isocp.shx
  0
STYLE
  2
KICADI
  70
0
  40
0
  41
1
  42
1
  50
15
  71
0
  3
isocp.shx
  0
STYLE
  2
KICADBI
  70
0
  40
0
  41
1
  42
1
  50
15
  71
0
  3
isocp.shx
  0
ENDTAB
  0
TABLE
  2
LAYER
  70
1
  0
LAYER
  2
BLACK
  70
0
  62
7
  6
CONTINUOUS
  0
ENDTAB
  0
ENDSEC
  0
SECTION
  2
ENTITIES
0
LINE
8
BLACK
6
CONTINUOUS
10
127.076
20
-21.8694
11
127.076
21
-25.0952
0
LINE
8
BLACK
6
CONTINUOUS
10
127.076
20
-25.0952
11
132.359
21
-25.0952
0
LINE
8
BLACK
6
CONTINUOUS
10
132.359
20
-25.0952
11
132.359
21
-21.8948
0
LINE
8
BLACK
6
CONTINUOUS
10
132.359
20
-21.8948
11
151.13
21
-22.098
0
LINE
8
BLACK
6
CONTINUOUS
10
151.13
20
-22.098
11
168.656
21
-22.098
0
LINE
8
BLACK
6
CONTINUOUS
10
168.656
20
-22.098
11
191.77
21
-26.162
0
LINE
8
BLACK
6
CONTINUOUS
10
191.77
20
-26.162
11
229.87
21
-40.894
0
LINE
8
BLACK
6
CONTINUOUS
10
229.87
20
-40.894
11
230.886
21
-118.872
0
LINE
8
BLACK
6
CONTINUOUS
10
230.886
20
-118.872
11
190.754
21
-127
0
LINE
8
BLACK
6
CONTINUOUS
10
190.754
20
-127
11
163.576
21
-123.444
0
LINE
8
BLACK
6
CONTINUOUS
10
163.576
20
-123.444
11
138.43
21
-129.54
0
LINE
8
BLACK
6
CONTINUOUS
10
138.43
20
-129.54
11
119.38
21
-136.652
0
LINE
8
BLACK
6
CONTINUOUS
10
119.38
20
-136.652
11
86.868
21
-149.098
0
LINE
8
BLACK
6
CONTINUOUS
10
86.868
20
-149.098
11
75.692
21
-129.032
0
LINE
8
BLACK
6
CONTINUOUS
10
75.692
20
-129.032
11
88.392
21
-107.188
0
LINE
8
BLACK
6
CONTINUOUS
10
88.392
20
-107.188
11
87.0712
21
-70.6628
0
LINE
8
BLACK
6
CONTINUOUS
10
87.0712
20
-70.6628
11
92.074
21
-70.6631
0
LINE
8
BLACK
6
CONTINUOUS
10
92.074
20
-70.6631
11
92.0486
21
-51.6639
0
LINE
8
BLACK
6
CONTINUOUS
10
92.0486
20
-51.6639
11
87.0952
21
-51.6636
0
LINE
8
BLACK
6
CONTINUOUS
10
87.0952
20
-51.6636
11
87.122
21
-36.322
0
LINE
8
BLACK
6
CONTINUOUS
10
87.122
20
-36.322
11
97.536
21
-21.844
0
LINE
8
BLACK
6
CONTINUOUS
10
97.536
20
-21.844
11
99.949
21
-21.844
0
LINE
8
BLACK
6
CONTINUOUS
10
99.949
20
-21.844
11
99.949
21
-28.4226
0
LINE
8
BLACK
6
CONTINUOUS
10
99.949
20
-28.4226
11
109.118
21
-28.4226
0
LINE
8
BLACK
6
CONTINUOUS
10
109.118
20
-28.4226
11
109.118
21
-21.8186
0
LINE
8
BLACK
6
CONTINUOUS
10
109.118
20
-21.8186
11
127.076
21
-21.8694
0
LINE
8
BLACK
6
CONTINUOUS
10
108.083
20
-93.9969
11
108.083
21
-107.597
0
LINE
8
BLACK
6
CONTINUOUS
10
108.383
20
-107.897
11
110.183
21
-107.897
0
LINE
8
BLACK
6
CONTINUOUS
10
110.183
20
-93.6969
11
108.383
21
-93.6969
0
LINE
8
BLACK
6
CONTINUOUS
10
110.483
20
-107.597
11
110.483
21
-93.9969
0
ARC
8
BLACK
10
108.383
20
-93.9969
40
0.3
50
90
51
180
0
ARC
8
BLACK
10
108.383
20
-107.597
40
0.3
50
-180
51
-90
0
ARC
8
BLACK
10
110.183
20
-93.9969
40
0.3
50
-0
51
90
0
ARC
8
BLACK
10
110.183
20
-107.597
40
0.3
50
-90
51
-0
0
LINE
8
BLACK
6
CONTINUOUS
10
98.9735
20
-93.9792
11
98.9735
21
-107.579
0
LINE
8
BLACK
6
CONTINUOUS
10
98.6735
20
-107.879
11
96.8735
21
-107.879
0
LINE
8
BLACK
6
CONTINUOUS
10
96.8735
20
-93.6792
11
98.6735
21
-93.6792
0
LINE
8
BLACK
6
CONTINUOUS
10
96.5735
20
-107.579
11
96.5735
21
-93.9792
0
ARC
8
BLACK
10
98.6735
20
-107.579
40
0.3
50
-90
51
-0
0
ARC
8
BLACK
10
98.6735
20
-93.9792
40
0.3
50
-0
51
90
0
ARC
8
BLACK
10
96.8735
20
-107.579
40
0.3
50
-180
51
-90
0
ARC
8
BLACK
10
96.8735
20
-93.9792
40
0.3
50
90
51
180
  0
ENDSEC
  0
EOF
