  0
SECTION
  2
HEADER
  9
$ANGBASE
  50
0.0
  9
$ANGDIR
  70
1
  9
$MEASUREMENT
  70
1
  0
ENDSEC
  0
SECTION
  2
TABLES
  0
TABLE
  2
LTYPE
  70
4
  0
LTYPE
  5
40F
  2
CONTINUOUS
  70
0
  3
Solid line
  72
65
  73
0
  40
0.0
  0
LTYPE
  5
410
  2
DASHDOT
 70
0
  3
Dash Dot ____ _ ____ _
 72
65
 73
4
 40
2.0
 49
1.25
 49
-0.25
 49
0.25
 49
-0.25
  0
LTYPE
  5
411
  2
DASHED
 70
0
  3
Dashed __ __ __ __ __
 72
65
 73
2
 40
0.75
 49
0.5
 49
-0.25
  0
LTYPE
  5
43B
  2
DOTTED
 70
0
  3
Dotted .  .  .  .
 72
65
 73
2
 40
0.2
 49
0.0
 49
-0.2
  0
ENDTAB
  0
TABLE
  2
STYLE
  70
4
  0
STYLE
  2
KICAD
  70
0
  40
0
  41
1
  42
1
  50
0
  71
0
  3
isocp.shx
  0
STYLE
  2
KICADB
  70
0
  40
0
  41
1
  42
1
  50
0
  71
0
  3
isocp.shx
  0
STYLE
  2
KICADI
  70
0
  40
0
  41
1
  42
1
  50
15
  71
0
  3
isocp.shx
  0
STYLE
  2
KICADBI
  70
0
  40
0
  41
1
  42
1
  50
15
  71
0
  3
isocp.shx
  0
ENDTAB
  0
TABLE
  2
LAYER
  70
1
  0
LAYER
  2
BLACK
  70
0
  62
7
  6
CONTINUOUS
  0
ENDTAB
  0
ENDSEC
  0
SECTION
  2
ENTITIES
0
LINE
8
BLACK
6
CONTINUOUS
10
83.9045
20
-132.198
11
82.0425
21
-133.273
0
LINE
8
BLACK
6
CONTINUOUS
10
82.0425
20
-133.273
11
80.7925
21
-131.108
0
LINE
8
BLACK
6
CONTINUOUS
10
80.7925
20
-131.108
11
82.6545
21
-130.033
0
LINE
8
BLACK
6
CONTINUOUS
10
82.6545
20
-130.033
11
83.9045
21
-132.198
0
LINE
8
BLACK
6
CONTINUOUS
10
97.0424
20
-127.531
11
95.0072
21
-128.706
0
LINE
8
BLACK
6
CONTINUOUS
10
95.0072
20
-128.706
11
93.7572
21
-126.541
0
LINE
8
BLACK
6
CONTINUOUS
10
93.7572
20
-126.541
11
95.7924
21
-125.366
0
LINE
8
BLACK
6
CONTINUOUS
10
95.7924
20
-125.366
11
97.0424
21
-127.531
0
LINE
8
BLACK
6
CONTINUOUS
10
112.614
20
-121.516
11
110.537
21
-122.072
0
LINE
8
BLACK
6
CONTINUOUS
10
110.537
20
-122.072
11
109.89
21
-119.657
0
LINE
8
BLACK
6
CONTINUOUS
10
109.89
20
-119.657
11
111.967
21
-119.101
0
LINE
8
BLACK
6
CONTINUOUS
10
111.967
20
-119.101
11
112.614
21
-121.516
0
LINE
8
BLACK
6
CONTINUOUS
10
126.512
20
-120.408
11
124.242
21
-121.016
0
LINE
8
BLACK
6
CONTINUOUS
10
124.242
20
-121.016
11
123.595
21
-118.602
0
LINE
8
BLACK
6
CONTINUOUS
10
123.595
20
-118.602
11
125.865
21
-117.993
0
LINE
8
BLACK
6
CONTINUOUS
10
125.865
20
-117.993
11
126.512
21
-120.408
0
LINE
8
BLACK
6
CONTINUOUS
10
174.451
20
-119.962
11
174.524
21
-120.011
0
LINE
8
BLACK
6
CONTINUOUS
10
174.524
20
-120.011
11
174.573
21
-120.084
0
LINE
8
BLACK
6
CONTINUOUS
10
174.573
20
-120.084
11
174.59
21
-120.17
0
LINE
8
BLACK
6
CONTINUOUS
10
174.59
20
-120.17
11
174.59
21
-120.62
0
LINE
8
BLACK
6
CONTINUOUS
10
174.59
20
-120.62
11
174.573
21
-120.706
0
LINE
8
BLACK
6
CONTINUOUS
10
174.573
20
-120.706
11
174.524
21
-120.779
0
LINE
8
BLACK
6
CONTINUOUS
10
174.524
20
-120.779
11
174.451
21
-120.828
0
LINE
8
BLACK
6
CONTINUOUS
10
174.451
20
-120.828
11
174.365
21
-120.845
0
LINE
8
BLACK
6
CONTINUOUS
10
174.365
20
-120.845
11
173.615
21
-120.845
0
LINE
8
BLACK
6
CONTINUOUS
10
173.615
20
-120.845
11
173.529
21
-120.828
0
LINE
8
BLACK
6
CONTINUOUS
10
173.529
20
-120.828
11
173.456
21
-120.779
0
LINE
8
BLACK
6
CONTINUOUS
10
173.456
20
-120.779
11
173.407
21
-120.706
0
LINE
8
BLACK
6
CONTINUOUS
10
173.407
20
-120.706
11
173.39
21
-120.62
0
LINE
8
BLACK
6
CONTINUOUS
10
173.39
20
-120.62
11
173.39
21
-120.17
0
LINE
8
BLACK
6
CONTINUOUS
10
173.39
20
-120.17
11
173.407
21
-120.084
0
LINE
8
BLACK
6
CONTINUOUS
10
173.407
20
-120.084
11
173.456
21
-120.011
0
LINE
8
BLACK
6
CONTINUOUS
10
173.456
20
-120.011
11
173.529
21
-119.962
0
LINE
8
BLACK
6
CONTINUOUS
10
173.529
20
-119.962
11
173.615
21
-119.945
0
LINE
8
BLACK
6
CONTINUOUS
10
173.615
20
-119.945
11
174.365
21
-119.945
0
LINE
8
BLACK
6
CONTINUOUS
10
174.365
20
-119.945
11
174.451
21
-119.962
0
LINE
8
BLACK
6
CONTINUOUS
10
136.351
20
-119.836
11
136.424
21
-119.885
0
LINE
8
BLACK
6
CONTINUOUS
10
136.424
20
-119.885
11
136.473
21
-119.958
0
LINE
8
BLACK
6
CONTINUOUS
10
136.473
20
-119.958
11
136.49
21
-120.044
0
LINE
8
BLACK
6
CONTINUOUS
10
136.49
20
-120.044
11
136.49
21
-120.494
0
LINE
8
BLACK
6
CONTINUOUS
10
136.49
20
-120.494
11
136.473
21
-120.58
0
LINE
8
BLACK
6
CONTINUOUS
10
136.473
20
-120.58
11
136.424
21
-120.653
0
LINE
8
BLACK
6
CONTINUOUS
10
136.424
20
-120.653
11
136.351
21
-120.702
0
LINE
8
BLACK
6
CONTINUOUS
10
136.351
20
-120.702
11
136.265
21
-120.719
0
LINE
8
BLACK
6
CONTINUOUS
10
136.265
20
-120.719
11
135.515
21
-120.719
0
LINE
8
BLACK
6
CONTINUOUS
10
135.515
20
-120.719
11
135.429
21
-120.702
0
LINE
8
BLACK
6
CONTINUOUS
10
135.429
20
-120.702
11
135.356
21
-120.653
0
LINE
8
BLACK
6
CONTINUOUS
10
135.356
20
-120.653
11
135.307
21
-120.58
0
LINE
8
BLACK
6
CONTINUOUS
10
135.307
20
-120.58
11
135.29
21
-120.494
0
LINE
8
BLACK
6
CONTINUOUS
10
135.29
20
-120.494
11
135.29
21
-120.044
0
LINE
8
BLACK
6
CONTINUOUS
10
135.29
20
-120.044
11
135.307
21
-119.958
0
LINE
8
BLACK
6
CONTINUOUS
10
135.307
20
-119.958
11
135.356
21
-119.885
0
LINE
8
BLACK
6
CONTINUOUS
10
135.356
20
-119.885
11
135.429
21
-119.836
0
LINE
8
BLACK
6
CONTINUOUS
10
135.429
20
-119.836
11
135.515
21
-119.819
0
LINE
8
BLACK
6
CONTINUOUS
10
135.515
20
-119.819
11
136.265
21
-119.819
0
LINE
8
BLACK
6
CONTINUOUS
10
136.265
20
-119.819
11
136.351
21
-119.836
0
LINE
8
BLACK
6
CONTINUOUS
10
174.451
20
-116.661
11
174.524
21
-116.71
0
LINE
8
BLACK
6
CONTINUOUS
10
174.524
20
-116.71
11
174.573
21
-116.783
0
LINE
8
BLACK
6
CONTINUOUS
10
174.573
20
-116.783
11
174.59
21
-116.869
0
LINE
8
BLACK
6
CONTINUOUS
10
174.59
20
-116.869
11
174.59
21
-117.319
0
LINE
8
BLACK
6
CONTINUOUS
10
174.59
20
-117.319
11
174.573
21
-117.405
0
LINE
8
BLACK
6
CONTINUOUS
10
174.573
20
-117.405
11
174.524
21
-117.478
0
LINE
8
BLACK
6
CONTINUOUS
10
174.524
20
-117.478
11
174.451
21
-117.527
0
LINE
8
BLACK
6
CONTINUOUS
10
174.451
20
-117.527
11
174.365
21
-117.544
0
LINE
8
BLACK
6
CONTINUOUS
10
174.365
20
-117.544
11
173.615
21
-117.544
0
LINE
8
BLACK
6
CONTINUOUS
10
173.615
20
-117.544
11
173.529
21
-117.527
0
LINE
8
BLACK
6
CONTINUOUS
10
173.529
20
-117.527
11
173.456
21
-117.478
0
LINE
8
BLACK
6
CONTINUOUS
10
173.456
20
-117.478
11
173.407
21
-117.405
0
LINE
8
BLACK
6
CONTINUOUS
10
173.407
20
-117.405
11
173.39
21
-117.319
0
LINE
8
BLACK
6
CONTINUOUS
10
173.39
20
-117.319
11
173.39
21
-116.869
0
LINE
8
BLACK
6
CONTINUOUS
10
173.39
20
-116.869
11
173.407
21
-116.783
0
LINE
8
BLACK
6
CONTINUOUS
10
173.407
20
-116.783
11
173.456
21
-116.71
0
LINE
8
BLACK
6
CONTINUOUS
10
173.456
20
-116.71
11
173.529
21
-116.661
0
LINE
8
BLACK
6
CONTINUOUS
10
173.529
20
-116.661
11
173.615
21
-116.644
0
LINE
8
BLACK
6
CONTINUOUS
10
173.615
20
-116.644
11
174.365
21
-116.644
0
LINE
8
BLACK
6
CONTINUOUS
10
174.365
20
-116.644
11
174.451
21
-116.661
0
LINE
8
BLACK
6
CONTINUOUS
10
136.351
20
-116.535
11
136.424
21
-116.584
0
LINE
8
BLACK
6
CONTINUOUS
10
136.424
20
-116.584
11
136.473
21
-116.657
0
LINE
8
BLACK
6
CONTINUOUS
10
136.473
20
-116.657
11
136.49
21
-116.743
0
LINE
8
BLACK
6
CONTINUOUS
10
136.49
20
-116.743
11
136.49
21
-117.193
0
LINE
8
BLACK
6
CONTINUOUS
10
136.49
20
-117.193
11
136.473
21
-117.279
0
LINE
8
BLACK
6
CONTINUOUS
10
136.473
20
-117.279
11
136.424
21
-117.352
0
LINE
8
BLACK
6
CONTINUOUS
10
136.424
20
-117.352
11
136.351
21
-117.401
0
LINE
8
BLACK
6
CONTINUOUS
10
136.351
20
-117.401
11
136.265
21
-117.418
0
LINE
8
BLACK
6
CONTINUOUS
10
136.265
20
-117.418
11
135.515
21
-117.418
0
LINE
8
BLACK
6
CONTINUOUS
10
135.515
20
-117.418
11
135.429
21
-117.401
0
LINE
8
BLACK
6
CONTINUOUS
10
135.429
20
-117.401
11
135.356
21
-117.352
0
LINE
8
BLACK
6
CONTINUOUS
10
135.356
20
-117.352
11
135.307
21
-117.279
0
LINE
8
BLACK
6
CONTINUOUS
10
135.307
20
-117.279
11
135.29
21
-117.193
0
LINE
8
BLACK
6
CONTINUOUS
10
135.29
20
-117.193
11
135.29
21
-116.743
0
LINE
8
BLACK
6
CONTINUOUS
10
135.29
20
-116.743
11
135.307
21
-116.657
0
LINE
8
BLACK
6
CONTINUOUS
10
135.307
20
-116.657
11
135.356
21
-116.584
0
LINE
8
BLACK
6
CONTINUOUS
10
135.356
20
-116.584
11
135.429
21
-116.535
0
LINE
8
BLACK
6
CONTINUOUS
10
135.429
20
-116.535
11
135.515
21
-116.518
0
LINE
8
BLACK
6
CONTINUOUS
10
135.515
20
-116.518
11
136.265
21
-116.518
0
LINE
8
BLACK
6
CONTINUOUS
10
136.265
20
-116.518
11
136.351
21
-116.535
0
LINE
8
BLACK
6
CONTINUOUS
10
212.297
20
-115.518
11
212.37
21
-115.567
0
LINE
8
BLACK
6
CONTINUOUS
10
212.37
20
-115.567
11
212.419
21
-115.64
0
LINE
8
BLACK
6
CONTINUOUS
10
212.419
20
-115.64
11
212.436
21
-115.726
0
LINE
8
BLACK
6
CONTINUOUS
10
212.436
20
-115.726
11
212.436
21
-116.176
0
LINE
8
BLACK
6
CONTINUOUS
10
212.436
20
-116.176
11
212.419
21
-116.262
0
LINE
8
BLACK
6
CONTINUOUS
10
212.419
20
-116.262
11
212.37
21
-116.335
0
LINE
8
BLACK
6
CONTINUOUS
10
212.37
20
-116.335
11
212.297
21
-116.384
0
LINE
8
BLACK
6
CONTINUOUS
10
212.297
20
-116.384
11
212.211
21
-116.401
0
LINE
8
BLACK
6
CONTINUOUS
10
212.211
20
-116.401
11
211.461
21
-116.401
0
LINE
8
BLACK
6
CONTINUOUS
10
211.461
20
-116.401
11
211.375
21
-116.384
0
LINE
8
BLACK
6
CONTINUOUS
10
211.375
20
-116.384
11
211.302
21
-116.335
0
LINE
8
BLACK
6
CONTINUOUS
10
211.302
20
-116.335
11
211.253
21
-116.262
0
LINE
8
BLACK
6
CONTINUOUS
10
211.253
20
-116.262
11
211.236
21
-116.176
0
LINE
8
BLACK
6
CONTINUOUS
10
211.236
20
-116.176
11
211.236
21
-115.726
0
LINE
8
BLACK
6
CONTINUOUS
10
211.236
20
-115.726
11
211.253
21
-115.64
0
LINE
8
BLACK
6
CONTINUOUS
10
211.253
20
-115.64
11
211.302
21
-115.567
0
LINE
8
BLACK
6
CONTINUOUS
10
211.302
20
-115.567
11
211.375
21
-115.518
0
LINE
8
BLACK
6
CONTINUOUS
10
211.375
20
-115.518
11
211.461
21
-115.501
0
LINE
8
BLACK
6
CONTINUOUS
10
211.461
20
-115.501
11
212.211
21
-115.501
0
LINE
8
BLACK
6
CONTINUOUS
10
212.211
20
-115.501
11
212.297
21
-115.518
0
LINE
8
BLACK
6
CONTINUOUS
10
155.401
20
-115.264
11
155.474
21
-115.313
0
LINE
8
BLACK
6
CONTINUOUS
10
155.474
20
-115.313
11
155.523
21
-115.386
0
LINE
8
BLACK
6
CONTINUOUS
10
155.523
20
-115.386
11
155.54
21
-115.472
0
LINE
8
BLACK
6
CONTINUOUS
10
155.54
20
-115.472
11
155.54
21
-115.922
0
LINE
8
BLACK
6
CONTINUOUS
10
155.54
20
-115.922
11
155.523
21
-116.008
0
LINE
8
BLACK
6
CONTINUOUS
10
155.523
20
-116.008
11
155.474
21
-116.081
0
LINE
8
BLACK
6
CONTINUOUS
10
155.474
20
-116.081
11
155.401
21
-116.13
0
LINE
8
BLACK
6
CONTINUOUS
10
155.401
20
-116.13
11
155.315
21
-116.147
0
LINE
8
BLACK
6
CONTINUOUS
10
155.315
20
-116.147
11
154.565
21
-116.147
0
LINE
8
BLACK
6
CONTINUOUS
10
154.565
20
-116.147
11
154.479
21
-116.13
0
LINE
8
BLACK
6
CONTINUOUS
10
154.479
20
-116.13
11
154.406
21
-116.081
0
LINE
8
BLACK
6
CONTINUOUS
10
154.406
20
-116.081
11
154.357
21
-116.008
0
LINE
8
BLACK
6
CONTINUOUS
10
154.357
20
-116.008
11
154.34
21
-115.922
0
LINE
8
BLACK
6
CONTINUOUS
10
154.34
20
-115.922
11
154.34
21
-115.472
0
LINE
8
BLACK
6
CONTINUOUS
10
154.34
20
-115.472
11
154.357
21
-115.386
0
LINE
8
BLACK
6
CONTINUOUS
10
154.357
20
-115.386
11
154.406
21
-115.313
0
LINE
8
BLACK
6
CONTINUOUS
10
154.406
20
-115.313
11
154.479
21
-115.264
0
LINE
8
BLACK
6
CONTINUOUS
10
154.479
20
-115.264
11
154.565
21
-115.247
0
LINE
8
BLACK
6
CONTINUOUS
10
154.565
20
-115.247
11
155.315
21
-115.247
0
LINE
8
BLACK
6
CONTINUOUS
10
155.315
20
-115.247
11
155.401
21
-115.264
0
LINE
8
BLACK
6
CONTINUOUS
10
193.501
20
-115.138
11
193.574
21
-115.187
0
LINE
8
BLACK
6
CONTINUOUS
10
193.574
20
-115.187
11
193.623
21
-115.26
0
LINE
8
BLACK
6
CONTINUOUS
10
193.623
20
-115.26
11
193.64
21
-115.346
0
LINE
8
BLACK
6
CONTINUOUS
10
193.64
20
-115.346
11
193.64
21
-115.796
0
LINE
8
BLACK
6
CONTINUOUS
10
193.64
20
-115.796
11
193.623
21
-115.882
0
LINE
8
BLACK
6
CONTINUOUS
10
193.623
20
-115.882
11
193.574
21
-115.955
0
LINE
8
BLACK
6
CONTINUOUS
10
193.574
20
-115.955
11
193.501
21
-116.004
0
LINE
8
BLACK
6
CONTINUOUS
10
193.501
20
-116.004
11
193.415
21
-116.021
0
LINE
8
BLACK
6
CONTINUOUS
10
193.415
20
-116.021
11
192.665
21
-116.021
0
LINE
8
BLACK
6
CONTINUOUS
10
192.665
20
-116.021
11
192.579
21
-116.004
0
LINE
8
BLACK
6
CONTINUOUS
10
192.579
20
-116.004
11
192.506
21
-115.955
0
LINE
8
BLACK
6
CONTINUOUS
10
192.506
20
-115.955
11
192.457
21
-115.882
0
LINE
8
BLACK
6
CONTINUOUS
10
192.457
20
-115.882
11
192.44
21
-115.796
0
LINE
8
BLACK
6
CONTINUOUS
10
192.44
20
-115.796
11
192.44
21
-115.346
0
LINE
8
BLACK
6
CONTINUOUS
10
192.44
20
-115.346
11
192.457
21
-115.26
0
LINE
8
BLACK
6
CONTINUOUS
10
192.457
20
-115.26
11
192.506
21
-115.187
0
LINE
8
BLACK
6
CONTINUOUS
10
192.506
20
-115.187
11
192.579
21
-115.138
0
LINE
8
BLACK
6
CONTINUOUS
10
192.579
20
-115.138
11
192.665
21
-115.121
0
LINE
8
BLACK
6
CONTINUOUS
10
192.665
20
-115.121
11
193.415
21
-115.121
0
LINE
8
BLACK
6
CONTINUOUS
10
193.415
20
-115.121
11
193.501
21
-115.138
0
LINE
8
BLACK
6
CONTINUOUS
10
109.659
20
-113.463
11
109.732
21
-113.512
0
LINE
8
BLACK
6
CONTINUOUS
10
109.732
20
-113.512
11
109.781
21
-113.585
0
LINE
8
BLACK
6
CONTINUOUS
10
109.781
20
-113.585
11
109.798
21
-113.671
0
LINE
8
BLACK
6
CONTINUOUS
10
109.798
20
-113.671
11
109.798
21
-114.421
0
LINE
8
BLACK
6
CONTINUOUS
10
109.798
20
-114.421
11
109.781
21
-114.507
0
LINE
8
BLACK
6
CONTINUOUS
10
109.781
20
-114.507
11
109.732
21
-114.58
0
LINE
8
BLACK
6
CONTINUOUS
10
109.732
20
-114.58
11
109.659
21
-114.629
0
LINE
8
BLACK
6
CONTINUOUS
10
109.659
20
-114.629
11
109.573
21
-114.646
0
LINE
8
BLACK
6
CONTINUOUS
10
109.573
20
-114.646
11
109.123
21
-114.646
0
LINE
8
BLACK
6
CONTINUOUS
10
109.123
20
-114.646
11
109.037
21
-114.629
0
LINE
8
BLACK
6
CONTINUOUS
10
109.037
20
-114.629
11
108.964
21
-114.58
0
LINE
8
BLACK
6
CONTINUOUS
10
108.964
20
-114.58
11
108.915
21
-114.507
0
LINE
8
BLACK
6
CONTINUOUS
10
108.915
20
-114.507
11
108.898
21
-114.421
0
LINE
8
BLACK
6
CONTINUOUS
10
108.898
20
-114.421
11
108.898
21
-113.671
0
LINE
8
BLACK
6
CONTINUOUS
10
108.898
20
-113.671
11
108.915
21
-113.585
0
LINE
8
BLACK
6
CONTINUOUS
10
108.915
20
-113.585
11
108.964
21
-113.512
0
LINE
8
BLACK
6
CONTINUOUS
10
108.964
20
-113.512
11
109.037
21
-113.463
0
LINE
8
BLACK
6
CONTINUOUS
10
109.037
20
-113.463
11
109.123
21
-113.446
0
LINE
8
BLACK
6
CONTINUOUS
10
109.123
20
-113.446
11
109.573
21
-113.446
0
LINE
8
BLACK
6
CONTINUOUS
10
109.573
20
-113.446
11
109.659
21
-113.463
0
LINE
8
BLACK
6
CONTINUOUS
10
112.96
20
-113.463
11
113.033
21
-113.512
0
LINE
8
BLACK
6
CONTINUOUS
10
113.033
20
-113.512
11
113.082
21
-113.585
0
LINE
8
BLACK
6
CONTINUOUS
10
113.082
20
-113.585
11
113.099
21
-113.671
0
LINE
8
BLACK
6
CONTINUOUS
10
113.099
20
-113.671
11
113.099
21
-114.421
0
LINE
8
BLACK
6
CONTINUOUS
10
113.099
20
-114.421
11
113.082
21
-114.507
0
LINE
8
BLACK
6
CONTINUOUS
10
113.082
20
-114.507
11
113.033
21
-114.58
0
LINE
8
BLACK
6
CONTINUOUS
10
113.033
20
-114.58
11
112.96
21
-114.629
0
LINE
8
BLACK
6
CONTINUOUS
10
112.96
20
-114.629
11
112.874
21
-114.646
0
LINE
8
BLACK
6
CONTINUOUS
10
112.874
20
-114.646
11
112.424
21
-114.646
0
LINE
8
BLACK
6
CONTINUOUS
10
112.424
20
-114.646
11
112.338
21
-114.629
0
LINE
8
BLACK
6
CONTINUOUS
10
112.338
20
-114.629
11
112.265
21
-114.58
0
LINE
8
BLACK
6
CONTINUOUS
10
112.265
20
-114.58
11
112.216
21
-114.507
0
LINE
8
BLACK
6
CONTINUOUS
10
112.216
20
-114.507
11
112.199
21
-114.421
0
LINE
8
BLACK
6
CONTINUOUS
10
112.199
20
-114.421
11
112.199
21
-113.671
0
LINE
8
BLACK
6
CONTINUOUS
10
112.199
20
-113.671
11
112.216
21
-113.585
0
LINE
8
BLACK
6
CONTINUOUS
10
112.216
20
-113.585
11
112.265
21
-113.512
0
LINE
8
BLACK
6
CONTINUOUS
10
112.265
20
-113.512
11
112.338
21
-113.463
0
LINE
8
BLACK
6
CONTINUOUS
10
112.338
20
-113.463
11
112.424
21
-113.446
0
LINE
8
BLACK
6
CONTINUOUS
10
112.424
20
-113.446
11
112.874
21
-113.446
0
LINE
8
BLACK
6
CONTINUOUS
10
112.874
20
-113.446
11
112.96
21
-113.463
0
LINE
8
BLACK
6
CONTINUOUS
10
91.2407
20
-112.369
11
91.3137
21
-112.417
0
LINE
8
BLACK
6
CONTINUOUS
10
91.3137
20
-112.417
11
91.3625
21
-112.49
0
LINE
8
BLACK
6
CONTINUOUS
10
91.3625
20
-112.49
11
91.3796
21
-112.576
0
LINE
8
BLACK
6
CONTINUOUS
10
91.3796
20
-112.576
11
91.3796
21
-113.026
0
LINE
8
BLACK
6
CONTINUOUS
10
91.3796
20
-113.026
11
91.3625
21
-113.113
0
LINE
8
BLACK
6
CONTINUOUS
10
91.3625
20
-113.113
11
91.3137
21
-113.185
0
LINE
8
BLACK
6
CONTINUOUS
10
91.3137
20
-113.185
11
91.2407
21
-113.234
0
LINE
8
BLACK
6
CONTINUOUS
10
91.2407
20
-113.234
11
91.1546
21
-113.251
0
LINE
8
BLACK
6
CONTINUOUS
10
91.1546
20
-113.251
11
90.4046
21
-113.251
0
LINE
8
BLACK
6
CONTINUOUS
10
90.4046
20
-113.251
11
90.3185
21
-113.234
0
LINE
8
BLACK
6
CONTINUOUS
10
90.3185
20
-113.234
11
90.2455
21
-113.185
0
LINE
8
BLACK
6
CONTINUOUS
10
90.2455
20
-113.185
11
90.1967
21
-113.113
0
LINE
8
BLACK
6
CONTINUOUS
10
90.1967
20
-113.113
11
90.1796
21
-113.026
0
LINE
8
BLACK
6
CONTINUOUS
10
90.1796
20
-113.026
11
90.1796
21
-112.576
0
LINE
8
BLACK
6
CONTINUOUS
10
90.1796
20
-112.576
11
90.1967
21
-112.49
0
LINE
8
BLACK
6
CONTINUOUS
10
90.1967
20
-112.49
11
90.2455
21
-112.417
0
LINE
8
BLACK
6
CONTINUOUS
10
90.2455
20
-112.417
11
90.3185
21
-112.369
0
LINE
8
BLACK
6
CONTINUOUS
10
90.3185
20
-112.369
11
90.4046
21
-112.351
0
LINE
8
BLACK
6
CONTINUOUS
10
90.4046
20
-112.351
11
91.1546
21
-112.351
0
LINE
8
BLACK
6
CONTINUOUS
10
91.1546
20
-112.351
11
91.2407
21
-112.369
0
LINE
8
BLACK
6
CONTINUOUS
10
93.5013
20
-112.369
11
93.5743
21
-112.417
0
LINE
8
BLACK
6
CONTINUOUS
10
93.5743
20
-112.417
11
93.6231
21
-112.49
0
LINE
8
BLACK
6
CONTINUOUS
10
93.6231
20
-112.49
11
93.6402
21
-112.576
0
LINE
8
BLACK
6
CONTINUOUS
10
93.6402
20
-112.576
11
93.6402
21
-113.026
0
LINE
8
BLACK
6
CONTINUOUS
10
93.6402
20
-113.026
11
93.6231
21
-113.113
0
LINE
8
BLACK
6
CONTINUOUS
10
93.6231
20
-113.113
11
93.5743
21
-113.185
0
LINE
8
BLACK
6
CONTINUOUS
10
93.5743
20
-113.185
11
93.5013
21
-113.234
0
LINE
8
BLACK
6
CONTINUOUS
10
93.5013
20
-113.234
11
93.4152
21
-113.251
0
LINE
8
BLACK
6
CONTINUOUS
10
93.4152
20
-113.251
11
92.6652
21
-113.251
0
LINE
8
BLACK
6
CONTINUOUS
10
92.6652
20
-113.251
11
92.5791
21
-113.234
0
LINE
8
BLACK
6
CONTINUOUS
10
92.5791
20
-113.234
11
92.5061
21
-113.185
0
LINE
8
BLACK
6
CONTINUOUS
10
92.5061
20
-113.185
11
92.4573
21
-113.113
0
LINE
8
BLACK
6
CONTINUOUS
10
92.4573
20
-113.113
11
92.4402
21
-113.026
0
LINE
8
BLACK
6
CONTINUOUS
10
92.4402
20
-113.026
11
92.4402
21
-112.576
0
LINE
8
BLACK
6
CONTINUOUS
10
92.4402
20
-112.576
11
92.4573
21
-112.49
0
LINE
8
BLACK
6
CONTINUOUS
10
92.4573
20
-112.49
11
92.5061
21
-112.417
0
LINE
8
BLACK
6
CONTINUOUS
10
92.5061
20
-112.417
11
92.5791
21
-112.369
0
LINE
8
BLACK
6
CONTINUOUS
10
92.5791
20
-112.369
11
92.6652
21
-112.351
0
LINE
8
BLACK
6
CONTINUOUS
10
92.6652
20
-112.351
11
93.4152
21
-112.351
0
LINE
8
BLACK
6
CONTINUOUS
10
93.4152
20
-112.351
11
93.5013
21
-112.369
0
LINE
8
BLACK
6
CONTINUOUS
10
212.297
20
-112.217
11
212.37
21
-112.266
0
LINE
8
BLACK
6
CONTINUOUS
10
212.37
20
-112.266
11
212.419
21
-112.339
0
LINE
8
BLACK
6
CONTINUOUS
10
212.419
20
-112.339
11
212.436
21
-112.425
0
LINE
8
BLACK
6
CONTINUOUS
10
212.436
20
-112.425
11
212.436
21
-112.875
0
LINE
8
BLACK
6
CONTINUOUS
10
212.436
20
-112.875
11
212.419
21
-112.961
0
LINE
8
BLACK
6
CONTINUOUS
10
212.419
20
-112.961
11
212.37
21
-113.034
0
LINE
8
BLACK
6
CONTINUOUS
10
212.37
20
-113.034
11
212.297
21
-113.083
0
LINE
8
BLACK
6
CONTINUOUS
10
212.297
20
-113.083
11
212.211
21
-113.1
0
LINE
8
BLACK
6
CONTINUOUS
10
212.211
20
-113.1
11
211.461
21
-113.1
0
LINE
8
BLACK
6
CONTINUOUS
10
211.461
20
-113.1
11
211.375
21
-113.083
0
LINE
8
BLACK
6
CONTINUOUS
10
211.375
20
-113.083
11
211.302
21
-113.034
0
LINE
8
BLACK
6
CONTINUOUS
10
211.302
20
-113.034
11
211.253
21
-112.961
0
LINE
8
BLACK
6
CONTINUOUS
10
211.253
20
-112.961
11
211.236
21
-112.875
0
LINE
8
BLACK
6
CONTINUOUS
10
211.236
20
-112.875
11
211.236
21
-112.425
0
LINE
8
BLACK
6
CONTINUOUS
10
211.236
20
-112.425
11
211.253
21
-112.339
0
LINE
8
BLACK
6
CONTINUOUS
10
211.253
20
-112.339
11
211.302
21
-112.266
0
LINE
8
BLACK
6
CONTINUOUS
10
211.302
20
-112.266
11
211.375
21
-112.217
0
LINE
8
BLACK
6
CONTINUOUS
10
211.375
20
-112.217
11
211.461
21
-112.2
0
LINE
8
BLACK
6
CONTINUOUS
10
211.461
20
-112.2
11
212.211
21
-112.2
0
LINE
8
BLACK
6
CONTINUOUS
10
212.211
20
-112.2
11
212.297
21
-112.217
0
LINE
8
BLACK
6
CONTINUOUS
10
151.262
20
-113.01
11
148.912
21
-113.01
0
LINE
8
BLACK
6
CONTINUOUS
10
148.912
20
-113.01
11
148.912
21
-110.51
0
LINE
8
BLACK
6
CONTINUOUS
10
148.912
20
-110.51
11
151.262
21
-110.51
0
LINE
8
BLACK
6
CONTINUOUS
10
151.262
20
-110.51
11
151.262
21
-113.01
0
LINE
8
BLACK
6
CONTINUOUS
10
189.362
20
-113.01
11
187.012
21
-113.01
0
LINE
8
BLACK
6
CONTINUOUS
10
187.012
20
-113.01
11
187.012
21
-110.51
0
LINE
8
BLACK
6
CONTINUOUS
10
187.012
20
-110.51
11
189.362
21
-110.51
0
LINE
8
BLACK
6
CONTINUOUS
10
189.362
20
-110.51
11
189.362
21
-113.01
0
LINE
8
BLACK
6
CONTINUOUS
10
155.401
20
-111.963
11
155.474
21
-112.012
0
LINE
8
BLACK
6
CONTINUOUS
10
155.474
20
-112.012
11
155.523
21
-112.085
0
LINE
8
BLACK
6
CONTINUOUS
10
155.523
20
-112.085
11
155.54
21
-112.171
0
LINE
8
BLACK
6
CONTINUOUS
10
155.54
20
-112.171
11
155.54
21
-112.621
0
LINE
8
BLACK
6
CONTINUOUS
10
155.54
20
-112.621
11
155.523
21
-112.707
0
LINE
8
BLACK
6
CONTINUOUS
10
155.523
20
-112.707
11
155.474
21
-112.78
0
LINE
8
BLACK
6
CONTINUOUS
10
155.474
20
-112.78
11
155.401
21
-112.829
0
LINE
8
BLACK
6
CONTINUOUS
10
155.401
20
-112.829
11
155.315
21
-112.846
0
LINE
8
BLACK
6
CONTINUOUS
10
155.315
20
-112.846
11
154.565
21
-112.846
0
LINE
8
BLACK
6
CONTINUOUS
10
154.565
20
-112.846
11
154.479
21
-112.829
0
LINE
8
BLACK
6
CONTINUOUS
10
154.479
20
-112.829
11
154.406
21
-112.78
0
LINE
8
BLACK
6
CONTINUOUS
10
154.406
20
-112.78
11
154.357
21
-112.707
0
LINE
8
BLACK
6
CONTINUOUS
10
154.357
20
-112.707
11
154.34
21
-112.621
0
LINE
8
BLACK
6
CONTINUOUS
10
154.34
20
-112.621
11
154.34
21
-112.171
0
LINE
8
BLACK
6
CONTINUOUS
10
154.34
20
-112.171
11
154.357
21
-112.085
0
LINE
8
BLACK
6
CONTINUOUS
10
154.357
20
-112.085
11
154.406
21
-112.012
0
LINE
8
BLACK
6
CONTINUOUS
10
154.406
20
-112.012
11
154.479
21
-111.963
0
LINE
8
BLACK
6
CONTINUOUS
10
154.479
20
-111.963
11
154.565
21
-111.946
0
LINE
8
BLACK
6
CONTINUOUS
10
154.565
20
-111.946
11
155.315
21
-111.946
0
LINE
8
BLACK
6
CONTINUOUS
10
155.315
20
-111.946
11
155.401
21
-111.963
0
LINE
8
BLACK
6
CONTINUOUS
10
193.501
20
-111.837
11
193.574
21
-111.886
0
LINE
8
BLACK
6
CONTINUOUS
10
193.574
20
-111.886
11
193.623
21
-111.959
0
LINE
8
BLACK
6
CONTINUOUS
10
193.623
20
-111.959
11
193.64
21
-112.045
0
LINE
8
BLACK
6
CONTINUOUS
10
193.64
20
-112.045
11
193.64
21
-112.495
0
LINE
8
BLACK
6
CONTINUOUS
10
193.64
20
-112.495
11
193.623
21
-112.581
0
LINE
8
BLACK
6
CONTINUOUS
10
193.623
20
-112.581
11
193.574
21
-112.654
0
LINE
8
BLACK
6
CONTINUOUS
10
193.574
20
-112.654
11
193.501
21
-112.703
0
LINE
8
BLACK
6
CONTINUOUS
10
193.501
20
-112.703
11
193.415
21
-112.72
0
LINE
8
BLACK
6
CONTINUOUS
10
193.415
20
-112.72
11
192.665
21
-112.72
0
LINE
8
BLACK
6
CONTINUOUS
10
192.665
20
-112.72
11
192.579
21
-112.703
0
LINE
8
BLACK
6
CONTINUOUS
10
192.579
20
-112.703
11
192.506
21
-112.654
0
LINE
8
BLACK
6
CONTINUOUS
10
192.506
20
-112.654
11
192.457
21
-112.581
0
LINE
8
BLACK
6
CONTINUOUS
10
192.457
20
-112.581
11
192.44
21
-112.495
0
LINE
8
BLACK
6
CONTINUOUS
10
192.44
20
-112.495
11
192.44
21
-112.045
0
LINE
8
BLACK
6
CONTINUOUS
10
192.44
20
-112.045
11
192.457
21
-111.959
0
LINE
8
BLACK
6
CONTINUOUS
10
192.457
20
-111.959
11
192.506
21
-111.886
0
LINE
8
BLACK
6
CONTINUOUS
10
192.506
20
-111.886
11
192.579
21
-111.837
0
LINE
8
BLACK
6
CONTINUOUS
10
192.579
20
-111.837
11
192.665
21
-111.82
0
LINE
8
BLACK
6
CONTINUOUS
10
192.665
20
-111.82
11
193.415
21
-111.82
0
LINE
8
BLACK
6
CONTINUOUS
10
193.415
20
-111.82
11
193.501
21
-111.837
0
LINE
8
BLACK
6
CONTINUOUS
10
137.551
20
-110.483
11
135.401
21
-110.483
0
LINE
8
BLACK
6
CONTINUOUS
10
135.401
20
-110.483
11
135.401
21
-107.983
0
LINE
8
BLACK
6
CONTINUOUS
10
135.401
20
-107.983
11
137.551
21
-107.983
0
LINE
8
BLACK
6
CONTINUOUS
10
137.551
20
-107.983
11
137.551
21
-110.483
0
LINE
8
BLACK
6
CONTINUOUS
10
175.651
20
-110.483
11
173.501
21
-110.483
0
LINE
8
BLACK
6
CONTINUOUS
10
173.501
20
-110.483
11
173.501
21
-107.983
0
LINE
8
BLACK
6
CONTINUOUS
10
173.501
20
-107.983
11
175.651
21
-107.983
0
LINE
8
BLACK
6
CONTINUOUS
10
175.651
20
-107.983
11
175.651
21
-110.483
0
LINE
8
BLACK
6
CONTINUOUS
10
91.2407
20
-109.068
11
91.3137
21
-109.116
0
LINE
8
BLACK
6
CONTINUOUS
10
91.3137
20
-109.116
11
91.3625
21
-109.189
0
LINE
8
BLACK
6
CONTINUOUS
10
91.3625
20
-109.189
11
91.3796
21
-109.275
0
LINE
8
BLACK
6
CONTINUOUS
10
91.3796
20
-109.275
11
91.3796
21
-109.725
0
LINE
8
BLACK
6
CONTINUOUS
10
91.3796
20
-109.725
11
91.3625
21
-109.812
0
LINE
8
BLACK
6
CONTINUOUS
10
91.3625
20
-109.812
11
91.3137
21
-109.884
0
LINE
8
BLACK
6
CONTINUOUS
10
91.3137
20
-109.884
11
91.2407
21
-109.933
0
LINE
8
BLACK
6
CONTINUOUS
10
91.2407
20
-109.933
11
91.1546
21
-109.95
0
LINE
8
BLACK
6
CONTINUOUS
10
91.1546
20
-109.95
11
90.4046
21
-109.95
0
LINE
8
BLACK
6
CONTINUOUS
10
90.4046
20
-109.95
11
90.3185
21
-109.933
0
LINE
8
BLACK
6
CONTINUOUS
10
90.3185
20
-109.933
11
90.2455
21
-109.884
0
LINE
8
BLACK
6
CONTINUOUS
10
90.2455
20
-109.884
11
90.1967
21
-109.812
0
LINE
8
BLACK
6
CONTINUOUS
10
90.1967
20
-109.812
11
90.1796
21
-109.725
0
LINE
8
BLACK
6
CONTINUOUS
10
90.1796
20
-109.725
11
90.1796
21
-109.275
0
LINE
8
BLACK
6
CONTINUOUS
10
90.1796
20
-109.275
11
90.1967
21
-109.189
0
LINE
8
BLACK
6
CONTINUOUS
10
90.1967
20
-109.189
11
90.2455
21
-109.116
0
LINE
8
BLACK
6
CONTINUOUS
10
90.2455
20
-109.116
11
90.3185
21
-109.068
0
LINE
8
BLACK
6
CONTINUOUS
10
90.3185
20
-109.068
11
90.4046
21
-109.05
0
LINE
8
BLACK
6
CONTINUOUS
10
90.4046
20
-109.05
11
91.1546
21
-109.05
0
LINE
8
BLACK
6
CONTINUOUS
10
91.1546
20
-109.05
11
91.2407
21
-109.068
0
LINE
8
BLACK
6
CONTINUOUS
10
93.5013
20
-109.068
11
93.5743
21
-109.116
0
LINE
8
BLACK
6
CONTINUOUS
10
93.5743
20
-109.116
11
93.6231
21
-109.189
0
LINE
8
BLACK
6
CONTINUOUS
10
93.6231
20
-109.189
11
93.6402
21
-109.275
0
LINE
8
BLACK
6
CONTINUOUS
10
93.6402
20
-109.275
11
93.6402
21
-109.725
0
LINE
8
BLACK
6
CONTINUOUS
10
93.6402
20
-109.725
11
93.6231
21
-109.812
0
LINE
8
BLACK
6
CONTINUOUS
10
93.6231
20
-109.812
11
93.5743
21
-109.884
0
LINE
8
BLACK
6
CONTINUOUS
10
93.5743
20
-109.884
11
93.5013
21
-109.933
0
LINE
8
BLACK
6
CONTINUOUS
10
93.5013
20
-109.933
11
93.4152
21
-109.95
0
LINE
8
BLACK
6
CONTINUOUS
10
93.4152
20
-109.95
11
92.6652
21
-109.95
0
LINE
8
BLACK
6
CONTINUOUS
10
92.6652
20
-109.95
11
92.5791
21
-109.933
0
LINE
8
BLACK
6
CONTINUOUS
10
92.5791
20
-109.933
11
92.5061
21
-109.884
0
LINE
8
BLACK
6
CONTINUOUS
10
92.5061
20
-109.884
11
92.4573
21
-109.812
0
LINE
8
BLACK
6
CONTINUOUS
10
92.4573
20
-109.812
11
92.4402
21
-109.725
0
LINE
8
BLACK
6
CONTINUOUS
10
92.4402
20
-109.725
11
92.4402
21
-109.275
0
LINE
8
BLACK
6
CONTINUOUS
10
92.4402
20
-109.275
11
92.4573
21
-109.189
0
LINE
8
BLACK
6
CONTINUOUS
10
92.4573
20
-109.189
11
92.5061
21
-109.116
0
LINE
8
BLACK
6
CONTINUOUS
10
92.5061
20
-109.116
11
92.5791
21
-109.068
0
LINE
8
BLACK
6
CONTINUOUS
10
92.5791
20
-109.068
11
92.6652
21
-109.05
0
LINE
8
BLACK
6
CONTINUOUS
10
92.6652
20
-109.05
11
93.4152
21
-109.05
0
LINE
8
BLACK
6
CONTINUOUS
10
93.4152
20
-109.05
11
93.5013
21
-109.068
0
LINE
8
BLACK
6
CONTINUOUS
10
170.312
20
-108.247
11
167.962
21
-108.247
0
LINE
8
BLACK
6
CONTINUOUS
10
167.962
20
-108.247
11
167.962
21
-105.748
0
LINE
8
BLACK
6
CONTINUOUS
10
167.962
20
-105.748
11
170.312
21
-105.748
0
LINE
8
BLACK
6
CONTINUOUS
10
170.312
20
-105.748
11
170.312
21
-108.247
0
LINE
8
BLACK
6
CONTINUOUS
10
208.412
20
-108.247
11
206.062
21
-108.247
0
LINE
8
BLACK
6
CONTINUOUS
10
206.062
20
-108.247
11
206.062
21
-105.748
0
LINE
8
BLACK
6
CONTINUOUS
10
206.062
20
-105.748
11
208.412
21
-105.748
0
LINE
8
BLACK
6
CONTINUOUS
10
208.412
20
-105.748
11
208.412
21
-108.247
0
LINE
8
BLACK
6
CONTINUOUS
10
227.462
20
-108.247
11
225.112
21
-108.247
0
LINE
8
BLACK
6
CONTINUOUS
10
225.112
20
-108.247
11
225.112
21
-105.748
0
LINE
8
BLACK
6
CONTINUOUS
10
225.112
20
-105.748
11
227.462
21
-105.748
0
LINE
8
BLACK
6
CONTINUOUS
10
227.462
20
-105.748
11
227.462
21
-108.247
0
LINE
8
BLACK
6
CONTINUOUS
10
117.301
20
-105.612
11
117.374
21
-105.661
0
LINE
8
BLACK
6
CONTINUOUS
10
117.374
20
-105.661
11
117.423
21
-105.734
0
LINE
8
BLACK
6
CONTINUOUS
10
117.423
20
-105.734
11
117.44
21
-105.82
0
LINE
8
BLACK
6
CONTINUOUS
10
117.44
20
-105.82
11
117.44
21
-106.27
0
LINE
8
BLACK
6
CONTINUOUS
10
117.44
20
-106.27
11
117.423
21
-106.356
0
LINE
8
BLACK
6
CONTINUOUS
10
117.423
20
-106.356
11
117.374
21
-106.429
0
LINE
8
BLACK
6
CONTINUOUS
10
117.374
20
-106.429
11
117.301
21
-106.478
0
LINE
8
BLACK
6
CONTINUOUS
10
117.301
20
-106.478
11
117.215
21
-106.495
0
LINE
8
BLACK
6
CONTINUOUS
10
117.215
20
-106.495
11
116.465
21
-106.495
0
LINE
8
BLACK
6
CONTINUOUS
10
116.465
20
-106.495
11
116.379
21
-106.478
0
LINE
8
BLACK
6
CONTINUOUS
10
116.379
20
-106.478
11
116.306
21
-106.429
0
LINE
8
BLACK
6
CONTINUOUS
10
116.306
20
-106.429
11
116.257
21
-106.356
0
LINE
8
BLACK
6
CONTINUOUS
10
116.257
20
-106.356
11
116.24
21
-106.27
0
LINE
8
BLACK
6
CONTINUOUS
10
116.24
20
-106.27
11
116.24
21
-105.82
0
LINE
8
BLACK
6
CONTINUOUS
10
116.24
20
-105.82
11
116.257
21
-105.734
0
LINE
8
BLACK
6
CONTINUOUS
10
116.257
20
-105.734
11
116.306
21
-105.661
0
LINE
8
BLACK
6
CONTINUOUS
10
116.306
20
-105.661
11
116.379
21
-105.612
0
LINE
8
BLACK
6
CONTINUOUS
10
116.379
20
-105.612
11
116.465
21
-105.595
0
LINE
8
BLACK
6
CONTINUOUS
10
116.465
20
-105.595
11
117.215
21
-105.595
0
LINE
8
BLACK
6
CONTINUOUS
10
117.215
20
-105.595
11
117.301
21
-105.612
0
LINE
8
BLACK
6
CONTINUOUS
10
156.601
20
-105.72
11
154.451
21
-105.72
0
LINE
8
BLACK
6
CONTINUOUS
10
154.451
20
-105.72
11
154.451
21
-103.22
0
LINE
8
BLACK
6
CONTINUOUS
10
154.451
20
-103.22
11
156.601
21
-103.22
0
LINE
8
BLACK
6
CONTINUOUS
10
156.601
20
-103.22
11
156.601
21
-105.72
0
LINE
8
BLACK
6
CONTINUOUS
10
194.701
20
-105.72
11
192.551
21
-105.72
0
LINE
8
BLACK
6
CONTINUOUS
10
192.551
20
-105.72
11
192.551
21
-103.22
0
LINE
8
BLACK
6
CONTINUOUS
10
192.551
20
-103.22
11
194.701
21
-103.22
0
LINE
8
BLACK
6
CONTINUOUS
10
194.701
20
-103.22
11
194.701
21
-105.72
0
LINE
8
BLACK
6
CONTINUOUS
10
213.751
20
-105.72
11
211.601
21
-105.72
0
LINE
8
BLACK
6
CONTINUOUS
10
211.601
20
-105.72
11
211.601
21
-103.22
0
LINE
8
BLACK
6
CONTINUOUS
10
211.601
20
-103.22
11
213.751
21
-103.22
0
LINE
8
BLACK
6
CONTINUOUS
10
213.751
20
-103.22
11
213.751
21
-105.72
0
LINE
8
BLACK
6
CONTINUOUS
10
117.301
20
-102.311
11
117.374
21
-102.36
0
LINE
8
BLACK
6
CONTINUOUS
10
117.374
20
-102.36
11
117.423
21
-102.433
0
LINE
8
BLACK
6
CONTINUOUS
10
117.423
20
-102.433
11
117.44
21
-102.519
0
LINE
8
BLACK
6
CONTINUOUS
10
117.44
20
-102.519
11
117.44
21
-102.969
0
LINE
8
BLACK
6
CONTINUOUS
10
117.44
20
-102.969
11
117.423
21
-103.055
0
LINE
8
BLACK
6
CONTINUOUS
10
117.423
20
-103.055
11
117.374
21
-103.128
0
LINE
8
BLACK
6
CONTINUOUS
10
117.374
20
-103.128
11
117.301
21
-103.177
0
LINE
8
BLACK
6
CONTINUOUS
10
117.301
20
-103.177
11
117.215
21
-103.194
0
LINE
8
BLACK
6
CONTINUOUS
10
117.215
20
-103.194
11
116.465
21
-103.194
0
LINE
8
BLACK
6
CONTINUOUS
10
116.465
20
-103.194
11
116.379
21
-103.177
0
LINE
8
BLACK
6
CONTINUOUS
10
116.379
20
-103.177
11
116.306
21
-103.128
0
LINE
8
BLACK
6
CONTINUOUS
10
116.306
20
-103.128
11
116.257
21
-103.055
0
LINE
8
BLACK
6
CONTINUOUS
10
116.257
20
-103.055
11
116.24
21
-102.969
0
LINE
8
BLACK
6
CONTINUOUS
10
116.24
20
-102.969
11
116.24
21
-102.519
0
LINE
8
BLACK
6
CONTINUOUS
10
116.24
20
-102.519
11
116.257
21
-102.433
0
LINE
8
BLACK
6
CONTINUOUS
10
116.257
20
-102.433
11
116.306
21
-102.36
0
LINE
8
BLACK
6
CONTINUOUS
10
116.306
20
-102.36
11
116.379
21
-102.311
0
LINE
8
BLACK
6
CONTINUOUS
10
116.379
20
-102.311
11
116.465
21
-102.294
0
LINE
8
BLACK
6
CONTINUOUS
10
116.465
20
-102.294
11
117.215
21
-102.294
0
LINE
8
BLACK
6
CONTINUOUS
10
117.215
20
-102.294
11
117.301
21
-102.311
0
LINE
8
BLACK
6
CONTINUOUS
10
136.351
20
-100.786
11
136.424
21
-100.835
0
LINE
8
BLACK
6
CONTINUOUS
10
136.424
20
-100.835
11
136.473
21
-100.908
0
LINE
8
BLACK
6
CONTINUOUS
10
136.473
20
-100.908
11
136.49
21
-100.994
0
LINE
8
BLACK
6
CONTINUOUS
10
136.49
20
-100.994
11
136.49
21
-101.444
0
LINE
8
BLACK
6
CONTINUOUS
10
136.49
20
-101.444
11
136.473
21
-101.53
0
LINE
8
BLACK
6
CONTINUOUS
10
136.473
20
-101.53
11
136.424
21
-101.603
0
LINE
8
BLACK
6
CONTINUOUS
10
136.424
20
-101.603
11
136.351
21
-101.652
0
LINE
8
BLACK
6
CONTINUOUS
10
136.351
20
-101.652
11
136.265
21
-101.669
0
LINE
8
BLACK
6
CONTINUOUS
10
136.265
20
-101.669
11
135.515
21
-101.669
0
LINE
8
BLACK
6
CONTINUOUS
10
135.515
20
-101.669
11
135.429
21
-101.652
0
LINE
8
BLACK
6
CONTINUOUS
10
135.429
20
-101.652
11
135.356
21
-101.603
0
LINE
8
BLACK
6
CONTINUOUS
10
135.356
20
-101.603
11
135.307
21
-101.53
0
LINE
8
BLACK
6
CONTINUOUS
10
135.307
20
-101.53
11
135.29
21
-101.444
0
LINE
8
BLACK
6
CONTINUOUS
10
135.29
20
-101.444
11
135.29
21
-100.994
0
LINE
8
BLACK
6
CONTINUOUS
10
135.29
20
-100.994
11
135.307
21
-100.908
0
LINE
8
BLACK
6
CONTINUOUS
10
135.307
20
-100.908
11
135.356
21
-100.835
0
LINE
8
BLACK
6
CONTINUOUS
10
135.356
20
-100.835
11
135.429
21
-100.786
0
LINE
8
BLACK
6
CONTINUOUS
10
135.429
20
-100.786
11
135.515
21
-100.769
0
LINE
8
BLACK
6
CONTINUOUS
10
135.515
20
-100.769
11
136.265
21
-100.769
0
LINE
8
BLACK
6
CONTINUOUS
10
136.265
20
-100.769
11
136.351
21
-100.786
0
LINE
8
BLACK
6
CONTINUOUS
10
174.451
20
-100.583
11
174.524
21
-100.632
0
LINE
8
BLACK
6
CONTINUOUS
10
174.524
20
-100.632
11
174.573
21
-100.705
0
LINE
8
BLACK
6
CONTINUOUS
10
174.573
20
-100.705
11
174.59
21
-100.791
0
LINE
8
BLACK
6
CONTINUOUS
10
174.59
20
-100.791
11
174.59
21
-101.241
0
LINE
8
BLACK
6
CONTINUOUS
10
174.59
20
-101.241
11
174.573
21
-101.327
0
LINE
8
BLACK
6
CONTINUOUS
10
174.573
20
-101.327
11
174.524
21
-101.4
0
LINE
8
BLACK
6
CONTINUOUS
10
174.524
20
-101.4
11
174.451
21
-101.449
0
LINE
8
BLACK
6
CONTINUOUS
10
174.451
20
-101.449
11
174.365
21
-101.466
0
LINE
8
BLACK
6
CONTINUOUS
10
174.365
20
-101.466
11
173.615
21
-101.466
0
LINE
8
BLACK
6
CONTINUOUS
10
173.615
20
-101.466
11
173.529
21
-101.449
0
LINE
8
BLACK
6
CONTINUOUS
10
173.529
20
-101.449
11
173.456
21
-101.4
0
LINE
8
BLACK
6
CONTINUOUS
10
173.456
20
-101.4
11
173.407
21
-101.327
0
LINE
8
BLACK
6
CONTINUOUS
10
173.407
20
-101.327
11
173.39
21
-101.241
0
LINE
8
BLACK
6
CONTINUOUS
10
173.39
20
-101.241
11
173.39
21
-100.791
0
LINE
8
BLACK
6
CONTINUOUS
10
173.39
20
-100.791
11
173.407
21
-100.705
0
LINE
8
BLACK
6
CONTINUOUS
10
173.407
20
-100.705
11
173.456
21
-100.632
0
LINE
8
BLACK
6
CONTINUOUS
10
173.456
20
-100.632
11
173.529
21
-100.583
0
LINE
8
BLACK
6
CONTINUOUS
10
173.529
20
-100.583
11
173.615
21
-100.566
0
LINE
8
BLACK
6
CONTINUOUS
10
173.615
20
-100.566
11
174.365
21
-100.566
0
LINE
8
BLACK
6
CONTINUOUS
10
174.365
20
-100.566
11
174.451
21
-100.583
0
LINE
8
BLACK
6
CONTINUOUS
10
132.212
20
-98.7225
11
129.862
21
-98.7225
0
LINE
8
BLACK
6
CONTINUOUS
10
129.862
20
-98.7225
11
129.862
21
-96.2225
0
LINE
8
BLACK
6
CONTINUOUS
10
129.862
20
-96.2225
11
132.212
21
-96.2225
0
LINE
8
BLACK
6
CONTINUOUS
10
132.212
20
-96.2225
11
132.212
21
-98.7225
0
LINE
8
BLACK
6
CONTINUOUS
10
136.351
20
-97.4851
11
136.424
21
-97.5339
0
LINE
8
BLACK
6
CONTINUOUS
10
136.424
20
-97.5339
11
136.473
21
-97.6069
0
LINE
8
BLACK
6
CONTINUOUS
10
136.473
20
-97.6069
11
136.49
21
-97.693
0
LINE
8
BLACK
6
CONTINUOUS
10
136.49
20
-97.693
11
136.49
21
-98.143
0
LINE
8
BLACK
6
CONTINUOUS
10
136.49
20
-98.143
11
136.473
21
-98.2291
0
LINE
8
BLACK
6
CONTINUOUS
10
136.473
20
-98.2291
11
136.424
21
-98.3021
0
LINE
8
BLACK
6
CONTINUOUS
10
136.424
20
-98.3021
11
136.351
21
-98.3509
0
LINE
8
BLACK
6
CONTINUOUS
10
136.351
20
-98.3509
11
136.265
21
-98.368
0
LINE
8
BLACK
6
CONTINUOUS
10
136.265
20
-98.368
11
135.515
21
-98.368
0
LINE
8
BLACK
6
CONTINUOUS
10
135.515
20
-98.368
11
135.429
21
-98.3509
0
LINE
8
BLACK
6
CONTINUOUS
10
135.429
20
-98.3509
11
135.356
21
-98.3021
0
LINE
8
BLACK
6
CONTINUOUS
10
135.356
20
-98.3021
11
135.307
21
-98.2291
0
LINE
8
BLACK
6
CONTINUOUS
10
135.307
20
-98.2291
11
135.29
21
-98.143
0
LINE
8
BLACK
6
CONTINUOUS
10
135.29
20
-98.143
11
135.29
21
-97.693
0
LINE
8
BLACK
6
CONTINUOUS
10
135.29
20
-97.693
11
135.307
21
-97.6069
0
LINE
8
BLACK
6
CONTINUOUS
10
135.307
20
-97.6069
11
135.356
21
-97.5339
0
LINE
8
BLACK
6
CONTINUOUS
10
135.356
20
-97.5339
11
135.429
21
-97.4851
0
LINE
8
BLACK
6
CONTINUOUS
10
135.429
20
-97.4851
11
135.515
21
-97.468
0
LINE
8
BLACK
6
CONTINUOUS
10
135.515
20
-97.468
11
136.265
21
-97.468
0
LINE
8
BLACK
6
CONTINUOUS
10
136.265
20
-97.468
11
136.351
21
-97.4851
0
LINE
8
BLACK
6
CONTINUOUS
10
174.451
20
-97.2819
11
174.524
21
-97.3307
0
LINE
8
BLACK
6
CONTINUOUS
10
174.524
20
-97.3307
11
174.573
21
-97.4037
0
LINE
8
BLACK
6
CONTINUOUS
10
174.573
20
-97.4037
11
174.59
21
-97.4898
0
LINE
8
BLACK
6
CONTINUOUS
10
174.59
20
-97.4898
11
174.59
21
-97.9398
0
LINE
8
BLACK
6
CONTINUOUS
10
174.59
20
-97.9398
11
174.573
21
-98.0259
0
LINE
8
BLACK
6
CONTINUOUS
10
174.573
20
-98.0259
11
174.524
21
-98.0989
0
LINE
8
BLACK
6
CONTINUOUS
10
174.524
20
-98.0989
11
174.451
21
-98.1477
0
LINE
8
BLACK
6
CONTINUOUS
10
174.451
20
-98.1477
11
174.365
21
-98.1648
0
LINE
8
BLACK
6
CONTINUOUS
10
174.365
20
-98.1648
11
173.615
21
-98.1648
0
LINE
8
BLACK
6
CONTINUOUS
10
173.615
20
-98.1648
11
173.529
21
-98.1477
0
LINE
8
BLACK
6
CONTINUOUS
10
173.529
20
-98.1477
11
173.456
21
-98.0989
0
LINE
8
BLACK
6
CONTINUOUS
10
173.456
20
-98.0989
11
173.407
21
-98.0259
0
LINE
8
BLACK
6
CONTINUOUS
10
173.407
20
-98.0259
11
173.39
21
-97.9398
0
LINE
8
BLACK
6
CONTINUOUS
10
173.39
20
-97.9398
11
173.39
21
-97.4898
0
LINE
8
BLACK
6
CONTINUOUS
10
173.39
20
-97.4898
11
173.407
21
-97.4037
0
LINE
8
BLACK
6
CONTINUOUS
10
173.407
20
-97.4037
11
173.456
21
-97.3307
0
LINE
8
BLACK
6
CONTINUOUS
10
173.456
20
-97.3307
11
173.529
21
-97.2819
0
LINE
8
BLACK
6
CONTINUOUS
10
173.529
20
-97.2819
11
173.615
21
-97.2648
0
LINE
8
BLACK
6
CONTINUOUS
10
173.615
20
-97.2648
11
174.365
21
-97.2648
0
LINE
8
BLACK
6
CONTINUOUS
10
174.365
20
-97.2648
11
174.451
21
-97.2819
0
LINE
8
BLACK
6
CONTINUOUS
10
155.401
20
-96.2141
11
155.474
21
-96.2629
0
LINE
8
BLACK
6
CONTINUOUS
10
155.474
20
-96.2629
11
155.523
21
-96.3359
0
LINE
8
BLACK
6
CONTINUOUS
10
155.523
20
-96.3359
11
155.54
21
-96.422
0
LINE
8
BLACK
6
CONTINUOUS
10
155.54
20
-96.422
11
155.54
21
-96.872
0
LINE
8
BLACK
6
CONTINUOUS
10
155.54
20
-96.872
11
155.523
21
-96.9581
0
LINE
8
BLACK
6
CONTINUOUS
10
155.523
20
-96.9581
11
155.474
21
-97.0311
0
LINE
8
BLACK
6
CONTINUOUS
10
155.474
20
-97.0311
11
155.401
21
-97.0799
0
LINE
8
BLACK
6
CONTINUOUS
10
155.401
20
-97.0799
11
155.315
21
-97.097
0
LINE
8
BLACK
6
CONTINUOUS
10
155.315
20
-97.097
11
154.565
21
-97.097
0
LINE
8
BLACK
6
CONTINUOUS
10
154.565
20
-97.097
11
154.479
21
-97.0799
0
LINE
8
BLACK
6
CONTINUOUS
10
154.479
20
-97.0799
11
154.406
21
-97.0311
0
LINE
8
BLACK
6
CONTINUOUS
10
154.406
20
-97.0311
11
154.357
21
-96.9581
0
LINE
8
BLACK
6
CONTINUOUS
10
154.357
20
-96.9581
11
154.34
21
-96.872
0
LINE
8
BLACK
6
CONTINUOUS
10
154.34
20
-96.872
11
154.34
21
-96.422
0
LINE
8
BLACK
6
CONTINUOUS
10
154.34
20
-96.422
11
154.357
21
-96.3359
0
LINE
8
BLACK
6
CONTINUOUS
10
154.357
20
-96.3359
11
154.406
21
-96.2629
0
LINE
8
BLACK
6
CONTINUOUS
10
154.406
20
-96.2629
11
154.479
21
-96.2141
0
LINE
8
BLACK
6
CONTINUOUS
10
154.479
20
-96.2141
11
154.565
21
-96.197
0
LINE
8
BLACK
6
CONTINUOUS
10
154.565
20
-96.197
11
155.315
21
-96.197
0
LINE
8
BLACK
6
CONTINUOUS
10
155.315
20
-96.197
11
155.401
21
-96.2141
0
LINE
8
BLACK
6
CONTINUOUS
10
193.501
20
-96.0881
11
193.574
21
-96.1369
0
LINE
8
BLACK
6
CONTINUOUS
10
193.574
20
-96.1369
11
193.623
21
-96.2099
0
LINE
8
BLACK
6
CONTINUOUS
10
193.623
20
-96.2099
11
193.64
21
-96.296
0
LINE
8
BLACK
6
CONTINUOUS
10
193.64
20
-96.296
11
193.64
21
-96.746
0
LINE
8
BLACK
6
CONTINUOUS
10
193.64
20
-96.746
11
193.623
21
-96.8321
0
LINE
8
BLACK
6
CONTINUOUS
10
193.623
20
-96.8321
11
193.574
21
-96.9051
0
LINE
8
BLACK
6
CONTINUOUS
10
193.574
20
-96.9051
11
193.501
21
-96.9539
0
LINE
8
BLACK
6
CONTINUOUS
10
193.501
20
-96.9539
11
193.415
21
-96.971
0
LINE
8
BLACK
6
CONTINUOUS
10
193.415
20
-96.971
11
192.665
21
-96.971
0
LINE
8
BLACK
6
CONTINUOUS
10
192.665
20
-96.971
11
192.579
21
-96.9539
0
LINE
8
BLACK
6
CONTINUOUS
10
192.579
20
-96.9539
11
192.506
21
-96.9051
0
LINE
8
BLACK
6
CONTINUOUS
10
192.506
20
-96.9051
11
192.457
21
-96.8321
0
LINE
8
BLACK
6
CONTINUOUS
10
192.457
20
-96.8321
11
192.44
21
-96.746
0
LINE
8
BLACK
6
CONTINUOUS
10
192.44
20
-96.746
11
192.44
21
-96.296
0
LINE
8
BLACK
6
CONTINUOUS
10
192.44
20
-96.296
11
192.457
21
-96.2099
0
LINE
8
BLACK
6
CONTINUOUS
10
192.457
20
-96.2099
11
192.506
21
-96.1369
0
LINE
8
BLACK
6
CONTINUOUS
10
192.506
20
-96.1369
11
192.579
21
-96.0881
0
LINE
8
BLACK
6
CONTINUOUS
10
192.579
20
-96.0881
11
192.665
21
-96.071
0
LINE
8
BLACK
6
CONTINUOUS
10
192.665
20
-96.071
11
193.415
21
-96.071
0
LINE
8
BLACK
6
CONTINUOUS
10
193.415
20
-96.071
11
193.501
21
-96.0881
0
LINE
8
BLACK
6
CONTINUOUS
10
212.551
20
-96.0881
11
212.624
21
-96.1369
0
LINE
8
BLACK
6
CONTINUOUS
10
212.624
20
-96.1369
11
212.673
21
-96.2099
0
LINE
8
BLACK
6
CONTINUOUS
10
212.673
20
-96.2099
11
212.69
21
-96.296
0
LINE
8
BLACK
6
CONTINUOUS
10
212.69
20
-96.296
11
212.69
21
-96.746
0
LINE
8
BLACK
6
CONTINUOUS
10
212.69
20
-96.746
11
212.673
21
-96.8321
0
LINE
8
BLACK
6
CONTINUOUS
10
212.673
20
-96.8321
11
212.624
21
-96.9051
0
LINE
8
BLACK
6
CONTINUOUS
10
212.624
20
-96.9051
11
212.551
21
-96.9539
0
LINE
8
BLACK
6
CONTINUOUS
10
212.551
20
-96.9539
11
212.465
21
-96.971
0
LINE
8
BLACK
6
CONTINUOUS
10
212.465
20
-96.971
11
211.715
21
-96.971
0
LINE
8
BLACK
6
CONTINUOUS
10
211.715
20
-96.971
11
211.629
21
-96.9539
0
LINE
8
BLACK
6
CONTINUOUS
10
211.629
20
-96.9539
11
211.556
21
-96.9051
0
LINE
8
BLACK
6
CONTINUOUS
10
211.556
20
-96.9051
11
211.507
21
-96.8321
0
LINE
8
BLACK
6
CONTINUOUS
10
211.507
20
-96.8321
11
211.49
21
-96.746
0
LINE
8
BLACK
6
CONTINUOUS
10
211.49
20
-96.746
11
211.49
21
-96.296
0
LINE
8
BLACK
6
CONTINUOUS
10
211.49
20
-96.296
11
211.507
21
-96.2099
0
LINE
8
BLACK
6
CONTINUOUS
10
211.507
20
-96.2099
11
211.556
21
-96.1369
0
LINE
8
BLACK
6
CONTINUOUS
10
211.556
20
-96.1369
11
211.629
21
-96.0881
0
LINE
8
BLACK
6
CONTINUOUS
10
211.629
20
-96.0881
11
211.715
21
-96.071
0
LINE
8
BLACK
6
CONTINUOUS
10
211.715
20
-96.071
11
212.465
21
-96.071
0
LINE
8
BLACK
6
CONTINUOUS
10
212.465
20
-96.071
11
212.551
21
-96.0881
0
LINE
8
BLACK
6
CONTINUOUS
10
118.501
20
-96.1952
11
116.351
21
-96.1952
0
LINE
8
BLACK
6
CONTINUOUS
10
116.351
20
-96.1952
11
116.351
21
-93.6952
0
LINE
8
BLACK
6
CONTINUOUS
10
116.351
20
-93.6952
11
118.501
21
-93.6952
0
LINE
8
BLACK
6
CONTINUOUS
10
118.501
20
-93.6952
11
118.501
21
-96.1952
0
LINE
8
BLACK
6
CONTINUOUS
10
151.262
20
-93.96
11
148.912
21
-93.96
0
LINE
8
BLACK
6
CONTINUOUS
10
148.912
20
-93.96
11
148.912
21
-91.46
0
LINE
8
BLACK
6
CONTINUOUS
10
148.912
20
-91.46
11
151.262
21
-91.46
0
LINE
8
BLACK
6
CONTINUOUS
10
151.262
20
-91.46
11
151.262
21
-93.96
0
LINE
8
BLACK
6
CONTINUOUS
10
189.362
20
-93.96
11
187.012
21
-93.96
0
LINE
8
BLACK
6
CONTINUOUS
10
187.012
20
-93.96
11
187.012
21
-91.46
0
LINE
8
BLACK
6
CONTINUOUS
10
187.012
20
-91.46
11
189.362
21
-91.46
0
LINE
8
BLACK
6
CONTINUOUS
10
189.362
20
-91.46
11
189.362
21
-93.96
0
LINE
8
BLACK
6
CONTINUOUS
10
155.401
20
-92.9131
11
155.474
21
-92.9619
0
LINE
8
BLACK
6
CONTINUOUS
10
155.474
20
-92.9619
11
155.523
21
-93.0349
0
LINE
8
BLACK
6
CONTINUOUS
10
155.523
20
-93.0349
11
155.54
21
-93.121
0
LINE
8
BLACK
6
CONTINUOUS
10
155.54
20
-93.121
11
155.54
21
-93.571
0
LINE
8
BLACK
6
CONTINUOUS
10
155.54
20
-93.571
11
155.523
21
-93.6571
0
LINE
8
BLACK
6
CONTINUOUS
10
155.523
20
-93.6571
11
155.474
21
-93.7301
0
LINE
8
BLACK
6
CONTINUOUS
10
155.474
20
-93.7301
11
155.401
21
-93.7789
0
LINE
8
BLACK
6
CONTINUOUS
10
155.401
20
-93.7789
11
155.315
21
-93.796
0
LINE
8
BLACK
6
CONTINUOUS
10
155.315
20
-93.796
11
154.565
21
-93.796
0
LINE
8
BLACK
6
CONTINUOUS
10
154.565
20
-93.796
11
154.479
21
-93.7789
0
LINE
8
BLACK
6
CONTINUOUS
10
154.479
20
-93.7789
11
154.406
21
-93.7301
0
LINE
8
BLACK
6
CONTINUOUS
10
154.406
20
-93.7301
11
154.357
21
-93.6571
0
LINE
8
BLACK
6
CONTINUOUS
10
154.357
20
-93.6571
11
154.34
21
-93.571
0
LINE
8
BLACK
6
CONTINUOUS
10
154.34
20
-93.571
11
154.34
21
-93.121
0
LINE
8
BLACK
6
CONTINUOUS
10
154.34
20
-93.121
11
154.357
21
-93.0349
0
LINE
8
BLACK
6
CONTINUOUS
10
154.357
20
-93.0349
11
154.406
21
-92.9619
0
LINE
8
BLACK
6
CONTINUOUS
10
154.406
20
-92.9619
11
154.479
21
-92.9131
0
LINE
8
BLACK
6
CONTINUOUS
10
154.479
20
-92.9131
11
154.565
21
-92.896
0
LINE
8
BLACK
6
CONTINUOUS
10
154.565
20
-92.896
11
155.315
21
-92.896
0
LINE
8
BLACK
6
CONTINUOUS
10
155.315
20
-92.896
11
155.401
21
-92.9131
0
LINE
8
BLACK
6
CONTINUOUS
10
193.501
20
-92.7871
11
193.574
21
-92.8359
0
LINE
8
BLACK
6
CONTINUOUS
10
193.574
20
-92.8359
11
193.623
21
-92.9089
0
LINE
8
BLACK
6
CONTINUOUS
10
193.623
20
-92.9089
11
193.64
21
-92.995
0
LINE
8
BLACK
6
CONTINUOUS
10
193.64
20
-92.995
11
193.64
21
-93.445
0
LINE
8
BLACK
6
CONTINUOUS
10
193.64
20
-93.445
11
193.623
21
-93.5311
0
LINE
8
BLACK
6
CONTINUOUS
10
193.623
20
-93.5311
11
193.574
21
-93.6041
0
LINE
8
BLACK
6
CONTINUOUS
10
193.574
20
-93.6041
11
193.501
21
-93.6529
0
LINE
8
BLACK
6
CONTINUOUS
10
193.501
20
-93.6529
11
193.415
21
-93.67
0
LINE
8
BLACK
6
CONTINUOUS
10
193.415
20
-93.67
11
192.665
21
-93.67
0
LINE
8
BLACK
6
CONTINUOUS
10
192.665
20
-93.67
11
192.579
21
-93.6529
0
LINE
8
BLACK
6
CONTINUOUS
10
192.579
20
-93.6529
11
192.506
21
-93.6041
0
LINE
8
BLACK
6
CONTINUOUS
10
192.506
20
-93.6041
11
192.457
21
-93.5311
0
LINE
8
BLACK
6
CONTINUOUS
10
192.457
20
-93.5311
11
192.44
21
-93.445
0
LINE
8
BLACK
6
CONTINUOUS
10
192.44
20
-93.445
11
192.44
21
-92.995
0
LINE
8
BLACK
6
CONTINUOUS
10
192.44
20
-92.995
11
192.457
21
-92.9089
0
LINE
8
BLACK
6
CONTINUOUS
10
192.457
20
-92.9089
11
192.506
21
-92.8359
0
LINE
8
BLACK
6
CONTINUOUS
10
192.506
20
-92.8359
11
192.579
21
-92.7871
0
LINE
8
BLACK
6
CONTINUOUS
10
192.579
20
-92.7871
11
192.665
21
-92.77
0
LINE
8
BLACK
6
CONTINUOUS
10
192.665
20
-92.77
11
193.415
21
-92.77
0
LINE
8
BLACK
6
CONTINUOUS
10
193.415
20
-92.77
11
193.501
21
-92.7871
0
LINE
8
BLACK
6
CONTINUOUS
10
212.551
20
-92.7871
11
212.624
21
-92.8359
0
LINE
8
BLACK
6
CONTINUOUS
10
212.624
20
-92.8359
11
212.673
21
-92.9089
0
LINE
8
BLACK
6
CONTINUOUS
10
212.673
20
-92.9089
11
212.69
21
-92.995
0
LINE
8
BLACK
6
CONTINUOUS
10
212.69
20
-92.995
11
212.69
21
-93.445
0
LINE
8
BLACK
6
CONTINUOUS
10
212.69
20
-93.445
11
212.673
21
-93.5311
0
LINE
8
BLACK
6
CONTINUOUS
10
212.673
20
-93.5311
11
212.624
21
-93.6041
0
LINE
8
BLACK
6
CONTINUOUS
10
212.624
20
-93.6041
11
212.551
21
-93.6529
0
LINE
8
BLACK
6
CONTINUOUS
10
212.551
20
-93.6529
11
212.465
21
-93.67
0
LINE
8
BLACK
6
CONTINUOUS
10
212.465
20
-93.67
11
211.715
21
-93.67
0
LINE
8
BLACK
6
CONTINUOUS
10
211.715
20
-93.67
11
211.629
21
-93.6529
0
LINE
8
BLACK
6
CONTINUOUS
10
211.629
20
-93.6529
11
211.556
21
-93.6041
0
LINE
8
BLACK
6
CONTINUOUS
10
211.556
20
-93.6041
11
211.507
21
-93.5311
0
LINE
8
BLACK
6
CONTINUOUS
10
211.507
20
-93.5311
11
211.49
21
-93.445
0
LINE
8
BLACK
6
CONTINUOUS
10
211.49
20
-93.445
11
211.49
21
-92.995
0
LINE
8
BLACK
6
CONTINUOUS
10
211.49
20
-92.995
11
211.507
21
-92.9089
0
LINE
8
BLACK
6
CONTINUOUS
10
211.507
20
-92.9089
11
211.556
21
-92.8359
0
LINE
8
BLACK
6
CONTINUOUS
10
211.556
20
-92.8359
11
211.629
21
-92.7871
0
LINE
8
BLACK
6
CONTINUOUS
10
211.629
20
-92.7871
11
211.715
21
-92.77
0
LINE
8
BLACK
6
CONTINUOUS
10
211.715
20
-92.77
11
212.465
21
-92.77
0
LINE
8
BLACK
6
CONTINUOUS
10
212.465
20
-92.77
11
212.551
21
-92.7871
0
LINE
8
BLACK
6
CONTINUOUS
10
137.551
20
-91.4327
11
135.401
21
-91.4327
0
LINE
8
BLACK
6
CONTINUOUS
10
135.401
20
-91.4327
11
135.401
21
-88.9327
0
LINE
8
BLACK
6
CONTINUOUS
10
135.401
20
-88.9327
11
137.551
21
-88.9327
0
LINE
8
BLACK
6
CONTINUOUS
10
137.551
20
-88.9327
11
137.551
21
-91.4327
0
LINE
8
BLACK
6
CONTINUOUS
10
175.651
20
-91.4327
11
173.501
21
-91.4327
0
LINE
8
BLACK
6
CONTINUOUS
10
173.501
20
-91.4327
11
173.501
21
-88.9327
0
LINE
8
BLACK
6
CONTINUOUS
10
173.501
20
-88.9327
11
175.651
21
-88.9327
0
LINE
8
BLACK
6
CONTINUOUS
10
175.651
20
-88.9327
11
175.651
21
-91.4327
0
LINE
8
BLACK
6
CONTINUOUS
10
170.312
20
-89.1975
11
167.962
21
-89.1975
0
LINE
8
BLACK
6
CONTINUOUS
10
167.962
20
-89.1975
11
167.962
21
-86.6975
0
LINE
8
BLACK
6
CONTINUOUS
10
167.962
20
-86.6975
11
170.312
21
-86.6975
0
LINE
8
BLACK
6
CONTINUOUS
10
170.312
20
-86.6975
11
170.312
21
-89.1975
0
LINE
8
BLACK
6
CONTINUOUS
10
208.412
20
-89.1975
11
206.062
21
-89.1975
0
LINE
8
BLACK
6
CONTINUOUS
10
206.062
20
-89.1975
11
206.062
21
-86.6975
0
LINE
8
BLACK
6
CONTINUOUS
10
206.062
20
-86.6975
11
208.412
21
-86.6975
0
LINE
8
BLACK
6
CONTINUOUS
10
208.412
20
-86.6975
11
208.412
21
-89.1975
0
LINE
8
BLACK
6
CONTINUOUS
10
227.462
20
-89.1975
11
225.112
21
-89.1975
0
LINE
8
BLACK
6
CONTINUOUS
10
225.112
20
-89.1975
11
225.112
21
-86.6975
0
LINE
8
BLACK
6
CONTINUOUS
10
225.112
20
-86.6975
11
227.462
21
-86.6975
0
LINE
8
BLACK
6
CONTINUOUS
10
227.462
20
-86.6975
11
227.462
21
-89.1975
0
LINE
8
BLACK
6
CONTINUOUS
10
117.301
20
-86.8161
11
117.374
21
-86.8649
0
LINE
8
BLACK
6
CONTINUOUS
10
117.374
20
-86.8649
11
117.423
21
-86.9379
0
LINE
8
BLACK
6
CONTINUOUS
10
117.423
20
-86.9379
11
117.44
21
-87.024
0
LINE
8
BLACK
6
CONTINUOUS
10
117.44
20
-87.024
11
117.44
21
-87.474
0
LINE
8
BLACK
6
CONTINUOUS
10
117.44
20
-87.474
11
117.423
21
-87.5601
0
LINE
8
BLACK
6
CONTINUOUS
10
117.423
20
-87.5601
11
117.374
21
-87.6331
0
LINE
8
BLACK
6
CONTINUOUS
10
117.374
20
-87.6331
11
117.301
21
-87.6819
0
LINE
8
BLACK
6
CONTINUOUS
10
117.301
20
-87.6819
11
117.215
21
-87.699
0
LINE
8
BLACK
6
CONTINUOUS
10
117.215
20
-87.699
11
116.465
21
-87.699
0
LINE
8
BLACK
6
CONTINUOUS
10
116.465
20
-87.699
11
116.379
21
-87.6819
0
LINE
8
BLACK
6
CONTINUOUS
10
116.379
20
-87.6819
11
116.306
21
-87.6331
0
LINE
8
BLACK
6
CONTINUOUS
10
116.306
20
-87.6331
11
116.257
21
-87.5601
0
LINE
8
BLACK
6
CONTINUOUS
10
116.257
20
-87.5601
11
116.24
21
-87.474
0
LINE
8
BLACK
6
CONTINUOUS
10
116.24
20
-87.474
11
116.24
21
-87.024
0
LINE
8
BLACK
6
CONTINUOUS
10
116.24
20
-87.024
11
116.257
21
-86.9379
0
LINE
8
BLACK
6
CONTINUOUS
10
116.257
20
-86.9379
11
116.306
21
-86.8649
0
LINE
8
BLACK
6
CONTINUOUS
10
116.306
20
-86.8649
11
116.379
21
-86.8161
0
LINE
8
BLACK
6
CONTINUOUS
10
116.379
20
-86.8161
11
116.465
21
-86.799
0
LINE
8
BLACK
6
CONTINUOUS
10
116.465
20
-86.799
11
117.215
21
-86.799
0
LINE
8
BLACK
6
CONTINUOUS
10
117.215
20
-86.799
11
117.301
21
-86.8161
0
LINE
8
BLACK
6
CONTINUOUS
10
156.601
20
-86.6702
11
154.451
21
-86.6702
0
LINE
8
BLACK
6
CONTINUOUS
10
154.451
20
-86.6702
11
154.451
21
-84.1702
0
LINE
8
BLACK
6
CONTINUOUS
10
154.451
20
-84.1702
11
156.601
21
-84.1702
0
LINE
8
BLACK
6
CONTINUOUS
10
156.601
20
-84.1702
11
156.601
21
-86.6702
0
LINE
8
BLACK
6
CONTINUOUS
10
194.701
20
-86.6702
11
192.551
21
-86.6702
0
LINE
8
BLACK
6
CONTINUOUS
10
192.551
20
-86.6702
11
192.551
21
-84.1702
0
LINE
8
BLACK
6
CONTINUOUS
10
192.551
20
-84.1702
11
194.701
21
-84.1702
0
LINE
8
BLACK
6
CONTINUOUS
10
194.701
20
-84.1702
11
194.701
21
-86.6702
0
LINE
8
BLACK
6
CONTINUOUS
10
213.751
20
-86.6702
11
211.601
21
-86.6702
0
LINE
8
BLACK
6
CONTINUOUS
10
211.601
20
-86.6702
11
211.601
21
-84.1702
0
LINE
8
BLACK
6
CONTINUOUS
10
211.601
20
-84.1702
11
213.751
21
-84.1702
0
LINE
8
BLACK
6
CONTINUOUS
10
213.751
20
-84.1702
11
213.751
21
-86.6702
0
LINE
8
BLACK
6
CONTINUOUS
10
117.301
20
-83.5151
11
117.374
21
-83.5639
0
LINE
8
BLACK
6
CONTINUOUS
10
117.374
20
-83.5639
11
117.423
21
-83.6369
0
LINE
8
BLACK
6
CONTINUOUS
10
117.423
20
-83.6369
11
117.44
21
-83.723
0
LINE
8
BLACK
6
CONTINUOUS
10
117.44
20
-83.723
11
117.44
21
-84.173
0
LINE
8
BLACK
6
CONTINUOUS
10
117.44
20
-84.173
11
117.423
21
-84.2591
0
LINE
8
BLACK
6
CONTINUOUS
10
117.423
20
-84.2591
11
117.374
21
-84.3321
0
LINE
8
BLACK
6
CONTINUOUS
10
117.374
20
-84.3321
11
117.301
21
-84.3809
0
LINE
8
BLACK
6
CONTINUOUS
10
117.301
20
-84.3809
11
117.215
21
-84.398
0
LINE
8
BLACK
6
CONTINUOUS
10
117.215
20
-84.398
11
116.465
21
-84.398
0
LINE
8
BLACK
6
CONTINUOUS
10
116.465
20
-84.398
11
116.379
21
-84.3809
0
LINE
8
BLACK
6
CONTINUOUS
10
116.379
20
-84.3809
11
116.306
21
-84.3321
0
LINE
8
BLACK
6
CONTINUOUS
10
116.306
20
-84.3321
11
116.257
21
-84.2591
0
LINE
8
BLACK
6
CONTINUOUS
10
116.257
20
-84.2591
11
116.24
21
-84.173
0
LINE
8
BLACK
6
CONTINUOUS
10
116.24
20
-84.173
11
116.24
21
-83.723
0
LINE
8
BLACK
6
CONTINUOUS
10
116.24
20
-83.723
11
116.257
21
-83.6369
0
LINE
8
BLACK
6
CONTINUOUS
10
116.257
20
-83.6369
11
116.306
21
-83.5639
0
LINE
8
BLACK
6
CONTINUOUS
10
116.306
20
-83.5639
11
116.379
21
-83.5151
0
LINE
8
BLACK
6
CONTINUOUS
10
116.379
20
-83.5151
11
116.465
21
-83.498
0
LINE
8
BLACK
6
CONTINUOUS
10
116.465
20
-83.498
11
117.215
21
-83.498
0
LINE
8
BLACK
6
CONTINUOUS
10
117.215
20
-83.498
11
117.301
21
-83.5151
0
LINE
8
BLACK
6
CONTINUOUS
10
174.451
20
-81.9901
11
174.524
21
-82.0389
0
LINE
8
BLACK
6
CONTINUOUS
10
174.524
20
-82.0389
11
174.573
21
-82.1119
0
LINE
8
BLACK
6
CONTINUOUS
10
174.573
20
-82.1119
11
174.59
21
-82.198
0
LINE
8
BLACK
6
CONTINUOUS
10
174.59
20
-82.198
11
174.59
21
-82.648
0
LINE
8
BLACK
6
CONTINUOUS
10
174.59
20
-82.648
11
174.573
21
-82.7341
0
LINE
8
BLACK
6
CONTINUOUS
10
174.573
20
-82.7341
11
174.524
21
-82.8071
0
LINE
8
BLACK
6
CONTINUOUS
10
174.524
20
-82.8071
11
174.451
21
-82.8559
0
LINE
8
BLACK
6
CONTINUOUS
10
174.451
20
-82.8559
11
174.365
21
-82.873
0
LINE
8
BLACK
6
CONTINUOUS
10
174.365
20
-82.873
11
173.615
21
-82.873
0
LINE
8
BLACK
6
CONTINUOUS
10
173.615
20
-82.873
11
173.529
21
-82.8559
0
LINE
8
BLACK
6
CONTINUOUS
10
173.529
20
-82.8559
11
173.456
21
-82.8071
0
LINE
8
BLACK
6
CONTINUOUS
10
173.456
20
-82.8071
11
173.407
21
-82.7341
0
LINE
8
BLACK
6
CONTINUOUS
10
173.407
20
-82.7341
11
173.39
21
-82.648
0
LINE
8
BLACK
6
CONTINUOUS
10
173.39
20
-82.648
11
173.39
21
-82.198
0
LINE
8
BLACK
6
CONTINUOUS
10
173.39
20
-82.198
11
173.407
21
-82.1119
0
LINE
8
BLACK
6
CONTINUOUS
10
173.407
20
-82.1119
11
173.456
21
-82.0389
0
LINE
8
BLACK
6
CONTINUOUS
10
173.456
20
-82.0389
11
173.529
21
-81.9901
0
LINE
8
BLACK
6
CONTINUOUS
10
173.529
20
-81.9901
11
173.615
21
-81.973
0
LINE
8
BLACK
6
CONTINUOUS
10
173.615
20
-81.973
11
174.365
21
-81.973
0
LINE
8
BLACK
6
CONTINUOUS
10
174.365
20
-81.973
11
174.451
21
-81.9901
0
LINE
8
BLACK
6
CONTINUOUS
10
136.351
20
-81.8641
11
136.424
21
-81.9129
0
LINE
8
BLACK
6
CONTINUOUS
10
136.424
20
-81.9129
11
136.473
21
-81.9859
0
LINE
8
BLACK
6
CONTINUOUS
10
136.473
20
-81.9859
11
136.49
21
-82.072
0
LINE
8
BLACK
6
CONTINUOUS
10
136.49
20
-82.072
11
136.49
21
-82.522
0
LINE
8
BLACK
6
CONTINUOUS
10
136.49
20
-82.522
11
136.473
21
-82.6081
0
LINE
8
BLACK
6
CONTINUOUS
10
136.473
20
-82.6081
11
136.424
21
-82.6811
0
LINE
8
BLACK
6
CONTINUOUS
10
136.424
20
-82.6811
11
136.351
21
-82.7299
0
LINE
8
BLACK
6
CONTINUOUS
10
136.351
20
-82.7299
11
136.265
21
-82.747
0
LINE
8
BLACK
6
CONTINUOUS
10
136.265
20
-82.747
11
135.515
21
-82.747
0
LINE
8
BLACK
6
CONTINUOUS
10
135.515
20
-82.747
11
135.429
21
-82.7299
0
LINE
8
BLACK
6
CONTINUOUS
10
135.429
20
-82.7299
11
135.356
21
-82.6811
0
LINE
8
BLACK
6
CONTINUOUS
10
135.356
20
-82.6811
11
135.307
21
-82.6081
0
LINE
8
BLACK
6
CONTINUOUS
10
135.307
20
-82.6081
11
135.29
21
-82.522
0
LINE
8
BLACK
6
CONTINUOUS
10
135.29
20
-82.522
11
135.29
21
-82.072
0
LINE
8
BLACK
6
CONTINUOUS
10
135.29
20
-82.072
11
135.307
21
-81.9859
0
LINE
8
BLACK
6
CONTINUOUS
10
135.307
20
-81.9859
11
135.356
21
-81.9129
0
LINE
8
BLACK
6
CONTINUOUS
10
135.356
20
-81.9129
11
135.429
21
-81.8641
0
LINE
8
BLACK
6
CONTINUOUS
10
135.429
20
-81.8641
11
135.515
21
-81.847
0
LINE
8
BLACK
6
CONTINUOUS
10
135.515
20
-81.847
11
136.265
21
-81.847
0
LINE
8
BLACK
6
CONTINUOUS
10
136.265
20
-81.847
11
136.351
21
-81.8641
0
LINE
8
BLACK
6
CONTINUOUS
10
132.212
20
-79.6725
11
129.862
21
-79.6725
0
LINE
8
BLACK
6
CONTINUOUS
10
129.862
20
-79.6725
11
129.862
21
-77.1725
0
LINE
8
BLACK
6
CONTINUOUS
10
129.862
20
-77.1725
11
132.212
21
-77.1725
0
LINE
8
BLACK
6
CONTINUOUS
10
132.212
20
-77.1725
11
132.212
21
-79.6725
0
LINE
8
BLACK
6
CONTINUOUS
10
174.451
20
-78.6891
11
174.524
21
-78.7379
0
LINE
8
BLACK
6
CONTINUOUS
10
174.524
20
-78.7379
11
174.573
21
-78.8109
0
LINE
8
BLACK
6
CONTINUOUS
10
174.573
20
-78.8109
11
174.59
21
-78.897
0
LINE
8
BLACK
6
CONTINUOUS
10
174.59
20
-78.897
11
174.59
21
-79.347
0
LINE
8
BLACK
6
CONTINUOUS
10
174.59
20
-79.347
11
174.573
21
-79.4331
0
LINE
8
BLACK
6
CONTINUOUS
10
174.573
20
-79.4331
11
174.524
21
-79.5061
0
LINE
8
BLACK
6
CONTINUOUS
10
174.524
20
-79.5061
11
174.451
21
-79.5549
0
LINE
8
BLACK
6
CONTINUOUS
10
174.451
20
-79.5549
11
174.365
21
-79.572
0
LINE
8
BLACK
6
CONTINUOUS
10
174.365
20
-79.572
11
173.615
21
-79.572
0
LINE
8
BLACK
6
CONTINUOUS
10
173.615
20
-79.572
11
173.529
21
-79.5549
0
LINE
8
BLACK
6
CONTINUOUS
10
173.529
20
-79.5549
11
173.456
21
-79.5061
0
LINE
8
BLACK
6
CONTINUOUS
10
173.456
20
-79.5061
11
173.407
21
-79.4331
0
LINE
8
BLACK
6
CONTINUOUS
10
173.407
20
-79.4331
11
173.39
21
-79.347
0
LINE
8
BLACK
6
CONTINUOUS
10
173.39
20
-79.347
11
173.39
21
-78.897
0
LINE
8
BLACK
6
CONTINUOUS
10
173.39
20
-78.897
11
173.407
21
-78.8109
0
LINE
8
BLACK
6
CONTINUOUS
10
173.407
20
-78.8109
11
173.456
21
-78.7379
0
LINE
8
BLACK
6
CONTINUOUS
10
173.456
20
-78.7379
11
173.529
21
-78.6891
0
LINE
8
BLACK
6
CONTINUOUS
10
173.529
20
-78.6891
11
173.615
21
-78.672
0
LINE
8
BLACK
6
CONTINUOUS
10
173.615
20
-78.672
11
174.365
21
-78.672
0
LINE
8
BLACK
6
CONTINUOUS
10
174.365
20
-78.672
11
174.451
21
-78.6891
0
LINE
8
BLACK
6
CONTINUOUS
10
136.351
20
-78.5631
11
136.424
21
-78.6119
0
LINE
8
BLACK
6
CONTINUOUS
10
136.424
20
-78.6119
11
136.473
21
-78.6849
0
LINE
8
BLACK
6
CONTINUOUS
10
136.473
20
-78.6849
11
136.49
21
-78.771
0
LINE
8
BLACK
6
CONTINUOUS
10
136.49
20
-78.771
11
136.49
21
-79.221
0
LINE
8
BLACK
6
CONTINUOUS
10
136.49
20
-79.221
11
136.473
21
-79.3071
0
LINE
8
BLACK
6
CONTINUOUS
10
136.473
20
-79.3071
11
136.424
21
-79.3801
0
LINE
8
BLACK
6
CONTINUOUS
10
136.424
20
-79.3801
11
136.351
21
-79.4289
0
LINE
8
BLACK
6
CONTINUOUS
10
136.351
20
-79.4289
11
136.265
21
-79.446
0
LINE
8
BLACK
6
CONTINUOUS
10
136.265
20
-79.446
11
135.515
21
-79.446
0
LINE
8
BLACK
6
CONTINUOUS
10
135.515
20
-79.446
11
135.429
21
-79.4289
0
LINE
8
BLACK
6
CONTINUOUS
10
135.429
20
-79.4289
11
135.356
21
-79.3801
0
LINE
8
BLACK
6
CONTINUOUS
10
135.356
20
-79.3801
11
135.307
21
-79.3071
0
LINE
8
BLACK
6
CONTINUOUS
10
135.307
20
-79.3071
11
135.29
21
-79.221
0
LINE
8
BLACK
6
CONTINUOUS
10
135.29
20
-79.221
11
135.29
21
-78.771
0
LINE
8
BLACK
6
CONTINUOUS
10
135.29
20
-78.771
11
135.307
21
-78.6849
0
LINE
8
BLACK
6
CONTINUOUS
10
135.307
20
-78.6849
11
135.356
21
-78.6119
0
LINE
8
BLACK
6
CONTINUOUS
10
135.356
20
-78.6119
11
135.429
21
-78.5631
0
LINE
8
BLACK
6
CONTINUOUS
10
135.429
20
-78.5631
11
135.515
21
-78.546
0
LINE
8
BLACK
6
CONTINUOUS
10
135.515
20
-78.546
11
136.265
21
-78.546
0
LINE
8
BLACK
6
CONTINUOUS
10
136.265
20
-78.546
11
136.351
21
-78.5631
0
LINE
8
BLACK
6
CONTINUOUS
10
155.401
20
-77.2921
11
155.474
21
-77.3409
0
LINE
8
BLACK
6
CONTINUOUS
10
155.474
20
-77.3409
11
155.523
21
-77.4139
0
LINE
8
BLACK
6
CONTINUOUS
10
155.523
20
-77.4139
11
155.54
21
-77.5
0
LINE
8
BLACK
6
CONTINUOUS
10
155.54
20
-77.5
11
155.54
21
-77.95
0
LINE
8
BLACK
6
CONTINUOUS
10
155.54
20
-77.95
11
155.523
21
-78.0361
0
LINE
8
BLACK
6
CONTINUOUS
10
155.523
20
-78.0361
11
155.474
21
-78.1091
0
LINE
8
BLACK
6
CONTINUOUS
10
155.474
20
-78.1091
11
155.401
21
-78.1579
0
LINE
8
BLACK
6
CONTINUOUS
10
155.401
20
-78.1579
11
155.315
21
-78.175
0
LINE
8
BLACK
6
CONTINUOUS
10
155.315
20
-78.175
11
154.565
21
-78.175
0
LINE
8
BLACK
6
CONTINUOUS
10
154.565
20
-78.175
11
154.479
21
-78.1579
0
LINE
8
BLACK
6
CONTINUOUS
10
154.479
20
-78.1579
11
154.406
21
-78.1091
0
LINE
8
BLACK
6
CONTINUOUS
10
154.406
20
-78.1091
11
154.357
21
-78.0361
0
LINE
8
BLACK
6
CONTINUOUS
10
154.357
20
-78.0361
11
154.34
21
-77.95
0
LINE
8
BLACK
6
CONTINUOUS
10
154.34
20
-77.95
11
154.34
21
-77.5
0
LINE
8
BLACK
6
CONTINUOUS
10
154.34
20
-77.5
11
154.357
21
-77.4139
0
LINE
8
BLACK
6
CONTINUOUS
10
154.357
20
-77.4139
11
154.406
21
-77.3409
0
LINE
8
BLACK
6
CONTINUOUS
10
154.406
20
-77.3409
11
154.479
21
-77.2921
0
LINE
8
BLACK
6
CONTINUOUS
10
154.479
20
-77.2921
11
154.565
21
-77.275
0
LINE
8
BLACK
6
CONTINUOUS
10
154.565
20
-77.275
11
155.315
21
-77.275
0
LINE
8
BLACK
6
CONTINUOUS
10
155.315
20
-77.275
11
155.401
21
-77.2921
0
LINE
8
BLACK
6
CONTINUOUS
10
193.247
20
-77.0381
11
193.32
21
-77.0869
0
LINE
8
BLACK
6
CONTINUOUS
10
193.32
20
-77.0869
11
193.369
21
-77.1599
0
LINE
8
BLACK
6
CONTINUOUS
10
193.369
20
-77.1599
11
193.386
21
-77.246
0
LINE
8
BLACK
6
CONTINUOUS
10
193.386
20
-77.246
11
193.386
21
-77.696
0
LINE
8
BLACK
6
CONTINUOUS
10
193.386
20
-77.696
11
193.369
21
-77.7821
0
LINE
8
BLACK
6
CONTINUOUS
10
193.369
20
-77.7821
11
193.32
21
-77.8551
0
LINE
8
BLACK
6
CONTINUOUS
10
193.32
20
-77.8551
11
193.247
21
-77.9039
0
LINE
8
BLACK
6
CONTINUOUS
10
193.247
20
-77.9039
11
193.161
21
-77.921
0
LINE
8
BLACK
6
CONTINUOUS
10
193.161
20
-77.921
11
192.411
21
-77.921
0
LINE
8
BLACK
6
CONTINUOUS
10
192.411
20
-77.921
11
192.325
21
-77.9039
0
LINE
8
BLACK
6
CONTINUOUS
10
192.325
20
-77.9039
11
192.252
21
-77.8551
0
LINE
8
BLACK
6
CONTINUOUS
10
192.252
20
-77.8551
11
192.203
21
-77.7821
0
LINE
8
BLACK
6
CONTINUOUS
10
192.203
20
-77.7821
11
192.186
21
-77.696
0
LINE
8
BLACK
6
CONTINUOUS
10
192.186
20
-77.696
11
192.186
21
-77.246
0
LINE
8
BLACK
6
CONTINUOUS
10
192.186
20
-77.246
11
192.203
21
-77.1599
0
LINE
8
BLACK
6
CONTINUOUS
10
192.203
20
-77.1599
11
192.252
21
-77.0869
0
LINE
8
BLACK
6
CONTINUOUS
10
192.252
20
-77.0869
11
192.325
21
-77.0381
0
LINE
8
BLACK
6
CONTINUOUS
10
192.325
20
-77.0381
11
192.411
21
-77.021
0
LINE
8
BLACK
6
CONTINUOUS
10
192.411
20
-77.021
11
193.161
21
-77.021
0
LINE
8
BLACK
6
CONTINUOUS
10
193.161
20
-77.021
11
193.247
21
-77.0381
0
LINE
8
BLACK
6
CONTINUOUS
10
212.551
20
-77.0381
11
212.624
21
-77.0869
0
LINE
8
BLACK
6
CONTINUOUS
10
212.624
20
-77.0869
11
212.673
21
-77.1599
0
LINE
8
BLACK
6
CONTINUOUS
10
212.673
20
-77.1599
11
212.69
21
-77.246
0
LINE
8
BLACK
6
CONTINUOUS
10
212.69
20
-77.246
11
212.69
21
-77.696
0
LINE
8
BLACK
6
CONTINUOUS
10
212.69
20
-77.696
11
212.673
21
-77.7821
0
LINE
8
BLACK
6
CONTINUOUS
10
212.673
20
-77.7821
11
212.624
21
-77.8551
0
LINE
8
BLACK
6
CONTINUOUS
10
212.624
20
-77.8551
11
212.551
21
-77.9039
0
LINE
8
BLACK
6
CONTINUOUS
10
212.551
20
-77.9039
11
212.465
21
-77.921
0
LINE
8
BLACK
6
CONTINUOUS
10
212.465
20
-77.921
11
211.715
21
-77.921
0
LINE
8
BLACK
6
CONTINUOUS
10
211.715
20
-77.921
11
211.629
21
-77.9039
0
LINE
8
BLACK
6
CONTINUOUS
10
211.629
20
-77.9039
11
211.556
21
-77.8551
0
LINE
8
BLACK
6
CONTINUOUS
10
211.556
20
-77.8551
11
211.507
21
-77.7821
0
LINE
8
BLACK
6
CONTINUOUS
10
211.507
20
-77.7821
11
211.49
21
-77.696
0
LINE
8
BLACK
6
CONTINUOUS
10
211.49
20
-77.696
11
211.49
21
-77.246
0
LINE
8
BLACK
6
CONTINUOUS
10
211.49
20
-77.246
11
211.507
21
-77.1599
0
LINE
8
BLACK
6
CONTINUOUS
10
211.507
20
-77.1599
11
211.556
21
-77.0869
0
LINE
8
BLACK
6
CONTINUOUS
10
211.556
20
-77.0869
11
211.629
21
-77.0381
0
LINE
8
BLACK
6
CONTINUOUS
10
211.629
20
-77.0381
11
211.715
21
-77.021
0
LINE
8
BLACK
6
CONTINUOUS
10
211.715
20
-77.021
11
212.465
21
-77.021
0
LINE
8
BLACK
6
CONTINUOUS
10
212.465
20
-77.021
11
212.551
21
-77.0381
0
LINE
8
BLACK
6
CONTINUOUS
10
118.501
20
-77.1452
11
116.351
21
-77.1452
0
LINE
8
BLACK
6
CONTINUOUS
10
116.351
20
-77.1452
11
116.351
21
-74.6452
0
LINE
8
BLACK
6
CONTINUOUS
10
116.351
20
-74.6452
11
118.501
21
-74.6452
0
LINE
8
BLACK
6
CONTINUOUS
10
118.501
20
-74.6452
11
118.501
21
-77.1452
0
LINE
8
BLACK
6
CONTINUOUS
10
151.262
20
-74.91
11
148.912
21
-74.91
0
LINE
8
BLACK
6
CONTINUOUS
10
148.912
20
-74.91
11
148.912
21
-72.41
0
LINE
8
BLACK
6
CONTINUOUS
10
148.912
20
-72.41
11
151.262
21
-72.41
0
LINE
8
BLACK
6
CONTINUOUS
10
151.262
20
-72.41
11
151.262
21
-74.91
0
LINE
8
BLACK
6
CONTINUOUS
10
189.362
20
-74.91
11
187.012
21
-74.91
0
LINE
8
BLACK
6
CONTINUOUS
10
187.012
20
-74.91
11
187.012
21
-72.41
0
LINE
8
BLACK
6
CONTINUOUS
10
187.012
20
-72.41
11
189.362
21
-72.41
0
LINE
8
BLACK
6
CONTINUOUS
10
189.362
20
-72.41
11
189.362
21
-74.91
0
LINE
8
BLACK
6
CONTINUOUS
10
155.401
20
-73.9911
11
155.474
21
-74.0399
0
LINE
8
BLACK
6
CONTINUOUS
10
155.474
20
-74.0399
11
155.523
21
-74.1129
0
LINE
8
BLACK
6
CONTINUOUS
10
155.523
20
-74.1129
11
155.54
21
-74.199
0
LINE
8
BLACK
6
CONTINUOUS
10
155.54
20
-74.199
11
155.54
21
-74.649
0
LINE
8
BLACK
6
CONTINUOUS
10
155.54
20
-74.649
11
155.523
21
-74.7351
0
LINE
8
BLACK
6
CONTINUOUS
10
155.523
20
-74.7351
11
155.474
21
-74.8081
0
LINE
8
BLACK
6
CONTINUOUS
10
155.474
20
-74.8081
11
155.401
21
-74.8569
0
LINE
8
BLACK
6
CONTINUOUS
10
155.401
20
-74.8569
11
155.315
21
-74.874
0
LINE
8
BLACK
6
CONTINUOUS
10
155.315
20
-74.874
11
154.565
21
-74.874
0
LINE
8
BLACK
6
CONTINUOUS
10
154.565
20
-74.874
11
154.479
21
-74.8569
0
LINE
8
BLACK
6
CONTINUOUS
10
154.479
20
-74.8569
11
154.406
21
-74.8081
0
LINE
8
BLACK
6
CONTINUOUS
10
154.406
20
-74.8081
11
154.357
21
-74.7351
0
LINE
8
BLACK
6
CONTINUOUS
10
154.357
20
-74.7351
11
154.34
21
-74.649
0
LINE
8
BLACK
6
CONTINUOUS
10
154.34
20
-74.649
11
154.34
21
-74.199
0
LINE
8
BLACK
6
CONTINUOUS
10
154.34
20
-74.199
11
154.357
21
-74.1129
0
LINE
8
BLACK
6
CONTINUOUS
10
154.357
20
-74.1129
11
154.406
21
-74.0399
0
LINE
8
BLACK
6
CONTINUOUS
10
154.406
20
-74.0399
11
154.479
21
-73.9911
0
LINE
8
BLACK
6
CONTINUOUS
10
154.479
20
-73.9911
11
154.565
21
-73.974
0
LINE
8
BLACK
6
CONTINUOUS
10
154.565
20
-73.974
11
155.315
21
-73.974
0
LINE
8
BLACK
6
CONTINUOUS
10
155.315
20
-73.974
11
155.401
21
-73.9911
0
LINE
8
BLACK
6
CONTINUOUS
10
193.247
20
-73.7371
11
193.32
21
-73.7859
0
LINE
8
BLACK
6
CONTINUOUS
10
193.32
20
-73.7859
11
193.369
21
-73.8589
0
LINE
8
BLACK
6
CONTINUOUS
10
193.369
20
-73.8589
11
193.386
21
-73.945
0
LINE
8
BLACK
6
CONTINUOUS
10
193.386
20
-73.945
11
193.386
21
-74.395
0
LINE
8
BLACK
6
CONTINUOUS
10
193.386
20
-74.395
11
193.369
21
-74.4811
0
LINE
8
BLACK
6
CONTINUOUS
10
193.369
20
-74.4811
11
193.32
21
-74.5541
0
LINE
8
BLACK
6
CONTINUOUS
10
193.32
20
-74.5541
11
193.247
21
-74.6029
0
LINE
8
BLACK
6
CONTINUOUS
10
193.247
20
-74.6029
11
193.161
21
-74.62
0
LINE
8
BLACK
6
CONTINUOUS
10
193.161
20
-74.62
11
192.411
21
-74.62
0
LINE
8
BLACK
6
CONTINUOUS
10
192.411
20
-74.62
11
192.325
21
-74.6029
0
LINE
8
BLACK
6
CONTINUOUS
10
192.325
20
-74.6029
11
192.252
21
-74.5541
0
LINE
8
BLACK
6
CONTINUOUS
10
192.252
20
-74.5541
11
192.203
21
-74.4811
0
LINE
8
BLACK
6
CONTINUOUS
10
192.203
20
-74.4811
11
192.186
21
-74.395
0
LINE
8
BLACK
6
CONTINUOUS
10
192.186
20
-74.395
11
192.186
21
-73.945
0
LINE
8
BLACK
6
CONTINUOUS
10
192.186
20
-73.945
11
192.203
21
-73.8589
0
LINE
8
BLACK
6
CONTINUOUS
10
192.203
20
-73.8589
11
192.252
21
-73.7859
0
LINE
8
BLACK
6
CONTINUOUS
10
192.252
20
-73.7859
11
192.325
21
-73.7371
0
LINE
8
BLACK
6
CONTINUOUS
10
192.325
20
-73.7371
11
192.411
21
-73.72
0
LINE
8
BLACK
6
CONTINUOUS
10
192.411
20
-73.72
11
193.161
21
-73.72
0
LINE
8
BLACK
6
CONTINUOUS
10
193.161
20
-73.72
11
193.247
21
-73.7371
0
LINE
8
BLACK
6
CONTINUOUS
10
212.551
20
-73.7371
11
212.624
21
-73.7859
0
LINE
8
BLACK
6
CONTINUOUS
10
212.624
20
-73.7859
11
212.673
21
-73.8589
0
LINE
8
BLACK
6
CONTINUOUS
10
212.673
20
-73.8589
11
212.69
21
-73.945
0
LINE
8
BLACK
6
CONTINUOUS
10
212.69
20
-73.945
11
212.69
21
-74.395
0
LINE
8
BLACK
6
CONTINUOUS
10
212.69
20
-74.395
11
212.673
21
-74.4811
0
LINE
8
BLACK
6
CONTINUOUS
10
212.673
20
-74.4811
11
212.624
21
-74.5541
0
LINE
8
BLACK
6
CONTINUOUS
10
212.624
20
-74.5541
11
212.551
21
-74.6029
0
LINE
8
BLACK
6
CONTINUOUS
10
212.551
20
-74.6029
11
212.465
21
-74.62
0
LINE
8
BLACK
6
CONTINUOUS
10
212.465
20
-74.62
11
211.715
21
-74.62
0
LINE
8
BLACK
6
CONTINUOUS
10
211.715
20
-74.62
11
211.629
21
-74.6029
0
LINE
8
BLACK
6
CONTINUOUS
10
211.629
20
-74.6029
11
211.556
21
-74.5541
0
LINE
8
BLACK
6
CONTINUOUS
10
211.556
20
-74.5541
11
211.507
21
-74.4811
0
LINE
8
BLACK
6
CONTINUOUS
10
211.507
20
-74.4811
11
211.49
21
-74.395
0
LINE
8
BLACK
6
CONTINUOUS
10
211.49
20
-74.395
11
211.49
21
-73.945
0
LINE
8
BLACK
6
CONTINUOUS
10
211.49
20
-73.945
11
211.507
21
-73.8589
0
LINE
8
BLACK
6
CONTINUOUS
10
211.507
20
-73.8589
11
211.556
21
-73.7859
0
LINE
8
BLACK
6
CONTINUOUS
10
211.556
20
-73.7859
11
211.629
21
-73.7371
0
LINE
8
BLACK
6
CONTINUOUS
10
211.629
20
-73.7371
11
211.715
21
-73.72
0
LINE
8
BLACK
6
CONTINUOUS
10
211.715
20
-73.72
11
212.465
21
-73.72
0
LINE
8
BLACK
6
CONTINUOUS
10
212.465
20
-73.72
11
212.551
21
-73.7371
0
LINE
8
BLACK
6
CONTINUOUS
10
93.7891
20
-73.2916
11
93.8702
21
-73.3458
0
LINE
8
BLACK
6
CONTINUOUS
10
93.8702
20
-73.3458
11
93.9244
21
-73.4269
0
LINE
8
BLACK
6
CONTINUOUS
10
93.9244
20
-73.4269
11
93.9434
21
-73.5226
0
LINE
8
BLACK
6
CONTINUOUS
10
93.9434
20
-73.5226
11
93.9434
21
-74.0476
0
LINE
8
BLACK
6
CONTINUOUS
10
93.9434
20
-74.0476
11
93.9244
21
-74.1433
0
LINE
8
BLACK
6
CONTINUOUS
10
93.9244
20
-74.1433
11
93.8702
21
-74.2244
0
LINE
8
BLACK
6
CONTINUOUS
10
93.8702
20
-74.2244
11
93.7891
21
-74.2786
0
LINE
8
BLACK
6
CONTINUOUS
10
93.7891
20
-74.2786
11
93.6934
21
-74.2976
0
LINE
8
BLACK
6
CONTINUOUS
10
93.6934
20
-74.2976
11
92.7934
21
-74.2976
0
LINE
8
BLACK
6
CONTINUOUS
10
92.7934
20
-74.2976
11
92.6977
21
-74.2786
0
LINE
8
BLACK
6
CONTINUOUS
10
92.6977
20
-74.2786
11
92.6166
21
-74.2244
0
LINE
8
BLACK
6
CONTINUOUS
10
92.6166
20
-74.2244
11
92.5624
21
-74.1433
0
LINE
8
BLACK
6
CONTINUOUS
10
92.5624
20
-74.1433
11
92.5434
21
-74.0476
0
LINE
8
BLACK
6
CONTINUOUS
10
92.5434
20
-74.0476
11
92.5434
21
-73.5226
0
LINE
8
BLACK
6
CONTINUOUS
10
92.5434
20
-73.5226
11
92.5624
21
-73.4269
0
LINE
8
BLACK
6
CONTINUOUS
10
92.5624
20
-73.4269
11
92.6166
21
-73.3458
0
LINE
8
BLACK
6
CONTINUOUS
10
92.6166
20
-73.3458
11
92.6977
21
-73.2916
0
LINE
8
BLACK
6
CONTINUOUS
10
92.6977
20
-73.2916
11
92.7934
21
-73.2726
0
LINE
8
BLACK
6
CONTINUOUS
10
92.7934
20
-73.2726
11
93.6934
21
-73.2726
0
LINE
8
BLACK
6
CONTINUOUS
10
93.6934
20
-73.2726
11
93.7891
21
-73.2916
0
LINE
8
BLACK
6
CONTINUOUS
10
95.8249
20
-73.3181
11
95.904
21
-73.3709
0
LINE
8
BLACK
6
CONTINUOUS
10
95.904
20
-73.3709
11
95.9568
21
-73.45
0
LINE
8
BLACK
6
CONTINUOUS
10
95.9568
20
-73.45
11
95.9754
21
-73.5433
0
LINE
8
BLACK
6
CONTINUOUS
10
95.9754
20
-73.5433
11
95.9754
21
-74.0307
0
LINE
8
BLACK
6
CONTINUOUS
10
95.9754
20
-74.0307
11
95.9568
21
-74.124
0
LINE
8
BLACK
6
CONTINUOUS
10
95.9568
20
-74.124
11
95.904
21
-74.2031
0
LINE
8
BLACK
6
CONTINUOUS
10
95.904
20
-74.2031
11
95.8249
21
-74.2559
0
LINE
8
BLACK
6
CONTINUOUS
10
95.8249
20
-74.2559
11
95.7317
21
-74.2745
0
LINE
8
BLACK
6
CONTINUOUS
10
95.7317
20
-74.2745
11
94.8191
21
-74.2745
0
LINE
8
BLACK
6
CONTINUOUS
10
94.8191
20
-74.2745
11
94.7259
21
-74.2559
0
LINE
8
BLACK
6
CONTINUOUS
10
94.7259
20
-74.2559
11
94.6468
21
-74.2031
0
LINE
8
BLACK
6
CONTINUOUS
10
94.6468
20
-74.2031
11
94.594
21
-74.124
0
LINE
8
BLACK
6
CONTINUOUS
10
94.594
20
-74.124
11
94.5754
21
-74.0307
0
LINE
8
BLACK
6
CONTINUOUS
10
94.5754
20
-74.0307
11
94.5754
21
-73.5433
0
LINE
8
BLACK
6
CONTINUOUS
10
94.5754
20
-73.5433
11
94.594
21
-73.45
0
LINE
8
BLACK
6
CONTINUOUS
10
94.594
20
-73.45
11
94.6468
21
-73.3709
0
LINE
8
BLACK
6
CONTINUOUS
10
94.6468
20
-73.3709
11
94.7259
21
-73.3181
0
LINE
8
BLACK
6
CONTINUOUS
10
94.7259
20
-73.3181
11
94.8191
21
-73.2995
0
LINE
8
BLACK
6
CONTINUOUS
10
94.8191
20
-73.2995
11
95.7317
21
-73.2995
0
LINE
8
BLACK
6
CONTINUOUS
10
95.7317
20
-73.2995
11
95.8249
21
-73.3181
0
LINE
8
BLACK
6
CONTINUOUS
10
93.7891
20
-71.4666
11
93.8702
21
-71.5208
0
LINE
8
BLACK
6
CONTINUOUS
10
93.8702
20
-71.5208
11
93.9244
21
-71.6019
0
LINE
8
BLACK
6
CONTINUOUS
10
93.9244
20
-71.6019
11
93.9434
21
-71.6976
0
LINE
8
BLACK
6
CONTINUOUS
10
93.9434
20
-71.6976
11
93.9434
21
-72.2226
0
LINE
8
BLACK
6
CONTINUOUS
10
93.9434
20
-72.2226
11
93.9244
21
-72.3183
0
LINE
8
BLACK
6
CONTINUOUS
10
93.9244
20
-72.3183
11
93.8702
21
-72.3994
0
LINE
8
BLACK
6
CONTINUOUS
10
93.8702
20
-72.3994
11
93.7891
21
-72.4536
0
LINE
8
BLACK
6
CONTINUOUS
10
93.7891
20
-72.4536
11
93.6934
21
-72.4726
0
LINE
8
BLACK
6
CONTINUOUS
10
93.6934
20
-72.4726
11
92.7934
21
-72.4726
0
LINE
8
BLACK
6
CONTINUOUS
10
92.7934
20
-72.4726
11
92.6977
21
-72.4536
0
LINE
8
BLACK
6
CONTINUOUS
10
92.6977
20
-72.4536
11
92.6166
21
-72.3994
0
LINE
8
BLACK
6
CONTINUOUS
10
92.6166
20
-72.3994
11
92.5624
21
-72.3183
0
LINE
8
BLACK
6
CONTINUOUS
10
92.5624
20
-72.3183
11
92.5434
21
-72.2226
0
LINE
8
BLACK
6
CONTINUOUS
10
92.5434
20
-72.2226
11
92.5434
21
-71.6976
0
LINE
8
BLACK
6
CONTINUOUS
10
92.5434
20
-71.6976
11
92.5624
21
-71.6019
0
LINE
8
BLACK
6
CONTINUOUS
10
92.5624
20
-71.6019
11
92.6166
21
-71.5208
0
LINE
8
BLACK
6
CONTINUOUS
10
92.6166
20
-71.5208
11
92.6977
21
-71.4666
0
LINE
8
BLACK
6
CONTINUOUS
10
92.6977
20
-71.4666
11
92.7934
21
-71.4476
0
LINE
8
BLACK
6
CONTINUOUS
10
92.7934
20
-71.4476
11
93.6934
21
-71.4476
0
LINE
8
BLACK
6
CONTINUOUS
10
93.6934
20
-71.4476
11
93.7891
21
-71.4666
0
LINE
8
BLACK
6
CONTINUOUS
10
95.8249
20
-71.4431
11
95.904
21
-71.4959
0
LINE
8
BLACK
6
CONTINUOUS
10
95.904
20
-71.4959
11
95.9568
21
-71.575
0
LINE
8
BLACK
6
CONTINUOUS
10
95.9568
20
-71.575
11
95.9754
21
-71.6683
0
LINE
8
BLACK
6
CONTINUOUS
10
95.9754
20
-71.6683
11
95.9754
21
-72.1557
0
LINE
8
BLACK
6
CONTINUOUS
10
95.9754
20
-72.1557
11
95.9568
21
-72.249
0
LINE
8
BLACK
6
CONTINUOUS
10
95.9568
20
-72.249
11
95.904
21
-72.3281
0
LINE
8
BLACK
6
CONTINUOUS
10
95.904
20
-72.3281
11
95.8249
21
-72.3809
0
LINE
8
BLACK
6
CONTINUOUS
10
95.8249
20
-72.3809
11
95.7317
21
-72.3995
0
LINE
8
BLACK
6
CONTINUOUS
10
95.7317
20
-72.3995
11
94.8191
21
-72.3995
0
LINE
8
BLACK
6
CONTINUOUS
10
94.8191
20
-72.3995
11
94.7259
21
-72.3809
0
LINE
8
BLACK
6
CONTINUOUS
10
94.7259
20
-72.3809
11
94.6468
21
-72.3281
0
LINE
8
BLACK
6
CONTINUOUS
10
94.6468
20
-72.3281
11
94.594
21
-72.249
0
LINE
8
BLACK
6
CONTINUOUS
10
94.594
20
-72.249
11
94.5754
21
-72.1557
0
LINE
8
BLACK
6
CONTINUOUS
10
94.5754
20
-72.1557
11
94.5754
21
-71.6683
0
LINE
8
BLACK
6
CONTINUOUS
10
94.5754
20
-71.6683
11
94.594
21
-71.575
0
LINE
8
BLACK
6
CONTINUOUS
10
94.594
20
-71.575
11
94.6468
21
-71.4959
0
LINE
8
BLACK
6
CONTINUOUS
10
94.6468
20
-71.4959
11
94.7259
21
-71.4431
0
LINE
8
BLACK
6
CONTINUOUS
10
94.7259
20
-71.4431
11
94.8191
21
-71.4245
0
LINE
8
BLACK
6
CONTINUOUS
10
94.8191
20
-71.4245
11
95.7317
21
-71.4245
0
LINE
8
BLACK
6
CONTINUOUS
10
95.7317
20
-71.4245
11
95.8249
21
-71.4431
0
LINE
8
BLACK
6
CONTINUOUS
10
137.551
20
-72.3827
11
135.401
21
-72.3827
0
LINE
8
BLACK
6
CONTINUOUS
10
135.401
20
-72.3827
11
135.401
21
-69.8827
0
LINE
8
BLACK
6
CONTINUOUS
10
135.401
20
-69.8827
11
137.551
21
-69.8827
0
LINE
8
BLACK
6
CONTINUOUS
10
137.551
20
-69.8827
11
137.551
21
-72.3827
0
LINE
8
BLACK
6
CONTINUOUS
10
175.651
20
-72.3827
11
173.501
21
-72.3827
0
LINE
8
BLACK
6
CONTINUOUS
10
173.501
20
-72.3827
11
173.501
21
-69.8827
0
LINE
8
BLACK
6
CONTINUOUS
10
173.501
20
-69.8827
11
175.651
21
-69.8827
0
LINE
8
BLACK
6
CONTINUOUS
10
175.651
20
-69.8827
11
175.651
21
-72.3827
0
LINE
8
BLACK
6
CONTINUOUS
10
170.312
20
-70.1475
11
167.962
21
-70.1475
0
LINE
8
BLACK
6
CONTINUOUS
10
167.962
20
-70.1475
11
167.962
21
-67.6475
0
LINE
8
BLACK
6
CONTINUOUS
10
167.962
20
-67.6475
11
170.312
21
-67.6475
0
LINE
8
BLACK
6
CONTINUOUS
10
170.312
20
-67.6475
11
170.312
21
-70.1475
0
LINE
8
BLACK
6
CONTINUOUS
10
208.412
20
-70.1475
11
206.062
21
-70.1475
0
LINE
8
BLACK
6
CONTINUOUS
10
206.062
20
-70.1475
11
206.062
21
-67.6475
0
LINE
8
BLACK
6
CONTINUOUS
10
206.062
20
-67.6475
11
208.412
21
-67.6475
0
LINE
8
BLACK
6
CONTINUOUS
10
208.412
20
-67.6475
11
208.412
21
-70.1475
0
LINE
8
BLACK
6
CONTINUOUS
10
227.462
20
-70.1475
11
225.112
21
-70.1475
0
LINE
8
BLACK
6
CONTINUOUS
10
225.112
20
-70.1475
11
225.112
21
-67.6475
0
LINE
8
BLACK
6
CONTINUOUS
10
225.112
20
-67.6475
11
227.462
21
-67.6475
0
LINE
8
BLACK
6
CONTINUOUS
10
227.462
20
-67.6475
11
227.462
21
-70.1475
0
LINE
8
BLACK
6
CONTINUOUS
10
93.1766
20
-68.7006
11
92.4766
21
-68.7006
0
LINE
8
BLACK
6
CONTINUOUS
10
92.4766
20
-68.7006
11
92.4766
21
-67.1766
0
LINE
8
BLACK
6
CONTINUOUS
10
92.4766
20
-67.1766
11
93.1766
21
-67.1766
0
LINE
8
BLACK
6
CONTINUOUS
10
93.1766
20
-67.1766
11
93.1766
21
-68.7006
0
LINE
8
BLACK
6
CONTINUOUS
10
94.2766
20
-68.7006
11
93.5766
21
-68.7006
0
LINE
8
BLACK
6
CONTINUOUS
10
93.5766
20
-68.7006
11
93.5766
21
-67.1766
0
LINE
8
BLACK
6
CONTINUOUS
10
93.5766
20
-67.1766
11
94.2766
21
-67.1766
0
LINE
8
BLACK
6
CONTINUOUS
10
94.2766
20
-67.1766
11
94.2766
21
-68.7006
0
LINE
8
BLACK
6
CONTINUOUS
10
95.3766
20
-68.7006
11
94.6766
21
-68.7006
0
LINE
8
BLACK
6
CONTINUOUS
10
94.6766
20
-68.7006
11
94.6766
21
-67.1766
0
LINE
8
BLACK
6
CONTINUOUS
10
94.6766
20
-67.1766
11
95.3766
21
-67.1766
0
LINE
8
BLACK
6
CONTINUOUS
10
95.3766
20
-67.1766
11
95.3766
21
-68.7006
0
LINE
8
BLACK
6
CONTINUOUS
10
96.4766
20
-68.7006
11
95.7766
21
-68.7006
0
LINE
8
BLACK
6
CONTINUOUS
10
95.7766
20
-68.7006
11
95.7766
21
-67.1766
0
LINE
8
BLACK
6
CONTINUOUS
10
95.7766
20
-67.1766
11
96.4766
21
-67.1766
0
LINE
8
BLACK
6
CONTINUOUS
10
96.4766
20
-67.1766
11
96.4766
21
-68.7006
0
LINE
8
BLACK
6
CONTINUOUS
10
97.5766
20
-68.7006
11
96.8766
21
-68.7006
0
LINE
8
BLACK
6
CONTINUOUS
10
96.8766
20
-68.7006
11
96.8766
21
-67.1766
0
LINE
8
BLACK
6
CONTINUOUS
10
96.8766
20
-67.1766
11
97.5766
21
-67.1766
0
LINE
8
BLACK
6
CONTINUOUS
10
97.5766
20
-67.1766
11
97.5766
21
-68.7006
0
LINE
8
BLACK
6
CONTINUOUS
10
98.6766
20
-68.7006
11
97.9766
21
-68.7006
0
LINE
8
BLACK
6
CONTINUOUS
10
97.9766
20
-68.7006
11
97.9766
21
-67.1766
0
LINE
8
BLACK
6
CONTINUOUS
10
97.9766
20
-67.1766
11
98.6766
21
-67.1766
0
LINE
8
BLACK
6
CONTINUOUS
10
98.6766
20
-67.1766
11
98.6766
21
-68.7006
0
LINE
8
BLACK
6
CONTINUOUS
10
99.7766
20
-68.7006
11
99.0766
21
-68.7006
0
LINE
8
BLACK
6
CONTINUOUS
10
99.0766
20
-68.7006
11
99.0766
21
-67.1766
0
LINE
8
BLACK
6
CONTINUOUS
10
99.0766
20
-67.1766
11
99.7766
21
-67.1766
0
LINE
8
BLACK
6
CONTINUOUS
10
99.7766
20
-67.1766
11
99.7766
21
-68.7006
0
LINE
8
BLACK
6
CONTINUOUS
10
100.877
20
-68.7006
11
100.177
21
-68.7006
0
LINE
8
BLACK
6
CONTINUOUS
10
100.177
20
-68.7006
11
100.177
21
-67.1766
0
LINE
8
BLACK
6
CONTINUOUS
10
100.177
20
-67.1766
11
100.877
21
-67.1766
0
LINE
8
BLACK
6
CONTINUOUS
10
100.877
20
-67.1766
11
100.877
21
-68.7006
0
LINE
8
BLACK
6
CONTINUOUS
10
101.977
20
-68.7006
11
101.277
21
-68.7006
0
LINE
8
BLACK
6
CONTINUOUS
10
101.277
20
-68.7006
11
101.277
21
-67.1766
0
LINE
8
BLACK
6
CONTINUOUS
10
101.277
20
-67.1766
11
101.977
21
-67.1766
0
LINE
8
BLACK
6
CONTINUOUS
10
101.977
20
-67.1766
11
101.977
21
-68.7006
0
LINE
8
BLACK
6
CONTINUOUS
10
103.077
20
-68.7006
11
102.377
21
-68.7006
0
LINE
8
BLACK
6
CONTINUOUS
10
102.377
20
-68.7006
11
102.377
21
-67.1766
0
LINE
8
BLACK
6
CONTINUOUS
10
102.377
20
-67.1766
11
103.077
21
-67.1766
0
LINE
8
BLACK
6
CONTINUOUS
10
103.077
20
-67.1766
11
103.077
21
-68.7006
0
LINE
8
BLACK
6
CONTINUOUS
10
104.177
20
-68.7006
11
103.477
21
-68.7006
0
LINE
8
BLACK
6
CONTINUOUS
10
103.477
20
-68.7006
11
103.477
21
-67.1766
0
LINE
8
BLACK
6
CONTINUOUS
10
103.477
20
-67.1766
11
104.177
21
-67.1766
0
LINE
8
BLACK
6
CONTINUOUS
10
104.177
20
-67.1766
11
104.177
21
-68.7006
0
LINE
8
BLACK
6
CONTINUOUS
10
105.277
20
-68.7006
11
104.577
21
-68.7006
0
LINE
8
BLACK
6
CONTINUOUS
10
104.577
20
-68.7006
11
104.577
21
-67.1766
0
LINE
8
BLACK
6
CONTINUOUS
10
104.577
20
-67.1766
11
105.277
21
-67.1766
0
LINE
8
BLACK
6
CONTINUOUS
10
105.277
20
-67.1766
11
105.277
21
-68.7006
0
LINE
8
BLACK
6
CONTINUOUS
10
106.377
20
-68.7006
11
105.677
21
-68.7006
0
LINE
8
BLACK
6
CONTINUOUS
10
105.677
20
-68.7006
11
105.677
21
-67.1766
0
LINE
8
BLACK
6
CONTINUOUS
10
105.677
20
-67.1766
11
106.377
21
-67.1766
0
LINE
8
BLACK
6
CONTINUOUS
10
106.377
20
-67.1766
11
106.377
21
-68.7006
0
LINE
8
BLACK
6
CONTINUOUS
10
117.301
20
-67.7661
11
117.374
21
-67.8149
0
LINE
8
BLACK
6
CONTINUOUS
10
117.374
20
-67.8149
11
117.423
21
-67.8879
0
LINE
8
BLACK
6
CONTINUOUS
10
117.423
20
-67.8879
11
117.44
21
-67.974
0
LINE
8
BLACK
6
CONTINUOUS
10
117.44
20
-67.974
11
117.44
21
-68.424
0
LINE
8
BLACK
6
CONTINUOUS
10
117.44
20
-68.424
11
117.423
21
-68.5101
0
LINE
8
BLACK
6
CONTINUOUS
10
117.423
20
-68.5101
11
117.374
21
-68.5831
0
LINE
8
BLACK
6
CONTINUOUS
10
117.374
20
-68.5831
11
117.301
21
-68.6319
0
LINE
8
BLACK
6
CONTINUOUS
10
117.301
20
-68.6319
11
117.215
21
-68.649
0
LINE
8
BLACK
6
CONTINUOUS
10
117.215
20
-68.649
11
116.465
21
-68.649
0
LINE
8
BLACK
6
CONTINUOUS
10
116.465
20
-68.649
11
116.379
21
-68.6319
0
LINE
8
BLACK
6
CONTINUOUS
10
116.379
20
-68.6319
11
116.306
21
-68.5831
0
LINE
8
BLACK
6
CONTINUOUS
10
116.306
20
-68.5831
11
116.257
21
-68.5101
0
LINE
8
BLACK
6
CONTINUOUS
10
116.257
20
-68.5101
11
116.24
21
-68.424
0
LINE
8
BLACK
6
CONTINUOUS
10
116.24
20
-68.424
11
116.24
21
-67.974
0
LINE
8
BLACK
6
CONTINUOUS
10
116.24
20
-67.974
11
116.257
21
-67.8879
0
LINE
8
BLACK
6
CONTINUOUS
10
116.257
20
-67.8879
11
116.306
21
-67.8149
0
LINE
8
BLACK
6
CONTINUOUS
10
116.306
20
-67.8149
11
116.379
21
-67.7661
0
LINE
8
BLACK
6
CONTINUOUS
10
116.379
20
-67.7661
11
116.465
21
-67.749
0
LINE
8
BLACK
6
CONTINUOUS
10
116.465
20
-67.749
11
117.215
21
-67.749
0
LINE
8
BLACK
6
CONTINUOUS
10
117.215
20
-67.749
11
117.301
21
-67.7661
0
LINE
8
BLACK
6
CONTINUOUS
10
156.601
20
-67.6202
11
154.451
21
-67.6202
0
LINE
8
BLACK
6
CONTINUOUS
10
154.451
20
-67.6202
11
154.451
21
-65.1202
0
LINE
8
BLACK
6
CONTINUOUS
10
154.451
20
-65.1202
11
156.601
21
-65.1202
0
LINE
8
BLACK
6
CONTINUOUS
10
156.601
20
-65.1202
11
156.601
21
-67.6202
0
LINE
8
BLACK
6
CONTINUOUS
10
194.701
20
-67.6202
11
192.551
21
-67.6202
0
LINE
8
BLACK
6
CONTINUOUS
10
192.551
20
-67.6202
11
192.551
21
-65.1202
0
LINE
8
BLACK
6
CONTINUOUS
10
192.551
20
-65.1202
11
194.701
21
-65.1202
0
LINE
8
BLACK
6
CONTINUOUS
10
194.701
20
-65.1202
11
194.701
21
-67.6202
0
LINE
8
BLACK
6
CONTINUOUS
10
213.751
20
-67.6202
11
211.601
21
-67.6202
0
LINE
8
BLACK
6
CONTINUOUS
10
211.601
20
-67.6202
11
211.601
21
-65.1202
0
LINE
8
BLACK
6
CONTINUOUS
10
211.601
20
-65.1202
11
213.751
21
-65.1202
0
LINE
8
BLACK
6
CONTINUOUS
10
213.751
20
-65.1202
11
213.751
21
-67.6202
0
LINE
8
BLACK
6
CONTINUOUS
10
108.289
20
-67.0386
11
106.765
21
-67.0386
0
LINE
8
BLACK
6
CONTINUOUS
10
106.765
20
-67.0386
11
106.765
21
-66.3386
0
LINE
8
BLACK
6
CONTINUOUS
10
106.765
20
-66.3386
11
108.289
21
-66.3386
0
LINE
8
BLACK
6
CONTINUOUS
10
108.289
20
-66.3386
11
108.289
21
-67.0386
0
LINE
8
BLACK
6
CONTINUOUS
10
108.289
20
-65.9386
11
106.765
21
-65.9386
0
LINE
8
BLACK
6
CONTINUOUS
10
106.765
20
-65.9386
11
106.765
21
-65.2386
0
LINE
8
BLACK
6
CONTINUOUS
10
106.765
20
-65.2386
11
108.289
21
-65.2386
0
LINE
8
BLACK
6
CONTINUOUS
10
108.289
20
-65.2386
11
108.289
21
-65.9386
0
LINE
8
BLACK
6
CONTINUOUS
10
117.301
20
-64.4651
11
117.374
21
-64.5139
0
LINE
8
BLACK
6
CONTINUOUS
10
117.374
20
-64.5139
11
117.423
21
-64.5869
0
LINE
8
BLACK
6
CONTINUOUS
10
117.423
20
-64.5869
11
117.44
21
-64.673
0
LINE
8
BLACK
6
CONTINUOUS
10
117.44
20
-64.673
11
117.44
21
-65.123
0
LINE
8
BLACK
6
CONTINUOUS
10
117.44
20
-65.123
11
117.423
21
-65.2091
0
LINE
8
BLACK
6
CONTINUOUS
10
117.423
20
-65.2091
11
117.374
21
-65.2821
0
LINE
8
BLACK
6
CONTINUOUS
10
117.374
20
-65.2821
11
117.301
21
-65.3309
0
LINE
8
BLACK
6
CONTINUOUS
10
117.301
20
-65.3309
11
117.215
21
-65.348
0
LINE
8
BLACK
6
CONTINUOUS
10
117.215
20
-65.348
11
116.465
21
-65.348
0
LINE
8
BLACK
6
CONTINUOUS
10
116.465
20
-65.348
11
116.379
21
-65.3309
0
LINE
8
BLACK
6
CONTINUOUS
10
116.379
20
-65.3309
11
116.306
21
-65.2821
0
LINE
8
BLACK
6
CONTINUOUS
10
116.306
20
-65.2821
11
116.257
21
-65.2091
0
LINE
8
BLACK
6
CONTINUOUS
10
116.257
20
-65.2091
11
116.24
21
-65.123
0
LINE
8
BLACK
6
CONTINUOUS
10
116.24
20
-65.123
11
116.24
21
-64.673
0
LINE
8
BLACK
6
CONTINUOUS
10
116.24
20
-64.673
11
116.257
21
-64.5869
0
LINE
8
BLACK
6
CONTINUOUS
10
116.257
20
-64.5869
11
116.306
21
-64.5139
0
LINE
8
BLACK
6
CONTINUOUS
10
116.306
20
-64.5139
11
116.379
21
-64.4651
0
LINE
8
BLACK
6
CONTINUOUS
10
116.379
20
-64.4651
11
116.465
21
-64.448
0
LINE
8
BLACK
6
CONTINUOUS
10
116.465
20
-64.448
11
117.215
21
-64.448
0
LINE
8
BLACK
6
CONTINUOUS
10
117.215
20
-64.448
11
117.301
21
-64.4651
0
LINE
8
BLACK
6
CONTINUOUS
10
108.289
20
-64.8386
11
106.765
21
-64.8386
0
LINE
8
BLACK
6
CONTINUOUS
10
106.765
20
-64.8386
11
106.765
21
-64.1386
0
LINE
8
BLACK
6
CONTINUOUS
10
106.765
20
-64.1386
11
108.289
21
-64.1386
0
LINE
8
BLACK
6
CONTINUOUS
10
108.289
20
-64.1386
11
108.289
21
-64.8386
0
LINE
8
BLACK
6
CONTINUOUS
10
108.289
20
-63.7386
11
106.765
21
-63.7386
0
LINE
8
BLACK
6
CONTINUOUS
10
106.765
20
-63.7386
11
106.765
21
-63.0386
0
LINE
8
BLACK
6
CONTINUOUS
10
106.765
20
-63.0386
11
108.289
21
-63.0386
0
LINE
8
BLACK
6
CONTINUOUS
10
108.289
20
-63.0386
11
108.289
21
-63.7386
0
LINE
8
BLACK
6
CONTINUOUS
10
136.351
20
-62.8141
11
136.424
21
-62.8629
0
LINE
8
BLACK
6
CONTINUOUS
10
136.424
20
-62.8629
11
136.473
21
-62.9359
0
LINE
8
BLACK
6
CONTINUOUS
10
136.473
20
-62.9359
11
136.49
21
-63.022
0
LINE
8
BLACK
6
CONTINUOUS
10
136.49
20
-63.022
11
136.49
21
-63.472
0
LINE
8
BLACK
6
CONTINUOUS
10
136.49
20
-63.472
11
136.473
21
-63.5581
0
LINE
8
BLACK
6
CONTINUOUS
10
136.473
20
-63.5581
11
136.424
21
-63.6311
0
LINE
8
BLACK
6
CONTINUOUS
10
136.424
20
-63.6311
11
136.351
21
-63.6799
0
LINE
8
BLACK
6
CONTINUOUS
10
136.351
20
-63.6799
11
136.265
21
-63.697
0
LINE
8
BLACK
6
CONTINUOUS
10
136.265
20
-63.697
11
135.515
21
-63.697
0
LINE
8
BLACK
6
CONTINUOUS
10
135.515
20
-63.697
11
135.429
21
-63.6799
0
LINE
8
BLACK
6
CONTINUOUS
10
135.429
20
-63.6799
11
135.356
21
-63.6311
0
LINE
8
BLACK
6
CONTINUOUS
10
135.356
20
-63.6311
11
135.307
21
-63.5581
0
LINE
8
BLACK
6
CONTINUOUS
10
135.307
20
-63.5581
11
135.29
21
-63.472
0
LINE
8
BLACK
6
CONTINUOUS
10
135.29
20
-63.472
11
135.29
21
-63.022
0
LINE
8
BLACK
6
CONTINUOUS
10
135.29
20
-63.022
11
135.307
21
-62.9359
0
LINE
8
BLACK
6
CONTINUOUS
10
135.307
20
-62.9359
11
135.356
21
-62.8629
0
LINE
8
BLACK
6
CONTINUOUS
10
135.356
20
-62.8629
11
135.429
21
-62.8141
0
LINE
8
BLACK
6
CONTINUOUS
10
135.429
20
-62.8141
11
135.515
21
-62.797
0
LINE
8
BLACK
6
CONTINUOUS
10
135.515
20
-62.797
11
136.265
21
-62.797
0
LINE
8
BLACK
6
CONTINUOUS
10
136.265
20
-62.797
11
136.351
21
-62.8141
0
LINE
8
BLACK
6
CONTINUOUS
10
174.325
20
-62.5601
11
174.398
21
-62.6089
0
LINE
8
BLACK
6
CONTINUOUS
10
174.398
20
-62.6089
11
174.447
21
-62.6819
0
LINE
8
BLACK
6
CONTINUOUS
10
174.447
20
-62.6819
11
174.464
21
-62.768
0
LINE
8
BLACK
6
CONTINUOUS
10
174.464
20
-62.768
11
174.464
21
-63.218
0
LINE
8
BLACK
6
CONTINUOUS
10
174.464
20
-63.218
11
174.447
21
-63.3041
0
LINE
8
BLACK
6
CONTINUOUS
10
174.447
20
-63.3041
11
174.398
21
-63.3771
0
LINE
8
BLACK
6
CONTINUOUS
10
174.398
20
-63.3771
11
174.325
21
-63.4259
0
LINE
8
BLACK
6
CONTINUOUS
10
174.325
20
-63.4259
11
174.239
21
-63.443
0
LINE
8
BLACK
6
CONTINUOUS
10
174.239
20
-63.443
11
173.489
21
-63.443
0
LINE
8
BLACK
6
CONTINUOUS
10
173.489
20
-63.443
11
173.403
21
-63.4259
0
LINE
8
BLACK
6
CONTINUOUS
10
173.403
20
-63.4259
11
173.33
21
-63.3771
0
LINE
8
BLACK
6
CONTINUOUS
10
173.33
20
-63.3771
11
173.281
21
-63.3041
0
LINE
8
BLACK
6
CONTINUOUS
10
173.281
20
-63.3041
11
173.264
21
-63.218
0
LINE
8
BLACK
6
CONTINUOUS
10
173.264
20
-63.218
11
173.264
21
-62.768
0
LINE
8
BLACK
6
CONTINUOUS
10
173.264
20
-62.768
11
173.281
21
-62.6819
0
LINE
8
BLACK
6
CONTINUOUS
10
173.281
20
-62.6819
11
173.33
21
-62.6089
0
LINE
8
BLACK
6
CONTINUOUS
10
173.33
20
-62.6089
11
173.403
21
-62.5601
0
LINE
8
BLACK
6
CONTINUOUS
10
173.403
20
-62.5601
11
173.489
21
-62.543
0
LINE
8
BLACK
6
CONTINUOUS
10
173.489
20
-62.543
11
174.239
21
-62.543
0
LINE
8
BLACK
6
CONTINUOUS
10
174.239
20
-62.543
11
174.325
21
-62.5601
0
LINE
8
BLACK
6
CONTINUOUS
10
108.289
20
-62.6386
11
106.765
21
-62.6386
0
LINE
8
BLACK
6
CONTINUOUS
10
106.765
20
-62.6386
11
106.765
21
-61.9386
0
LINE
8
BLACK
6
CONTINUOUS
10
106.765
20
-61.9386
11
108.289
21
-61.9386
0
LINE
8
BLACK
6
CONTINUOUS
10
108.289
20
-61.9386
11
108.289
21
-62.6386
0
LINE
8
BLACK
6
CONTINUOUS
10
108.289
20
-61.5386
11
106.765
21
-61.5386
0
LINE
8
BLACK
6
CONTINUOUS
10
106.765
20
-61.5386
11
106.765
21
-60.8386
0
LINE
8
BLACK
6
CONTINUOUS
10
106.765
20
-60.8386
11
108.289
21
-60.8386
0
LINE
8
BLACK
6
CONTINUOUS
10
108.289
20
-60.8386
11
108.289
21
-61.5386
0
LINE
8
BLACK
6
CONTINUOUS
10
132.212
20
-60.6225
11
129.862
21
-60.6225
0
LINE
8
BLACK
6
CONTINUOUS
10
129.862
20
-60.6225
11
129.862
21
-58.1225
0
LINE
8
BLACK
6
CONTINUOUS
10
129.862
20
-58.1225
11
132.212
21
-58.1225
0
LINE
8
BLACK
6
CONTINUOUS
10
132.212
20
-58.1225
11
132.212
21
-60.6225
0
LINE
8
BLACK
6
CONTINUOUS
10
108.289
20
-60.4386
11
106.765
21
-60.4386
0
LINE
8
BLACK
6
CONTINUOUS
10
106.765
20
-60.4386
11
106.765
21
-59.7386
0
LINE
8
BLACK
6
CONTINUOUS
10
106.765
20
-59.7386
11
108.289
21
-59.7386
0
LINE
8
BLACK
6
CONTINUOUS
10
108.289
20
-59.7386
11
108.289
21
-60.4386
0
LINE
8
BLACK
6
CONTINUOUS
10
136.351
20
-59.5131
11
136.424
21
-59.5619
0
LINE
8
BLACK
6
CONTINUOUS
10
136.424
20
-59.5619
11
136.473
21
-59.6349
0
LINE
8
BLACK
6
CONTINUOUS
10
136.473
20
-59.6349
11
136.49
21
-59.721
0
LINE
8
BLACK
6
CONTINUOUS
10
136.49
20
-59.721
11
136.49
21
-60.171
0
LINE
8
BLACK
6
CONTINUOUS
10
136.49
20
-60.171
11
136.473
21
-60.2571
0
LINE
8
BLACK
6
CONTINUOUS
10
136.473
20
-60.2571
11
136.424
21
-60.3301
0
LINE
8
BLACK
6
CONTINUOUS
10
136.424
20
-60.3301
11
136.351
21
-60.3789
0
LINE
8
BLACK
6
CONTINUOUS
10
136.351
20
-60.3789
11
136.265
21
-60.396
0
LINE
8
BLACK
6
CONTINUOUS
10
136.265
20
-60.396
11
135.515
21
-60.396
0
LINE
8
BLACK
6
CONTINUOUS
10
135.515
20
-60.396
11
135.429
21
-60.3789
0
LINE
8
BLACK
6
CONTINUOUS
10
135.429
20
-60.3789
11
135.356
21
-60.3301
0
LINE
8
BLACK
6
CONTINUOUS
10
135.356
20
-60.3301
11
135.307
21
-60.2571
0
LINE
8
BLACK
6
CONTINUOUS
10
135.307
20
-60.2571
11
135.29
21
-60.171
0
LINE
8
BLACK
6
CONTINUOUS
10
135.29
20
-60.171
11
135.29
21
-59.721
0
LINE
8
BLACK
6
CONTINUOUS
10
135.29
20
-59.721
11
135.307
21
-59.6349
0
LINE
8
BLACK
6
CONTINUOUS
10
135.307
20
-59.6349
11
135.356
21
-59.5619
0
LINE
8
BLACK
6
CONTINUOUS
10
135.356
20
-59.5619
11
135.429
21
-59.5131
0
LINE
8
BLACK
6
CONTINUOUS
10
135.429
20
-59.5131
11
135.515
21
-59.496
0
LINE
8
BLACK
6
CONTINUOUS
10
135.515
20
-59.496
11
136.265
21
-59.496
0
LINE
8
BLACK
6
CONTINUOUS
10
136.265
20
-59.496
11
136.351
21
-59.5131
0
LINE
8
BLACK
6
CONTINUOUS
10
174.325
20
-59.2591
11
174.398
21
-59.3079
0
LINE
8
BLACK
6
CONTINUOUS
10
174.398
20
-59.3079
11
174.447
21
-59.3809
0
LINE
8
BLACK
6
CONTINUOUS
10
174.447
20
-59.3809
11
174.464
21
-59.467
0
LINE
8
BLACK
6
CONTINUOUS
10
174.464
20
-59.467
11
174.464
21
-59.917
0
LINE
8
BLACK
6
CONTINUOUS
10
174.464
20
-59.917
11
174.447
21
-60.0031
0
LINE
8
BLACK
6
CONTINUOUS
10
174.447
20
-60.0031
11
174.398
21
-60.0761
0
LINE
8
BLACK
6
CONTINUOUS
10
174.398
20
-60.0761
11
174.325
21
-60.1249
0
LINE
8
BLACK
6
CONTINUOUS
10
174.325
20
-60.1249
11
174.239
21
-60.142
0
LINE
8
BLACK
6
CONTINUOUS
10
174.239
20
-60.142
11
173.489
21
-60.142
0
LINE
8
BLACK
6
CONTINUOUS
10
173.489
20
-60.142
11
173.403
21
-60.1249
0
LINE
8
BLACK
6
CONTINUOUS
10
173.403
20
-60.1249
11
173.33
21
-60.0761
0
LINE
8
BLACK
6
CONTINUOUS
10
173.33
20
-60.0761
11
173.281
21
-60.0031
0
LINE
8
BLACK
6
CONTINUOUS
10
173.281
20
-60.0031
11
173.264
21
-59.917
0
LINE
8
BLACK
6
CONTINUOUS
10
173.264
20
-59.917
11
173.264
21
-59.467
0
LINE
8
BLACK
6
CONTINUOUS
10
173.264
20
-59.467
11
173.281
21
-59.3809
0
LINE
8
BLACK
6
CONTINUOUS
10
173.281
20
-59.3809
11
173.33
21
-59.3079
0
LINE
8
BLACK
6
CONTINUOUS
10
173.33
20
-59.3079
11
173.403
21
-59.2591
0
LINE
8
BLACK
6
CONTINUOUS
10
173.403
20
-59.2591
11
173.489
21
-59.242
0
LINE
8
BLACK
6
CONTINUOUS
10
173.489
20
-59.242
11
174.239
21
-59.242
0
LINE
8
BLACK
6
CONTINUOUS
10
174.239
20
-59.242
11
174.325
21
-59.2591
0
LINE
8
BLACK
6
CONTINUOUS
10
108.289
20
-59.3386
11
106.765
21
-59.3386
0
LINE
8
BLACK
6
CONTINUOUS
10
106.765
20
-59.3386
11
106.765
21
-58.6386
0
LINE
8
BLACK
6
CONTINUOUS
10
106.765
20
-58.6386
11
108.289
21
-58.6386
0
LINE
8
BLACK
6
CONTINUOUS
10
108.289
20
-58.6386
11
108.289
21
-59.3386
0
LINE
8
BLACK
6
CONTINUOUS
10
155.401
20
-57.9881
11
155.474
21
-58.0369
0
LINE
8
BLACK
6
CONTINUOUS
10
155.474
20
-58.0369
11
155.523
21
-58.1099
0
LINE
8
BLACK
6
CONTINUOUS
10
155.523
20
-58.1099
11
155.54
21
-58.196
0
LINE
8
BLACK
6
CONTINUOUS
10
155.54
20
-58.196
11
155.54
21
-58.646
0
LINE
8
BLACK
6
CONTINUOUS
10
155.54
20
-58.646
11
155.523
21
-58.7321
0
LINE
8
BLACK
6
CONTINUOUS
10
155.523
20
-58.7321
11
155.474
21
-58.8051
0
LINE
8
BLACK
6
CONTINUOUS
10
155.474
20
-58.8051
11
155.401
21
-58.8539
0
LINE
8
BLACK
6
CONTINUOUS
10
155.401
20
-58.8539
11
155.315
21
-58.871
0
LINE
8
BLACK
6
CONTINUOUS
10
155.315
20
-58.871
11
154.565
21
-58.871
0
LINE
8
BLACK
6
CONTINUOUS
10
154.565
20
-58.871
11
154.479
21
-58.8539
0
LINE
8
BLACK
6
CONTINUOUS
10
154.479
20
-58.8539
11
154.406
21
-58.8051
0
LINE
8
BLACK
6
CONTINUOUS
10
154.406
20
-58.8051
11
154.357
21
-58.7321
0
LINE
8
BLACK
6
CONTINUOUS
10
154.357
20
-58.7321
11
154.34
21
-58.646
0
LINE
8
BLACK
6
CONTINUOUS
10
154.34
20
-58.646
11
154.34
21
-58.196
0
LINE
8
BLACK
6
CONTINUOUS
10
154.34
20
-58.196
11
154.357
21
-58.1099
0
LINE
8
BLACK
6
CONTINUOUS
10
154.357
20
-58.1099
11
154.406
21
-58.0369
0
LINE
8
BLACK
6
CONTINUOUS
10
154.406
20
-58.0369
11
154.479
21
-57.9881
0
LINE
8
BLACK
6
CONTINUOUS
10
154.479
20
-57.9881
11
154.565
21
-57.971
0
LINE
8
BLACK
6
CONTINUOUS
10
154.565
20
-57.971
11
155.315
21
-57.971
0
LINE
8
BLACK
6
CONTINUOUS
10
155.315
20
-57.971
11
155.401
21
-57.9881
0
LINE
8
BLACK
6
CONTINUOUS
10
193.501
20
-57.6061
11
193.574
21
-57.6549
0
LINE
8
BLACK
6
CONTINUOUS
10
193.574
20
-57.6549
11
193.623
21
-57.7279
0
LINE
8
BLACK
6
CONTINUOUS
10
193.623
20
-57.7279
11
193.64
21
-57.814
0
LINE
8
BLACK
6
CONTINUOUS
10
193.64
20
-57.814
11
193.64
21
-58.264
0
LINE
8
BLACK
6
CONTINUOUS
10
193.64
20
-58.264
11
193.623
21
-58.3501
0
LINE
8
BLACK
6
CONTINUOUS
10
193.623
20
-58.3501
11
193.574
21
-58.4231
0
LINE
8
BLACK
6
CONTINUOUS
10
193.574
20
-58.4231
11
193.501
21
-58.4719
0
LINE
8
BLACK
6
CONTINUOUS
10
193.501
20
-58.4719
11
193.415
21
-58.489
0
LINE
8
BLACK
6
CONTINUOUS
10
193.415
20
-58.489
11
192.665
21
-58.489
0
LINE
8
BLACK
6
CONTINUOUS
10
192.665
20
-58.489
11
192.579
21
-58.4719
0
LINE
8
BLACK
6
CONTINUOUS
10
192.579
20
-58.4719
11
192.506
21
-58.4231
0
LINE
8
BLACK
6
CONTINUOUS
10
192.506
20
-58.4231
11
192.457
21
-58.3501
0
LINE
8
BLACK
6
CONTINUOUS
10
192.457
20
-58.3501
11
192.44
21
-58.264
0
LINE
8
BLACK
6
CONTINUOUS
10
192.44
20
-58.264
11
192.44
21
-57.814
0
LINE
8
BLACK
6
CONTINUOUS
10
192.44
20
-57.814
11
192.457
21
-57.7279
0
LINE
8
BLACK
6
CONTINUOUS
10
192.457
20
-57.7279
11
192.506
21
-57.6549
0
LINE
8
BLACK
6
CONTINUOUS
10
192.506
20
-57.6549
11
192.579
21
-57.6061
0
LINE
8
BLACK
6
CONTINUOUS
10
192.579
20
-57.6061
11
192.665
21
-57.589
0
LINE
8
BLACK
6
CONTINUOUS
10
192.665
20
-57.589
11
193.415
21
-57.589
0
LINE
8
BLACK
6
CONTINUOUS
10
193.415
20
-57.589
11
193.501
21
-57.6061
0
LINE
8
BLACK
6
CONTINUOUS
10
212.348
20
-57.6061
11
212.421
21
-57.6549
0
LINE
8
BLACK
6
CONTINUOUS
10
212.421
20
-57.6549
11
212.47
21
-57.7279
0
LINE
8
BLACK
6
CONTINUOUS
10
212.47
20
-57.7279
11
212.487
21
-57.814
0
LINE
8
BLACK
6
CONTINUOUS
10
212.487
20
-57.814
11
212.487
21
-58.264
0
LINE
8
BLACK
6
CONTINUOUS
10
212.487
20
-58.264
11
212.47
21
-58.3501
0
LINE
8
BLACK
6
CONTINUOUS
10
212.47
20
-58.3501
11
212.421
21
-58.4231
0
LINE
8
BLACK
6
CONTINUOUS
10
212.421
20
-58.4231
11
212.348
21
-58.4719
0
LINE
8
BLACK
6
CONTINUOUS
10
212.348
20
-58.4719
11
212.262
21
-58.489
0
LINE
8
BLACK
6
CONTINUOUS
10
212.262
20
-58.489
11
211.512
21
-58.489
0
LINE
8
BLACK
6
CONTINUOUS
10
211.512
20
-58.489
11
211.426
21
-58.4719
0
LINE
8
BLACK
6
CONTINUOUS
10
211.426
20
-58.4719
11
211.353
21
-58.4231
0
LINE
8
BLACK
6
CONTINUOUS
10
211.353
20
-58.4231
11
211.304
21
-58.3501
0
LINE
8
BLACK
6
CONTINUOUS
10
211.304
20
-58.3501
11
211.287
21
-58.264
0
LINE
8
BLACK
6
CONTINUOUS
10
211.287
20
-58.264
11
211.287
21
-57.814
0
LINE
8
BLACK
6
CONTINUOUS
10
211.287
20
-57.814
11
211.304
21
-57.7279
0
LINE
8
BLACK
6
CONTINUOUS
10
211.304
20
-57.7279
11
211.353
21
-57.6549
0
LINE
8
BLACK
6
CONTINUOUS
10
211.353
20
-57.6549
11
211.426
21
-57.6061
0
LINE
8
BLACK
6
CONTINUOUS
10
211.426
20
-57.6061
11
211.512
21
-57.589
0
LINE
8
BLACK
6
CONTINUOUS
10
211.512
20
-57.589
11
212.262
21
-57.589
0
LINE
8
BLACK
6
CONTINUOUS
10
212.262
20
-57.589
11
212.348
21
-57.6061
0
LINE
8
BLACK
6
CONTINUOUS
10
108.289
20
-58.2386
11
106.765
21
-58.2386
0
LINE
8
BLACK
6
CONTINUOUS
10
106.765
20
-58.2386
11
106.765
21
-57.5386
0
LINE
8
BLACK
6
CONTINUOUS
10
106.765
20
-57.5386
11
108.289
21
-57.5386
0
LINE
8
BLACK
6
CONTINUOUS
10
108.289
20
-57.5386
11
108.289
21
-58.2386
0
LINE
8
BLACK
6
CONTINUOUS
10
118.501
20
-58.0952
11
116.351
21
-58.0952
0
LINE
8
BLACK
6
CONTINUOUS
10
116.351
20
-58.0952
11
116.351
21
-55.5952
0
LINE
8
BLACK
6
CONTINUOUS
10
116.351
20
-55.5952
11
118.501
21
-55.5952
0
LINE
8
BLACK
6
CONTINUOUS
10
118.501
20
-55.5952
11
118.501
21
-58.0952
0
LINE
8
BLACK
6
CONTINUOUS
10
108.289
20
-57.1386
11
106.765
21
-57.1386
0
LINE
8
BLACK
6
CONTINUOUS
10
106.765
20
-57.1386
11
106.765
21
-56.4386
0
LINE
8
BLACK
6
CONTINUOUS
10
106.765
20
-56.4386
11
108.289
21
-56.4386
0
LINE
8
BLACK
6
CONTINUOUS
10
108.289
20
-56.4386
11
108.289
21
-57.1386
0
LINE
8
BLACK
6
CONTINUOUS
10
108.289
20
-56.0386
11
106.765
21
-56.0386
0
LINE
8
BLACK
6
CONTINUOUS
10
106.765
20
-56.0386
11
106.765
21
-55.3386
0
LINE
8
BLACK
6
CONTINUOUS
10
106.765
20
-55.3386
11
108.289
21
-55.3386
0
LINE
8
BLACK
6
CONTINUOUS
10
108.289
20
-55.3386
11
108.289
21
-56.0386
0
LINE
8
BLACK
6
CONTINUOUS
10
151.262
20
-55.86
11
148.912
21
-55.86
0
LINE
8
BLACK
6
CONTINUOUS
10
148.912
20
-55.86
11
148.912
21
-53.36
0
LINE
8
BLACK
6
CONTINUOUS
10
148.912
20
-53.36
11
151.262
21
-53.36
0
LINE
8
BLACK
6
CONTINUOUS
10
151.262
20
-53.36
11
151.262
21
-55.86
0
LINE
8
BLACK
6
CONTINUOUS
10
189.362
20
-55.86
11
187.012
21
-55.86
0
LINE
8
BLACK
6
CONTINUOUS
10
187.012
20
-55.86
11
187.012
21
-53.36
0
LINE
8
BLACK
6
CONTINUOUS
10
187.012
20
-53.36
11
189.362
21
-53.36
0
LINE
8
BLACK
6
CONTINUOUS
10
189.362
20
-53.36
11
189.362
21
-55.86
0
LINE
8
BLACK
6
CONTINUOUS
10
155.401
20
-54.6871
11
155.474
21
-54.7359
0
LINE
8
BLACK
6
CONTINUOUS
10
155.474
20
-54.7359
11
155.523
21
-54.8089
0
LINE
8
BLACK
6
CONTINUOUS
10
155.523
20
-54.8089
11
155.54
21
-54.895
0
LINE
8
BLACK
6
CONTINUOUS
10
155.54
20
-54.895
11
155.54
21
-55.345
0
LINE
8
BLACK
6
CONTINUOUS
10
155.54
20
-55.345
11
155.523
21
-55.4311
0
LINE
8
BLACK
6
CONTINUOUS
10
155.523
20
-55.4311
11
155.474
21
-55.5041
0
LINE
8
BLACK
6
CONTINUOUS
10
155.474
20
-55.5041
11
155.401
21
-55.5529
0
LINE
8
BLACK
6
CONTINUOUS
10
155.401
20
-55.5529
11
155.315
21
-55.57
0
LINE
8
BLACK
6
CONTINUOUS
10
155.315
20
-55.57
11
154.565
21
-55.57
0
LINE
8
BLACK
6
CONTINUOUS
10
154.565
20
-55.57
11
154.479
21
-55.5529
0
LINE
8
BLACK
6
CONTINUOUS
10
154.479
20
-55.5529
11
154.406
21
-55.5041
0
LINE
8
BLACK
6
CONTINUOUS
10
154.406
20
-55.5041
11
154.357
21
-55.4311
0
LINE
8
BLACK
6
CONTINUOUS
10
154.357
20
-55.4311
11
154.34
21
-55.345
0
LINE
8
BLACK
6
CONTINUOUS
10
154.34
20
-55.345
11
154.34
21
-54.895
0
LINE
8
BLACK
6
CONTINUOUS
10
154.34
20
-54.895
11
154.357
21
-54.8089
0
LINE
8
BLACK
6
CONTINUOUS
10
154.357
20
-54.8089
11
154.406
21
-54.7359
0
LINE
8
BLACK
6
CONTINUOUS
10
154.406
20
-54.7359
11
154.479
21
-54.6871
0
LINE
8
BLACK
6
CONTINUOUS
10
154.479
20
-54.6871
11
154.565
21
-54.67
0
LINE
8
BLACK
6
CONTINUOUS
10
154.565
20
-54.67
11
155.315
21
-54.67
0
LINE
8
BLACK
6
CONTINUOUS
10
155.315
20
-54.67
11
155.401
21
-54.6871
0
LINE
8
BLACK
6
CONTINUOUS
10
93.1766
20
-55.2006
11
92.4766
21
-55.2006
0
LINE
8
BLACK
6
CONTINUOUS
10
92.4766
20
-55.2006
11
92.4766
21
-53.6766
0
LINE
8
BLACK
6
CONTINUOUS
10
92.4766
20
-53.6766
11
93.1766
21
-53.6766
0
LINE
8
BLACK
6
CONTINUOUS
10
93.1766
20
-53.6766
11
93.1766
21
-55.2006
0
LINE
8
BLACK
6
CONTINUOUS
10
94.2766
20
-55.2006
11
93.5766
21
-55.2006
0
LINE
8
BLACK
6
CONTINUOUS
10
93.5766
20
-55.2006
11
93.5766
21
-53.6766
0
LINE
8
BLACK
6
CONTINUOUS
10
93.5766
20
-53.6766
11
94.2766
21
-53.6766
0
LINE
8
BLACK
6
CONTINUOUS
10
94.2766
20
-53.6766
11
94.2766
21
-55.2006
0
LINE
8
BLACK
6
CONTINUOUS
10
95.3766
20
-55.2006
11
94.6766
21
-55.2006
0
LINE
8
BLACK
6
CONTINUOUS
10
94.6766
20
-55.2006
11
94.6766
21
-53.6766
0
LINE
8
BLACK
6
CONTINUOUS
10
94.6766
20
-53.6766
11
95.3766
21
-53.6766
0
LINE
8
BLACK
6
CONTINUOUS
10
95.3766
20
-53.6766
11
95.3766
21
-55.2006
0
LINE
8
BLACK
6
CONTINUOUS
10
96.4766
20
-55.2006
11
95.7766
21
-55.2006
0
LINE
8
BLACK
6
CONTINUOUS
10
95.7766
20
-55.2006
11
95.7766
21
-53.6766
0
LINE
8
BLACK
6
CONTINUOUS
10
95.7766
20
-53.6766
11
96.4766
21
-53.6766
0
LINE
8
BLACK
6
CONTINUOUS
10
96.4766
20
-53.6766
11
96.4766
21
-55.2006
0
LINE
8
BLACK
6
CONTINUOUS
10
97.5766
20
-55.2006
11
96.8766
21
-55.2006
0
LINE
8
BLACK
6
CONTINUOUS
10
96.8766
20
-55.2006
11
96.8766
21
-53.6766
0
LINE
8
BLACK
6
CONTINUOUS
10
96.8766
20
-53.6766
11
97.5766
21
-53.6766
0
LINE
8
BLACK
6
CONTINUOUS
10
97.5766
20
-53.6766
11
97.5766
21
-55.2006
0
LINE
8
BLACK
6
CONTINUOUS
10
98.6766
20
-55.2006
11
97.9766
21
-55.2006
0
LINE
8
BLACK
6
CONTINUOUS
10
97.9766
20
-55.2006
11
97.9766
21
-53.6766
0
LINE
8
BLACK
6
CONTINUOUS
10
97.9766
20
-53.6766
11
98.6766
21
-53.6766
0
LINE
8
BLACK
6
CONTINUOUS
10
98.6766
20
-53.6766
11
98.6766
21
-55.2006
0
LINE
8
BLACK
6
CONTINUOUS
10
99.7766
20
-55.2006
11
99.0766
21
-55.2006
0
LINE
8
BLACK
6
CONTINUOUS
10
99.0766
20
-55.2006
11
99.0766
21
-53.6766
0
LINE
8
BLACK
6
CONTINUOUS
10
99.0766
20
-53.6766
11
99.7766
21
-53.6766
0
LINE
8
BLACK
6
CONTINUOUS
10
99.7766
20
-53.6766
11
99.7766
21
-55.2006
0
LINE
8
BLACK
6
CONTINUOUS
10
100.877
20
-55.2006
11
100.177
21
-55.2006
0
LINE
8
BLACK
6
CONTINUOUS
10
100.177
20
-55.2006
11
100.177
21
-53.6766
0
LINE
8
BLACK
6
CONTINUOUS
10
100.177
20
-53.6766
11
100.877
21
-53.6766
0
LINE
8
BLACK
6
CONTINUOUS
10
100.877
20
-53.6766
11
100.877
21
-55.2006
0
LINE
8
BLACK
6
CONTINUOUS
10
101.977
20
-55.2006
11
101.277
21
-55.2006
0
LINE
8
BLACK
6
CONTINUOUS
10
101.277
20
-55.2006
11
101.277
21
-53.6766
0
LINE
8
BLACK
6
CONTINUOUS
10
101.277
20
-53.6766
11
101.977
21
-53.6766
0
LINE
8
BLACK
6
CONTINUOUS
10
101.977
20
-53.6766
11
101.977
21
-55.2006
0
LINE
8
BLACK
6
CONTINUOUS
10
103.077
20
-55.2006
11
102.377
21
-55.2006
0
LINE
8
BLACK
6
CONTINUOUS
10
102.377
20
-55.2006
11
102.377
21
-53.6766
0
LINE
8
BLACK
6
CONTINUOUS
10
102.377
20
-53.6766
11
103.077
21
-53.6766
0
LINE
8
BLACK
6
CONTINUOUS
10
103.077
20
-53.6766
11
103.077
21
-55.2006
0
LINE
8
BLACK
6
CONTINUOUS
10
104.177
20
-55.2006
11
103.477
21
-55.2006
0
LINE
8
BLACK
6
CONTINUOUS
10
103.477
20
-55.2006
11
103.477
21
-53.6766
0
LINE
8
BLACK
6
CONTINUOUS
10
103.477
20
-53.6766
11
104.177
21
-53.6766
0
LINE
8
BLACK
6
CONTINUOUS
10
104.177
20
-53.6766
11
104.177
21
-55.2006
0
LINE
8
BLACK
6
CONTINUOUS
10
105.277
20
-55.2006
11
104.577
21
-55.2006
0
LINE
8
BLACK
6
CONTINUOUS
10
104.577
20
-55.2006
11
104.577
21
-53.6766
0
LINE
8
BLACK
6
CONTINUOUS
10
104.577
20
-53.6766
11
105.277
21
-53.6766
0
LINE
8
BLACK
6
CONTINUOUS
10
105.277
20
-53.6766
11
105.277
21
-55.2006
0
LINE
8
BLACK
6
CONTINUOUS
10
106.377
20
-55.2006
11
105.677
21
-55.2006
0
LINE
8
BLACK
6
CONTINUOUS
10
105.677
20
-55.2006
11
105.677
21
-53.6766
0
LINE
8
BLACK
6
CONTINUOUS
10
105.677
20
-53.6766
11
106.377
21
-53.6766
0
LINE
8
BLACK
6
CONTINUOUS
10
106.377
20
-53.6766
11
106.377
21
-55.2006
0
LINE
8
BLACK
6
CONTINUOUS
10
193.501
20
-54.3051
11
193.574
21
-54.3539
0
LINE
8
BLACK
6
CONTINUOUS
10
193.574
20
-54.3539
11
193.623
21
-54.4269
0
LINE
8
BLACK
6
CONTINUOUS
10
193.623
20
-54.4269
11
193.64
21
-54.513
0
LINE
8
BLACK
6
CONTINUOUS
10
193.64
20
-54.513
11
193.64
21
-54.963
0
LINE
8
BLACK
6
CONTINUOUS
10
193.64
20
-54.963
11
193.623
21
-55.0491
0
LINE
8
BLACK
6
CONTINUOUS
10
193.623
20
-55.0491
11
193.574
21
-55.1221
0
LINE
8
BLACK
6
CONTINUOUS
10
193.574
20
-55.1221
11
193.501
21
-55.1709
0
LINE
8
BLACK
6
CONTINUOUS
10
193.501
20
-55.1709
11
193.415
21
-55.188
0
LINE
8
BLACK
6
CONTINUOUS
10
193.415
20
-55.188
11
192.665
21
-55.188
0
LINE
8
BLACK
6
CONTINUOUS
10
192.665
20
-55.188
11
192.579
21
-55.1709
0
LINE
8
BLACK
6
CONTINUOUS
10
192.579
20
-55.1709
11
192.506
21
-55.1221
0
LINE
8
BLACK
6
CONTINUOUS
10
192.506
20
-55.1221
11
192.457
21
-55.0491
0
LINE
8
BLACK
6
CONTINUOUS
10
192.457
20
-55.0491
11
192.44
21
-54.963
0
LINE
8
BLACK
6
CONTINUOUS
10
192.44
20
-54.963
11
192.44
21
-54.513
0
LINE
8
BLACK
6
CONTINUOUS
10
192.44
20
-54.513
11
192.457
21
-54.4269
0
LINE
8
BLACK
6
CONTINUOUS
10
192.457
20
-54.4269
11
192.506
21
-54.3539
0
LINE
8
BLACK
6
CONTINUOUS
10
192.506
20
-54.3539
11
192.579
21
-54.3051
0
LINE
8
BLACK
6
CONTINUOUS
10
192.579
20
-54.3051
11
192.665
21
-54.288
0
LINE
8
BLACK
6
CONTINUOUS
10
192.665
20
-54.288
11
193.415
21
-54.288
0
LINE
8
BLACK
6
CONTINUOUS
10
193.415
20
-54.288
11
193.501
21
-54.3051
0
LINE
8
BLACK
6
CONTINUOUS
10
212.348
20
-54.3051
11
212.421
21
-54.3539
0
LINE
8
BLACK
6
CONTINUOUS
10
212.421
20
-54.3539
11
212.47
21
-54.4269
0
LINE
8
BLACK
6
CONTINUOUS
10
212.47
20
-54.4269
11
212.487
21
-54.513
0
LINE
8
BLACK
6
CONTINUOUS
10
212.487
20
-54.513
11
212.487
21
-54.963
0
LINE
8
BLACK
6
CONTINUOUS
10
212.487
20
-54.963
11
212.47
21
-55.0491
0
LINE
8
BLACK
6
CONTINUOUS
10
212.47
20
-55.0491
11
212.421
21
-55.1221
0
LINE
8
BLACK
6
CONTINUOUS
10
212.421
20
-55.1221
11
212.348
21
-55.1709
0
LINE
8
BLACK
6
CONTINUOUS
10
212.348
20
-55.1709
11
212.262
21
-55.188
0
LINE
8
BLACK
6
CONTINUOUS
10
212.262
20
-55.188
11
211.512
21
-55.188
0
LINE
8
BLACK
6
CONTINUOUS
10
211.512
20
-55.188
11
211.426
21
-55.1709
0
LINE
8
BLACK
6
CONTINUOUS
10
211.426
20
-55.1709
11
211.353
21
-55.1221
0
LINE
8
BLACK
6
CONTINUOUS
10
211.353
20
-55.1221
11
211.304
21
-55.0491
0
LINE
8
BLACK
6
CONTINUOUS
10
211.304
20
-55.0491
11
211.287
21
-54.963
0
LINE
8
BLACK
6
CONTINUOUS
10
211.287
20
-54.963
11
211.287
21
-54.513
0
LINE
8
BLACK
6
CONTINUOUS
10
211.287
20
-54.513
11
211.304
21
-54.4269
0
LINE
8
BLACK
6
CONTINUOUS
10
211.304
20
-54.4269
11
211.353
21
-54.3539
0
LINE
8
BLACK
6
CONTINUOUS
10
211.353
20
-54.3539
11
211.426
21
-54.3051
0
LINE
8
BLACK
6
CONTINUOUS
10
211.426
20
-54.3051
11
211.512
21
-54.288
0
LINE
8
BLACK
6
CONTINUOUS
10
211.512
20
-54.288
11
212.262
21
-54.288
0
LINE
8
BLACK
6
CONTINUOUS
10
212.262
20
-54.288
11
212.348
21
-54.3051
0
LINE
8
BLACK
6
CONTINUOUS
10
137.551
20
-53.3327
11
135.401
21
-53.3327
0
LINE
8
BLACK
6
CONTINUOUS
10
135.401
20
-53.3327
11
135.401
21
-50.8327
0
LINE
8
BLACK
6
CONTINUOUS
10
135.401
20
-50.8327
11
137.551
21
-50.8327
0
LINE
8
BLACK
6
CONTINUOUS
10
137.551
20
-50.8327
11
137.551
21
-53.3327
0
LINE
8
BLACK
6
CONTINUOUS
10
175.651
20
-53.3327
11
173.501
21
-53.3327
0
LINE
8
BLACK
6
CONTINUOUS
10
173.501
20
-53.3327
11
173.501
21
-50.8327
0
LINE
8
BLACK
6
CONTINUOUS
10
173.501
20
-50.8327
11
175.651
21
-50.8327
0
LINE
8
BLACK
6
CONTINUOUS
10
175.651
20
-50.8327
11
175.651
21
-53.3327
0
LINE
8
BLACK
6
CONTINUOUS
10
170.312
20
-51.0975
11
167.962
21
-51.0975
0
LINE
8
BLACK
6
CONTINUOUS
10
167.962
20
-51.0975
11
167.962
21
-48.5975
0
LINE
8
BLACK
6
CONTINUOUS
10
167.962
20
-48.5975
11
170.312
21
-48.5975
0
LINE
8
BLACK
6
CONTINUOUS
10
170.312
20
-48.5975
11
170.312
21
-51.0975
0
LINE
8
BLACK
6
CONTINUOUS
10
208.412
20
-51.0975
11
206.062
21
-51.0975
0
LINE
8
BLACK
6
CONTINUOUS
10
206.062
20
-51.0975
11
206.062
21
-48.5975
0
LINE
8
BLACK
6
CONTINUOUS
10
206.062
20
-48.5975
11
208.412
21
-48.5975
0
LINE
8
BLACK
6
CONTINUOUS
10
208.412
20
-48.5975
11
208.412
21
-51.0975
0
LINE
8
BLACK
6
CONTINUOUS
10
227.462
20
-51.0975
11
225.112
21
-51.0975
0
LINE
8
BLACK
6
CONTINUOUS
10
225.112
20
-51.0975
11
225.112
21
-48.5975
0
LINE
8
BLACK
6
CONTINUOUS
10
225.112
20
-48.5975
11
227.462
21
-48.5975
0
LINE
8
BLACK
6
CONTINUOUS
10
227.462
20
-48.5975
11
227.462
21
-51.0975
0
LINE
8
BLACK
6
CONTINUOUS
10
117.301
20
-48.4621
11
117.374
21
-48.5109
0
LINE
8
BLACK
6
CONTINUOUS
10
117.374
20
-48.5109
11
117.423
21
-48.5839
0
LINE
8
BLACK
6
CONTINUOUS
10
117.423
20
-48.5839
11
117.44
21
-48.67
0
LINE
8
BLACK
6
CONTINUOUS
10
117.44
20
-48.67
11
117.44
21
-49.12
0
LINE
8
BLACK
6
CONTINUOUS
10
117.44
20
-49.12
11
117.423
21
-49.2061
0
LINE
8
BLACK
6
CONTINUOUS
10
117.423
20
-49.2061
11
117.374
21
-49.2791
0
LINE
8
BLACK
6
CONTINUOUS
10
117.374
20
-49.2791
11
117.301
21
-49.3279
0
LINE
8
BLACK
6
CONTINUOUS
10
117.301
20
-49.3279
11
117.215
21
-49.345
0
LINE
8
BLACK
6
CONTINUOUS
10
117.215
20
-49.345
11
116.465
21
-49.345
0
LINE
8
BLACK
6
CONTINUOUS
10
116.465
20
-49.345
11
116.379
21
-49.3279
0
LINE
8
BLACK
6
CONTINUOUS
10
116.379
20
-49.3279
11
116.306
21
-49.2791
0
LINE
8
BLACK
6
CONTINUOUS
10
116.306
20
-49.2791
11
116.257
21
-49.2061
0
LINE
8
BLACK
6
CONTINUOUS
10
116.257
20
-49.2061
11
116.24
21
-49.12
0
LINE
8
BLACK
6
CONTINUOUS
10
116.24
20
-49.12
11
116.24
21
-48.67
0
LINE
8
BLACK
6
CONTINUOUS
10
116.24
20
-48.67
11
116.257
21
-48.5839
0
LINE
8
BLACK
6
CONTINUOUS
10
116.257
20
-48.5839
11
116.306
21
-48.5109
0
LINE
8
BLACK
6
CONTINUOUS
10
116.306
20
-48.5109
11
116.379
21
-48.4621
0
LINE
8
BLACK
6
CONTINUOUS
10
116.379
20
-48.4621
11
116.465
21
-48.445
0
LINE
8
BLACK
6
CONTINUOUS
10
116.465
20
-48.445
11
117.215
21
-48.445
0
LINE
8
BLACK
6
CONTINUOUS
10
117.215
20
-48.445
11
117.301
21
-48.4621
0
LINE
8
BLACK
6
CONTINUOUS
10
156.601
20
-48.5702
11
154.451
21
-48.5702
0
LINE
8
BLACK
6
CONTINUOUS
10
154.451
20
-48.5702
11
154.451
21
-46.0702
0
LINE
8
BLACK
6
CONTINUOUS
10
154.451
20
-46.0702
11
156.601
21
-46.0702
0
LINE
8
BLACK
6
CONTINUOUS
10
156.601
20
-46.0702
11
156.601
21
-48.5702
0
LINE
8
BLACK
6
CONTINUOUS
10
194.701
20
-48.5702
11
192.551
21
-48.5702
0
LINE
8
BLACK
6
CONTINUOUS
10
192.551
20
-48.5702
11
192.551
21
-46.0702
0
LINE
8
BLACK
6
CONTINUOUS
10
192.551
20
-46.0702
11
194.701
21
-46.0702
0
LINE
8
BLACK
6
CONTINUOUS
10
194.701
20
-46.0702
11
194.701
21
-48.5702
0
LINE
8
BLACK
6
CONTINUOUS
10
213.751
20
-48.5702
11
211.601
21
-48.5702
0
LINE
8
BLACK
6
CONTINUOUS
10
211.601
20
-48.5702
11
211.601
21
-46.0702
0
LINE
8
BLACK
6
CONTINUOUS
10
211.601
20
-46.0702
11
213.751
21
-46.0702
0
LINE
8
BLACK
6
CONTINUOUS
10
213.751
20
-46.0702
11
213.751
21
-48.5702
0
LINE
8
BLACK
6
CONTINUOUS
10
107.89
20
-47.1434
11
107.939
21
-47.1759
0
LINE
8
BLACK
6
CONTINUOUS
10
107.939
20
-47.1759
11
107.972
21
-47.2246
0
LINE
8
BLACK
6
CONTINUOUS
10
107.972
20
-47.2246
11
107.983
21
-47.282
0
LINE
8
BLACK
6
CONTINUOUS
10
107.983
20
-47.282
11
107.983
21
-47.582
0
LINE
8
BLACK
6
CONTINUOUS
10
107.983
20
-47.582
11
107.972
21
-47.6394
0
LINE
8
BLACK
6
CONTINUOUS
10
107.972
20
-47.6394
11
107.939
21
-47.6881
0
LINE
8
BLACK
6
CONTINUOUS
10
107.939
20
-47.6881
11
107.89
21
-47.7206
0
LINE
8
BLACK
6
CONTINUOUS
10
107.89
20
-47.7206
11
107.833
21
-47.732
0
LINE
8
BLACK
6
CONTINUOUS
10
107.833
20
-47.732
11
106.808
21
-47.732
0
LINE
8
BLACK
6
CONTINUOUS
10
106.808
20
-47.732
11
106.751
21
-47.7206
0
LINE
8
BLACK
6
CONTINUOUS
10
106.751
20
-47.7206
11
106.702
21
-47.6881
0
LINE
8
BLACK
6
CONTINUOUS
10
106.702
20
-47.6881
11
106.669
21
-47.6394
0
LINE
8
BLACK
6
CONTINUOUS
10
106.669
20
-47.6394
11
106.658
21
-47.582
0
LINE
8
BLACK
6
CONTINUOUS
10
106.658
20
-47.582
11
106.658
21
-47.282
0
LINE
8
BLACK
6
CONTINUOUS
10
106.658
20
-47.282
11
106.669
21
-47.2246
0
LINE
8
BLACK
6
CONTINUOUS
10
106.669
20
-47.2246
11
106.702
21
-47.1759
0
LINE
8
BLACK
6
CONTINUOUS
10
106.702
20
-47.1759
11
106.751
21
-47.1434
0
LINE
8
BLACK
6
CONTINUOUS
10
106.751
20
-47.1434
11
106.808
21
-47.132
0
LINE
8
BLACK
6
CONTINUOUS
10
106.808
20
-47.132
11
107.833
21
-47.132
0
LINE
8
BLACK
6
CONTINUOUS
10
107.833
20
-47.132
11
107.89
21
-47.1434
0
LINE
8
BLACK
6
CONTINUOUS
10
110.165
20
-47.1434
11
110.214
21
-47.1759
0
LINE
8
BLACK
6
CONTINUOUS
10
110.214
20
-47.1759
11
110.247
21
-47.2246
0
LINE
8
BLACK
6
CONTINUOUS
10
110.247
20
-47.2246
11
110.258
21
-47.282
0
LINE
8
BLACK
6
CONTINUOUS
10
110.258
20
-47.282
11
110.258
21
-47.582
0
LINE
8
BLACK
6
CONTINUOUS
10
110.258
20
-47.582
11
110.247
21
-47.6394
0
LINE
8
BLACK
6
CONTINUOUS
10
110.247
20
-47.6394
11
110.214
21
-47.6881
0
LINE
8
BLACK
6
CONTINUOUS
10
110.214
20
-47.6881
11
110.165
21
-47.7206
0
LINE
8
BLACK
6
CONTINUOUS
10
110.165
20
-47.7206
11
110.108
21
-47.732
0
LINE
8
BLACK
6
CONTINUOUS
10
110.108
20
-47.732
11
109.083
21
-47.732
0
LINE
8
BLACK
6
CONTINUOUS
10
109.083
20
-47.732
11
109.026
21
-47.7206
0
LINE
8
BLACK
6
CONTINUOUS
10
109.026
20
-47.7206
11
108.977
21
-47.6881
0
LINE
8
BLACK
6
CONTINUOUS
10
108.977
20
-47.6881
11
108.944
21
-47.6394
0
LINE
8
BLACK
6
CONTINUOUS
10
108.944
20
-47.6394
11
108.933
21
-47.582
0
LINE
8
BLACK
6
CONTINUOUS
10
108.933
20
-47.582
11
108.933
21
-47.282
0
LINE
8
BLACK
6
CONTINUOUS
10
108.933
20
-47.282
11
108.944
21
-47.2246
0
LINE
8
BLACK
6
CONTINUOUS
10
108.944
20
-47.2246
11
108.977
21
-47.1759
0
LINE
8
BLACK
6
CONTINUOUS
10
108.977
20
-47.1759
11
109.026
21
-47.1434
0
LINE
8
BLACK
6
CONTINUOUS
10
109.026
20
-47.1434
11
109.083
21
-47.132
0
LINE
8
BLACK
6
CONTINUOUS
10
109.083
20
-47.132
11
110.108
21
-47.132
0
LINE
8
BLACK
6
CONTINUOUS
10
110.108
20
-47.132
11
110.165
21
-47.1434
0
LINE
8
BLACK
6
CONTINUOUS
10
110.165
20
-46.1934
11
110.214
21
-46.2259
0
LINE
8
BLACK
6
CONTINUOUS
10
110.214
20
-46.2259
11
110.247
21
-46.2746
0
LINE
8
BLACK
6
CONTINUOUS
10
110.247
20
-46.2746
11
110.258
21
-46.332
0
LINE
8
BLACK
6
CONTINUOUS
10
110.258
20
-46.332
11
110.258
21
-46.632
0
LINE
8
BLACK
6
CONTINUOUS
10
110.258
20
-46.632
11
110.247
21
-46.6894
0
LINE
8
BLACK
6
CONTINUOUS
10
110.247
20
-46.6894
11
110.214
21
-46.7381
0
LINE
8
BLACK
6
CONTINUOUS
10
110.214
20
-46.7381
11
110.165
21
-46.7706
0
LINE
8
BLACK
6
CONTINUOUS
10
110.165
20
-46.7706
11
110.108
21
-46.782
0
LINE
8
BLACK
6
CONTINUOUS
10
110.108
20
-46.782
11
109.083
21
-46.782
0
LINE
8
BLACK
6
CONTINUOUS
10
109.083
20
-46.782
11
109.026
21
-46.7706
0
LINE
8
BLACK
6
CONTINUOUS
10
109.026
20
-46.7706
11
108.977
21
-46.7381
0
LINE
8
BLACK
6
CONTINUOUS
10
108.977
20
-46.7381
11
108.944
21
-46.6894
0
LINE
8
BLACK
6
CONTINUOUS
10
108.944
20
-46.6894
11
108.933
21
-46.632
0
LINE
8
BLACK
6
CONTINUOUS
10
108.933
20
-46.632
11
108.933
21
-46.332
0
LINE
8
BLACK
6
CONTINUOUS
10
108.933
20
-46.332
11
108.944
21
-46.2746
0
LINE
8
BLACK
6
CONTINUOUS
10
108.944
20
-46.2746
11
108.977
21
-46.2259
0
LINE
8
BLACK
6
CONTINUOUS
10
108.977
20
-46.2259
11
109.026
21
-46.1934
0
LINE
8
BLACK
6
CONTINUOUS
10
109.026
20
-46.1934
11
109.083
21
-46.182
0
LINE
8
BLACK
6
CONTINUOUS
10
109.083
20
-46.182
11
110.108
21
-46.182
0
LINE
8
BLACK
6
CONTINUOUS
10
110.108
20
-46.182
11
110.165
21
-46.1934
0
LINE
8
BLACK
6
CONTINUOUS
10
117.301
20
-45.1611
11
117.374
21
-45.2099
0
LINE
8
BLACK
6
CONTINUOUS
10
117.374
20
-45.2099
11
117.423
21
-45.2829
0
LINE
8
BLACK
6
CONTINUOUS
10
117.423
20
-45.2829
11
117.44
21
-45.369
0
LINE
8
BLACK
6
CONTINUOUS
10
117.44
20
-45.369
11
117.44
21
-45.819
0
LINE
8
BLACK
6
CONTINUOUS
10
117.44
20
-45.819
11
117.423
21
-45.9051
0
LINE
8
BLACK
6
CONTINUOUS
10
117.423
20
-45.9051
11
117.374
21
-45.9781
0
LINE
8
BLACK
6
CONTINUOUS
10
117.374
20
-45.9781
11
117.301
21
-46.0269
0
LINE
8
BLACK
6
CONTINUOUS
10
117.301
20
-46.0269
11
117.215
21
-46.044
0
LINE
8
BLACK
6
CONTINUOUS
10
117.215
20
-46.044
11
116.465
21
-46.044
0
LINE
8
BLACK
6
CONTINUOUS
10
116.465
20
-46.044
11
116.379
21
-46.0269
0
LINE
8
BLACK
6
CONTINUOUS
10
116.379
20
-46.0269
11
116.306
21
-45.9781
0
LINE
8
BLACK
6
CONTINUOUS
10
116.306
20
-45.9781
11
116.257
21
-45.9051
0
LINE
8
BLACK
6
CONTINUOUS
10
116.257
20
-45.9051
11
116.24
21
-45.819
0
LINE
8
BLACK
6
CONTINUOUS
10
116.24
20
-45.819
11
116.24
21
-45.369
0
LINE
8
BLACK
6
CONTINUOUS
10
116.24
20
-45.369
11
116.257
21
-45.2829
0
LINE
8
BLACK
6
CONTINUOUS
10
116.257
20
-45.2829
11
116.306
21
-45.2099
0
LINE
8
BLACK
6
CONTINUOUS
10
116.306
20
-45.2099
11
116.379
21
-45.1611
0
LINE
8
BLACK
6
CONTINUOUS
10
116.379
20
-45.1611
11
116.465
21
-45.144
0
LINE
8
BLACK
6
CONTINUOUS
10
116.465
20
-45.144
11
117.215
21
-45.144
0
LINE
8
BLACK
6
CONTINUOUS
10
117.215
20
-45.144
11
117.301
21
-45.1611
0
LINE
8
BLACK
6
CONTINUOUS
10
107.89
20
-45.2434
11
107.939
21
-45.2759
0
LINE
8
BLACK
6
CONTINUOUS
10
107.939
20
-45.2759
11
107.972
21
-45.3246
0
LINE
8
BLACK
6
CONTINUOUS
10
107.972
20
-45.3246
11
107.983
21
-45.382
0
LINE
8
BLACK
6
CONTINUOUS
10
107.983
20
-45.382
11
107.983
21
-45.682
0
LINE
8
BLACK
6
CONTINUOUS
10
107.983
20
-45.682
11
107.972
21
-45.7394
0
LINE
8
BLACK
6
CONTINUOUS
10
107.972
20
-45.7394
11
107.939
21
-45.7881
0
LINE
8
BLACK
6
CONTINUOUS
10
107.939
20
-45.7881
11
107.89
21
-45.8206
0
LINE
8
BLACK
6
CONTINUOUS
10
107.89
20
-45.8206
11
107.833
21
-45.832
0
LINE
8
BLACK
6
CONTINUOUS
10
107.833
20
-45.832
11
106.808
21
-45.832
0
LINE
8
BLACK
6
CONTINUOUS
10
106.808
20
-45.832
11
106.751
21
-45.8206
0
LINE
8
BLACK
6
CONTINUOUS
10
106.751
20
-45.8206
11
106.702
21
-45.7881
0
LINE
8
BLACK
6
CONTINUOUS
10
106.702
20
-45.7881
11
106.669
21
-45.7394
0
LINE
8
BLACK
6
CONTINUOUS
10
106.669
20
-45.7394
11
106.658
21
-45.682
0
LINE
8
BLACK
6
CONTINUOUS
10
106.658
20
-45.682
11
106.658
21
-45.382
0
LINE
8
BLACK
6
CONTINUOUS
10
106.658
20
-45.382
11
106.669
21
-45.3246
0
LINE
8
BLACK
6
CONTINUOUS
10
106.669
20
-45.3246
11
106.702
21
-45.2759
0
LINE
8
BLACK
6
CONTINUOUS
10
106.702
20
-45.2759
11
106.751
21
-45.2434
0
LINE
8
BLACK
6
CONTINUOUS
10
106.751
20
-45.2434
11
106.808
21
-45.232
0
LINE
8
BLACK
6
CONTINUOUS
10
106.808
20
-45.232
11
107.833
21
-45.232
0
LINE
8
BLACK
6
CONTINUOUS
10
107.833
20
-45.232
11
107.89
21
-45.2434
0
LINE
8
BLACK
6
CONTINUOUS
10
110.165
20
-45.2434
11
110.214
21
-45.2759
0
LINE
8
BLACK
6
CONTINUOUS
10
110.214
20
-45.2759
11
110.247
21
-45.3246
0
LINE
8
BLACK
6
CONTINUOUS
10
110.247
20
-45.3246
11
110.258
21
-45.382
0
LINE
8
BLACK
6
CONTINUOUS
10
110.258
20
-45.382
11
110.258
21
-45.682
0
LINE
8
BLACK
6
CONTINUOUS
10
110.258
20
-45.682
11
110.247
21
-45.7394
0
LINE
8
BLACK
6
CONTINUOUS
10
110.247
20
-45.7394
11
110.214
21
-45.7881
0
LINE
8
BLACK
6
CONTINUOUS
10
110.214
20
-45.7881
11
110.165
21
-45.8206
0
LINE
8
BLACK
6
CONTINUOUS
10
110.165
20
-45.8206
11
110.108
21
-45.832
0
LINE
8
BLACK
6
CONTINUOUS
10
110.108
20
-45.832
11
109.083
21
-45.832
0
LINE
8
BLACK
6
CONTINUOUS
10
109.083
20
-45.832
11
109.026
21
-45.8206
0
LINE
8
BLACK
6
CONTINUOUS
10
109.026
20
-45.8206
11
108.977
21
-45.7881
0
LINE
8
BLACK
6
CONTINUOUS
10
108.977
20
-45.7881
11
108.944
21
-45.7394
0
LINE
8
BLACK
6
CONTINUOUS
10
108.944
20
-45.7394
11
108.933
21
-45.682
0
LINE
8
BLACK
6
CONTINUOUS
10
108.933
20
-45.682
11
108.933
21
-45.382
0
LINE
8
BLACK
6
CONTINUOUS
10
108.933
20
-45.382
11
108.944
21
-45.3246
0
LINE
8
BLACK
6
CONTINUOUS
10
108.944
20
-45.3246
11
108.977
21
-45.2759
0
LINE
8
BLACK
6
CONTINUOUS
10
108.977
20
-45.2759
11
109.026
21
-45.2434
0
LINE
8
BLACK
6
CONTINUOUS
10
109.026
20
-45.2434
11
109.083
21
-45.232
0
LINE
8
BLACK
6
CONTINUOUS
10
109.083
20
-45.232
11
110.108
21
-45.232
0
LINE
8
BLACK
6
CONTINUOUS
10
110.108
20
-45.232
11
110.165
21
-45.2434
0
LINE
8
BLACK
6
CONTINUOUS
10
98.2017
20
-43.49
11
98.2828
21
-43.5442
0
LINE
8
BLACK
6
CONTINUOUS
10
98.2828
20
-43.5442
11
98.337
21
-43.6253
0
LINE
8
BLACK
6
CONTINUOUS
10
98.337
20
-43.6253
11
98.356
21
-43.721
0
LINE
8
BLACK
6
CONTINUOUS
10
98.356
20
-43.721
11
98.356
21
-44.671
0
LINE
8
BLACK
6
CONTINUOUS
10
98.356
20
-44.671
11
98.337
21
-44.7667
0
LINE
8
BLACK
6
CONTINUOUS
10
98.337
20
-44.7667
11
98.2828
21
-44.8478
0
LINE
8
BLACK
6
CONTINUOUS
10
98.2828
20
-44.8478
11
98.2017
21
-44.902
0
LINE
8
BLACK
6
CONTINUOUS
10
98.2017
20
-44.902
11
98.106
21
-44.921
0
LINE
8
BLACK
6
CONTINUOUS
10
98.106
20
-44.921
11
97.606
21
-44.921
0
LINE
8
BLACK
6
CONTINUOUS
10
97.606
20
-44.921
11
97.5103
21
-44.902
0
LINE
8
BLACK
6
CONTINUOUS
10
97.5103
20
-44.902
11
97.4292
21
-44.8478
0
LINE
8
BLACK
6
CONTINUOUS
10
97.4292
20
-44.8478
11
97.375
21
-44.7667
0
LINE
8
BLACK
6
CONTINUOUS
10
97.375
20
-44.7667
11
97.356
21
-44.671
0
LINE
8
BLACK
6
CONTINUOUS
10
97.356
20
-44.671
11
97.356
21
-43.721
0
LINE
8
BLACK
6
CONTINUOUS
10
97.356
20
-43.721
11
97.375
21
-43.6253
0
LINE
8
BLACK
6
CONTINUOUS
10
97.375
20
-43.6253
11
97.4292
21
-43.5442
0
LINE
8
BLACK
6
CONTINUOUS
10
97.4292
20
-43.5442
11
97.5103
21
-43.49
0
LINE
8
BLACK
6
CONTINUOUS
10
97.5103
20
-43.49
11
97.606
21
-43.471
0
LINE
8
BLACK
6
CONTINUOUS
10
97.606
20
-43.471
11
98.106
21
-43.471
0
LINE
8
BLACK
6
CONTINUOUS
10
98.106
20
-43.471
11
98.2017
21
-43.49
0
LINE
8
BLACK
6
CONTINUOUS
10
100.102
20
-43.49
11
100.183
21
-43.5442
0
LINE
8
BLACK
6
CONTINUOUS
10
100.183
20
-43.5442
11
100.237
21
-43.6253
0
LINE
8
BLACK
6
CONTINUOUS
10
100.237
20
-43.6253
11
100.256
21
-43.721
0
LINE
8
BLACK
6
CONTINUOUS
10
100.256
20
-43.721
11
100.256
21
-44.671
0
LINE
8
BLACK
6
CONTINUOUS
10
100.256
20
-44.671
11
100.237
21
-44.7667
0
LINE
8
BLACK
6
CONTINUOUS
10
100.237
20
-44.7667
11
100.183
21
-44.8478
0
LINE
8
BLACK
6
CONTINUOUS
10
100.183
20
-44.8478
11
100.102
21
-44.902
0
LINE
8
BLACK
6
CONTINUOUS
10
100.102
20
-44.902
11
100.006
21
-44.921
0
LINE
8
BLACK
6
CONTINUOUS
10
100.006
20
-44.921
11
99.506
21
-44.921
0
LINE
8
BLACK
6
CONTINUOUS
10
99.506
20
-44.921
11
99.4103
21
-44.902
0
LINE
8
BLACK
6
CONTINUOUS
10
99.4103
20
-44.902
11
99.3292
21
-44.8478
0
LINE
8
BLACK
6
CONTINUOUS
10
99.3292
20
-44.8478
11
99.275
21
-44.7667
0
LINE
8
BLACK
6
CONTINUOUS
10
99.275
20
-44.7667
11
99.256
21
-44.671
0
LINE
8
BLACK
6
CONTINUOUS
10
99.256
20
-44.671
11
99.256
21
-43.721
0
LINE
8
BLACK
6
CONTINUOUS
10
99.256
20
-43.721
11
99.275
21
-43.6253
0
LINE
8
BLACK
6
CONTINUOUS
10
99.275
20
-43.6253
11
99.3292
21
-43.5442
0
LINE
8
BLACK
6
CONTINUOUS
10
99.3292
20
-43.5442
11
99.4103
21
-43.49
0
LINE
8
BLACK
6
CONTINUOUS
10
99.4103
20
-43.49
11
99.506
21
-43.471
0
LINE
8
BLACK
6
CONTINUOUS
10
99.506
20
-43.471
11
100.006
21
-43.471
0
LINE
8
BLACK
6
CONTINUOUS
10
100.006
20
-43.471
11
100.102
21
-43.49
0
LINE
8
BLACK
6
CONTINUOUS
10
101.729
20
-43.515
11
101.81
21
-43.5692
0
LINE
8
BLACK
6
CONTINUOUS
10
101.81
20
-43.5692
11
101.864
21
-43.6503
0
LINE
8
BLACK
6
CONTINUOUS
10
101.864
20
-43.6503
11
101.883
21
-43.746
0
LINE
8
BLACK
6
CONTINUOUS
10
101.883
20
-43.746
11
101.883
21
-44.646
0
LINE
8
BLACK
6
CONTINUOUS
10
101.883
20
-44.646
11
101.864
21
-44.7417
0
LINE
8
BLACK
6
CONTINUOUS
10
101.864
20
-44.7417
11
101.81
21
-44.8228
0
LINE
8
BLACK
6
CONTINUOUS
10
101.81
20
-44.8228
11
101.729
21
-44.877
0
LINE
8
BLACK
6
CONTINUOUS
10
101.729
20
-44.877
11
101.633
21
-44.896
0
LINE
8
BLACK
6
CONTINUOUS
10
101.633
20
-44.896
11
101.108
21
-44.896
0
LINE
8
BLACK
6
CONTINUOUS
10
101.108
20
-44.896
11
101.013
21
-44.877
0
LINE
8
BLACK
6
CONTINUOUS
10
101.013
20
-44.877
11
100.932
21
-44.8228
0
LINE
8
BLACK
6
CONTINUOUS
10
100.932
20
-44.8228
11
100.878
21
-44.7417
0
LINE
8
BLACK
6
CONTINUOUS
10
100.878
20
-44.7417
11
100.858
21
-44.646
0
LINE
8
BLACK
6
CONTINUOUS
10
100.858
20
-44.646
11
100.858
21
-43.746
0
LINE
8
BLACK
6
CONTINUOUS
10
100.858
20
-43.746
11
100.878
21
-43.6503
0
LINE
8
BLACK
6
CONTINUOUS
10
100.878
20
-43.6503
11
100.932
21
-43.5692
0
LINE
8
BLACK
6
CONTINUOUS
10
100.932
20
-43.5692
11
101.013
21
-43.515
0
LINE
8
BLACK
6
CONTINUOUS
10
101.013
20
-43.515
11
101.108
21
-43.496
0
LINE
8
BLACK
6
CONTINUOUS
10
101.108
20
-43.496
11
101.633
21
-43.496
0
LINE
8
BLACK
6
CONTINUOUS
10
101.633
20
-43.496
11
101.729
21
-43.515
0
LINE
8
BLACK
6
CONTINUOUS
10
103.554
20
-43.515
11
103.635
21
-43.5692
0
LINE
8
BLACK
6
CONTINUOUS
10
103.635
20
-43.5692
11
103.689
21
-43.6503
0
LINE
8
BLACK
6
CONTINUOUS
10
103.689
20
-43.6503
11
103.709
21
-43.746
0
LINE
8
BLACK
6
CONTINUOUS
10
103.709
20
-43.746
11
103.709
21
-44.646
0
LINE
8
BLACK
6
CONTINUOUS
10
103.709
20
-44.646
11
103.689
21
-44.7417
0
LINE
8
BLACK
6
CONTINUOUS
10
103.689
20
-44.7417
11
103.635
21
-44.8228
0
LINE
8
BLACK
6
CONTINUOUS
10
103.635
20
-44.8228
11
103.554
21
-44.877
0
LINE
8
BLACK
6
CONTINUOUS
10
103.554
20
-44.877
11
103.459
21
-44.896
0
LINE
8
BLACK
6
CONTINUOUS
10
103.459
20
-44.896
11
102.933
21
-44.896
0
LINE
8
BLACK
6
CONTINUOUS
10
102.933
20
-44.896
11
102.838
21
-44.877
0
LINE
8
BLACK
6
CONTINUOUS
10
102.838
20
-44.877
11
102.757
21
-44.8228
0
LINE
8
BLACK
6
CONTINUOUS
10
102.757
20
-44.8228
11
102.703
21
-44.7417
0
LINE
8
BLACK
6
CONTINUOUS
10
102.703
20
-44.7417
11
102.683
21
-44.646
0
LINE
8
BLACK
6
CONTINUOUS
10
102.683
20
-44.646
11
102.683
21
-43.746
0
LINE
8
BLACK
6
CONTINUOUS
10
102.683
20
-43.746
11
102.703
21
-43.6503
0
LINE
8
BLACK
6
CONTINUOUS
10
102.703
20
-43.6503
11
102.757
21
-43.5692
0
LINE
8
BLACK
6
CONTINUOUS
10
102.757
20
-43.5692
11
102.838
21
-43.515
0
LINE
8
BLACK
6
CONTINUOUS
10
102.838
20
-43.515
11
102.933
21
-43.496
0
LINE
8
BLACK
6
CONTINUOUS
10
102.933
20
-43.496
11
103.459
21
-43.496
0
LINE
8
BLACK
6
CONTINUOUS
10
103.459
20
-43.496
11
103.554
21
-43.515
0
LINE
8
BLACK
6
CONTINUOUS
10
136.351
20
-43.6361
11
136.424
21
-43.6849
0
LINE
8
BLACK
6
CONTINUOUS
10
136.424
20
-43.6849
11
136.473
21
-43.7579
0
LINE
8
BLACK
6
CONTINUOUS
10
136.473
20
-43.7579
11
136.49
21
-43.844
0
LINE
8
BLACK
6
CONTINUOUS
10
136.49
20
-43.844
11
136.49
21
-44.294
0
LINE
8
BLACK
6
CONTINUOUS
10
136.49
20
-44.294
11
136.473
21
-44.3801
0
LINE
8
BLACK
6
CONTINUOUS
10
136.473
20
-44.3801
11
136.424
21
-44.4531
0
LINE
8
BLACK
6
CONTINUOUS
10
136.424
20
-44.4531
11
136.351
21
-44.5019
0
LINE
8
BLACK
6
CONTINUOUS
10
136.351
20
-44.5019
11
136.265
21
-44.519
0
LINE
8
BLACK
6
CONTINUOUS
10
136.265
20
-44.519
11
135.515
21
-44.519
0
LINE
8
BLACK
6
CONTINUOUS
10
135.515
20
-44.519
11
135.429
21
-44.5019
0
LINE
8
BLACK
6
CONTINUOUS
10
135.429
20
-44.5019
11
135.356
21
-44.4531
0
LINE
8
BLACK
6
CONTINUOUS
10
135.356
20
-44.4531
11
135.307
21
-44.3801
0
LINE
8
BLACK
6
CONTINUOUS
10
135.307
20
-44.3801
11
135.29
21
-44.294
0
LINE
8
BLACK
6
CONTINUOUS
10
135.29
20
-44.294
11
135.29
21
-43.844
0
LINE
8
BLACK
6
CONTINUOUS
10
135.29
20
-43.844
11
135.307
21
-43.7579
0
LINE
8
BLACK
6
CONTINUOUS
10
135.307
20
-43.7579
11
135.356
21
-43.6849
0
LINE
8
BLACK
6
CONTINUOUS
10
135.356
20
-43.6849
11
135.429
21
-43.6361
0
LINE
8
BLACK
6
CONTINUOUS
10
135.429
20
-43.6361
11
135.515
21
-43.619
0
LINE
8
BLACK
6
CONTINUOUS
10
135.515
20
-43.619
11
136.265
21
-43.619
0
LINE
8
BLACK
6
CONTINUOUS
10
136.265
20
-43.619
11
136.351
21
-43.6361
0
LINE
8
BLACK
6
CONTINUOUS
10
174.451
20
-43.6361
11
174.524
21
-43.6849
0
LINE
8
BLACK
6
CONTINUOUS
10
174.524
20
-43.6849
11
174.573
21
-43.7579
0
LINE
8
BLACK
6
CONTINUOUS
10
174.573
20
-43.7579
11
174.59
21
-43.844
0
LINE
8
BLACK
6
CONTINUOUS
10
174.59
20
-43.844
11
174.59
21
-44.294
0
LINE
8
BLACK
6
CONTINUOUS
10
174.59
20
-44.294
11
174.573
21
-44.3801
0
LINE
8
BLACK
6
CONTINUOUS
10
174.573
20
-44.3801
11
174.524
21
-44.4531
0
LINE
8
BLACK
6
CONTINUOUS
10
174.524
20
-44.4531
11
174.451
21
-44.5019
0
LINE
8
BLACK
6
CONTINUOUS
10
174.451
20
-44.5019
11
174.365
21
-44.519
0
LINE
8
BLACK
6
CONTINUOUS
10
174.365
20
-44.519
11
173.615
21
-44.519
0
LINE
8
BLACK
6
CONTINUOUS
10
173.615
20
-44.519
11
173.529
21
-44.5019
0
LINE
8
BLACK
6
CONTINUOUS
10
173.529
20
-44.5019
11
173.456
21
-44.4531
0
LINE
8
BLACK
6
CONTINUOUS
10
173.456
20
-44.4531
11
173.407
21
-44.3801
0
LINE
8
BLACK
6
CONTINUOUS
10
173.407
20
-44.3801
11
173.39
21
-44.294
0
LINE
8
BLACK
6
CONTINUOUS
10
173.39
20
-44.294
11
173.39
21
-43.844
0
LINE
8
BLACK
6
CONTINUOUS
10
173.39
20
-43.844
11
173.407
21
-43.7579
0
LINE
8
BLACK
6
CONTINUOUS
10
173.407
20
-43.7579
11
173.456
21
-43.6849
0
LINE
8
BLACK
6
CONTINUOUS
10
173.456
20
-43.6849
11
173.529
21
-43.6361
0
LINE
8
BLACK
6
CONTINUOUS
10
173.529
20
-43.6361
11
173.615
21
-43.619
0
LINE
8
BLACK
6
CONTINUOUS
10
173.615
20
-43.619
11
174.365
21
-43.619
0
LINE
8
BLACK
6
CONTINUOUS
10
174.365
20
-43.619
11
174.451
21
-43.6361
0
LINE
8
BLACK
6
CONTINUOUS
10
98.1747
20
-41.458
11
98.2558
21
-41.5122
0
LINE
8
BLACK
6
CONTINUOUS
10
98.2558
20
-41.5122
11
98.31
21
-41.5933
0
LINE
8
BLACK
6
CONTINUOUS
10
98.31
20
-41.5933
11
98.329
21
-41.689
0
LINE
8
BLACK
6
CONTINUOUS
10
98.329
20
-41.689
11
98.329
21
-42.639
0
LINE
8
BLACK
6
CONTINUOUS
10
98.329
20
-42.639
11
98.31
21
-42.7347
0
LINE
8
BLACK
6
CONTINUOUS
10
98.31
20
-42.7347
11
98.2558
21
-42.8158
0
LINE
8
BLACK
6
CONTINUOUS
10
98.2558
20
-42.8158
11
98.1747
21
-42.87
0
LINE
8
BLACK
6
CONTINUOUS
10
98.1747
20
-42.87
11
98.079
21
-42.889
0
LINE
8
BLACK
6
CONTINUOUS
10
98.079
20
-42.889
11
97.579
21
-42.889
0
LINE
8
BLACK
6
CONTINUOUS
10
97.579
20
-42.889
11
97.4833
21
-42.87
0
LINE
8
BLACK
6
CONTINUOUS
10
97.4833
20
-42.87
11
97.4022
21
-42.8158
0
LINE
8
BLACK
6
CONTINUOUS
10
97.4022
20
-42.8158
11
97.348
21
-42.7347
0
LINE
8
BLACK
6
CONTINUOUS
10
97.348
20
-42.7347
11
97.329
21
-42.639
0
LINE
8
BLACK
6
CONTINUOUS
10
97.329
20
-42.639
11
97.329
21
-41.689
0
LINE
8
BLACK
6
CONTINUOUS
10
97.329
20
-41.689
11
97.348
21
-41.5933
0
LINE
8
BLACK
6
CONTINUOUS
10
97.348
20
-41.5933
11
97.4022
21
-41.5122
0
LINE
8
BLACK
6
CONTINUOUS
10
97.4022
20
-41.5122
11
97.4833
21
-41.458
0
LINE
8
BLACK
6
CONTINUOUS
10
97.4833
20
-41.458
11
97.579
21
-41.439
0
LINE
8
BLACK
6
CONTINUOUS
10
97.579
20
-41.439
11
98.079
21
-41.439
0
LINE
8
BLACK
6
CONTINUOUS
10
98.079
20
-41.439
11
98.1747
21
-41.458
0
LINE
8
BLACK
6
CONTINUOUS
10
100.075
20
-41.458
11
100.156
21
-41.5122
0
LINE
8
BLACK
6
CONTINUOUS
10
100.156
20
-41.5122
11
100.21
21
-41.5933
0
LINE
8
BLACK
6
CONTINUOUS
10
100.21
20
-41.5933
11
100.229
21
-41.689
0
LINE
8
BLACK
6
CONTINUOUS
10
100.229
20
-41.689
11
100.229
21
-42.639
0
LINE
8
BLACK
6
CONTINUOUS
10
100.229
20
-42.639
11
100.21
21
-42.7347
0
LINE
8
BLACK
6
CONTINUOUS
10
100.21
20
-42.7347
11
100.156
21
-42.8158
0
LINE
8
BLACK
6
CONTINUOUS
10
100.156
20
-42.8158
11
100.075
21
-42.87
0
LINE
8
BLACK
6
CONTINUOUS
10
100.075
20
-42.87
11
99.979
21
-42.889
0
LINE
8
BLACK
6
CONTINUOUS
10
99.979
20
-42.889
11
99.479
21
-42.889
0
LINE
8
BLACK
6
CONTINUOUS
10
99.479
20
-42.889
11
99.3833
21
-42.87
0
LINE
8
BLACK
6
CONTINUOUS
10
99.3833
20
-42.87
11
99.3022
21
-42.8158
0
LINE
8
BLACK
6
CONTINUOUS
10
99.3022
20
-42.8158
11
99.248
21
-42.7347
0
LINE
8
BLACK
6
CONTINUOUS
10
99.248
20
-42.7347
11
99.229
21
-42.639
0
LINE
8
BLACK
6
CONTINUOUS
10
99.229
20
-42.639
11
99.229
21
-41.689
0
LINE
8
BLACK
6
CONTINUOUS
10
99.229
20
-41.689
11
99.248
21
-41.5933
0
LINE
8
BLACK
6
CONTINUOUS
10
99.248
20
-41.5933
11
99.3022
21
-41.5122
0
LINE
8
BLACK
6
CONTINUOUS
10
99.3022
20
-41.5122
11
99.3833
21
-41.458
0
LINE
8
BLACK
6
CONTINUOUS
10
99.3833
20
-41.458
11
99.479
21
-41.439
0
LINE
8
BLACK
6
CONTINUOUS
10
99.479
20
-41.439
11
99.979
21
-41.439
0
LINE
8
BLACK
6
CONTINUOUS
10
99.979
20
-41.439
11
100.075
21
-41.458
0
LINE
8
BLACK
6
CONTINUOUS
10
101.632
20
-41.483
11
101.713
21
-41.5372
0
LINE
8
BLACK
6
CONTINUOUS
10
101.713
20
-41.5372
11
101.767
21
-41.6183
0
LINE
8
BLACK
6
CONTINUOUS
10
101.767
20
-41.6183
11
101.786
21
-41.714
0
LINE
8
BLACK
6
CONTINUOUS
10
101.786
20
-41.714
11
101.786
21
-42.614
0
LINE
8
BLACK
6
CONTINUOUS
10
101.786
20
-42.614
11
101.767
21
-42.7097
0
LINE
8
BLACK
6
CONTINUOUS
10
101.767
20
-42.7097
11
101.713
21
-42.7908
0
LINE
8
BLACK
6
CONTINUOUS
10
101.713
20
-42.7908
11
101.632
21
-42.845
0
LINE
8
BLACK
6
CONTINUOUS
10
101.632
20
-42.845
11
101.536
21
-42.864
0
LINE
8
BLACK
6
CONTINUOUS
10
101.536
20
-42.864
11
101.011
21
-42.864
0
LINE
8
BLACK
6
CONTINUOUS
10
101.011
20
-42.864
11
100.916
21
-42.845
0
LINE
8
BLACK
6
CONTINUOUS
10
100.916
20
-42.845
11
100.835
21
-42.7908
0
LINE
8
BLACK
6
CONTINUOUS
10
100.835
20
-42.7908
11
100.781
21
-42.7097
0
LINE
8
BLACK
6
CONTINUOUS
10
100.781
20
-42.7097
11
100.761
21
-42.614
0
LINE
8
BLACK
6
CONTINUOUS
10
100.761
20
-42.614
11
100.761
21
-41.714
0
LINE
8
BLACK
6
CONTINUOUS
10
100.761
20
-41.714
11
100.781
21
-41.6183
0
LINE
8
BLACK
6
CONTINUOUS
10
100.781
20
-41.6183
11
100.835
21
-41.5372
0
LINE
8
BLACK
6
CONTINUOUS
10
100.835
20
-41.5372
11
100.916
21
-41.483
0
LINE
8
BLACK
6
CONTINUOUS
10
100.916
20
-41.483
11
101.011
21
-41.464
0
LINE
8
BLACK
6
CONTINUOUS
10
101.011
20
-41.464
11
101.536
21
-41.464
0
LINE
8
BLACK
6
CONTINUOUS
10
101.536
20
-41.464
11
101.632
21
-41.483
0
LINE
8
BLACK
6
CONTINUOUS
10
103.457
20
-41.483
11
103.538
21
-41.5372
0
LINE
8
BLACK
6
CONTINUOUS
10
103.538
20
-41.5372
11
103.592
21
-41.6183
0
LINE
8
BLACK
6
CONTINUOUS
10
103.592
20
-41.6183
11
103.611
21
-41.714
0
LINE
8
BLACK
6
CONTINUOUS
10
103.611
20
-41.714
11
103.611
21
-42.614
0
LINE
8
BLACK
6
CONTINUOUS
10
103.611
20
-42.614
11
103.592
21
-42.7097
0
LINE
8
BLACK
6
CONTINUOUS
10
103.592
20
-42.7097
11
103.538
21
-42.7908
0
LINE
8
BLACK
6
CONTINUOUS
10
103.538
20
-42.7908
11
103.457
21
-42.845
0
LINE
8
BLACK
6
CONTINUOUS
10
103.457
20
-42.845
11
103.361
21
-42.864
0
LINE
8
BLACK
6
CONTINUOUS
10
103.361
20
-42.864
11
102.837
21
-42.864
0
LINE
8
BLACK
6
CONTINUOUS
10
102.837
20
-42.864
11
102.741
21
-42.845
0
LINE
8
BLACK
6
CONTINUOUS
10
102.741
20
-42.845
11
102.66
21
-42.7908
0
LINE
8
BLACK
6
CONTINUOUS
10
102.66
20
-42.7908
11
102.606
21
-42.7097
0
LINE
8
BLACK
6
CONTINUOUS
10
102.606
20
-42.7097
11
102.587
21
-42.614
0
LINE
8
BLACK
6
CONTINUOUS
10
102.587
20
-42.614
11
102.587
21
-41.714
0
LINE
8
BLACK
6
CONTINUOUS
10
102.587
20
-41.714
11
102.606
21
-41.6183
0
LINE
8
BLACK
6
CONTINUOUS
10
102.606
20
-41.6183
11
102.66
21
-41.5372
0
LINE
8
BLACK
6
CONTINUOUS
10
102.66
20
-41.5372
11
102.741
21
-41.483
0
LINE
8
BLACK
6
CONTINUOUS
10
102.741
20
-41.483
11
102.837
21
-41.464
0
LINE
8
BLACK
6
CONTINUOUS
10
102.837
20
-41.464
11
103.361
21
-41.464
0
LINE
8
BLACK
6
CONTINUOUS
10
103.361
20
-41.464
11
103.457
21
-41.483
0
LINE
8
BLACK
6
CONTINUOUS
10
105.676
20
-42.664
11
104.676
21
-42.664
0
LINE
8
BLACK
6
CONTINUOUS
10
104.676
20
-42.664
11
104.676
21
-41.664
0
LINE
8
BLACK
6
CONTINUOUS
10
104.676
20
-41.664
11
105.676
21
-41.664
0
LINE
8
BLACK
6
CONTINUOUS
10
105.676
20
-41.664
11
105.676
21
-42.664
0
LINE
8
BLACK
6
CONTINUOUS
10
108.176
20
-42.664
11
107.176
21
-42.664
0
LINE
8
BLACK
6
CONTINUOUS
10
107.176
20
-42.664
11
107.176
21
-41.664
0
LINE
8
BLACK
6
CONTINUOUS
10
107.176
20
-41.664
11
108.176
21
-41.664
0
LINE
8
BLACK
6
CONTINUOUS
10
108.176
20
-41.664
11
108.176
21
-42.664
0
LINE
8
BLACK
6
CONTINUOUS
10
132.212
20
-41.5725
11
129.862
21
-41.5725
0
LINE
8
BLACK
6
CONTINUOUS
10
129.862
20
-41.5725
11
129.862
21
-39.0725
0
LINE
8
BLACK
6
CONTINUOUS
10
129.862
20
-39.0725
11
132.212
21
-39.0725
0
LINE
8
BLACK
6
CONTINUOUS
10
132.212
20
-39.0725
11
132.212
21
-41.5725
0
LINE
8
BLACK
6
CONTINUOUS
10
136.351
20
-40.3351
11
136.424
21
-40.3839
0
LINE
8
BLACK
6
CONTINUOUS
10
136.424
20
-40.3839
11
136.473
21
-40.4569
0
LINE
8
BLACK
6
CONTINUOUS
10
136.473
20
-40.4569
11
136.49
21
-40.543
0
LINE
8
BLACK
6
CONTINUOUS
10
136.49
20
-40.543
11
136.49
21
-40.993
0
LINE
8
BLACK
6
CONTINUOUS
10
136.49
20
-40.993
11
136.473
21
-41.0791
0
LINE
8
BLACK
6
CONTINUOUS
10
136.473
20
-41.0791
11
136.424
21
-41.1521
0
LINE
8
BLACK
6
CONTINUOUS
10
136.424
20
-41.1521
11
136.351
21
-41.2009
0
LINE
8
BLACK
6
CONTINUOUS
10
136.351
20
-41.2009
11
136.265
21
-41.218
0
LINE
8
BLACK
6
CONTINUOUS
10
136.265
20
-41.218
11
135.515
21
-41.218
0
LINE
8
BLACK
6
CONTINUOUS
10
135.515
20
-41.218
11
135.429
21
-41.2009
0
LINE
8
BLACK
6
CONTINUOUS
10
135.429
20
-41.2009
11
135.356
21
-41.1521
0
LINE
8
BLACK
6
CONTINUOUS
10
135.356
20
-41.1521
11
135.307
21
-41.0791
0
LINE
8
BLACK
6
CONTINUOUS
10
135.307
20
-41.0791
11
135.29
21
-40.993
0
LINE
8
BLACK
6
CONTINUOUS
10
135.29
20
-40.993
11
135.29
21
-40.543
0
LINE
8
BLACK
6
CONTINUOUS
10
135.29
20
-40.543
11
135.307
21
-40.4569
0
LINE
8
BLACK
6
CONTINUOUS
10
135.307
20
-40.4569
11
135.356
21
-40.3839
0
LINE
8
BLACK
6
CONTINUOUS
10
135.356
20
-40.3839
11
135.429
21
-40.3351
0
LINE
8
BLACK
6
CONTINUOUS
10
135.429
20
-40.3351
11
135.515
21
-40.318
0
LINE
8
BLACK
6
CONTINUOUS
10
135.515
20
-40.318
11
136.265
21
-40.318
0
LINE
8
BLACK
6
CONTINUOUS
10
136.265
20
-40.318
11
136.351
21
-40.3351
0
LINE
8
BLACK
6
CONTINUOUS
10
174.451
20
-40.3351
11
174.524
21
-40.3839
0
LINE
8
BLACK
6
CONTINUOUS
10
174.524
20
-40.3839
11
174.573
21
-40.4569
0
LINE
8
BLACK
6
CONTINUOUS
10
174.573
20
-40.4569
11
174.59
21
-40.543
0
LINE
8
BLACK
6
CONTINUOUS
10
174.59
20
-40.543
11
174.59
21
-40.993
0
LINE
8
BLACK
6
CONTINUOUS
10
174.59
20
-40.993
11
174.573
21
-41.0791
0
LINE
8
BLACK
6
CONTINUOUS
10
174.573
20
-41.0791
11
174.524
21
-41.1521
0
LINE
8
BLACK
6
CONTINUOUS
10
174.524
20
-41.1521
11
174.451
21
-41.2009
0
LINE
8
BLACK
6
CONTINUOUS
10
174.451
20
-41.2009
11
174.365
21
-41.218
0
LINE
8
BLACK
6
CONTINUOUS
10
174.365
20
-41.218
11
173.615
21
-41.218
0
LINE
8
BLACK
6
CONTINUOUS
10
173.615
20
-41.218
11
173.529
21
-41.2009
0
LINE
8
BLACK
6
CONTINUOUS
10
173.529
20
-41.2009
11
173.456
21
-41.1521
0
LINE
8
BLACK
6
CONTINUOUS
10
173.456
20
-41.1521
11
173.407
21
-41.0791
0
LINE
8
BLACK
6
CONTINUOUS
10
173.407
20
-41.0791
11
173.39
21
-40.993
0
LINE
8
BLACK
6
CONTINUOUS
10
173.39
20
-40.993
11
173.39
21
-40.543
0
LINE
8
BLACK
6
CONTINUOUS
10
173.39
20
-40.543
11
173.407
21
-40.4569
0
LINE
8
BLACK
6
CONTINUOUS
10
173.407
20
-40.4569
11
173.456
21
-40.3839
0
LINE
8
BLACK
6
CONTINUOUS
10
173.456
20
-40.3839
11
173.529
21
-40.3351
0
LINE
8
BLACK
6
CONTINUOUS
10
173.529
20
-40.3351
11
173.615
21
-40.318
0
LINE
8
BLACK
6
CONTINUOUS
10
173.615
20
-40.318
11
174.365
21
-40.318
0
LINE
8
BLACK
6
CONTINUOUS
10
174.365
20
-40.318
11
174.451
21
-40.3351
0
LINE
8
BLACK
6
CONTINUOUS
10
98.0634
20
-39.6024
11
98.1121
21
-39.6349
0
LINE
8
BLACK
6
CONTINUOUS
10
98.1121
20
-39.6349
11
98.1446
21
-39.6836
0
LINE
8
BLACK
6
CONTINUOUS
10
98.1446
20
-39.6836
11
98.156
21
-39.741
0
LINE
8
BLACK
6
CONTINUOUS
10
98.156
20
-39.741
11
98.156
21
-40.766
0
LINE
8
BLACK
6
CONTINUOUS
10
98.156
20
-40.766
11
98.1446
21
-40.8234
0
LINE
8
BLACK
6
CONTINUOUS
10
98.1446
20
-40.8234
11
98.1121
21
-40.8721
0
LINE
8
BLACK
6
CONTINUOUS
10
98.1121
20
-40.8721
11
98.0634
21
-40.9046
0
LINE
8
BLACK
6
CONTINUOUS
10
98.0634
20
-40.9046
11
98.006
21
-40.916
0
LINE
8
BLACK
6
CONTINUOUS
10
98.006
20
-40.916
11
97.706
21
-40.916
0
LINE
8
BLACK
6
CONTINUOUS
10
97.706
20
-40.916
11
97.6486
21
-40.9046
0
LINE
8
BLACK
6
CONTINUOUS
10
97.6486
20
-40.9046
11
97.5999
21
-40.8721
0
LINE
8
BLACK
6
CONTINUOUS
10
97.5999
20
-40.8721
11
97.5674
21
-40.8234
0
LINE
8
BLACK
6
CONTINUOUS
10
97.5674
20
-40.8234
11
97.556
21
-40.766
0
LINE
8
BLACK
6
CONTINUOUS
10
97.556
20
-40.766
11
97.556
21
-39.741
0
LINE
8
BLACK
6
CONTINUOUS
10
97.556
20
-39.741
11
97.5674
21
-39.6836
0
LINE
8
BLACK
6
CONTINUOUS
10
97.5674
20
-39.6836
11
97.5999
21
-39.6349
0
LINE
8
BLACK
6
CONTINUOUS
10
97.5999
20
-39.6349
11
97.6486
21
-39.6024
0
LINE
8
BLACK
6
CONTINUOUS
10
97.6486
20
-39.6024
11
97.706
21
-39.591
0
LINE
8
BLACK
6
CONTINUOUS
10
97.706
20
-39.591
11
98.006
21
-39.591
0
LINE
8
BLACK
6
CONTINUOUS
10
98.006
20
-39.591
11
98.0634
21
-39.6024
0
LINE
8
BLACK
6
CONTINUOUS
10
99.0134
20
-39.6024
11
99.0621
21
-39.6349
0
LINE
8
BLACK
6
CONTINUOUS
10
99.0621
20
-39.6349
11
99.0946
21
-39.6836
0
LINE
8
BLACK
6
CONTINUOUS
10
99.0946
20
-39.6836
11
99.106
21
-39.741
0
LINE
8
BLACK
6
CONTINUOUS
10
99.106
20
-39.741
11
99.106
21
-40.766
0
LINE
8
BLACK
6
CONTINUOUS
10
99.106
20
-40.766
11
99.0946
21
-40.8234
0
LINE
8
BLACK
6
CONTINUOUS
10
99.0946
20
-40.8234
11
99.0621
21
-40.8721
0
LINE
8
BLACK
6
CONTINUOUS
10
99.0621
20
-40.8721
11
99.0134
21
-40.9046
0
LINE
8
BLACK
6
CONTINUOUS
10
99.0134
20
-40.9046
11
98.956
21
-40.916
0
LINE
8
BLACK
6
CONTINUOUS
10
98.956
20
-40.916
11
98.656
21
-40.916
0
LINE
8
BLACK
6
CONTINUOUS
10
98.656
20
-40.916
11
98.5986
21
-40.9046
0
LINE
8
BLACK
6
CONTINUOUS
10
98.5986
20
-40.9046
11
98.5499
21
-40.8721
0
LINE
8
BLACK
6
CONTINUOUS
10
98.5499
20
-40.8721
11
98.5174
21
-40.8234
0
LINE
8
BLACK
6
CONTINUOUS
10
98.5174
20
-40.8234
11
98.506
21
-40.766
0
LINE
8
BLACK
6
CONTINUOUS
10
98.506
20
-40.766
11
98.506
21
-39.741
0
LINE
8
BLACK
6
CONTINUOUS
10
98.506
20
-39.741
11
98.5174
21
-39.6836
0
LINE
8
BLACK
6
CONTINUOUS
10
98.5174
20
-39.6836
11
98.5499
21
-39.6349
0
LINE
8
BLACK
6
CONTINUOUS
10
98.5499
20
-39.6349
11
98.5986
21
-39.6024
0
LINE
8
BLACK
6
CONTINUOUS
10
98.5986
20
-39.6024
11
98.656
21
-39.591
0
LINE
8
BLACK
6
CONTINUOUS
10
98.656
20
-39.591
11
98.956
21
-39.591
0
LINE
8
BLACK
6
CONTINUOUS
10
98.956
20
-39.591
11
99.0134
21
-39.6024
0
LINE
8
BLACK
6
CONTINUOUS
10
99.9634
20
-39.6024
11
100.012
21
-39.6349
0
LINE
8
BLACK
6
CONTINUOUS
10
100.012
20
-39.6349
11
100.045
21
-39.6836
0
LINE
8
BLACK
6
CONTINUOUS
10
100.045
20
-39.6836
11
100.056
21
-39.741
0
LINE
8
BLACK
6
CONTINUOUS
10
100.056
20
-39.741
11
100.056
21
-40.766
0
LINE
8
BLACK
6
CONTINUOUS
10
100.056
20
-40.766
11
100.045
21
-40.8234
0
LINE
8
BLACK
6
CONTINUOUS
10
100.045
20
-40.8234
11
100.012
21
-40.8721
0
LINE
8
BLACK
6
CONTINUOUS
10
100.012
20
-40.8721
11
99.9634
21
-40.9046
0
LINE
8
BLACK
6
CONTINUOUS
10
99.9634
20
-40.9046
11
99.906
21
-40.916
0
LINE
8
BLACK
6
CONTINUOUS
10
99.906
20
-40.916
11
99.606
21
-40.916
0
LINE
8
BLACK
6
CONTINUOUS
10
99.606
20
-40.916
11
99.5486
21
-40.9046
0
LINE
8
BLACK
6
CONTINUOUS
10
99.5486
20
-40.9046
11
99.4999
21
-40.8721
0
LINE
8
BLACK
6
CONTINUOUS
10
99.4999
20
-40.8721
11
99.4674
21
-40.8234
0
LINE
8
BLACK
6
CONTINUOUS
10
99.4674
20
-40.8234
11
99.456
21
-40.766
0
LINE
8
BLACK
6
CONTINUOUS
10
99.456
20
-40.766
11
99.456
21
-39.741
0
LINE
8
BLACK
6
CONTINUOUS
10
99.456
20
-39.741
11
99.4674
21
-39.6836
0
LINE
8
BLACK
6
CONTINUOUS
10
99.4674
20
-39.6836
11
99.4999
21
-39.6349
0
LINE
8
BLACK
6
CONTINUOUS
10
99.4999
20
-39.6349
11
99.5486
21
-39.6024
0
LINE
8
BLACK
6
CONTINUOUS
10
99.5486
20
-39.6024
11
99.606
21
-39.591
0
LINE
8
BLACK
6
CONTINUOUS
10
99.606
20
-39.591
11
99.906
21
-39.591
0
LINE
8
BLACK
6
CONTINUOUS
10
99.906
20
-39.591
11
99.9634
21
-39.6024
0
LINE
8
BLACK
6
CONTINUOUS
10
104.198
20
-39.7774
11
104.247
21
-39.8099
0
LINE
8
BLACK
6
CONTINUOUS
10
104.247
20
-39.8099
11
104.28
21
-39.8586
0
LINE
8
BLACK
6
CONTINUOUS
10
104.28
20
-39.8586
11
104.291
21
-39.916
0
LINE
8
BLACK
6
CONTINUOUS
10
104.291
20
-39.916
11
104.291
21
-40.216
0
LINE
8
BLACK
6
CONTINUOUS
10
104.291
20
-40.216
11
104.28
21
-40.2734
0
LINE
8
BLACK
6
CONTINUOUS
10
104.28
20
-40.2734
11
104.247
21
-40.3221
0
LINE
8
BLACK
6
CONTINUOUS
10
104.247
20
-40.3221
11
104.198
21
-40.3546
0
LINE
8
BLACK
6
CONTINUOUS
10
104.198
20
-40.3546
11
104.141
21
-40.366
0
LINE
8
BLACK
6
CONTINUOUS
10
104.141
20
-40.366
11
102.966
21
-40.366
0
LINE
8
BLACK
6
CONTINUOUS
10
102.966
20
-40.366
11
102.909
21
-40.3546
0
LINE
8
BLACK
6
CONTINUOUS
10
102.909
20
-40.3546
11
102.86
21
-40.3221
0
LINE
8
BLACK
6
CONTINUOUS
10
102.86
20
-40.3221
11
102.827
21
-40.2734
0
LINE
8
BLACK
6
CONTINUOUS
10
102.827
20
-40.2734
11
102.816
21
-40.216
0
LINE
8
BLACK
6
CONTINUOUS
10
102.816
20
-40.216
11
102.816
21
-39.916
0
LINE
8
BLACK
6
CONTINUOUS
10
102.816
20
-39.916
11
102.827
21
-39.8586
0
LINE
8
BLACK
6
CONTINUOUS
10
102.827
20
-39.8586
11
102.86
21
-39.8099
0
LINE
8
BLACK
6
CONTINUOUS
10
102.86
20
-39.8099
11
102.909
21
-39.7774
0
LINE
8
BLACK
6
CONTINUOUS
10
102.909
20
-39.7774
11
102.966
21
-39.766
0
LINE
8
BLACK
6
CONTINUOUS
10
102.966
20
-39.766
11
104.141
21
-39.766
0
LINE
8
BLACK
6
CONTINUOUS
10
104.141
20
-39.766
11
104.198
21
-39.7774
0
LINE
8
BLACK
6
CONTINUOUS
10
94.5257
20
-39.281
11
94.6068
21
-39.3352
0
LINE
8
BLACK
6
CONTINUOUS
10
94.6068
20
-39.3352
11
94.661
21
-39.4163
0
LINE
8
BLACK
6
CONTINUOUS
10
94.661
20
-39.4163
11
94.68
21
-39.512
0
LINE
8
BLACK
6
CONTINUOUS
10
94.68
20
-39.512
11
94.68
21
-40.037
0
LINE
8
BLACK
6
CONTINUOUS
10
94.68
20
-40.037
11
94.661
21
-40.1327
0
LINE
8
BLACK
6
CONTINUOUS
10
94.661
20
-40.1327
11
94.6068
21
-40.2138
0
LINE
8
BLACK
6
CONTINUOUS
10
94.6068
20
-40.2138
11
94.5257
21
-40.268
0
LINE
8
BLACK
6
CONTINUOUS
10
94.5257
20
-40.268
11
94.43
21
-40.287
0
LINE
8
BLACK
6
CONTINUOUS
10
94.43
20
-40.287
11
93.53
21
-40.287
0
LINE
8
BLACK
6
CONTINUOUS
10
93.53
20
-40.287
11
93.4343
21
-40.268
0
LINE
8
BLACK
6
CONTINUOUS
10
93.4343
20
-40.268
11
93.3532
21
-40.2138
0
LINE
8
BLACK
6
CONTINUOUS
10
93.3532
20
-40.2138
11
93.299
21
-40.1327
0
LINE
8
BLACK
6
CONTINUOUS
10
93.299
20
-40.1327
11
93.28
21
-40.037
0
LINE
8
BLACK
6
CONTINUOUS
10
93.28
20
-40.037
11
93.28
21
-39.512
0
LINE
8
BLACK
6
CONTINUOUS
10
93.28
20
-39.512
11
93.299
21
-39.4163
0
LINE
8
BLACK
6
CONTINUOUS
10
93.299
20
-39.4163
11
93.3532
21
-39.3352
0
LINE
8
BLACK
6
CONTINUOUS
10
93.3532
20
-39.3352
11
93.4343
21
-39.281
0
LINE
8
BLACK
6
CONTINUOUS
10
93.4343
20
-39.281
11
93.53
21
-39.262
0
LINE
8
BLACK
6
CONTINUOUS
10
93.53
20
-39.262
11
94.43
21
-39.262
0
LINE
8
BLACK
6
CONTINUOUS
10
94.43
20
-39.262
11
94.5257
21
-39.281
0
LINE
8
BLACK
6
CONTINUOUS
10
96.5615
20
-39.3306
11
96.6406
21
-39.3834
0
LINE
8
BLACK
6
CONTINUOUS
10
96.6406
20
-39.3834
11
96.6934
21
-39.4625
0
LINE
8
BLACK
6
CONTINUOUS
10
96.6934
20
-39.4625
11
96.712
21
-39.5557
0
LINE
8
BLACK
6
CONTINUOUS
10
96.712
20
-39.5557
11
96.712
21
-40.0433
0
LINE
8
BLACK
6
CONTINUOUS
10
96.712
20
-40.0433
11
96.6934
21
-40.1365
0
LINE
8
BLACK
6
CONTINUOUS
10
96.6934
20
-40.1365
11
96.6406
21
-40.2156
0
LINE
8
BLACK
6
CONTINUOUS
10
96.6406
20
-40.2156
11
96.5615
21
-40.2684
0
LINE
8
BLACK
6
CONTINUOUS
10
96.5615
20
-40.2684
11
96.4682
21
-40.287
0
LINE
8
BLACK
6
CONTINUOUS
10
96.4682
20
-40.287
11
95.5557
21
-40.287
0
LINE
8
BLACK
6
CONTINUOUS
10
95.5557
20
-40.287
11
95.4625
21
-40.2684
0
LINE
8
BLACK
6
CONTINUOUS
10
95.4625
20
-40.2684
11
95.3834
21
-40.2156
0
LINE
8
BLACK
6
CONTINUOUS
10
95.3834
20
-40.2156
11
95.3306
21
-40.1365
0
LINE
8
BLACK
6
CONTINUOUS
10
95.3306
20
-40.1365
11
95.312
21
-40.0433
0
LINE
8
BLACK
6
CONTINUOUS
10
95.312
20
-40.0433
11
95.312
21
-39.5557
0
LINE
8
BLACK
6
CONTINUOUS
10
95.312
20
-39.5557
11
95.3306
21
-39.4625
0
LINE
8
BLACK
6
CONTINUOUS
10
95.3306
20
-39.4625
11
95.3834
21
-39.3834
0
LINE
8
BLACK
6
CONTINUOUS
10
95.3834
20
-39.3834
11
95.4625
21
-39.3306
0
LINE
8
BLACK
6
CONTINUOUS
10
95.4625
20
-39.3306
11
95.5557
21
-39.312
0
LINE
8
BLACK
6
CONTINUOUS
10
95.5557
20
-39.312
11
96.4682
21
-39.312
0
LINE
8
BLACK
6
CONTINUOUS
10
96.4682
20
-39.312
11
96.5615
21
-39.3306
0
LINE
8
BLACK
6
CONTINUOUS
10
155.275
20
-38.9381
11
155.348
21
-38.9869
0
LINE
8
BLACK
6
CONTINUOUS
10
155.348
20
-38.9869
11
155.397
21
-39.0599
0
LINE
8
BLACK
6
CONTINUOUS
10
155.397
20
-39.0599
11
155.414
21
-39.146
0
LINE
8
BLACK
6
CONTINUOUS
10
155.414
20
-39.146
11
155.414
21
-39.596
0
LINE
8
BLACK
6
CONTINUOUS
10
155.414
20
-39.596
11
155.397
21
-39.6821
0
LINE
8
BLACK
6
CONTINUOUS
10
155.397
20
-39.6821
11
155.348
21
-39.7551
0
LINE
8
BLACK
6
CONTINUOUS
10
155.348
20
-39.7551
11
155.275
21
-39.8039
0
LINE
8
BLACK
6
CONTINUOUS
10
155.275
20
-39.8039
11
155.189
21
-39.821
0
LINE
8
BLACK
6
CONTINUOUS
10
155.189
20
-39.821
11
154.439
21
-39.821
0
LINE
8
BLACK
6
CONTINUOUS
10
154.439
20
-39.821
11
154.353
21
-39.8039
0
LINE
8
BLACK
6
CONTINUOUS
10
154.353
20
-39.8039
11
154.28
21
-39.7551
0
LINE
8
BLACK
6
CONTINUOUS
10
154.28
20
-39.7551
11
154.231
21
-39.6821
0
LINE
8
BLACK
6
CONTINUOUS
10
154.231
20
-39.6821
11
154.214
21
-39.596
0
LINE
8
BLACK
6
CONTINUOUS
10
154.214
20
-39.596
11
154.214
21
-39.146
0
LINE
8
BLACK
6
CONTINUOUS
10
154.214
20
-39.146
11
154.231
21
-39.0599
0
LINE
8
BLACK
6
CONTINUOUS
10
154.231
20
-39.0599
11
154.28
21
-38.9869
0
LINE
8
BLACK
6
CONTINUOUS
10
154.28
20
-38.9869
11
154.353
21
-38.9381
0
LINE
8
BLACK
6
CONTINUOUS
10
154.353
20
-38.9381
11
154.439
21
-38.921
0
LINE
8
BLACK
6
CONTINUOUS
10
154.439
20
-38.921
11
155.189
21
-38.921
0
LINE
8
BLACK
6
CONTINUOUS
10
155.189
20
-38.921
11
155.275
21
-38.9381
0
LINE
8
BLACK
6
CONTINUOUS
10
105.669
20
-38.156
11
105.75
21
-38.2102
0
LINE
8
BLACK
6
CONTINUOUS
10
105.75
20
-38.2102
11
105.805
21
-38.2913
0
LINE
8
BLACK
6
CONTINUOUS
10
105.805
20
-38.2913
11
105.824
21
-38.387
0
LINE
8
BLACK
6
CONTINUOUS
10
105.824
20
-38.387
11
105.824
21
-39.337
0
LINE
8
BLACK
6
CONTINUOUS
10
105.824
20
-39.337
11
105.805
21
-39.4327
0
LINE
8
BLACK
6
CONTINUOUS
10
105.805
20
-39.4327
11
105.75
21
-39.5138
0
LINE
8
BLACK
6
CONTINUOUS
10
105.75
20
-39.5138
11
105.669
21
-39.568
0
LINE
8
BLACK
6
CONTINUOUS
10
105.669
20
-39.568
11
105.574
21
-39.587
0
LINE
8
BLACK
6
CONTINUOUS
10
105.574
20
-39.587
11
105.074
21
-39.587
0
LINE
8
BLACK
6
CONTINUOUS
10
105.074
20
-39.587
11
104.978
21
-39.568
0
LINE
8
BLACK
6
CONTINUOUS
10
104.978
20
-39.568
11
104.897
21
-39.5138
0
LINE
8
BLACK
6
CONTINUOUS
10
104.897
20
-39.5138
11
104.843
21
-39.4327
0
LINE
8
BLACK
6
CONTINUOUS
10
104.843
20
-39.4327
11
104.824
21
-39.337
0
LINE
8
BLACK
6
CONTINUOUS
10
104.824
20
-39.337
11
104.824
21
-38.387
0
LINE
8
BLACK
6
CONTINUOUS
10
104.824
20
-38.387
11
104.843
21
-38.2913
0
LINE
8
BLACK
6
CONTINUOUS
10
104.843
20
-38.2913
11
104.897
21
-38.2102
0
LINE
8
BLACK
6
CONTINUOUS
10
104.897
20
-38.2102
11
104.978
21
-38.156
0
LINE
8
BLACK
6
CONTINUOUS
10
104.978
20
-38.156
11
105.074
21
-38.137
0
LINE
8
BLACK
6
CONTINUOUS
10
105.074
20
-38.137
11
105.574
21
-38.137
0
LINE
8
BLACK
6
CONTINUOUS
10
105.574
20
-38.137
11
105.669
21
-38.156
0
LINE
8
BLACK
6
CONTINUOUS
10
107.569
20
-38.156
11
107.65
21
-38.2102
0
LINE
8
BLACK
6
CONTINUOUS
10
107.65
20
-38.2102
11
107.705
21
-38.2913
0
LINE
8
BLACK
6
CONTINUOUS
10
107.705
20
-38.2913
11
107.724
21
-38.387
0
LINE
8
BLACK
6
CONTINUOUS
10
107.724
20
-38.387
11
107.724
21
-39.337
0
LINE
8
BLACK
6
CONTINUOUS
10
107.724
20
-39.337
11
107.705
21
-39.4327
0
LINE
8
BLACK
6
CONTINUOUS
10
107.705
20
-39.4327
11
107.65
21
-39.5138
0
LINE
8
BLACK
6
CONTINUOUS
10
107.65
20
-39.5138
11
107.569
21
-39.568
0
LINE
8
BLACK
6
CONTINUOUS
10
107.569
20
-39.568
11
107.474
21
-39.587
0
LINE
8
BLACK
6
CONTINUOUS
10
107.474
20
-39.587
11
106.974
21
-39.587
0
LINE
8
BLACK
6
CONTINUOUS
10
106.974
20
-39.587
11
106.878
21
-39.568
0
LINE
8
BLACK
6
CONTINUOUS
10
106.878
20
-39.568
11
106.797
21
-39.5138
0
LINE
8
BLACK
6
CONTINUOUS
10
106.797
20
-39.5138
11
106.743
21
-39.4327
0
LINE
8
BLACK
6
CONTINUOUS
10
106.743
20
-39.4327
11
106.724
21
-39.337
0
LINE
8
BLACK
6
CONTINUOUS
10
106.724
20
-39.337
11
106.724
21
-38.387
0
LINE
8
BLACK
6
CONTINUOUS
10
106.724
20
-38.387
11
106.743
21
-38.2913
0
LINE
8
BLACK
6
CONTINUOUS
10
106.743
20
-38.2913
11
106.797
21
-38.2102
0
LINE
8
BLACK
6
CONTINUOUS
10
106.797
20
-38.2102
11
106.878
21
-38.156
0
LINE
8
BLACK
6
CONTINUOUS
10
106.878
20
-38.156
11
106.974
21
-38.137
0
LINE
8
BLACK
6
CONTINUOUS
10
106.974
20
-38.137
11
107.474
21
-38.137
0
LINE
8
BLACK
6
CONTINUOUS
10
107.474
20
-38.137
11
107.569
21
-38.156
0
LINE
8
BLACK
6
CONTINUOUS
10
102.323
20
-38.8274
11
102.372
21
-38.8599
0
LINE
8
BLACK
6
CONTINUOUS
10
102.372
20
-38.8599
11
102.405
21
-38.9086
0
LINE
8
BLACK
6
CONTINUOUS
10
102.405
20
-38.9086
11
102.416
21
-38.966
0
LINE
8
BLACK
6
CONTINUOUS
10
102.416
20
-38.966
11
102.416
21
-39.266
0
LINE
8
BLACK
6
CONTINUOUS
10
102.416
20
-39.266
11
102.405
21
-39.3234
0
LINE
8
BLACK
6
CONTINUOUS
10
102.405
20
-39.3234
11
102.372
21
-39.3721
0
LINE
8
BLACK
6
CONTINUOUS
10
102.372
20
-39.3721
11
102.323
21
-39.4046
0
LINE
8
BLACK
6
CONTINUOUS
10
102.323
20
-39.4046
11
102.266
21
-39.416
0
LINE
8
BLACK
6
CONTINUOUS
10
102.266
20
-39.416
11
101.091
21
-39.416
0
LINE
8
BLACK
6
CONTINUOUS
10
101.091
20
-39.416
11
101.034
21
-39.4046
0
LINE
8
BLACK
6
CONTINUOUS
10
101.034
20
-39.4046
11
100.985
21
-39.3721
0
LINE
8
BLACK
6
CONTINUOUS
10
100.985
20
-39.3721
11
100.952
21
-39.3234
0
LINE
8
BLACK
6
CONTINUOUS
10
100.952
20
-39.3234
11
100.941
21
-39.266
0
LINE
8
BLACK
6
CONTINUOUS
10
100.941
20
-39.266
11
100.941
21
-38.966
0
LINE
8
BLACK
6
CONTINUOUS
10
100.941
20
-38.966
11
100.952
21
-38.9086
0
LINE
8
BLACK
6
CONTINUOUS
10
100.952
20
-38.9086
11
100.985
21
-38.8599
0
LINE
8
BLACK
6
CONTINUOUS
10
100.985
20
-38.8599
11
101.034
21
-38.8274
0
LINE
8
BLACK
6
CONTINUOUS
10
101.034
20
-38.8274
11
101.091
21
-38.816
0
LINE
8
BLACK
6
CONTINUOUS
10
101.091
20
-38.816
11
102.266
21
-38.816
0
LINE
8
BLACK
6
CONTINUOUS
10
102.266
20
-38.816
11
102.323
21
-38.8274
0
LINE
8
BLACK
6
CONTINUOUS
10
118.501
20
-39.0452
11
116.351
21
-39.0452
0
LINE
8
BLACK
6
CONTINUOUS
10
116.351
20
-39.0452
11
116.351
21
-36.5452
0
LINE
8
BLACK
6
CONTINUOUS
10
116.351
20
-36.5452
11
118.501
21
-36.5452
0
LINE
8
BLACK
6
CONTINUOUS
10
118.501
20
-36.5452
11
118.501
21
-39.0452
0
LINE
8
BLACK
6
CONTINUOUS
10
98.0634
20
-37.3274
11
98.1121
21
-37.3599
0
LINE
8
BLACK
6
CONTINUOUS
10
98.1121
20
-37.3599
11
98.1446
21
-37.4086
0
LINE
8
BLACK
6
CONTINUOUS
10
98.1446
20
-37.4086
11
98.156
21
-37.466
0
LINE
8
BLACK
6
CONTINUOUS
10
98.156
20
-37.466
11
98.156
21
-38.491
0
LINE
8
BLACK
6
CONTINUOUS
10
98.156
20
-38.491
11
98.1446
21
-38.5484
0
LINE
8
BLACK
6
CONTINUOUS
10
98.1446
20
-38.5484
11
98.1121
21
-38.5971
0
LINE
8
BLACK
6
CONTINUOUS
10
98.1121
20
-38.5971
11
98.0634
21
-38.6296
0
LINE
8
BLACK
6
CONTINUOUS
10
98.0634
20
-38.6296
11
98.006
21
-38.641
0
LINE
8
BLACK
6
CONTINUOUS
10
98.006
20
-38.641
11
97.706
21
-38.641
0
LINE
8
BLACK
6
CONTINUOUS
10
97.706
20
-38.641
11
97.6486
21
-38.6296
0
LINE
8
BLACK
6
CONTINUOUS
10
97.6486
20
-38.6296
11
97.5999
21
-38.5971
0
LINE
8
BLACK
6
CONTINUOUS
10
97.5999
20
-38.5971
11
97.5674
21
-38.5484
0
LINE
8
BLACK
6
CONTINUOUS
10
97.5674
20
-38.5484
11
97.556
21
-38.491
0
LINE
8
BLACK
6
CONTINUOUS
10
97.556
20
-38.491
11
97.556
21
-37.466
0
LINE
8
BLACK
6
CONTINUOUS
10
97.556
20
-37.466
11
97.5674
21
-37.4086
0
LINE
8
BLACK
6
CONTINUOUS
10
97.5674
20
-37.4086
11
97.5999
21
-37.3599
0
LINE
8
BLACK
6
CONTINUOUS
10
97.5999
20
-37.3599
11
97.6486
21
-37.3274
0
LINE
8
BLACK
6
CONTINUOUS
10
97.6486
20
-37.3274
11
97.706
21
-37.316
0
LINE
8
BLACK
6
CONTINUOUS
10
97.706
20
-37.316
11
98.006
21
-37.316
0
LINE
8
BLACK
6
CONTINUOUS
10
98.006
20
-37.316
11
98.0634
21
-37.3274
0
LINE
8
BLACK
6
CONTINUOUS
10
99.9634
20
-37.3274
11
100.012
21
-37.3599
0
LINE
8
BLACK
6
CONTINUOUS
10
100.012
20
-37.3599
11
100.045
21
-37.4086
0
LINE
8
BLACK
6
CONTINUOUS
10
100.045
20
-37.4086
11
100.056
21
-37.466
0
LINE
8
BLACK
6
CONTINUOUS
10
100.056
20
-37.466
11
100.056
21
-38.491
0
LINE
8
BLACK
6
CONTINUOUS
10
100.056
20
-38.491
11
100.045
21
-38.5484
0
LINE
8
BLACK
6
CONTINUOUS
10
100.045
20
-38.5484
11
100.012
21
-38.5971
0
LINE
8
BLACK
6
CONTINUOUS
10
100.012
20
-38.5971
11
99.9634
21
-38.6296
0
LINE
8
BLACK
6
CONTINUOUS
10
99.9634
20
-38.6296
11
99.906
21
-38.641
0
LINE
8
BLACK
6
CONTINUOUS
10
99.906
20
-38.641
11
99.606
21
-38.641
0
LINE
8
BLACK
6
CONTINUOUS
10
99.606
20
-38.641
11
99.5486
21
-38.6296
0
LINE
8
BLACK
6
CONTINUOUS
10
99.5486
20
-38.6296
11
99.4999
21
-38.5971
0
LINE
8
BLACK
6
CONTINUOUS
10
99.4999
20
-38.5971
11
99.4674
21
-38.5484
0
LINE
8
BLACK
6
CONTINUOUS
10
99.4674
20
-38.5484
11
99.456
21
-38.491
0
LINE
8
BLACK
6
CONTINUOUS
10
99.456
20
-38.491
11
99.456
21
-37.466
0
LINE
8
BLACK
6
CONTINUOUS
10
99.456
20
-37.466
11
99.4674
21
-37.4086
0
LINE
8
BLACK
6
CONTINUOUS
10
99.4674
20
-37.4086
11
99.4999
21
-37.3599
0
LINE
8
BLACK
6
CONTINUOUS
10
99.4999
20
-37.3599
11
99.5486
21
-37.3274
0
LINE
8
BLACK
6
CONTINUOUS
10
99.5486
20
-37.3274
11
99.606
21
-37.316
0
LINE
8
BLACK
6
CONTINUOUS
10
99.606
20
-37.316
11
99.906
21
-37.316
0
LINE
8
BLACK
6
CONTINUOUS
10
99.906
20
-37.316
11
99.9634
21
-37.3274
0
LINE
8
BLACK
6
CONTINUOUS
10
104.198
20
-37.8774
11
104.247
21
-37.9099
0
LINE
8
BLACK
6
CONTINUOUS
10
104.247
20
-37.9099
11
104.28
21
-37.9586
0
LINE
8
BLACK
6
CONTINUOUS
10
104.28
20
-37.9586
11
104.291
21
-38.016
0
LINE
8
BLACK
6
CONTINUOUS
10
104.291
20
-38.016
11
104.291
21
-38.316
0
LINE
8
BLACK
6
CONTINUOUS
10
104.291
20
-38.316
11
104.28
21
-38.3734
0
LINE
8
BLACK
6
CONTINUOUS
10
104.28
20
-38.3734
11
104.247
21
-38.4221
0
LINE
8
BLACK
6
CONTINUOUS
10
104.247
20
-38.4221
11
104.198
21
-38.4546
0
LINE
8
BLACK
6
CONTINUOUS
10
104.198
20
-38.4546
11
104.141
21
-38.466
0
LINE
8
BLACK
6
CONTINUOUS
10
104.141
20
-38.466
11
102.966
21
-38.466
0
LINE
8
BLACK
6
CONTINUOUS
10
102.966
20
-38.466
11
102.909
21
-38.4546
0
LINE
8
BLACK
6
CONTINUOUS
10
102.909
20
-38.4546
11
102.86
21
-38.4221
0
LINE
8
BLACK
6
CONTINUOUS
10
102.86
20
-38.4221
11
102.827
21
-38.3734
0
LINE
8
BLACK
6
CONTINUOUS
10
102.827
20
-38.3734
11
102.816
21
-38.316
0
LINE
8
BLACK
6
CONTINUOUS
10
102.816
20
-38.316
11
102.816
21
-38.016
0
LINE
8
BLACK
6
CONTINUOUS
10
102.816
20
-38.016
11
102.827
21
-37.9586
0
LINE
8
BLACK
6
CONTINUOUS
10
102.827
20
-37.9586
11
102.86
21
-37.9099
0
LINE
8
BLACK
6
CONTINUOUS
10
102.86
20
-37.9099
11
102.909
21
-37.8774
0
LINE
8
BLACK
6
CONTINUOUS
10
102.909
20
-37.8774
11
102.966
21
-37.866
0
LINE
8
BLACK
6
CONTINUOUS
10
102.966
20
-37.866
11
104.141
21
-37.866
0
LINE
8
BLACK
6
CONTINUOUS
10
104.141
20
-37.866
11
104.198
21
-37.8774
0
LINE
8
BLACK
6
CONTINUOUS
10
94.5257
20
-37.456
11
94.6068
21
-37.5102
0
LINE
8
BLACK
6
CONTINUOUS
10
94.6068
20
-37.5102
11
94.661
21
-37.5913
0
LINE
8
BLACK
6
CONTINUOUS
10
94.661
20
-37.5913
11
94.68
21
-37.687
0
LINE
8
BLACK
6
CONTINUOUS
10
94.68
20
-37.687
11
94.68
21
-38.212
0
LINE
8
BLACK
6
CONTINUOUS
10
94.68
20
-38.212
11
94.661
21
-38.3077
0
LINE
8
BLACK
6
CONTINUOUS
10
94.661
20
-38.3077
11
94.6068
21
-38.3888
0
LINE
8
BLACK
6
CONTINUOUS
10
94.6068
20
-38.3888
11
94.5257
21
-38.443
0
LINE
8
BLACK
6
CONTINUOUS
10
94.5257
20
-38.443
11
94.43
21
-38.462
0
LINE
8
BLACK
6
CONTINUOUS
10
94.43
20
-38.462
11
93.53
21
-38.462
0
LINE
8
BLACK
6
CONTINUOUS
10
93.53
20
-38.462
11
93.4343
21
-38.443
0
LINE
8
BLACK
6
CONTINUOUS
10
93.4343
20
-38.443
11
93.3532
21
-38.3888
0
LINE
8
BLACK
6
CONTINUOUS
10
93.3532
20
-38.3888
11
93.299
21
-38.3077
0
LINE
8
BLACK
6
CONTINUOUS
10
93.299
20
-38.3077
11
93.28
21
-38.212
0
LINE
8
BLACK
6
CONTINUOUS
10
93.28
20
-38.212
11
93.28
21
-37.687
0
LINE
8
BLACK
6
CONTINUOUS
10
93.28
20
-37.687
11
93.299
21
-37.5913
0
LINE
8
BLACK
6
CONTINUOUS
10
93.299
20
-37.5913
11
93.3532
21
-37.5102
0
LINE
8
BLACK
6
CONTINUOUS
10
93.3532
20
-37.5102
11
93.4343
21
-37.456
0
LINE
8
BLACK
6
CONTINUOUS
10
93.4343
20
-37.456
11
93.53
21
-37.437
0
LINE
8
BLACK
6
CONTINUOUS
10
93.53
20
-37.437
11
94.43
21
-37.437
0
LINE
8
BLACK
6
CONTINUOUS
10
94.43
20
-37.437
11
94.5257
21
-37.456
0
LINE
8
BLACK
6
CONTINUOUS
10
96.5615
20
-37.4556
11
96.6406
21
-37.5084
0
LINE
8
BLACK
6
CONTINUOUS
10
96.6406
20
-37.5084
11
96.6934
21
-37.5875
0
LINE
8
BLACK
6
CONTINUOUS
10
96.6934
20
-37.5875
11
96.712
21
-37.6807
0
LINE
8
BLACK
6
CONTINUOUS
10
96.712
20
-37.6807
11
96.712
21
-38.1683
0
LINE
8
BLACK
6
CONTINUOUS
10
96.712
20
-38.1683
11
96.6934
21
-38.2615
0
LINE
8
BLACK
6
CONTINUOUS
10
96.6934
20
-38.2615
11
96.6406
21
-38.3406
0
LINE
8
BLACK
6
CONTINUOUS
10
96.6406
20
-38.3406
11
96.5615
21
-38.3934
0
LINE
8
BLACK
6
CONTINUOUS
10
96.5615
20
-38.3934
11
96.4682
21
-38.412
0
LINE
8
BLACK
6
CONTINUOUS
10
96.4682
20
-38.412
11
95.5557
21
-38.412
0
LINE
8
BLACK
6
CONTINUOUS
10
95.5557
20
-38.412
11
95.4625
21
-38.3934
0
LINE
8
BLACK
6
CONTINUOUS
10
95.4625
20
-38.3934
11
95.3834
21
-38.3406
0
LINE
8
BLACK
6
CONTINUOUS
10
95.3834
20
-38.3406
11
95.3306
21
-38.2615
0
LINE
8
BLACK
6
CONTINUOUS
10
95.3306
20
-38.2615
11
95.312
21
-38.1683
0
LINE
8
BLACK
6
CONTINUOUS
10
95.312
20
-38.1683
11
95.312
21
-37.6807
0
LINE
8
BLACK
6
CONTINUOUS
10
95.312
20
-37.6807
11
95.3306
21
-37.5875
0
LINE
8
BLACK
6
CONTINUOUS
10
95.3306
20
-37.5875
11
95.3834
21
-37.5084
0
LINE
8
BLACK
6
CONTINUOUS
10
95.3834
20
-37.5084
11
95.4625
21
-37.4556
0
LINE
8
BLACK
6
CONTINUOUS
10
95.4625
20
-37.4556
11
95.5557
21
-37.437
0
LINE
8
BLACK
6
CONTINUOUS
10
95.5557
20
-37.437
11
96.4682
21
-37.437
0
LINE
8
BLACK
6
CONTINUOUS
10
96.4682
20
-37.437
11
96.5615
21
-37.4556
0
LINE
8
BLACK
6
CONTINUOUS
10
151.262
20
-36.81
11
148.912
21
-36.81
0
LINE
8
BLACK
6
CONTINUOUS
10
148.912
20
-36.81
11
148.912
21
-34.31
0
LINE
8
BLACK
6
CONTINUOUS
10
148.912
20
-34.31
11
151.262
21
-34.31
0
LINE
8
BLACK
6
CONTINUOUS
10
151.262
20
-34.31
11
151.262
21
-36.81
0
LINE
8
BLACK
6
CONTINUOUS
10
189.362
20
-36.81
11
187.012
21
-36.81
0
LINE
8
BLACK
6
CONTINUOUS
10
187.012
20
-36.81
11
187.012
21
-34.31
0
LINE
8
BLACK
6
CONTINUOUS
10
187.012
20
-34.31
11
189.362
21
-34.31
0
LINE
8
BLACK
6
CONTINUOUS
10
189.362
20
-34.31
11
189.362
21
-36.81
0
LINE
8
BLACK
6
CONTINUOUS
10
94.6957
20
-35.387
11
94.7768
21
-35.4412
0
LINE
8
BLACK
6
CONTINUOUS
10
94.7768
20
-35.4412
11
94.831
21
-35.5223
0
LINE
8
BLACK
6
CONTINUOUS
10
94.831
20
-35.5223
11
94.85
21
-35.618
0
LINE
8
BLACK
6
CONTINUOUS
10
94.85
20
-35.618
11
94.85
21
-36.518
0
LINE
8
BLACK
6
CONTINUOUS
10
94.85
20
-36.518
11
94.831
21
-36.6137
0
LINE
8
BLACK
6
CONTINUOUS
10
94.831
20
-36.6137
11
94.7768
21
-36.6948
0
LINE
8
BLACK
6
CONTINUOUS
10
94.7768
20
-36.6948
11
94.6957
21
-36.749
0
LINE
8
BLACK
6
CONTINUOUS
10
94.6957
20
-36.749
11
94.6
21
-36.768
0
LINE
8
BLACK
6
CONTINUOUS
10
94.6
20
-36.768
11
94.075
21
-36.768
0
LINE
8
BLACK
6
CONTINUOUS
10
94.075
20
-36.768
11
93.9793
21
-36.749
0
LINE
8
BLACK
6
CONTINUOUS
10
93.9793
20
-36.749
11
93.8982
21
-36.6948
0
LINE
8
BLACK
6
CONTINUOUS
10
93.8982
20
-36.6948
11
93.844
21
-36.6137
0
LINE
8
BLACK
6
CONTINUOUS
10
93.844
20
-36.6137
11
93.825
21
-36.518
0
LINE
8
BLACK
6
CONTINUOUS
10
93.825
20
-36.518
11
93.825
21
-35.618
0
LINE
8
BLACK
6
CONTINUOUS
10
93.825
20
-35.618
11
93.844
21
-35.5223
0
LINE
8
BLACK
6
CONTINUOUS
10
93.844
20
-35.5223
11
93.8982
21
-35.4412
0
LINE
8
BLACK
6
CONTINUOUS
10
93.8982
20
-35.4412
11
93.9793
21
-35.387
0
LINE
8
BLACK
6
CONTINUOUS
10
93.9793
20
-35.387
11
94.075
21
-35.368
0
LINE
8
BLACK
6
CONTINUOUS
10
94.075
20
-35.368
11
94.6
21
-35.368
0
LINE
8
BLACK
6
CONTINUOUS
10
94.6
20
-35.368
11
94.6957
21
-35.387
0
LINE
8
BLACK
6
CONTINUOUS
10
96.5207
20
-35.387
11
96.6018
21
-35.4412
0
LINE
8
BLACK
6
CONTINUOUS
10
96.6018
20
-35.4412
11
96.656
21
-35.5223
0
LINE
8
BLACK
6
CONTINUOUS
10
96.656
20
-35.5223
11
96.675
21
-35.618
0
LINE
8
BLACK
6
CONTINUOUS
10
96.675
20
-35.618
11
96.675
21
-36.518
0
LINE
8
BLACK
6
CONTINUOUS
10
96.675
20
-36.518
11
96.656
21
-36.6137
0
LINE
8
BLACK
6
CONTINUOUS
10
96.656
20
-36.6137
11
96.6018
21
-36.6948
0
LINE
8
BLACK
6
CONTINUOUS
10
96.6018
20
-36.6948
11
96.5207
21
-36.749
0
LINE
8
BLACK
6
CONTINUOUS
10
96.5207
20
-36.749
11
96.425
21
-36.768
0
LINE
8
BLACK
6
CONTINUOUS
10
96.425
20
-36.768
11
95.9
21
-36.768
0
LINE
8
BLACK
6
CONTINUOUS
10
95.9
20
-36.768
11
95.8043
21
-36.749
0
LINE
8
BLACK
6
CONTINUOUS
10
95.8043
20
-36.749
11
95.7232
21
-36.6948
0
LINE
8
BLACK
6
CONTINUOUS
10
95.7232
20
-36.6948
11
95.669
21
-36.6137
0
LINE
8
BLACK
6
CONTINUOUS
10
95.669
20
-36.6137
11
95.65
21
-36.518
0
LINE
8
BLACK
6
CONTINUOUS
10
95.65
20
-36.518
11
95.65
21
-35.618
0
LINE
8
BLACK
6
CONTINUOUS
10
95.65
20
-35.618
11
95.669
21
-35.5223
0
LINE
8
BLACK
6
CONTINUOUS
10
95.669
20
-35.5223
11
95.7232
21
-35.4412
0
LINE
8
BLACK
6
CONTINUOUS
10
95.7232
20
-35.4412
11
95.8043
21
-35.387
0
LINE
8
BLACK
6
CONTINUOUS
10
95.8043
20
-35.387
11
95.9
21
-35.368
0
LINE
8
BLACK
6
CONTINUOUS
10
95.9
20
-35.368
11
96.425
21
-35.368
0
LINE
8
BLACK
6
CONTINUOUS
10
96.425
20
-35.368
11
96.5207
21
-35.387
0
LINE
8
BLACK
6
CONTINUOUS
10
98.1732
20
-35.387
11
98.2543
21
-35.4412
0
LINE
8
BLACK
6
CONTINUOUS
10
98.2543
20
-35.4412
11
98.3085
21
-35.5223
0
LINE
8
BLACK
6
CONTINUOUS
10
98.3085
20
-35.5223
11
98.3275
21
-35.618
0
LINE
8
BLACK
6
CONTINUOUS
10
98.3275
20
-35.618
11
98.3275
21
-36.518
0
LINE
8
BLACK
6
CONTINUOUS
10
98.3275
20
-36.518
11
98.3085
21
-36.6137
0
LINE
8
BLACK
6
CONTINUOUS
10
98.3085
20
-36.6137
11
98.2543
21
-36.6948
0
LINE
8
BLACK
6
CONTINUOUS
10
98.2543
20
-36.6948
11
98.1732
21
-36.749
0
LINE
8
BLACK
6
CONTINUOUS
10
98.1732
20
-36.749
11
98.0775
21
-36.768
0
LINE
8
BLACK
6
CONTINUOUS
10
98.0775
20
-36.768
11
97.5525
21
-36.768
0
LINE
8
BLACK
6
CONTINUOUS
10
97.5525
20
-36.768
11
97.4568
21
-36.749
0
LINE
8
BLACK
6
CONTINUOUS
10
97.4568
20
-36.749
11
97.3757
21
-36.6948
0
LINE
8
BLACK
6
CONTINUOUS
10
97.3757
20
-36.6948
11
97.3215
21
-36.6137
0
LINE
8
BLACK
6
CONTINUOUS
10
97.3215
20
-36.6137
11
97.3025
21
-36.518
0
LINE
8
BLACK
6
CONTINUOUS
10
97.3025
20
-36.518
11
97.3025
21
-35.618
0
LINE
8
BLACK
6
CONTINUOUS
10
97.3025
20
-35.618
11
97.3215
21
-35.5223
0
LINE
8
BLACK
6
CONTINUOUS
10
97.3215
20
-35.5223
11
97.3757
21
-35.4412
0
LINE
8
BLACK
6
CONTINUOUS
10
97.3757
20
-35.4412
11
97.4568
21
-35.387
0
LINE
8
BLACK
6
CONTINUOUS
10
97.4568
20
-35.387
11
97.5525
21
-35.368
0
LINE
8
BLACK
6
CONTINUOUS
10
97.5525
20
-35.368
11
98.0775
21
-35.368
0
LINE
8
BLACK
6
CONTINUOUS
10
98.0775
20
-35.368
11
98.1732
21
-35.387
0
LINE
8
BLACK
6
CONTINUOUS
10
99.9982
20
-35.387
11
100.079
21
-35.4412
0
LINE
8
BLACK
6
CONTINUOUS
10
100.079
20
-35.4412
11
100.133
21
-35.5223
0
LINE
8
BLACK
6
CONTINUOUS
10
100.133
20
-35.5223
11
100.152
21
-35.618
0
LINE
8
BLACK
6
CONTINUOUS
10
100.152
20
-35.618
11
100.152
21
-36.518
0
LINE
8
BLACK
6
CONTINUOUS
10
100.152
20
-36.518
11
100.133
21
-36.6137
0
LINE
8
BLACK
6
CONTINUOUS
10
100.133
20
-36.6137
11
100.079
21
-36.6948
0
LINE
8
BLACK
6
CONTINUOUS
10
100.079
20
-36.6948
11
99.9982
21
-36.749
0
LINE
8
BLACK
6
CONTINUOUS
10
99.9982
20
-36.749
11
99.9025
21
-36.768
0
LINE
8
BLACK
6
CONTINUOUS
10
99.9025
20
-36.768
11
99.3775
21
-36.768
0
LINE
8
BLACK
6
CONTINUOUS
10
99.3775
20
-36.768
11
99.2818
21
-36.749
0
LINE
8
BLACK
6
CONTINUOUS
10
99.2818
20
-36.749
11
99.2007
21
-36.6948
0
LINE
8
BLACK
6
CONTINUOUS
10
99.2007
20
-36.6948
11
99.1465
21
-36.6137
0
LINE
8
BLACK
6
CONTINUOUS
10
99.1465
20
-36.6137
11
99.1275
21
-36.518
0
LINE
8
BLACK
6
CONTINUOUS
10
99.1275
20
-36.518
11
99.1275
21
-35.618
0
LINE
8
BLACK
6
CONTINUOUS
10
99.1275
20
-35.618
11
99.1465
21
-35.5223
0
LINE
8
BLACK
6
CONTINUOUS
10
99.1465
20
-35.5223
11
99.2007
21
-35.4412
0
LINE
8
BLACK
6
CONTINUOUS
10
99.2007
20
-35.4412
11
99.2818
21
-35.387
0
LINE
8
BLACK
6
CONTINUOUS
10
99.2818
20
-35.387
11
99.3775
21
-35.368
0
LINE
8
BLACK
6
CONTINUOUS
10
99.3775
20
-35.368
11
99.9025
21
-35.368
0
LINE
8
BLACK
6
CONTINUOUS
10
99.9025
20
-35.368
11
99.9982
21
-35.387
0
LINE
8
BLACK
6
CONTINUOUS
10
155.275
20
-35.6371
11
155.348
21
-35.6859
0
LINE
8
BLACK
6
CONTINUOUS
10
155.348
20
-35.6859
11
155.397
21
-35.7589
0
LINE
8
BLACK
6
CONTINUOUS
10
155.397
20
-35.7589
11
155.414
21
-35.845
0
LINE
8
BLACK
6
CONTINUOUS
10
155.414
20
-35.845
11
155.414
21
-36.295
0
LINE
8
BLACK
6
CONTINUOUS
10
155.414
20
-36.295
11
155.397
21
-36.3811
0
LINE
8
BLACK
6
CONTINUOUS
10
155.397
20
-36.3811
11
155.348
21
-36.4541
0
LINE
8
BLACK
6
CONTINUOUS
10
155.348
20
-36.4541
11
155.275
21
-36.5029
0
LINE
8
BLACK
6
CONTINUOUS
10
155.275
20
-36.5029
11
155.189
21
-36.52
0
LINE
8
BLACK
6
CONTINUOUS
10
155.189
20
-36.52
11
154.439
21
-36.52
0
LINE
8
BLACK
6
CONTINUOUS
10
154.439
20
-36.52
11
154.353
21
-36.5029
0
LINE
8
BLACK
6
CONTINUOUS
10
154.353
20
-36.5029
11
154.28
21
-36.4541
0
LINE
8
BLACK
6
CONTINUOUS
10
154.28
20
-36.4541
11
154.231
21
-36.3811
0
LINE
8
BLACK
6
CONTINUOUS
10
154.231
20
-36.3811
11
154.214
21
-36.295
0
LINE
8
BLACK
6
CONTINUOUS
10
154.214
20
-36.295
11
154.214
21
-35.845
0
LINE
8
BLACK
6
CONTINUOUS
10
154.214
20
-35.845
11
154.231
21
-35.7589
0
LINE
8
BLACK
6
CONTINUOUS
10
154.231
20
-35.7589
11
154.28
21
-35.6859
0
LINE
8
BLACK
6
CONTINUOUS
10
154.28
20
-35.6859
11
154.353
21
-35.6371
0
LINE
8
BLACK
6
CONTINUOUS
10
154.353
20
-35.6371
11
154.439
21
-35.62
0
LINE
8
BLACK
6
CONTINUOUS
10
154.439
20
-35.62
11
155.189
21
-35.62
0
LINE
8
BLACK
6
CONTINUOUS
10
155.189
20
-35.62
11
155.275
21
-35.6371
0
LINE
8
BLACK
6
CONTINUOUS
10
99.0167
20
-32.926
11
99.0978
21
-32.9802
0
LINE
8
BLACK
6
CONTINUOUS
10
99.0978
20
-32.9802
11
99.152
21
-33.0613
0
LINE
8
BLACK
6
CONTINUOUS
10
99.152
20
-33.0613
11
99.171
21
-33.157
0
LINE
8
BLACK
6
CONTINUOUS
10
99.171
20
-33.157
11
99.171
21
-34.407
0
LINE
8
BLACK
6
CONTINUOUS
10
99.171
20
-34.407
11
99.152
21
-34.5027
0
LINE
8
BLACK
6
CONTINUOUS
10
99.152
20
-34.5027
11
99.0978
21
-34.5838
0
LINE
8
BLACK
6
CONTINUOUS
10
99.0978
20
-34.5838
11
99.0167
21
-34.638
0
LINE
8
BLACK
6
CONTINUOUS
10
99.0167
20
-34.638
11
98.921
21
-34.657
0
LINE
8
BLACK
6
CONTINUOUS
10
98.921
20
-34.657
11
98.171
21
-34.657
0
LINE
8
BLACK
6
CONTINUOUS
10
98.171
20
-34.657
11
98.0753
21
-34.638
0
LINE
8
BLACK
6
CONTINUOUS
10
98.0753
20
-34.638
11
97.9942
21
-34.5838
0
LINE
8
BLACK
6
CONTINUOUS
10
97.9942
20
-34.5838
11
97.94
21
-34.5027
0
LINE
8
BLACK
6
CONTINUOUS
10
97.94
20
-34.5027
11
97.921
21
-34.407
0
LINE
8
BLACK
6
CONTINUOUS
10
97.921
20
-34.407
11
97.921
21
-33.157
0
LINE
8
BLACK
6
CONTINUOUS
10
97.921
20
-33.157
11
97.94
21
-33.0613
0
LINE
8
BLACK
6
CONTINUOUS
10
97.94
20
-33.0613
11
97.9942
21
-32.9802
0
LINE
8
BLACK
6
CONTINUOUS
10
97.9942
20
-32.9802
11
98.0753
21
-32.926
0
LINE
8
BLACK
6
CONTINUOUS
10
98.0753
20
-32.926
11
98.171
21
-32.907
0
LINE
8
BLACK
6
CONTINUOUS
10
98.171
20
-32.907
11
98.921
21
-32.907
0
LINE
8
BLACK
6
CONTINUOUS
10
98.921
20
-32.907
11
99.0167
21
-32.926
0
LINE
8
BLACK
6
CONTINUOUS
10
101.817
20
-32.926
11
101.898
21
-32.9802
0
LINE
8
BLACK
6
CONTINUOUS
10
101.898
20
-32.9802
11
101.952
21
-33.0613
0
LINE
8
BLACK
6
CONTINUOUS
10
101.952
20
-33.0613
11
101.971
21
-33.157
0
LINE
8
BLACK
6
CONTINUOUS
10
101.971
20
-33.157
11
101.971
21
-34.407
0
LINE
8
BLACK
6
CONTINUOUS
10
101.971
20
-34.407
11
101.952
21
-34.5027
0
LINE
8
BLACK
6
CONTINUOUS
10
101.952
20
-34.5027
11
101.898
21
-34.5838
0
LINE
8
BLACK
6
CONTINUOUS
10
101.898
20
-34.5838
11
101.817
21
-34.638
0
LINE
8
BLACK
6
CONTINUOUS
10
101.817
20
-34.638
11
101.721
21
-34.657
0
LINE
8
BLACK
6
CONTINUOUS
10
101.721
20
-34.657
11
100.971
21
-34.657
0
LINE
8
BLACK
6
CONTINUOUS
10
100.971
20
-34.657
11
100.875
21
-34.638
0
LINE
8
BLACK
6
CONTINUOUS
10
100.875
20
-34.638
11
100.794
21
-34.5838
0
LINE
8
BLACK
6
CONTINUOUS
10
100.794
20
-34.5838
11
100.74
21
-34.5027
0
LINE
8
BLACK
6
CONTINUOUS
10
100.74
20
-34.5027
11
100.721
21
-34.407
0
LINE
8
BLACK
6
CONTINUOUS
10
100.721
20
-34.407
11
100.721
21
-33.157
0
LINE
8
BLACK
6
CONTINUOUS
10
100.721
20
-33.157
11
100.74
21
-33.0613
0
LINE
8
BLACK
6
CONTINUOUS
10
100.74
20
-33.0613
11
100.794
21
-32.9802
0
LINE
8
BLACK
6
CONTINUOUS
10
100.794
20
-32.9802
11
100.875
21
-32.926
0
LINE
8
BLACK
6
CONTINUOUS
10
100.875
20
-32.926
11
100.971
21
-32.907
0
LINE
8
BLACK
6
CONTINUOUS
10
100.971
20
-32.907
11
101.721
21
-32.907
0
LINE
8
BLACK
6
CONTINUOUS
10
101.721
20
-32.907
11
101.817
21
-32.926
0
LINE
8
BLACK
6
CONTINUOUS
10
137.551
20
-34.2827
11
135.401
21
-34.2827
0
LINE
8
BLACK
6
CONTINUOUS
10
135.401
20
-34.2827
11
135.401
21
-31.7827
0
LINE
8
BLACK
6
CONTINUOUS
10
135.401
20
-31.7827
11
137.551
21
-31.7827
0
LINE
8
BLACK
6
CONTINUOUS
10
137.551
20
-31.7827
11
137.551
21
-34.2827
0
LINE
8
BLACK
6
CONTINUOUS
10
175.651
20
-34.2827
11
173.501
21
-34.2827
0
LINE
8
BLACK
6
CONTINUOUS
10
173.501
20
-34.2827
11
173.501
21
-31.7827
0
LINE
8
BLACK
6
CONTINUOUS
10
173.501
20
-31.7827
11
175.651
21
-31.7827
0
LINE
8
BLACK
6
CONTINUOUS
10
175.651
20
-31.7827
11
175.651
21
-34.2827
0
LINE
8
BLACK
6
CONTINUOUS
10
104.121
20
-33.5048
11
102.721
21
-33.5048
0
LINE
8
BLACK
6
CONTINUOUS
10
102.721
20
-33.5048
11
102.721
21
-32.5048
0
LINE
8
BLACK
6
CONTINUOUS
10
102.721
20
-32.5048
11
104.121
21
-32.5048
0
LINE
8
BLACK
6
CONTINUOUS
10
104.121
20
-32.5048
11
104.121
21
-33.5048
0
LINE
8
BLACK
6
CONTINUOUS
10
106.321
20
-33.4248
11
104.921
21
-33.4248
0
LINE
8
BLACK
6
CONTINUOUS
10
104.921
20
-33.4248
11
104.921
21
-32.2248
0
LINE
8
BLACK
6
CONTINUOUS
10
104.921
20
-32.2248
11
106.321
21
-32.2248
0
LINE
8
BLACK
6
CONTINUOUS
10
106.321
20
-32.2248
11
106.321
21
-33.4248
0
LINE
8
BLACK
6
CONTINUOUS
10
170.312
20
-32.0475
11
167.962
21
-32.0475
0
LINE
8
BLACK
6
CONTINUOUS
10
167.962
20
-32.0475
11
167.962
21
-29.5475
0
LINE
8
BLACK
6
CONTINUOUS
10
167.962
20
-29.5475
11
170.312
21
-29.5475
0
LINE
8
BLACK
6
CONTINUOUS
10
170.312
20
-29.5475
11
170.312
21
-32.0475
0
LINE
8
BLACK
6
CONTINUOUS
10
100.057
20
-30.6626
11
100.138
21
-30.7168
0
LINE
8
BLACK
6
CONTINUOUS
10
100.138
20
-30.7168
11
100.192
21
-30.7979
0
LINE
8
BLACK
6
CONTINUOUS
10
100.192
20
-30.7979
11
100.211
21
-30.8936
0
LINE
8
BLACK
6
CONTINUOUS
10
100.211
20
-30.8936
11
100.211
21
-31.7936
0
LINE
8
BLACK
6
CONTINUOUS
10
100.211
20
-31.7936
11
100.192
21
-31.8893
0
LINE
8
BLACK
6
CONTINUOUS
10
100.192
20
-31.8893
11
100.138
21
-31.9704
0
LINE
8
BLACK
6
CONTINUOUS
10
100.138
20
-31.9704
11
100.057
21
-32.0246
0
LINE
8
BLACK
6
CONTINUOUS
10
100.057
20
-32.0246
11
99.9613
21
-32.0436
0
LINE
8
BLACK
6
CONTINUOUS
10
99.9613
20
-32.0436
11
99.4363
21
-32.0436
0
LINE
8
BLACK
6
CONTINUOUS
10
99.4363
20
-32.0436
11
99.3406
21
-32.0246
0
LINE
8
BLACK
6
CONTINUOUS
10
99.3406
20
-32.0246
11
99.2595
21
-31.9704
0
LINE
8
BLACK
6
CONTINUOUS
10
99.2595
20
-31.9704
11
99.2053
21
-31.8893
0
LINE
8
BLACK
6
CONTINUOUS
10
99.2053
20
-31.8893
11
99.1863
21
-31.7936
0
LINE
8
BLACK
6
CONTINUOUS
10
99.1863
20
-31.7936
11
99.1863
21
-30.8936
0
LINE
8
BLACK
6
CONTINUOUS
10
99.1863
20
-30.8936
11
99.2053
21
-30.7979
0
LINE
8
BLACK
6
CONTINUOUS
10
99.2053
20
-30.7979
11
99.2595
21
-30.7168
0
LINE
8
BLACK
6
CONTINUOUS
10
99.2595
20
-30.7168
11
99.3406
21
-30.6626
0
LINE
8
BLACK
6
CONTINUOUS
10
99.3406
20
-30.6626
11
99.4363
21
-30.6436
0
LINE
8
BLACK
6
CONTINUOUS
10
99.4363
20
-30.6436
11
99.9613
21
-30.6436
0
LINE
8
BLACK
6
CONTINUOUS
10
99.9613
20
-30.6436
11
100.057
21
-30.6626
0
LINE
8
BLACK
6
CONTINUOUS
10
101.882
20
-30.6626
11
101.963
21
-30.7168
0
LINE
8
BLACK
6
CONTINUOUS
10
101.963
20
-30.7168
11
102.017
21
-30.7979
0
LINE
8
BLACK
6
CONTINUOUS
10
102.017
20
-30.7979
11
102.036
21
-30.8936
0
LINE
8
BLACK
6
CONTINUOUS
10
102.036
20
-30.8936
11
102.036
21
-31.7936
0
LINE
8
BLACK
6
CONTINUOUS
10
102.036
20
-31.7936
11
102.017
21
-31.8893
0
LINE
8
BLACK
6
CONTINUOUS
10
102.017
20
-31.8893
11
101.963
21
-31.9704
0
LINE
8
BLACK
6
CONTINUOUS
10
101.963
20
-31.9704
11
101.882
21
-32.0246
0
LINE
8
BLACK
6
CONTINUOUS
10
101.882
20
-32.0246
11
101.786
21
-32.0436
0
LINE
8
BLACK
6
CONTINUOUS
10
101.786
20
-32.0436
11
101.261
21
-32.0436
0
LINE
8
BLACK
6
CONTINUOUS
10
101.261
20
-32.0436
11
101.166
21
-32.0246
0
LINE
8
BLACK
6
CONTINUOUS
10
101.166
20
-32.0246
11
101.085
21
-31.9704
0
LINE
8
BLACK
6
CONTINUOUS
10
101.085
20
-31.9704
11
101.03
21
-31.8893
0
LINE
8
BLACK
6
CONTINUOUS
10
101.03
20
-31.8893
11
101.011
21
-31.7936
0
LINE
8
BLACK
6
CONTINUOUS
10
101.011
20
-31.7936
11
101.011
21
-30.8936
0
LINE
8
BLACK
6
CONTINUOUS
10
101.011
20
-30.8936
11
101.03
21
-30.7979
0
LINE
8
BLACK
6
CONTINUOUS
10
101.03
20
-30.7979
11
101.085
21
-30.7168
0
LINE
8
BLACK
6
CONTINUOUS
10
101.085
20
-30.7168
11
101.166
21
-30.6626
0
LINE
8
BLACK
6
CONTINUOUS
10
101.166
20
-30.6626
11
101.261
21
-30.6436
0
LINE
8
BLACK
6
CONTINUOUS
10
101.261
20
-30.6436
11
101.786
21
-30.6436
0
LINE
8
BLACK
6
CONTINUOUS
10
101.786
20
-30.6436
11
101.882
21
-30.6626
0
LINE
8
BLACK
6
CONTINUOUS
10
107.927
20
-30.6626
11
108.008
21
-30.7168
0
LINE
8
BLACK
6
CONTINUOUS
10
108.008
20
-30.7168
11
108.062
21
-30.7979
0
LINE
8
BLACK
6
CONTINUOUS
10
108.062
20
-30.7979
11
108.081
21
-30.8936
0
LINE
8
BLACK
6
CONTINUOUS
10
108.081
20
-30.8936
11
108.081
21
-31.7936
0
LINE
8
BLACK
6
CONTINUOUS
10
108.081
20
-31.7936
11
108.062
21
-31.8893
0
LINE
8
BLACK
6
CONTINUOUS
10
108.062
20
-31.8893
11
108.008
21
-31.9704
0
LINE
8
BLACK
6
CONTINUOUS
10
108.008
20
-31.9704
11
107.927
21
-32.0246
0
LINE
8
BLACK
6
CONTINUOUS
10
107.927
20
-32.0246
11
107.831
21
-32.0436
0
LINE
8
BLACK
6
CONTINUOUS
10
107.831
20
-32.0436
11
107.306
21
-32.0436
0
LINE
8
BLACK
6
CONTINUOUS
10
107.306
20
-32.0436
11
107.211
21
-32.0246
0
LINE
8
BLACK
6
CONTINUOUS
10
107.211
20
-32.0246
11
107.13
21
-31.9704
0
LINE
8
BLACK
6
CONTINUOUS
10
107.13
20
-31.9704
11
107.076
21
-31.8893
0
LINE
8
BLACK
6
CONTINUOUS
10
107.076
20
-31.8893
11
107.056
21
-31.7936
0
LINE
8
BLACK
6
CONTINUOUS
10
107.056
20
-31.7936
11
107.056
21
-30.8936
0
LINE
8
BLACK
6
CONTINUOUS
10
107.056
20
-30.8936
11
107.076
21
-30.7979
0
LINE
8
BLACK
6
CONTINUOUS
10
107.076
20
-30.7979
11
107.13
21
-30.7168
0
LINE
8
BLACK
6
CONTINUOUS
10
107.13
20
-30.7168
11
107.211
21
-30.6626
0
LINE
8
BLACK
6
CONTINUOUS
10
107.211
20
-30.6626
11
107.306
21
-30.6436
0
LINE
8
BLACK
6
CONTINUOUS
10
107.306
20
-30.6436
11
107.831
21
-30.6436
0
LINE
8
BLACK
6
CONTINUOUS
10
107.831
20
-30.6436
11
107.927
21
-30.6626
0
LINE
8
BLACK
6
CONTINUOUS
10
109.752
20
-30.6626
11
109.833
21
-30.7168
0
LINE
8
BLACK
6
CONTINUOUS
10
109.833
20
-30.7168
11
109.887
21
-30.7979
0
LINE
8
BLACK
6
CONTINUOUS
10
109.887
20
-30.7979
11
109.906
21
-30.8936
0
LINE
8
BLACK
6
CONTINUOUS
10
109.906
20
-30.8936
11
109.906
21
-31.7936
0
LINE
8
BLACK
6
CONTINUOUS
10
109.906
20
-31.7936
11
109.887
21
-31.8893
0
LINE
8
BLACK
6
CONTINUOUS
10
109.887
20
-31.8893
11
109.833
21
-31.9704
0
LINE
8
BLACK
6
CONTINUOUS
10
109.833
20
-31.9704
11
109.752
21
-32.0246
0
LINE
8
BLACK
6
CONTINUOUS
10
109.752
20
-32.0246
11
109.656
21
-32.0436
0
LINE
8
BLACK
6
CONTINUOUS
10
109.656
20
-32.0436
11
109.131
21
-32.0436
0
LINE
8
BLACK
6
CONTINUOUS
10
109.131
20
-32.0436
11
109.036
21
-32.0246
0
LINE
8
BLACK
6
CONTINUOUS
10
109.036
20
-32.0246
11
108.955
21
-31.9704
0
LINE
8
BLACK
6
CONTINUOUS
10
108.955
20
-31.9704
11
108.901
21
-31.8893
0
LINE
8
BLACK
6
CONTINUOUS
10
108.901
20
-31.8893
11
108.881
21
-31.7936
0
LINE
8
BLACK
6
CONTINUOUS
10
108.881
20
-31.7936
11
108.881
21
-30.8936
0
LINE
8
BLACK
6
CONTINUOUS
10
108.881
20
-30.8936
11
108.901
21
-30.7979
0
LINE
8
BLACK
6
CONTINUOUS
10
108.901
20
-30.7979
11
108.955
21
-30.7168
0
LINE
8
BLACK
6
CONTINUOUS
10
108.955
20
-30.7168
11
109.036
21
-30.6626
0
LINE
8
BLACK
6
CONTINUOUS
10
109.036
20
-30.6626
11
109.131
21
-30.6436
0
LINE
8
BLACK
6
CONTINUOUS
10
109.131
20
-30.6436
11
109.656
21
-30.6436
0
LINE
8
BLACK
6
CONTINUOUS
10
109.656
20
-30.6436
11
109.752
21
-30.6626
0
LINE
8
BLACK
6
CONTINUOUS
10
104.121
20
-31.6048
11
102.721
21
-31.6048
0
LINE
8
BLACK
6
CONTINUOUS
10
102.721
20
-31.6048
11
102.721
21
-30.6048
0
LINE
8
BLACK
6
CONTINUOUS
10
102.721
20
-30.6048
11
104.121
21
-30.6048
0
LINE
8
BLACK
6
CONTINUOUS
10
104.121
20
-30.6048
11
104.121
21
-31.6048
0
LINE
8
BLACK
6
CONTINUOUS
10
106.321
20
-31.6048
11
104.921
21
-31.6048
0
LINE
8
BLACK
6
CONTINUOUS
10
104.921
20
-31.6048
11
104.921
21
-30.6048
0
LINE
8
BLACK
6
CONTINUOUS
10
104.921
20
-30.6048
11
106.321
21
-30.6048
0
LINE
8
BLACK
6
CONTINUOUS
10
106.321
20
-30.6048
11
106.321
21
-31.6048
0
LINE
8
BLACK
6
CONTINUOUS
10
113.039
20
-30.1798
11
113.12
21
-30.234
0
LINE
8
BLACK
6
CONTINUOUS
10
113.12
20
-30.234
11
113.174
21
-30.3151
0
LINE
8
BLACK
6
CONTINUOUS
10
113.174
20
-30.3151
11
113.193
21
-30.4108
0
LINE
8
BLACK
6
CONTINUOUS
10
113.193
20
-30.4108
11
113.193
21
-31.0608
0
LINE
8
BLACK
6
CONTINUOUS
10
113.193
20
-31.0608
11
113.174
21
-31.1565
0
LINE
8
BLACK
6
CONTINUOUS
10
113.174
20
-31.1565
11
113.12
21
-31.2376
0
LINE
8
BLACK
6
CONTINUOUS
10
113.12
20
-31.2376
11
113.039
21
-31.2918
0
LINE
8
BLACK
6
CONTINUOUS
10
113.039
20
-31.2918
11
112.943
21
-31.3108
0
LINE
8
BLACK
6
CONTINUOUS
10
112.943
20
-31.3108
11
111.643
21
-31.3108
0
LINE
8
BLACK
6
CONTINUOUS
10
111.643
20
-31.3108
11
111.548
21
-31.2918
0
LINE
8
BLACK
6
CONTINUOUS
10
111.548
20
-31.2918
11
111.467
21
-31.2376
0
LINE
8
BLACK
6
CONTINUOUS
10
111.467
20
-31.2376
11
111.412
21
-31.1565
0
LINE
8
BLACK
6
CONTINUOUS
10
111.412
20
-31.1565
11
111.393
21
-31.0608
0
LINE
8
BLACK
6
CONTINUOUS
10
111.393
20
-31.0608
11
111.393
21
-30.4108
0
LINE
8
BLACK
6
CONTINUOUS
10
111.393
20
-30.4108
11
111.412
21
-30.3151
0
LINE
8
BLACK
6
CONTINUOUS
10
111.412
20
-30.3151
11
111.467
21
-30.234
0
LINE
8
BLACK
6
CONTINUOUS
10
111.467
20
-30.234
11
111.548
21
-30.1798
0
LINE
8
BLACK
6
CONTINUOUS
10
111.548
20
-30.1798
11
111.643
21
-30.1608
0
LINE
8
BLACK
6
CONTINUOUS
10
111.643
20
-30.1608
11
112.943
21
-30.1608
0
LINE
8
BLACK
6
CONTINUOUS
10
112.943
20
-30.1608
11
113.039
21
-30.1798
0
LINE
8
BLACK
6
CONTINUOUS
10
97.6753
20
-29.5551
11
97.7564
21
-29.6093
0
LINE
8
BLACK
6
CONTINUOUS
10
97.7564
20
-29.6093
11
97.8106
21
-29.6904
0
LINE
8
BLACK
6
CONTINUOUS
10
97.8106
20
-29.6904
11
97.8296
21
-29.7861
0
LINE
8
BLACK
6
CONTINUOUS
10
97.8296
20
-29.7861
11
97.8296
21
-30.3111
0
LINE
8
BLACK
6
CONTINUOUS
10
97.8296
20
-30.3111
11
97.8106
21
-30.4068
0
LINE
8
BLACK
6
CONTINUOUS
10
97.8106
20
-30.4068
11
97.7564
21
-30.4879
0
LINE
8
BLACK
6
CONTINUOUS
10
97.7564
20
-30.4879
11
97.6753
21
-30.5421
0
LINE
8
BLACK
6
CONTINUOUS
10
97.6753
20
-30.5421
11
97.5796
21
-30.5611
0
LINE
8
BLACK
6
CONTINUOUS
10
97.5796
20
-30.5611
11
96.6796
21
-30.5611
0
LINE
8
BLACK
6
CONTINUOUS
10
96.6796
20
-30.5611
11
96.5839
21
-30.5421
0
LINE
8
BLACK
6
CONTINUOUS
10
96.5839
20
-30.5421
11
96.5028
21
-30.4879
0
LINE
8
BLACK
6
CONTINUOUS
10
96.5028
20
-30.4879
11
96.4486
21
-30.4068
0
LINE
8
BLACK
6
CONTINUOUS
10
96.4486
20
-30.4068
11
96.4296
21
-30.3111
0
LINE
8
BLACK
6
CONTINUOUS
10
96.4296
20
-30.3111
11
96.4296
21
-29.7861
0
LINE
8
BLACK
6
CONTINUOUS
10
96.4296
20
-29.7861
11
96.4486
21
-29.6904
0
LINE
8
BLACK
6
CONTINUOUS
10
96.4486
20
-29.6904
11
96.5028
21
-29.6093
0
LINE
8
BLACK
6
CONTINUOUS
10
96.5028
20
-29.6093
11
96.5839
21
-29.5551
0
LINE
8
BLACK
6
CONTINUOUS
10
96.5839
20
-29.5551
11
96.6796
21
-29.5361
0
LINE
8
BLACK
6
CONTINUOUS
10
96.6796
20
-29.5361
11
97.5796
21
-29.5361
0
LINE
8
BLACK
6
CONTINUOUS
10
97.5796
20
-29.5361
11
97.6753
21
-29.5551
0
LINE
8
BLACK
6
CONTINUOUS
10
156.601
20
-29.5202
11
154.451
21
-29.5202
0
LINE
8
BLACK
6
CONTINUOUS
10
154.451
20
-29.5202
11
154.451
21
-27.0202
0
LINE
8
BLACK
6
CONTINUOUS
10
154.451
20
-27.0202
11
156.601
21
-27.0202
0
LINE
8
BLACK
6
CONTINUOUS
10
156.601
20
-27.0202
11
156.601
21
-29.5202
0
LINE
8
BLACK
6
CONTINUOUS
10
101.591
20
-29.2694
11
101.051
21
-29.2694
0
LINE
8
BLACK
6
CONTINUOUS
10
101.051
20
-29.2694
11
101.051
21
-28.4694
0
LINE
8
BLACK
6
CONTINUOUS
10
101.051
20
-28.4694
11
101.591
21
-28.4694
0
LINE
8
BLACK
6
CONTINUOUS
10
101.591
20
-28.4694
11
101.591
21
-29.2694
0
LINE
8
BLACK
6
CONTINUOUS
10
102.391
20
-29.2694
11
101.851
21
-29.2694
0
LINE
8
BLACK
6
CONTINUOUS
10
101.851
20
-29.2694
11
101.851
21
-28.4694
0
LINE
8
BLACK
6
CONTINUOUS
10
101.851
20
-28.4694
11
102.391
21
-28.4694
0
LINE
8
BLACK
6
CONTINUOUS
10
102.391
20
-28.4694
11
102.391
21
-29.2694
0
LINE
8
BLACK
6
CONTINUOUS
10
102.921
20
-29.2694
11
102.621
21
-29.2694
0
LINE
8
BLACK
6
CONTINUOUS
10
102.621
20
-29.2694
11
102.621
21
-28.4694
0
LINE
8
BLACK
6
CONTINUOUS
10
102.621
20
-28.4694
11
102.921
21
-28.4694
0
LINE
8
BLACK
6
CONTINUOUS
10
102.921
20
-28.4694
11
102.921
21
-29.2694
0
LINE
8
BLACK
6
CONTINUOUS
10
103.421
20
-29.2694
11
103.121
21
-29.2694
0
LINE
8
BLACK
6
CONTINUOUS
10
103.121
20
-29.2694
11
103.121
21
-28.4694
0
LINE
8
BLACK
6
CONTINUOUS
10
103.121
20
-28.4694
11
103.421
21
-28.4694
0
LINE
8
BLACK
6
CONTINUOUS
10
103.421
20
-28.4694
11
103.421
21
-29.2694
0
LINE
8
BLACK
6
CONTINUOUS
10
103.921
20
-29.2694
11
103.621
21
-29.2694
0
LINE
8
BLACK
6
CONTINUOUS
10
103.621
20
-29.2694
11
103.621
21
-28.4694
0
LINE
8
BLACK
6
CONTINUOUS
10
103.621
20
-28.4694
11
103.921
21
-28.4694
0
LINE
8
BLACK
6
CONTINUOUS
10
103.921
20
-28.4694
11
103.921
21
-29.2694
0
LINE
8
BLACK
6
CONTINUOUS
10
104.421
20
-29.2694
11
104.121
21
-29.2694
0
LINE
8
BLACK
6
CONTINUOUS
10
104.121
20
-29.2694
11
104.121
21
-28.4694
0
LINE
8
BLACK
6
CONTINUOUS
10
104.121
20
-28.4694
11
104.421
21
-28.4694
0
LINE
8
BLACK
6
CONTINUOUS
10
104.421
20
-28.4694
11
104.421
21
-29.2694
0
LINE
8
BLACK
6
CONTINUOUS
10
104.921
20
-29.2694
11
104.621
21
-29.2694
0
LINE
8
BLACK
6
CONTINUOUS
10
104.621
20
-29.2694
11
104.621
21
-28.4694
0
LINE
8
BLACK
6
CONTINUOUS
10
104.621
20
-28.4694
11
104.921
21
-28.4694
0
LINE
8
BLACK
6
CONTINUOUS
10
104.921
20
-28.4694
11
104.921
21
-29.2694
0
LINE
8
BLACK
6
CONTINUOUS
10
105.421
20
-29.2694
11
105.121
21
-29.2694
0
LINE
8
BLACK
6
CONTINUOUS
10
105.121
20
-29.2694
11
105.121
21
-28.4694
0
LINE
8
BLACK
6
CONTINUOUS
10
105.121
20
-28.4694
11
105.421
21
-28.4694
0
LINE
8
BLACK
6
CONTINUOUS
10
105.421
20
-28.4694
11
105.421
21
-29.2694
0
LINE
8
BLACK
6
CONTINUOUS
10
105.921
20
-29.2694
11
105.621
21
-29.2694
0
LINE
8
BLACK
6
CONTINUOUS
10
105.621
20
-29.2694
11
105.621
21
-28.4694
0
LINE
8
BLACK
6
CONTINUOUS
10
105.621
20
-28.4694
11
105.921
21
-28.4694
0
LINE
8
BLACK
6
CONTINUOUS
10
105.921
20
-28.4694
11
105.921
21
-29.2694
0
LINE
8
BLACK
6
CONTINUOUS
10
106.429
20
-29.2694
11
106.129
21
-29.2694
0
LINE
8
BLACK
6
CONTINUOUS
10
106.129
20
-29.2694
11
106.129
21
-28.4694
0
LINE
8
BLACK
6
CONTINUOUS
10
106.129
20
-28.4694
11
106.429
21
-28.4694
0
LINE
8
BLACK
6
CONTINUOUS
10
106.429
20
-28.4694
11
106.429
21
-29.2694
0
LINE
8
BLACK
6
CONTINUOUS
10
107.191
20
-29.2694
11
106.651
21
-29.2694
0
LINE
8
BLACK
6
CONTINUOUS
10
106.651
20
-29.2694
11
106.651
21
-28.4694
0
LINE
8
BLACK
6
CONTINUOUS
10
106.651
20
-28.4694
11
107.191
21
-28.4694
0
LINE
8
BLACK
6
CONTINUOUS
10
107.191
20
-28.4694
11
107.191
21
-29.2694
0
LINE
8
BLACK
6
CONTINUOUS
10
107.991
20
-29.2694
11
107.451
21
-29.2694
0
LINE
8
BLACK
6
CONTINUOUS
10
107.451
20
-29.2694
11
107.451
21
-28.4694
0
LINE
8
BLACK
6
CONTINUOUS
10
107.451
20
-28.4694
11
107.991
21
-28.4694
0
LINE
8
BLACK
6
CONTINUOUS
10
107.991
20
-28.4694
11
107.991
21
-29.2694
0
LINE
8
BLACK
6
CONTINUOUS
10
97.6753
20
-27.7301
11
97.7564
21
-27.7843
0
LINE
8
BLACK
6
CONTINUOUS
10
97.7564
20
-27.7843
11
97.8106
21
-27.8654
0
LINE
8
BLACK
6
CONTINUOUS
10
97.8106
20
-27.8654
11
97.8296
21
-27.9611
0
LINE
8
BLACK
6
CONTINUOUS
10
97.8296
20
-27.9611
11
97.8296
21
-28.4861
0
LINE
8
BLACK
6
CONTINUOUS
10
97.8296
20
-28.4861
11
97.8106
21
-28.5818
0
LINE
8
BLACK
6
CONTINUOUS
10
97.8106
20
-28.5818
11
97.7564
21
-28.6629
0
LINE
8
BLACK
6
CONTINUOUS
10
97.7564
20
-28.6629
11
97.6753
21
-28.7171
0
LINE
8
BLACK
6
CONTINUOUS
10
97.6753
20
-28.7171
11
97.5796
21
-28.7361
0
LINE
8
BLACK
6
CONTINUOUS
10
97.5796
20
-28.7361
11
96.6796
21
-28.7361
0
LINE
8
BLACK
6
CONTINUOUS
10
96.6796
20
-28.7361
11
96.5839
21
-28.7171
0
LINE
8
BLACK
6
CONTINUOUS
10
96.5839
20
-28.7171
11
96.5028
21
-28.6629
0
LINE
8
BLACK
6
CONTINUOUS
10
96.5028
20
-28.6629
11
96.4486
21
-28.5818
0
LINE
8
BLACK
6
CONTINUOUS
10
96.4486
20
-28.5818
11
96.4296
21
-28.4861
0
LINE
8
BLACK
6
CONTINUOUS
10
96.4296
20
-28.4861
11
96.4296
21
-27.9611
0
LINE
8
BLACK
6
CONTINUOUS
10
96.4296
20
-27.9611
11
96.4486
21
-27.8654
0
LINE
8
BLACK
6
CONTINUOUS
10
96.4486
20
-27.8654
11
96.5028
21
-27.7843
0
LINE
8
BLACK
6
CONTINUOUS
10
96.5028
20
-27.7843
11
96.5839
21
-27.7301
0
LINE
8
BLACK
6
CONTINUOUS
10
96.5839
20
-27.7301
11
96.6796
21
-27.7111
0
LINE
8
BLACK
6
CONTINUOUS
10
96.6796
20
-27.7111
11
97.5796
21
-27.7111
0
LINE
8
BLACK
6
CONTINUOUS
10
97.5796
20
-27.7111
11
97.6753
21
-27.7301
0
LINE
8
BLACK
6
CONTINUOUS
10
113.039
20
-27.2298
11
113.12
21
-27.284
0
LINE
8
BLACK
6
CONTINUOUS
10
113.12
20
-27.284
11
113.174
21
-27.3651
0
LINE
8
BLACK
6
CONTINUOUS
10
113.174
20
-27.3651
11
113.193
21
-27.4608
0
LINE
8
BLACK
6
CONTINUOUS
10
113.193
20
-27.4608
11
113.193
21
-28.1108
0
LINE
8
BLACK
6
CONTINUOUS
10
113.193
20
-28.1108
11
113.174
21
-28.2065
0
LINE
8
BLACK
6
CONTINUOUS
10
113.174
20
-28.2065
11
113.12
21
-28.2876
0
LINE
8
BLACK
6
CONTINUOUS
10
113.12
20
-28.2876
11
113.039
21
-28.3418
0
LINE
8
BLACK
6
CONTINUOUS
10
113.039
20
-28.3418
11
112.943
21
-28.3608
0
LINE
8
BLACK
6
CONTINUOUS
10
112.943
20
-28.3608
11
111.643
21
-28.3608
0
LINE
8
BLACK
6
CONTINUOUS
10
111.643
20
-28.3608
11
111.548
21
-28.3418
0
LINE
8
BLACK
6
CONTINUOUS
10
111.548
20
-28.3418
11
111.467
21
-28.2876
0
LINE
8
BLACK
6
CONTINUOUS
10
111.467
20
-28.2876
11
111.412
21
-28.2065
0
LINE
8
BLACK
6
CONTINUOUS
10
111.412
20
-28.2065
11
111.393
21
-28.1108
0
LINE
8
BLACK
6
CONTINUOUS
10
111.393
20
-28.1108
11
111.393
21
-27.4608
0
LINE
8
BLACK
6
CONTINUOUS
10
111.393
20
-27.4608
11
111.412
21
-27.3651
0
LINE
8
BLACK
6
CONTINUOUS
10
111.412
20
-27.3651
11
111.467
21
-27.284
0
LINE
8
BLACK
6
CONTINUOUS
10
111.467
20
-27.284
11
111.548
21
-27.2298
0
LINE
8
BLACK
6
CONTINUOUS
10
111.548
20
-27.2298
11
111.643
21
-27.2108
0
LINE
8
BLACK
6
CONTINUOUS
10
111.643
20
-27.2108
11
112.943
21
-27.2108
0
LINE
8
BLACK
6
CONTINUOUS
10
112.943
20
-27.2108
11
113.039
21
-27.2298
0
LINE
8
BLACK
6
CONTINUOUS
10
129.021
20
-25.1637
11
129.033
21
-25.1713
0
LINE
8
BLACK
6
CONTINUOUS
10
129.033
20
-25.1713
11
129.04
21
-25.1826
0
LINE
8
BLACK
6
CONTINUOUS
10
129.04
20
-25.1826
11
129.043
21
-25.196
0
LINE
8
BLACK
6
CONTINUOUS
10
129.043
20
-25.196
11
129.043
21
-26.626
0
LINE
8
BLACK
6
CONTINUOUS
10
129.043
20
-26.626
11
129.04
21
-26.6394
0
LINE
8
BLACK
6
CONTINUOUS
10
129.04
20
-26.6394
11
129.033
21
-26.6507
0
LINE
8
BLACK
6
CONTINUOUS
10
129.033
20
-26.6507
11
129.021
21
-26.6583
0
LINE
8
BLACK
6
CONTINUOUS
10
129.021
20
-26.6583
11
129.008
21
-26.661
0
LINE
8
BLACK
6
CONTINUOUS
10
129.008
20
-26.661
11
128.378
21
-26.661
0
LINE
8
BLACK
6
CONTINUOUS
10
128.378
20
-26.661
11
128.364
21
-26.6583
0
LINE
8
BLACK
6
CONTINUOUS
10
128.364
20
-26.6583
11
128.353
21
-26.6507
0
LINE
8
BLACK
6
CONTINUOUS
10
128.353
20
-26.6507
11
128.345
21
-26.6394
0
LINE
8
BLACK
6
CONTINUOUS
10
128.345
20
-26.6394
11
128.343
21
-26.626
0
LINE
8
BLACK
6
CONTINUOUS
10
128.343
20
-26.626
11
128.343
21
-25.196
0
LINE
8
BLACK
6
CONTINUOUS
10
128.343
20
-25.196
11
128.345
21
-25.1826
0
LINE
8
BLACK
6
CONTINUOUS
10
128.345
20
-25.1826
11
128.353
21
-25.1713
0
LINE
8
BLACK
6
CONTINUOUS
10
128.353
20
-25.1713
11
128.364
21
-25.1637
0
LINE
8
BLACK
6
CONTINUOUS
10
128.364
20
-25.1637
11
128.378
21
-25.161
0
LINE
8
BLACK
6
CONTINUOUS
10
128.378
20
-25.161
11
129.008
21
-25.161
0
LINE
8
BLACK
6
CONTINUOUS
10
129.008
20
-25.161
11
129.021
21
-25.1637
0
LINE
8
BLACK
6
CONTINUOUS
10
130.021
20
-25.1637
11
130.033
21
-25.1713
0
LINE
8
BLACK
6
CONTINUOUS
10
130.033
20
-25.1713
11
130.04
21
-25.1826
0
LINE
8
BLACK
6
CONTINUOUS
10
130.04
20
-25.1826
11
130.043
21
-25.196
0
LINE
8
BLACK
6
CONTINUOUS
10
130.043
20
-25.196
11
130.043
21
-26.626
0
LINE
8
BLACK
6
CONTINUOUS
10
130.043
20
-26.626
11
130.04
21
-26.6394
0
LINE
8
BLACK
6
CONTINUOUS
10
130.04
20
-26.6394
11
130.033
21
-26.6507
0
LINE
8
BLACK
6
CONTINUOUS
10
130.033
20
-26.6507
11
130.021
21
-26.6583
0
LINE
8
BLACK
6
CONTINUOUS
10
130.021
20
-26.6583
11
130.008
21
-26.661
0
LINE
8
BLACK
6
CONTINUOUS
10
130.008
20
-26.661
11
129.378
21
-26.661
0
LINE
8
BLACK
6
CONTINUOUS
10
129.378
20
-26.661
11
129.364
21
-26.6583
0
LINE
8
BLACK
6
CONTINUOUS
10
129.364
20
-26.6583
11
129.353
21
-26.6507
0
LINE
8
BLACK
6
CONTINUOUS
10
129.353
20
-26.6507
11
129.345
21
-26.6394
0
LINE
8
BLACK
6
CONTINUOUS
10
129.345
20
-26.6394
11
129.343
21
-26.626
0
LINE
8
BLACK
6
CONTINUOUS
10
129.343
20
-26.626
11
129.343
21
-25.196
0
LINE
8
BLACK
6
CONTINUOUS
10
129.343
20
-25.196
11
129.345
21
-25.1826
0
LINE
8
BLACK
6
CONTINUOUS
10
129.345
20
-25.1826
11
129.353
21
-25.1713
0
LINE
8
BLACK
6
CONTINUOUS
10
129.353
20
-25.1713
11
129.364
21
-25.1637
0
LINE
8
BLACK
6
CONTINUOUS
10
129.364
20
-25.1637
11
129.378
21
-25.161
0
LINE
8
BLACK
6
CONTINUOUS
10
129.378
20
-25.161
11
130.008
21
-25.161
0
LINE
8
BLACK
6
CONTINUOUS
10
130.008
20
-25.161
11
130.021
21
-25.1637
0
LINE
8
BLACK
6
CONTINUOUS
10
131.021
20
-25.1637
11
131.033
21
-25.1713
0
LINE
8
BLACK
6
CONTINUOUS
10
131.033
20
-25.1713
11
131.04
21
-25.1826
0
LINE
8
BLACK
6
CONTINUOUS
10
131.04
20
-25.1826
11
131.043
21
-25.196
0
LINE
8
BLACK
6
CONTINUOUS
10
131.043
20
-25.196
11
131.043
21
-26.626
0
LINE
8
BLACK
6
CONTINUOUS
10
131.043
20
-26.626
11
131.04
21
-26.6394
0
LINE
8
BLACK
6
CONTINUOUS
10
131.04
20
-26.6394
11
131.033
21
-26.6507
0
LINE
8
BLACK
6
CONTINUOUS
10
131.033
20
-26.6507
11
131.021
21
-26.6583
0
LINE
8
BLACK
6
CONTINUOUS
10
131.021
20
-26.6583
11
131.008
21
-26.661
0
LINE
8
BLACK
6
CONTINUOUS
10
131.008
20
-26.661
11
130.378
21
-26.661
0
LINE
8
BLACK
6
CONTINUOUS
10
130.378
20
-26.661
11
130.364
21
-26.6583
0
LINE
8
BLACK
6
CONTINUOUS
10
130.364
20
-26.6583
11
130.353
21
-26.6507
0
LINE
8
BLACK
6
CONTINUOUS
10
130.353
20
-26.6507
11
130.345
21
-26.6394
0
LINE
8
BLACK
6
CONTINUOUS
10
130.345
20
-26.6394
11
130.343
21
-26.626
0
LINE
8
BLACK
6
CONTINUOUS
10
130.343
20
-26.626
11
130.343
21
-25.196
0
LINE
8
BLACK
6
CONTINUOUS
10
130.343
20
-25.196
11
130.345
21
-25.1826
0
LINE
8
BLACK
6
CONTINUOUS
10
130.345
20
-25.1826
11
130.353
21
-25.1713
0
LINE
8
BLACK
6
CONTINUOUS
10
130.353
20
-25.1713
11
130.364
21
-25.1637
0
LINE
8
BLACK
6
CONTINUOUS
10
130.364
20
-25.1637
11
130.378
21
-25.161
0
LINE
8
BLACK
6
CONTINUOUS
10
130.378
20
-25.161
11
131.008
21
-25.161
0
LINE
8
BLACK
6
CONTINUOUS
10
131.008
20
-25.161
11
131.021
21
-25.1637
0
LINE
8
BLACK
6
CONTINUOUS
10
127.068
20
-24.564
11
127.081
21
-24.5727
0
LINE
8
BLACK
6
CONTINUOUS
10
127.081
20
-24.5727
11
127.09
21
-24.5857
0
LINE
8
BLACK
6
CONTINUOUS
10
127.09
20
-24.5857
11
127.093
21
-24.601
0
LINE
8
BLACK
6
CONTINUOUS
10
127.093
20
-24.601
11
127.093
21
-25.321
0
LINE
8
BLACK
6
CONTINUOUS
10
127.093
20
-25.321
11
127.09
21
-25.3363
0
LINE
8
BLACK
6
CONTINUOUS
10
127.09
20
-25.3363
11
127.081
21
-25.3493
0
LINE
8
BLACK
6
CONTINUOUS
10
127.081
20
-25.3493
11
127.068
21
-25.358
0
LINE
8
BLACK
6
CONTINUOUS
10
127.068
20
-25.358
11
127.053
21
-25.361
0
LINE
8
BLACK
6
CONTINUOUS
10
127.053
20
-25.361
11
126.133
21
-25.361
0
LINE
8
BLACK
6
CONTINUOUS
10
126.133
20
-25.361
11
126.117
21
-25.358
0
LINE
8
BLACK
6
CONTINUOUS
10
126.117
20
-25.358
11
126.105
21
-25.3493
0
LINE
8
BLACK
6
CONTINUOUS
10
126.105
20
-25.3493
11
126.096
21
-25.3363
0
LINE
8
BLACK
6
CONTINUOUS
10
126.096
20
-25.3363
11
126.093
21
-25.321
0
LINE
8
BLACK
6
CONTINUOUS
10
126.093
20
-25.321
11
126.093
21
-24.601
0
LINE
8
BLACK
6
CONTINUOUS
10
126.093
20
-24.601
11
126.096
21
-24.5857
0
LINE
8
BLACK
6
CONTINUOUS
10
126.096
20
-24.5857
11
126.105
21
-24.5727
0
LINE
8
BLACK
6
CONTINUOUS
10
126.105
20
-24.5727
11
126.117
21
-24.564
0
LINE
8
BLACK
6
CONTINUOUS
10
126.117
20
-24.564
11
126.133
21
-24.561
0
LINE
8
BLACK
6
CONTINUOUS
10
126.133
20
-24.561
11
127.053
21
-24.561
0
LINE
8
BLACK
6
CONTINUOUS
10
127.053
20
-24.561
11
127.068
21
-24.564
0
LINE
8
BLACK
6
CONTINUOUS
10
133.318
20
-24.564
11
133.331
21
-24.5727
0
LINE
8
BLACK
6
CONTINUOUS
10
133.331
20
-24.5727
11
133.34
21
-24.5857
0
LINE
8
BLACK
6
CONTINUOUS
10
133.34
20
-24.5857
11
133.343
21
-24.601
0
LINE
8
BLACK
6
CONTINUOUS
10
133.343
20
-24.601
11
133.343
21
-25.321
0
LINE
8
BLACK
6
CONTINUOUS
10
133.343
20
-25.321
11
133.34
21
-25.3363
0
LINE
8
BLACK
6
CONTINUOUS
10
133.34
20
-25.3363
11
133.331
21
-25.3493
0
LINE
8
BLACK
6
CONTINUOUS
10
133.331
20
-25.3493
11
133.318
21
-25.358
0
LINE
8
BLACK
6
CONTINUOUS
10
133.318
20
-25.358
11
133.303
21
-25.361
0
LINE
8
BLACK
6
CONTINUOUS
10
133.303
20
-25.361
11
132.383
21
-25.361
0
LINE
8
BLACK
6
CONTINUOUS
10
132.383
20
-25.361
11
132.367
21
-25.358
0
LINE
8
BLACK
6
CONTINUOUS
10
132.367
20
-25.358
11
132.355
21
-25.3493
0
LINE
8
BLACK
6
CONTINUOUS
10
132.355
20
-25.3493
11
132.346
21
-25.3363
0
LINE
8
BLACK
6
CONTINUOUS
10
132.346
20
-25.3363
11
132.343
21
-25.321
0
LINE
8
BLACK
6
CONTINUOUS
10
132.343
20
-25.321
11
132.343
21
-24.601
0
LINE
8
BLACK
6
CONTINUOUS
10
132.343
20
-24.601
11
132.346
21
-24.5857
0
LINE
8
BLACK
6
CONTINUOUS
10
132.346
20
-24.5857
11
132.355
21
-24.5727
0
LINE
8
BLACK
6
CONTINUOUS
10
132.355
20
-24.5727
11
132.367
21
-24.564
0
LINE
8
BLACK
6
CONTINUOUS
10
132.367
20
-24.564
11
132.383
21
-24.561
0
LINE
8
BLACK
6
CONTINUOUS
10
132.383
20
-24.561
11
133.303
21
-24.561
0
LINE
8
BLACK
6
CONTINUOUS
10
133.303
20
-24.561
11
133.318
21
-24.564
0
LINE
8
BLACK
6
CONTINUOUS
10
127.068
20
-22.414
11
127.081
21
-22.4227
0
LINE
8
BLACK
6
CONTINUOUS
10
127.081
20
-22.4227
11
127.09
21
-22.4357
0
LINE
8
BLACK
6
CONTINUOUS
10
127.09
20
-22.4357
11
127.093
21
-22.451
0
LINE
8
BLACK
6
CONTINUOUS
10
127.093
20
-22.451
11
127.093
21
-23.171
0
LINE
8
BLACK
6
CONTINUOUS
10
127.093
20
-23.171
11
127.09
21
-23.1863
0
LINE
8
BLACK
6
CONTINUOUS
10
127.09
20
-23.1863
11
127.081
21
-23.1993
0
LINE
8
BLACK
6
CONTINUOUS
10
127.081
20
-23.1993
11
127.068
21
-23.208
0
LINE
8
BLACK
6
CONTINUOUS
10
127.068
20
-23.208
11
127.053
21
-23.211
0
LINE
8
BLACK
6
CONTINUOUS
10
127.053
20
-23.211
11
126.133
21
-23.211
0
LINE
8
BLACK
6
CONTINUOUS
10
126.133
20
-23.211
11
126.117
21
-23.208
0
LINE
8
BLACK
6
CONTINUOUS
10
126.117
20
-23.208
11
126.105
21
-23.1993
0
LINE
8
BLACK
6
CONTINUOUS
10
126.105
20
-23.1993
11
126.096
21
-23.1863
0
LINE
8
BLACK
6
CONTINUOUS
10
126.096
20
-23.1863
11
126.093
21
-23.171
0
LINE
8
BLACK
6
CONTINUOUS
10
126.093
20
-23.171
11
126.093
21
-22.451
0
LINE
8
BLACK
6
CONTINUOUS
10
126.093
20
-22.451
11
126.096
21
-22.4357
0
LINE
8
BLACK
6
CONTINUOUS
10
126.096
20
-22.4357
11
126.105
21
-22.4227
0
LINE
8
BLACK
6
CONTINUOUS
10
126.105
20
-22.4227
11
126.117
21
-22.414
0
LINE
8
BLACK
6
CONTINUOUS
10
126.117
20
-22.414
11
126.133
21
-22.411
0
LINE
8
BLACK
6
CONTINUOUS
10
126.133
20
-22.411
11
127.053
21
-22.411
0
LINE
8
BLACK
6
CONTINUOUS
10
127.053
20
-22.411
11
127.068
21
-22.414
0
LINE
8
BLACK
6
CONTINUOUS
10
133.318
20
-22.414
11
133.331
21
-22.4227
0
LINE
8
BLACK
6
CONTINUOUS
10
133.331
20
-22.4227
11
133.34
21
-22.4357
0
LINE
8
BLACK
6
CONTINUOUS
10
133.34
20
-22.4357
11
133.343
21
-22.451
0
LINE
8
BLACK
6
CONTINUOUS
10
133.343
20
-22.451
11
133.343
21
-23.171
0
LINE
8
BLACK
6
CONTINUOUS
10
133.343
20
-23.171
11
133.34
21
-23.1863
0
LINE
8
BLACK
6
CONTINUOUS
10
133.34
20
-23.1863
11
133.331
21
-23.1993
0
LINE
8
BLACK
6
CONTINUOUS
10
133.331
20
-23.1993
11
133.318
21
-23.208
0
LINE
8
BLACK
6
CONTINUOUS
10
133.318
20
-23.208
11
133.303
21
-23.211
0
LINE
8
BLACK
6
CONTINUOUS
10
133.303
20
-23.211
11
132.383
21
-23.211
0
LINE
8
BLACK
6
CONTINUOUS
10
132.383
20
-23.211
11
132.367
21
-23.208
0
LINE
8
BLACK
6
CONTINUOUS
10
132.367
20
-23.208
11
132.355
21
-23.1993
0
LINE
8
BLACK
6
CONTINUOUS
10
132.355
20
-23.1993
11
132.346
21
-23.1863
0
LINE
8
BLACK
6
CONTINUOUS
10
132.346
20
-23.1863
11
132.343
21
-23.171
0
LINE
8
BLACK
6
CONTINUOUS
10
132.343
20
-23.171
11
132.343
21
-22.451
0
LINE
8
BLACK
6
CONTINUOUS
10
132.343
20
-22.451
11
132.346
21
-22.4357
0
LINE
8
BLACK
6
CONTINUOUS
10
132.346
20
-22.4357
11
132.355
21
-22.4227
0
LINE
8
BLACK
6
CONTINUOUS
10
132.355
20
-22.4227
11
132.367
21
-22.414
0
LINE
8
BLACK
6
CONTINUOUS
10
132.367
20
-22.414
11
132.383
21
-22.411
0
LINE
8
BLACK
6
CONTINUOUS
10
132.383
20
-22.411
11
133.303
21
-22.411
0
LINE
8
BLACK
6
CONTINUOUS
10
133.303
20
-22.411
11
133.318
21
-22.414
  0
ENDSEC
  0
EOF
