  0
SECTION
  2
HEADER
  9
$ANGBASE
  50
0.0
  9
$ANGDIR
  70
1
  9
$MEASUREMENT
  70
1
  0
ENDSEC
  0
SECTION
  2
TABLES
  0
TABLE
  2
LTYPE
  70
4
  0
LTYPE
  5
40F
  2
CONTINUOUS
  70
0
  3
Solid line
  72
65
  73
0
  40
0.0
  0
LTYPE
  5
410
  2
DASHDOT
 70
0
  3
Dash Dot ____ _ ____ _
 72
65
 73
4
 40
2.0
 49
1.25
 49
-0.25
 49
0.25
 49
-0.25
  0
LTYPE
  5
411
  2
DASHED
 70
0
  3
Dashed __ __ __ __ __
 72
65
 73
2
 40
0.75
 49
0.5
 49
-0.25
  0
LTYPE
  5
43B
  2
DOTTED
 70
0
  3
Dotted .  .  .  .
 72
65
 73
2
 40
0.2
 49
0.0
 49
-0.2
  0
ENDTAB
  0
TABLE
  2
STYLE
  70
4
  0
STYLE
  2
KICAD
  70
0
  40
0
  41
1
  42
1
  50
0
  71
0
  3
isocp.shx
  0
STYLE
  2
KICADB
  70
0
  40
0
  41
1
  42
1
  50
0
  71
0
  3
isocp.shx
  0
STYLE
  2
KICADI
  70
0
  40
0
  41
1
  42
1
  50
15
  71
0
  3
isocp.shx
  0
STYLE
  2
KICADBI
  70
0
  40
0
  41
1
  42
1
  50
15
  71
0
  3
isocp.shx
  0
ENDTAB
  0
TABLE
  2
LAYER
  70
1
  0
LAYER
  2
BLACK
  70
0
  62
7
  6
CONTINUOUS
  0
ENDTAB
  0
ENDSEC
  0
SECTION
  2
ENTITIES
0
LINE
8
BLACK
6
CONTINUOUS
10
84.5612
20
-134.737
11
82.526
21
-135.912
0
LINE
8
BLACK
6
CONTINUOUS
10
82.526
20
-135.912
11
81.276
21
-133.747
0
LINE
8
BLACK
6
CONTINUOUS
10
81.276
20
-133.747
11
83.3112
21
-132.572
0
LINE
8
BLACK
6
CONTINUOUS
10
83.3112
20
-132.572
11
84.5612
21
-134.737
0
LINE
8
BLACK
6
CONTINUOUS
10
95.0102
20
-125.786
11
93.1482
21
-126.861
0
LINE
8
BLACK
6
CONTINUOUS
10
93.1482
20
-126.861
11
91.8982
21
-124.696
0
LINE
8
BLACK
6
CONTINUOUS
10
91.8982
20
-124.696
11
93.7602
21
-123.621
0
LINE
8
BLACK
6
CONTINUOUS
10
93.7602
20
-123.621
11
95.0102
21
-125.786
0
LINE
8
BLACK
6
CONTINUOUS
10
112.591
20
-124.138
11
110.321
21
-124.747
0
LINE
8
BLACK
6
CONTINUOUS
10
110.321
20
-124.747
11
109.674
21
-122.332
0
LINE
8
BLACK
6
CONTINUOUS
10
109.674
20
-122.332
11
111.944
21
-121.724
0
LINE
8
BLACK
6
CONTINUOUS
10
111.944
20
-121.724
11
112.591
21
-124.138
0
LINE
8
BLACK
6
CONTINUOUS
10
174.451
20
-119.961
11
174.524
21
-120.01
0
LINE
8
BLACK
6
CONTINUOUS
10
174.524
20
-120.01
11
174.573
21
-120.083
0
LINE
8
BLACK
6
CONTINUOUS
10
174.573
20
-120.083
11
174.59
21
-120.169
0
LINE
8
BLACK
6
CONTINUOUS
10
174.59
20
-120.169
11
174.59
21
-120.619
0
LINE
8
BLACK
6
CONTINUOUS
10
174.59
20
-120.619
11
174.573
21
-120.705
0
LINE
8
BLACK
6
CONTINUOUS
10
174.573
20
-120.705
11
174.524
21
-120.778
0
LINE
8
BLACK
6
CONTINUOUS
10
174.524
20
-120.778
11
174.451
21
-120.827
0
LINE
8
BLACK
6
CONTINUOUS
10
174.451
20
-120.827
11
174.365
21
-120.844
0
LINE
8
BLACK
6
CONTINUOUS
10
174.365
20
-120.844
11
173.615
21
-120.844
0
LINE
8
BLACK
6
CONTINUOUS
10
173.615
20
-120.844
11
173.529
21
-120.827
0
LINE
8
BLACK
6
CONTINUOUS
10
173.529
20
-120.827
11
173.456
21
-120.778
0
LINE
8
BLACK
6
CONTINUOUS
10
173.456
20
-120.778
11
173.407
21
-120.705
0
LINE
8
BLACK
6
CONTINUOUS
10
173.407
20
-120.705
11
173.39
21
-120.619
0
LINE
8
BLACK
6
CONTINUOUS
10
173.39
20
-120.619
11
173.39
21
-120.169
0
LINE
8
BLACK
6
CONTINUOUS
10
173.39
20
-120.169
11
173.407
21
-120.083
0
LINE
8
BLACK
6
CONTINUOUS
10
173.407
20
-120.083
11
173.456
21
-120.01
0
LINE
8
BLACK
6
CONTINUOUS
10
173.456
20
-120.01
11
173.529
21
-119.961
0
LINE
8
BLACK
6
CONTINUOUS
10
173.529
20
-119.961
11
173.615
21
-119.944
0
LINE
8
BLACK
6
CONTINUOUS
10
173.615
20
-119.944
11
174.365
21
-119.944
0
LINE
8
BLACK
6
CONTINUOUS
10
174.365
20
-119.944
11
174.451
21
-119.961
0
LINE
8
BLACK
6
CONTINUOUS
10
136.351
20
-119.835
11
136.424
21
-119.884
0
LINE
8
BLACK
6
CONTINUOUS
10
136.424
20
-119.884
11
136.473
21
-119.957
0
LINE
8
BLACK
6
CONTINUOUS
10
136.473
20
-119.957
11
136.49
21
-120.043
0
LINE
8
BLACK
6
CONTINUOUS
10
136.49
20
-120.043
11
136.49
21
-120.493
0
LINE
8
BLACK
6
CONTINUOUS
10
136.49
20
-120.493
11
136.473
21
-120.579
0
LINE
8
BLACK
6
CONTINUOUS
10
136.473
20
-120.579
11
136.424
21
-120.652
0
LINE
8
BLACK
6
CONTINUOUS
10
136.424
20
-120.652
11
136.351
21
-120.701
0
LINE
8
BLACK
6
CONTINUOUS
10
136.351
20
-120.701
11
136.265
21
-120.718
0
LINE
8
BLACK
6
CONTINUOUS
10
136.265
20
-120.718
11
135.515
21
-120.718
0
LINE
8
BLACK
6
CONTINUOUS
10
135.515
20
-120.718
11
135.429
21
-120.701
0
LINE
8
BLACK
6
CONTINUOUS
10
135.429
20
-120.701
11
135.356
21
-120.652
0
LINE
8
BLACK
6
CONTINUOUS
10
135.356
20
-120.652
11
135.307
21
-120.579
0
LINE
8
BLACK
6
CONTINUOUS
10
135.307
20
-120.579
11
135.29
21
-120.493
0
LINE
8
BLACK
6
CONTINUOUS
10
135.29
20
-120.493
11
135.29
21
-120.043
0
LINE
8
BLACK
6
CONTINUOUS
10
135.29
20
-120.043
11
135.307
21
-119.957
0
LINE
8
BLACK
6
CONTINUOUS
10
135.307
20
-119.957
11
135.356
21
-119.884
0
LINE
8
BLACK
6
CONTINUOUS
10
135.356
20
-119.884
11
135.429
21
-119.835
0
LINE
8
BLACK
6
CONTINUOUS
10
135.429
20
-119.835
11
135.515
21
-119.818
0
LINE
8
BLACK
6
CONTINUOUS
10
135.515
20
-119.818
11
136.265
21
-119.818
0
LINE
8
BLACK
6
CONTINUOUS
10
136.265
20
-119.818
11
136.351
21
-119.835
0
LINE
8
BLACK
6
CONTINUOUS
10
125.001
20
-118.197
11
122.924
21
-118.753
0
LINE
8
BLACK
6
CONTINUOUS
10
122.924
20
-118.753
11
122.277
21
-116.338
0
LINE
8
BLACK
6
CONTINUOUS
10
122.277
20
-116.338
11
124.354
21
-115.782
0
LINE
8
BLACK
6
CONTINUOUS
10
124.354
20
-115.782
11
125.001
21
-118.197
0
LINE
8
BLACK
6
CONTINUOUS
10
174.451
20
-116.661
11
174.524
21
-116.71
0
LINE
8
BLACK
6
CONTINUOUS
10
174.524
20
-116.71
11
174.573
21
-116.783
0
LINE
8
BLACK
6
CONTINUOUS
10
174.573
20
-116.783
11
174.59
21
-116.869
0
LINE
8
BLACK
6
CONTINUOUS
10
174.59
20
-116.869
11
174.59
21
-117.319
0
LINE
8
BLACK
6
CONTINUOUS
10
174.59
20
-117.319
11
174.573
21
-117.405
0
LINE
8
BLACK
6
CONTINUOUS
10
174.573
20
-117.405
11
174.524
21
-117.478
0
LINE
8
BLACK
6
CONTINUOUS
10
174.524
20
-117.478
11
174.451
21
-117.527
0
LINE
8
BLACK
6
CONTINUOUS
10
174.451
20
-117.527
11
174.365
21
-117.544
0
LINE
8
BLACK
6
CONTINUOUS
10
174.365
20
-117.544
11
173.615
21
-117.544
0
LINE
8
BLACK
6
CONTINUOUS
10
173.615
20
-117.544
11
173.529
21
-117.527
0
LINE
8
BLACK
6
CONTINUOUS
10
173.529
20
-117.527
11
173.456
21
-117.478
0
LINE
8
BLACK
6
CONTINUOUS
10
173.456
20
-117.478
11
173.407
21
-117.405
0
LINE
8
BLACK
6
CONTINUOUS
10
173.407
20
-117.405
11
173.39
21
-117.319
0
LINE
8
BLACK
6
CONTINUOUS
10
173.39
20
-117.319
11
173.39
21
-116.869
0
LINE
8
BLACK
6
CONTINUOUS
10
173.39
20
-116.869
11
173.407
21
-116.783
0
LINE
8
BLACK
6
CONTINUOUS
10
173.407
20
-116.783
11
173.456
21
-116.71
0
LINE
8
BLACK
6
CONTINUOUS
10
173.456
20
-116.71
11
173.529
21
-116.661
0
LINE
8
BLACK
6
CONTINUOUS
10
173.529
20
-116.661
11
173.615
21
-116.644
0
LINE
8
BLACK
6
CONTINUOUS
10
173.615
20
-116.644
11
174.365
21
-116.644
0
LINE
8
BLACK
6
CONTINUOUS
10
174.365
20
-116.644
11
174.451
21
-116.661
0
LINE
8
BLACK
6
CONTINUOUS
10
136.351
20
-116.535
11
136.424
21
-116.584
0
LINE
8
BLACK
6
CONTINUOUS
10
136.424
20
-116.584
11
136.473
21
-116.657
0
LINE
8
BLACK
6
CONTINUOUS
10
136.473
20
-116.657
11
136.49
21
-116.743
0
LINE
8
BLACK
6
CONTINUOUS
10
136.49
20
-116.743
11
136.49
21
-117.193
0
LINE
8
BLACK
6
CONTINUOUS
10
136.49
20
-117.193
11
136.473
21
-117.279
0
LINE
8
BLACK
6
CONTINUOUS
10
136.473
20
-117.279
11
136.424
21
-117.352
0
LINE
8
BLACK
6
CONTINUOUS
10
136.424
20
-117.352
11
136.351
21
-117.401
0
LINE
8
BLACK
6
CONTINUOUS
10
136.351
20
-117.401
11
136.265
21
-117.418
0
LINE
8
BLACK
6
CONTINUOUS
10
136.265
20
-117.418
11
135.515
21
-117.418
0
LINE
8
BLACK
6
CONTINUOUS
10
135.515
20
-117.418
11
135.429
21
-117.401
0
LINE
8
BLACK
6
CONTINUOUS
10
135.429
20
-117.401
11
135.356
21
-117.352
0
LINE
8
BLACK
6
CONTINUOUS
10
135.356
20
-117.352
11
135.307
21
-117.279
0
LINE
8
BLACK
6
CONTINUOUS
10
135.307
20
-117.279
11
135.29
21
-117.193
0
LINE
8
BLACK
6
CONTINUOUS
10
135.29
20
-117.193
11
135.29
21
-116.743
0
LINE
8
BLACK
6
CONTINUOUS
10
135.29
20
-116.743
11
135.307
21
-116.657
0
LINE
8
BLACK
6
CONTINUOUS
10
135.307
20
-116.657
11
135.356
21
-116.584
0
LINE
8
BLACK
6
CONTINUOUS
10
135.356
20
-116.584
11
135.429
21
-116.535
0
LINE
8
BLACK
6
CONTINUOUS
10
135.429
20
-116.535
11
135.515
21
-116.518
0
LINE
8
BLACK
6
CONTINUOUS
10
135.515
20
-116.518
11
136.265
21
-116.518
0
LINE
8
BLACK
6
CONTINUOUS
10
136.265
20
-116.518
11
136.351
21
-116.535
0
LINE
8
BLACK
6
CONTINUOUS
10
212.297
20
-115.517
11
212.37
21
-115.566
0
LINE
8
BLACK
6
CONTINUOUS
10
212.37
20
-115.566
11
212.419
21
-115.639
0
LINE
8
BLACK
6
CONTINUOUS
10
212.419
20
-115.639
11
212.436
21
-115.725
0
LINE
8
BLACK
6
CONTINUOUS
10
212.436
20
-115.725
11
212.436
21
-116.175
0
LINE
8
BLACK
6
CONTINUOUS
10
212.436
20
-116.175
11
212.419
21
-116.261
0
LINE
8
BLACK
6
CONTINUOUS
10
212.419
20
-116.261
11
212.37
21
-116.334
0
LINE
8
BLACK
6
CONTINUOUS
10
212.37
20
-116.334
11
212.297
21
-116.383
0
LINE
8
BLACK
6
CONTINUOUS
10
212.297
20
-116.383
11
212.211
21
-116.4
0
LINE
8
BLACK
6
CONTINUOUS
10
212.211
20
-116.4
11
211.461
21
-116.4
0
LINE
8
BLACK
6
CONTINUOUS
10
211.461
20
-116.4
11
211.375
21
-116.383
0
LINE
8
BLACK
6
CONTINUOUS
10
211.375
20
-116.383
11
211.302
21
-116.334
0
LINE
8
BLACK
6
CONTINUOUS
10
211.302
20
-116.334
11
211.253
21
-116.261
0
LINE
8
BLACK
6
CONTINUOUS
10
211.253
20
-116.261
11
211.236
21
-116.175
0
LINE
8
BLACK
6
CONTINUOUS
10
211.236
20
-116.175
11
211.236
21
-115.725
0
LINE
8
BLACK
6
CONTINUOUS
10
211.236
20
-115.725
11
211.253
21
-115.639
0
LINE
8
BLACK
6
CONTINUOUS
10
211.253
20
-115.639
11
211.302
21
-115.566
0
LINE
8
BLACK
6
CONTINUOUS
10
211.302
20
-115.566
11
211.375
21
-115.517
0
LINE
8
BLACK
6
CONTINUOUS
10
211.375
20
-115.517
11
211.461
21
-115.5
0
LINE
8
BLACK
6
CONTINUOUS
10
211.461
20
-115.5
11
212.211
21
-115.5
0
LINE
8
BLACK
6
CONTINUOUS
10
212.211
20
-115.5
11
212.297
21
-115.517
0
LINE
8
BLACK
6
CONTINUOUS
10
155.401
20
-115.263
11
155.474
21
-115.312
0
LINE
8
BLACK
6
CONTINUOUS
10
155.474
20
-115.312
11
155.523
21
-115.385
0
LINE
8
BLACK
6
CONTINUOUS
10
155.523
20
-115.385
11
155.54
21
-115.471
0
LINE
8
BLACK
6
CONTINUOUS
10
155.54
20
-115.471
11
155.54
21
-115.921
0
LINE
8
BLACK
6
CONTINUOUS
10
155.54
20
-115.921
11
155.523
21
-116.007
0
LINE
8
BLACK
6
CONTINUOUS
10
155.523
20
-116.007
11
155.474
21
-116.08
0
LINE
8
BLACK
6
CONTINUOUS
10
155.474
20
-116.08
11
155.401
21
-116.129
0
LINE
8
BLACK
6
CONTINUOUS
10
155.401
20
-116.129
11
155.315
21
-116.146
0
LINE
8
BLACK
6
CONTINUOUS
10
155.315
20
-116.146
11
154.565
21
-116.146
0
LINE
8
BLACK
6
CONTINUOUS
10
154.565
20
-116.146
11
154.479
21
-116.129
0
LINE
8
BLACK
6
CONTINUOUS
10
154.479
20
-116.129
11
154.406
21
-116.08
0
LINE
8
BLACK
6
CONTINUOUS
10
154.406
20
-116.08
11
154.357
21
-116.007
0
LINE
8
BLACK
6
CONTINUOUS
10
154.357
20
-116.007
11
154.34
21
-115.921
0
LINE
8
BLACK
6
CONTINUOUS
10
154.34
20
-115.921
11
154.34
21
-115.471
0
LINE
8
BLACK
6
CONTINUOUS
10
154.34
20
-115.471
11
154.357
21
-115.385
0
LINE
8
BLACK
6
CONTINUOUS
10
154.357
20
-115.385
11
154.406
21
-115.312
0
LINE
8
BLACK
6
CONTINUOUS
10
154.406
20
-115.312
11
154.479
21
-115.263
0
LINE
8
BLACK
6
CONTINUOUS
10
154.479
20
-115.263
11
154.565
21
-115.246
0
LINE
8
BLACK
6
CONTINUOUS
10
154.565
20
-115.246
11
155.315
21
-115.246
0
LINE
8
BLACK
6
CONTINUOUS
10
155.315
20
-115.246
11
155.401
21
-115.263
0
LINE
8
BLACK
6
CONTINUOUS
10
193.501
20
-115.137
11
193.574
21
-115.186
0
LINE
8
BLACK
6
CONTINUOUS
10
193.574
20
-115.186
11
193.623
21
-115.259
0
LINE
8
BLACK
6
CONTINUOUS
10
193.623
20
-115.259
11
193.64
21
-115.345
0
LINE
8
BLACK
6
CONTINUOUS
10
193.64
20
-115.345
11
193.64
21
-115.795
0
LINE
8
BLACK
6
CONTINUOUS
10
193.64
20
-115.795
11
193.623
21
-115.881
0
LINE
8
BLACK
6
CONTINUOUS
10
193.623
20
-115.881
11
193.574
21
-115.954
0
LINE
8
BLACK
6
CONTINUOUS
10
193.574
20
-115.954
11
193.501
21
-116.003
0
LINE
8
BLACK
6
CONTINUOUS
10
193.501
20
-116.003
11
193.415
21
-116.02
0
LINE
8
BLACK
6
CONTINUOUS
10
193.415
20
-116.02
11
192.665
21
-116.02
0
LINE
8
BLACK
6
CONTINUOUS
10
192.665
20
-116.02
11
192.579
21
-116.003
0
LINE
8
BLACK
6
CONTINUOUS
10
192.579
20
-116.003
11
192.506
21
-115.954
0
LINE
8
BLACK
6
CONTINUOUS
10
192.506
20
-115.954
11
192.457
21
-115.881
0
LINE
8
BLACK
6
CONTINUOUS
10
192.457
20
-115.881
11
192.44
21
-115.795
0
LINE
8
BLACK
6
CONTINUOUS
10
192.44
20
-115.795
11
192.44
21
-115.345
0
LINE
8
BLACK
6
CONTINUOUS
10
192.44
20
-115.345
11
192.457
21
-115.259
0
LINE
8
BLACK
6
CONTINUOUS
10
192.457
20
-115.259
11
192.506
21
-115.186
0
LINE
8
BLACK
6
CONTINUOUS
10
192.506
20
-115.186
11
192.579
21
-115.137
0
LINE
8
BLACK
6
CONTINUOUS
10
192.579
20
-115.137
11
192.665
21
-115.12
0
LINE
8
BLACK
6
CONTINUOUS
10
192.665
20
-115.12
11
193.415
21
-115.12
0
LINE
8
BLACK
6
CONTINUOUS
10
193.415
20
-115.12
11
193.501
21
-115.137
0
LINE
8
BLACK
6
CONTINUOUS
10
109.659
20
-113.463
11
109.732
21
-113.512
0
LINE
8
BLACK
6
CONTINUOUS
10
109.732
20
-113.512
11
109.781
21
-113.585
0
LINE
8
BLACK
6
CONTINUOUS
10
109.781
20
-113.585
11
109.798
21
-113.671
0
LINE
8
BLACK
6
CONTINUOUS
10
109.798
20
-113.671
11
109.798
21
-114.421
0
LINE
8
BLACK
6
CONTINUOUS
10
109.798
20
-114.421
11
109.781
21
-114.507
0
LINE
8
BLACK
6
CONTINUOUS
10
109.781
20
-114.507
11
109.732
21
-114.58
0
LINE
8
BLACK
6
CONTINUOUS
10
109.732
20
-114.58
11
109.659
21
-114.629
0
LINE
8
BLACK
6
CONTINUOUS
10
109.659
20
-114.629
11
109.573
21
-114.646
0
LINE
8
BLACK
6
CONTINUOUS
10
109.573
20
-114.646
11
109.123
21
-114.646
0
LINE
8
BLACK
6
CONTINUOUS
10
109.123
20
-114.646
11
109.037
21
-114.629
0
LINE
8
BLACK
6
CONTINUOUS
10
109.037
20
-114.629
11
108.964
21
-114.58
0
LINE
8
BLACK
6
CONTINUOUS
10
108.964
20
-114.58
11
108.915
21
-114.507
0
LINE
8
BLACK
6
CONTINUOUS
10
108.915
20
-114.507
11
108.898
21
-114.421
0
LINE
8
BLACK
6
CONTINUOUS
10
108.898
20
-114.421
11
108.898
21
-113.671
0
LINE
8
BLACK
6
CONTINUOUS
10
108.898
20
-113.671
11
108.915
21
-113.585
0
LINE
8
BLACK
6
CONTINUOUS
10
108.915
20
-113.585
11
108.964
21
-113.512
0
LINE
8
BLACK
6
CONTINUOUS
10
108.964
20
-113.512
11
109.037
21
-113.463
0
LINE
8
BLACK
6
CONTINUOUS
10
109.037
20
-113.463
11
109.123
21
-113.446
0
LINE
8
BLACK
6
CONTINUOUS
10
109.123
20
-113.446
11
109.573
21
-113.446
0
LINE
8
BLACK
6
CONTINUOUS
10
109.573
20
-113.446
11
109.659
21
-113.463
0
LINE
8
BLACK
6
CONTINUOUS
10
112.959
20
-113.463
11
113.032
21
-113.512
0
LINE
8
BLACK
6
CONTINUOUS
10
113.032
20
-113.512
11
113.081
21
-113.585
0
LINE
8
BLACK
6
CONTINUOUS
10
113.081
20
-113.585
11
113.098
21
-113.671
0
LINE
8
BLACK
6
CONTINUOUS
10
113.098
20
-113.671
11
113.098
21
-114.421
0
LINE
8
BLACK
6
CONTINUOUS
10
113.098
20
-114.421
11
113.081
21
-114.507
0
LINE
8
BLACK
6
CONTINUOUS
10
113.081
20
-114.507
11
113.032
21
-114.58
0
LINE
8
BLACK
6
CONTINUOUS
10
113.032
20
-114.58
11
112.959
21
-114.629
0
LINE
8
BLACK
6
CONTINUOUS
10
112.959
20
-114.629
11
112.873
21
-114.646
0
LINE
8
BLACK
6
CONTINUOUS
10
112.873
20
-114.646
11
112.423
21
-114.646
0
LINE
8
BLACK
6
CONTINUOUS
10
112.423
20
-114.646
11
112.337
21
-114.629
0
LINE
8
BLACK
6
CONTINUOUS
10
112.337
20
-114.629
11
112.264
21
-114.58
0
LINE
8
BLACK
6
CONTINUOUS
10
112.264
20
-114.58
11
112.215
21
-114.507
0
LINE
8
BLACK
6
CONTINUOUS
10
112.215
20
-114.507
11
112.198
21
-114.421
0
LINE
8
BLACK
6
CONTINUOUS
10
112.198
20
-114.421
11
112.198
21
-113.671
0
LINE
8
BLACK
6
CONTINUOUS
10
112.198
20
-113.671
11
112.215
21
-113.585
0
LINE
8
BLACK
6
CONTINUOUS
10
112.215
20
-113.585
11
112.264
21
-113.512
0
LINE
8
BLACK
6
CONTINUOUS
10
112.264
20
-113.512
11
112.337
21
-113.463
0
LINE
8
BLACK
6
CONTINUOUS
10
112.337
20
-113.463
11
112.423
21
-113.446
0
LINE
8
BLACK
6
CONTINUOUS
10
112.423
20
-113.446
11
112.873
21
-113.446
0
LINE
8
BLACK
6
CONTINUOUS
10
112.873
20
-113.446
11
112.959
21
-113.463
0
LINE
8
BLACK
6
CONTINUOUS
10
91.2407
20
-112.368
11
91.3137
21
-112.416
0
LINE
8
BLACK
6
CONTINUOUS
10
91.3137
20
-112.416
11
91.3625
21
-112.489
0
LINE
8
BLACK
6
CONTINUOUS
10
91.3625
20
-112.489
11
91.3796
21
-112.575
0
LINE
8
BLACK
6
CONTINUOUS
10
91.3796
20
-112.575
11
91.3796
21
-113.025
0
LINE
8
BLACK
6
CONTINUOUS
10
91.3796
20
-113.025
11
91.3625
21
-113.112
0
LINE
8
BLACK
6
CONTINUOUS
10
91.3625
20
-113.112
11
91.3137
21
-113.184
0
LINE
8
BLACK
6
CONTINUOUS
10
91.3137
20
-113.184
11
91.2407
21
-113.233
0
LINE
8
BLACK
6
CONTINUOUS
10
91.2407
20
-113.233
11
91.1546
21
-113.25
0
LINE
8
BLACK
6
CONTINUOUS
10
91.1546
20
-113.25
11
90.4046
21
-113.25
0
LINE
8
BLACK
6
CONTINUOUS
10
90.4046
20
-113.25
11
90.3185
21
-113.233
0
LINE
8
BLACK
6
CONTINUOUS
10
90.3185
20
-113.233
11
90.2455
21
-113.184
0
LINE
8
BLACK
6
CONTINUOUS
10
90.2455
20
-113.184
11
90.1967
21
-113.112
0
LINE
8
BLACK
6
CONTINUOUS
10
90.1967
20
-113.112
11
90.1796
21
-113.025
0
LINE
8
BLACK
6
CONTINUOUS
10
90.1796
20
-113.025
11
90.1796
21
-112.575
0
LINE
8
BLACK
6
CONTINUOUS
10
90.1796
20
-112.575
11
90.1967
21
-112.489
0
LINE
8
BLACK
6
CONTINUOUS
10
90.1967
20
-112.489
11
90.2455
21
-112.416
0
LINE
8
BLACK
6
CONTINUOUS
10
90.2455
20
-112.416
11
90.3185
21
-112.368
0
LINE
8
BLACK
6
CONTINUOUS
10
90.3185
20
-112.368
11
90.4046
21
-112.35
0
LINE
8
BLACK
6
CONTINUOUS
10
90.4046
20
-112.35
11
91.1546
21
-112.35
0
LINE
8
BLACK
6
CONTINUOUS
10
91.1546
20
-112.35
11
91.2407
21
-112.368
0
LINE
8
BLACK
6
CONTINUOUS
10
93.5013
20
-112.368
11
93.5743
21
-112.416
0
LINE
8
BLACK
6
CONTINUOUS
10
93.5743
20
-112.416
11
93.6231
21
-112.489
0
LINE
8
BLACK
6
CONTINUOUS
10
93.6231
20
-112.489
11
93.6402
21
-112.575
0
LINE
8
BLACK
6
CONTINUOUS
10
93.6402
20
-112.575
11
93.6402
21
-113.025
0
LINE
8
BLACK
6
CONTINUOUS
10
93.6402
20
-113.025
11
93.6231
21
-113.112
0
LINE
8
BLACK
6
CONTINUOUS
10
93.6231
20
-113.112
11
93.5743
21
-113.184
0
LINE
8
BLACK
6
CONTINUOUS
10
93.5743
20
-113.184
11
93.5013
21
-113.233
0
LINE
8
BLACK
6
CONTINUOUS
10
93.5013
20
-113.233
11
93.4152
21
-113.25
0
LINE
8
BLACK
6
CONTINUOUS
10
93.4152
20
-113.25
11
92.6652
21
-113.25
0
LINE
8
BLACK
6
CONTINUOUS
10
92.6652
20
-113.25
11
92.5791
21
-113.233
0
LINE
8
BLACK
6
CONTINUOUS
10
92.5791
20
-113.233
11
92.5061
21
-113.184
0
LINE
8
BLACK
6
CONTINUOUS
10
92.5061
20
-113.184
11
92.4573
21
-113.112
0
LINE
8
BLACK
6
CONTINUOUS
10
92.4573
20
-113.112
11
92.4402
21
-113.025
0
LINE
8
BLACK
6
CONTINUOUS
10
92.4402
20
-113.025
11
92.4402
21
-112.575
0
LINE
8
BLACK
6
CONTINUOUS
10
92.4402
20
-112.575
11
92.4573
21
-112.489
0
LINE
8
BLACK
6
CONTINUOUS
10
92.4573
20
-112.489
11
92.5061
21
-112.416
0
LINE
8
BLACK
6
CONTINUOUS
10
92.5061
20
-112.416
11
92.5791
21
-112.368
0
LINE
8
BLACK
6
CONTINUOUS
10
92.5791
20
-112.368
11
92.6652
21
-112.35
0
LINE
8
BLACK
6
CONTINUOUS
10
92.6652
20
-112.35
11
93.4152
21
-112.35
0
LINE
8
BLACK
6
CONTINUOUS
10
93.4152
20
-112.35
11
93.5013
21
-112.368
0
LINE
8
BLACK
6
CONTINUOUS
10
212.297
20
-112.217
11
212.37
21
-112.266
0
LINE
8
BLACK
6
CONTINUOUS
10
212.37
20
-112.266
11
212.419
21
-112.339
0
LINE
8
BLACK
6
CONTINUOUS
10
212.419
20
-112.339
11
212.436
21
-112.425
0
LINE
8
BLACK
6
CONTINUOUS
10
212.436
20
-112.425
11
212.436
21
-112.875
0
LINE
8
BLACK
6
CONTINUOUS
10
212.436
20
-112.875
11
212.419
21
-112.961
0
LINE
8
BLACK
6
CONTINUOUS
10
212.419
20
-112.961
11
212.37
21
-113.034
0
LINE
8
BLACK
6
CONTINUOUS
10
212.37
20
-113.034
11
212.297
21
-113.083
0
LINE
8
BLACK
6
CONTINUOUS
10
212.297
20
-113.083
11
212.211
21
-113.1
0
LINE
8
BLACK
6
CONTINUOUS
10
212.211
20
-113.1
11
211.461
21
-113.1
0
LINE
8
BLACK
6
CONTINUOUS
10
211.461
20
-113.1
11
211.375
21
-113.083
0
LINE
8
BLACK
6
CONTINUOUS
10
211.375
20
-113.083
11
211.302
21
-113.034
0
LINE
8
BLACK
6
CONTINUOUS
10
211.302
20
-113.034
11
211.253
21
-112.961
0
LINE
8
BLACK
6
CONTINUOUS
10
211.253
20
-112.961
11
211.236
21
-112.875
0
LINE
8
BLACK
6
CONTINUOUS
10
211.236
20
-112.875
11
211.236
21
-112.425
0
LINE
8
BLACK
6
CONTINUOUS
10
211.236
20
-112.425
11
211.253
21
-112.339
0
LINE
8
BLACK
6
CONTINUOUS
10
211.253
20
-112.339
11
211.302
21
-112.266
0
LINE
8
BLACK
6
CONTINUOUS
10
211.302
20
-112.266
11
211.375
21
-112.217
0
LINE
8
BLACK
6
CONTINUOUS
10
211.375
20
-112.217
11
211.461
21
-112.2
0
LINE
8
BLACK
6
CONTINUOUS
10
211.461
20
-112.2
11
212.211
21
-112.2
0
LINE
8
BLACK
6
CONTINUOUS
10
212.211
20
-112.2
11
212.297
21
-112.217
0
LINE
8
BLACK
6
CONTINUOUS
10
136.85
20
-113.01
11
134.5
21
-113.01
0
LINE
8
BLACK
6
CONTINUOUS
10
134.5
20
-113.01
11
134.5
21
-110.51
0
LINE
8
BLACK
6
CONTINUOUS
10
134.5
20
-110.51
11
136.85
21
-110.51
0
LINE
8
BLACK
6
CONTINUOUS
10
136.85
20
-110.51
11
136.85
21
-113.01
0
LINE
8
BLACK
6
CONTINUOUS
10
174.95
20
-113.01
11
172.6
21
-113.01
0
LINE
8
BLACK
6
CONTINUOUS
10
172.6
20
-113.01
11
172.6
21
-110.51
0
LINE
8
BLACK
6
CONTINUOUS
10
172.6
20
-110.51
11
174.95
21
-110.51
0
LINE
8
BLACK
6
CONTINUOUS
10
174.95
20
-110.51
11
174.95
21
-113.01
0
LINE
8
BLACK
6
CONTINUOUS
10
155.401
20
-111.963
11
155.474
21
-112.012
0
LINE
8
BLACK
6
CONTINUOUS
10
155.474
20
-112.012
11
155.523
21
-112.085
0
LINE
8
BLACK
6
CONTINUOUS
10
155.523
20
-112.085
11
155.54
21
-112.171
0
LINE
8
BLACK
6
CONTINUOUS
10
155.54
20
-112.171
11
155.54
21
-112.621
0
LINE
8
BLACK
6
CONTINUOUS
10
155.54
20
-112.621
11
155.523
21
-112.707
0
LINE
8
BLACK
6
CONTINUOUS
10
155.523
20
-112.707
11
155.474
21
-112.78
0
LINE
8
BLACK
6
CONTINUOUS
10
155.474
20
-112.78
11
155.401
21
-112.829
0
LINE
8
BLACK
6
CONTINUOUS
10
155.401
20
-112.829
11
155.315
21
-112.846
0
LINE
8
BLACK
6
CONTINUOUS
10
155.315
20
-112.846
11
154.565
21
-112.846
0
LINE
8
BLACK
6
CONTINUOUS
10
154.565
20
-112.846
11
154.479
21
-112.829
0
LINE
8
BLACK
6
CONTINUOUS
10
154.479
20
-112.829
11
154.406
21
-112.78
0
LINE
8
BLACK
6
CONTINUOUS
10
154.406
20
-112.78
11
154.357
21
-112.707
0
LINE
8
BLACK
6
CONTINUOUS
10
154.357
20
-112.707
11
154.34
21
-112.621
0
LINE
8
BLACK
6
CONTINUOUS
10
154.34
20
-112.621
11
154.34
21
-112.171
0
LINE
8
BLACK
6
CONTINUOUS
10
154.34
20
-112.171
11
154.357
21
-112.085
0
LINE
8
BLACK
6
CONTINUOUS
10
154.357
20
-112.085
11
154.406
21
-112.012
0
LINE
8
BLACK
6
CONTINUOUS
10
154.406
20
-112.012
11
154.479
21
-111.963
0
LINE
8
BLACK
6
CONTINUOUS
10
154.479
20
-111.963
11
154.565
21
-111.946
0
LINE
8
BLACK
6
CONTINUOUS
10
154.565
20
-111.946
11
155.315
21
-111.946
0
LINE
8
BLACK
6
CONTINUOUS
10
155.315
20
-111.946
11
155.401
21
-111.963
0
LINE
8
BLACK
6
CONTINUOUS
10
193.501
20
-111.837
11
193.574
21
-111.886
0
LINE
8
BLACK
6
CONTINUOUS
10
193.574
20
-111.886
11
193.623
21
-111.959
0
LINE
8
BLACK
6
CONTINUOUS
10
193.623
20
-111.959
11
193.64
21
-112.045
0
LINE
8
BLACK
6
CONTINUOUS
10
193.64
20
-112.045
11
193.64
21
-112.495
0
LINE
8
BLACK
6
CONTINUOUS
10
193.64
20
-112.495
11
193.623
21
-112.581
0
LINE
8
BLACK
6
CONTINUOUS
10
193.623
20
-112.581
11
193.574
21
-112.654
0
LINE
8
BLACK
6
CONTINUOUS
10
193.574
20
-112.654
11
193.501
21
-112.703
0
LINE
8
BLACK
6
CONTINUOUS
10
193.501
20
-112.703
11
193.415
21
-112.72
0
LINE
8
BLACK
6
CONTINUOUS
10
193.415
20
-112.72
11
192.665
21
-112.72
0
LINE
8
BLACK
6
CONTINUOUS
10
192.665
20
-112.72
11
192.579
21
-112.703
0
LINE
8
BLACK
6
CONTINUOUS
10
192.579
20
-112.703
11
192.506
21
-112.654
0
LINE
8
BLACK
6
CONTINUOUS
10
192.506
20
-112.654
11
192.457
21
-112.581
0
LINE
8
BLACK
6
CONTINUOUS
10
192.457
20
-112.581
11
192.44
21
-112.495
0
LINE
8
BLACK
6
CONTINUOUS
10
192.44
20
-112.495
11
192.44
21
-112.045
0
LINE
8
BLACK
6
CONTINUOUS
10
192.44
20
-112.045
11
192.457
21
-111.959
0
LINE
8
BLACK
6
CONTINUOUS
10
192.457
20
-111.959
11
192.506
21
-111.886
0
LINE
8
BLACK
6
CONTINUOUS
10
192.506
20
-111.886
11
192.579
21
-111.837
0
LINE
8
BLACK
6
CONTINUOUS
10
192.579
20
-111.837
11
192.665
21
-111.82
0
LINE
8
BLACK
6
CONTINUOUS
10
192.665
20
-111.82
11
193.415
21
-111.82
0
LINE
8
BLACK
6
CONTINUOUS
10
193.415
20
-111.82
11
193.501
21
-111.837
0
LINE
8
BLACK
6
CONTINUOUS
10
150.375
20
-110.483
11
148.225
21
-110.483
0
LINE
8
BLACK
6
CONTINUOUS
10
148.225
20
-110.483
11
148.225
21
-107.983
0
LINE
8
BLACK
6
CONTINUOUS
10
148.225
20
-107.983
11
150.375
21
-107.983
0
LINE
8
BLACK
6
CONTINUOUS
10
150.375
20
-107.983
11
150.375
21
-110.483
0
LINE
8
BLACK
6
CONTINUOUS
10
188.475
20
-110.483
11
186.325
21
-110.483
0
LINE
8
BLACK
6
CONTINUOUS
10
186.325
20
-110.483
11
186.325
21
-107.983
0
LINE
8
BLACK
6
CONTINUOUS
10
186.325
20
-107.983
11
188.475
21
-107.983
0
LINE
8
BLACK
6
CONTINUOUS
10
188.475
20
-107.983
11
188.475
21
-110.483
0
LINE
8
BLACK
6
CONTINUOUS
10
91.2407
20
-109.068
11
91.3137
21
-109.116
0
LINE
8
BLACK
6
CONTINUOUS
10
91.3137
20
-109.116
11
91.3625
21
-109.189
0
LINE
8
BLACK
6
CONTINUOUS
10
91.3625
20
-109.189
11
91.3796
21
-109.275
0
LINE
8
BLACK
6
CONTINUOUS
10
91.3796
20
-109.275
11
91.3796
21
-109.725
0
LINE
8
BLACK
6
CONTINUOUS
10
91.3796
20
-109.725
11
91.3625
21
-109.812
0
LINE
8
BLACK
6
CONTINUOUS
10
91.3625
20
-109.812
11
91.3137
21
-109.884
0
LINE
8
BLACK
6
CONTINUOUS
10
91.3137
20
-109.884
11
91.2407
21
-109.933
0
LINE
8
BLACK
6
CONTINUOUS
10
91.2407
20
-109.933
11
91.1546
21
-109.95
0
LINE
8
BLACK
6
CONTINUOUS
10
91.1546
20
-109.95
11
90.4046
21
-109.95
0
LINE
8
BLACK
6
CONTINUOUS
10
90.4046
20
-109.95
11
90.3185
21
-109.933
0
LINE
8
BLACK
6
CONTINUOUS
10
90.3185
20
-109.933
11
90.2455
21
-109.884
0
LINE
8
BLACK
6
CONTINUOUS
10
90.2455
20
-109.884
11
90.1967
21
-109.812
0
LINE
8
BLACK
6
CONTINUOUS
10
90.1967
20
-109.812
11
90.1796
21
-109.725
0
LINE
8
BLACK
6
CONTINUOUS
10
90.1796
20
-109.725
11
90.1796
21
-109.275
0
LINE
8
BLACK
6
CONTINUOUS
10
90.1796
20
-109.275
11
90.1967
21
-109.189
0
LINE
8
BLACK
6
CONTINUOUS
10
90.1967
20
-109.189
11
90.2455
21
-109.116
0
LINE
8
BLACK
6
CONTINUOUS
10
90.2455
20
-109.116
11
90.3185
21
-109.068
0
LINE
8
BLACK
6
CONTINUOUS
10
90.3185
20
-109.068
11
90.4046
21
-109.05
0
LINE
8
BLACK
6
CONTINUOUS
10
90.4046
20
-109.05
11
91.1546
21
-109.05
0
LINE
8
BLACK
6
CONTINUOUS
10
91.1546
20
-109.05
11
91.2407
21
-109.068
0
LINE
8
BLACK
6
CONTINUOUS
10
93.5013
20
-109.068
11
93.5743
21
-109.116
0
LINE
8
BLACK
6
CONTINUOUS
10
93.5743
20
-109.116
11
93.6231
21
-109.189
0
LINE
8
BLACK
6
CONTINUOUS
10
93.6231
20
-109.189
11
93.6402
21
-109.275
0
LINE
8
BLACK
6
CONTINUOUS
10
93.6402
20
-109.275
11
93.6402
21
-109.725
0
LINE
8
BLACK
6
CONTINUOUS
10
93.6402
20
-109.725
11
93.6231
21
-109.812
0
LINE
8
BLACK
6
CONTINUOUS
10
93.6231
20
-109.812
11
93.5743
21
-109.884
0
LINE
8
BLACK
6
CONTINUOUS
10
93.5743
20
-109.884
11
93.5013
21
-109.933
0
LINE
8
BLACK
6
CONTINUOUS
10
93.5013
20
-109.933
11
93.4152
21
-109.95
0
LINE
8
BLACK
6
CONTINUOUS
10
93.4152
20
-109.95
11
92.6652
21
-109.95
0
LINE
8
BLACK
6
CONTINUOUS
10
92.6652
20
-109.95
11
92.5791
21
-109.933
0
LINE
8
BLACK
6
CONTINUOUS
10
92.5791
20
-109.933
11
92.5061
21
-109.884
0
LINE
8
BLACK
6
CONTINUOUS
10
92.5061
20
-109.884
11
92.4573
21
-109.812
0
LINE
8
BLACK
6
CONTINUOUS
10
92.4573
20
-109.812
11
92.4402
21
-109.725
0
LINE
8
BLACK
6
CONTINUOUS
10
92.4402
20
-109.725
11
92.4402
21
-109.275
0
LINE
8
BLACK
6
CONTINUOUS
10
92.4402
20
-109.275
11
92.4573
21
-109.189
0
LINE
8
BLACK
6
CONTINUOUS
10
92.4573
20
-109.189
11
92.5061
21
-109.116
0
LINE
8
BLACK
6
CONTINUOUS
10
92.5061
20
-109.116
11
92.5791
21
-109.068
0
LINE
8
BLACK
6
CONTINUOUS
10
92.5791
20
-109.068
11
92.6652
21
-109.05
0
LINE
8
BLACK
6
CONTINUOUS
10
92.6652
20
-109.05
11
93.4152
21
-109.05
0
LINE
8
BLACK
6
CONTINUOUS
10
93.4152
20
-109.05
11
93.5013
21
-109.068
0
LINE
8
BLACK
6
CONTINUOUS
10
155.9
20
-108.247
11
153.55
21
-108.247
0
LINE
8
BLACK
6
CONTINUOUS
10
153.55
20
-108.247
11
153.55
21
-105.748
0
LINE
8
BLACK
6
CONTINUOUS
10
153.55
20
-105.748
11
155.9
21
-105.748
0
LINE
8
BLACK
6
CONTINUOUS
10
155.9
20
-105.748
11
155.9
21
-108.247
0
LINE
8
BLACK
6
CONTINUOUS
10
194
20
-108.247
11
191.65
21
-108.247
0
LINE
8
BLACK
6
CONTINUOUS
10
191.65
20
-108.247
11
191.65
21
-105.748
0
LINE
8
BLACK
6
CONTINUOUS
10
191.65
20
-105.748
11
194
21
-105.748
0
LINE
8
BLACK
6
CONTINUOUS
10
194
20
-105.748
11
194
21
-108.247
0
LINE
8
BLACK
6
CONTINUOUS
10
213.05
20
-108.247
11
210.7
21
-108.247
0
LINE
8
BLACK
6
CONTINUOUS
10
210.7
20
-108.247
11
210.7
21
-105.748
0
LINE
8
BLACK
6
CONTINUOUS
10
210.7
20
-105.748
11
213.05
21
-105.748
0
LINE
8
BLACK
6
CONTINUOUS
10
213.05
20
-105.748
11
213.05
21
-108.247
0
LINE
8
BLACK
6
CONTINUOUS
10
117.301
20
-105.611
11
117.374
21
-105.66
0
LINE
8
BLACK
6
CONTINUOUS
10
117.374
20
-105.66
11
117.423
21
-105.733
0
LINE
8
BLACK
6
CONTINUOUS
10
117.423
20
-105.733
11
117.44
21
-105.819
0
LINE
8
BLACK
6
CONTINUOUS
10
117.44
20
-105.819
11
117.44
21
-106.269
0
LINE
8
BLACK
6
CONTINUOUS
10
117.44
20
-106.269
11
117.423
21
-106.355
0
LINE
8
BLACK
6
CONTINUOUS
10
117.423
20
-106.355
11
117.374
21
-106.428
0
LINE
8
BLACK
6
CONTINUOUS
10
117.374
20
-106.428
11
117.301
21
-106.477
0
LINE
8
BLACK
6
CONTINUOUS
10
117.301
20
-106.477
11
117.215
21
-106.494
0
LINE
8
BLACK
6
CONTINUOUS
10
117.215
20
-106.494
11
116.465
21
-106.494
0
LINE
8
BLACK
6
CONTINUOUS
10
116.465
20
-106.494
11
116.379
21
-106.477
0
LINE
8
BLACK
6
CONTINUOUS
10
116.379
20
-106.477
11
116.306
21
-106.428
0
LINE
8
BLACK
6
CONTINUOUS
10
116.306
20
-106.428
11
116.257
21
-106.355
0
LINE
8
BLACK
6
CONTINUOUS
10
116.257
20
-106.355
11
116.24
21
-106.269
0
LINE
8
BLACK
6
CONTINUOUS
10
116.24
20
-106.269
11
116.24
21
-105.819
0
LINE
8
BLACK
6
CONTINUOUS
10
116.24
20
-105.819
11
116.257
21
-105.733
0
LINE
8
BLACK
6
CONTINUOUS
10
116.257
20
-105.733
11
116.306
21
-105.66
0
LINE
8
BLACK
6
CONTINUOUS
10
116.306
20
-105.66
11
116.379
21
-105.611
0
LINE
8
BLACK
6
CONTINUOUS
10
116.379
20
-105.611
11
116.465
21
-105.594
0
LINE
8
BLACK
6
CONTINUOUS
10
116.465
20
-105.594
11
117.215
21
-105.594
0
LINE
8
BLACK
6
CONTINUOUS
10
117.215
20
-105.594
11
117.301
21
-105.611
0
LINE
8
BLACK
6
CONTINUOUS
10
169.425
20
-105.72
11
167.275
21
-105.72
0
LINE
8
BLACK
6
CONTINUOUS
10
167.275
20
-105.72
11
167.275
21
-103.22
0
LINE
8
BLACK
6
CONTINUOUS
10
167.275
20
-103.22
11
169.425
21
-103.22
0
LINE
8
BLACK
6
CONTINUOUS
10
169.425
20
-103.22
11
169.425
21
-105.72
0
LINE
8
BLACK
6
CONTINUOUS
10
207.525
20
-105.72
11
205.375
21
-105.72
0
LINE
8
BLACK
6
CONTINUOUS
10
205.375
20
-105.72
11
205.375
21
-103.22
0
LINE
8
BLACK
6
CONTINUOUS
10
205.375
20
-103.22
11
207.525
21
-103.22
0
LINE
8
BLACK
6
CONTINUOUS
10
207.525
20
-103.22
11
207.525
21
-105.72
0
LINE
8
BLACK
6
CONTINUOUS
10
226.575
20
-105.72
11
224.425
21
-105.72
0
LINE
8
BLACK
6
CONTINUOUS
10
224.425
20
-105.72
11
224.425
21
-103.22
0
LINE
8
BLACK
6
CONTINUOUS
10
224.425
20
-103.22
11
226.575
21
-103.22
0
LINE
8
BLACK
6
CONTINUOUS
10
226.575
20
-103.22
11
226.575
21
-105.72
0
LINE
8
BLACK
6
CONTINUOUS
10
117.301
20
-102.311
11
117.374
21
-102.36
0
LINE
8
BLACK
6
CONTINUOUS
10
117.374
20
-102.36
11
117.423
21
-102.433
0
LINE
8
BLACK
6
CONTINUOUS
10
117.423
20
-102.433
11
117.44
21
-102.519
0
LINE
8
BLACK
6
CONTINUOUS
10
117.44
20
-102.519
11
117.44
21
-102.969
0
LINE
8
BLACK
6
CONTINUOUS
10
117.44
20
-102.969
11
117.423
21
-103.055
0
LINE
8
BLACK
6
CONTINUOUS
10
117.423
20
-103.055
11
117.374
21
-103.128
0
LINE
8
BLACK
6
CONTINUOUS
10
117.374
20
-103.128
11
117.301
21
-103.177
0
LINE
8
BLACK
6
CONTINUOUS
10
117.301
20
-103.177
11
117.215
21
-103.194
0
LINE
8
BLACK
6
CONTINUOUS
10
117.215
20
-103.194
11
116.465
21
-103.194
0
LINE
8
BLACK
6
CONTINUOUS
10
116.465
20
-103.194
11
116.379
21
-103.177
0
LINE
8
BLACK
6
CONTINUOUS
10
116.379
20
-103.177
11
116.306
21
-103.128
0
LINE
8
BLACK
6
CONTINUOUS
10
116.306
20
-103.128
11
116.257
21
-103.055
0
LINE
8
BLACK
6
CONTINUOUS
10
116.257
20
-103.055
11
116.24
21
-102.969
0
LINE
8
BLACK
6
CONTINUOUS
10
116.24
20
-102.969
11
116.24
21
-102.519
0
LINE
8
BLACK
6
CONTINUOUS
10
116.24
20
-102.519
11
116.257
21
-102.433
0
LINE
8
BLACK
6
CONTINUOUS
10
116.257
20
-102.433
11
116.306
21
-102.36
0
LINE
8
BLACK
6
CONTINUOUS
10
116.306
20
-102.36
11
116.379
21
-102.311
0
LINE
8
BLACK
6
CONTINUOUS
10
116.379
20
-102.311
11
116.465
21
-102.294
0
LINE
8
BLACK
6
CONTINUOUS
10
116.465
20
-102.294
11
117.215
21
-102.294
0
LINE
8
BLACK
6
CONTINUOUS
10
117.215
20
-102.294
11
117.301
21
-102.311
0
LINE
8
BLACK
6
CONTINUOUS
10
136.351
20
-100.785
11
136.424
21
-100.834
0
LINE
8
BLACK
6
CONTINUOUS
10
136.424
20
-100.834
11
136.473
21
-100.907
0
LINE
8
BLACK
6
CONTINUOUS
10
136.473
20
-100.907
11
136.49
21
-100.993
0
LINE
8
BLACK
6
CONTINUOUS
10
136.49
20
-100.993
11
136.49
21
-101.443
0
LINE
8
BLACK
6
CONTINUOUS
10
136.49
20
-101.443
11
136.473
21
-101.529
0
LINE
8
BLACK
6
CONTINUOUS
10
136.473
20
-101.529
11
136.424
21
-101.602
0
LINE
8
BLACK
6
CONTINUOUS
10
136.424
20
-101.602
11
136.351
21
-101.651
0
LINE
8
BLACK
6
CONTINUOUS
10
136.351
20
-101.651
11
136.265
21
-101.668
0
LINE
8
BLACK
6
CONTINUOUS
10
136.265
20
-101.668
11
135.515
21
-101.668
0
LINE
8
BLACK
6
CONTINUOUS
10
135.515
20
-101.668
11
135.429
21
-101.651
0
LINE
8
BLACK
6
CONTINUOUS
10
135.429
20
-101.651
11
135.356
21
-101.602
0
LINE
8
BLACK
6
CONTINUOUS
10
135.356
20
-101.602
11
135.307
21
-101.529
0
LINE
8
BLACK
6
CONTINUOUS
10
135.307
20
-101.529
11
135.29
21
-101.443
0
LINE
8
BLACK
6
CONTINUOUS
10
135.29
20
-101.443
11
135.29
21
-100.993
0
LINE
8
BLACK
6
CONTINUOUS
10
135.29
20
-100.993
11
135.307
21
-100.907
0
LINE
8
BLACK
6
CONTINUOUS
10
135.307
20
-100.907
11
135.356
21
-100.834
0
LINE
8
BLACK
6
CONTINUOUS
10
135.356
20
-100.834
11
135.429
21
-100.785
0
LINE
8
BLACK
6
CONTINUOUS
10
135.429
20
-100.785
11
135.515
21
-100.768
0
LINE
8
BLACK
6
CONTINUOUS
10
135.515
20
-100.768
11
136.265
21
-100.768
0
LINE
8
BLACK
6
CONTINUOUS
10
136.265
20
-100.768
11
136.351
21
-100.785
0
LINE
8
BLACK
6
CONTINUOUS
10
174.451
20
-100.582
11
174.524
21
-100.631
0
LINE
8
BLACK
6
CONTINUOUS
10
174.524
20
-100.631
11
174.573
21
-100.704
0
LINE
8
BLACK
6
CONTINUOUS
10
174.573
20
-100.704
11
174.59
21
-100.79
0
LINE
8
BLACK
6
CONTINUOUS
10
174.59
20
-100.79
11
174.59
21
-101.24
0
LINE
8
BLACK
6
CONTINUOUS
10
174.59
20
-101.24
11
174.573
21
-101.326
0
LINE
8
BLACK
6
CONTINUOUS
10
174.573
20
-101.326
11
174.524
21
-101.399
0
LINE
8
BLACK
6
CONTINUOUS
10
174.524
20
-101.399
11
174.451
21
-101.448
0
LINE
8
BLACK
6
CONTINUOUS
10
174.451
20
-101.448
11
174.365
21
-101.465
0
LINE
8
BLACK
6
CONTINUOUS
10
174.365
20
-101.465
11
173.615
21
-101.465
0
LINE
8
BLACK
6
CONTINUOUS
10
173.615
20
-101.465
11
173.529
21
-101.448
0
LINE
8
BLACK
6
CONTINUOUS
10
173.529
20
-101.448
11
173.456
21
-101.399
0
LINE
8
BLACK
6
CONTINUOUS
10
173.456
20
-101.399
11
173.407
21
-101.326
0
LINE
8
BLACK
6
CONTINUOUS
10
173.407
20
-101.326
11
173.39
21
-101.24
0
LINE
8
BLACK
6
CONTINUOUS
10
173.39
20
-101.24
11
173.39
21
-100.79
0
LINE
8
BLACK
6
CONTINUOUS
10
173.39
20
-100.79
11
173.407
21
-100.704
0
LINE
8
BLACK
6
CONTINUOUS
10
173.407
20
-100.704
11
173.456
21
-100.631
0
LINE
8
BLACK
6
CONTINUOUS
10
173.456
20
-100.631
11
173.529
21
-100.582
0
LINE
8
BLACK
6
CONTINUOUS
10
173.529
20
-100.582
11
173.615
21
-100.565
0
LINE
8
BLACK
6
CONTINUOUS
10
173.615
20
-100.565
11
174.365
21
-100.565
0
LINE
8
BLACK
6
CONTINUOUS
10
174.365
20
-100.565
11
174.451
21
-100.582
0
LINE
8
BLACK
6
CONTINUOUS
10
117.8
20
-98.7225
11
115.45
21
-98.7225
0
LINE
8
BLACK
6
CONTINUOUS
10
115.45
20
-98.7225
11
115.45
21
-96.2225
0
LINE
8
BLACK
6
CONTINUOUS
10
115.45
20
-96.2225
11
117.8
21
-96.2225
0
LINE
8
BLACK
6
CONTINUOUS
10
117.8
20
-96.2225
11
117.8
21
-98.7225
0
LINE
8
BLACK
6
CONTINUOUS
10
136.351
20
-97.4851
11
136.424
21
-97.5339
0
LINE
8
BLACK
6
CONTINUOUS
10
136.424
20
-97.5339
11
136.473
21
-97.6069
0
LINE
8
BLACK
6
CONTINUOUS
10
136.473
20
-97.6069
11
136.49
21
-97.693
0
LINE
8
BLACK
6
CONTINUOUS
10
136.49
20
-97.693
11
136.49
21
-98.143
0
LINE
8
BLACK
6
CONTINUOUS
10
136.49
20
-98.143
11
136.473
21
-98.2291
0
LINE
8
BLACK
6
CONTINUOUS
10
136.473
20
-98.2291
11
136.424
21
-98.3021
0
LINE
8
BLACK
6
CONTINUOUS
10
136.424
20
-98.3021
11
136.351
21
-98.3509
0
LINE
8
BLACK
6
CONTINUOUS
10
136.351
20
-98.3509
11
136.265
21
-98.368
0
LINE
8
BLACK
6
CONTINUOUS
10
136.265
20
-98.368
11
135.515
21
-98.368
0
LINE
8
BLACK
6
CONTINUOUS
10
135.515
20
-98.368
11
135.429
21
-98.3509
0
LINE
8
BLACK
6
CONTINUOUS
10
135.429
20
-98.3509
11
135.356
21
-98.3021
0
LINE
8
BLACK
6
CONTINUOUS
10
135.356
20
-98.3021
11
135.307
21
-98.2291
0
LINE
8
BLACK
6
CONTINUOUS
10
135.307
20
-98.2291
11
135.29
21
-98.143
0
LINE
8
BLACK
6
CONTINUOUS
10
135.29
20
-98.143
11
135.29
21
-97.693
0
LINE
8
BLACK
6
CONTINUOUS
10
135.29
20
-97.693
11
135.307
21
-97.6069
0
LINE
8
BLACK
6
CONTINUOUS
10
135.307
20
-97.6069
11
135.356
21
-97.5339
0
LINE
8
BLACK
6
CONTINUOUS
10
135.356
20
-97.5339
11
135.429
21
-97.4851
0
LINE
8
BLACK
6
CONTINUOUS
10
135.429
20
-97.4851
11
135.515
21
-97.468
0
LINE
8
BLACK
6
CONTINUOUS
10
135.515
20
-97.468
11
136.265
21
-97.468
0
LINE
8
BLACK
6
CONTINUOUS
10
136.265
20
-97.468
11
136.351
21
-97.4851
0
LINE
8
BLACK
6
CONTINUOUS
10
174.451
20
-97.2819
11
174.524
21
-97.3307
0
LINE
8
BLACK
6
CONTINUOUS
10
174.524
20
-97.3307
11
174.573
21
-97.4037
0
LINE
8
BLACK
6
CONTINUOUS
10
174.573
20
-97.4037
11
174.59
21
-97.4898
0
LINE
8
BLACK
6
CONTINUOUS
10
174.59
20
-97.4898
11
174.59
21
-97.9398
0
LINE
8
BLACK
6
CONTINUOUS
10
174.59
20
-97.9398
11
174.573
21
-98.0259
0
LINE
8
BLACK
6
CONTINUOUS
10
174.573
20
-98.0259
11
174.524
21
-98.0989
0
LINE
8
BLACK
6
CONTINUOUS
10
174.524
20
-98.0989
11
174.451
21
-98.1477
0
LINE
8
BLACK
6
CONTINUOUS
10
174.451
20
-98.1477
11
174.365
21
-98.1648
0
LINE
8
BLACK
6
CONTINUOUS
10
174.365
20
-98.1648
11
173.615
21
-98.1648
0
LINE
8
BLACK
6
CONTINUOUS
10
173.615
20
-98.1648
11
173.529
21
-98.1477
0
LINE
8
BLACK
6
CONTINUOUS
10
173.529
20
-98.1477
11
173.456
21
-98.0989
0
LINE
8
BLACK
6
CONTINUOUS
10
173.456
20
-98.0989
11
173.407
21
-98.0259
0
LINE
8
BLACK
6
CONTINUOUS
10
173.407
20
-98.0259
11
173.39
21
-97.9398
0
LINE
8
BLACK
6
CONTINUOUS
10
173.39
20
-97.9398
11
173.39
21
-97.4898
0
LINE
8
BLACK
6
CONTINUOUS
10
173.39
20
-97.4898
11
173.407
21
-97.4037
0
LINE
8
BLACK
6
CONTINUOUS
10
173.407
20
-97.4037
11
173.456
21
-97.3307
0
LINE
8
BLACK
6
CONTINUOUS
10
173.456
20
-97.3307
11
173.529
21
-97.2819
0
LINE
8
BLACK
6
CONTINUOUS
10
173.529
20
-97.2819
11
173.615
21
-97.2648
0
LINE
8
BLACK
6
CONTINUOUS
10
173.615
20
-97.2648
11
174.365
21
-97.2648
0
LINE
8
BLACK
6
CONTINUOUS
10
174.365
20
-97.2648
11
174.451
21
-97.2819
0
LINE
8
BLACK
6
CONTINUOUS
10
155.401
20
-96.2131
11
155.474
21
-96.2619
0
LINE
8
BLACK
6
CONTINUOUS
10
155.474
20
-96.2619
11
155.523
21
-96.3349
0
LINE
8
BLACK
6
CONTINUOUS
10
155.523
20
-96.3349
11
155.54
21
-96.421
0
LINE
8
BLACK
6
CONTINUOUS
10
155.54
20
-96.421
11
155.54
21
-96.871
0
LINE
8
BLACK
6
CONTINUOUS
10
155.54
20
-96.871
11
155.523
21
-96.9571
0
LINE
8
BLACK
6
CONTINUOUS
10
155.523
20
-96.9571
11
155.474
21
-97.0301
0
LINE
8
BLACK
6
CONTINUOUS
10
155.474
20
-97.0301
11
155.401
21
-97.0789
0
LINE
8
BLACK
6
CONTINUOUS
10
155.401
20
-97.0789
11
155.315
21
-97.096
0
LINE
8
BLACK
6
CONTINUOUS
10
155.315
20
-97.096
11
154.565
21
-97.096
0
LINE
8
BLACK
6
CONTINUOUS
10
154.565
20
-97.096
11
154.479
21
-97.0789
0
LINE
8
BLACK
6
CONTINUOUS
10
154.479
20
-97.0789
11
154.406
21
-97.0301
0
LINE
8
BLACK
6
CONTINUOUS
10
154.406
20
-97.0301
11
154.357
21
-96.9571
0
LINE
8
BLACK
6
CONTINUOUS
10
154.357
20
-96.9571
11
154.34
21
-96.871
0
LINE
8
BLACK
6
CONTINUOUS
10
154.34
20
-96.871
11
154.34
21
-96.421
0
LINE
8
BLACK
6
CONTINUOUS
10
154.34
20
-96.421
11
154.357
21
-96.3349
0
LINE
8
BLACK
6
CONTINUOUS
10
154.357
20
-96.3349
11
154.406
21
-96.2619
0
LINE
8
BLACK
6
CONTINUOUS
10
154.406
20
-96.2619
11
154.479
21
-96.2131
0
LINE
8
BLACK
6
CONTINUOUS
10
154.479
20
-96.2131
11
154.565
21
-96.196
0
LINE
8
BLACK
6
CONTINUOUS
10
154.565
20
-96.196
11
155.315
21
-96.196
0
LINE
8
BLACK
6
CONTINUOUS
10
155.315
20
-96.196
11
155.401
21
-96.2131
0
LINE
8
BLACK
6
CONTINUOUS
10
193.501
20
-96.0871
11
193.574
21
-96.1359
0
LINE
8
BLACK
6
CONTINUOUS
10
193.574
20
-96.1359
11
193.623
21
-96.2089
0
LINE
8
BLACK
6
CONTINUOUS
10
193.623
20
-96.2089
11
193.64
21
-96.295
0
LINE
8
BLACK
6
CONTINUOUS
10
193.64
20
-96.295
11
193.64
21
-96.745
0
LINE
8
BLACK
6
CONTINUOUS
10
193.64
20
-96.745
11
193.623
21
-96.8311
0
LINE
8
BLACK
6
CONTINUOUS
10
193.623
20
-96.8311
11
193.574
21
-96.9041
0
LINE
8
BLACK
6
CONTINUOUS
10
193.574
20
-96.9041
11
193.501
21
-96.9529
0
LINE
8
BLACK
6
CONTINUOUS
10
193.501
20
-96.9529
11
193.415
21
-96.97
0
LINE
8
BLACK
6
CONTINUOUS
10
193.415
20
-96.97
11
192.665
21
-96.97
0
LINE
8
BLACK
6
CONTINUOUS
10
192.665
20
-96.97
11
192.579
21
-96.9529
0
LINE
8
BLACK
6
CONTINUOUS
10
192.579
20
-96.9529
11
192.506
21
-96.9041
0
LINE
8
BLACK
6
CONTINUOUS
10
192.506
20
-96.9041
11
192.457
21
-96.8311
0
LINE
8
BLACK
6
CONTINUOUS
10
192.457
20
-96.8311
11
192.44
21
-96.745
0
LINE
8
BLACK
6
CONTINUOUS
10
192.44
20
-96.745
11
192.44
21
-96.295
0
LINE
8
BLACK
6
CONTINUOUS
10
192.44
20
-96.295
11
192.457
21
-96.2089
0
LINE
8
BLACK
6
CONTINUOUS
10
192.457
20
-96.2089
11
192.506
21
-96.1359
0
LINE
8
BLACK
6
CONTINUOUS
10
192.506
20
-96.1359
11
192.579
21
-96.0871
0
LINE
8
BLACK
6
CONTINUOUS
10
192.579
20
-96.0871
11
192.665
21
-96.07
0
LINE
8
BLACK
6
CONTINUOUS
10
192.665
20
-96.07
11
193.415
21
-96.07
0
LINE
8
BLACK
6
CONTINUOUS
10
193.415
20
-96.07
11
193.501
21
-96.0871
0
LINE
8
BLACK
6
CONTINUOUS
10
212.551
20
-96.0871
11
212.624
21
-96.1359
0
LINE
8
BLACK
6
CONTINUOUS
10
212.624
20
-96.1359
11
212.673
21
-96.2089
0
LINE
8
BLACK
6
CONTINUOUS
10
212.673
20
-96.2089
11
212.69
21
-96.295
0
LINE
8
BLACK
6
CONTINUOUS
10
212.69
20
-96.295
11
212.69
21
-96.745
0
LINE
8
BLACK
6
CONTINUOUS
10
212.69
20
-96.745
11
212.673
21
-96.8311
0
LINE
8
BLACK
6
CONTINUOUS
10
212.673
20
-96.8311
11
212.624
21
-96.9041
0
LINE
8
BLACK
6
CONTINUOUS
10
212.624
20
-96.9041
11
212.551
21
-96.9529
0
LINE
8
BLACK
6
CONTINUOUS
10
212.551
20
-96.9529
11
212.465
21
-96.97
0
LINE
8
BLACK
6
CONTINUOUS
10
212.465
20
-96.97
11
211.715
21
-96.97
0
LINE
8
BLACK
6
CONTINUOUS
10
211.715
20
-96.97
11
211.629
21
-96.9529
0
LINE
8
BLACK
6
CONTINUOUS
10
211.629
20
-96.9529
11
211.556
21
-96.9041
0
LINE
8
BLACK
6
CONTINUOUS
10
211.556
20
-96.9041
11
211.507
21
-96.8311
0
LINE
8
BLACK
6
CONTINUOUS
10
211.507
20
-96.8311
11
211.49
21
-96.745
0
LINE
8
BLACK
6
CONTINUOUS
10
211.49
20
-96.745
11
211.49
21
-96.295
0
LINE
8
BLACK
6
CONTINUOUS
10
211.49
20
-96.295
11
211.507
21
-96.2089
0
LINE
8
BLACK
6
CONTINUOUS
10
211.507
20
-96.2089
11
211.556
21
-96.1359
0
LINE
8
BLACK
6
CONTINUOUS
10
211.556
20
-96.1359
11
211.629
21
-96.0871
0
LINE
8
BLACK
6
CONTINUOUS
10
211.629
20
-96.0871
11
211.715
21
-96.07
0
LINE
8
BLACK
6
CONTINUOUS
10
211.715
20
-96.07
11
212.465
21
-96.07
0
LINE
8
BLACK
6
CONTINUOUS
10
212.465
20
-96.07
11
212.551
21
-96.0871
0
LINE
8
BLACK
6
CONTINUOUS
10
131.325
20
-96.1952
11
129.175
21
-96.1952
0
LINE
8
BLACK
6
CONTINUOUS
10
129.175
20
-96.1952
11
129.175
21
-93.6952
0
LINE
8
BLACK
6
CONTINUOUS
10
129.175
20
-93.6952
11
131.325
21
-93.6952
0
LINE
8
BLACK
6
CONTINUOUS
10
131.325
20
-93.6952
11
131.325
21
-96.1952
0
LINE
8
BLACK
6
CONTINUOUS
10
136.85
20
-93.96
11
134.5
21
-93.96
0
LINE
8
BLACK
6
CONTINUOUS
10
134.5
20
-93.96
11
134.5
21
-91.46
0
LINE
8
BLACK
6
CONTINUOUS
10
134.5
20
-91.46
11
136.85
21
-91.46
0
LINE
8
BLACK
6
CONTINUOUS
10
136.85
20
-91.46
11
136.85
21
-93.96
0
LINE
8
BLACK
6
CONTINUOUS
10
174.95
20
-93.96
11
172.6
21
-93.96
0
LINE
8
BLACK
6
CONTINUOUS
10
172.6
20
-93.96
11
172.6
21
-91.46
0
LINE
8
BLACK
6
CONTINUOUS
10
172.6
20
-91.46
11
174.95
21
-91.46
0
LINE
8
BLACK
6
CONTINUOUS
10
174.95
20
-91.46
11
174.95
21
-93.96
0
LINE
8
BLACK
6
CONTINUOUS
10
155.401
20
-92.9131
11
155.474
21
-92.9619
0
LINE
8
BLACK
6
CONTINUOUS
10
155.474
20
-92.9619
11
155.523
21
-93.0349
0
LINE
8
BLACK
6
CONTINUOUS
10
155.523
20
-93.0349
11
155.54
21
-93.121
0
LINE
8
BLACK
6
CONTINUOUS
10
155.54
20
-93.121
11
155.54
21
-93.571
0
LINE
8
BLACK
6
CONTINUOUS
10
155.54
20
-93.571
11
155.523
21
-93.6571
0
LINE
8
BLACK
6
CONTINUOUS
10
155.523
20
-93.6571
11
155.474
21
-93.7301
0
LINE
8
BLACK
6
CONTINUOUS
10
155.474
20
-93.7301
11
155.401
21
-93.7789
0
LINE
8
BLACK
6
CONTINUOUS
10
155.401
20
-93.7789
11
155.315
21
-93.796
0
LINE
8
BLACK
6
CONTINUOUS
10
155.315
20
-93.796
11
154.565
21
-93.796
0
LINE
8
BLACK
6
CONTINUOUS
10
154.565
20
-93.796
11
154.479
21
-93.7789
0
LINE
8
BLACK
6
CONTINUOUS
10
154.479
20
-93.7789
11
154.406
21
-93.7301
0
LINE
8
BLACK
6
CONTINUOUS
10
154.406
20
-93.7301
11
154.357
21
-93.6571
0
LINE
8
BLACK
6
CONTINUOUS
10
154.357
20
-93.6571
11
154.34
21
-93.571
0
LINE
8
BLACK
6
CONTINUOUS
10
154.34
20
-93.571
11
154.34
21
-93.121
0
LINE
8
BLACK
6
CONTINUOUS
10
154.34
20
-93.121
11
154.357
21
-93.0349
0
LINE
8
BLACK
6
CONTINUOUS
10
154.357
20
-93.0349
11
154.406
21
-92.9619
0
LINE
8
BLACK
6
CONTINUOUS
10
154.406
20
-92.9619
11
154.479
21
-92.9131
0
LINE
8
BLACK
6
CONTINUOUS
10
154.479
20
-92.9131
11
154.565
21
-92.896
0
LINE
8
BLACK
6
CONTINUOUS
10
154.565
20
-92.896
11
155.315
21
-92.896
0
LINE
8
BLACK
6
CONTINUOUS
10
155.315
20
-92.896
11
155.401
21
-92.9131
0
LINE
8
BLACK
6
CONTINUOUS
10
193.501
20
-92.7871
11
193.574
21
-92.8359
0
LINE
8
BLACK
6
CONTINUOUS
10
193.574
20
-92.8359
11
193.623
21
-92.9089
0
LINE
8
BLACK
6
CONTINUOUS
10
193.623
20
-92.9089
11
193.64
21
-92.995
0
LINE
8
BLACK
6
CONTINUOUS
10
193.64
20
-92.995
11
193.64
21
-93.445
0
LINE
8
BLACK
6
CONTINUOUS
10
193.64
20
-93.445
11
193.623
21
-93.5311
0
LINE
8
BLACK
6
CONTINUOUS
10
193.623
20
-93.5311
11
193.574
21
-93.6041
0
LINE
8
BLACK
6
CONTINUOUS
10
193.574
20
-93.6041
11
193.501
21
-93.6529
0
LINE
8
BLACK
6
CONTINUOUS
10
193.501
20
-93.6529
11
193.415
21
-93.67
0
LINE
8
BLACK
6
CONTINUOUS
10
193.415
20
-93.67
11
192.665
21
-93.67
0
LINE
8
BLACK
6
CONTINUOUS
10
192.665
20
-93.67
11
192.579
21
-93.6529
0
LINE
8
BLACK
6
CONTINUOUS
10
192.579
20
-93.6529
11
192.506
21
-93.6041
0
LINE
8
BLACK
6
CONTINUOUS
10
192.506
20
-93.6041
11
192.457
21
-93.5311
0
LINE
8
BLACK
6
CONTINUOUS
10
192.457
20
-93.5311
11
192.44
21
-93.445
0
LINE
8
BLACK
6
CONTINUOUS
10
192.44
20
-93.445
11
192.44
21
-92.995
0
LINE
8
BLACK
6
CONTINUOUS
10
192.44
20
-92.995
11
192.457
21
-92.9089
0
LINE
8
BLACK
6
CONTINUOUS
10
192.457
20
-92.9089
11
192.506
21
-92.8359
0
LINE
8
BLACK
6
CONTINUOUS
10
192.506
20
-92.8359
11
192.579
21
-92.7871
0
LINE
8
BLACK
6
CONTINUOUS
10
192.579
20
-92.7871
11
192.665
21
-92.77
0
LINE
8
BLACK
6
CONTINUOUS
10
192.665
20
-92.77
11
193.415
21
-92.77
0
LINE
8
BLACK
6
CONTINUOUS
10
193.415
20
-92.77
11
193.501
21
-92.7871
0
LINE
8
BLACK
6
CONTINUOUS
10
212.551
20
-92.7871
11
212.624
21
-92.8359
0
LINE
8
BLACK
6
CONTINUOUS
10
212.624
20
-92.8359
11
212.673
21
-92.9089
0
LINE
8
BLACK
6
CONTINUOUS
10
212.673
20
-92.9089
11
212.69
21
-92.995
0
LINE
8
BLACK
6
CONTINUOUS
10
212.69
20
-92.995
11
212.69
21
-93.445
0
LINE
8
BLACK
6
CONTINUOUS
10
212.69
20
-93.445
11
212.673
21
-93.5311
0
LINE
8
BLACK
6
CONTINUOUS
10
212.673
20
-93.5311
11
212.624
21
-93.6041
0
LINE
8
BLACK
6
CONTINUOUS
10
212.624
20
-93.6041
11
212.551
21
-93.6529
0
LINE
8
BLACK
6
CONTINUOUS
10
212.551
20
-93.6529
11
212.465
21
-93.67
0
LINE
8
BLACK
6
CONTINUOUS
10
212.465
20
-93.67
11
211.715
21
-93.67
0
LINE
8
BLACK
6
CONTINUOUS
10
211.715
20
-93.67
11
211.629
21
-93.6529
0
LINE
8
BLACK
6
CONTINUOUS
10
211.629
20
-93.6529
11
211.556
21
-93.6041
0
LINE
8
BLACK
6
CONTINUOUS
10
211.556
20
-93.6041
11
211.507
21
-93.5311
0
LINE
8
BLACK
6
CONTINUOUS
10
211.507
20
-93.5311
11
211.49
21
-93.445
0
LINE
8
BLACK
6
CONTINUOUS
10
211.49
20
-93.445
11
211.49
21
-92.995
0
LINE
8
BLACK
6
CONTINUOUS
10
211.49
20
-92.995
11
211.507
21
-92.9089
0
LINE
8
BLACK
6
CONTINUOUS
10
211.507
20
-92.9089
11
211.556
21
-92.8359
0
LINE
8
BLACK
6
CONTINUOUS
10
211.556
20
-92.8359
11
211.629
21
-92.7871
0
LINE
8
BLACK
6
CONTINUOUS
10
211.629
20
-92.7871
11
211.715
21
-92.77
0
LINE
8
BLACK
6
CONTINUOUS
10
211.715
20
-92.77
11
212.465
21
-92.77
0
LINE
8
BLACK
6
CONTINUOUS
10
212.465
20
-92.77
11
212.551
21
-92.7871
0
LINE
8
BLACK
6
CONTINUOUS
10
150.375
20
-91.4327
11
148.225
21
-91.4327
0
LINE
8
BLACK
6
CONTINUOUS
10
148.225
20
-91.4327
11
148.225
21
-88.9327
0
LINE
8
BLACK
6
CONTINUOUS
10
148.225
20
-88.9327
11
150.375
21
-88.9327
0
LINE
8
BLACK
6
CONTINUOUS
10
150.375
20
-88.9327
11
150.375
21
-91.4327
0
LINE
8
BLACK
6
CONTINUOUS
10
188.475
20
-91.4327
11
186.325
21
-91.4327
0
LINE
8
BLACK
6
CONTINUOUS
10
186.325
20
-91.4327
11
186.325
21
-88.9327
0
LINE
8
BLACK
6
CONTINUOUS
10
186.325
20
-88.9327
11
188.475
21
-88.9327
0
LINE
8
BLACK
6
CONTINUOUS
10
188.475
20
-88.9327
11
188.475
21
-91.4327
0
LINE
8
BLACK
6
CONTINUOUS
10
155.9
20
-89.1975
11
153.55
21
-89.1975
0
LINE
8
BLACK
6
CONTINUOUS
10
153.55
20
-89.1975
11
153.55
21
-86.6975
0
LINE
8
BLACK
6
CONTINUOUS
10
153.55
20
-86.6975
11
155.9
21
-86.6975
0
LINE
8
BLACK
6
CONTINUOUS
10
155.9
20
-86.6975
11
155.9
21
-89.1975
0
LINE
8
BLACK
6
CONTINUOUS
10
194
20
-89.1975
11
191.65
21
-89.1975
0
LINE
8
BLACK
6
CONTINUOUS
10
191.65
20
-89.1975
11
191.65
21
-86.6975
0
LINE
8
BLACK
6
CONTINUOUS
10
191.65
20
-86.6975
11
194
21
-86.6975
0
LINE
8
BLACK
6
CONTINUOUS
10
194
20
-86.6975
11
194
21
-89.1975
0
LINE
8
BLACK
6
CONTINUOUS
10
213.05
20
-89.1975
11
210.7
21
-89.1975
0
LINE
8
BLACK
6
CONTINUOUS
10
210.7
20
-89.1975
11
210.7
21
-86.6975
0
LINE
8
BLACK
6
CONTINUOUS
10
210.7
20
-86.6975
11
213.05
21
-86.6975
0
LINE
8
BLACK
6
CONTINUOUS
10
213.05
20
-86.6975
11
213.05
21
-89.1975
0
LINE
8
BLACK
6
CONTINUOUS
10
117.301
20
-86.8151
11
117.374
21
-86.8639
0
LINE
8
BLACK
6
CONTINUOUS
10
117.374
20
-86.8639
11
117.423
21
-86.9369
0
LINE
8
BLACK
6
CONTINUOUS
10
117.423
20
-86.9369
11
117.44
21
-87.023
0
LINE
8
BLACK
6
CONTINUOUS
10
117.44
20
-87.023
11
117.44
21
-87.473
0
LINE
8
BLACK
6
CONTINUOUS
10
117.44
20
-87.473
11
117.423
21
-87.5591
0
LINE
8
BLACK
6
CONTINUOUS
10
117.423
20
-87.5591
11
117.374
21
-87.6321
0
LINE
8
BLACK
6
CONTINUOUS
10
117.374
20
-87.6321
11
117.301
21
-87.6809
0
LINE
8
BLACK
6
CONTINUOUS
10
117.301
20
-87.6809
11
117.215
21
-87.698
0
LINE
8
BLACK
6
CONTINUOUS
10
117.215
20
-87.698
11
116.465
21
-87.698
0
LINE
8
BLACK
6
CONTINUOUS
10
116.465
20
-87.698
11
116.379
21
-87.6809
0
LINE
8
BLACK
6
CONTINUOUS
10
116.379
20
-87.6809
11
116.306
21
-87.6321
0
LINE
8
BLACK
6
CONTINUOUS
10
116.306
20
-87.6321
11
116.257
21
-87.5591
0
LINE
8
BLACK
6
CONTINUOUS
10
116.257
20
-87.5591
11
116.24
21
-87.473
0
LINE
8
BLACK
6
CONTINUOUS
10
116.24
20
-87.473
11
116.24
21
-87.023
0
LINE
8
BLACK
6
CONTINUOUS
10
116.24
20
-87.023
11
116.257
21
-86.9369
0
LINE
8
BLACK
6
CONTINUOUS
10
116.257
20
-86.9369
11
116.306
21
-86.8639
0
LINE
8
BLACK
6
CONTINUOUS
10
116.306
20
-86.8639
11
116.379
21
-86.8151
0
LINE
8
BLACK
6
CONTINUOUS
10
116.379
20
-86.8151
11
116.465
21
-86.798
0
LINE
8
BLACK
6
CONTINUOUS
10
116.465
20
-86.798
11
117.215
21
-86.798
0
LINE
8
BLACK
6
CONTINUOUS
10
117.215
20
-86.798
11
117.301
21
-86.8151
0
LINE
8
BLACK
6
CONTINUOUS
10
169.425
20
-86.6702
11
167.275
21
-86.6702
0
LINE
8
BLACK
6
CONTINUOUS
10
167.275
20
-86.6702
11
167.275
21
-84.1702
0
LINE
8
BLACK
6
CONTINUOUS
10
167.275
20
-84.1702
11
169.425
21
-84.1702
0
LINE
8
BLACK
6
CONTINUOUS
10
169.425
20
-84.1702
11
169.425
21
-86.6702
0
LINE
8
BLACK
6
CONTINUOUS
10
207.525
20
-86.6702
11
205.375
21
-86.6702
0
LINE
8
BLACK
6
CONTINUOUS
10
205.375
20
-86.6702
11
205.375
21
-84.1702
0
LINE
8
BLACK
6
CONTINUOUS
10
205.375
20
-84.1702
11
207.525
21
-84.1702
0
LINE
8
BLACK
6
CONTINUOUS
10
207.525
20
-84.1702
11
207.525
21
-86.6702
0
LINE
8
BLACK
6
CONTINUOUS
10
226.575
20
-86.6702
11
224.425
21
-86.6702
0
LINE
8
BLACK
6
CONTINUOUS
10
224.425
20
-86.6702
11
224.425
21
-84.1702
0
LINE
8
BLACK
6
CONTINUOUS
10
224.425
20
-84.1702
11
226.575
21
-84.1702
0
LINE
8
BLACK
6
CONTINUOUS
10
226.575
20
-84.1702
11
226.575
21
-86.6702
0
LINE
8
BLACK
6
CONTINUOUS
10
117.301
20
-83.5151
11
117.374
21
-83.5639
0
LINE
8
BLACK
6
CONTINUOUS
10
117.374
20
-83.5639
11
117.423
21
-83.6369
0
LINE
8
BLACK
6
CONTINUOUS
10
117.423
20
-83.6369
11
117.44
21
-83.723
0
LINE
8
BLACK
6
CONTINUOUS
10
117.44
20
-83.723
11
117.44
21
-84.173
0
LINE
8
BLACK
6
CONTINUOUS
10
117.44
20
-84.173
11
117.423
21
-84.2591
0
LINE
8
BLACK
6
CONTINUOUS
10
117.423
20
-84.2591
11
117.374
21
-84.3321
0
LINE
8
BLACK
6
CONTINUOUS
10
117.374
20
-84.3321
11
117.301
21
-84.3809
0
LINE
8
BLACK
6
CONTINUOUS
10
117.301
20
-84.3809
11
117.215
21
-84.398
0
LINE
8
BLACK
6
CONTINUOUS
10
117.215
20
-84.398
11
116.465
21
-84.398
0
LINE
8
BLACK
6
CONTINUOUS
10
116.465
20
-84.398
11
116.379
21
-84.3809
0
LINE
8
BLACK
6
CONTINUOUS
10
116.379
20
-84.3809
11
116.306
21
-84.3321
0
LINE
8
BLACK
6
CONTINUOUS
10
116.306
20
-84.3321
11
116.257
21
-84.2591
0
LINE
8
BLACK
6
CONTINUOUS
10
116.257
20
-84.2591
11
116.24
21
-84.173
0
LINE
8
BLACK
6
CONTINUOUS
10
116.24
20
-84.173
11
116.24
21
-83.723
0
LINE
8
BLACK
6
CONTINUOUS
10
116.24
20
-83.723
11
116.257
21
-83.6369
0
LINE
8
BLACK
6
CONTINUOUS
10
116.257
20
-83.6369
11
116.306
21
-83.5639
0
LINE
8
BLACK
6
CONTINUOUS
10
116.306
20
-83.5639
11
116.379
21
-83.5151
0
LINE
8
BLACK
6
CONTINUOUS
10
116.379
20
-83.5151
11
116.465
21
-83.498
0
LINE
8
BLACK
6
CONTINUOUS
10
116.465
20
-83.498
11
117.215
21
-83.498
0
LINE
8
BLACK
6
CONTINUOUS
10
117.215
20
-83.498
11
117.301
21
-83.5151
0
LINE
8
BLACK
6
CONTINUOUS
10
174.451
20
-81.9891
11
174.524
21
-82.0379
0
LINE
8
BLACK
6
CONTINUOUS
10
174.524
20
-82.0379
11
174.573
21
-82.1109
0
LINE
8
BLACK
6
CONTINUOUS
10
174.573
20
-82.1109
11
174.59
21
-82.197
0
LINE
8
BLACK
6
CONTINUOUS
10
174.59
20
-82.197
11
174.59
21
-82.647
0
LINE
8
BLACK
6
CONTINUOUS
10
174.59
20
-82.647
11
174.573
21
-82.7331
0
LINE
8
BLACK
6
CONTINUOUS
10
174.573
20
-82.7331
11
174.524
21
-82.8061
0
LINE
8
BLACK
6
CONTINUOUS
10
174.524
20
-82.8061
11
174.451
21
-82.8549
0
LINE
8
BLACK
6
CONTINUOUS
10
174.451
20
-82.8549
11
174.365
21
-82.872
0
LINE
8
BLACK
6
CONTINUOUS
10
174.365
20
-82.872
11
173.615
21
-82.872
0
LINE
8
BLACK
6
CONTINUOUS
10
173.615
20
-82.872
11
173.529
21
-82.8549
0
LINE
8
BLACK
6
CONTINUOUS
10
173.529
20
-82.8549
11
173.456
21
-82.8061
0
LINE
8
BLACK
6
CONTINUOUS
10
173.456
20
-82.8061
11
173.407
21
-82.7331
0
LINE
8
BLACK
6
CONTINUOUS
10
173.407
20
-82.7331
11
173.39
21
-82.647
0
LINE
8
BLACK
6
CONTINUOUS
10
173.39
20
-82.647
11
173.39
21
-82.197
0
LINE
8
BLACK
6
CONTINUOUS
10
173.39
20
-82.197
11
173.407
21
-82.1109
0
LINE
8
BLACK
6
CONTINUOUS
10
173.407
20
-82.1109
11
173.456
21
-82.0379
0
LINE
8
BLACK
6
CONTINUOUS
10
173.456
20
-82.0379
11
173.529
21
-81.9891
0
LINE
8
BLACK
6
CONTINUOUS
10
173.529
20
-81.9891
11
173.615
21
-81.972
0
LINE
8
BLACK
6
CONTINUOUS
10
173.615
20
-81.972
11
174.365
21
-81.972
0
LINE
8
BLACK
6
CONTINUOUS
10
174.365
20
-81.972
11
174.451
21
-81.9891
0
LINE
8
BLACK
6
CONTINUOUS
10
136.351
20
-81.8631
11
136.424
21
-81.9119
0
LINE
8
BLACK
6
CONTINUOUS
10
136.424
20
-81.9119
11
136.473
21
-81.9849
0
LINE
8
BLACK
6
CONTINUOUS
10
136.473
20
-81.9849
11
136.49
21
-82.071
0
LINE
8
BLACK
6
CONTINUOUS
10
136.49
20
-82.071
11
136.49
21
-82.521
0
LINE
8
BLACK
6
CONTINUOUS
10
136.49
20
-82.521
11
136.473
21
-82.6071
0
LINE
8
BLACK
6
CONTINUOUS
10
136.473
20
-82.6071
11
136.424
21
-82.6801
0
LINE
8
BLACK
6
CONTINUOUS
10
136.424
20
-82.6801
11
136.351
21
-82.7289
0
LINE
8
BLACK
6
CONTINUOUS
10
136.351
20
-82.7289
11
136.265
21
-82.746
0
LINE
8
BLACK
6
CONTINUOUS
10
136.265
20
-82.746
11
135.515
21
-82.746
0
LINE
8
BLACK
6
CONTINUOUS
10
135.515
20
-82.746
11
135.429
21
-82.7289
0
LINE
8
BLACK
6
CONTINUOUS
10
135.429
20
-82.7289
11
135.356
21
-82.6801
0
LINE
8
BLACK
6
CONTINUOUS
10
135.356
20
-82.6801
11
135.307
21
-82.6071
0
LINE
8
BLACK
6
CONTINUOUS
10
135.307
20
-82.6071
11
135.29
21
-82.521
0
LINE
8
BLACK
6
CONTINUOUS
10
135.29
20
-82.521
11
135.29
21
-82.071
0
LINE
8
BLACK
6
CONTINUOUS
10
135.29
20
-82.071
11
135.307
21
-81.9849
0
LINE
8
BLACK
6
CONTINUOUS
10
135.307
20
-81.9849
11
135.356
21
-81.9119
0
LINE
8
BLACK
6
CONTINUOUS
10
135.356
20
-81.9119
11
135.429
21
-81.8631
0
LINE
8
BLACK
6
CONTINUOUS
10
135.429
20
-81.8631
11
135.515
21
-81.846
0
LINE
8
BLACK
6
CONTINUOUS
10
135.515
20
-81.846
11
136.265
21
-81.846
0
LINE
8
BLACK
6
CONTINUOUS
10
136.265
20
-81.846
11
136.351
21
-81.8631
0
LINE
8
BLACK
6
CONTINUOUS
10
117.8
20
-79.6725
11
115.45
21
-79.6725
0
LINE
8
BLACK
6
CONTINUOUS
10
115.45
20
-79.6725
11
115.45
21
-77.1725
0
LINE
8
BLACK
6
CONTINUOUS
10
115.45
20
-77.1725
11
117.8
21
-77.1725
0
LINE
8
BLACK
6
CONTINUOUS
10
117.8
20
-77.1725
11
117.8
21
-79.6725
0
LINE
8
BLACK
6
CONTINUOUS
10
174.451
20
-78.6891
11
174.524
21
-78.7379
0
LINE
8
BLACK
6
CONTINUOUS
10
174.524
20
-78.7379
11
174.573
21
-78.8109
0
LINE
8
BLACK
6
CONTINUOUS
10
174.573
20
-78.8109
11
174.59
21
-78.897
0
LINE
8
BLACK
6
CONTINUOUS
10
174.59
20
-78.897
11
174.59
21
-79.347
0
LINE
8
BLACK
6
CONTINUOUS
10
174.59
20
-79.347
11
174.573
21
-79.4331
0
LINE
8
BLACK
6
CONTINUOUS
10
174.573
20
-79.4331
11
174.524
21
-79.5061
0
LINE
8
BLACK
6
CONTINUOUS
10
174.524
20
-79.5061
11
174.451
21
-79.5549
0
LINE
8
BLACK
6
CONTINUOUS
10
174.451
20
-79.5549
11
174.365
21
-79.572
0
LINE
8
BLACK
6
CONTINUOUS
10
174.365
20
-79.572
11
173.615
21
-79.572
0
LINE
8
BLACK
6
CONTINUOUS
10
173.615
20
-79.572
11
173.529
21
-79.5549
0
LINE
8
BLACK
6
CONTINUOUS
10
173.529
20
-79.5549
11
173.456
21
-79.5061
0
LINE
8
BLACK
6
CONTINUOUS
10
173.456
20
-79.5061
11
173.407
21
-79.4331
0
LINE
8
BLACK
6
CONTINUOUS
10
173.407
20
-79.4331
11
173.39
21
-79.347
0
LINE
8
BLACK
6
CONTINUOUS
10
173.39
20
-79.347
11
173.39
21
-78.897
0
LINE
8
BLACK
6
CONTINUOUS
10
173.39
20
-78.897
11
173.407
21
-78.8109
0
LINE
8
BLACK
6
CONTINUOUS
10
173.407
20
-78.8109
11
173.456
21
-78.7379
0
LINE
8
BLACK
6
CONTINUOUS
10
173.456
20
-78.7379
11
173.529
21
-78.6891
0
LINE
8
BLACK
6
CONTINUOUS
10
173.529
20
-78.6891
11
173.615
21
-78.672
0
LINE
8
BLACK
6
CONTINUOUS
10
173.615
20
-78.672
11
174.365
21
-78.672
0
LINE
8
BLACK
6
CONTINUOUS
10
174.365
20
-78.672
11
174.451
21
-78.6891
0
LINE
8
BLACK
6
CONTINUOUS
10
136.351
20
-78.5631
11
136.424
21
-78.6119
0
LINE
8
BLACK
6
CONTINUOUS
10
136.424
20
-78.6119
11
136.473
21
-78.6849
0
LINE
8
BLACK
6
CONTINUOUS
10
136.473
20
-78.6849
11
136.49
21
-78.771
0
LINE
8
BLACK
6
CONTINUOUS
10
136.49
20
-78.771
11
136.49
21
-79.221
0
LINE
8
BLACK
6
CONTINUOUS
10
136.49
20
-79.221
11
136.473
21
-79.3071
0
LINE
8
BLACK
6
CONTINUOUS
10
136.473
20
-79.3071
11
136.424
21
-79.3801
0
LINE
8
BLACK
6
CONTINUOUS
10
136.424
20
-79.3801
11
136.351
21
-79.4289
0
LINE
8
BLACK
6
CONTINUOUS
10
136.351
20
-79.4289
11
136.265
21
-79.446
0
LINE
8
BLACK
6
CONTINUOUS
10
136.265
20
-79.446
11
135.515
21
-79.446
0
LINE
8
BLACK
6
CONTINUOUS
10
135.515
20
-79.446
11
135.429
21
-79.4289
0
LINE
8
BLACK
6
CONTINUOUS
10
135.429
20
-79.4289
11
135.356
21
-79.3801
0
LINE
8
BLACK
6
CONTINUOUS
10
135.356
20
-79.3801
11
135.307
21
-79.3071
0
LINE
8
BLACK
6
CONTINUOUS
10
135.307
20
-79.3071
11
135.29
21
-79.221
0
LINE
8
BLACK
6
CONTINUOUS
10
135.29
20
-79.221
11
135.29
21
-78.771
0
LINE
8
BLACK
6
CONTINUOUS
10
135.29
20
-78.771
11
135.307
21
-78.6849
0
LINE
8
BLACK
6
CONTINUOUS
10
135.307
20
-78.6849
11
135.356
21
-78.6119
0
LINE
8
BLACK
6
CONTINUOUS
10
135.356
20
-78.6119
11
135.429
21
-78.5631
0
LINE
8
BLACK
6
CONTINUOUS
10
135.429
20
-78.5631
11
135.515
21
-78.546
0
LINE
8
BLACK
6
CONTINUOUS
10
135.515
20
-78.546
11
136.265
21
-78.546
0
LINE
8
BLACK
6
CONTINUOUS
10
136.265
20
-78.546
11
136.351
21
-78.5631
0
LINE
8
BLACK
6
CONTINUOUS
10
155.401
20
-77.2911
11
155.474
21
-77.3399
0
LINE
8
BLACK
6
CONTINUOUS
10
155.474
20
-77.3399
11
155.523
21
-77.4129
0
LINE
8
BLACK
6
CONTINUOUS
10
155.523
20
-77.4129
11
155.54
21
-77.499
0
LINE
8
BLACK
6
CONTINUOUS
10
155.54
20
-77.499
11
155.54
21
-77.949
0
LINE
8
BLACK
6
CONTINUOUS
10
155.54
20
-77.949
11
155.523
21
-78.0351
0
LINE
8
BLACK
6
CONTINUOUS
10
155.523
20
-78.0351
11
155.474
21
-78.1081
0
LINE
8
BLACK
6
CONTINUOUS
10
155.474
20
-78.1081
11
155.401
21
-78.1569
0
LINE
8
BLACK
6
CONTINUOUS
10
155.401
20
-78.1569
11
155.315
21
-78.174
0
LINE
8
BLACK
6
CONTINUOUS
10
155.315
20
-78.174
11
154.565
21
-78.174
0
LINE
8
BLACK
6
CONTINUOUS
10
154.565
20
-78.174
11
154.479
21
-78.1569
0
LINE
8
BLACK
6
CONTINUOUS
10
154.479
20
-78.1569
11
154.406
21
-78.1081
0
LINE
8
BLACK
6
CONTINUOUS
10
154.406
20
-78.1081
11
154.357
21
-78.0351
0
LINE
8
BLACK
6
CONTINUOUS
10
154.357
20
-78.0351
11
154.34
21
-77.949
0
LINE
8
BLACK
6
CONTINUOUS
10
154.34
20
-77.949
11
154.34
21
-77.499
0
LINE
8
BLACK
6
CONTINUOUS
10
154.34
20
-77.499
11
154.357
21
-77.4129
0
LINE
8
BLACK
6
CONTINUOUS
10
154.357
20
-77.4129
11
154.406
21
-77.3399
0
LINE
8
BLACK
6
CONTINUOUS
10
154.406
20
-77.3399
11
154.479
21
-77.2911
0
LINE
8
BLACK
6
CONTINUOUS
10
154.479
20
-77.2911
11
154.565
21
-77.274
0
LINE
8
BLACK
6
CONTINUOUS
10
154.565
20
-77.274
11
155.315
21
-77.274
0
LINE
8
BLACK
6
CONTINUOUS
10
155.315
20
-77.274
11
155.401
21
-77.2911
0
LINE
8
BLACK
6
CONTINUOUS
10
193.247
20
-77.0371
11
193.32
21
-77.0859
0
LINE
8
BLACK
6
CONTINUOUS
10
193.32
20
-77.0859
11
193.369
21
-77.1589
0
LINE
8
BLACK
6
CONTINUOUS
10
193.369
20
-77.1589
11
193.386
21
-77.245
0
LINE
8
BLACK
6
CONTINUOUS
10
193.386
20
-77.245
11
193.386
21
-77.695
0
LINE
8
BLACK
6
CONTINUOUS
10
193.386
20
-77.695
11
193.369
21
-77.7811
0
LINE
8
BLACK
6
CONTINUOUS
10
193.369
20
-77.7811
11
193.32
21
-77.8541
0
LINE
8
BLACK
6
CONTINUOUS
10
193.32
20
-77.8541
11
193.247
21
-77.9029
0
LINE
8
BLACK
6
CONTINUOUS
10
193.247
20
-77.9029
11
193.161
21
-77.92
0
LINE
8
BLACK
6
CONTINUOUS
10
193.161
20
-77.92
11
192.411
21
-77.92
0
LINE
8
BLACK
6
CONTINUOUS
10
192.411
20
-77.92
11
192.325
21
-77.9029
0
LINE
8
BLACK
6
CONTINUOUS
10
192.325
20
-77.9029
11
192.252
21
-77.8541
0
LINE
8
BLACK
6
CONTINUOUS
10
192.252
20
-77.8541
11
192.203
21
-77.7811
0
LINE
8
BLACK
6
CONTINUOUS
10
192.203
20
-77.7811
11
192.186
21
-77.695
0
LINE
8
BLACK
6
CONTINUOUS
10
192.186
20
-77.695
11
192.186
21
-77.245
0
LINE
8
BLACK
6
CONTINUOUS
10
192.186
20
-77.245
11
192.203
21
-77.1589
0
LINE
8
BLACK
6
CONTINUOUS
10
192.203
20
-77.1589
11
192.252
21
-77.0859
0
LINE
8
BLACK
6
CONTINUOUS
10
192.252
20
-77.0859
11
192.325
21
-77.0371
0
LINE
8
BLACK
6
CONTINUOUS
10
192.325
20
-77.0371
11
192.411
21
-77.02
0
LINE
8
BLACK
6
CONTINUOUS
10
192.411
20
-77.02
11
193.161
21
-77.02
0
LINE
8
BLACK
6
CONTINUOUS
10
193.161
20
-77.02
11
193.247
21
-77.0371
0
LINE
8
BLACK
6
CONTINUOUS
10
212.551
20
-77.0371
11
212.624
21
-77.0859
0
LINE
8
BLACK
6
CONTINUOUS
10
212.624
20
-77.0859
11
212.673
21
-77.1589
0
LINE
8
BLACK
6
CONTINUOUS
10
212.673
20
-77.1589
11
212.69
21
-77.245
0
LINE
8
BLACK
6
CONTINUOUS
10
212.69
20
-77.245
11
212.69
21
-77.695
0
LINE
8
BLACK
6
CONTINUOUS
10
212.69
20
-77.695
11
212.673
21
-77.7811
0
LINE
8
BLACK
6
CONTINUOUS
10
212.673
20
-77.7811
11
212.624
21
-77.8541
0
LINE
8
BLACK
6
CONTINUOUS
10
212.624
20
-77.8541
11
212.551
21
-77.9029
0
LINE
8
BLACK
6
CONTINUOUS
10
212.551
20
-77.9029
11
212.465
21
-77.92
0
LINE
8
BLACK
6
CONTINUOUS
10
212.465
20
-77.92
11
211.715
21
-77.92
0
LINE
8
BLACK
6
CONTINUOUS
10
211.715
20
-77.92
11
211.629
21
-77.9029
0
LINE
8
BLACK
6
CONTINUOUS
10
211.629
20
-77.9029
11
211.556
21
-77.8541
0
LINE
8
BLACK
6
CONTINUOUS
10
211.556
20
-77.8541
11
211.507
21
-77.7811
0
LINE
8
BLACK
6
CONTINUOUS
10
211.507
20
-77.7811
11
211.49
21
-77.695
0
LINE
8
BLACK
6
CONTINUOUS
10
211.49
20
-77.695
11
211.49
21
-77.245
0
LINE
8
BLACK
6
CONTINUOUS
10
211.49
20
-77.245
11
211.507
21
-77.1589
0
LINE
8
BLACK
6
CONTINUOUS
10
211.507
20
-77.1589
11
211.556
21
-77.0859
0
LINE
8
BLACK
6
CONTINUOUS
10
211.556
20
-77.0859
11
211.629
21
-77.0371
0
LINE
8
BLACK
6
CONTINUOUS
10
211.629
20
-77.0371
11
211.715
21
-77.02
0
LINE
8
BLACK
6
CONTINUOUS
10
211.715
20
-77.02
11
212.465
21
-77.02
0
LINE
8
BLACK
6
CONTINUOUS
10
212.465
20
-77.02
11
212.551
21
-77.0371
0
LINE
8
BLACK
6
CONTINUOUS
10
131.325
20
-77.1452
11
129.175
21
-77.1452
0
LINE
8
BLACK
6
CONTINUOUS
10
129.175
20
-77.1452
11
129.175
21
-74.6452
0
LINE
8
BLACK
6
CONTINUOUS
10
129.175
20
-74.6452
11
131.325
21
-74.6452
0
LINE
8
BLACK
6
CONTINUOUS
10
131.325
20
-74.6452
11
131.325
21
-77.1452
0
LINE
8
BLACK
6
CONTINUOUS
10
136.85
20
-74.91
11
134.5
21
-74.91
0
LINE
8
BLACK
6
CONTINUOUS
10
134.5
20
-74.91
11
134.5
21
-72.41
0
LINE
8
BLACK
6
CONTINUOUS
10
134.5
20
-72.41
11
136.85
21
-72.41
0
LINE
8
BLACK
6
CONTINUOUS
10
136.85
20
-72.41
11
136.85
21
-74.91
0
LINE
8
BLACK
6
CONTINUOUS
10
174.95
20
-74.91
11
172.6
21
-74.91
0
LINE
8
BLACK
6
CONTINUOUS
10
172.6
20
-74.91
11
172.6
21
-72.41
0
LINE
8
BLACK
6
CONTINUOUS
10
172.6
20
-72.41
11
174.95
21
-72.41
0
LINE
8
BLACK
6
CONTINUOUS
10
174.95
20
-72.41
11
174.95
21
-74.91
0
LINE
8
BLACK
6
CONTINUOUS
10
155.401
20
-73.9911
11
155.474
21
-74.0399
0
LINE
8
BLACK
6
CONTINUOUS
10
155.474
20
-74.0399
11
155.523
21
-74.1129
0
LINE
8
BLACK
6
CONTINUOUS
10
155.523
20
-74.1129
11
155.54
21
-74.199
0
LINE
8
BLACK
6
CONTINUOUS
10
155.54
20
-74.199
11
155.54
21
-74.649
0
LINE
8
BLACK
6
CONTINUOUS
10
155.54
20
-74.649
11
155.523
21
-74.7351
0
LINE
8
BLACK
6
CONTINUOUS
10
155.523
20
-74.7351
11
155.474
21
-74.8081
0
LINE
8
BLACK
6
CONTINUOUS
10
155.474
20
-74.8081
11
155.401
21
-74.8569
0
LINE
8
BLACK
6
CONTINUOUS
10
155.401
20
-74.8569
11
155.315
21
-74.874
0
LINE
8
BLACK
6
CONTINUOUS
10
155.315
20
-74.874
11
154.565
21
-74.874
0
LINE
8
BLACK
6
CONTINUOUS
10
154.565
20
-74.874
11
154.479
21
-74.8569
0
LINE
8
BLACK
6
CONTINUOUS
10
154.479
20
-74.8569
11
154.406
21
-74.8081
0
LINE
8
BLACK
6
CONTINUOUS
10
154.406
20
-74.8081
11
154.357
21
-74.7351
0
LINE
8
BLACK
6
CONTINUOUS
10
154.357
20
-74.7351
11
154.34
21
-74.649
0
LINE
8
BLACK
6
CONTINUOUS
10
154.34
20
-74.649
11
154.34
21
-74.199
0
LINE
8
BLACK
6
CONTINUOUS
10
154.34
20
-74.199
11
154.357
21
-74.1129
0
LINE
8
BLACK
6
CONTINUOUS
10
154.357
20
-74.1129
11
154.406
21
-74.0399
0
LINE
8
BLACK
6
CONTINUOUS
10
154.406
20
-74.0399
11
154.479
21
-73.9911
0
LINE
8
BLACK
6
CONTINUOUS
10
154.479
20
-73.9911
11
154.565
21
-73.974
0
LINE
8
BLACK
6
CONTINUOUS
10
154.565
20
-73.974
11
155.315
21
-73.974
0
LINE
8
BLACK
6
CONTINUOUS
10
155.315
20
-73.974
11
155.401
21
-73.9911
0
LINE
8
BLACK
6
CONTINUOUS
10
193.247
20
-73.7371
11
193.32
21
-73.7859
0
LINE
8
BLACK
6
CONTINUOUS
10
193.32
20
-73.7859
11
193.369
21
-73.8589
0
LINE
8
BLACK
6
CONTINUOUS
10
193.369
20
-73.8589
11
193.386
21
-73.945
0
LINE
8
BLACK
6
CONTINUOUS
10
193.386
20
-73.945
11
193.386
21
-74.395
0
LINE
8
BLACK
6
CONTINUOUS
10
193.386
20
-74.395
11
193.369
21
-74.4811
0
LINE
8
BLACK
6
CONTINUOUS
10
193.369
20
-74.4811
11
193.32
21
-74.5541
0
LINE
8
BLACK
6
CONTINUOUS
10
193.32
20
-74.5541
11
193.247
21
-74.6029
0
LINE
8
BLACK
6
CONTINUOUS
10
193.247
20
-74.6029
11
193.161
21
-74.62
0
LINE
8
BLACK
6
CONTINUOUS
10
193.161
20
-74.62
11
192.411
21
-74.62
0
LINE
8
BLACK
6
CONTINUOUS
10
192.411
20
-74.62
11
192.325
21
-74.6029
0
LINE
8
BLACK
6
CONTINUOUS
10
192.325
20
-74.6029
11
192.252
21
-74.5541
0
LINE
8
BLACK
6
CONTINUOUS
10
192.252
20
-74.5541
11
192.203
21
-74.4811
0
LINE
8
BLACK
6
CONTINUOUS
10
192.203
20
-74.4811
11
192.186
21
-74.395
0
LINE
8
BLACK
6
CONTINUOUS
10
192.186
20
-74.395
11
192.186
21
-73.945
0
LINE
8
BLACK
6
CONTINUOUS
10
192.186
20
-73.945
11
192.203
21
-73.8589
0
LINE
8
BLACK
6
CONTINUOUS
10
192.203
20
-73.8589
11
192.252
21
-73.7859
0
LINE
8
BLACK
6
CONTINUOUS
10
192.252
20
-73.7859
11
192.325
21
-73.7371
0
LINE
8
BLACK
6
CONTINUOUS
10
192.325
20
-73.7371
11
192.411
21
-73.72
0
LINE
8
BLACK
6
CONTINUOUS
10
192.411
20
-73.72
11
193.161
21
-73.72
0
LINE
8
BLACK
6
CONTINUOUS
10
193.161
20
-73.72
11
193.247
21
-73.7371
0
LINE
8
BLACK
6
CONTINUOUS
10
212.551
20
-73.7371
11
212.624
21
-73.7859
0
LINE
8
BLACK
6
CONTINUOUS
10
212.624
20
-73.7859
11
212.673
21
-73.8589
0
LINE
8
BLACK
6
CONTINUOUS
10
212.673
20
-73.8589
11
212.69
21
-73.945
0
LINE
8
BLACK
6
CONTINUOUS
10
212.69
20
-73.945
11
212.69
21
-74.395
0
LINE
8
BLACK
6
CONTINUOUS
10
212.69
20
-74.395
11
212.673
21
-74.4811
0
LINE
8
BLACK
6
CONTINUOUS
10
212.673
20
-74.4811
11
212.624
21
-74.5541
0
LINE
8
BLACK
6
CONTINUOUS
10
212.624
20
-74.5541
11
212.551
21
-74.6029
0
LINE
8
BLACK
6
CONTINUOUS
10
212.551
20
-74.6029
11
212.465
21
-74.62
0
LINE
8
BLACK
6
CONTINUOUS
10
212.465
20
-74.62
11
211.715
21
-74.62
0
LINE
8
BLACK
6
CONTINUOUS
10
211.715
20
-74.62
11
211.629
21
-74.6029
0
LINE
8
BLACK
6
CONTINUOUS
10
211.629
20
-74.6029
11
211.556
21
-74.5541
0
LINE
8
BLACK
6
CONTINUOUS
10
211.556
20
-74.5541
11
211.507
21
-74.4811
0
LINE
8
BLACK
6
CONTINUOUS
10
211.507
20
-74.4811
11
211.49
21
-74.395
0
LINE
8
BLACK
6
CONTINUOUS
10
211.49
20
-74.395
11
211.49
21
-73.945
0
LINE
8
BLACK
6
CONTINUOUS
10
211.49
20
-73.945
11
211.507
21
-73.8589
0
LINE
8
BLACK
6
CONTINUOUS
10
211.507
20
-73.8589
11
211.556
21
-73.7859
0
LINE
8
BLACK
6
CONTINUOUS
10
211.556
20
-73.7859
11
211.629
21
-73.7371
0
LINE
8
BLACK
6
CONTINUOUS
10
211.629
20
-73.7371
11
211.715
21
-73.72
0
LINE
8
BLACK
6
CONTINUOUS
10
211.715
20
-73.72
11
212.465
21
-73.72
0
LINE
8
BLACK
6
CONTINUOUS
10
212.465
20
-73.72
11
212.551
21
-73.7371
0
LINE
8
BLACK
6
CONTINUOUS
10
150.375
20
-72.3827
11
148.225
21
-72.3827
0
LINE
8
BLACK
6
CONTINUOUS
10
148.225
20
-72.3827
11
148.225
21
-69.8827
0
LINE
8
BLACK
6
CONTINUOUS
10
148.225
20
-69.8827
11
150.375
21
-69.8827
0
LINE
8
BLACK
6
CONTINUOUS
10
150.375
20
-69.8827
11
150.375
21
-72.3827
0
LINE
8
BLACK
6
CONTINUOUS
10
188.475
20
-72.3827
11
186.325
21
-72.3827
0
LINE
8
BLACK
6
CONTINUOUS
10
186.325
20
-72.3827
11
186.325
21
-69.8827
0
LINE
8
BLACK
6
CONTINUOUS
10
186.325
20
-69.8827
11
188.475
21
-69.8827
0
LINE
8
BLACK
6
CONTINUOUS
10
188.475
20
-69.8827
11
188.475
21
-72.3827
0
LINE
8
BLACK
6
CONTINUOUS
10
155.9
20
-70.1475
11
153.55
21
-70.1475
0
LINE
8
BLACK
6
CONTINUOUS
10
153.55
20
-70.1475
11
153.55
21
-67.6475
0
LINE
8
BLACK
6
CONTINUOUS
10
153.55
20
-67.6475
11
155.9
21
-67.6475
0
LINE
8
BLACK
6
CONTINUOUS
10
155.9
20
-67.6475
11
155.9
21
-70.1475
0
LINE
8
BLACK
6
CONTINUOUS
10
194
20
-70.1475
11
191.65
21
-70.1475
0
LINE
8
BLACK
6
CONTINUOUS
10
191.65
20
-70.1475
11
191.65
21
-67.6475
0
LINE
8
BLACK
6
CONTINUOUS
10
191.65
20
-67.6475
11
194
21
-67.6475
0
LINE
8
BLACK
6
CONTINUOUS
10
194
20
-67.6475
11
194
21
-70.1475
0
LINE
8
BLACK
6
CONTINUOUS
10
213.05
20
-70.1475
11
210.7
21
-70.1475
0
LINE
8
BLACK
6
CONTINUOUS
10
210.7
20
-70.1475
11
210.7
21
-67.6475
0
LINE
8
BLACK
6
CONTINUOUS
10
210.7
20
-67.6475
11
213.05
21
-67.6475
0
LINE
8
BLACK
6
CONTINUOUS
10
213.05
20
-67.6475
11
213.05
21
-70.1475
0
LINE
8
BLACK
6
CONTINUOUS
10
117.301
20
-67.7651
11
117.374
21
-67.8139
0
LINE
8
BLACK
6
CONTINUOUS
10
117.374
20
-67.8139
11
117.423
21
-67.8869
0
LINE
8
BLACK
6
CONTINUOUS
10
117.423
20
-67.8869
11
117.44
21
-67.973
0
LINE
8
BLACK
6
CONTINUOUS
10
117.44
20
-67.973
11
117.44
21
-68.423
0
LINE
8
BLACK
6
CONTINUOUS
10
117.44
20
-68.423
11
117.423
21
-68.5091
0
LINE
8
BLACK
6
CONTINUOUS
10
117.423
20
-68.5091
11
117.374
21
-68.5821
0
LINE
8
BLACK
6
CONTINUOUS
10
117.374
20
-68.5821
11
117.301
21
-68.6309
0
LINE
8
BLACK
6
CONTINUOUS
10
117.301
20
-68.6309
11
117.215
21
-68.648
0
LINE
8
BLACK
6
CONTINUOUS
10
117.215
20
-68.648
11
116.465
21
-68.648
0
LINE
8
BLACK
6
CONTINUOUS
10
116.465
20
-68.648
11
116.379
21
-68.6309
0
LINE
8
BLACK
6
CONTINUOUS
10
116.379
20
-68.6309
11
116.306
21
-68.5821
0
LINE
8
BLACK
6
CONTINUOUS
10
116.306
20
-68.5821
11
116.257
21
-68.5091
0
LINE
8
BLACK
6
CONTINUOUS
10
116.257
20
-68.5091
11
116.24
21
-68.423
0
LINE
8
BLACK
6
CONTINUOUS
10
116.24
20
-68.423
11
116.24
21
-67.973
0
LINE
8
BLACK
6
CONTINUOUS
10
116.24
20
-67.973
11
116.257
21
-67.8869
0
LINE
8
BLACK
6
CONTINUOUS
10
116.257
20
-67.8869
11
116.306
21
-67.8139
0
LINE
8
BLACK
6
CONTINUOUS
10
116.306
20
-67.8139
11
116.379
21
-67.7651
0
LINE
8
BLACK
6
CONTINUOUS
10
116.379
20
-67.7651
11
116.465
21
-67.748
0
LINE
8
BLACK
6
CONTINUOUS
10
116.465
20
-67.748
11
117.215
21
-67.748
0
LINE
8
BLACK
6
CONTINUOUS
10
117.215
20
-67.748
11
117.301
21
-67.7651
0
LINE
8
BLACK
6
CONTINUOUS
10
169.425
20
-67.6202
11
167.275
21
-67.6202
0
LINE
8
BLACK
6
CONTINUOUS
10
167.275
20
-67.6202
11
167.275
21
-65.1202
0
LINE
8
BLACK
6
CONTINUOUS
10
167.275
20
-65.1202
11
169.425
21
-65.1202
0
LINE
8
BLACK
6
CONTINUOUS
10
169.425
20
-65.1202
11
169.425
21
-67.6202
0
LINE
8
BLACK
6
CONTINUOUS
10
207.525
20
-67.6202
11
205.375
21
-67.6202
0
LINE
8
BLACK
6
CONTINUOUS
10
205.375
20
-67.6202
11
205.375
21
-65.1202
0
LINE
8
BLACK
6
CONTINUOUS
10
205.375
20
-65.1202
11
207.525
21
-65.1202
0
LINE
8
BLACK
6
CONTINUOUS
10
207.525
20
-65.1202
11
207.525
21
-67.6202
0
LINE
8
BLACK
6
CONTINUOUS
10
226.575
20
-67.6202
11
224.425
21
-67.6202
0
LINE
8
BLACK
6
CONTINUOUS
10
224.425
20
-67.6202
11
224.425
21
-65.1202
0
LINE
8
BLACK
6
CONTINUOUS
10
224.425
20
-65.1202
11
226.575
21
-65.1202
0
LINE
8
BLACK
6
CONTINUOUS
10
226.575
20
-65.1202
11
226.575
21
-67.6202
0
LINE
8
BLACK
6
CONTINUOUS
10
117.301
20
-64.4651
11
117.374
21
-64.5139
0
LINE
8
BLACK
6
CONTINUOUS
10
117.374
20
-64.5139
11
117.423
21
-64.5869
0
LINE
8
BLACK
6
CONTINUOUS
10
117.423
20
-64.5869
11
117.44
21
-64.673
0
LINE
8
BLACK
6
CONTINUOUS
10
117.44
20
-64.673
11
117.44
21
-65.123
0
LINE
8
BLACK
6
CONTINUOUS
10
117.44
20
-65.123
11
117.423
21
-65.2091
0
LINE
8
BLACK
6
CONTINUOUS
10
117.423
20
-65.2091
11
117.374
21
-65.2821
0
LINE
8
BLACK
6
CONTINUOUS
10
117.374
20
-65.2821
11
117.301
21
-65.3309
0
LINE
8
BLACK
6
CONTINUOUS
10
117.301
20
-65.3309
11
117.215
21
-65.348
0
LINE
8
BLACK
6
CONTINUOUS
10
117.215
20
-65.348
11
116.465
21
-65.348
0
LINE
8
BLACK
6
CONTINUOUS
10
116.465
20
-65.348
11
116.379
21
-65.3309
0
LINE
8
BLACK
6
CONTINUOUS
10
116.379
20
-65.3309
11
116.306
21
-65.2821
0
LINE
8
BLACK
6
CONTINUOUS
10
116.306
20
-65.2821
11
116.257
21
-65.2091
0
LINE
8
BLACK
6
CONTINUOUS
10
116.257
20
-65.2091
11
116.24
21
-65.123
0
LINE
8
BLACK
6
CONTINUOUS
10
116.24
20
-65.123
11
116.24
21
-64.673
0
LINE
8
BLACK
6
CONTINUOUS
10
116.24
20
-64.673
11
116.257
21
-64.5869
0
LINE
8
BLACK
6
CONTINUOUS
10
116.257
20
-64.5869
11
116.306
21
-64.5139
0
LINE
8
BLACK
6
CONTINUOUS
10
116.306
20
-64.5139
11
116.379
21
-64.4651
0
LINE
8
BLACK
6
CONTINUOUS
10
116.379
20
-64.4651
11
116.465
21
-64.448
0
LINE
8
BLACK
6
CONTINUOUS
10
116.465
20
-64.448
11
117.215
21
-64.448
0
LINE
8
BLACK
6
CONTINUOUS
10
117.215
20
-64.448
11
117.301
21
-64.4651
0
LINE
8
BLACK
6
CONTINUOUS
10
136.351
20
-62.8131
11
136.424
21
-62.8619
0
LINE
8
BLACK
6
CONTINUOUS
10
136.424
20
-62.8619
11
136.473
21
-62.9349
0
LINE
8
BLACK
6
CONTINUOUS
10
136.473
20
-62.9349
11
136.49
21
-63.021
0
LINE
8
BLACK
6
CONTINUOUS
10
136.49
20
-63.021
11
136.49
21
-63.471
0
LINE
8
BLACK
6
CONTINUOUS
10
136.49
20
-63.471
11
136.473
21
-63.5571
0
LINE
8
BLACK
6
CONTINUOUS
10
136.473
20
-63.5571
11
136.424
21
-63.6301
0
LINE
8
BLACK
6
CONTINUOUS
10
136.424
20
-63.6301
11
136.351
21
-63.6789
0
LINE
8
BLACK
6
CONTINUOUS
10
136.351
20
-63.6789
11
136.265
21
-63.696
0
LINE
8
BLACK
6
CONTINUOUS
10
136.265
20
-63.696
11
135.515
21
-63.696
0
LINE
8
BLACK
6
CONTINUOUS
10
135.515
20
-63.696
11
135.429
21
-63.6789
0
LINE
8
BLACK
6
CONTINUOUS
10
135.429
20
-63.6789
11
135.356
21
-63.6301
0
LINE
8
BLACK
6
CONTINUOUS
10
135.356
20
-63.6301
11
135.307
21
-63.5571
0
LINE
8
BLACK
6
CONTINUOUS
10
135.307
20
-63.5571
11
135.29
21
-63.471
0
LINE
8
BLACK
6
CONTINUOUS
10
135.29
20
-63.471
11
135.29
21
-63.021
0
LINE
8
BLACK
6
CONTINUOUS
10
135.29
20
-63.021
11
135.307
21
-62.9349
0
LINE
8
BLACK
6
CONTINUOUS
10
135.307
20
-62.9349
11
135.356
21
-62.8619
0
LINE
8
BLACK
6
CONTINUOUS
10
135.356
20
-62.8619
11
135.429
21
-62.8131
0
LINE
8
BLACK
6
CONTINUOUS
10
135.429
20
-62.8131
11
135.515
21
-62.796
0
LINE
8
BLACK
6
CONTINUOUS
10
135.515
20
-62.796
11
136.265
21
-62.796
0
LINE
8
BLACK
6
CONTINUOUS
10
136.265
20
-62.796
11
136.351
21
-62.8131
0
LINE
8
BLACK
6
CONTINUOUS
10
174.325
20
-62.5591
11
174.398
21
-62.6079
0
LINE
8
BLACK
6
CONTINUOUS
10
174.398
20
-62.6079
11
174.447
21
-62.6809
0
LINE
8
BLACK
6
CONTINUOUS
10
174.447
20
-62.6809
11
174.464
21
-62.767
0
LINE
8
BLACK
6
CONTINUOUS
10
174.464
20
-62.767
11
174.464
21
-63.217
0
LINE
8
BLACK
6
CONTINUOUS
10
174.464
20
-63.217
11
174.447
21
-63.3031
0
LINE
8
BLACK
6
CONTINUOUS
10
174.447
20
-63.3031
11
174.398
21
-63.3761
0
LINE
8
BLACK
6
CONTINUOUS
10
174.398
20
-63.3761
11
174.325
21
-63.4249
0
LINE
8
BLACK
6
CONTINUOUS
10
174.325
20
-63.4249
11
174.239
21
-63.442
0
LINE
8
BLACK
6
CONTINUOUS
10
174.239
20
-63.442
11
173.489
21
-63.442
0
LINE
8
BLACK
6
CONTINUOUS
10
173.489
20
-63.442
11
173.403
21
-63.4249
0
LINE
8
BLACK
6
CONTINUOUS
10
173.403
20
-63.4249
11
173.33
21
-63.3761
0
LINE
8
BLACK
6
CONTINUOUS
10
173.33
20
-63.3761
11
173.281
21
-63.3031
0
LINE
8
BLACK
6
CONTINUOUS
10
173.281
20
-63.3031
11
173.264
21
-63.217
0
LINE
8
BLACK
6
CONTINUOUS
10
173.264
20
-63.217
11
173.264
21
-62.767
0
LINE
8
BLACK
6
CONTINUOUS
10
173.264
20
-62.767
11
173.281
21
-62.6809
0
LINE
8
BLACK
6
CONTINUOUS
10
173.281
20
-62.6809
11
173.33
21
-62.6079
0
LINE
8
BLACK
6
CONTINUOUS
10
173.33
20
-62.6079
11
173.403
21
-62.5591
0
LINE
8
BLACK
6
CONTINUOUS
10
173.403
20
-62.5591
11
173.489
21
-62.542
0
LINE
8
BLACK
6
CONTINUOUS
10
173.489
20
-62.542
11
174.239
21
-62.542
0
LINE
8
BLACK
6
CONTINUOUS
10
174.239
20
-62.542
11
174.325
21
-62.5591
0
LINE
8
BLACK
6
CONTINUOUS
10
117.8
20
-60.6225
11
115.45
21
-60.6225
0
LINE
8
BLACK
6
CONTINUOUS
10
115.45
20
-60.6225
11
115.45
21
-58.1225
0
LINE
8
BLACK
6
CONTINUOUS
10
115.45
20
-58.1225
11
117.8
21
-58.1225
0
LINE
8
BLACK
6
CONTINUOUS
10
117.8
20
-58.1225
11
117.8
21
-60.6225
0
LINE
8
BLACK
6
CONTINUOUS
10
136.351
20
-59.5131
11
136.424
21
-59.5619
0
LINE
8
BLACK
6
CONTINUOUS
10
136.424
20
-59.5619
11
136.473
21
-59.6349
0
LINE
8
BLACK
6
CONTINUOUS
10
136.473
20
-59.6349
11
136.49
21
-59.721
0
LINE
8
BLACK
6
CONTINUOUS
10
136.49
20
-59.721
11
136.49
21
-60.171
0
LINE
8
BLACK
6
CONTINUOUS
10
136.49
20
-60.171
11
136.473
21
-60.2571
0
LINE
8
BLACK
6
CONTINUOUS
10
136.473
20
-60.2571
11
136.424
21
-60.3301
0
LINE
8
BLACK
6
CONTINUOUS
10
136.424
20
-60.3301
11
136.351
21
-60.3789
0
LINE
8
BLACK
6
CONTINUOUS
10
136.351
20
-60.3789
11
136.265
21
-60.396
0
LINE
8
BLACK
6
CONTINUOUS
10
136.265
20
-60.396
11
135.515
21
-60.396
0
LINE
8
BLACK
6
CONTINUOUS
10
135.515
20
-60.396
11
135.429
21
-60.3789
0
LINE
8
BLACK
6
CONTINUOUS
10
135.429
20
-60.3789
11
135.356
21
-60.3301
0
LINE
8
BLACK
6
CONTINUOUS
10
135.356
20
-60.3301
11
135.307
21
-60.2571
0
LINE
8
BLACK
6
CONTINUOUS
10
135.307
20
-60.2571
11
135.29
21
-60.171
0
LINE
8
BLACK
6
CONTINUOUS
10
135.29
20
-60.171
11
135.29
21
-59.721
0
LINE
8
BLACK
6
CONTINUOUS
10
135.29
20
-59.721
11
135.307
21
-59.6349
0
LINE
8
BLACK
6
CONTINUOUS
10
135.307
20
-59.6349
11
135.356
21
-59.5619
0
LINE
8
BLACK
6
CONTINUOUS
10
135.356
20
-59.5619
11
135.429
21
-59.5131
0
LINE
8
BLACK
6
CONTINUOUS
10
135.429
20
-59.5131
11
135.515
21
-59.496
0
LINE
8
BLACK
6
CONTINUOUS
10
135.515
20
-59.496
11
136.265
21
-59.496
0
LINE
8
BLACK
6
CONTINUOUS
10
136.265
20
-59.496
11
136.351
21
-59.5131
0
LINE
8
BLACK
6
CONTINUOUS
10
174.325
20
-59.2591
11
174.398
21
-59.3079
0
LINE
8
BLACK
6
CONTINUOUS
10
174.398
20
-59.3079
11
174.447
21
-59.3809
0
LINE
8
BLACK
6
CONTINUOUS
10
174.447
20
-59.3809
11
174.464
21
-59.467
0
LINE
8
BLACK
6
CONTINUOUS
10
174.464
20
-59.467
11
174.464
21
-59.917
0
LINE
8
BLACK
6
CONTINUOUS
10
174.464
20
-59.917
11
174.447
21
-60.0031
0
LINE
8
BLACK
6
CONTINUOUS
10
174.447
20
-60.0031
11
174.398
21
-60.0761
0
LINE
8
BLACK
6
CONTINUOUS
10
174.398
20
-60.0761
11
174.325
21
-60.1249
0
LINE
8
BLACK
6
CONTINUOUS
10
174.325
20
-60.1249
11
174.239
21
-60.142
0
LINE
8
BLACK
6
CONTINUOUS
10
174.239
20
-60.142
11
173.489
21
-60.142
0
LINE
8
BLACK
6
CONTINUOUS
10
173.489
20
-60.142
11
173.403
21
-60.1249
0
LINE
8
BLACK
6
CONTINUOUS
10
173.403
20
-60.1249
11
173.33
21
-60.0761
0
LINE
8
BLACK
6
CONTINUOUS
10
173.33
20
-60.0761
11
173.281
21
-60.0031
0
LINE
8
BLACK
6
CONTINUOUS
10
173.281
20
-60.0031
11
173.264
21
-59.917
0
LINE
8
BLACK
6
CONTINUOUS
10
173.264
20
-59.917
11
173.264
21
-59.467
0
LINE
8
BLACK
6
CONTINUOUS
10
173.264
20
-59.467
11
173.281
21
-59.3809
0
LINE
8
BLACK
6
CONTINUOUS
10
173.281
20
-59.3809
11
173.33
21
-59.3079
0
LINE
8
BLACK
6
CONTINUOUS
10
173.33
20
-59.3079
11
173.403
21
-59.2591
0
LINE
8
BLACK
6
CONTINUOUS
10
173.403
20
-59.2591
11
173.489
21
-59.242
0
LINE
8
BLACK
6
CONTINUOUS
10
173.489
20
-59.242
11
174.239
21
-59.242
0
LINE
8
BLACK
6
CONTINUOUS
10
174.239
20
-59.242
11
174.325
21
-59.2591
0
LINE
8
BLACK
6
CONTINUOUS
10
155.401
20
-57.9871
11
155.474
21
-58.0359
0
LINE
8
BLACK
6
CONTINUOUS
10
155.474
20
-58.0359
11
155.523
21
-58.1089
0
LINE
8
BLACK
6
CONTINUOUS
10
155.523
20
-58.1089
11
155.54
21
-58.195
0
LINE
8
BLACK
6
CONTINUOUS
10
155.54
20
-58.195
11
155.54
21
-58.645
0
LINE
8
BLACK
6
CONTINUOUS
10
155.54
20
-58.645
11
155.523
21
-58.7311
0
LINE
8
BLACK
6
CONTINUOUS
10
155.523
20
-58.7311
11
155.474
21
-58.8041
0
LINE
8
BLACK
6
CONTINUOUS
10
155.474
20
-58.8041
11
155.401
21
-58.8529
0
LINE
8
BLACK
6
CONTINUOUS
10
155.401
20
-58.8529
11
155.315
21
-58.87
0
LINE
8
BLACK
6
CONTINUOUS
10
155.315
20
-58.87
11
154.565
21
-58.87
0
LINE
8
BLACK
6
CONTINUOUS
10
154.565
20
-58.87
11
154.479
21
-58.8529
0
LINE
8
BLACK
6
CONTINUOUS
10
154.479
20
-58.8529
11
154.406
21
-58.8041
0
LINE
8
BLACK
6
CONTINUOUS
10
154.406
20
-58.8041
11
154.357
21
-58.7311
0
LINE
8
BLACK
6
CONTINUOUS
10
154.357
20
-58.7311
11
154.34
21
-58.645
0
LINE
8
BLACK
6
CONTINUOUS
10
154.34
20
-58.645
11
154.34
21
-58.195
0
LINE
8
BLACK
6
CONTINUOUS
10
154.34
20
-58.195
11
154.357
21
-58.1089
0
LINE
8
BLACK
6
CONTINUOUS
10
154.357
20
-58.1089
11
154.406
21
-58.0359
0
LINE
8
BLACK
6
CONTINUOUS
10
154.406
20
-58.0359
11
154.479
21
-57.9871
0
LINE
8
BLACK
6
CONTINUOUS
10
154.479
20
-57.9871
11
154.565
21
-57.97
0
LINE
8
BLACK
6
CONTINUOUS
10
154.565
20
-57.97
11
155.315
21
-57.97
0
LINE
8
BLACK
6
CONTINUOUS
10
155.315
20
-57.97
11
155.401
21
-57.9871
0
LINE
8
BLACK
6
CONTINUOUS
10
193.501
20
-57.6051
11
193.574
21
-57.6539
0
LINE
8
BLACK
6
CONTINUOUS
10
193.574
20
-57.6539
11
193.623
21
-57.7269
0
LINE
8
BLACK
6
CONTINUOUS
10
193.623
20
-57.7269
11
193.64
21
-57.813
0
LINE
8
BLACK
6
CONTINUOUS
10
193.64
20
-57.813
11
193.64
21
-58.263
0
LINE
8
BLACK
6
CONTINUOUS
10
193.64
20
-58.263
11
193.623
21
-58.3491
0
LINE
8
BLACK
6
CONTINUOUS
10
193.623
20
-58.3491
11
193.574
21
-58.4221
0
LINE
8
BLACK
6
CONTINUOUS
10
193.574
20
-58.4221
11
193.501
21
-58.4709
0
LINE
8
BLACK
6
CONTINUOUS
10
193.501
20
-58.4709
11
193.415
21
-58.488
0
LINE
8
BLACK
6
CONTINUOUS
10
193.415
20
-58.488
11
192.665
21
-58.488
0
LINE
8
BLACK
6
CONTINUOUS
10
192.665
20
-58.488
11
192.579
21
-58.4709
0
LINE
8
BLACK
6
CONTINUOUS
10
192.579
20
-58.4709
11
192.506
21
-58.4221
0
LINE
8
BLACK
6
CONTINUOUS
10
192.506
20
-58.4221
11
192.457
21
-58.3491
0
LINE
8
BLACK
6
CONTINUOUS
10
192.457
20
-58.3491
11
192.44
21
-58.263
0
LINE
8
BLACK
6
CONTINUOUS
10
192.44
20
-58.263
11
192.44
21
-57.813
0
LINE
8
BLACK
6
CONTINUOUS
10
192.44
20
-57.813
11
192.457
21
-57.7269
0
LINE
8
BLACK
6
CONTINUOUS
10
192.457
20
-57.7269
11
192.506
21
-57.6539
0
LINE
8
BLACK
6
CONTINUOUS
10
192.506
20
-57.6539
11
192.579
21
-57.6051
0
LINE
8
BLACK
6
CONTINUOUS
10
192.579
20
-57.6051
11
192.665
21
-57.588
0
LINE
8
BLACK
6
CONTINUOUS
10
192.665
20
-57.588
11
193.415
21
-57.588
0
LINE
8
BLACK
6
CONTINUOUS
10
193.415
20
-57.588
11
193.501
21
-57.6051
0
LINE
8
BLACK
6
CONTINUOUS
10
212.348
20
-57.6051
11
212.421
21
-57.6539
0
LINE
8
BLACK
6
CONTINUOUS
10
212.421
20
-57.6539
11
212.47
21
-57.7269
0
LINE
8
BLACK
6
CONTINUOUS
10
212.47
20
-57.7269
11
212.487
21
-57.813
0
LINE
8
BLACK
6
CONTINUOUS
10
212.487
20
-57.813
11
212.487
21
-58.263
0
LINE
8
BLACK
6
CONTINUOUS
10
212.487
20
-58.263
11
212.47
21
-58.3491
0
LINE
8
BLACK
6
CONTINUOUS
10
212.47
20
-58.3491
11
212.421
21
-58.4221
0
LINE
8
BLACK
6
CONTINUOUS
10
212.421
20
-58.4221
11
212.348
21
-58.4709
0
LINE
8
BLACK
6
CONTINUOUS
10
212.348
20
-58.4709
11
212.262
21
-58.488
0
LINE
8
BLACK
6
CONTINUOUS
10
212.262
20
-58.488
11
211.512
21
-58.488
0
LINE
8
BLACK
6
CONTINUOUS
10
211.512
20
-58.488
11
211.426
21
-58.4709
0
LINE
8
BLACK
6
CONTINUOUS
10
211.426
20
-58.4709
11
211.353
21
-58.4221
0
LINE
8
BLACK
6
CONTINUOUS
10
211.353
20
-58.4221
11
211.304
21
-58.3491
0
LINE
8
BLACK
6
CONTINUOUS
10
211.304
20
-58.3491
11
211.287
21
-58.263
0
LINE
8
BLACK
6
CONTINUOUS
10
211.287
20
-58.263
11
211.287
21
-57.813
0
LINE
8
BLACK
6
CONTINUOUS
10
211.287
20
-57.813
11
211.304
21
-57.7269
0
LINE
8
BLACK
6
CONTINUOUS
10
211.304
20
-57.7269
11
211.353
21
-57.6539
0
LINE
8
BLACK
6
CONTINUOUS
10
211.353
20
-57.6539
11
211.426
21
-57.6051
0
LINE
8
BLACK
6
CONTINUOUS
10
211.426
20
-57.6051
11
211.512
21
-57.588
0
LINE
8
BLACK
6
CONTINUOUS
10
211.512
20
-57.588
11
212.262
21
-57.588
0
LINE
8
BLACK
6
CONTINUOUS
10
212.262
20
-57.588
11
212.348
21
-57.6051
0
LINE
8
BLACK
6
CONTINUOUS
10
131.325
20
-58.0952
11
129.175
21
-58.0952
0
LINE
8
BLACK
6
CONTINUOUS
10
129.175
20
-58.0952
11
129.175
21
-55.5952
0
LINE
8
BLACK
6
CONTINUOUS
10
129.175
20
-55.5952
11
131.325
21
-55.5952
0
LINE
8
BLACK
6
CONTINUOUS
10
131.325
20
-55.5952
11
131.325
21
-58.0952
0
LINE
8
BLACK
6
CONTINUOUS
10
136.85
20
-55.86
11
134.5
21
-55.86
0
LINE
8
BLACK
6
CONTINUOUS
10
134.5
20
-55.86
11
134.5
21
-53.36
0
LINE
8
BLACK
6
CONTINUOUS
10
134.5
20
-53.36
11
136.85
21
-53.36
0
LINE
8
BLACK
6
CONTINUOUS
10
136.85
20
-53.36
11
136.85
21
-55.86
0
LINE
8
BLACK
6
CONTINUOUS
10
174.95
20
-55.86
11
172.6
21
-55.86
0
LINE
8
BLACK
6
CONTINUOUS
10
172.6
20
-55.86
11
172.6
21
-53.36
0
LINE
8
BLACK
6
CONTINUOUS
10
172.6
20
-53.36
11
174.95
21
-53.36
0
LINE
8
BLACK
6
CONTINUOUS
10
174.95
20
-53.36
11
174.95
21
-55.86
0
LINE
8
BLACK
6
CONTINUOUS
10
155.401
20
-54.6871
11
155.474
21
-54.7359
0
LINE
8
BLACK
6
CONTINUOUS
10
155.474
20
-54.7359
11
155.523
21
-54.8089
0
LINE
8
BLACK
6
CONTINUOUS
10
155.523
20
-54.8089
11
155.54
21
-54.895
0
LINE
8
BLACK
6
CONTINUOUS
10
155.54
20
-54.895
11
155.54
21
-55.345
0
LINE
8
BLACK
6
CONTINUOUS
10
155.54
20
-55.345
11
155.523
21
-55.4311
0
LINE
8
BLACK
6
CONTINUOUS
10
155.523
20
-55.4311
11
155.474
21
-55.5041
0
LINE
8
BLACK
6
CONTINUOUS
10
155.474
20
-55.5041
11
155.401
21
-55.5529
0
LINE
8
BLACK
6
CONTINUOUS
10
155.401
20
-55.5529
11
155.315
21
-55.57
0
LINE
8
BLACK
6
CONTINUOUS
10
155.315
20
-55.57
11
154.565
21
-55.57
0
LINE
8
BLACK
6
CONTINUOUS
10
154.565
20
-55.57
11
154.479
21
-55.5529
0
LINE
8
BLACK
6
CONTINUOUS
10
154.479
20
-55.5529
11
154.406
21
-55.5041
0
LINE
8
BLACK
6
CONTINUOUS
10
154.406
20
-55.5041
11
154.357
21
-55.4311
0
LINE
8
BLACK
6
CONTINUOUS
10
154.357
20
-55.4311
11
154.34
21
-55.345
0
LINE
8
BLACK
6
CONTINUOUS
10
154.34
20
-55.345
11
154.34
21
-54.895
0
LINE
8
BLACK
6
CONTINUOUS
10
154.34
20
-54.895
11
154.357
21
-54.8089
0
LINE
8
BLACK
6
CONTINUOUS
10
154.357
20
-54.8089
11
154.406
21
-54.7359
0
LINE
8
BLACK
6
CONTINUOUS
10
154.406
20
-54.7359
11
154.479
21
-54.6871
0
LINE
8
BLACK
6
CONTINUOUS
10
154.479
20
-54.6871
11
154.565
21
-54.67
0
LINE
8
BLACK
6
CONTINUOUS
10
154.565
20
-54.67
11
155.315
21
-54.67
0
LINE
8
BLACK
6
CONTINUOUS
10
155.315
20
-54.67
11
155.401
21
-54.6871
0
LINE
8
BLACK
6
CONTINUOUS
10
193.501
20
-54.3051
11
193.574
21
-54.3539
0
LINE
8
BLACK
6
CONTINUOUS
10
193.574
20
-54.3539
11
193.623
21
-54.4269
0
LINE
8
BLACK
6
CONTINUOUS
10
193.623
20
-54.4269
11
193.64
21
-54.513
0
LINE
8
BLACK
6
CONTINUOUS
10
193.64
20
-54.513
11
193.64
21
-54.963
0
LINE
8
BLACK
6
CONTINUOUS
10
193.64
20
-54.963
11
193.623
21
-55.0491
0
LINE
8
BLACK
6
CONTINUOUS
10
193.623
20
-55.0491
11
193.574
21
-55.1221
0
LINE
8
BLACK
6
CONTINUOUS
10
193.574
20
-55.1221
11
193.501
21
-55.1709
0
LINE
8
BLACK
6
CONTINUOUS
10
193.501
20
-55.1709
11
193.415
21
-55.188
0
LINE
8
BLACK
6
CONTINUOUS
10
193.415
20
-55.188
11
192.665
21
-55.188
0
LINE
8
BLACK
6
CONTINUOUS
10
192.665
20
-55.188
11
192.579
21
-55.1709
0
LINE
8
BLACK
6
CONTINUOUS
10
192.579
20
-55.1709
11
192.506
21
-55.1221
0
LINE
8
BLACK
6
CONTINUOUS
10
192.506
20
-55.1221
11
192.457
21
-55.0491
0
LINE
8
BLACK
6
CONTINUOUS
10
192.457
20
-55.0491
11
192.44
21
-54.963
0
LINE
8
BLACK
6
CONTINUOUS
10
192.44
20
-54.963
11
192.44
21
-54.513
0
LINE
8
BLACK
6
CONTINUOUS
10
192.44
20
-54.513
11
192.457
21
-54.4269
0
LINE
8
BLACK
6
CONTINUOUS
10
192.457
20
-54.4269
11
192.506
21
-54.3539
0
LINE
8
BLACK
6
CONTINUOUS
10
192.506
20
-54.3539
11
192.579
21
-54.3051
0
LINE
8
BLACK
6
CONTINUOUS
10
192.579
20
-54.3051
11
192.665
21
-54.288
0
LINE
8
BLACK
6
CONTINUOUS
10
192.665
20
-54.288
11
193.415
21
-54.288
0
LINE
8
BLACK
6
CONTINUOUS
10
193.415
20
-54.288
11
193.501
21
-54.3051
0
LINE
8
BLACK
6
CONTINUOUS
10
212.348
20
-54.3051
11
212.421
21
-54.3539
0
LINE
8
BLACK
6
CONTINUOUS
10
212.421
20
-54.3539
11
212.47
21
-54.4269
0
LINE
8
BLACK
6
CONTINUOUS
10
212.47
20
-54.4269
11
212.487
21
-54.513
0
LINE
8
BLACK
6
CONTINUOUS
10
212.487
20
-54.513
11
212.487
21
-54.963
0
LINE
8
BLACK
6
CONTINUOUS
10
212.487
20
-54.963
11
212.47
21
-55.0491
0
LINE
8
BLACK
6
CONTINUOUS
10
212.47
20
-55.0491
11
212.421
21
-55.1221
0
LINE
8
BLACK
6
CONTINUOUS
10
212.421
20
-55.1221
11
212.348
21
-55.1709
0
LINE
8
BLACK
6
CONTINUOUS
10
212.348
20
-55.1709
11
212.262
21
-55.188
0
LINE
8
BLACK
6
CONTINUOUS
10
212.262
20
-55.188
11
211.512
21
-55.188
0
LINE
8
BLACK
6
CONTINUOUS
10
211.512
20
-55.188
11
211.426
21
-55.1709
0
LINE
8
BLACK
6
CONTINUOUS
10
211.426
20
-55.1709
11
211.353
21
-55.1221
0
LINE
8
BLACK
6
CONTINUOUS
10
211.353
20
-55.1221
11
211.304
21
-55.0491
0
LINE
8
BLACK
6
CONTINUOUS
10
211.304
20
-55.0491
11
211.287
21
-54.963
0
LINE
8
BLACK
6
CONTINUOUS
10
211.287
20
-54.963
11
211.287
21
-54.513
0
LINE
8
BLACK
6
CONTINUOUS
10
211.287
20
-54.513
11
211.304
21
-54.4269
0
LINE
8
BLACK
6
CONTINUOUS
10
211.304
20
-54.4269
11
211.353
21
-54.3539
0
LINE
8
BLACK
6
CONTINUOUS
10
211.353
20
-54.3539
11
211.426
21
-54.3051
0
LINE
8
BLACK
6
CONTINUOUS
10
211.426
20
-54.3051
11
211.512
21
-54.288
0
LINE
8
BLACK
6
CONTINUOUS
10
211.512
20
-54.288
11
212.262
21
-54.288
0
LINE
8
BLACK
6
CONTINUOUS
10
212.262
20
-54.288
11
212.348
21
-54.3051
0
LINE
8
BLACK
6
CONTINUOUS
10
150.375
20
-53.3327
11
148.225
21
-53.3327
0
LINE
8
BLACK
6
CONTINUOUS
10
148.225
20
-53.3327
11
148.225
21
-50.8327
0
LINE
8
BLACK
6
CONTINUOUS
10
148.225
20
-50.8327
11
150.375
21
-50.8327
0
LINE
8
BLACK
6
CONTINUOUS
10
150.375
20
-50.8327
11
150.375
21
-53.3327
0
LINE
8
BLACK
6
CONTINUOUS
10
188.475
20
-53.3327
11
186.325
21
-53.3327
0
LINE
8
BLACK
6
CONTINUOUS
10
186.325
20
-53.3327
11
186.325
21
-50.8327
0
LINE
8
BLACK
6
CONTINUOUS
10
186.325
20
-50.8327
11
188.475
21
-50.8327
0
LINE
8
BLACK
6
CONTINUOUS
10
188.475
20
-50.8327
11
188.475
21
-53.3327
0
LINE
8
BLACK
6
CONTINUOUS
10
155.9
20
-51.0975
11
153.55
21
-51.0975
0
LINE
8
BLACK
6
CONTINUOUS
10
153.55
20
-51.0975
11
153.55
21
-48.5975
0
LINE
8
BLACK
6
CONTINUOUS
10
153.55
20
-48.5975
11
155.9
21
-48.5975
0
LINE
8
BLACK
6
CONTINUOUS
10
155.9
20
-48.5975
11
155.9
21
-51.0975
0
LINE
8
BLACK
6
CONTINUOUS
10
194
20
-51.0975
11
191.65
21
-51.0975
0
LINE
8
BLACK
6
CONTINUOUS
10
191.65
20
-51.0975
11
191.65
21
-48.5975
0
LINE
8
BLACK
6
CONTINUOUS
10
191.65
20
-48.5975
11
194
21
-48.5975
0
LINE
8
BLACK
6
CONTINUOUS
10
194
20
-48.5975
11
194
21
-51.0975
0
LINE
8
BLACK
6
CONTINUOUS
10
213.05
20
-51.0975
11
210.7
21
-51.0975
0
LINE
8
BLACK
6
CONTINUOUS
10
210.7
20
-51.0975
11
210.7
21
-48.5975
0
LINE
8
BLACK
6
CONTINUOUS
10
210.7
20
-48.5975
11
213.05
21
-48.5975
0
LINE
8
BLACK
6
CONTINUOUS
10
213.05
20
-48.5975
11
213.05
21
-51.0975
0
LINE
8
BLACK
6
CONTINUOUS
10
117.301
20
-48.4611
11
117.374
21
-48.5099
0
LINE
8
BLACK
6
CONTINUOUS
10
117.374
20
-48.5099
11
117.423
21
-48.5829
0
LINE
8
BLACK
6
CONTINUOUS
10
117.423
20
-48.5829
11
117.44
21
-48.669
0
LINE
8
BLACK
6
CONTINUOUS
10
117.44
20
-48.669
11
117.44
21
-49.119
0
LINE
8
BLACK
6
CONTINUOUS
10
117.44
20
-49.119
11
117.423
21
-49.2051
0
LINE
8
BLACK
6
CONTINUOUS
10
117.423
20
-49.2051
11
117.374
21
-49.2781
0
LINE
8
BLACK
6
CONTINUOUS
10
117.374
20
-49.2781
11
117.301
21
-49.3269
0
LINE
8
BLACK
6
CONTINUOUS
10
117.301
20
-49.3269
11
117.215
21
-49.344
0
LINE
8
BLACK
6
CONTINUOUS
10
117.215
20
-49.344
11
116.465
21
-49.344
0
LINE
8
BLACK
6
CONTINUOUS
10
116.465
20
-49.344
11
116.379
21
-49.3269
0
LINE
8
BLACK
6
CONTINUOUS
10
116.379
20
-49.3269
11
116.306
21
-49.2781
0
LINE
8
BLACK
6
CONTINUOUS
10
116.306
20
-49.2781
11
116.257
21
-49.2051
0
LINE
8
BLACK
6
CONTINUOUS
10
116.257
20
-49.2051
11
116.24
21
-49.119
0
LINE
8
BLACK
6
CONTINUOUS
10
116.24
20
-49.119
11
116.24
21
-48.669
0
LINE
8
BLACK
6
CONTINUOUS
10
116.24
20
-48.669
11
116.257
21
-48.5829
0
LINE
8
BLACK
6
CONTINUOUS
10
116.257
20
-48.5829
11
116.306
21
-48.5099
0
LINE
8
BLACK
6
CONTINUOUS
10
116.306
20
-48.5099
11
116.379
21
-48.4611
0
LINE
8
BLACK
6
CONTINUOUS
10
116.379
20
-48.4611
11
116.465
21
-48.444
0
LINE
8
BLACK
6
CONTINUOUS
10
116.465
20
-48.444
11
117.215
21
-48.444
0
LINE
8
BLACK
6
CONTINUOUS
10
117.215
20
-48.444
11
117.301
21
-48.4611
0
LINE
8
BLACK
6
CONTINUOUS
10
169.425
20
-48.5702
11
167.275
21
-48.5702
0
LINE
8
BLACK
6
CONTINUOUS
10
167.275
20
-48.5702
11
167.275
21
-46.0702
0
LINE
8
BLACK
6
CONTINUOUS
10
167.275
20
-46.0702
11
169.425
21
-46.0702
0
LINE
8
BLACK
6
CONTINUOUS
10
169.425
20
-46.0702
11
169.425
21
-48.5702
0
LINE
8
BLACK
6
CONTINUOUS
10
207.525
20
-48.5702
11
205.375
21
-48.5702
0
LINE
8
BLACK
6
CONTINUOUS
10
205.375
20
-48.5702
11
205.375
21
-46.0702
0
LINE
8
BLACK
6
CONTINUOUS
10
205.375
20
-46.0702
11
207.525
21
-46.0702
0
LINE
8
BLACK
6
CONTINUOUS
10
207.525
20
-46.0702
11
207.525
21
-48.5702
0
LINE
8
BLACK
6
CONTINUOUS
10
226.575
20
-48.5702
11
224.425
21
-48.5702
0
LINE
8
BLACK
6
CONTINUOUS
10
224.425
20
-48.5702
11
224.425
21
-46.0702
0
LINE
8
BLACK
6
CONTINUOUS
10
224.425
20
-46.0702
11
226.575
21
-46.0702
0
LINE
8
BLACK
6
CONTINUOUS
10
226.575
20
-46.0702
11
226.575
21
-48.5702
0
LINE
8
BLACK
6
CONTINUOUS
10
117.301
20
-45.1611
11
117.374
21
-45.2099
0
LINE
8
BLACK
6
CONTINUOUS
10
117.374
20
-45.2099
11
117.423
21
-45.2829
0
LINE
8
BLACK
6
CONTINUOUS
10
117.423
20
-45.2829
11
117.44
21
-45.369
0
LINE
8
BLACK
6
CONTINUOUS
10
117.44
20
-45.369
11
117.44
21
-45.819
0
LINE
8
BLACK
6
CONTINUOUS
10
117.44
20
-45.819
11
117.423
21
-45.9051
0
LINE
8
BLACK
6
CONTINUOUS
10
117.423
20
-45.9051
11
117.374
21
-45.9781
0
LINE
8
BLACK
6
CONTINUOUS
10
117.374
20
-45.9781
11
117.301
21
-46.0269
0
LINE
8
BLACK
6
CONTINUOUS
10
117.301
20
-46.0269
11
117.215
21
-46.044
0
LINE
8
BLACK
6
CONTINUOUS
10
117.215
20
-46.044
11
116.465
21
-46.044
0
LINE
8
BLACK
6
CONTINUOUS
10
116.465
20
-46.044
11
116.379
21
-46.0269
0
LINE
8
BLACK
6
CONTINUOUS
10
116.379
20
-46.0269
11
116.306
21
-45.9781
0
LINE
8
BLACK
6
CONTINUOUS
10
116.306
20
-45.9781
11
116.257
21
-45.9051
0
LINE
8
BLACK
6
CONTINUOUS
10
116.257
20
-45.9051
11
116.24
21
-45.819
0
LINE
8
BLACK
6
CONTINUOUS
10
116.24
20
-45.819
11
116.24
21
-45.369
0
LINE
8
BLACK
6
CONTINUOUS
10
116.24
20
-45.369
11
116.257
21
-45.2829
0
LINE
8
BLACK
6
CONTINUOUS
10
116.257
20
-45.2829
11
116.306
21
-45.2099
0
LINE
8
BLACK
6
CONTINUOUS
10
116.306
20
-45.2099
11
116.379
21
-45.1611
0
LINE
8
BLACK
6
CONTINUOUS
10
116.379
20
-45.1611
11
116.465
21
-45.144
0
LINE
8
BLACK
6
CONTINUOUS
10
116.465
20
-45.144
11
117.215
21
-45.144
0
LINE
8
BLACK
6
CONTINUOUS
10
117.215
20
-45.144
11
117.301
21
-45.1611
0
LINE
8
BLACK
6
CONTINUOUS
10
136.351
20
-43.6351
11
136.424
21
-43.6839
0
LINE
8
BLACK
6
CONTINUOUS
10
136.424
20
-43.6839
11
136.473
21
-43.7569
0
LINE
8
BLACK
6
CONTINUOUS
10
136.473
20
-43.7569
11
136.49
21
-43.843
0
LINE
8
BLACK
6
CONTINUOUS
10
136.49
20
-43.843
11
136.49
21
-44.293
0
LINE
8
BLACK
6
CONTINUOUS
10
136.49
20
-44.293
11
136.473
21
-44.3791
0
LINE
8
BLACK
6
CONTINUOUS
10
136.473
20
-44.3791
11
136.424
21
-44.4521
0
LINE
8
BLACK
6
CONTINUOUS
10
136.424
20
-44.4521
11
136.351
21
-44.5009
0
LINE
8
BLACK
6
CONTINUOUS
10
136.351
20
-44.5009
11
136.265
21
-44.518
0
LINE
8
BLACK
6
CONTINUOUS
10
136.265
20
-44.518
11
135.515
21
-44.518
0
LINE
8
BLACK
6
CONTINUOUS
10
135.515
20
-44.518
11
135.429
21
-44.5009
0
LINE
8
BLACK
6
CONTINUOUS
10
135.429
20
-44.5009
11
135.356
21
-44.4521
0
LINE
8
BLACK
6
CONTINUOUS
10
135.356
20
-44.4521
11
135.307
21
-44.3791
0
LINE
8
BLACK
6
CONTINUOUS
10
135.307
20
-44.3791
11
135.29
21
-44.293
0
LINE
8
BLACK
6
CONTINUOUS
10
135.29
20
-44.293
11
135.29
21
-43.843
0
LINE
8
BLACK
6
CONTINUOUS
10
135.29
20
-43.843
11
135.307
21
-43.7569
0
LINE
8
BLACK
6
CONTINUOUS
10
135.307
20
-43.7569
11
135.356
21
-43.6839
0
LINE
8
BLACK
6
CONTINUOUS
10
135.356
20
-43.6839
11
135.429
21
-43.6351
0
LINE
8
BLACK
6
CONTINUOUS
10
135.429
20
-43.6351
11
135.515
21
-43.618
0
LINE
8
BLACK
6
CONTINUOUS
10
135.515
20
-43.618
11
136.265
21
-43.618
0
LINE
8
BLACK
6
CONTINUOUS
10
136.265
20
-43.618
11
136.351
21
-43.6351
0
LINE
8
BLACK
6
CONTINUOUS
10
174.451
20
-43.6351
11
174.524
21
-43.6839
0
LINE
8
BLACK
6
CONTINUOUS
10
174.524
20
-43.6839
11
174.573
21
-43.7569
0
LINE
8
BLACK
6
CONTINUOUS
10
174.573
20
-43.7569
11
174.59
21
-43.843
0
LINE
8
BLACK
6
CONTINUOUS
10
174.59
20
-43.843
11
174.59
21
-44.293
0
LINE
8
BLACK
6
CONTINUOUS
10
174.59
20
-44.293
11
174.573
21
-44.3791
0
LINE
8
BLACK
6
CONTINUOUS
10
174.573
20
-44.3791
11
174.524
21
-44.4521
0
LINE
8
BLACK
6
CONTINUOUS
10
174.524
20
-44.4521
11
174.451
21
-44.5009
0
LINE
8
BLACK
6
CONTINUOUS
10
174.451
20
-44.5009
11
174.365
21
-44.518
0
LINE
8
BLACK
6
CONTINUOUS
10
174.365
20
-44.518
11
173.615
21
-44.518
0
LINE
8
BLACK
6
CONTINUOUS
10
173.615
20
-44.518
11
173.529
21
-44.5009
0
LINE
8
BLACK
6
CONTINUOUS
10
173.529
20
-44.5009
11
173.456
21
-44.4521
0
LINE
8
BLACK
6
CONTINUOUS
10
173.456
20
-44.4521
11
173.407
21
-44.3791
0
LINE
8
BLACK
6
CONTINUOUS
10
173.407
20
-44.3791
11
173.39
21
-44.293
0
LINE
8
BLACK
6
CONTINUOUS
10
173.39
20
-44.293
11
173.39
21
-43.843
0
LINE
8
BLACK
6
CONTINUOUS
10
173.39
20
-43.843
11
173.407
21
-43.7569
0
LINE
8
BLACK
6
CONTINUOUS
10
173.407
20
-43.7569
11
173.456
21
-43.6839
0
LINE
8
BLACK
6
CONTINUOUS
10
173.456
20
-43.6839
11
173.529
21
-43.6351
0
LINE
8
BLACK
6
CONTINUOUS
10
173.529
20
-43.6351
11
173.615
21
-43.618
0
LINE
8
BLACK
6
CONTINUOUS
10
173.615
20
-43.618
11
174.365
21
-43.618
0
LINE
8
BLACK
6
CONTINUOUS
10
174.365
20
-43.618
11
174.451
21
-43.6351
0
LINE
8
BLACK
6
CONTINUOUS
10
117.8
20
-41.5725
11
115.45
21
-41.5725
0
LINE
8
BLACK
6
CONTINUOUS
10
115.45
20
-41.5725
11
115.45
21
-39.0725
0
LINE
8
BLACK
6
CONTINUOUS
10
115.45
20
-39.0725
11
117.8
21
-39.0725
0
LINE
8
BLACK
6
CONTINUOUS
10
117.8
20
-39.0725
11
117.8
21
-41.5725
0
LINE
8
BLACK
6
CONTINUOUS
10
136.351
20
-40.3351
11
136.424
21
-40.3839
0
LINE
8
BLACK
6
CONTINUOUS
10
136.424
20
-40.3839
11
136.473
21
-40.4569
0
LINE
8
BLACK
6
CONTINUOUS
10
136.473
20
-40.4569
11
136.49
21
-40.543
0
LINE
8
BLACK
6
CONTINUOUS
10
136.49
20
-40.543
11
136.49
21
-40.993
0
LINE
8
BLACK
6
CONTINUOUS
10
136.49
20
-40.993
11
136.473
21
-41.0791
0
LINE
8
BLACK
6
CONTINUOUS
10
136.473
20
-41.0791
11
136.424
21
-41.1521
0
LINE
8
BLACK
6
CONTINUOUS
10
136.424
20
-41.1521
11
136.351
21
-41.2009
0
LINE
8
BLACK
6
CONTINUOUS
10
136.351
20
-41.2009
11
136.265
21
-41.218
0
LINE
8
BLACK
6
CONTINUOUS
10
136.265
20
-41.218
11
135.515
21
-41.218
0
LINE
8
BLACK
6
CONTINUOUS
10
135.515
20
-41.218
11
135.429
21
-41.2009
0
LINE
8
BLACK
6
CONTINUOUS
10
135.429
20
-41.2009
11
135.356
21
-41.1521
0
LINE
8
BLACK
6
CONTINUOUS
10
135.356
20
-41.1521
11
135.307
21
-41.0791
0
LINE
8
BLACK
6
CONTINUOUS
10
135.307
20
-41.0791
11
135.29
21
-40.993
0
LINE
8
BLACK
6
CONTINUOUS
10
135.29
20
-40.993
11
135.29
21
-40.543
0
LINE
8
BLACK
6
CONTINUOUS
10
135.29
20
-40.543
11
135.307
21
-40.4569
0
LINE
8
BLACK
6
CONTINUOUS
10
135.307
20
-40.4569
11
135.356
21
-40.3839
0
LINE
8
BLACK
6
CONTINUOUS
10
135.356
20
-40.3839
11
135.429
21
-40.3351
0
LINE
8
BLACK
6
CONTINUOUS
10
135.429
20
-40.3351
11
135.515
21
-40.318
0
LINE
8
BLACK
6
CONTINUOUS
10
135.515
20
-40.318
11
136.265
21
-40.318
0
LINE
8
BLACK
6
CONTINUOUS
10
136.265
20
-40.318
11
136.351
21
-40.3351
0
LINE
8
BLACK
6
CONTINUOUS
10
174.451
20
-40.3351
11
174.524
21
-40.3839
0
LINE
8
BLACK
6
CONTINUOUS
10
174.524
20
-40.3839
11
174.573
21
-40.4569
0
LINE
8
BLACK
6
CONTINUOUS
10
174.573
20
-40.4569
11
174.59
21
-40.543
0
LINE
8
BLACK
6
CONTINUOUS
10
174.59
20
-40.543
11
174.59
21
-40.993
0
LINE
8
BLACK
6
CONTINUOUS
10
174.59
20
-40.993
11
174.573
21
-41.0791
0
LINE
8
BLACK
6
CONTINUOUS
10
174.573
20
-41.0791
11
174.524
21
-41.1521
0
LINE
8
BLACK
6
CONTINUOUS
10
174.524
20
-41.1521
11
174.451
21
-41.2009
0
LINE
8
BLACK
6
CONTINUOUS
10
174.451
20
-41.2009
11
174.365
21
-41.218
0
LINE
8
BLACK
6
CONTINUOUS
10
174.365
20
-41.218
11
173.615
21
-41.218
0
LINE
8
BLACK
6
CONTINUOUS
10
173.615
20
-41.218
11
173.529
21
-41.2009
0
LINE
8
BLACK
6
CONTINUOUS
10
173.529
20
-41.2009
11
173.456
21
-41.1521
0
LINE
8
BLACK
6
CONTINUOUS
10
173.456
20
-41.1521
11
173.407
21
-41.0791
0
LINE
8
BLACK
6
CONTINUOUS
10
173.407
20
-41.0791
11
173.39
21
-40.993
0
LINE
8
BLACK
6
CONTINUOUS
10
173.39
20
-40.993
11
173.39
21
-40.543
0
LINE
8
BLACK
6
CONTINUOUS
10
173.39
20
-40.543
11
173.407
21
-40.4569
0
LINE
8
BLACK
6
CONTINUOUS
10
173.407
20
-40.4569
11
173.456
21
-40.3839
0
LINE
8
BLACK
6
CONTINUOUS
10
173.456
20
-40.3839
11
173.529
21
-40.3351
0
LINE
8
BLACK
6
CONTINUOUS
10
173.529
20
-40.3351
11
173.615
21
-40.318
0
LINE
8
BLACK
6
CONTINUOUS
10
173.615
20
-40.318
11
174.365
21
-40.318
0
LINE
8
BLACK
6
CONTINUOUS
10
174.365
20
-40.318
11
174.451
21
-40.3351
0
LINE
8
BLACK
6
CONTINUOUS
10
155.275
20
-38.9371
11
155.348
21
-38.9859
0
LINE
8
BLACK
6
CONTINUOUS
10
155.348
20
-38.9859
11
155.397
21
-39.0589
0
LINE
8
BLACK
6
CONTINUOUS
10
155.397
20
-39.0589
11
155.414
21
-39.145
0
LINE
8
BLACK
6
CONTINUOUS
10
155.414
20
-39.145
11
155.414
21
-39.595
0
LINE
8
BLACK
6
CONTINUOUS
10
155.414
20
-39.595
11
155.397
21
-39.6811
0
LINE
8
BLACK
6
CONTINUOUS
10
155.397
20
-39.6811
11
155.348
21
-39.7541
0
LINE
8
BLACK
6
CONTINUOUS
10
155.348
20
-39.7541
11
155.275
21
-39.8029
0
LINE
8
BLACK
6
CONTINUOUS
10
155.275
20
-39.8029
11
155.189
21
-39.82
0
LINE
8
BLACK
6
CONTINUOUS
10
155.189
20
-39.82
11
154.439
21
-39.82
0
LINE
8
BLACK
6
CONTINUOUS
10
154.439
20
-39.82
11
154.353
21
-39.8029
0
LINE
8
BLACK
6
CONTINUOUS
10
154.353
20
-39.8029
11
154.28
21
-39.7541
0
LINE
8
BLACK
6
CONTINUOUS
10
154.28
20
-39.7541
11
154.231
21
-39.6811
0
LINE
8
BLACK
6
CONTINUOUS
10
154.231
20
-39.6811
11
154.214
21
-39.595
0
LINE
8
BLACK
6
CONTINUOUS
10
154.214
20
-39.595
11
154.214
21
-39.145
0
LINE
8
BLACK
6
CONTINUOUS
10
154.214
20
-39.145
11
154.231
21
-39.0589
0
LINE
8
BLACK
6
CONTINUOUS
10
154.231
20
-39.0589
11
154.28
21
-38.9859
0
LINE
8
BLACK
6
CONTINUOUS
10
154.28
20
-38.9859
11
154.353
21
-38.9371
0
LINE
8
BLACK
6
CONTINUOUS
10
154.353
20
-38.9371
11
154.439
21
-38.92
0
LINE
8
BLACK
6
CONTINUOUS
10
154.439
20
-38.92
11
155.189
21
-38.92
0
LINE
8
BLACK
6
CONTINUOUS
10
155.189
20
-38.92
11
155.275
21
-38.9371
0
LINE
8
BLACK
6
CONTINUOUS
10
131.325
20
-39.0452
11
129.175
21
-39.0452
0
LINE
8
BLACK
6
CONTINUOUS
10
129.175
20
-39.0452
11
129.175
21
-36.5452
0
LINE
8
BLACK
6
CONTINUOUS
10
129.175
20
-36.5452
11
131.325
21
-36.5452
0
LINE
8
BLACK
6
CONTINUOUS
10
131.325
20
-36.5452
11
131.325
21
-39.0452
0
LINE
8
BLACK
6
CONTINUOUS
10
136.85
20
-36.81
11
134.5
21
-36.81
0
LINE
8
BLACK
6
CONTINUOUS
10
134.5
20
-36.81
11
134.5
21
-34.31
0
LINE
8
BLACK
6
CONTINUOUS
10
134.5
20
-34.31
11
136.85
21
-34.31
0
LINE
8
BLACK
6
CONTINUOUS
10
136.85
20
-34.31
11
136.85
21
-36.81
0
LINE
8
BLACK
6
CONTINUOUS
10
174.95
20
-36.81
11
172.6
21
-36.81
0
LINE
8
BLACK
6
CONTINUOUS
10
172.6
20
-36.81
11
172.6
21
-34.31
0
LINE
8
BLACK
6
CONTINUOUS
10
172.6
20
-34.31
11
174.95
21
-34.31
0
LINE
8
BLACK
6
CONTINUOUS
10
174.95
20
-34.31
11
174.95
21
-36.81
0
LINE
8
BLACK
6
CONTINUOUS
10
155.275
20
-35.6371
11
155.348
21
-35.6859
0
LINE
8
BLACK
6
CONTINUOUS
10
155.348
20
-35.6859
11
155.397
21
-35.7589
0
LINE
8
BLACK
6
CONTINUOUS
10
155.397
20
-35.7589
11
155.414
21
-35.845
0
LINE
8
BLACK
6
CONTINUOUS
10
155.414
20
-35.845
11
155.414
21
-36.295
0
LINE
8
BLACK
6
CONTINUOUS
10
155.414
20
-36.295
11
155.397
21
-36.3811
0
LINE
8
BLACK
6
CONTINUOUS
10
155.397
20
-36.3811
11
155.348
21
-36.4541
0
LINE
8
BLACK
6
CONTINUOUS
10
155.348
20
-36.4541
11
155.275
21
-36.5029
0
LINE
8
BLACK
6
CONTINUOUS
10
155.275
20
-36.5029
11
155.189
21
-36.52
0
LINE
8
BLACK
6
CONTINUOUS
10
155.189
20
-36.52
11
154.439
21
-36.52
0
LINE
8
BLACK
6
CONTINUOUS
10
154.439
20
-36.52
11
154.353
21
-36.5029
0
LINE
8
BLACK
6
CONTINUOUS
10
154.353
20
-36.5029
11
154.28
21
-36.4541
0
LINE
8
BLACK
6
CONTINUOUS
10
154.28
20
-36.4541
11
154.231
21
-36.3811
0
LINE
8
BLACK
6
CONTINUOUS
10
154.231
20
-36.3811
11
154.214
21
-36.295
0
LINE
8
BLACK
6
CONTINUOUS
10
154.214
20
-36.295
11
154.214
21
-35.845
0
LINE
8
BLACK
6
CONTINUOUS
10
154.214
20
-35.845
11
154.231
21
-35.7589
0
LINE
8
BLACK
6
CONTINUOUS
10
154.231
20
-35.7589
11
154.28
21
-35.6859
0
LINE
8
BLACK
6
CONTINUOUS
10
154.28
20
-35.6859
11
154.353
21
-35.6371
0
LINE
8
BLACK
6
CONTINUOUS
10
154.353
20
-35.6371
11
154.439
21
-35.62
0
LINE
8
BLACK
6
CONTINUOUS
10
154.439
20
-35.62
11
155.189
21
-35.62
0
LINE
8
BLACK
6
CONTINUOUS
10
155.189
20
-35.62
11
155.275
21
-35.6371
0
LINE
8
BLACK
6
CONTINUOUS
10
150.375
20
-34.2827
11
148.225
21
-34.2827
0
LINE
8
BLACK
6
CONTINUOUS
10
148.225
20
-34.2827
11
148.225
21
-31.7827
0
LINE
8
BLACK
6
CONTINUOUS
10
148.225
20
-31.7827
11
150.375
21
-31.7827
0
LINE
8
BLACK
6
CONTINUOUS
10
150.375
20
-31.7827
11
150.375
21
-34.2827
0
LINE
8
BLACK
6
CONTINUOUS
10
188.475
20
-34.2827
11
186.325
21
-34.2827
0
LINE
8
BLACK
6
CONTINUOUS
10
186.325
20
-34.2827
11
186.325
21
-31.7827
0
LINE
8
BLACK
6
CONTINUOUS
10
186.325
20
-31.7827
11
188.475
21
-31.7827
0
LINE
8
BLACK
6
CONTINUOUS
10
188.475
20
-31.7827
11
188.475
21
-34.2827
0
LINE
8
BLACK
6
CONTINUOUS
10
155.9
20
-32.0475
11
153.55
21
-32.0475
0
LINE
8
BLACK
6
CONTINUOUS
10
153.55
20
-32.0475
11
153.55
21
-29.5475
0
LINE
8
BLACK
6
CONTINUOUS
10
153.55
20
-29.5475
11
155.9
21
-29.5475
0
LINE
8
BLACK
6
CONTINUOUS
10
155.9
20
-29.5475
11
155.9
21
-32.0475
0
LINE
8
BLACK
6
CONTINUOUS
10
169.425
20
-29.5202
11
167.275
21
-29.5202
0
LINE
8
BLACK
6
CONTINUOUS
10
167.275
20
-29.5202
11
167.275
21
-27.0202
0
LINE
8
BLACK
6
CONTINUOUS
10
167.275
20
-27.0202
11
169.425
21
-27.0202
0
LINE
8
BLACK
6
CONTINUOUS
10
169.425
20
-27.0202
11
169.425
21
-29.5202
  0
ENDSEC
  0
EOF
